<svg xmlns="http://www.w3.org/2000/svg" width="44" height="44"><g fill="none" fill-rule="evenodd"><path d="M-3-3h50v50H-3z"/><path fill="#477AA4" d="M22 40.976h-.246c-.105 0-.315-.21-.385-.245-.14-.106-.316-.21-.456-.316-.281-.21-.562-.421-.807-.631-.631-.527-1.263-1.123-1.719-1.79-1.017-1.543-.842-3.297.105-4.84.667-1.087 1.684-1.964 2.456-2.946.842-1.088 1.613-2.35 2-3.683.35-1.193.21-2.56-.597-3.578-.912-1.123-2.596-1.719-3.929-2.07l-.526-.105a6.459 6.459 0 00-1.157-.105 27.545 27.545 0 00-4.175.105c-1.227.105-2.49.491-3.648-.105-.982-.491-1.894-1.193-2.981-1.473-.842-.21-1.754-.28-2.596-.28C4.813 9.897 12.6 3.023 22 3.023c1.404 0 2.737.14 4.035.42.07 1.438 1.403 2.315.736 3.859-.912 2.07-3.472 2.7-4.525 4.665-.49.912-.456 1.894.106 2.736.385.596.736 1.228 1.052 1.859.456.877.947 2.034 1.859 2.56 2.666 1.544 2.876-3.226 4.7-3.542.983-.176 1.544.386 2 1.192.561.948.982 1.754 2.175 2 .736.14 1.508.07 2.21 0 .35-.035 4.244-.632 4.209-.842.28 1.333.456 2.7.456 4.104-.037 10.419-8.56 18.942-19.013 18.942z"/><path fill="#FFF" d="M23.473 34.031c.21.176.386.351.561.597.807 1.262.982 3.016-.56 3.753-.632.315-1.439.315-2.105.14-1.263-.35-1.86-1.473-1.368-2.7.596-1.369 2.21-2.667 3.472-1.79zM34.136 22c.842 0 1.649.21 2.28.772.491.456.772 1.157.526 1.824-.385.982-1.438 1.789-2.14 2.525a22.38 22.38 0 01-1.858 1.79c-.491.455-1.088 1.051-1.754 1.157-.947.175-1.824-.527-2.596-.983-.912-.526-1.859-1.017-2.806-1.543-.666-.35-1.157-.982-.982-1.754.105-.42.386-.736.737-.982.56-.35 1.333-.35 1.964-.596.596-.28 1.157-.667 1.754-.982 1.157-.597 2.525-.912 3.788-1.123.35-.07.702-.105 1.087-.105zM22 40.976c10.453 0 18.976-8.523 19.012-18.941 0-1.403-.176-2.771-.456-4.104.035.21-3.859.807-4.21.842-.701.07-1.473.14-2.21 0-1.192-.246-1.613-1.052-2.174-2-.456-.806-1.017-1.368-2-1.192-1.824.316-2.034 5.086-4.7 3.543-.912-.527-1.403-1.684-1.859-2.561a19.443 19.443 0 00-1.052-1.859c-.562-.842-.597-1.824-.106-2.736 1.053-1.964 3.613-2.596 4.525-4.665.667-1.544-.666-2.42-.736-3.859A19 19 0 0022 3.024c-9.4 0-17.187 6.874-18.66 15.89.841 0 1.753.07 2.595.28 1.087.28 2 .982 2.981 1.473 1.158.596 2.42.21 3.648.105a27.545 27.545 0 014.175-.105c.385 0 .771.035 1.157.105l.526.105c1.333.351 3.017.947 3.929 2.07.807 1.017.947 2.385.596 3.578-.386 1.333-1.157 2.595-2 3.683-.771.982-1.788 1.859-2.455 2.946-.947 1.543-1.122 3.297-.105 4.84.456.667 1.088 1.263 1.719 1.79.245.21.526.42.807.63.14.106.315.211.456.317.07.035.28.245.385.245H22zm21.853-19.432v1.052c-.035.176-.035.316-.035.491v.035c-.28 5.402-2.525 10.453-6.384 14.312-3.858 3.858-8.91 6.103-14.311 6.384h-.035c-.176.035-.316.035-.491.035h-.632a21.89 21.89 0 01-9.12-2c-.034 0-.07-.035-.105-.035l-.21-.105c-.14-.07-.246-.105-.35-.175 0-.035-.036-.035-.036-.035a22.025 22.025 0 01-10.348-11.12c0-.07-.035-.14-.07-.21 0-.07-.035-.14-.07-.21a2.416 2.416 0 01-.105-.281c0-.035-.035-.07-.035-.106-.07-.105-.105-.245-.14-.35-.527-1.439-.842-2.912-1.053-4.42V24.7c-.035-.07-.035-.14-.035-.21-.035-.07-.035-.141-.035-.211 0-.105 0-.176-.035-.316-.035-.07-.035-.14-.035-.21-.035-.07-.035-.176-.035-.246V22c0-.702.035-1.298.07-1.964A21.717 21.717 0 016.532 6.53C10.355 2.743 15.3.498 20.597.218h.035c.14-.036.246-.036.386-.036h1.754c.175.036.316.036.491.036h.14c.176 0 .386.035.562.035h.07C29.12.708 33.82 2.918 37.469 6.53c3.683 3.683 5.858 8.419 6.314 13.54v.07c.035.14.035.245.035.35v.106c.035.175.035.315.035.49v.457z"/></g></svg>