<svg xmlns="http://www.w3.org/2000/svg" width="40" height="40" fill="none"><path fill="#777E90" fill-rule="evenodd" d="M37.634 15.875C37.277 15.518 23.5 1.465 23.5 1.465A4.86 4.86 0 0020 0c-1.33 0-2.571.518-3.5 1.473 0 0-13.714 13.973-14.134 14.41-.41.43-.937 1.322-.937 2.331v18.929A2.866 2.866 0 004.286 40h31.428a2.866 2.866 0 002.857-2.857V18.125c0-1.045-.589-1.884-.937-2.25zm-1.732 3.777l-7.241 7.571a.173.173 0 000 .25l6.723 7.161a1.159 1.159 0 01-.822 1.982 1.17 1.17 0 01-.821-.34L20.259 21.885a.351.351 0 00-.518 0L6.268 36.268a1.17 1.17 0 01-.822.34 1.159 1.159 0 01-.821-1.982l6.723-7.162a.19.19 0 000-.25L4.08 19.643c-.866-.884-.214-3.197 1.438-3.197h28.964c1.473-.008 2.286 2.33 1.42 3.206z" clip-rule="evenodd"/></svg>