<svg xmlns="http://www.w3.org/2000/svg" viewBox="0 -91 512 512" width="512" height="512"><path d="M166 60c34.668 0 66.027 17.79 84 42.3l42.598-42.902C267.12 26.27 218.086 0 166 0 74.8 0 0 73.8 0 165s74.8 165 166 165c75.602 0 139.2-50.7 158.7-120 4.198-14.402 6.3-29.402 6.3-45v-15H181v59.988h79.5C244 245.391 207.7 270 166 270c-57.898 0-106-47.102-106-105S108.102 60 166 60zm300 30h-60v45h-45v60h45v45h60v-45h46v-60h-46zm0 0" data-original="#000000" class="active-path" data-old_color="#000000" fill="#FFF"/></svg>