<svg xmlns="http://www.w3.org/2000/svg" width="31" height="37" fill="none"><path fill="#303C42" fill-rule="evenodd" d="M29.186 29.397a5.731 5.731 0 01-.879-.663c-.094-.094-.06-.413-.03-.715.016-.144.03-.285.03-.395A2.235 2.235 0 0028 25.821a1.404 1.404 0 00-.247-.185v-.987a15.167 15.167 0 00-4.162-10.204 6.813 6.813 0 01-2.003-3.653v-.354c0-2.128 0-6.567-2.313-8.895A5.225 5.225 0 0015.421.002c-3.237 0-5.395 1.541-5.395 9.249a12.33 12.33 0 01-1.834 5.672 34.496 34.496 0 00-1.203 2.513 37.487 37.487 0 00-2.358 7.383 2.45 2.45 0 00-1.202 1.85l-.124.508c-.27.1-.548.172-.832.216-.925.185-2.466.493-2.466 1.896.005.378.046.755.123 1.125a4.959 4.959 0 01-.123 2.544.755.755 0 000 .2c0 1.738 2.588 2.05 4.342 2.262h.002l.28.035h.678c.42.126.828.29 1.218.493a8.971 8.971 0 003.499 1.048 1.803 1.803 0 001.326-.6h.077a9.156 9.156 0 013.992-.941h4.717c.08.314.233.604.447.848a2.28 2.28 0 001.772.693 4.932 4.932 0 003.854-2.034l.493-.51a5.453 5.453 0 011.834-.908c1.11-.401 2.25-.817 2.25-1.943 0-1.113-.859-1.698-1.579-2.188l-.023-.016zM16.962 4.627c.894 0 1.542.955 1.542 2.28 0 1.326-.509 2.066-1.249 2.236.307-.259.473-.648.447-1.048 0-.632-.339-1.157-.74-1.157-.4 0-.74.51-.74 1.157-.025.4.14.79.447 1.048-.74-.185-1.248-1.08-1.248-2.235 0-1.156.647-2.282 1.541-2.282zm-3.082 7.706a8.97 8.97 0 003.76-1.726 6.027 6.027 0 00-2.99-1.356 4.732 4.732 0 00-3.083 1.541 5.764 5.764 0 002.313 1.541zm-1.542-7.707c.894 0 1.542.956 1.542 2.282 0 1.325-.51 2.05-1.25 2.235.308-.259.474-.648.448-1.048 0-.632-.34-1.157-.74-1.157-.4 0-.74.51-.74 1.157-.026.4.14.79.447 1.048-.74-.185-1.248-1.064-1.248-2.235 0-1.172.647-2.282 1.541-2.282zm-2.312 30.829c.185 0 .324-.154.416-.447a3.499 3.499 0 00-1.665-3.53 8.631 8.631 0 01-2.373-3.453 6.041 6.041 0 00-1.08-1.819c-.107 0-.184 0-.385.817-.07.466-.267.903-.57 1.264-.45.337-.983.545-1.542.601a3.454 3.454 0 00-1.279.401c.012.29.048.58.108.863a6.382 6.382 0 01-.077 3.083c.154.216.863.493 3.16.678h.863c.537.143 1.055.35 1.541.617.893.49 1.872.805 2.883.925zm10.235-5.071c-2.266 2.28-6.798 2.127-8.801 1.818a5.61 5.61 0 00-1.773-1.988 7.707 7.707 0 01-1.865-2.852 6.166 6.166 0 00-1.542-2.42 36.808 36.808 0 012.205-6.905c.207-.524.453-1.01.708-1.516.143-.282.289-.57.432-.873a23.784 23.784 0 001.45-3.222 5.95 5.95 0 002.805 1.449 15.493 15.493 0 004.362-1.85c2.25 4.247 3.4 8.99 3.345 13.796a9.342 9.342 0 00-1.326 4.547v.016zm5.41 3.005a6.46 6.46 0 012.39-1.28v-.015a4.457 4.457 0 001.264-.57c-.031-.17-.401-.431-.987-.817a6.981 6.981 0 01-1.125-.863 1.911 1.911 0 01-.509-1.233 3.083 3.083 0 01-2.266.694h-.54a2.066 2.066 0 01-1.54-.648 2.203 2.203 0 01-.201-.262c-.139.694-.57 5.056-.57 5.518l-.016.262a4.83 4.83 0 01-.004.061c-.019.274-.056.807.158 1.05a.847.847 0 00.632.184 3.499 3.499 0 002.79-1.541l.524-.54z" clip-rule="evenodd"/></svg>