<svg xmlns="http://www.w3.org/2000/svg" width="50" height="50" fill="none"><path fill="#3B5998" d="M0 0h50v50H0V0z" filter="url(#a)"/><g clip-path="url(#b)"><path fill="#fff" d="M34.158 14.706H15.842c-.628 0-1.136.508-1.136 1.136v18.316c0 .628.508 1.136 1.136 1.136h9.86v-7.973H23.02v-3.106h2.684v-2.294c0-2.659 1.624-4.105 3.996-4.105 1.137 0 2.113.082 2.398.121v2.78H30.45c-1.287 0-1.538.617-1.538 1.518v1.981h3.075l-.399 3.114h-2.676v7.964h5.246c.628 0 1.136-.508 1.136-1.136V15.842c0-.628-.508-1.136-1.136-1.136z"/></g><defs><clipPath id="b"><path fill="#fff" d="M0 0h20.588v20.588H0z" transform="translate(14.706 14.706)"/></clipPath><filter id="a" width="50" height="50" x="0" y="0" color-interpolation-filters="sRGB" filterUnits="userSpaceOnUse"><feFlood flood-opacity="0" result="BackgroundImageFix"/><feColorMatrix in="SourceAlpha" values="0 0 0 0 0 0 0 0 0 0 0 0 0 0 0 0 0 0 127 0"/><feOffset/><feColorMatrix values="0 0 0 0 0 0 0 0 0 0 0 0 0 0 0 0 0 0 0.2 0"/><feBlend in2="BackgroundImageFix" result="effect1_dropShadow"/><feBlend in="SourceGraphic" in2="effect1_dropShadow" result="shape"/></filter></defs></svg>