<svg xmlns="http://www.w3.org/2000/svg" width="50" height="50" fill="none"><path fill="#0077B5" d="M0 0h50v50H5a5 5 0 01-5-5V0z" filter="url(#a)"/><path fill="#fff" d="M19.53 16.462a2.188 2.188 0 11-3.095 3.094 2.188 2.188 0 013.095-3.094zm2.707 5.393v12.139h3.769v-6.003c0-1.584.298-3.118 2.262-3.118 1.937 0 1.961 1.811 1.961 3.218v5.904H34v-6.657c0-3.27-.704-5.783-4.526-5.783-1.835 0-3.065 1.007-3.568 1.96h-.051v-1.66h-3.618zm-6.142 0h3.775v12.139h-3.775V21.855z"/><defs><filter id="a" width="50" height="50" x="0" y="0" color-interpolation-filters="sRGB" filterUnits="userSpaceOnUse"><feFlood flood-opacity="0" result="BackgroundImageFix"/><feColorMatrix in="SourceAlpha" values="0 0 0 0 0 0 0 0 0 0 0 0 0 0 0 0 0 0 127 0"/><feOffset/><feColorMatrix values="0 0 0 0 0 0 0 0 0 0 0 0 0 0 0 0 0 0 0.2 0"/><feBlend in2="BackgroundImageFix" result="effect1_dropShadow"/><feBlend in="SourceGraphic" in2="effect1_dropShadow" result="shape"/></filter></defs></svg>