<svg xmlns="http://www.w3.org/2000/svg" width="50" height="50" fill="none"><path fill="#55ACEE" d="M0 0h50v50H0z" filter="url(#a)"/><g clip-path="url(#b)"><path fill="#fff" d="M35.294 18.615a8.506 8.506 0 01-2.425.665 4.245 4.245 0 001.857-2.336 8.722 8.722 0 01-2.683 1.016 4.224 4.224 0 00-7.197 3.848 11.976 11.976 0 01-8.706-4.401 4.146 4.146 0 00-.572 2.124c0 1.467.747 2.758 1.879 3.516a4.218 4.218 0 01-1.913-.528v.052a4.227 4.227 0 003.388 4.143 4.294 4.294 0 01-1.898.072 4.234 4.234 0 003.95 2.934 8.465 8.465 0 01-5.237 1.806c-.335 0-.67-.019-1.004-.057a12.008 12.008 0 006.485 1.896c7.773 0 12.019-6.434 12.019-12.005 0-.18 0-.36-.013-.54a8.531 8.531 0 002.11-2.188l-.04-.017z"/></g><defs><clipPath id="b"><path fill="#fff" d="M0 0h20.588v20.588H0z" transform="translate(14.706 14.706)"/></clipPath><filter id="a" width="50" height="50" x="0" y="0" color-interpolation-filters="sRGB" filterUnits="userSpaceOnUse"><feFlood flood-opacity="0" result="BackgroundImageFix"/><feColorMatrix in="SourceAlpha" values="0 0 0 0 0 0 0 0 0 0 0 0 0 0 0 0 0 0 127 0"/><feOffset/><feColorMatrix values="0 0 0 0 0 0 0 0 0 0 0 0 0 0 0 0 0 0 0.2 0"/><feBlend in2="BackgroundImageFix" result="effect1_dropShadow"/><feBlend in="SourceGraphic" in2="effect1_dropShadow" result="shape"/></filter></defs></svg>