<svg xmlns="http://www.w3.org/2000/svg" width="51" height="37" fill="none"><path fill="#fff" fill-rule="evenodd" d="M34.884 4.023c4.74 0 8.877 3.269 9.973 7.843 3.248 1.42 5.4 4.679 5.389 8.22 0 4.95-4.02 8.97-8.971 8.97h-6.193v4.72c0 1.035-.836 1.87-1.87 1.87H17.777a1.868 1.868 0 01-1.87-1.87v-4.72H9.725c-4.95 0-8.971-4.02-8.971-8.97 0-4.293 3.08-7.98 7.237-8.805a12.318 12.318 0 013.927-7.32A12.388 12.388 0 0120.242.753a12.45 12.45 0 019.618 4.574 10.235 10.235 0 015.024-1.305zM33.64 33.777v-5.452l-.01-6.067v-.104a.404.404 0 00-.313-.304c-.021-.01-.042-.01-.063-.01H17.787a.408.408 0 00-.408.407v11.53c0 .22.188.407.408.407h15.446c.22 0 .407-.188.407-.407zm-13.827-15.05v1.64h11.374v-1.64a5.687 5.687 0 00-11.374 0zm15.28 8.867h6.182c4.147 0 7.52-3.363 7.5-7.509 0-3.08-1.943-5.89-4.836-7.008a.744.744 0 01-.45-.543c-.814-4.093-4.448-7.06-8.626-7.06a8.798 8.798 0 00-4.804 1.42.728.728 0 01-.992-.177 10.959 10.959 0 00-8.846-4.511A10.875 10.875 0 009.36 11.98a.722.722 0 01-.627.647c-3.718.491-6.527 3.698-6.527 7.447 0 4.136 3.363 7.509 7.509 7.509h6.182v-5.347c0-1.034.836-1.87 1.87-1.87h.574v-1.64c0-3.937 3.206-7.143 7.154-7.143 3.937 0 7.143 3.206 7.143 7.144v1.64h.575a1.879 1.879 0 011.833 1.488c.002.005.005.01.005.015 0 .01.002.021.005.032a1.594 1.594 0 01.037.345v5.346zm-13.107.418a3.592 3.592 0 117.185 0 3.592 3.592 0 01-7.185 0zm1.462 0c0 1.18.96 2.13 2.13 2.13s2.131-.96 2.131-2.13c0-1.18-.96-2.13-2.13-2.13s-2.131.96-2.131 2.13z" clip-rule="evenodd"/><path fill="#fff" d="M44.857 11.866l.29-.696-1.88-.784.917 1.82.673-.34zm0 0l-.673.34 1.405-.523-.732.183zm5.389 8.22l-.754-.003v.002h.754zm-15.164 8.97v-.754h-.754v.754h.754zm-19.175 0h.754v-.754h-.754v.754zM7.991 11.281l.147.74.521-.104.078-.525-.746-.111zm3.927-7.32l-.505-.56h-.001l.506.56zM29.86 5.327l-.584.476.4.492.553-.31-.369-.658zm3.78 22.997h.754v-.001l-.754.001zm-.01-6.067h-.754.754zm0-.105h.754v-.099l-.026-.095-.728.194zm-.313-.303l-.337.675.09.045.099.02.148-.74zm-13.504-1.483h-.754v.754h.754v-.754zm11.374 0v.754h.753v-.754h-.753zm10.088 7.227v.754h.127l.12-.041-.247-.713zm-6.182 0h-.754v.754h.754v-.754zm6.183 0v-.754h-.127l-.12.042.247.712zm7.498-7.509h-.754v.004l.754-.004zm-4.835-7.008l-.286.698.007.003.007.003.272-.704zm-.45-.543l-.739.148.002.006.738-.154zm-13.43-5.64l-.41-.631-.007.004-.006.004.423.624zm-.992-.177l-.61.444.002.002.608-.446zM9.36 11.981l-.75-.077v.006l.75.07zm-.627.647l-.093-.748h-.006l.1.748zm7.164 14.956v.754h.754v-.754h-.754zm2.444-7.217v.754h.754v-.754h-.754zm14.297 0h-.753v.754h.753v-.754zm.763.01l-.124.744.023.004.024.003.077-.75zm1.64 1.463h.753v-.08l-.017-.08-.736.16zm.005.015l-.675.338.675-.338zm.015.079h-.754v.075l.015.073.74-.148zm10.53-10.244c-1.18-4.914-5.619-8.42-10.708-8.42v1.508c4.393 0 8.225 3.03 9.24 7.265l1.466-.352zm-.444-.52l.02.008h-.002l-.004-.002-.014-.006-.58 1.392a.642.642 0 01-.02-.008h.002l.004.002.014.006.58-1.392zm-.963 1.036l1.346-.68-1.346.68zm1.405-.523l-1.463.366 1.463-.366zM51 20.087c.011-3.845-2.321-7.373-5.84-8.912l-.605 1.382c2.977 1.301 4.947 4.29 4.937 7.526l1.508.004zm-9.725 9.723c5.367 0 9.725-4.358 9.725-9.725h-1.508c0 4.534-3.683 8.217-8.217 8.217v1.508zm-6.193 0h6.193v-1.508h-6.193v1.508zm.754 3.967v-4.72h-1.508v4.72h1.508zM33.213 36.4a2.622 2.622 0 002.623-2.623h-1.508c0 .617-.498 1.115-1.116 1.115V36.4zm-15.436 0h15.435v-1.508H17.777V36.4zm-2.624-2.623a2.621 2.621 0 002.624 2.623v-1.508a1.114 1.114 0 01-1.116-1.115h-1.508zm0-4.72v4.72h1.508v-4.72h-1.508zm-5.428.753h6.182v-1.508H9.725v1.508zM0 20.085c0 5.367 4.358 9.725 9.725 9.725v-1.508c-4.534 0-8.217-3.683-8.217-8.217H0zm7.845-9.544C3.339 11.436 0 15.43 0 20.085h1.508c0-3.929 2.823-7.309 6.63-8.065l-.293-1.479zm3.567-7.14a13.072 13.072 0 00-4.166 7.77l1.491.22a11.564 11.564 0 013.688-6.872l-1.013-1.117zM20.242 0a13.142 13.142 0 00-8.83 3.4l1.012 1.12a11.634 11.634 0 017.818-3.012V0zm10.203 4.852A13.206 13.206 0 0020.242 0v1.508c3.5 0 6.837 1.6 9.034 4.296l1.169-.952zm4.439-1.583c-1.904 0-3.754.482-5.393 1.402l.738 1.315a9.481 9.481 0 014.655-1.21V3.27zm-1.998 25.056v5.452h1.508v-5.452h-1.508zm-.01-6.066l.01 6.068 1.508-.003-.01-6.068-1.508.003zm0-.043v.042h1.508v-.042h-1.508zm0-.042v.042h1.508v-.042h-1.508zm0-.02v.02h1.508v-.02h-1.508zm.293.436a.361.361 0 01-.18-.096.326.326 0 01-.088-.147l1.457-.388a1.158 1.158 0 00-.893-.848l-.296 1.479zm.085.004c.018 0-.018 0-.062-.005a.662.662 0 01-.212-.064l.674-1.35c-.202-.1-.398-.09-.4-.09v1.509zm-.02 0h.02v-1.508h-.02v1.508zm-15.447 0h15.446v-1.508H17.787v1.508zm.346-.347c0 .2-.162.347-.346.347v-1.508c-.623 0-1.162.502-1.162 1.161h1.508zm0 11.53v-11.53h-1.508v11.53h1.508zm-.346-.347c.108 0 .193.046.247.1.053.053.1.138.1.247h-1.509a1.17 1.17 0 001.162 1.161V33.43zm15.446 0H17.787v1.508h15.446V33.43zm-.347.347c0-.109.046-.194.1-.248a.348.348 0 01.247-.099v1.508c.636 0 1.161-.526 1.161-1.161h-1.508zm-12.319-13.41v-1.64h-1.508v1.64h1.508zm10.62-.754H19.813v1.508h11.374v-1.508zm-.754-.886v1.64h1.508v-1.64h-1.508zM25.505 13.8a4.933 4.933 0 014.928 4.927h1.508a6.441 6.441 0 00-6.436-6.435V13.8zm-4.938 4.927a4.936 4.936 0 014.938-4.927v-1.508c-3.56 0-6.446 2.885-6.446 6.435h1.508zm20.708 8.113h-6.182v1.508h6.182V26.84zm-.246.042h-.001l.495 1.424-.495-1.424zm6.991-6.793c.02 3.725-3.013 6.751-6.744 6.751v1.508c4.56 0 8.275-3.7 8.252-8.267l-1.508.008zm-4.353-6.308c2.606 1.006 4.353 3.539 4.353 6.304h1.508c0-3.396-2.138-6.483-5.317-7.71l-.544 1.406zm-.915-1.093a1.5 1.5 0 00.901 1.087l.571-1.395c.002 0 .003.002.004.003l.001.002-.001-.004-1.476.307zm-7.889-6.46c3.82 0 7.143 2.715 7.887 6.454l1.48-.295c-.886-4.449-4.832-7.666-9.367-7.666v1.507zm-4.393 1.3a8.041 8.041 0 014.393-1.3V4.721a9.548 9.548 0 00-5.215 1.542l.822 1.264zm-2.011-.365c.462.63 1.353.81 2.023.356l-.846-1.248a.044.044 0 01.015-.007h.012a.02.02 0 01.012.007l-1.216.892zM20.22 2.96c3.246 0 6.32 1.565 8.236 4.2l1.22-.886a11.713 11.713 0 00-9.456-4.822V2.96zm-10.11 9.098A10.121 10.121 0 0120.22 2.96V1.452A11.629 11.629 0 008.61 11.904l1.5.154zm-1.283 1.318a1.476 1.476 0 001.283-1.325l-1.5-.14c0-.01.004-.017.008-.02a.038.038 0 01.022-.01l.187 1.495zM2.96 20.075c0-3.371 2.529-6.258 5.872-6.7l-.198-1.494c-4.093.54-7.182 4.066-7.182 8.194H2.96zm6.755 6.755c-3.73 0-6.755-3.035-6.755-6.755H1.452c0 4.551 3.7 8.263 8.263 8.263V26.83zm6.182 0H9.715v1.508h6.182V26.83zm-.754-4.593v5.347h1.508v-5.347h-1.508zm2.624-2.624a2.621 2.621 0 00-2.624 2.624h1.508c0-.618.498-1.116 1.116-1.116v-1.508zm.574 0h-.574v1.508h.574v-1.508zm-.754-.885v1.64h1.508v-1.64h-1.508zm7.908-7.898c-4.363 0-7.908 3.543-7.908 7.898h1.508c0-3.52 2.868-6.39 6.4-6.39V10.83zm7.897 7.898c0-4.354-3.543-7.898-7.897-7.898v1.508a6.4 6.4 0 016.39 6.39h1.507zm0 1.64v-1.64h-1.508v1.64h1.508zm-.18-.755h-.574v1.508h.575v-1.508zm.313.021c-.134-.022-.26-.02-.312-.02v1.507a4.478 4.478 0 01.062 0c.011.001.01.002.002 0l.248-1.487zm2.252 2.046a2.633 2.633 0 00-2.3-2.052l-.153 1.5c.486.05.88.414.98.871l1.473-.319zm-.057-.162c-.005-.01.013.024.028.065a.732.732 0 01.046.257h-1.508a.777.777 0 00.075.332l.007.014a.158.158 0 01.003.007l1.349-.675zm.085.353a.777.777 0 00-.082-.346l-.003-.007-1.349.675c.005.01-.012-.024-.028-.065a.73.73 0 01-.046-.257h1.508zm-.017-.151l.006.028a.672.672 0 01.01.123h-1.507a.836.836 0 00.028.214l1.463-.365zm.027.214a.836.836 0 00-.014-.155l-.013-.06-1.463.366a.671.671 0 01-.017-.152h1.507zm.032.313a2.35 2.35 0 00-.046-.461l-1.479.296a.837.837 0 01.017.165h1.508zm0 5.347v-5.347h-1.508v5.347h1.508zm-10.269-3.929a4.346 4.346 0 00-4.346 4.347h1.508a2.839 2.839 0 012.838-2.839v-1.508zm4.347 4.347a4.353 4.353 0 00-4.347-4.347v1.508a2.845 2.845 0 012.84 2.839h1.507zm-4.347 4.346a4.346 4.346 0 004.347-4.346h-1.508a2.838 2.838 0 01-2.839 2.838v1.508zm-4.346-4.346c0 2.4 1.946 4.346 4.346 4.346v-1.507a2.839 2.839 0 01-2.838-2.84h-1.508zm4.346 1.376a1.379 1.379 0 01-1.376-1.376h-1.508c0 1.599 1.3 2.884 2.884 2.884v-1.508zm1.377-1.376c0 .753-.623 1.376-1.377 1.376v1.508a2.893 2.893 0 002.885-2.884h-1.508zm-1.377-1.377c.756 0 1.377.615 1.377 1.377h1.508c0-1.6-1.3-2.885-2.885-2.885v1.508zm-1.376 1.377c0-.754.623-1.377 1.376-1.377v-1.508a2.893 2.893 0 00-2.884 2.885h1.508z"/></svg>