<svg xmlns="http://www.w3.org/2000/svg" width="40" height="40" fill="none"><rect width="36.5" height="36.5" x="1.75" y="1.75" stroke="#fff" stroke-width="3.5" rx="2.25"/><path fill="#fff" fill-rule="evenodd" d="M16.74 10v6.74H10v6.521h6.74v6.74h6.521v-6.74h6.74V16.74h-6.74V10H16.74zm1 1h4.521v6.74h6.74v4.521h-6.74v6.74H17.74v-6.74H11V17.74h6.74V11z" clip-rule="evenodd"/><path fill="#fff" d="M16.74 10V9h-1v1h1zm0 6.74v1h1v-1h-1zm-6.74 0v-1H9v1h1zm0 6.521H9v1h1v-1zm6.74 0h1v-1h-1v1zm0 6.74h-1v1h1v-1zm6.521 0v1h1v-1h-1zm0-6.74v-1h-1v1h1zm6.74 0v1h1v-1h-1zm0-6.521h1v-1h-1v1zm-6.74 0h-1v1h1v-1zm0-6.74h1V9h-1v1zm-5.522 1v-1h-1v1h1zm4.522 0h1v-1h-1v1zm0 6.74h-1v1h1v-1zm6.74 0h1v-1h-1v1zm0 4.521v1h1v-1h-1zm-6.74 0v-1h-1v1h1zm0 6.74v1h1v-1h-1zm-4.522 0h-1v1h1v-1zm0-6.74h1v-1h-1v1zm-6.74 0h-1v1h1v-1zm0-4.522v-1h-1v1h1zm6.74 0v1h1v-1h-1zm-2-7.739v6.74h2V10h-2zm1 5.74H10v2h6.74v-2zM9 16.74v6.521h2V16.74H9zm1 7.521h6.74v-2H10v2zm5.74-1v6.74h2v-6.74h-2zm1 7.74h6.521v-2H16.74v2zm7.521-1v-6.74h-2v6.74h2zm-1-5.74h6.74v-2h-6.74v2zm7.74-1V16.74h-2v6.521h2zm-1-7.521h-6.74v2h6.74v-2zm-5.74 1V10h-2v6.74h2zm-1-7.74H16.74v2h6.521V9zm-5.522 3h4.522v-2H17.74v2zm3.522-1v6.74h2V11h-2zm1 7.74h6.74v-2h-6.74v2zm5.74-1v4.521h2V17.74h-2zm1 3.521h-6.74v2h6.74v-2zm-7.74 1v6.74h2v-6.74h-2zm1 5.74H17.74v2h4.522v-2zm-3.522 1v-6.74h-2v6.74h2zm-1-7.74H11v2h6.74v-2zm-5.74 1V17.74h-2v4.522h2zm-1-3.522h6.74v-2H11v2zm7.74-1V11h-2v6.74h2z"/></svg>