<svg xmlns="http://www.w3.org/2000/svg" width="46" height="46" fill="none"><path fill="#fff" fill-rule="evenodd" d="M32.36.758c-.266-.005-.405.219-.479.356l-.695 2.394a9.007 9.007 0 00-1.498.633l-2.193-1.22a.508.508 0 00-.587.092L24.76 5.145a.511.511 0 00-.077.602l1.22 2.194c-.251.476-.47.973-.633 1.498l-2.41.68a.508.508 0 00-.355.478v3.043a.51.51 0 00.355.479l2.425.695c.164.517.369 1.011.618 1.483l-1.22 2.208a.505.505 0 00.077.587l2.147 2.147c.15.147.401.182.587.078l2.193-1.22a9.12 9.12 0 001.498.617l.695 2.41c.054.21.26.37.48.37h3.027c.218 0 .424-.16.478-.37l.695-2.41a9.12 9.12 0 001.498-.618l2.194 1.22a.505.505 0 00.587-.077l2.147-2.147a.505.505 0 00.077-.587l-1.22-2.208c.249-.472.453-.966.617-1.483l2.425-.695a.508.508 0 00.356-.479v-3.043a.51.51 0 00-.355-.479l-2.41-.68a8.94 8.94 0 00-.633-1.497l1.22-2.194a.511.511 0 00-.077-.602L40.84 3.013a.508.508 0 00-.587-.092l-2.194 1.22a9.01 9.01 0 00-1.498-.633l-.695-2.394a.51.51 0 00-.478-.356H32.36zm.355.989h2.317l.634 2.27a.5.5 0 00.355.34 7.922 7.922 0 011.822.772.502.502 0 00.48 0l2.084-1.158 1.622 1.622-1.158 2.07a.501.501 0 000 .494c.326.571.579 1.178.756 1.822a.51.51 0 00.34.34l2.286.649v2.301l-2.286.649a.508.508 0 00-.34.34 7.994 7.994 0 01-.756 1.838.502.502 0 000 .479l1.143 2.085-1.607 1.606-2.085-1.158a.507.507 0 00-.479.015 7.875 7.875 0 01-1.822.757.504.504 0 00-.356.34l-.648 2.286H32.73l-.649-2.286a.504.504 0 00-.355-.34 7.876 7.876 0 01-1.823-.757.507.507 0 00-.479-.015l-2.085 1.158-1.606-1.606 1.143-2.085a.502.502 0 000-.48 7.992 7.992 0 01-.757-1.837.508.508 0 00-.34-.34l-2.286-.649v-2.301l2.286-.649a.508.508 0 00.34-.34c.178-.644.43-1.25.757-1.822a.501.501 0 000-.494l-1.159-2.07L27.34 3.97l2.085 1.159a.502.502 0 00.48 0 7.924 7.924 0 011.822-.773.504.504 0 00.355-.34l.633-2.27zm1.159 5.931a4.457 4.457 0 00-4.449 4.448 4.457 4.457 0 004.449 4.449 4.457 4.457 0 004.448-4.449 4.457 4.457 0 00-4.448-4.448zm0 .989a3.452 3.452 0 013.46 3.46 3.452 3.452 0 01-3.46 3.46 3.452 3.452 0 01-3.46-3.46 3.452 3.452 0 013.46-3.46zm-21.562 9.885c-.272-.006-.42.204-.48.355L11 21.811a10.38 10.38 0 00-1.838.757L6.52 21.1a.508.508 0 00-.587.093l-2.534 2.533a.505.505 0 00-.077.587l1.452 2.626a10.507 10.507 0 00-.772 1.853l-2.888.819a.51.51 0 00-.356.479v3.598a.51.51 0 00.356.48l2.888.818c.2.649.473 1.264.788 1.853l-1.468 2.626a.511.511 0 00.077.602L5.933 42.6c.15.147.401.182.587.078l2.64-1.468c.584.311 1.196.574 1.839.773l.834 2.888c.054.21.26.37.479.37h3.583c.218 0 .425-.16.479-.37l.834-2.888a10.511 10.511 0 001.838-.773l2.641 1.468a.506.506 0 00.587-.078l2.533-2.533a.511.511 0 00.078-.602l-1.468-2.626a10.55 10.55 0 00.788-1.853l2.888-.819a.51.51 0 00.355-.479V30.09a.51.51 0 00-.355-.48l-2.888-.818a10.51 10.51 0 00-.772-1.853l1.451-2.626a.505.505 0 00-.077-.587l-2.533-2.533a.508.508 0 00-.587-.093l-2.641 1.468a10.378 10.378 0 00-1.838-.757l-.834-2.904a.51.51 0 00-.479-.355h-3.583zm.355.988h2.873l.772 2.75a.51.51 0 00.34.34c.77.212 1.512.523 2.193.91a.502.502 0 00.479 0l2.518-1.39 2.008 2.009-1.406 2.517a.502.502 0 000 .479c.388.682.699 1.407.911 2.178.047.16.18.293.34.34l2.765.787v2.858l-2.765.788a.508.508 0 00-.34.34 9.495 9.495 0 01-.911 2.177.501.501 0 000 .494l1.39 2.518-1.992 1.993-2.518-1.39a.502.502 0 00-.479 0 9.617 9.617 0 01-2.193.91.508.508 0 00-.34.34l-.788 2.765h-2.842l-.787-2.764a.508.508 0 00-.34-.34 9.612 9.612 0 01-2.193-.912.502.502 0 00-.48 0l-2.517 1.39-1.992-1.992 1.39-2.518a.501.501 0 000-.494 9.5 9.5 0 01-.912-2.178.508.508 0 00-.34-.34l-2.764-.787V30.46l2.765-.787a.508.508 0 00.34-.34 9.5 9.5 0 01.91-2.178.502.502 0 000-.479L4.358 24.16l2.008-2.008 2.518 1.39a.502.502 0 00.479 0 9.612 9.612 0 012.193-.912.508.508 0 00.34-.34l.772-2.749zm1.436 6.92a5.445 5.445 0 00-5.437 5.437 5.445 5.445 0 005.437 5.437 5.445 5.445 0 005.437-5.437 5.445 5.445 0 00-5.437-5.437zm0 .988a4.442 4.442 0 014.449 4.449 4.442 4.442 0 01-4.449 4.448 4.442 4.442 0 01-4.448-4.448 4.442 4.442 0 014.448-4.449z" clip-rule="evenodd"/><path fill="#fff" d="M32.36.758l-.016.758h.016V.759zm-.479.356l-.668-.358-.038.07-.022.076.728.212zm-.695 2.394l.227.723.388-.121.113-.39-.728-.212zm-1.498.633l-.369.663.359.2.363-.192-.353-.671zm-2.193-1.22l.368-.663-.01-.006-.358.669zm-.587.092l.534.539.009-.01-.543-.529zM24.76 5.145l-.534-.538-.002.002.536.536zm-.077.602l.662-.368-.004-.008-.005-.008-.653.384zm1.22 2.194l.67.353.192-.363-.2-.36-.662.37zm-.633 1.498l.206.73.395-.112.122-.392-.723-.226zm-2.41.68l-.206-.73-.007.002.213.727zm-.355.478h.758v-.007l-.758.007zm0 3.043l.758.007v-.007h-.758zm.355.479l-.213.728h.004l.21-.728zm2.425.695l.723-.23-.123-.387-.391-.112-.209.729zm.618 1.483l.664.366.198-.358-.192-.363-.67.355zm-1.22 2.208l.66.372.003-.005-.663-.367zm.077.587l-.54.533.004.003.536-.536zm2.147 2.147l-.536.537.007.006.529-.543zm.587.078l-.369-.663-.003.002.372.66zm2.193-1.22l.352-.672-.363-.19-.358.199.37.662zm1.498.617l.729-.21-.113-.391-.388-.122-.228.723zm.695 2.41l.735-.19-.003-.01-.003-.01-.729.21zm3.985 0l-.728-.21-.003.01-.003.011.734.189zm.695-2.41l-.227-.723-.389.122-.112.39.728.211zm1.498-.618l.37-.662-.359-.2-.363.19.352.672zm2.194 1.22l.371-.66-.003-.002-.368.663zm.587-.077l.532.54.004-.004-.536-.536zm2.147-2.147l.536.537.003-.004-.54-.533zm.077-.587l-.664.367.003.005.66-.372zm-1.22-2.208l-.67-.355-.192.363.198.358.664-.366zm.617-1.483l-.208-.73-.391.113-.123.388.723.229zm2.425-.695l.21.729.003-.001-.212-.728zm.356-.479h-.759v.007l.759-.007zm0-3.043l-.758-.007v.007h.758zm-.355-.479l.212-.727-.007-.002-.206.73zm-2.41-.68l-.724.227.123.392.395.112.206-.73zm-.633-1.497l-.663-.37-.2.36.192.363.67-.353zm1.22-2.194l-.654-.384-.004.008-.005.008.663.368zm-.077-.602l.536-.536-.002-.002-.534.538zM40.84 3.013l-.543.53.009.008.534-.538zm-.587-.092l-.358-.669-.01.006.368.663zm-2.194 1.22l-.353.67.363.192.36-.2-.37-.662zm-1.498-.633l-.728.211.114.39.387.122.227-.723zm-.695-2.394l.728-.212V.901l-.728.213zm-.478-.356v.759h.006l-.006-.759zm-2.673.989V.989h-.575l-.155.554.73.204zm2.317 0l.73-.204-.154-.554h-.576v.758zm.634 2.27l-.731.204.003.01.727-.214zm.355.34l.201-.73-.01-.004-.011-.002-.18.736zm1.822.772l-.376.659.006.003.37-.662zm.48 0l-.37-.662h-.001l.37.663zm2.084-1.158l.537-.536-.405-.405-.5.278.368.663zm1.622 1.622l.662.37.28-.5-.406-.406-.536.536zm-1.158 2.07l.654.382.007-.012-.661-.37zm0 .494l.658-.376-.004-.007-.654.383zm.756 1.822l-.73.202.002.009.728-.21zm.34.34l-.21.729h.003l.207-.729zm2.286.649h.758v-.573l-.55-.156-.208.729zm0 2.301l.207.73.551-.157v-.573h-.758zm-2.286.649l-.207-.73-.003.002.21.728zm-.34.34l-.728-.21-.003.008.731.202zm-.756 1.838l-.659-.376-.005.01.664.366zm0 .479l.665-.365-.004-.006-.661.37zm1.143 2.085l.536.536.402-.402-.273-.499-.665.365zm-1.607 1.606l-.368.663.5.278.404-.405-.536-.536zm-2.085-1.158l.368-.663-.012-.007-.013-.007-.343.677zm-.479.015l.376.659.012-.007-.388-.652zm-1.822.757l.18.737.01-.003.011-.003-.201-.731zm-.356.34l-.727-.214-.002.007.73.207zm-.648 2.286v.758h.573l.156-.551-.73-.207zm-2.286 0l-.73.207.157.551h.573v-.758zm-.649-2.286l.73-.207-.002-.007-.728.214zm-.355-.34l-.202.731.011.003.01.003.18-.737zm-1.823-.757l-.387.652.011.007.376-.659zm-.479-.015l-.342-.677-.013.007-.013.007.368.663zm-2.085 1.158l-.536.536.404.405.5-.278-.368-.663zm-1.606-1.606l-.665-.365-.273.499.402.402.536-.536zm1.143-2.085l-.662-.37-.003.005.665.365zm0-.48l.664-.366-.006-.01-.658.377zm-.757-1.837l.731-.201-.003-.01-.728.21zm-.34-.34l.21-.728-.003-.001-.207.729zm-2.286-.649h-.758v.573l.551.157.207-.73zm0-2.301l-.207-.73-.551.157v.573h.758zm2.286-.649l.207.73.004-.001-.21-.729zm.34-.34l.729.211.002-.01-.731-.2zm.757-1.822l-.655-.383-.004.007.659.376zm0-.494l-.662.37.007.012.655-.382zm-1.159-2.07l-.536-.536-.406.405.28.501.662-.37zM27.34 3.97l.368-.663-.5-.278-.404.405.536.536zm2.085 1.159l.37-.662-.001-.001-.369.663zm.48 0l.37.661.005-.003-.376-.659zm1.822-.773l-.18-.736-.01.002-.012.003.202.731zm.355-.34l.727.214.003-.01-.73-.204zm-19.77 14.535l-.016.758h.016v-.758zm-.48.355l-.704-.28-.014.035-.01.036.729.209zM11 21.811l.224.724.391-.121.114-.394-.73-.21zm-1.838.757l-.368.662.36.201.365-.195-.357-.668zM6.52 21.1l.368-.663-.01-.005-.358.668zm-.587.093l.536.536.007-.007-.543-.53zm-2.534 2.533l-.536-.536-.003.003.54.533zm-.077.587l.664-.367-.003-.005-.66.372zm1.452 2.626l.67.356.193-.363-.2-.36-.663.367zm-.772 1.853l.207.73.396-.113.122-.394-.725-.223zm-2.888.819l-.207-.73-.006.002.213.728zm-.356.479h.759v-.007l-.759.007zm0 3.598l.758.007v-.007H.758zm.356.48l-.213.727.006.002.207-.73zm2.888.818l.724-.224-.121-.394-.396-.112-.207.73zm.788 1.853l.662.37.202-.362-.196-.365-.668.357zm-1.468 2.626l.654.384.004-.007.004-.007-.662-.37zm.077.602l-.536.537.536-.537zM5.933 42.6l-.537.537.007.007.53-.544zm.587.078l-.369-.663-.003.002.372.66zm2.64-1.468l.357-.669-.364-.194-.36.2.368.663zm1.839.773l.728-.21-.113-.394-.391-.12-.224.724zm.834 2.888l.734-.189-.002-.01-.004-.011-.728.21zm4.54 0l-.728-.21-.003.01-.002.011.734.189zm.835-2.888l-.224-.725-.391.121-.113.393.728.21zm1.838-.773l.368-.662-.36-.2-.365.193.357.67zm2.641 1.468l.372-.661-.004-.002-.368.663zm.587-.078l.533.54.003-.003-.536-.537zm2.533-2.533l.536.537-.536-.537zm.078-.602l-.662.37.004.007.004.007.653-.384zm-1.468-2.626l-.669-.357-.195.365.202.362.662-.37zm.788-1.853l-.207-.73-.396.112-.121.394.724.224zm2.888-.819l.207.73.006-.002-.213-.728zm.355-.479h-.758v.007l.758-.007zm0-3.598l-.758-.007v.007h.758zm-.355-.48l.213-.727-.006-.002-.207.73zm-2.888-.818l-.725.223.121.394.397.113.207-.73zm-.772-1.853l-.664-.367-.2.36.194.363.67-.356zm1.451-2.626l-.66-.372-.003.005.663.367zm-.077-.587l.54-.533-.004-.003-.536.536zm-2.533-2.533l-.543.53.007.006.536-.536zm-.587-.093l-.358-.668-.01.005.368.663zm-2.641 1.468l-.358.668.365.195.361-.2-.368-.663zm-1.838-.757l-.729.21.113.393.392.121.224-.724zm-.834-2.904l.729-.21-.001-.003-.728.213zm-.479-.355v.758h.007l-.007-.758zm-3.228.988v-.758h-.575l-.155.553.73.205zm2.873 0l.73-.205-.156-.553h-.574v.758zm.772 2.75l-.73.205.002.005.728-.21zm.34.34l-.21.728.008.002.202-.73zm2.193.91l-.375.66.005.002.37-.661zm.479 0l-.367-.663-.004.002.371.662zm2.518-1.39l.536-.536-.404-.403-.499.276.367.664zm2.008 2.009l.662.37.28-.501-.406-.406-.536.537zm-1.406 2.517l-.662-.37-.002.003.664.367zm0 .479l-.662.37.003.005.659-.375zm.911 2.178l-.73.201.002.01.728-.211zm.34.34l-.21.728h.002l.208-.728zm2.765.787h.758v-.572l-.55-.157-.208.73zm0 2.858l.208.729.55-.157v-.572h-.758zm-2.765.788l-.208-.73-.002.001.21.729zm-.34.34l-.728-.211-.003.009.731.201zm-.911 2.177l.655.383.004-.008-.659-.375zm0 .494l.664-.366-.005-.008-.004-.008-.655.382zm1.39 2.518l.536.536.404-.403-.276-.5-.664.367zm-1.992 1.993l-.367.663.5.276.403-.403-.536-.536zm-2.518-1.39l-.37.661.003.002.367-.664zm-.479 0l-.37-.662-.005.003.375.658zm-2.193.91l-.202-.73-.009.002.21.729zm-.34.34l-.728-.21-.001.003.73.208zm-.788 2.765v.759h.573l.157-.55-.73-.209zm-2.842 0l-.729.208.157.55h.572v-.758zm-.787-2.764l.729-.208-.001-.003-.728.21zm-.34-.34l.21-.729-.009-.002-.201.73zm-2.193-.912l.375-.659-.005-.002-.37.661zm-.48 0l.367.664.004-.002-.37-.662zm-2.517 1.39l-.536.537.403.403.5-.276-.367-.663zm-1.992-1.992l-.664-.366-.276.499.403.403.537-.536zm1.39-2.518l-.655-.382-.005.008-.004.008.664.366zm0-.494l-.66.375.005.008.655-.383zm-.912-2.178l.731-.201-.002-.01-.729.211zm-.34-.34l.211-.728H4.72l-.207.729zm-2.764-.787H.989v.572l.55.157.208-.73zm0-2.858l-.208-.729-.55.157v.572h.758zm2.765-.787l.207.729.003-.001-.21-.728zm.34-.34l.728.21.002-.009-.73-.201zm.91-2.178l.66.375.002-.005-.661-.37zm0-.479l.664-.366-.001-.003-.662.37zM4.358 24.16l-.536-.537-.405.406.279.5.662-.37zm2.008-2.008l.367-.664-.5-.276-.403.403.536.537zm2.518 1.39l.37-.662-.004-.002-.366.664zm.479 0l.37.661.005-.002-.375-.66zm2.193-.912l.201.731.01-.002-.211-.729zm.34-.34l.728.211.002-.005-.73-.205zM32.377 0c-.768-.016-1.104.642-1.164.756l1.337.715a.486.486 0 01.025-.043c.006-.008.004-.003-.008.008a.341.341 0 01-.223.08L32.377 0zm-1.224.902l-.695 2.394 1.456.423.695-2.394-1.456-.423zm-.194 1.882a9.772 9.772 0 00-1.624.686l.706 1.342c.445-.234.9-.433 1.372-.58l-.454-1.448zm-.902.694l-2.194-1.22-.737 1.325 2.193 1.22.738-1.325zm-2.204-1.226a1.266 1.266 0 00-1.488.232l1.086 1.059a.26.26 0 01-.145.078.269.269 0 01-.17-.032l.717-1.337zm-1.48.223l-2.146 2.132 1.068 1.076 2.147-2.132-1.068-1.076zM24.226 4.61a1.27 1.27 0 00-.195 1.522l1.307-.768a.262.262 0 01.038.167.262.262 0 01-.078.151L24.226 4.61zm-.204 1.507l1.22 2.193 1.326-.737-1.22-2.193-1.326.737zm1.212 1.471a9.699 9.699 0 00-.686 1.626l1.447.452a8.18 8.18 0 01.58-1.371l-1.341-.707zm-.168 1.122l-2.41.68.412 1.46 2.41-.68-.412-1.46zm-2.417.682c-.53.155-.905.659-.9 1.213l1.516-.014a.265.265 0 01-.05.162.265.265 0 01-.14.094l-.426-1.455zm-.9 1.206v3.043h1.516v-3.043h-1.516zm0 3.036a1.27 1.27 0 00.9 1.214l.426-1.456a.265.265 0 01.141.094.27.27 0 01.05.162l-1.517-.014zm.904 1.215l2.425.695.418-1.458-2.425-.695-.418 1.458zm1.911.195c.177.558.4 1.095.67 1.608l1.341-.709a8.198 8.198 0 01-.565-1.357l-1.446.458zm.677.887l-1.22 2.209 1.327.733 1.22-2.209-1.327-.733zm-1.217 2.204a1.263 1.263 0 00.198 1.491l1.08-1.065a.27.27 0 01.078.153.26.26 0 01-.035.164l-1.321-.743zm.202 1.494l2.147 2.147 1.072-1.072-2.147-2.147-1.072 1.072zm2.154 2.154a1.266 1.266 0 001.487.195l-.743-1.321a.267.267 0 01.166-.036c.04.006.095.025.148.076l-1.058 1.086zm1.484.197l2.194-1.22-.738-1.325-2.193 1.22.737 1.325zm1.473-1.211a9.881 9.881 0 001.623.67l.455-1.447a8.358 8.358 0 01-1.374-.566l-.704 1.343zm1.122.156l.695 2.41 1.457-.42-.695-2.41-1.457.42zm.689 2.388c.14.547.65.94 1.213.94v-1.516a.26.26 0 01.163.052.266.266 0 01.093.147l-1.47.377zm1.213.94h3.028v-1.516H32.36v1.517zm3.028 0c.563 0 1.072-.393 1.213-.94l-1.47-.377a.266.266 0 01.093-.147.264.264 0 01.164-.052v1.517zm1.207-.918l.695-2.41-1.457-.42-.695 2.41 1.457.42zm.194-1.897a9.878 9.878 0 001.623-.67l-.705-1.342a8.367 8.367 0 01-1.373.566l.455 1.446zm.902-.678l2.193 1.22.737-1.325-2.193-1.22-.737 1.325zm2.19 1.218c.477.269 1.098.19 1.491-.198l-1.065-1.08a.27.27 0 01.154-.078.255.255 0 01.163.035l-.743 1.321zm1.495-.202l2.147-2.146-1.073-1.073-2.146 2.147 1.072 1.072zm2.15-2.15a1.263 1.263 0 00.199-1.491l-1.322.743a.263.263 0 01-.035-.164.27.27 0 01.08-.153l1.078 1.065zm.202-1.486l-1.22-2.21-1.328.734 1.22 2.209 1.328-.733zm-1.214-1.488c.271-.513.493-1.05.67-1.608l-1.445-.458a8.198 8.198 0 01-.566 1.357l1.341.709zm.156-1.108l2.425-.695-.417-1.458-2.425.695.417 1.458zm2.43-.696c.53-.155.905-.66.9-1.214l-1.517.014a.27.27 0 01.05-.162.265.265 0 01.14-.094l.426 1.456zm.9-1.207v-3.043h-1.517v3.043H46zm0-3.036a1.267 1.267 0 00-.9-1.213l-.426 1.455a.265.265 0 01-.142-.094.264.264 0 01-.048-.162l1.516.014zm-.908-1.215l-2.41-.68-.41 1.46 2.409.68.411-1.46zm-1.891-.176a9.703 9.703 0 00-.686-1.626l-1.342.707c.234.445.433.899.58 1.37l1.448-.451zm-.695-.904l1.22-2.193-1.325-.737-1.22 2.193 1.325.737zm1.212-2.178a1.27 1.27 0 00-.195-1.522L42.45 5.68a.261.261 0 01-.078-.151.262.262 0 01.038-.167l1.308.768zm-.197-1.524l-2.147-2.132-1.069 1.076 2.148 2.132 1.068-1.076zm-2.138-2.123a1.266 1.266 0 00-1.488-.232l.716 1.337a.269.269 0 01-.17.032.26.26 0 01-.144-.078l1.086-1.059zm-1.499-.226l-2.193 1.22.737 1.326 2.193-1.22-.737-1.326zM38.413 3.47a9.767 9.767 0 00-1.625-.686l-.454 1.447c.472.148.927.347 1.372.58l.707-1.341zm-1.123-.174L36.593.902l-1.456.423.695 2.394 1.456-.423zM36.593.901a1.267 1.267 0 00-1.213-.9l.013 1.516a.264.264 0 01-.161-.05.264.264 0 01-.094-.14L36.593.9zM35.388 0H32.36v1.516h3.028V0zm-2.673 2.504h2.317V.99h-2.317v1.516zm1.587-.554l.633 2.27 1.46-.407-.632-2.27-1.461.407zm.636 2.28c.124.422.472.758.903.863l.36-1.473a.26.26 0 01.122.065.263.263 0 01.07.117l-1.455.428zm.881.857a7.167 7.167 0 011.648.7l.752-1.317a8.677 8.677 0 00-1.997-.845l-.403 1.462zm1.654.703c.375.21.845.21 1.22 0l-.741-1.323a.267.267 0 01.13-.036c.037 0 .083.008.132.036l-.741 1.323zm1.217.001l2.086-1.158-.737-1.326-2.085 1.159.736 1.325zm1.181-1.285l1.622 1.622 1.072-1.072-1.621-1.622-1.073 1.072zm1.496.715l-1.158 2.07 1.323.74 1.159-2.069-1.324-.74zM40.216 7.28a1.26 1.26 0 000 1.26l1.31-.766c.029.05.038.098.038.136a.267.267 0 01-.039.135l-1.309-.765zm-.004 1.253c.295.516.524 1.064.684 1.648l1.462-.403a8.639 8.639 0 00-.829-1.997l-1.317.752zm.687 1.657c.119.41.447.739.858.858l.42-1.457a.26.26 0 01.114.065.26.26 0 01.065.113l-1.457.421zm.861.859l2.286.648.414-1.458-2.286-.65-.414 1.46zm1.735-.081v2.301h1.516v-2.301h-1.516zm.551 1.572l-2.286.649.414 1.458L44.46 14l-.414-1.46zm-2.29.65c-.41.118-.738.447-.857.857l1.457.421a.26.26 0 01-.065.113.26.26 0 01-.113.065l-.421-1.456zm-.86.866a7.238 7.238 0 01-.684 1.664l1.317.752a8.77 8.77 0 00.83-2.013l-1.463-.403zm-.689 1.673a1.26 1.26 0 00.002 1.216l1.323-.74a.26.26 0 01.002.258l-1.327-.734zm-.001 1.21l1.143 2.085 1.33-.729-1.144-2.085-1.33.73zm1.271 1.185l-1.606 1.606 1.072 1.072 1.607-1.606-1.073-1.072zm-.701 1.48l-2.086-1.16-.736 1.327 2.085 1.158.736-1.326zm-2.111-1.173a1.265 1.265 0 00-1.21.04l.776 1.304a.263.263 0 01-.126.038.258.258 0 01-.125-.029l.685-1.353zm-1.198.034a7.112 7.112 0 01-1.648.684l.403 1.462a8.633 8.633 0 001.997-.83l-.752-1.316zm-1.626.678c-.43.105-.779.441-.903.863l1.455.428a.263.263 0 01-.07.117.266.266 0 01-.123.066l-.36-1.474zm-.905.87l-.649 2.286 1.46.414.648-2.286-1.459-.414zm.08 1.734h-2.285v1.517h2.286v-1.517zm-1.556.552l-.648-2.286-1.46.414.65 2.286 1.458-.414zm-.65-2.293a1.262 1.262 0 00-.903-.863l-.36 1.474a.265.265 0 01-.123-.066.263.263 0 01-.07-.117l1.456-.428zm-.882-.857a7.125 7.125 0 01-1.648-.684l-.752 1.317a8.637 8.637 0 001.997.829l.403-1.462zm-1.636-.678a1.265 1.265 0 00-1.21-.04l.686 1.353a.257.257 0 01-.125.03.261.261 0 01-.126-.04l.775-1.303zm-1.235-.026l-2.085 1.158.736 1.326 2.086-1.158-.737-1.326zm-1.18 1.285l-1.607-1.606-1.072 1.072 1.606 1.606 1.072-1.072zm-1.478-.706l1.143-2.085-1.33-.729-1.143 2.085 1.33.73zm1.14-2.079a1.26 1.26 0 00.002-1.216l-1.328.734a.26.26 0 01.002-.259l1.323.741zm-.004-1.225a7.235 7.235 0 01-.684-1.664l-1.462.403a8.75 8.75 0 00.83 2.013l1.316-.752zm-.687-1.673a1.266 1.266 0 00-.857-.857l-.421 1.456a.258.258 0 01-.113-.065.258.258 0 01-.065-.113l1.456-.42zm-.86-.858l-2.287-.65-.414 1.46 2.286.648.414-1.458zm-1.735.08v-2.301h-1.517v2.301h1.517zm-.552-1.572l2.286-.648-.414-1.46-2.286.65.414 1.458zm2.29-.65c.41-.118.739-.447.857-.857l-1.456-.421a.259.259 0 01.065-.113.26.26 0 01.113-.065l.42 1.457zm.86-.866a7.13 7.13 0 01.684-1.648l-1.317-.752a8.639 8.639 0 00-.829 1.997l1.462.403zm.68-1.642a1.26 1.26 0 000-1.259l-1.309.765a.268.268 0 01-.038-.135c0-.038.009-.085.038-.136l1.31.765zm.008-1.247l-1.159-2.07-1.323.741 1.158 2.07 1.323-.74zM26.253 6.13l1.622-1.622-1.072-1.072-1.622 1.622 1.073 1.072zm.718-1.495l2.085 1.158.737-1.325-2.086-1.159-.736 1.326zm2.083 1.157c.375.21.845.21 1.22 0l-.741-1.323a.267.267 0 01.13-.036c.037 0 .083.008.132.036l-.741 1.323zm1.225-.003a7.166 7.166 0 011.648-.7l-.403-1.462a8.677 8.677 0 00-1.997.845l.752 1.317zm1.627-.694c.43-.105.778-.44.902-.863l-1.454-.428a.263.263 0 01.07-.117.266.266 0 01.122-.065l.36 1.473zm.905-.873l.634-2.27-1.461-.408-.633 2.27 1.46.408zm1.062 2.699a5.215 5.215 0 00-5.207 5.206h1.517a3.699 3.699 0 013.69-3.69V6.92zm-5.207 5.206a5.215 5.215 0 005.207 5.207v-1.516a3.699 3.699 0 01-3.69-3.69h-1.517zm5.207 5.207a5.215 5.215 0 005.206-5.207h-1.516a3.699 3.699 0 01-3.69 3.69v1.517zm5.206-5.207a5.215 5.215 0 00-5.206-5.206v1.516a3.699 3.699 0 013.69 3.69h1.516zm-5.206-2.701a2.693 2.693 0 012.701 2.701h1.517a4.21 4.21 0 00-4.218-4.218v1.517zm2.701 2.701a2.693 2.693 0 01-2.701 2.702v1.516a4.21 4.21 0 004.218-4.218h-1.517zm-2.701 2.702a2.693 2.693 0 01-2.702-2.702h-1.516a4.21 4.21 0 004.218 4.218v-1.516zm-2.702-2.702a2.693 2.693 0 012.702-2.701V7.908a4.21 4.21 0 00-4.218 4.218h1.516zm-18.844 5.668c-.752-.016-1.098.577-1.2.833l1.41.56a.063.063 0 01-.007.012.17.17 0 01-.03.034.303.303 0 01-.206.077l.033-1.516zm-1.224.904L10.27 21.6l1.458.42.834-2.905-1.458-.418zm-.33 2.388c-.681.211-1.341.476-1.97.813l.714 1.337a9.631 9.631 0 011.705-.7l-.448-1.45zm-1.245.819l-2.641-1.468-.737 1.326 2.642 1.467.736-1.325zm-2.651-1.473a1.266 1.266 0 00-1.488.232l1.086 1.058a.26.26 0 01-.145.079.27.27 0 01-.17-.032l.717-1.337zm-1.482.225L2.863 23.19l1.073 1.072 2.533-2.533-1.073-1.072zM2.86 23.193a1.263 1.263 0 00-.199 1.492l1.322-.744c.036.064.04.122.035.164a.27.27 0 01-.079.154l-1.08-1.066zm-.201 1.487l1.452 2.626 1.327-.734-1.452-2.626-1.327.734zm1.446 1.902a11.267 11.267 0 00-.828 1.987l1.45.446a9.748 9.748 0 01.716-1.72l-1.338-.713zm-.31 1.48l-2.888.82.413 1.458 2.889-.818-.414-1.46zm-2.894.821A1.267 1.267 0 000 30.096l1.516-.013a.258.258 0 01-.048.161.264.264 0 01-.142.095l-.425-1.456zM0 30.09v3.598h1.516V30.09H0zm0 3.591c-.005.551.37 1.059.9 1.214l.426-1.456a.265.265 0 01.142.095c.024.032.05.085.048.161L0 33.681zm.907 1.216l2.888.818.414-1.459-2.889-.818-.413 1.459zm2.37.313c.218.704.511 1.365.844 1.987l1.337-.715a9.811 9.811 0 01-.732-1.72l-1.448.448zm.85 1.26L2.66 39.094l1.324.74 1.468-2.626-1.324-.74zM2.67 39.08a1.27 1.27 0 00.194 1.524l1.073-1.073c.053.054.073.11.078.152.005.04 0 .1-.038.166l-1.307-.768zm.194 1.524l2.533 2.533 1.073-1.073-2.533-2.533-1.073 1.073zm2.54 2.54a1.266 1.266 0 001.488.195l-.743-1.322a.265.265 0 01.165-.035c.04.005.096.024.149.075l-1.059 1.087zm1.485.197l2.641-1.468-.736-1.325-2.642 1.467.737 1.326zm1.916-1.462c.621.332 1.277.614 1.97.828l.449-1.449a9.75 9.75 0 01-1.706-.717l-.713 1.339zm1.466.314l.834 2.888 1.457-.42-.834-2.889-1.457.421zm.829 2.867c.14.546.65.94 1.213.94v-1.517c.075 0 .13.027.163.053a.266.266 0 01.092.146l-1.469.378zm1.213.94h3.583v-1.517h-3.583V46zm3.583 0c.564 0 1.073-.394 1.213-.94l-1.469-.378a.265.265 0 01.093-.146.263.263 0 01.163-.053V46zm1.207-.919l.834-2.888-1.456-.42-.835 2.888 1.457.42zm.33-2.374a11.13 11.13 0 001.97-.828l-.713-1.338a9.746 9.746 0 01-1.705.717l.448 1.45zm1.246-.834l2.641 1.468.736-1.326-2.64-1.467-.737 1.325zm2.637 1.466c.478.268 1.098.19 1.492-.199l-1.066-1.08a.27.27 0 01.154-.078c.042-.005.1 0 .164.035l-.744 1.322zm1.495-.202l2.533-2.533-1.072-1.073-2.533 2.533 1.072 1.073zm2.533-2.533c.4-.4.48-1.038.195-1.523l-1.307.768a.262.262 0 01-.038-.166.262.262 0 01.078-.152l1.072 1.073zm.203-1.509L24.08 36.47l-1.324.74 1.468 2.626 1.323-.74zm-1.46-1.898c.332-.622.625-1.283.843-1.987l-1.448-.448a9.817 9.817 0 01-.733 1.72l1.338.715zm.326-1.482l2.888-.818-.413-1.46-2.889.82.414 1.458zm2.894-.82c.532-.156.906-.663.9-1.214l-1.516.014c0-.076.025-.129.05-.161a.265.265 0 01.14-.095l.426 1.456zm.9-1.207V30.09H26.69v3.598h1.517zm0-3.592a1.267 1.267 0 00-.9-1.213l-.426 1.456a.264.264 0 01-.14-.095.263.263 0 01-.05-.161l1.517.014zm-.906-1.215l-2.888-.818-.414 1.459 2.889.818.413-1.459zm-2.37-.312a11.264 11.264 0 00-.828-1.987l-1.339.713c.291.546.533 1.121.717 1.72l1.45-.446zm-.834-1.263l1.452-2.626-1.327-.734-1.452 2.626 1.327.734zm1.45-2.621a1.264 1.264 0 00-.2-1.492l-1.078 1.066a.27.27 0 01-.08-.154c-.005-.042 0-.1.036-.164l1.321.744zm-.203-1.495l-2.533-2.533-1.072 1.072 2.533 2.533 1.072-1.072zm-2.526-2.526a1.266 1.266 0 00-1.488-.232l.716 1.337a.27.27 0 01-.169.032.26.26 0 01-.145-.079l1.086-1.058zm-1.498-.227l-2.641 1.468.736 1.325 2.641-1.467-.736-1.326zM19.404 21.9c-.63-.337-1.29-.602-1.972-.813l-.448 1.45a9.632 9.632 0 011.704.7l.716-1.337zm-1.467-.298l-.834-2.903-1.458.418.834 2.904 1.458-.419zm-.835-2.907a1.267 1.267 0 00-1.214-.9l.014 1.516a.265.265 0 01-.162-.049.265.265 0 01-.094-.141l1.456-.426zm-1.207-.9h-3.583v1.516h3.583v-1.516zM12.667 20.3h2.873v-1.517h-2.873V20.3zm2.143-.554l.772 2.75 1.46-.41-.772-2.75-1.46.41zm.774 2.755c.118.41.447.74.857.858l.422-1.457c.05.015.087.04.112.065.026.025.05.062.066.113l-1.457.421zm.866.86a8.856 8.856 0 012.02.84l.75-1.318a10.373 10.373 0 00-2.367-.984l-.403 1.462zm2.025.842c.375.21.845.21 1.22 0l-.742-1.323a.268.268 0 01.132-.036c.036 0 .082.009.13.036l-.74 1.323zm1.215.002l2.518-1.39-.733-1.327-2.518 1.39.733 1.328zm1.615-1.517l2.009 2.008 1.072-1.073-2.008-2.008-1.073 1.073zm1.883 1.102l-1.406 2.518 1.324.739 1.406-2.518-1.324-.74zm-1.408 2.52a1.26 1.26 0 00.002 1.216l1.324-.74a.261.261 0 01.002.258l-1.328-.733zm.005 1.221c.36.632.645 1.3.84 2.004l1.461-.403c-.23-.835-.566-1.62-.983-2.351l-1.318.75zm.842 2.014c.119.41.447.738.858.857l.42-1.457a.26.26 0 01.114.065.26.26 0 01.065.113l-1.457.422zm.86.858l2.765.788.416-1.459-2.765-.788-.416 1.459zm2.215.058v2.858h1.516V30.46h-1.516zm.55 2.129l-2.765.787.416 1.459 2.765-.788-.416-1.458zm-2.767.788c-.41.119-.74.447-.858.858l1.457.421a.26.26 0 01-.065.113.26.26 0 01-.113.065l-.421-1.457zm-.86.867a8.735 8.735 0 01-.84 2.004l1.318.75a10.25 10.25 0 00.983-2.351l-1.462-.403zm-.836 1.997a1.26 1.26 0 000 1.259l1.31-.765a.26.26 0 01.038.135.268.268 0 01-.038.136l-1.31-.765zm-.009 1.243l1.39 2.518 1.328-.733-1.39-2.518-1.328.733zm1.518 1.615l-1.992 1.992 1.072 1.073 1.992-1.993-1.072-1.072zm-1.09 1.865l-2.517-1.39-.733 1.327 2.517 1.39.733-1.327zm-2.513-1.388a1.26 1.26 0 00-1.22 0l.74 1.323a.267.267 0 01-.13.036.267.267 0 01-.132-.036l.742-1.323zm-1.225.003a8.856 8.856 0 01-2.02.839l.403 1.462c.833-.23 1.632-.565 2.367-.984l-.75-1.317zm-2.029.841c-.41.119-.739.448-.857.858l1.457.421a.258.258 0 01-.066.113.26.26 0 01-.113.065l-.42-1.457zm-.858.86l-.788 2.766 1.459.415.787-2.765-1.458-.415zm-.059 2.215h-2.842v1.517h2.842v-1.517zm-2.112.55l-.788-2.764-1.459.415.788 2.765 1.459-.415zm-.789-2.767a1.266 1.266 0 00-.858-.858l-.42 1.457a.26.26 0 01-.114-.065.258.258 0 01-.065-.113l1.457-.421zm-.867-.86a8.855 8.855 0 01-2.02-.84l-.75 1.318c.735.419 1.535.754 2.367.984l.403-1.462zm-2.024-.842a1.26 1.26 0 00-1.22 0l.741 1.323a.267.267 0 01-.13.036.267.267 0 01-.132-.036l.741-1.323zm-1.216-.002L6 40.964l.733 1.327 2.517-1.39-.733-1.327zM6.901 41.09L4.91 39.1l-1.073 1.072 1.993 1.993L6.9 41.09zM5.036 40l1.39-2.517L5.1 36.75l-1.39 2.518 1.327.733zm1.381-2.5a1.26 1.26 0 000-1.26l-1.309.766a.268.268 0 01-.038-.136.27.27 0 01.038-.135l1.31.765zm.005-1.252a8.74 8.74 0 01-.84-2.004l-1.462.403c.23.836.567 1.62.984 2.351l1.318-.75zm-.842-2.013a1.266 1.266 0 00-.858-.858l-.421 1.457a.26.26 0 01-.113-.065.26.26 0 01-.065-.113l1.457-.421zm-.86-.859l-2.765-.787-.416 1.458 2.765.788.415-1.459zm-2.215-.058V30.46H.989v2.858h1.516zm-.55-2.128l2.764-.788-.415-1.459-2.765.788.416 1.459zm2.767-.789c.41-.119.74-.447.858-.857l-1.457-.422a.26.26 0 01.065-.113.26.26 0 01.113-.065l.421 1.457zm.86-.867a8.74 8.74 0 01.84-2.004l-1.318-.75a10.256 10.256 0 00-.984 2.351l1.462.403zm.842-2.008a1.26 1.26 0 00.002-1.216l-1.327.733a.261.261 0 01.002-.258l1.323.74zm0-1.22L5.02 23.79l-1.324.74 1.406 2.517 1.324-.74zm-1.53-1.611L6.9 22.687l-1.07-1.073-2.01 2.008 1.072 1.073zm1.105-1.88l2.517 1.39.733-1.328-2.517-1.39-.733 1.327zm2.513 1.387c.375.21.845.21 1.22 0l-.741-1.323a.268.268 0 01.131-.036.27.27 0 01.131.036l-.74 1.323zm1.225-.002a8.856 8.856 0 012.02-.84l-.404-1.462c-.832.23-1.632.565-2.367.984l.75 1.318zm2.028-.842c.41-.119.74-.448.858-.858l-1.457-.421a.258.258 0 01.065-.113.258.258 0 01.113-.065l.421 1.457zm.86-.863l.772-2.75-1.46-.41-.772 2.75 1.46.41zm1.478 3.207a6.203 6.203 0 00-6.195 6.195h1.517a4.687 4.687 0 014.678-4.679v-1.516zm-6.195 6.195a6.203 6.203 0 006.195 6.195v-1.517a4.687 4.687 0 01-4.678-4.678H7.908zm6.195 6.195a6.203 6.203 0 006.196-6.195h-1.517a4.687 4.687 0 01-4.679 4.678v1.517zm6.196-6.195a6.203 6.203 0 00-6.196-6.195v1.516a4.687 4.687 0 014.679 4.679h1.517zm-6.196-3.69a3.684 3.684 0 013.69 3.69h1.517a5.2 5.2 0 00-5.207-5.207v1.517zm3.69 3.69a3.684 3.684 0 01-3.69 3.69v1.516a5.2 5.2 0 005.207-5.206h-1.516zm-3.69 3.69a3.684 3.684 0 01-3.69-3.69H8.897a5.2 5.2 0 005.206 5.206v-1.516zm-3.69-3.69a3.684 3.684 0 013.69-3.69V26.69a5.2 5.2 0 00-5.206 5.207h1.516z"/></svg>