<svg xmlns="http://www.w3.org/2000/svg" width="45" height="51" fill="none"><path fill="#fff" fill-rule="evenodd" d="M22.502 33.06c-3.733 0-7.31-1.482-9.95-4.122a14.068 14.068 0 010-19.899 14.069 14.069 0 0119.9 0 14.069 14.069 0 014.121 9.95A14.09 14.09 0 0122.501 33.06zm0-26.442a12.38 12.38 0 00-8.748 3.622 12.381 12.381 0 00-3.623 8.748 12.38 12.38 0 003.623 8.748 12.38 12.38 0 008.748 3.622 12.38 12.38 0 008.747-3.622 12.38 12.38 0 003.623-8.748 12.371 12.371 0 00-3.627-8.744 12.371 12.371 0 00-8.744-3.626z" clip-rule="evenodd"/><path fill="#fff" d="M22.502 33.06l.354.354.855-.855H22.5v.501zm-9.95-4.122l.354-.354-.354.354zm0-19.899l.354.354-.354-.354zm19.9 0l-.355.354.354-.354zm4.121 9.95h.501-.5zM22.501 33.06l-.354-.355-.857.857 1.212-.001v-.501zm0-26.443v.501h1.21l-.855-.855-.355.354zm-8.747 3.622l-.354-.354.354.354zm0 17.496l-.355.354.355-.354zm17.495 0l.355.355-.355-.355zm3.623-8.748h.5-.5zm-3.627-8.744l-.354.354.354-.354zm-8.744-3.626v-.501l-1.21-.001.856.856.354-.354zm0 25.941c-3.6 0-7.05-1.43-9.595-3.975l-.708.708a14.568 14.568 0 0010.303 4.27v-1.003zm-9.595-3.975a13.567 13.567 0 01-3.975-9.595H7.929a14.57 14.57 0 004.269 10.303l.708-.708zm-3.975-9.595c0-3.6 1.43-7.05 3.975-9.596l-.708-.708a14.569 14.569 0 00-4.27 10.304h1.003zm3.975-9.596a13.568 13.568 0 019.595-3.975V4.416a14.57 14.57 0 00-10.303 4.269l.708.708zm9.595-3.975c3.6 0 7.05 1.43 9.596 3.975l.708-.708a14.569 14.569 0 00-10.303-4.269v1.002zm9.596 3.975a13.567 13.567 0 013.975 9.596h1.002a14.57 14.57 0 00-4.269-10.304l-.708.708zm3.975 9.595a13.59 13.59 0 01-3.98 9.592l.71.709a14.591 14.591 0 004.272-10.3l-1.002-.001zm-3.98 9.592a13.588 13.588 0 01-9.591 3.98v1.002a14.59 14.59 0 0010.3-4.273l-.708-.709zm-9.237 4.835l-.708-.709.708.709zm-.354-27.298a12.88 12.88 0 00-9.102 3.77l.709.708A11.879 11.879 0 0122.5 7.119V6.117zM13.4 9.887a12.882 12.882 0 00-3.769 9.101h1.002a11.88 11.88 0 013.476-8.393l-.709-.709zm-3.77 9.1c0 3.413 1.357 6.688 3.77 9.102l.708-.708a11.88 11.88 0 01-3.476-8.394H9.63zm3.77 9.103a12.882 12.882 0 009.101 3.768v-1.002a11.88 11.88 0 01-8.393-3.475l-.709.709zm9.101 3.768a12.88 12.88 0 009.102-3.768l-.708-.71a11.88 11.88 0 01-8.393 3.477v1.001zm9.103-3.769a12.882 12.882 0 003.769-9.102H34.37a11.88 11.88 0 01-3.476 8.394l.709.708zm3.769-9.102a12.873 12.873 0 00-3.774-9.098l-.708.709a11.871 11.871 0 013.48 8.39l1.002-.001zM31.6 9.89a12.873 12.873 0 00-9.1-3.773v1.002a11.87 11.87 0 018.39 3.48l.709-.709zm-9.453-2.918l.709-.708-.71.708z"/><path fill="#fff" fill-rule="evenodd" d="M22.501 37.459a18.49 18.49 0 01-13.068-5.413 18.487 18.487 0 01-5.41-13.068A18.474 18.474 0 0122.507.5 18.479 18.479 0 0140.98 18.988 18.499 18.499 0 0122.5 37.46zm0-35.248c-4.45 0-8.716 1.768-11.864 4.913a16.784 16.784 0 000 23.729 16.783 16.783 0 0023.728 0 16.783 16.783 0 004.913-11.865 16.794 16.794 0 00-4.921-11.855A16.795 16.795 0 0022.5 2.211z" clip-rule="evenodd"/><path fill="#fff" d="M22.501 37.459l.39-.314-.15-.187h-.24v.5zM9.433 32.046l-.354.354.354-.354zM9.437 5.91l.354.354-.354-.354zM22.507.5V0v.5zm13.066 5.418l-.354.354.354-.354zm5.407 13.07l.501.001h-.5zm-5.42 13.056l.355.354-.354-.354zm-13.059 5.415l-.39.314.15.187h.24v-.5zm0-35.248l.353-.355-.146-.146H22.5v.501zM10.637 7.124l-.354-.354.354.354zm0 23.729l-.354.354.354-.354zm23.728 0l.354.354-.354-.354zm4.913-11.865h.501-.5zm-4.92-11.855l-.355.354.355-.354zM22.5 2.211l-.353.356.146.145h.207v-.5zm0 34.747c-4.767 0-9.34-1.895-12.714-5.267l-.708.71A18.99 18.99 0 0022.5 37.96v-1.002zM9.787 31.692a17.986 17.986 0 01-5.264-12.714H3.521c0 5.033 2 9.861 5.558 13.422l.708-.708zM4.523 18.978c0-4.77 1.896-9.343 5.268-12.714l-.708-.709a18.975 18.975 0 00-5.562 13.423h1.002zM9.792 6.264a17.976 17.976 0 0112.715-5.262V0A18.978 18.978 0 009.084 5.555l.709.71zm12.715-5.262a17.983 17.983 0 0112.712 5.27l.709-.708A18.985 18.985 0 0022.508 0v1.002zm12.712 5.27a17.978 17.978 0 015.26 12.716h1.002a18.98 18.98 0 00-5.553-13.424l-.709.708zm5.26 12.716a17.998 17.998 0 01-5.273 12.702l.709.708A19 19 0 0041.48 18.99l-1.002-.001zM35.206 31.69a17.997 17.997 0 01-12.705 5.268v1.002a18.998 18.998 0 0013.414-5.562l-.709-.708zm-12.314 5.455l-.782.627.782-.627zm-.39-35.435c-4.583 0-8.977 1.82-12.22 5.06l.71.709a16.283 16.283 0 0111.51-4.767V1.71zm-12.22 5.06a17.284 17.284 0 00-5.06 12.218h1.003c0-4.316 1.714-8.455 4.766-11.51l-.708-.708zm-5.06 12.218c0 4.583 1.821 8.977 5.06 12.219l.71-.709a16.282 16.282 0 01-4.767-11.51H5.223zm5.06 12.219a17.285 17.285 0 0012.22 5.06v-1.002a16.283 16.283 0 01-11.51-4.767l-.71.709zm12.22 5.06a17.28 17.28 0 0012.217-5.06l-.708-.709a16.282 16.282 0 01-11.51 4.767v1.002zm12.218-5.06a17.284 17.284 0 005.06-12.219h-1.002a16.28 16.28 0 01-4.767 11.51l.709.709zm5.06-12.22A17.295 17.295 0 0034.71 6.78l-.707.709a16.293 16.293 0 014.775 11.501l1.001-.001zM34.71 6.78a17.296 17.296 0 00-12.208-5.07l-.001 1.002a16.294 16.294 0 0111.501 4.775l.709-.708zM22.854 1.856l-.706.71.706-.71z"/><path fill="#fff" fill-rule="evenodd" d="M27.947 27.785a.863.863 0 01-.391-.093l-5.054-2.655-5.054 2.697a.85.85 0 01-1.233-.902l.97-5.623-4.093-4.024a.85.85 0 11.476-1.446l5.641-.852 2.553-5.104a.852.852 0 01.765-.48c.326 0 .623.186.766.48l2.552 5.104 5.64.851a.85.85 0 01.477 1.447l-4.092 3.981.97 5.624a.85.85 0 01-.34.85.85.85 0 01-.553.145zm-5.445-4.56a.845.845 0 01.4.094l3.913 2.059-.748-4.365a.852.852 0 01.247-.749l3.173-3.096-4.382-.639a.848.848 0 01-.646-.459l-1.957-3.973-1.957 3.973a.848.848 0 01-.647.46l-4.381.637 3.173 3.097c.2.194.292.475.247.75l-.749 4.364 3.914-2.06a.845.845 0 01.4-.093z" clip-rule="evenodd"/><path fill="#fff" d="M27.947 27.785v.501l.035-1-.035.5zm-.391-.093l-.233.443.005.003.228-.446zm-5.054-2.655l.233-.443-.235-.124-.234.125.236.442zm-5.054 2.697l.234.444.002-.002-.236-.442zm-.897-.066l.296-.404-.296.404zm-.336-.836l.493.09v-.005l-.493-.085zm.97-5.623l.493.085.045-.259-.187-.183-.351.357zm-4.093-4.024l-.352.356h.001l.351-.356zm-.208-.87l.475.158.001-.003-.476-.155zm.685-.577l.073.496h.002l-.075-.496zm5.64-.85l.075.495.257-.039.116-.232-.448-.225zm2.553-5.105l.448.224.002-.005-.45-.22zm1.531 0l-.45.219.002.005.448-.224zm2.552 5.104l-.448.224.117.233.257.039.074-.495zm5.64.851l-.074.496h.002l.073-.496zm.686.577l-.476.155v.003l.476-.158zm-.209.87l.35.359.003-.003-.353-.356zm-4.092 3.981l-.35-.359-.189.184.045.26.494-.085zm.97 5.624l-.494.085.002.008.492-.093zm-.34.85l.282.414.01-.006-.292-.407zm-.553.145l.034-.5-.078 1 .044-.5zm-5.445-4.56v.501h.008l-.008-.5zm.4.094l.233-.444-.003-.001-.23.445zm3.913 2.059l-.233.443.899.473-.172-1.001-.494.085zm-.748-4.365l-.495.08.001.005.494-.085zm.247-.749l.348.36.001-.001-.35-.359zm3.173-3.096l.35.358.725-.708-1.003-.146-.072.495zm-4.382-.639l.073-.495-.008-.001-.065.496zm-.646-.459l-.45.221.003.006.447-.227zm-1.957-3.973l.45-.221-.45-.913-.45.913.45.22zm-1.957 3.973l.447.227.002-.006-.449-.221zm-.647.46l-.064-.497h-.008l.072.496zm-4.381.637l-.072-.495-1.004.146.726.708.35-.358zm3.173 3.097l-.35.359.002.001.348-.36zm.247.75l.494.084v-.004l-.494-.08zm-.749 4.364l-.493-.085-.172 1 .899-.472-.234-.443zm3.914-2.06l-.23-.444-.003.001.233.444zm.4-.093l-.008.501h.008v-.5zm5.445 4.06a.361.361 0 01-.164-.04l-.455.893c.193.098.405.148.619.148v-1.002zm-.158-.037l-5.054-2.654-.466.887 5.054 2.654.466-.887zm-5.523-2.653l-5.053 2.697.471.884 5.054-2.697-.472-.884zm-5.05 2.696a.35.35 0 01-.37-.027l-.591.809c.416.304.97.345 1.427.105l-.467-.887zm-.37-.027a.35.35 0 01-.138-.343l-.986-.177c-.092.51.118 1.025.533 1.329l.592-.809zm-.137-.346l.97-5.624-.988-.17-.97 5.623.988.17zm.827-6.066l-4.092-4.025-.703.715 4.092 4.024.703-.714zm-4.091-4.023a.345.345 0 01-.086-.356l-.95-.317a1.347 1.347 0 00.33 1.385l.706-.712zm-.085-.359a.35.35 0 01.282-.236l-.146-.991a1.35 1.35 0 00-1.088.916l.952.311zm.284-.236l5.64-.851-.15-.99-5.64.85.15.99zm6.013-1.123l2.553-5.104-.896-.448-2.553 5.105.896.447zm2.555-5.11a.352.352 0 01.315-.198V8.801c-.518 0-.99.298-1.216.763l.901.438zm.315-.198c.133 0 .256.077.315.199l.902-.438a1.354 1.354 0 00-1.217-.763v1.002zm.318.204l2.552 5.104.896-.447-2.552-5.105-.896.448zm2.926 5.376l5.64.85.15-.99-5.64-.85-.15.99zm5.642.85a.35.35 0 01.282.237l.952-.31a1.351 1.351 0 00-1.088-.917l-.146.99zm.282.24a.345.345 0 01-.085.356l.705.712c.364-.362.494-.897.33-1.385l-.95.317zm-.082.353l-4.092 3.981.698.718 4.093-3.981-.7-.718zm-4.237 4.425l.97 5.624.988-.17-.97-5.624-.988.17zm.972 5.632a.35.35 0 01-.14.35l.583.815a1.35 1.35 0 00.541-1.351l-.984.186zm-.131.344a.349.349 0 01-.227.06l-.087.997c.31.027.622-.053.88-.23l-.566-.827zm-.305 1.058l.07-1-.07 1zm-5.402-4.559c.057 0 .113.012.162.038l.46-.89a1.345 1.345 0 00-.638-.15l.016 1.002zm.159.036l3.913 2.059.467-.887-3.914-2.059-.466.887zm4.64 1.53l-.748-4.364-.988.17.749 4.364.987-.17zm-.748-4.36a.352.352 0 01.1-.308l-.696-.72c-.32.31-.463.755-.393 1.19l.99-.161zm.102-.31l3.174-3.096-.7-.717-3.173 3.097.7.717zm2.896-3.95l-4.382-.638-.144.991 4.382.638.144-.991zm-4.39-.64a.347.347 0 01-.264-.189l-.893.454c.201.396.583.671 1.029.73l.129-.994zm-.26-.183l-1.958-3.973-.899.442 1.957 3.973.9-.442zm-2.857-3.973l-1.956 3.973.898.442 1.957-3.973-.899-.442zM20.1 15.843a.347.347 0 01-.265.19l.129.993a1.349 1.349 0 001.029-.729l-.893-.454zm-.273.19l-4.381.639.144.991 4.382-.638-.145-.991zm-4.659 1.493l3.173 3.097.7-.717-3.173-3.097-.7.717zm3.175 3.098a.35.35 0 01.1.309l.99.16c.07-.434-.074-.88-.393-1.189l-.697.72zm.101.304l-.748 4.365.987.17.749-4.365-.988-.17zm-.021 4.893l3.913-2.059-.466-.887-3.914 2.06.467.886zm3.91-2.057a.343.343 0 01.162-.038l.016-1.002c-.22-.003-.44.047-.638.15l.46.89zm.17-.038v-1.002 1.002z"/><path fill="#fff" fill-rule="evenodd" stroke="#fff" d="M32.2 49.854a.852.852 0 01-.74-.425l-7.137-12.336a.855.855 0 011.48-.851L32.124 47.2l2.748-5.853a.85.85 0 01.85-.485l6.399.519-6.347-10.924a.854.854 0 01.955-1.274.855.855 0 01.517.423l7.138 12.362a.854.854 0 01-.017.885.849.849 0 01-.791.391l-7.42-.604-3.19 6.73a.85.85 0 01-.731.484H32.2zm-19.397 0a.85.85 0 01-.732-.484l-3.182-6.73-7.419.604a.855.855 0 01-.827-.37.855.855 0 01-.023-.906l7.137-12.362a.854.854 0 01.517-.423.854.854 0 01.955 1.274L2.934 41.415l6.398-.52a.851.851 0 01.85.486l2.748 5.794 6.27-10.933a.855.855 0 011.481.851L13.543 49.43a.852.852 0 01-.74.426z" clip-rule="evenodd"/></svg>