<svg xmlns="http://www.w3.org/2000/svg" width="43" height="50"><g fill="none" fill-rule="evenodd"><path d="M-4 0h50v50H-4z"/><path fill="#FFF" d="M28.638 31.978c-2.343.21-4.113 1.98-4.32 4.273l-.104 1.042-.678.78a5.002 5.002 0 00-1.094 2.605H1.972c-.887 0-1.615-.73-1.615-1.615V35.26c0-3.385 2.76-6.146 6.146-6.146h3.699c.053-.053.053-.104.053-.157l.624-2.447c-2.917-2.084-4.636-4.584-5.104-7.292-1.616-.364-2.397-1.51-2.397-3.49 0-1.509.366-2.55 1.095-3.228.311-.26.781-.572 1.51-.625-.054-1.145 0-2.447.103-4.01.417-6.042 4.793-6.303 10.156-6.303 3.231 0 5.782-.624 7.503-1.25.365-.158.833.103.885.52a3.09 3.09 0 010 .989c.26-.051.47-.155.678-.208.364-.156.781.104.885.468.207 1.095.104 2.448-.157 3.646.157.574.312 1.302.364 2.136.104 1.614.157 2.916.104 4.01a2.54 2.54 0 011.51.625c.73.677 1.094 1.719 1.094 3.229 0 1.98-.78 3.125-2.396 3.489-.47 2.708-2.187 5.208-5.105 7.291l.625 2.448c.053.053.053.104.053.157h3.75c1.822 0 3.488.834 4.583 2.083-.05 0-.104.053-.104.053l-.834.677-1.042.053zM14.086 13.124c0-2.666-4-2.666-4 0 0 2.668 4 2.668 4 0zm7.98 0c0-2.666-4-2.666-4 0 0 2.668 4 2.668 4 0zm-10.936 6.5a5.036 5.036 0 004.936 3.938 5.034 5.034 0 004.937-3.938c.124-.437-.25-.874-.689-.874h-8.496c-.44 0-.752.376-.688.874z"/><path fill="#89D78A" d="M41.556 39.636l-.678-.834c-.313-.364-.52-.834-.52-1.302l-.105-1.041a2.328 2.328 0 00-2.083-2.084l-1.094-.104c-.468-.052-.938-.207-1.303-.52l-.834-.678c-.834-.728-2.083-.728-2.968 0l-.834.678c-.364.313-.834.52-1.302.52l-1.095.104a2.328 2.328 0 00-2.083 2.084l-.049 1.041c-.053.468-.208.938-.52 1.302l-.678.834c-.729.835-.729 2.084 0 2.969l.677.834c.313.364.521.834.521 1.302l.104 1.095a2.328 2.328 0 002.083 2.083l1.095.104c.468.053.938.207 1.302.52l.834.678c.834.728 2.083.728 2.968 0l.834-.677c.365-.314.835-.521 1.302-.521l1.095-.104a2.328 2.328 0 002.083-2.083l.104-1.095c.053-.468.208-.938.521-1.302l.677-.834c.674-.885.674-2.136-.054-2.969zm-7.5 5v.884c0 .104-.052.157-.156.157h-.885c-.104 0-.157-.053-.157-.157v-.885c-.885-.053-1.615-.728-1.666-1.615 0-.104.053-.157.157-.157h.885c.053 0 .156.053.156.104.053.26.314.468.574.468l.78.002c.467 0 .884-.313.884-.781a.85.85 0 00-.834-.938l-.572.002c-1.094 0-2.03-.781-2.136-1.876-.104-1.145.729-2.136 1.77-2.24v-.885c0-.104.053-.157.157-.157h.885c.104 0 .156.053.156.157v.885c.885.053 1.616.728 1.667 1.615 0 .104-.053.157-.157.157h-.885c-.053 0-.157-.053-.157-.104a.611.611 0 00-.573-.468h-.782c-.468 0-.885.314-.885.782a.85.85 0 00.835.937h.677c1.198 0 2.187 1.042 2.083 2.291-.103.936-.885 1.665-1.82 1.821z"/></g></svg>