<svg width="80" height="80" fill="none" xmlns="http://www.w3.org/2000/svg"><path d="M25 77V56.33l-.398-.3c-6.248-4.704-10.332-11.154-11.204-17.698-.777-5.824.95-11.504 5.13-16.88 3.674-4.726 22.971-9.692 29.782-9.692 6.233 0 16.69 2.524 16.69 19.428v.224l5.847 12.426c.18.38.19.802.032 1.192a1.462 1.462 0 01-.856.828L65 47.718V58c0 4.962-4.038 9-9 9h-3v10H25z" fill="#fff"/><path d="M48.31 12.758c7.157 0 15.69 3.198 15.69 18.428v.448l.19.404 5.753 12.224a.472.472 0 01.01.386.463.463 0 01-.278.268l-4.37 1.62-1.306.486V58c0 4.412-3.588 8-8 8h-4v10H26V55.832l-.798-.6C19.167 50.688 15.225 44.48 14.39 38.2c-.738-5.55.92-10.978 4.928-16.136 3.45-4.438 22.506-9.306 28.992-9.306zm0-2c-6.649 0-26.49 4.83-30.57 10.078C6.666 35.078 14.072 49.358 24 56.83V78h30V68h2c5.521 0 10-4.478 10-10v-9.586l4.37-1.62a2.48 2.48 0 001.381-3.382L66 31.188c0-15.412-8.544-20.43-17.69-20.43z" fill="#4788C7"/><path d="M24.608 60.34c-1.106-2.896-3.378-5.3-5.764-7.826C14.23 47.632 9 42.098 9 30.806 9 15.734 22.036 3 37.464 3c13.474 0 22.674 5.552 25.208 7.278C61.268 12.516 56.628 19 50 19h-1v1c0 3.886-1.896 10.464-9 10.464h-1V39h-1.536C35.166 39.216 31 41.156 31 46.986v8.518l-6.392 4.836z" fill="#B6DCFE"/><path d="M37.464 4c12.018 0 20.556 4.51 23.824 6.566C59.536 13.116 55.466 18 50 18h-2v2c0 .968-.224 9.464-8 9.464h-2V38h-.632l-.096.01C34.758 38.25 30 40.438 30 46.984v8.02l-4.988 3.774c-1.268-2.534-3.312-4.696-5.442-6.952C15.084 47.08 10 41.7 10 30.806 10 16.276 22.578 4 37.464 4zm0-2C21.554 2 8 14.898 8 30.806 8 49.484 22.048 53.184 24.072 62L32 56v-9.016C32 40.524 37.464 40 37.464 40H40v-8.536c7.886 0 10-7.178 10-11.464 8.684 0 14-10 14-10S53.914 2 37.464 2z" fill="#4788C7"/><path d="M36 32c-1.654 0-3-1.346-3-3V4c0-1.654 1.346-3 3-3h2c1.654 0 3 1.346 3 3v25c0 1.654-1.346 3-3 3h-2z" fill="#98CCFD"/><path d="M38 2c1.102 0 2 .898 2 2v25c0 1.102-.898 2-2 2h-2c-1.102 0-2-.898-2-2V4c0-1.102.898-2 2-2h2zm0-2h-2c-2.21 0-4 1.79-4 4v25c0 2.21 1.79 4 4 4h2c2.21 0 4-1.79 4-4V4c0-2.21-1.79-4-4-4z" fill="#4788C7"/><path d="M66 58v-3.9a5 5 0 10-1.966 9.802C65.256 62.244 66 60.216 66 58z" fill="#fff"/><path fill-rule="evenodd" clip-rule="evenodd" d="M36 48.242v-2.69h2v2.69A9.757 9.757 0 0047.758 58H64v2H47.758C41.264 60 36 54.736 36 48.242z" fill="#4788C7"/><path d="M37 45c5.523 0 10-4.477 10-10s-4.477-10-10-10-10 4.477-10 10 4.477 10 10 10z" fill="#98CCFD"/><path d="M37 26c4.962 0 9 4.038 9 9s-4.038 9-9 9-9-4.038-9-9 4.038-9 9-9zm0-2c-6.076 0-11 4.924-11 11s4.924 11 11 11 11-4.924 11-11-4.924-11-11-11z" fill="#4788C7"/><path d="M37 38a3 3 0 100-6 3 3 0 000 6zm20 2a3 3 0 100-6 3 3 0 000 6zm8 22a3 3 0 100-6 3 3 0 000 6z" fill="#4788C7"/></svg>