<svg width="48" height="48" viewBox="0 0 48 48" fill="none" xmlns="http://www.w3.org/2000/svg">
<path d="M27.479 18.3021C17.7274 12.9154 8.26391 11.1334 6.3442 14.3168C4.4245 17.5001 10.7686 24.4501 20.5194 29.8388C30.2703 35.2274 39.7317 37.0094 41.6507 33.8234C43.5697 30.6374 37.2298 23.6888 27.479 18.3021Z" stroke="white" stroke-width="2" stroke-miterlimit="10" stroke-linecap="round" stroke-linejoin="round"/>
<path d="M24.0665 26.6666C25.5959 26.6666 26.8356 25.4727 26.8356 24C26.8356 22.5272 25.5959 21.3333 24.0665 21.3333C22.5371 21.3333 21.2974 22.5272 21.2974 24C21.2974 25.4727 22.5371 26.6666 24.0665 26.6666Z" stroke="white" stroke-width="2" stroke-miterlimit="10" stroke-linecap="round" stroke-linejoin="round"/>
<path d="M18.0664 33.982C21.3369 32.8981 24.4901 31.5105 27.4815 29.8387C37.233 24.452 43.5792 17.5053 41.6567 14.3167C40.3884 12.2147 35.8374 12.276 30.0872 14.108M27.5168 15.0147C25.1075 15.9531 22.7686 17.0513 20.5171 18.3013C10.7656 23.6887 4.41941 30.638 6.34396 33.8233C7.45161 35.6553 11.0515 35.844 15.759 34.6487" stroke="white" stroke-width="2" stroke-miterlimit="10" stroke-linecap="round" stroke-linejoin="round"/>
<path d="M17.2662 20.2327C17.8761 10.988 20.6889 4 24.0665 4C27.89 4 30.9894 12.954 30.9894 24C30.9897 25.275 30.9477 26.5496 30.8634 27.822M30.5913 30.7013C29.6373 38.4513 27.0766 44 24.0665 44C20.243 44 17.1437 35.046 17.1437 24" stroke="white" stroke-width="2" stroke-miterlimit="10" stroke-linecap="round" stroke-linejoin="round"/>
</svg>
