<svg width="48" height="48" viewBox="0 0 48 48" fill="none" xmlns="http://www.w3.org/2000/svg">
<path d="M9.92562 33.2381C8.9669 33.3558 8.07498 33.7908 7.39155 34.4739C5.6973 36.1755 5.5373 42.4761 5.5373 42.4761C5.5373 42.4761 11.8376 42.316 13.5319 40.6158C14.2159 39.9332 14.6504 39.0401 14.7654 38.0803M43.7894 4.54121C43.7729 4.46235 43.7343 4.38982 43.6781 4.33215C43.6219 4.27448 43.5504 4.23406 43.472 4.21565C38.2426 2.93598 26.1644 7.49654 19.6125 14.049C18.445 15.2083 17.3805 16.467 16.4311 17.811C14.4819 17.5694 12.5033 17.8174 10.6738 18.5325C5.81813 20.6686 4.40537 26.2484 4.01169 28.6436C3.98988 28.7749 3.99868 28.9094 4.0374 29.0368C4.07612 29.1641 4.14372 29.2807 4.23491 29.3776C4.3261 29.4745 4.43843 29.5489 4.56312 29.5952C4.68782 29.6414 4.8215 29.6582 4.95375 29.6442L12.7485 28.7871C12.7538 29.3757 12.789 29.9635 12.854 30.5485C12.8946 30.9529 13.075 31.3306 13.3639 31.6162L16.3826 34.6393C16.6681 34.9285 17.0454 35.109 17.4495 35.1496C18.0305 35.2144 18.6143 35.2496 19.1988 35.2552L18.3431 43.0468C18.3293 43.1791 18.3463 43.3127 18.3926 43.4374C18.4389 43.562 18.5133 43.6742 18.6101 43.7653C18.7069 43.8564 18.8233 43.924 18.9504 43.9626C19.0775 44.0013 19.2119 44.0101 19.3429 43.9883C21.7376 43.6036 27.3242 42.1897 29.4467 37.3315C30.1588 35.5063 30.4097 33.5332 30.1769 31.5876C31.5236 30.6381 32.7847 29.5725 33.9458 28.4031C40.521 21.8592 45.0488 10.0359 43.7894 4.54121ZM28.1023 19.9271C27.4319 19.2552 27.0151 18.3714 26.9228 17.4264C26.8304 16.4814 27.0683 15.5336 27.5959 14.7444C28.1235 13.9552 28.9081 13.3735 29.8162 13.0983C30.7242 12.8231 31.6995 12.8715 32.5759 13.2353C33.4523 13.599 34.1756 14.2555 34.6226 15.0931C35.0696 15.9306 35.2126 16.8973 35.0274 17.8286C34.8421 18.7598 34.3399 19.5979 33.6065 20.2002C32.873 20.8025 31.9536 21.1317 31.0048 21.1317C29.916 21.1313 28.8719 20.698 28.1023 19.9271Z" stroke="white" stroke-width="2" stroke-linecap="round" stroke-linejoin="round"/>
</svg>
