<svg width="25" height="24" viewBox="0 0 25 24" fill="none" xmlns="http://www.w3.org/2000/svg">
<path d="M8.52742 18.6281C8.52742 18.7219 8.41613 18.7969 8.27581 18.7969C8.11613 18.8109 8.00484 18.7359 8.00484 18.6281C8.00484 18.5344 8.11613 18.4594 8.25645 18.4594C8.40161 18.4453 8.52742 18.5203 8.52742 18.6281ZM7.02258 18.4172C6.98871 18.5109 7.08548 18.6187 7.23065 18.6469C7.35645 18.6937 7.50161 18.6469 7.53064 18.5531C7.55968 18.4594 7.46774 18.3516 7.32258 18.3094C7.19677 18.2766 7.05645 18.3234 7.02258 18.4172ZM9.16129 18.3375C9.02097 18.3703 8.92419 18.4594 8.93871 18.5672C8.95323 18.6609 9.07903 18.7219 9.22419 18.6891C9.36452 18.6562 9.46129 18.5672 9.44677 18.4734C9.43226 18.3844 9.30161 18.3234 9.16129 18.3375ZM12.3452 0.375C5.63387 0.375 0.5 5.31094 0.5 11.8125C0.5 17.0109 3.87742 21.4594 8.70161 23.025C9.32097 23.1328 9.53871 22.7625 9.53871 22.4578C9.53871 22.1672 9.52419 20.5641 9.52419 19.5797C9.52419 19.5797 6.1371 20.2828 5.42581 18.1828C5.42581 18.1828 4.87419 16.8187 4.08065 16.4672C4.08065 16.4672 2.97258 15.7312 4.15806 15.7453C4.15806 15.7453 5.3629 15.8391 6.02581 16.9547C7.08548 18.7641 8.86129 18.2437 9.55323 17.9344C9.66452 17.1844 9.97903 16.6641 10.3274 16.3547C7.62258 16.0641 4.89355 15.6844 4.89355 11.175C4.89355 9.88594 5.26129 9.23906 6.03548 8.41406C5.90968 8.10938 5.49839 6.85312 6.16129 5.23125C7.17258 4.92656 9.5 6.49688 9.5 6.49688C10.4677 6.23438 11.5081 6.09844 12.5387 6.09844C13.5694 6.09844 14.6097 6.23438 15.5774 6.49688C15.5774 6.49688 17.9048 4.92188 18.9161 5.23125C19.579 6.85781 19.1677 8.10938 19.0419 8.41406C19.8161 9.24375 20.2903 9.89062 20.2903 11.175C20.2903 15.6984 17.4403 16.0594 14.7355 16.3547C15.1806 16.725 15.5581 17.4281 15.5581 18.5297C15.5581 20.1094 15.5435 22.0641 15.5435 22.4484C15.5435 22.7531 15.7661 23.1234 16.3806 23.0156C21.2194 21.4594 24.5 17.0109 24.5 11.8125C24.5 5.31094 19.0565 0.375 12.3452 0.375ZM5.20323 16.5422C5.14032 16.5891 5.15484 16.6969 5.2371 16.7859C5.31452 16.8609 5.42581 16.8938 5.48871 16.8328C5.55161 16.7859 5.5371 16.6781 5.45484 16.5891C5.37742 16.5141 5.26613 16.4812 5.20323 16.5422ZM4.68064 16.1625C4.64677 16.2234 4.69516 16.2984 4.79194 16.3453C4.86935 16.3922 4.96613 16.3781 5 16.3125C5.03387 16.2516 4.98548 16.1766 4.88871 16.1297C4.79194 16.1016 4.71452 16.1156 4.68064 16.1625ZM6.24839 17.8312C6.17097 17.8922 6.2 18.0328 6.31129 18.1219C6.42258 18.2297 6.5629 18.2437 6.62581 18.1688C6.68871 18.1078 6.65968 17.9672 6.5629 17.8781C6.45645 17.7703 6.31129 17.7563 6.24839 17.8312ZM5.69677 17.1422C5.61935 17.1891 5.61935 17.3109 5.69677 17.4188C5.77419 17.5266 5.90484 17.5734 5.96774 17.5266C6.04516 17.4656 6.04516 17.3438 5.96774 17.2359C5.9 17.1281 5.77419 17.0813 5.69677 17.1422Z" fill="#24292E"/>
</svg>
