<svg width="60" height="60" viewBox="0 0 60 60" fill="none" xmlns="http://www.w3.org/2000/svg">
<path d="M7.20756 6H52.7924C53.4594 6 54 6.61147 54 7.36584V18.6342C54 19.3885 53.4594 20 52.7924 20H7.20756C6.54061 20 6 19.3885 6 18.6342V7.36584C5.99988 6.61147 6.54061 6 7.20756 6V6Z" fill="#71768E"/>
<path d="M26.5714 6H7.20756C6.54061 6 5.99988 6.61147 6 7.36584V18.6342C6 19.3885 6.54061 20 7.20756 20H26.5714V6Z" fill="#444755"/>
<path d="M49.8857 8.79999H51.2572V17.2H49.8857V8.79999Z" fill="#414451"/>
<path d="M45.7715 8.79999H47.1429V17.2H45.7715V8.79999Z" fill="#414451"/>
<path d="M41.6572 8.79999H43.0287V17.2H41.6572V8.79999Z" fill="#414451"/>
<path d="M37.543 8.79999H38.9144V17.2H37.543V8.79999Z" fill="#414451"/>
<path d="M33.4287 8.79999H34.8001V17.2H33.4287V8.79999Z" fill="#414451"/>
<path d="M29.3145 8.79999H30.6859V17.2H29.3145V8.79999Z" fill="#414451"/>
<path d="M12.8568 14.4C13.6142 14.4 14.2282 13.7732 14.2282 13C14.2282 12.2268 13.6142 11.6 12.8568 11.6C12.0994 11.6 11.4854 12.2268 11.4854 13C11.4854 13.7732 12.0994 14.4 12.8568 14.4Z" fill="#2CBFAE"/>
<path d="M19.7142 14.4C20.4716 14.4 21.0856 13.7732 21.0856 13C21.0856 12.2268 20.4716 11.6 19.7142 11.6C18.9568 11.6 18.3428 12.2268 18.3428 13C18.3428 13.7732 18.9568 14.4 19.7142 14.4Z" fill="#EF5261"/>
<path d="M22.0864 41H14.5L12.6381 39H7.8966C6.85347 39 6 39.8438 6 40.875V52.125C6 53.1562 6.85347 54 7.8966 54H22.5953C23.4014 54 24.0177 53.3906 24.0177 52.5938V42.75C24.0177 41.7188 23.1296 41 22.0864 41Z" fill="#FFA000"/>
<path d="M24.1125 43.6875H11.3578C10.4569 43.6875 9.65084 44.3437 9.5086 45.2344L7.89648 54H22.9271C23.828 54 24.634 53.3438 24.7763 52.4531L25.9616 45.8906C26.1987 44.7656 25.2978 43.6875 24.1125 43.6875Z" fill="#FFCA28"/>
<path d="M33 27.1159L33 30.8841C33 31.5004 32.5004 32 31.8841 32L28.1159 32C27.4996 32 27 31.5004 27 30.8841L27 27.1159C27 26.4996 27.4996 26 28.1159 26L31.8841 26C32.5004 26 33 26.4996 33 27.1159Z" fill="#575B6D"/>
<path d="M50.1211 41H42.5347L40.6381 39H35.8966C34.8535 39 34 39.8438 34 40.875V52.125C34 53.1562 34.8535 54 35.8966 54H50.5953C51.4014 54 52.0177 53.3906 52.0177 52.5938V42.75C52.0177 41.7188 51.1643 41 50.1211 41Z" fill="#FFA000"/>
<path d="M52.1125 43.6875H39.3578C38.4569 43.6875 37.6508 44.3437 37.5086 45.2344L35.8965 54H50.9271C51.828 54 52.634 53.3438 52.7763 52.4531L53.9616 45.8906C54.1987 44.7656 53.2978 43.6875 52.1125 43.6875Z" fill="#FFCA28"/>
<path d="M29 20L31 20L31 26L29 26L29 20Z" fill="#CDD1E4"/>
<path fill-rule="evenodd" clip-rule="evenodd" d="M20 30H27V28H20C17.2386 28 15 30.2386 15 33V41H17V33C17 31.3431 18.3431 30 20 30Z" fill="#CDD1E4"/>
<path fill-rule="evenodd" clip-rule="evenodd" d="M40 30H33V28H40C42.7614 28 45 30.2386 45 33V41H43V33C43 31.3431 41.6569 30 40 30Z" fill="#CDD1E4"/>
</svg>
