<svg width="61" height="60" viewBox="0 0 61 60" fill="none" xmlns="http://www.w3.org/2000/svg">
<path d="M44.7388 17.2037H44.4464C43.6155 17.2037 42.9053 16.6008 42.7506 15.7701C41.6575 9.89675 36.5906 5.45459 30.5008 5.45459C24.4113 5.45459 19.3442 9.89675 18.2511 15.7701C18.0966 16.6008 17.3862 17.2037 16.5553 17.2037H16.2628C10.5701 17.2037 5.95508 21.8998 5.95508 27.6929C5.95508 33.4858 10.5699 38.1819 16.2626 38.1819H44.7384C50.4312 38.1819 55.046 33.4858 55.046 27.6929C55.0464 21.8998 50.4316 17.2037 44.7388 17.2037Z" fill="#DBEAF8"/>
<path d="M41.5 27C33.7661 27 27.5 33.2661 27.5 41C27.5 48.7339 33.7661 55 41.5 55C49.2339 55 55.5 48.7339 55.5 41C55.5 33.2661 49.2339 27 41.5 27Z" fill="#178CF9"/>
<path d="M41.4997 32.4193C44.2432 32.4193 46.4674 34.6435 46.4674 37.3871C46.4674 40.1306 44.2432 42.3548 41.4997 42.3548C38.7561 42.3548 36.5319 40.1306 36.5319 37.3871C36.5319 34.6435 38.7561 32.4193 41.4997 32.4193ZM41.4997 51.8387C38.1859 51.8387 35.2166 50.3371 33.2295 47.9887C34.2908 45.9903 36.3682 44.6129 38.79 44.6129C38.9255 44.6129 39.0609 44.6354 39.1908 44.675C39.9247 44.9121 40.6924 45.0645 41.4997 45.0645C42.3069 45.0645 43.0803 44.9121 43.8085 44.675C43.9384 44.6354 44.0738 44.6129 44.2093 44.6129C46.6311 44.6129 48.7085 45.9903 49.7698 47.9887C47.7827 50.3371 44.8134 51.8387 41.4997 51.8387Z" fill="white"/>
</svg>
