<svg width="61" height="60" viewBox="0 0 61 60" fill="none" xmlns="http://www.w3.org/2000/svg">
<path d="M28.5 8.94989V31.0218C28.5 32.651 34.3203 33.9717 41.5 33.9717C48.6797 33.9717 54.5 32.651 54.5 31.0218V8.94989C54.5 8.94989 28.5 8.94989 28.5 8.94989Z" fill="#DFEAEF"/>
<path d="M51.5296 8.94989V16.3072C51.5296 17.8223 46.4949 19.0705 40.0148 19.2378C40.5023 19.2503 40.9976 19.257 41.4999 19.257C45.5375 19.257 49.1451 18.8393 51.5295 18.184V23.6644C51.5295 25.1796 46.4949 26.4277 40.0147 26.595C40.5022 26.6076 40.9976 26.6143 41.4999 26.6143C45.5375 26.6143 49.1451 26.1966 51.5295 25.5413V31.05C51.5295 32.5652 46.4948 33.8133 40.0146 33.9806C40.5023 33.9933 40.9976 34 41.5 34C48.6797 34 54.5 32.6793 54.5 31.0501V23.6928H54.4984C54.4988 23.6834 54.5 23.674 54.5 23.6645V16.3072V8.94989H51.5296Z" fill="#BFCFD6"/>
<path d="M41.5 18.3983C34.3203 18.3983 28.5 17.0776 28.5 15.4484V16.3072C28.5 17.9364 34.3203 19.2571 41.5 19.2571C48.6797 19.2571 54.5 17.9364 54.5 16.3072V15.4484C54.5 17.0776 48.6797 18.3983 41.5 18.3983Z" fill="#86AEBC"/>
<path d="M41.5 25.7554C34.3203 25.7554 28.5 24.4347 28.5 22.8055V23.6643C28.5 25.2935 34.3203 26.6142 41.5 26.6142C48.6797 26.6142 54.5 25.2935 54.5 23.6643V22.8055C54.5 24.4347 48.6797 25.7554 41.5 25.7554Z" fill="#86AEBC"/>
<path d="M41.5 33.1142C34.3203 33.1142 28.5 31.7935 28.5 30.1643V31.0231C28.5 32.6523 34.3203 33.973 41.5 33.973C48.6797 33.973 54.5 32.6523 54.5 31.0231V30.1643C54.5 31.7935 48.6797 33.1142 41.5 33.1142Z" fill="#86AEBC"/>
<path d="M41.4998 11.8998C48.6794 11.8998 54.4997 10.5791 54.4997 8.9499C54.4997 7.32071 48.6794 6 41.4998 6C34.3202 6 28.5 7.32071 28.5 8.9499C28.5 10.5791 34.3202 11.8998 41.4998 11.8998Z" fill="#9EBECC"/>
<path d="M41.4998 6C40.9975 6 40.5021 6.00667 40.0146 6.01925C46.4948 6.18654 51.5295 7.43467 51.5295 8.94984C51.5295 10.465 46.4948 11.7132 40.0146 11.8804C40.5021 11.893 40.9975 11.8997 41.4998 11.8997C48.6795 11.8997 54.4998 10.579 54.4998 8.94979C54.4998 7.3207 48.6795 6 41.4998 6Z" fill="#86AEBC"/>
<path d="M49.3952 16.0994C50.0784 16.0994 50.6323 15.5513 50.6323 14.8752C50.6323 14.1991 50.0784 13.6511 49.3952 13.6511C48.712 13.6511 48.1582 14.1991 48.1582 14.8752C48.1582 15.5513 48.712 16.0994 49.3952 16.0994Z" fill="#FC9F3D"/>
<path d="M41.4995 16.0257C37.938 16.0257 34.6009 15.7062 32.1028 15.126C31.8734 15.0728 31.7309 14.8454 31.7848 14.6183C31.8387 14.3912 32.0688 14.2505 32.2979 14.3036C34.7339 14.8694 38.0018 15.181 41.4996 15.181C42.9647 15.181 44.4016 15.1257 45.7706 15.0167C46.0057 14.998 46.2114 15.1714 46.2303 15.4038C46.2492 15.6363 46.074 15.8399 45.8391 15.8586C44.4474 15.9695 42.9873 16.0257 41.4995 16.0257Z" fill="#9EBECC"/>
<path d="M49.3952 23.3597C50.0784 23.3597 50.6323 22.8117 50.6323 22.1356C50.6323 21.4595 50.0784 20.9114 49.3952 20.9114C48.712 20.9114 48.1582 21.4595 48.1582 22.1356C48.1582 22.8117 48.712 23.3597 49.3952 23.3597Z" fill="#FC9F3D"/>
<path d="M41.4995 23.2862C37.9383 23.2862 34.6011 22.9666 32.1028 22.3865C31.8734 22.3332 31.7309 22.1059 31.7848 21.8787C31.8387 21.6516 32.0684 21.511 32.2979 21.5641C34.7341 22.1299 38.002 22.4414 41.4996 22.4414C42.9647 22.4414 44.4016 22.3861 45.7706 22.2771C46.0068 22.2577 46.2114 22.4318 46.2303 22.6642C46.2492 22.8967 46.074 23.1004 45.8391 23.1191C44.4474 23.23 42.9873 23.2862 41.4995 23.2862Z" fill="#9EBECC"/>
<path d="M49.3952 30.6315C50.0784 30.6315 50.6323 30.0834 50.6323 29.4073C50.6323 28.7312 50.0784 28.1832 49.3952 28.1832C48.712 28.1832 48.1582 28.7312 48.1582 29.4073C48.1582 30.0834 48.712 30.6315 49.3952 30.6315Z" fill="#FC9F3D"/>
<path d="M41.4995 30.5577C37.938 30.5577 34.6009 30.2382 32.1028 29.658C31.8734 29.6048 31.7309 29.3774 31.7848 29.1503C31.8387 28.9232 32.0688 28.7826 32.2979 28.8356C34.7339 29.4014 38.0018 29.713 41.4996 29.713C42.9647 29.713 44.4016 29.6577 45.7706 29.5487C46.0057 29.5296 46.2114 29.7033 46.2303 29.9358C46.2492 30.1683 46.074 30.3719 45.8391 30.3906C44.4474 30.5015 42.9873 30.5577 41.4995 30.5577Z" fill="#9EBECC"/>
<path d="M20.5 28.9499V51.0218C20.5 52.651 26.3203 53.9717 33.5 53.9717C40.6796 53.9717 46.4999 52.651 46.4999 51.0218V28.9499C46.4999 28.9499 20.5 28.9499 20.5 28.9499Z" fill="#DFEAEF"/>
<path d="M43.5296 28.9499V36.3072C43.5296 37.8223 38.4949 39.0705 32.0148 39.2378C32.5023 39.2503 32.9976 39.257 33.4999 39.257C37.5375 39.257 41.1451 38.8393 43.5295 38.184V43.6644C43.5295 45.1796 38.4949 46.4277 32.0147 46.595C32.5022 46.6075 32.9976 46.6143 33.4999 46.6143C37.5375 46.6143 41.1451 46.1966 43.5295 45.5413V51.05C43.5295 52.5651 38.4948 53.8133 32.0146 53.9806C32.5023 53.9933 32.9976 54 33.5 54C40.6797 54 46.4999 52.6793 46.4999 51.0501V43.6928H46.4983C46.4987 43.6834 46.4999 43.6739 46.4999 43.6645V36.3072V28.9499H43.5296Z" fill="#BFCFD6"/>
<path d="M33.5 38.3983C26.3203 38.3983 20.5 37.0776 20.5 35.4484V36.3072C20.5 37.9364 26.3203 39.2571 33.5 39.2571C40.6796 39.2571 46.4999 37.9364 46.4999 36.3072V35.4484C46.4999 37.0776 40.6796 38.3983 33.5 38.3983Z" fill="#86AEBC"/>
<path d="M33.5 45.7554C26.3203 45.7554 20.5 44.4347 20.5 42.8055V43.6644C20.5 45.2935 26.3203 46.6143 33.5 46.6143C40.6796 46.6143 46.4999 45.2935 46.4999 43.6644V42.8055C46.4999 44.4347 40.6796 45.7554 33.5 45.7554Z" fill="#86AEBC"/>
<path d="M33.5 53.1142C26.3203 53.1142 20.5 51.7935 20.5 50.1643V51.0231C20.5 52.6523 26.3203 53.973 33.5 53.973C40.6796 53.973 46.4999 52.6523 46.4999 51.0231V50.1643C46.4999 51.7935 40.6796 53.1142 33.5 53.1142Z" fill="#86AEBC"/>
<path d="M33.4998 31.8998C40.6794 31.8998 46.4996 30.5791 46.4996 28.9499C46.4996 27.3207 40.6794 26 33.4998 26C26.3202 26 20.5 27.3207 20.5 28.9499C20.5 30.5791 26.3202 31.8998 33.4998 31.8998Z" fill="#9EBECC"/>
<path d="M33.4998 26C32.9975 26 32.5021 26.0067 32.0146 26.0192C38.4948 26.1865 43.5295 27.4347 43.5295 28.9498C43.5295 30.465 38.4948 31.7132 32.0146 31.8804C32.5021 31.893 32.9975 31.8997 33.4998 31.8997C40.6795 31.8997 46.4998 30.579 46.4998 28.9498C46.4998 27.3207 40.6795 26 33.4998 26Z" fill="#86AEBC"/>
<path d="M41.3952 36.0995C42.0784 36.0995 42.6323 35.5514 42.6323 34.8753C42.6323 34.1992 42.0784 33.6511 41.3952 33.6511C40.712 33.6511 40.1582 34.1992 40.1582 34.8753C40.1582 35.5514 40.712 36.0995 41.3952 36.0995Z" fill="#FC9F3D"/>
<path d="M33.4995 36.0257C29.938 36.0257 26.6009 35.7062 24.1028 35.126C23.8734 35.0728 23.7309 34.8454 23.7848 34.6183C23.8387 34.3912 24.0688 34.2505 24.2979 34.3036C26.7339 34.8694 30.0018 35.181 33.4995 35.181C34.9646 35.181 36.4016 35.1257 37.7706 35.0167C38.0056 34.998 38.2113 35.1714 38.2302 35.4038C38.2491 35.6363 38.074 35.8399 37.8391 35.8586C36.4474 35.9695 34.9873 36.0257 33.4995 36.0257Z" fill="#9EBECC"/>
<path d="M41.3952 43.3597C42.0784 43.3597 42.6323 42.8117 42.6323 42.1356C42.6323 41.4595 42.0784 40.9114 41.3952 40.9114C40.712 40.9114 40.1582 41.4595 40.1582 42.1356C40.1582 42.8117 40.712 43.3597 41.3952 43.3597Z" fill="#FC9F3D"/>
<path d="M33.4995 43.2862C29.9382 43.2862 26.6011 42.9666 24.1028 42.3865C23.8734 42.3332 23.7309 42.1059 23.7848 41.8787C23.8387 41.6516 24.0684 41.511 24.2979 41.5641C26.7341 42.1299 30.002 42.4414 33.4995 42.4414C34.9646 42.4414 36.4016 42.3861 37.7706 42.2771C38.0068 42.2577 38.2113 42.4318 38.2302 42.6642C38.2491 42.8967 38.074 43.1003 37.8391 43.1191C36.4474 43.23 34.9873 43.2862 33.4995 43.2862Z" fill="#9EBECC"/>
<path d="M41.3952 50.6315C42.0784 50.6315 42.6323 50.0834 42.6323 49.4073C42.6323 48.7313 42.0784 48.1832 41.3952 48.1832C40.712 48.1832 40.1582 48.7313 40.1582 49.4073C40.1582 50.0834 40.712 50.6315 41.3952 50.6315Z" fill="#FC9F3D"/>
<path d="M33.4995 50.5577C29.938 50.5577 26.6009 50.2382 24.1028 49.658C23.8734 49.6048 23.7309 49.3774 23.7848 49.1503C23.8387 48.9232 24.0688 48.7826 24.2979 48.8356C26.7339 49.4014 30.0018 49.713 33.4995 49.713C34.9646 49.713 36.4016 49.6577 37.7706 49.5487C38.0056 49.5296 38.2113 49.7033 38.2302 49.9358C38.2491 50.1683 38.074 50.3719 37.8391 50.3906C36.4474 50.5015 34.9873 50.5577 33.4995 50.5577Z" fill="#9EBECC"/>
<path d="M15.1349 10.0011C10.4411 10.0737 6.57552 13.8403 6.50094 18.414C6.44178 22.0441 9.18196 24.9335 12.4998 26L12.0534 29.4193C12.0531 29.4435 12.0577 29.4674 12.067 29.4896C12.0763 29.5118 12.0901 29.5318 12.1077 29.5484L13.1519 30.5367C13.1694 30.5533 13.1833 30.5733 13.1926 30.5954C13.2019 30.6176 13.2065 30.6415 13.2061 30.6658L13.1783 32.3702C13.1778 32.4001 13.1698 32.4297 13.1548 32.4562C13.1399 32.4828 13.1186 32.5056 13.0928 32.5225L12.075 33.1904C12.0492 33.2074 12.0278 33.2301 12.0129 33.2567C11.998 33.2833 11.9899 33.3128 11.9894 33.3427L11.96 35.1514C11.9593 35.1963 11.9757 35.2394 12.006 35.2722L12.9851 36.332C13.0015 36.3497 13.014 36.3706 13.0218 36.3934C13.0296 36.4162 13.0326 36.4405 13.0305 36.4647C13.0285 36.489 13.0214 36.5128 13.0099 36.5346C12.9983 36.5565 12.9824 36.576 12.9632 36.592L11.9891 37.401C11.9682 37.4183 11.9513 37.4397 11.9395 37.4638C11.9278 37.4878 11.9215 37.5139 11.9211 37.5402L11.8954 39.1142C11.895 39.138 11.8995 39.1615 11.9084 39.1833C11.9174 39.2052 11.9308 39.2249 11.9478 39.2415C11.9648 39.2581 11.9851 39.2711 12.0075 39.2799C12.03 39.2886 12.0541 39.2929 12.0785 39.2925L12.8797 39.2801C12.9042 39.2797 12.9283 39.284 12.9507 39.2928C12.9731 39.3015 12.9934 39.3146 13.0104 39.3311C13.0274 39.3477 13.0408 39.3675 13.0498 39.3893C13.0588 39.4112 13.0632 39.4347 13.0628 39.4585L13.0531 40.0537C13.0524 40.1003 13.0701 40.1449 13.1025 40.1781L14.8315 41.946C14.8486 41.9634 14.8693 41.9772 14.8922 41.9865C14.9152 41.9958 14.94 42.0004 14.9652 42L15.5361 41.9911C15.5888 41.9903 15.6394 41.9677 15.6753 41.929C15.9762 41.6046 17.4937 40.3887 17.4998 40V26C20.8541 24.8302 23.4396 21.781 23.4988 18.1509C23.5734 13.5772 19.8287 9.9284 15.1349 10.0011ZM17.0041 13.5491C16.9872 14.5864 16.1105 15.4407 15.0459 15.4572C13.9814 15.4737 13.1321 14.6461 13.149 13.6088C13.1659 12.5715 14.0426 11.7172 15.1072 11.7008C16.1717 11.6843 17.021 12.5119 17.0041 13.5491Z" fill="#FFB636"/>
<path d="M15.4998 41.9917V27L12.4998 26L12.0535 29.4193C12.0531 29.4435 12.0577 29.4674 12.0671 29.4896C12.0764 29.5118 12.0902 29.5318 12.1078 29.5484L13.152 30.5367C13.1695 30.5533 13.1834 30.5733 13.1927 30.5954C13.202 30.6176 13.2066 30.6415 13.2062 30.6658L13.1784 32.3702C13.1779 32.4001 13.1698 32.4297 13.1549 32.4562C13.14 32.4828 13.1187 32.5056 13.0929 32.5225L12.0751 33.1904C12.0492 33.2074 12.0279 33.2301 12.013 33.2567C11.9981 33.2833 11.99 33.3128 11.9895 33.3427L11.9601 35.1514C11.9594 35.1963 11.9758 35.2394 12.0061 35.2722L12.9852 36.332C13.0016 36.3497 13.0141 36.3706 13.0219 36.3934C13.0297 36.4162 13.0327 36.4405 13.0306 36.4647C13.0286 36.489 13.0215 36.5128 13.01 36.5346C12.9984 36.5565 12.9825 36.576 12.9633 36.592L11.9891 37.401C11.9683 37.4183 11.9514 37.4397 11.9396 37.4638C11.9279 37.4878 11.9216 37.5139 11.9212 37.5402L11.8955 39.1142C11.8951 39.138 11.8996 39.1615 11.9085 39.1833C11.9175 39.2052 11.9309 39.2249 11.9479 39.2415C11.9649 39.2581 11.9852 39.2711 12.0076 39.2799C12.0301 39.2886 12.0542 39.2929 12.0786 39.2925L12.8798 39.2801C12.9043 39.2797 12.9284 39.284 12.9508 39.2928C12.9732 39.3015 12.9935 39.3146 13.0105 39.3311C13.0275 39.3477 13.0409 39.3675 13.0499 39.3893C13.0589 39.4112 13.0633 39.4347 13.0629 39.4585L13.0532 40.0537C13.0525 40.1003 13.0702 40.1449 13.1026 40.1781L14.8316 41.946C14.8487 41.9634 14.8694 41.9772 14.8923 41.9865C14.9153 41.9958 14.9401 42.0004 14.9653 42L15.4998 41.9917Z" fill="#D19F47"/>
</svg>
