<svg width="60" height="60" viewBox="0 0 60 60" fill="none" xmlns="http://www.w3.org/2000/svg">
<path d="M50.5898 12.1213V47.8766C50.5898 50.5158 41.2912 52.6553 29.8208 52.6553C18.3504 52.6553 9.05176 50.5158 9.05176 47.8766V12.1213C9.05176 12.1213 50.5898 12.1213 50.5898 12.1213Z" fill="#575B6D"/>
<path d="M29.8218 27.4274C41.2922 27.4274 50.5908 25.2879 50.5908 22.6487V24.0399C50.5908 26.6791 41.2922 28.8186 29.8218 28.8186C18.3514 28.8186 9.05273 26.6791 9.05273 24.0399V22.6487C9.05273 25.2879 18.3514 27.4274 29.8218 27.4274Z" fill="#414451"/>
<path d="M29.8218 39.3453C41.2922 39.3453 50.5908 37.2059 50.5908 34.5667V35.9579C50.5908 38.5971 41.2922 40.7366 29.8218 40.7366C18.3514 40.7366 9.05273 38.5971 9.05273 35.9579V34.5667C9.05273 37.2059 18.3514 39.3453 29.8218 39.3453Z" fill="#414451"/>
<path d="M29.8218 51.2662C41.2922 51.2662 50.5908 49.1268 50.5908 46.4875V47.8788C50.5908 50.518 41.2922 52.6574 29.8218 52.6574C18.3514 52.6574 9.05273 50.518 9.05273 47.8788V46.4875C9.05273 49.1268 18.3514 51.2662 29.8218 51.2662Z" fill="#414451"/>
<path d="M29.8211 16.9001C18.3508 16.9001 9.0523 14.7606 9.0523 12.1214C9.0523 9.48226 18.3508 7.34277 29.8211 7.34277C41.2913 7.34277 50.5898 9.48226 50.5898 12.1214C50.5898 14.7606 41.2913 16.9001 29.8211 16.9001Z" fill="#414451"/>
<path d="M14.1796 21.9345C13.4002 21.9345 12.7683 21.3005 12.7683 20.5184C12.7683 19.7363 13.4002 19.1023 14.1796 19.1023C14.959 19.1023 15.5908 19.7363 15.5908 20.5184C15.5908 21.3005 14.959 21.9345 14.1796 21.9345Z" fill="#FF5364"/>
<path d="M14.1796 33.6942C13.4002 33.6942 12.7683 33.0602 12.7683 32.2781C12.7683 31.4961 13.4002 30.8621 14.1796 30.8621C14.959 30.8621 15.5908 31.4961 15.5908 32.2781C15.5908 33.0602 14.959 33.6942 14.1796 33.6942Z" fill="#FF5364"/>
<path d="M14.1796 45.4537C13.4002 45.4537 12.7683 44.8197 12.7683 44.0377C12.7683 43.2556 13.4002 42.6216 14.1796 42.6216C14.959 42.6216 15.5908 43.2556 15.5908 44.0377C15.5908 44.8197 14.959 45.4537 14.1796 45.4537Z" fill="#FF5364"/>
<path d="M29.8228 23.5838C35.5127 23.5838 40.8442 23.0661 44.8351 22.1263C45.2017 22.04 45.4292 21.6717 45.3431 21.3038C45.257 20.9359 44.8894 20.708 44.5235 20.794C40.6317 21.7106 35.4108 22.2153 29.8227 22.2153C27.482 22.2153 25.1863 22.1257 22.9991 21.9492C22.6236 21.9189 22.295 22.1997 22.2648 22.5762C22.2346 22.9529 22.5144 23.2827 22.8897 23.313C25.1132 23.4927 27.4458 23.5838 29.8228 23.5838Z" fill="#414451"/>
<path d="M29.8228 35.3455C35.5123 35.3455 40.8438 34.8278 44.8351 33.888C45.2017 33.8017 45.4292 33.4334 45.3431 33.0655C45.257 32.6975 44.89 32.4697 44.5235 32.5558C40.6313 33.4723 35.4104 33.977 29.8227 33.977C27.482 33.977 25.1863 33.8875 22.9991 33.7109C22.6218 33.6794 22.295 33.9614 22.2648 34.3379C22.2346 34.7146 22.5144 35.0445 22.8897 35.0747C25.1132 35.2545 27.4458 35.3455 29.8228 35.3455Z" fill="#414451"/>
<path d="M29.8228 47.125C35.5127 47.125 40.8442 46.6073 44.8351 45.6675C45.2017 45.5812 45.4292 45.2129 45.3431 44.845C45.257 44.4771 44.8894 44.2494 44.5235 44.3352C40.6317 45.2518 35.4108 45.7565 29.8227 45.7565C27.482 45.7565 25.1863 45.6669 22.9991 45.4904C22.6236 45.4594 22.295 45.7408 22.2648 46.1174C22.2346 46.4941 22.5144 46.8239 22.8897 46.8542C25.1132 47.0339 27.4458 47.125 29.8228 47.125Z" fill="#414451"/>
</svg>
