<svg width="60" height="60" viewBox="0 0 60 60" fill="none" xmlns="http://www.w3.org/2000/svg">
<path fill-rule="evenodd" clip-rule="evenodd" d="M25.0045 52H6.99576C5.89341 52 5.00001 51.2117 5.00001 50.2392L5 38.7608C5 37.7883 5.8934 37 6.99575 37H25.0045C26.1066 37 27 37.7883 27 38.7608L27 50.2392C27 51.2117 26.1066 52 25.0045 52Z" fill="#86AEBC"/>
<path fill-rule="evenodd" clip-rule="evenodd" d="M25.3078 39.76C25.3078 39.04 24.6732 38.5 23.827 38.5H8.17315C7.327 38.5 6.69238 39.04 6.69238 39.76V49C6.69238 49 25.2856 49 25.3078 49V39.76Z" fill="#DBEAF8"/>
<rect x="9.23047" y="53.5" width="13.5385" height="1.5" rx="0.75" fill="#86AEBC"/>
<rect x="19.3848" y="52" width="1.5" height="6.76923" transform="rotate(90 19.3848 52)" fill="#86AEBC"/>
<path fill-rule="evenodd" clip-rule="evenodd" d="M53.0045 52H34.9958C33.8934 52 33 51.2117 33 50.2392L33 38.7608C33 37.7883 33.8934 37 34.9957 37H53.0045C54.1066 37 55 37.7883 55 38.7608L55 50.2392C55 51.2117 54.1066 52 53.0045 52Z" fill="#86AEBC"/>
<path fill-rule="evenodd" clip-rule="evenodd" d="M53.3078 39.76C53.3078 39.04 52.6732 38.5 51.827 38.5H36.1732C35.327 38.5 34.6924 39.04 34.6924 39.76V49C34.6924 49 53.2856 49 53.3078 49V39.76Z" fill="#DBEAF8"/>
<rect x="37.2305" y="53.5" width="13.5385" height="1.5" rx="0.75" fill="#86AEBC"/>
<rect x="47.3848" y="52" width="1.5" height="6.76923" transform="rotate(90 47.3848 52)" fill="#86AEBC"/>
<path fill-rule="evenodd" clip-rule="evenodd" d="M39.0045 20H20.9958C19.8934 20 19 19.2117 19 18.2392L19 6.76084C19 5.78834 19.8934 5 20.9957 5H39.0045C40.1066 5 41 5.78834 41 6.76084L41 18.2392C41 19.2117 40.1066 20 39.0045 20Z" fill="#86AEBC"/>
<path fill-rule="evenodd" clip-rule="evenodd" d="M39.3078 7.76C39.3078 7.04 38.6732 6.5 37.827 6.5H22.1732C21.327 6.5 20.6924 7.04 20.6924 7.76V17C20.6924 17 39.2856 17 39.3078 17V7.76Z" fill="#DBEAF8"/>
<rect x="23.2305" y="21.5" width="13.5385" height="1.5" rx="0.75" fill="#86AEBC"/>
<rect x="33.3848" y="20" width="1.5" height="6.76923" transform="rotate(90 33.3848 20)" fill="#86AEBC"/>
<path d="M29 23L31 23L31 27L29 27L29 23Z" fill="#CDD1E4"/>
<path d="M33 28.1159L33 31.8841C33 32.5004 32.5004 33 31.8841 33L28.1159 33C27.4996 33 27 32.5004 27 31.8841L27 28.1159C27 27.4996 27.4996 27 28.1159 27L31.8841 27C32.5004 27 33 27.4996 33 28.1159Z" fill="#575B6D"/>
<path fill-rule="evenodd" clip-rule="evenodd" d="M40 31H33V29H40C42.7614 29 45 31.2386 45 34V37H43V34C43 32.3431 41.6569 31 40 31Z" fill="#CDD1E4"/>
<path fill-rule="evenodd" clip-rule="evenodd" d="M20 31H27V29H20C17.2386 29 15 31.2386 15 34V37H17V34C17 32.3431 18.3431 31 20 31Z" fill="#CDD1E4"/>
</svg>
