<svg width="60" height="60" viewBox="0 0 60 60" fill="none" xmlns="http://www.w3.org/2000/svg">
<path d="M44.2388 17.2037H43.9464C43.1155 17.2037 42.4053 16.6008 42.2506 15.7701C41.1575 9.89675 36.0906 5.45459 30.0008 5.45459C23.9113 5.45459 18.8442 9.89675 17.7511 15.7701C17.5966 16.6008 16.8862 17.2037 16.0553 17.2037H15.7628C10.0701 17.2037 5.45508 21.8998 5.45508 27.6929C5.45508 33.4858 10.0699 38.1819 15.7626 38.1819H44.2384C49.9312 38.1819 54.546 33.4858 54.546 27.6929C54.5464 21.8998 49.9316 17.2037 44.2388 17.2037Z" fill="#DBEAF8"/>
<path d="M45.4286 46V50.6106L39 44.182V35.7143C38.9999 35.4756 38.9333 35.2416 38.8077 35.0386C38.6821 34.8356 38.5025 34.6716 38.289 34.5649L31.2857 31.0613V23.9217L34.6106 27.2466L36.4286 25.4286L30 19L23.5714 25.4286L25.3894 27.2466L28.7143 23.9217V31.0626L21.711 34.5636C21.4973 34.6704 21.3175 34.8346 21.1919 35.0379C21.0664 35.2411 20.9999 35.4754 21 35.7143V44.182L14.5714 50.6106V46H12V55H21V52.4286H16.3894L22.539 46.279L29.4253 49.7221C29.6038 49.8112 29.8005 49.8576 30 49.8576C30.1995 49.8576 30.3962 49.8112 30.5747 49.7221L37.461 46.279L43.6106 52.4286H39V55H48V46H45.4286ZM28.7143 46.4911L23.5714 43.9197V37.7946L28.7143 40.366V46.4911ZM30 38.134L25.1606 35.7143L30 33.2946L34.8394 35.7143L30 38.134ZM36.4286 43.9197L31.2857 46.4911V40.366L36.4286 37.7946V43.9197Z" fill="#00D69B"/>
<path d="M20.9962 44.1858L14.5714 50.6105V46H12V55H21V52.4285H16.3894L22.5307 46.2872C22.4481 46.2314 22.3615 46.1808 22.2715 46.1357L22.067 46.0335C21.4131 45.7065 20.9999 45.0381 20.9999 44.3069C20.9999 44.2663 20.9987 44.2259 20.9962 44.1858Z" fill="#178CF9"/>
<path d="M45.4286 50.6106V46H48V55H39V52.4286H43.6106L37.461 46.279L37 46.5095C37 46.5063 37 46.5032 37 46.5L39 45.5V44L39 44.182L45.4286 50.6106Z" fill="#178CF9"/>
</svg>
