<svg width="60" height="60" viewBox="0 0 60 60" fill="none" xmlns="http://www.w3.org/2000/svg">
<path d="M39.7617 15.411H39.4996C38.7549 15.411 38.1184 14.8767 37.9797 14.1406C37 8.93619 32.4585 4.99994 27.0003 4.99994C21.5422 4.99994 17.0006 8.93619 16.0209 14.1406C15.8824 14.8767 15.2457 15.411 14.5009 15.411H14.2388C9.13642 15.411 5 19.5722 5 24.7055C5 29.8387 9.13624 33.9999 14.2386 33.9999H39.7614C44.8638 33.9999 49 29.8387 49 24.7055C49.0004 19.5722 44.8641 15.411 39.7617 15.411Z" fill="#DBEAF8"/>
<path d="M14.743 5.00294C11.799 5.0807 9.18828 6.42495 7.41077 8.51353L5.94432 7.05819C5.866 6.98142 5.76671 6.92955 5.65896 6.90912C5.55121 6.88869 5.43983 6.90061 5.33884 6.94338C5.23786 6.98615 5.15179 7.05785 5.0915 7.14946C5.0312 7.24106 4.99937 7.34847 5.00001 7.45813V12.2241C5.00001 12.5352 5.24442 12.7796 5.55548 12.7796H10.3215C10.8214 12.7796 11.0658 12.1797 10.7103 11.8353L8.98831 10.1022C10.4214 8.358 12.5767 7.22483 14.9985 7.22483C19.7978 7.22483 23.5973 11.602 22.6196 16.5679C22.0197 19.6452 19.4979 22.1004 16.4206 22.6448C12.199 23.4002 8.44395 20.7117 7.47742 16.9123C7.34411 16.4457 6.89973 16.1124 6.41091 16.1124C5.6888 16.1124 5.14443 16.7901 5.32218 17.4789C6.42202 21.8005 10.3326 25 14.9985 25C20.6199 25 25.1526 20.3673 24.9971 14.7126C24.8415 9.2912 20.1644 4.86962 14.743 5.00294ZM17.2204 15.0015C17.2204 13.7794 16.2206 12.7796 14.9985 12.7796C13.7765 12.7796 12.7766 13.7794 12.7766 15.0015C12.7766 16.2235 13.7765 17.2234 14.9985 17.2234C16.2206 17.2234 17.2204 16.2235 17.2204 15.0015Z" fill="#178CF9"/>
<path d="M31.0002 33.6626H26.2002V32.2401C26.2002 31.6869 26.6002 31.2917 27.1602 31.2917H30.0402C30.6002 31.2917 31.0002 31.6869 31.0002 32.2401V33.6626Z" fill="#546E7A"/>
<path d="M51.8 55.0001H26.2C24.44 55.0001 23 53.5776 23 51.8389V40.7751H55V51.8389C55 53.5776 53.56 55.0001 51.8 55.0001Z" fill="#86AEBC"/>
<path d="M29.9604 40.7751C29.6404 41.8024 29.4004 42.8298 29.4004 43.9362C29.4004 49.152 33.7204 53.4195 39.0004 53.4195C44.2804 53.4195 48.6004 49.152 48.6004 43.9362C48.6004 42.8298 48.3604 41.8024 48.0404 40.7751H29.9604Z" fill="#2B373B"/>
<path d="M26.2 33H51.8C53.56 33 55 34.4225 55 36.1611V40.9028H23V36.1611C23 34.4225 24.44 33 26.2 33Z" fill="#9EBECC"/>
<path d="M46.9202 33.7417H31.1602L33.8802 29.7112C34.2002 29.2371 34.6802 29 35.2402 29H42.9202C43.4802 29 43.9602 29.2371 44.2802 29.7112L46.9202 33.7417Z" fill="#9EBECC"/>
<path d="M48.04 40.775C46.76 37.0607 43.16 34.4528 39 34.4528C34.84 34.4528 31.24 37.0607 29.96 40.775H48.04Z" fill="#455A64"/>
<path d="M38.9998 51.0486C42.9763 51.0486 46.1998 47.8642 46.1998 43.9361C46.1998 40.008 42.9763 36.8236 38.9998 36.8236C35.0234 36.8236 31.7998 40.008 31.7998 43.9361C31.7998 47.8642 35.0234 51.0486 38.9998 51.0486Z" fill="#DBEAF8"/>
<path d="M42.9996 40.9331C42.0396 39.8267 40.5996 39.1945 39.1596 39.1945C37.7196 39.1945 36.2796 39.8267 35.3196 40.9331C34.9196 41.3282 34.9996 41.9604 35.3996 42.3556C35.7996 42.7507 36.4396 42.6717 36.8396 42.2765C38.0396 40.9331 40.2796 40.9331 41.4796 42.2765C41.7196 42.5136 41.9596 42.5926 42.2796 42.5926C42.5196 42.5926 42.7596 42.5136 42.9996 42.3556C43.3196 42.0395 43.3996 41.3282 42.9996 40.9331Z" fill="white"/>
<path d="M48.5996 35.2431H52.5996V38.4042H48.5996V35.2431Z" fill="#DBEAF8"/>
</svg>
