<svg width="61" height="60" viewBox="0 0 61 60" fill="none" xmlns="http://www.w3.org/2000/svg">
<path d="M44.4219 17.488H44.1359C43.3235 17.488 42.6291 16.8985 42.4778 16.0862C41.4091 10.3434 36.4548 6 30.5003 6C24.5461 6 19.5915 10.3434 18.5228 16.0862C18.3717 16.8985 17.6771 17.488 16.8647 17.488H16.5787C11.0125 17.488 6.5 22.0797 6.5 27.7441C6.5 33.4083 11.0123 38 16.5785 38H44.4215C49.9877 38 54.5 33.4083 54.5 27.7441C54.5004 22.0797 49.9881 17.488 44.4219 17.488Z" fill="#DBEAF8"/>
<path d="M24.7857 19H21.9286C21.5497 19 21.1863 19.1505 20.9184 19.4184C20.6505 19.6863 20.5 20.0497 20.5 20.4286V29H21.9286V25.4286H24.7857V29H26.2143V20.4286C26.2143 20.0497 26.0638 19.6863 25.7959 19.4184C25.528 19.1505 25.1646 19 24.7857 19ZM21.9286 24V20.4286H24.7857V24H21.9286Z" fill="#71768E"/>
<path d="M34.7857 20.4286H36.9286V27.5714H34.7857V29H40.5V27.5714H38.3571V20.4286H40.5V19H34.7857V20.4286Z" fill="#71768E"/>
<path d="M29.0714 29H27.6429V19H31.9286C32.3075 19 32.6708 19.1505 32.9387 19.4184C33.2066 19.6863 33.3571 20.0497 33.3571 20.4286V24C33.3571 24.3789 33.2066 24.7422 32.9387 25.0102C32.6708 25.2781 32.3075 25.4286 31.9286 25.4286H29.0714V29ZM29.0714 24H31.9286V20.4286H29.0714V24Z" fill="#71768E"/>
<path d="M26.8333 54H23.1667V41.1667H19.5L25 32L30.5 41.1667H26.8333V54Z" fill="#00D69B"/>
<path d="M37.8333 32H34.1667V44.8333H30.5L36 54L41.5 44.8333H37.8333V32Z" fill="#00D69B"/>
</svg>
