<svg width="60" height="60" viewBox="0 0 60 60" fill="none" xmlns="http://www.w3.org/2000/svg">
<path fill-rule="evenodd" clip-rule="evenodd" d="M45.4424 37.3272C40.1312 47.7638 29.6 54 29.6 54C29.6 54 19.0688 47.7638 13.7576 37.3272C8.27168 26.5469 8 13.5763 8 13.5763L29.6 6L51.2 13.5763C51.2 13.5763 50.9283 26.5469 45.4424 37.3272Z" fill="#ECF0F1"/>
<path fill-rule="evenodd" clip-rule="evenodd" d="M13.7576 37.3272C19.0688 47.7638 29.6 54 29.6 54V6L8 13.5763C8 13.5763 8.27168 26.5469 13.7576 37.3272Z" fill="#C4D1D4"/>
<path fill-rule="evenodd" clip-rule="evenodd" d="M29.5953 47.76C26.4964 45.456 21.1002 40.8326 17.9596 34.6358C14.757 28.3162 13.5172 20.9928 13.043 16.6934L29.6001 10.8619L46.1572 16.6934C45.6835 20.9894 44.4441 28.3142 41.2406 34.6354C38.1158 40.8024 32.6951 45.4483 29.5953 47.76Z" fill="#EF5261"/>
<path d="M29.6001 10.8619L13.043 16.6934C13.5172 20.9928 14.757 28.3161 17.9596 34.6358C21.1002 40.8326 26.4964 45.456 29.5953 47.76L29.6001 47.7564V10.8619Z" fill="#D92637"/>
<path fill-rule="evenodd" clip-rule="evenodd" d="M35.7383 28.0997C37.1514 26.6674 37.1504 24.3466 35.7383 22.9142C35.3973 22.567 34.9892 22.2928 34.5389 22.1083C34.0886 21.9238 33.6055 21.8328 33.1189 21.841C31.7956 21.8635 29.613 23.639 29.613 23.639C29.613 23.639 27.369 21.8386 26.013 21.8405C25.5377 21.8414 25.0673 21.9368 24.6291 22.1211C24.191 22.3054 23.7939 22.575 23.4608 22.9142C22.0487 24.3466 22.0477 26.6674 23.4608 28.0997L29.5996 34.32L35.7383 28.0997Z" fill="white"/>
</svg>
