<svg width="60" height="60" viewBox="0 0 60 60" fill="none" xmlns="http://www.w3.org/2000/svg">
<path d="M35 45L35 41L55 41L55 45L35 45Z" fill="#CDD1E4"/>
<path d="M5 45L5 41L25 41L25 45L5 45Z" fill="#CDD1E4"/>
<path d="M28 26L32 26L32 38L28 38L28 26Z" fill="#CDD1E4"/>
<path d="M26.8598 38L33.1402 38C34.1674 38 35 38.8327 35 39.8598L35 46.1402C35 47.1674 34.1674 48 33.1402 48L26.8598 48C25.8326 48 25 47.1674 25 46.1402L25 39.8598C25 38.8326 25.8326 38 26.8598 38Z" fill="#575B6D"/>
<rect x="5" y="12" width="50" height="14" rx="7" fill="#71768E"/>
<path d="M48.9883 15H49.9995V23H48.9883V15Z" fill="black"/>
<path d="M46.1572 15H47.1685V23H46.1572V15Z" fill="black"/>
<path d="M43.3262 15H44.3374V23H43.3262V15Z" fill="black"/>
<path d="M40.4941 15H41.5054V23H40.4941V15Z" fill="black"/>
<path d="M37.6631 15H38.6743V23H37.6631V15Z" fill="black"/>
<path d="M34.8311 15H35.8423V23H34.8311V15Z" fill="black"/>
<path d="M32 15H33.0112V23H32V15Z" fill="black"/>
<path d="M13 21C14.1046 21 15 20.1046 15 19C15 17.8954 14.1046 17 13 17C11.8954 17 11 17.8954 11 19C11 20.1046 11.8954 21 13 21Z" fill="#2CBFAE"/>
<path d="M19 21C20.1046 21 21 20.1046 21 19C21 17.8954 20.1046 17 19 17C17.8954 17 17 17.8954 17 19C17 20.1046 17.8954 21 19 21Z" fill="#EF5261"/>
</svg>
