<svg width="60" height="60" viewBox="0 0 60 60" fill="none" xmlns="http://www.w3.org/2000/svg">
<g clip-path="url(#clip0)">
<path d="M17.3042 35.0786H6.30102C5.83361 35.0786 5.45459 34.6996 5.45459 34.2321V28.3074C5.45459 27.84 5.83351 27.4609 6.30102 27.4609H17.3042C17.7716 27.4609 18.1506 27.8399 18.1506 28.3074V34.2321C18.1505 34.6995 17.7716 35.0786 17.3042 35.0786Z" fill="#F4B973"/>
<path d="M6.30102 5.45459H17.3042C17.7716 5.45459 18.1506 5.83351 18.1506 6.30102V12.2258C18.1506 12.6932 17.7717 13.0722 17.3042 13.0722H6.30102C5.83361 13.0721 5.45459 12.6932 5.45459 12.2258V6.30102C5.45459 5.83351 5.83361 5.45459 6.30102 5.45459Z" fill="#F4B973"/>
<path d="M22.3826 5.45459H37.6177C38.0851 5.45459 38.4641 5.83351 38.4641 6.30102V12.2258C38.4641 12.6932 38.0852 13.0722 37.6177 13.0722H22.3826C21.9151 13.0722 21.5361 12.6933 21.5361 12.2258V6.30102C21.5362 5.83351 21.9151 5.45459 22.3826 5.45459Z" fill="#F4B973"/>
<path d="M28.3072 17.6679V17.304C28.3059 16.8371 27.9277 16.459 27.4608 16.4575H6.30102C5.83418 16.4589 5.45603 16.837 5.45459 17.304V23.2287C5.45593 23.6955 5.83408 24.0737 6.30102 24.0751H23.4658L28.3072 17.6679Z" fill="#F4B973"/>
<path d="M31.693 24.0751H53.6992C54.166 24.0738 54.5442 23.6956 54.5456 23.2287V17.304C54.5443 16.8371 54.1661 16.459 53.6992 16.4575H32.5393C32.0725 16.4589 31.6943 16.837 31.6929 17.304V24.0751H31.693Z" fill="#F4B973"/>
<path d="M17.922 46.0815H6.30102C5.83418 46.0801 5.45603 45.702 5.45459 45.2351V39.3103C5.45593 38.8435 5.83408 38.4653 6.30102 38.4639H18.7176L17.922 46.0815Z" fill="#F4B973"/>
<path d="M43.1532 38.4639H53.6993C54.1661 38.4652 54.5442 38.8434 54.5457 39.3103V45.235C54.5443 45.7019 54.1662 46.08 53.6993 46.0815H43.0601L43.1532 38.4639Z" fill="#F4B973"/>
<path d="M42.696 5.45459H53.6992C54.1666 5.45459 54.5455 5.83351 54.5455 6.30102V12.2258C54.5455 12.6932 54.1666 13.0722 53.6991 13.0722H42.696C42.2286 13.0722 41.8496 12.6933 41.8496 12.2258V6.30102C41.8497 5.83351 42.2286 5.45459 42.696 5.45459Z" fill="#F4B973"/>
<path d="M42.6956 27.4607H53.6987C54.1661 27.4607 54.5452 27.8396 54.5452 28.3071V34.2319C54.5452 34.6993 54.1662 35.0783 53.6987 35.0783H42.6956C42.2281 35.0783 41.8491 34.6994 41.8491 34.2319V28.3071C41.8492 27.8396 42.2281 27.4607 42.6956 27.4607Z" fill="#F4B973"/>
<path d="M30.7871 35.0784H30.0254" stroke="black" stroke-width="2" stroke-linecap="round" stroke-linejoin="round"/>
<path d="M43.5171 43.3307C43.4723 44.2623 43.3189 45.1855 43.06 46.0815C42.5493 47.9049 41.5481 49.5531 40.1654 50.8467C38.7763 52.1604 37.1146 53.1516 35.2986 53.7499H35.2901C33.7601 54.2787 32.1523 54.5477 30.5334 54.5455C30.0103 54.5473 29.4875 54.519 28.9676 54.4608C23.6099 53.9106 19.251 50.5251 17.9222 46.0815C17.6404 45.157 17.4977 44.1957 17.4989 43.2292C17.5017 41.6704 17.8699 40.1341 18.5739 38.7433C18.6161 38.6502 18.667 38.5571 18.7178 38.464C19.1256 37.6671 19.6443 36.9318 20.2582 36.2803C20.8236 35.7854 21.2741 35.173 21.5786 34.486C21.6224 34.362 21.6563 34.2346 21.6801 34.1052C21.753 33.6713 21.7031 33.2258 21.5362 32.8187C21.0795 31.8565 20.275 31.1034 19.2848 30.7111C19.2001 30.6773 18.7008 30.5079 18.1506 30.3471C17.4143 30.1355 16.5764 29.9409 16.4663 30.0933C16.8639 29.3713 17.4449 28.7669 18.1506 28.3412C19.4009 27.6059 20.8574 27.2998 22.298 27.4695C22.3256 27.4625 22.3541 27.4596 22.3826 27.4611H23.7114C23.4529 26.3523 23.3702 25.2099 23.466 24.0755C23.5683 21.1329 25.5046 18.5703 28.3074 17.6683C28.4767 17.6087 28.6491 17.5577 28.8237 17.5159C29.7629 17.2904 30.7359 17.2417 31.693 17.372C32.224 17.4259 32.7502 17.5193 33.2673 17.6513C33.4112 17.6852 35.1378 18.3284 35.2309 18.3284C33.3942 19.9197 33.3519 22.0864 34.1221 24.0754C34.6175 25.3074 35.3478 26.4314 36.272 27.3848L36.3481 27.461C37.059 28.2058 37.7785 28.9506 38.4641 29.7209C39.6154 30.9698 40.6312 32.3373 41.4942 33.8005C42.2928 35.2564 42.8529 36.8309 43.1531 38.4641C43.3268 39.4584 43.4455 40.4615 43.5086 41.4688C43.5495 42.0886 43.5524 42.7105 43.5171 43.3307Z" fill="#EF5261"/>
<path d="M35.2986 53.7499H35.2901C33.7601 54.2788 32.1523 54.5477 30.5334 54.5455C30.0103 54.5473 29.4875 54.519 28.9676 54.4608V54.427C25.9967 53.0897 22.8312 50.7198 22.7974 47.5797C22.7955 47.0709 22.8755 46.565 23.0344 46.0816C23.3774 45.0414 24.0084 44.1197 24.8541 43.4238C25.8105 42.6198 26.9786 42.0442 27.935 41.2317C28.0619 41.1217 28.1889 41.0117 28.3074 40.9016C29.0519 40.2361 29.5871 39.3687 29.8478 38.4048C30.0507 37.3084 30.1104 36.1902 30.0255 35.0785C30.0171 34.8839 30.0171 34.6977 30.0171 34.5029C30.0171 34.5706 30.508 34.8499 30.5588 34.8923C30.635 34.9516 30.7112 35.0108 30.7873 35.0785C31.158 35.3675 31.506 35.6844 31.8284 36.0265C33.0233 37.2205 33.7706 38.7897 33.9444 40.4701C34.0798 42.2475 33.1319 43.8303 32.1416 45.3369C33.9444 46.6234 37.3131 45.7177 37.3131 43.5594C37.3131 43.7372 37.7448 44.1688 37.8379 44.3296C38.1634 44.8809 38.4219 45.4691 38.6081 46.0817C38.6496 46.1891 38.6836 46.2995 38.7096 46.4118C39.4883 49.4079 37.897 51.9725 35.2986 53.7499Z" fill="#FEDB41"/>
<path d="M35.2909 53.75C35.2823 53.7586 35.265 53.7673 35.2563 53.7759L35.2909 53.75Z" fill="#FEDB41"/>
</g>
<defs>
<clipPath id="clip0">
<rect width="49.0909" height="49.0909" fill="white" transform="translate(5.45459 5.45459)"/>
</clipPath>
</defs>
</svg>
