<svg width="60" height="60" viewBox="0 0 60 60" fill="none" xmlns="http://www.w3.org/2000/svg">
<path d="M35 52L35 48L55 48L55 52L35 52Z" fill="#CDD1E4"/>
<path d="M5 52L5 48L25 48L25 52L5 52Z" fill="#CDD1E4"/>
<path d="M28 40L32 40L32 45L28 45L28 40Z" fill="#CDD1E4"/>
<path d="M26.8598 45L33.1402 45C34.1674 45 35 45.8327 35 46.8598L35 53.1402C35 54.1674 34.1674 55 33.1402 55L26.8598 55C25.8326 55 25 54.1674 25 53.1402L25 46.8598C25 45.8326 25.8326 45 26.8598 45Z" fill="#575B6D"/>
<path d="M47.2915 17.9951L45.5405 17.2045L41.4907 11.1642L41.5844 9.22657C38.4533 6.58971 34.4112 5 29.9973 5C20.4134 4.99991 12.5802 12.4902 12.0293 21.9357L12.6131 22.2024V24.7394L12.1429 25.2959C12.4598 27.7823 13.2838 30.1103 14.5081 32.1731C14.5444 32.1828 15.6478 32.4799 15.7957 32.539C15.9461 32.5991 19.8559 35.337 19.8559 35.337V37.8723C22.7439 39.8455 26.2355 41 29.9972 41C39.9384 41 47.9973 32.941 47.9973 22.9999C47.9973 21.2632 47.7506 19.5841 47.2915 17.9951Z" fill="#74B7F3"/>
<path d="M47.2974 17.9965H36.8652C35.9939 17.9965 35.2881 17.2908 35.2881 16.4195C35.2881 15.9838 35.465 15.5891 35.7499 15.3042C36.0348 15.0193 36.4295 14.8424 36.8652 14.8424H39.2003C39.9226 14.8424 40.5081 14.2569 40.5081 13.5345C40.5081 13.1738 40.3617 12.8471 40.1256 12.6109C39.8895 12.3739 39.5619 12.2276 39.2012 12.2276H38.9345C38.1059 12.2276 37.4341 11.5558 37.4341 10.7272C37.4341 10.3124 37.6023 9.93776 37.8733 9.66591C38.1451 9.39406 38.5198 9.22589 38.9345 9.22589H41.5894C44.2905 11.4835 46.2971 14.5226 47.2974 17.9965Z" fill="#C3E87D"/>
<path d="M26.4821 34.677C27.3734 34.677 28.0966 35.3993 28.0966 36.2915C28.0966 36.7376 27.9154 37.141 27.6235 37.4329C27.3316 37.7257 26.9273 37.906 26.4821 37.906L19.8603 37.8744C17.6253 36.401 15.8935 34.4713 14.5107 32.1737H22.4827C23.7366 32.1737 24.7525 33.1896 24.7525 34.4426C24.7525 34.5071 24.7787 34.5663 24.8205 34.6081C24.8632 34.6508 24.9215 34.677 24.986 34.677H26.4821Z" fill="#C3E87D"/>
<path d="M23.0563 21.9358C23.9929 21.9358 24.7527 22.6955 24.7527 23.6322C24.7527 24.101 24.5628 24.5253 24.2561 24.832C23.9485 25.1387 23.5242 25.3287 23.0563 25.3287H12.3923L12.1452 25.2971C12.0425 24.5217 12 23.8039 12 23.0006C12 22.6573 12.011 22.2738 12.031 21.9358H12.3924H23.0563Z" fill="#C3E87D"/>
<path d="M30.8411 26.8685C29.9268 26.8685 29.1855 27.6097 29.1855 28.5241C29.1855 29.4384 29.9268 30.1796 30.8411 30.1796H39.5922C40.5066 30.1796 41.2478 29.4384 41.2478 28.5241C41.2478 27.6097 40.5066 26.8685 39.5922 26.8685H30.8411Z" fill="#C3E87D"/>
</svg>
