<svg width="60" height="60" viewBox="0 0 60 60" fill="none" xmlns="http://www.w3.org/2000/svg">
<path d="M36.9704 20.0624H28.4309L28.099 19.126C26.7582 15.3441 23.1693 14.6781 22.875 14.5064V6L24.561 6.34228C30.6588 7.57998 35.3955 12.3037 36.6282 18.3764L36.9704 20.0624Z" fill="#178CF9"/>
<path d="M14.4385 21.4695C14.4385 15.9121 20.0295 14.5315 20.0635 14.5073V6.00085L18.3775 6.34314C11.2127 7.79739 6.00098 14.0952 6.00098 21.4695C6.00098 25.7343 7.73583 29.6015 10.5368 32.4025L15.7979 31.1258L16.5003 26.439C15.227 25.1659 14.4385 23.408 14.4385 21.4695Z" fill="#EF5261"/>
<path d="M36.9709 22.8748L36.6287 24.5604C35.1897 31.648 28.9196 36.9374 21.4693 36.9374C17.2046 36.9374 13.3374 35.203 10.5361 32.4017L16.4996 26.4383C17.7727 27.7114 19.5305 28.4998 21.4693 28.4998C27.159 28.4998 28.3178 23.0351 28.4312 22.8748H36.9709Z" fill="#00D69B"/>
<path d="M36.9704 22.8748L36.6282 24.5604C35.1891 31.648 28.9191 36.9374 21.4688 36.9374V28.4998C27.1585 28.4998 28.3172 23.0351 28.4307 22.8748H36.9704Z" fill="#FEDB41"/>
<path d="M42.6562 28.6874H51.0938V52.5937H42.6562V28.6874Z" fill="#FEDB41"/>
<path d="M31.4062 42.7499H39.8438V52.5937H31.4062V42.7499Z" fill="#178CF9"/>
<path d="M20.1562 39.9374H28.5938V52.5937H20.1562V39.9374Z" fill="#00D69B"/>
<path d="M8.90625 45.5624H17.3438V52.5937H8.90625V45.5624Z" fill="#EF5261"/>
<path d="M6 51.1874H54.0002V54H6V51.1874Z" fill="#9EBECC"/>
<path d="M30 51.1874H54.0001V54H30V51.1874Z" fill="#86AEBC"/>
</svg>
