<svg width="60" height="60" viewBox="0 0 60 60" fill="none" xmlns="http://www.w3.org/2000/svg">
<path d="M21.0485 53.8637C19.905 53.8637 18.8249 53.3407 18.0943 52.3927L6.97614 38.1726C6.24551 37.2246 5.95962 36.0151 6.24551 34.8382L10.2163 17.0876C10.4704 15.9108 11.2328 14.9628 12.2811 14.4397L28.3548 6.52875C28.863 6.26723 29.4348 6.13647 30.0066 6.13647C30.5784 6.13647 31.1502 6.26723 31.6584 6.52875L47.7321 14.407C48.7804 14.9301 49.5428 15.8781 49.7969 17.0549L53.7677 34.8055C54.0218 35.9824 53.7677 37.1919 53.0371 38.1399L41.9189 52.36C41.1883 53.2753 40.1082 53.8311 38.9647 53.8311L21.0485 53.8637Z" fill="#178CF9"/>
<path d="M46.1171 33.5698C46.0851 33.5698 46.0851 33.5698 46.1171 33.5698H46.0851C46.0532 33.5698 46.0212 33.5698 46.0212 33.5382C45.9572 33.5382 45.8932 33.5066 45.8292 33.5066C45.6052 33.475 45.4132 33.4434 45.2213 33.4434C45.1253 33.4434 45.0293 33.4434 44.9013 33.4118H44.8693C44.1974 33.3487 43.6535 33.2855 43.1416 33.1275C42.9176 33.0328 42.8536 32.9064 42.7896 32.78C42.7896 32.7484 42.7576 32.7484 42.7576 32.7169L42.3417 32.5905C42.5336 31.1374 42.4697 29.621 42.1177 28.1363C41.7658 26.6516 41.1578 25.2616 40.326 23.998L40.6459 23.7137V23.6505C40.6459 23.4926 40.6779 23.3346 40.8059 23.1767C41.1898 22.8292 41.6698 22.5449 42.2457 22.1974C42.3417 22.1342 42.4377 22.1026 42.5336 22.0394C42.7256 21.9447 42.8856 21.8499 43.0776 21.7235C43.1096 21.6919 43.1736 21.6603 43.2375 21.5972C43.2695 21.5656 43.3015 21.5656 43.3015 21.534C43.7495 21.1549 43.8455 20.5231 43.5255 20.1124C43.3655 19.8913 43.0776 19.7649 42.7896 19.7649C42.5336 19.7649 42.3097 19.8597 42.0857 20.0177C42.0537 20.0493 42.0537 20.0493 42.0217 20.0808C41.9577 20.1124 41.9257 20.1756 41.8617 20.2072C41.7018 20.3652 41.5738 20.4915 41.4458 20.6495C41.3818 20.7126 41.3178 20.8074 41.2218 20.8706C40.7739 21.3444 40.358 21.7235 39.942 22.0078C39.846 22.071 39.75 22.1026 39.6541 22.1026C39.5901 22.1026 39.5261 22.1026 39.4621 22.071H39.3981L39.0141 22.3237C38.5982 21.8815 38.1503 21.5024 37.7023 21.1233C35.7826 19.6386 33.4469 18.7225 31.0153 18.5013L30.9833 18.0907C30.9513 18.0591 30.9513 18.0591 30.9193 18.0275C30.8233 17.9327 30.6953 17.8379 30.6633 17.6168C30.6313 17.1114 30.6953 16.5428 30.7593 15.911V15.8794C30.7593 15.7846 30.7913 15.6582 30.8233 15.5635C30.8553 15.3739 30.8873 15.1844 30.9193 14.9633V14.7737V14.6789C30.9193 14.1103 30.4713 13.6365 29.9274 13.6365C29.6715 13.6365 29.4155 13.7628 29.2235 13.9524C29.0316 14.1419 28.9356 14.3946 28.9356 14.6789V14.7421V14.9317C28.9356 15.1528 28.9676 15.3423 29.0316 15.5319C29.0635 15.6266 29.0635 15.7214 29.0955 15.8478V15.8794C29.1595 16.5112 29.2555 17.0798 29.1915 17.5852C29.1595 17.8064 29.0316 17.9011 28.9356 17.9959C28.9036 18.0275 28.9036 18.0275 28.8716 18.0591L28.8396 18.4697C28.2637 18.5329 27.6877 18.5961 27.1118 18.7225C24.6482 19.2595 22.4725 20.4915 20.7767 22.2606L20.4568 22.0394H20.3928C20.3288 22.0394 20.2648 22.071 20.2008 22.071C20.1048 22.071 20.0088 22.0394 19.9128 21.9762C19.4969 21.6919 19.081 21.2813 18.633 20.8074C18.569 20.7442 18.505 20.6495 18.409 20.5863C18.2811 20.4283 18.1531 20.302 17.9931 20.144C17.9611 20.1124 17.8971 20.0808 17.8331 20.0177C17.8011 19.9861 17.7691 19.9861 17.7691 19.9545C17.5772 19.7965 17.3212 19.7018 17.0652 19.7018C16.7773 19.7018 16.4893 19.8281 16.3293 20.0493C16.0094 20.4599 16.1054 21.0917 16.5533 21.4708C16.5853 21.4708 16.5853 21.5024 16.6173 21.5024C16.6813 21.534 16.7133 21.5972 16.7773 21.6288C16.9693 21.7551 17.1292 21.8499 17.3212 21.9447C17.4172 21.9762 17.5132 22.0394 17.6092 22.1026C18.1851 22.4501 18.665 22.7344 19.049 23.0819C19.2089 23.2398 19.2089 23.3978 19.2089 23.5557V23.6189L19.5289 23.9032C19.4649 23.998 19.4009 24.0612 19.3689 24.156C17.7691 26.6516 17.1612 29.5894 17.5772 32.4957L17.1612 32.6221C17.1612 32.6537 17.1292 32.6537 17.1292 32.6853C17.0652 32.8116 16.9693 32.938 16.7773 33.0328C16.2973 33.1907 15.7214 33.2539 15.0495 33.3171H15.0175C14.9215 33.3171 14.7936 33.3171 14.6976 33.3487C14.5056 33.3487 14.3136 33.3802 14.0897 33.4118C14.0257 33.4118 13.9617 33.4434 13.8977 33.4434C13.8657 33.4434 13.8337 33.4434 13.8017 33.475C13.2258 33.6014 12.8738 34.1384 12.9698 34.6438C13.0658 35.0861 13.4817 35.3704 13.9937 35.3704C14.0897 35.3704 14.1536 35.3704 14.2496 35.3388C14.2816 35.3388 14.3136 35.3388 14.3136 35.3072C14.3776 35.3072 14.4416 35.2756 14.5056 35.2756C14.7296 35.2125 14.8895 35.1493 15.0815 35.0545C15.1775 35.0229 15.2735 34.9597 15.3695 34.9282H15.4015C16.0094 34.707 16.5533 34.5175 17.0652 34.4543H17.1292C17.3212 34.4543 17.4492 34.5491 17.5452 34.6123C17.5772 34.6123 17.5772 34.6438 17.6092 34.6438L18.0571 34.5807C18.825 36.9183 20.2968 39.0033 22.2485 40.5196C22.6964 40.8671 23.1444 41.1514 23.6243 41.4357L23.4323 41.8464C23.4323 41.878 23.4643 41.878 23.4643 41.9096C23.5283 42.0359 23.5923 42.1939 23.5283 42.415C23.3364 42.8888 23.0484 43.3627 22.6964 43.8997V43.9313C22.6325 44.0261 22.5685 44.0893 22.5045 44.184C22.3765 44.342 22.2805 44.4999 22.1525 44.6895C22.1205 44.7211 22.0885 44.7842 22.0565 44.8474C22.0565 44.879 22.0245 44.9106 22.0245 44.9106C21.7686 45.4476 21.9605 46.0478 22.4405 46.269C22.5685 46.3322 22.6964 46.3637 22.8244 46.3637C23.2084 46.3637 23.5923 46.111 23.7843 45.7635C23.7843 45.7319 23.8163 45.7004 23.8163 45.7004C23.8483 45.6372 23.8803 45.574 23.9123 45.5424C24.0083 45.3213 24.0403 45.1633 24.1042 44.9738C24.1362 44.879 24.1682 44.7842 24.2002 44.6895C24.4242 44.0577 24.5842 43.5522 24.8721 43.11C25.0001 42.9204 25.1601 42.8888 25.2881 42.8257C25.3201 42.8257 25.3201 42.8257 25.3521 42.7941L25.576 42.3834C26.9838 42.9204 28.5196 43.2047 30.0554 43.2047C30.9833 43.2047 31.9431 43.11 32.839 42.8888C33.4149 42.7625 33.9589 42.6045 34.5028 42.415L34.6948 42.7625C34.7268 42.7625 34.7267 42.7625 34.7587 42.7941C34.9187 42.8257 35.0467 42.8888 35.1747 43.0784C35.4307 43.5206 35.6226 44.0577 35.8466 44.6579V44.6895C35.8786 44.7842 35.9106 44.879 35.9426 44.9738C36.0066 45.1633 36.0386 45.3529 36.1346 45.5424C36.1665 45.6056 36.1985 45.6372 36.2305 45.7004C36.2305 45.7319 36.2625 45.7635 36.2625 45.7635C36.4545 46.1426 36.8384 46.3637 37.2224 46.3637C37.3504 46.3637 37.4784 46.3322 37.6063 46.269C37.8303 46.1426 38.0223 45.9531 38.0863 45.7004C38.1503 45.4476 38.1503 45.1633 38.0223 44.9106C38.0223 44.879 37.9903 44.879 37.9903 44.8474C37.9583 44.7842 37.9263 44.7211 37.8943 44.6895C37.7983 44.4999 37.6703 44.342 37.5424 44.184C37.4784 44.0893 37.4144 44.0261 37.3504 43.9313V43.8997C36.9984 43.3627 36.6785 42.8888 36.5185 42.415C36.4545 42.1939 36.5185 42.0675 36.5505 41.9096C36.5505 41.878 36.5825 41.878 36.5825 41.8464L36.4225 41.4673C38.1183 40.488 39.5581 39.098 40.6459 37.3922C41.2218 36.5077 41.6698 35.5284 41.9897 34.5491L42.3737 34.6123C42.4057 34.6123 42.4057 34.5807 42.4377 34.5807C42.5656 34.5175 42.6616 34.4227 42.8536 34.4227H42.9176C43.4295 34.4859 43.9734 34.6754 44.5814 34.8966H44.6134C44.7093 34.9282 44.8053 34.9913 44.9013 35.0229C45.0933 35.1177 45.2533 35.1809 45.4772 35.2441C45.5412 35.2441 45.6052 35.2756 45.6692 35.2756C45.7012 35.2756 45.7332 35.2756 45.7652 35.3072C45.8612 35.3388 45.9252 35.3388 46.0212 35.3388C46.5011 35.3388 46.917 35.0229 47.045 34.6123C47.045 34.2332 46.6931 33.7277 46.1171 33.5698ZM31.3032 32.0219L29.8954 32.6853L28.4876 32.0219L28.1357 30.5371L29.0955 29.3367H30.6633L31.6232 30.5371L31.3032 32.0219ZM39.6541 28.7365C39.91 29.8106 39.974 30.8846 39.878 31.9271L34.9827 30.5371C34.5348 30.4108 34.2788 29.9685 34.3748 29.5263C34.4068 29.3999 34.4708 29.2735 34.5668 29.1788L38.4382 25.7355C38.9821 26.62 39.3981 27.6309 39.6541 28.7365ZM36.9024 23.8401L32.711 26.7779C32.3591 26.9991 31.8792 26.9359 31.5912 26.5884C31.4952 26.4936 31.4632 26.3673 31.4312 26.2409L31.1433 21.0917C33.3509 21.3444 35.3667 22.3237 36.9024 23.8401ZM27.6238 21.2497C27.9757 21.1865 28.2957 21.1233 28.6476 21.0601L28.3596 26.1145C28.3277 26.5568 27.9757 26.9359 27.4958 26.9359C27.3678 26.9359 27.2078 26.9043 27.1118 26.8411L22.8564 23.8401C24.1682 22.5449 25.8 21.6603 27.6238 21.2497ZM21.3206 25.7355L25.1281 29.084C25.4801 29.3683 25.512 29.9053 25.2241 30.2528C25.1281 30.3792 25.0001 30.474 24.8401 30.5056L19.8808 31.9271C19.6889 29.779 20.1688 27.5993 21.3206 25.7355ZM20.4568 34.2964L25.544 33.4434C25.96 33.4118 26.3439 33.6961 26.4399 34.1068C26.4719 34.2964 26.4719 34.4543 26.4079 34.6123L24.4562 39.256C22.6644 38.1187 21.2247 36.3813 20.4568 34.2964ZM32.1351 40.5828C31.3992 40.7407 30.6633 40.8355 29.8954 40.8355C28.7756 40.8355 27.6877 40.646 26.6639 40.33L29.1915 35.8127C29.4475 35.5284 29.8634 35.402 30.2154 35.5915C30.3754 35.6863 30.5033 35.8127 30.5993 35.939L33.063 40.33C32.775 40.4248 32.4551 40.488 32.1351 40.5828ZM38.3742 36.1918C37.5743 37.4554 36.5185 38.4662 35.3027 39.256L33.287 34.4859C33.191 34.1068 33.3509 33.6961 33.7349 33.5066C33.8629 33.4434 34.0228 33.4118 34.1828 33.4118L39.3021 34.2648C39.1101 34.9597 38.7902 35.5915 38.3742 36.1918Z" fill="white"/>
</svg>
