<svg width="60" height="60" viewBox="0 0 60 60" fill="none" xmlns="http://www.w3.org/2000/svg">
<path d="M20.6182 14L20.6182 16L11.9997 16L11.9997 14L20.6182 14Z" fill="#CDD1E4"/>
<path d="M8 14C8 13.4477 8.44772 13 9 13C9.55229 13 10 13.4477 10 14L10 53C10 53.5523 9.55228 54 9 54C8.44771 54 7.99999 53.5523 7.99999 53L8 14Z" fill="#CDD1E4"/>
<path d="M20.6182 29L20.6182 31L11.9997 31L11.9997 29L20.6182 29Z" fill="#CDD1E4"/>
<path d="M20.6182 44L20.6182 46L11.9997 46L11.9997 44L20.6182 44Z" fill="#CDD1E4"/>
<path d="M12 13.1159L12 16.8841C12 17.5004 11.5004 18 10.8841 18L7.11588 18C6.49959 18 6 17.5004 6 16.8841L6 13.1159C6 12.4996 6.49959 12 7.11588 12L10.8841 12C11.5004 12 12 12.4996 12 13.1159Z" fill="#575B6D"/>
<path d="M12 28.1159L12 31.8841C12 32.5004 11.5004 33 10.8841 33L7.11588 33C6.49959 33 6 32.5004 6 31.8841L6 28.1159C6 27.4996 6.49959 27 7.11588 27L10.8841 27C11.5004 27 12 27.4996 12 28.1159Z" fill="#575B6D"/>
<path d="M12 43.1159L12 46.8841C12 47.5004 11.5004 48 10.8841 48L7.11588 48C6.49959 48 6 47.5004 6 46.8841L6 43.1159C6 42.4996 6.49959 42 7.11588 42L10.8841 42C11.5004 42 12 42.4996 12 43.1159Z" fill="#575B6D"/>
<path d="M19.8805 10H53.1195C53.6058 10 54 10.4368 54 10.9756V19.0244C54 19.5632 53.6058 20 53.1195 20H19.8805C19.3942 20 19 19.5632 19 19.0244V10.9756C18.9999 10.4368 19.3942 10 19.8805 10V10Z" fill="#71768E"/>
<path d="M34 10H19.8805C19.3942 10 18.9999 10.4368 19 10.9756V19.0244C19 19.5632 19.3942 20 19.8805 20H34V10Z" fill="#444755"/>
<path d="M51 12H52V18H51V12Z" fill="#414451"/>
<path d="M48 12H49V18H48V12Z" fill="#414451"/>
<path d="M45 12H46V18H45V12Z" fill="#414451"/>
<path d="M42 12H43V18H42V12Z" fill="#414451"/>
<path d="M39 12H40V18H39V12Z" fill="#414451"/>
<path d="M36 12H37V18H36V12Z" fill="#414451"/>
<path d="M24 16C24.5523 16 25 15.5523 25 15C25 14.4477 24.5523 14 24 14C23.4477 14 23 14.4477 23 15C23 15.5523 23.4477 16 24 16Z" fill="#2CBFAE"/>
<path d="M29 16C29.5523 16 30 15.5523 30 15C30 14.4477 29.5523 14 29 14C28.4477 14 28 14.4477 28 15C28 15.5523 28.4477 16 29 16Z" fill="#EF5261"/>
<path d="M19.8805 25H53.1195C53.6058 25 54 25.4368 54 25.9756V34.0244C54 34.5632 53.6058 35 53.1195 35H19.8805C19.3942 35 19 34.5632 19 34.0244V25.9756C18.9999 25.4368 19.3942 25 19.8805 25V25Z" fill="#71768E"/>
<path d="M34 25H19.8805C19.3942 25 18.9999 25.4368 19 25.9756V34.0244C19 34.5632 19.3942 35 19.8805 35H34V25Z" fill="#444755"/>
<path d="M24 31C24.5523 31 25 30.5523 25 30C25 29.4477 24.5523 29 24 29C23.4477 29 23 29.4477 23 30C23 30.5523 23.4477 31 24 31Z" fill="#2CBFAE"/>
<path d="M29 31C29.5523 31 30 30.5523 30 30C30 29.4477 29.5523 29 29 29C28.4477 29 28 29.4477 28 30C28 30.5523 28.4477 31 29 31Z" fill="#EF5261"/>
<path d="M36 25H53.1195C53.6058 25 54.0001 25.4368 54 25.9756V34.0244C54 34.5632 53.6058 35 53.1195 35H36V25Z" fill="#71768E"/>
<path d="M51 27H52V33H51V27Z" fill="#414451"/>
<path d="M48 27H49V33H48V27Z" fill="#414451"/>
<path d="M45 27H46V33H45V27Z" fill="#414451"/>
<path d="M42 27H43V33H42V27Z" fill="#414451"/>
<path d="M39 27H40V33H39V27Z" fill="#414451"/>
<path d="M36 27H37V33H36V27Z" fill="#414451"/>
<path d="M19.8805 40H53.1195C53.6058 40 54 40.4368 54 40.9756V49.0244C54 49.5632 53.6058 50 53.1195 50H19.8805C19.3942 50 19 49.5632 19 49.0244V40.9756C18.9999 40.4368 19.3942 40 19.8805 40V40Z" fill="#71768E"/>
<path d="M34 40H19.8805C19.3942 40 18.9999 40.4368 19 40.9756V49.0244C19 49.5632 19.3942 50 19.8805 50H34V40Z" fill="#444755"/>
<path d="M24 46C24.5523 46 25 45.5523 25 45C25 44.4477 24.5523 44 24 44C23.4477 44 23 44.4477 23 45C23 45.5523 23.4477 46 24 46Z" fill="#2CBFAE"/>
<path d="M29 46C29.5523 46 30 45.5523 30 45C30 44.4477 29.5523 44 29 44C28.4477 44 28 44.4477 28 45C28 45.5523 28.4477 46 29 46Z" fill="#EF5261"/>
<path d="M36 40H53.1195C53.6058 40 54.0001 40.4368 54 40.9756V49.0244C54 49.5632 53.6058 50 53.1195 50H36V40Z" fill="#71768E"/>
<path d="M51 42H52V48H51V42Z" fill="#414451"/>
<path d="M48 42H49V48H48V42Z" fill="#414451"/>
<path d="M45 42H46V48H45V42Z" fill="#414451"/>
<path d="M42 42H43V48H42V42Z" fill="#414451"/>
<path d="M39 42H40V48H39V42Z" fill="#414451"/>
<path d="M36 42H37V48H36V42Z" fill="#414451"/>
</svg>
