<svg width="32" height="32" viewBox="0 0 32 32" fill="none" xmlns="http://www.w3.org/2000/svg">
<path fill-rule="evenodd" clip-rule="evenodd" d="M2 0C0.895431 0 0 0.895431 0 2V30C0 31.1046 0.895431 32 2 32H30C31.1046 32 32 31.1046 32 30V2C32 0.89543 31.1046 0 30 0H2Z" fill="#178CF9"/>
<path fill-rule="evenodd" clip-rule="evenodd" d="M16 8.88892C9.2121 8.88892 5.33331 16 5.33331 16C5.33331 16 9.2121 23.1111 16 23.1111C22.7879 23.1111 26.6666 16 26.6666 16C26.6666 16 22.7879 8.88892 16 8.88892ZM19.5554 16C19.5554 17.9637 17.9635 19.5556 15.9999 19.5556C14.0362 19.5556 12.4443 17.9637 12.4443 16C12.4443 14.0363 14.0362 12.4445 15.9999 12.4445C17.9635 12.4445 19.5554 14.0363 19.5554 16Z" fill="#F2F7FC"/>
</svg>
