<svg width="42" height="42" viewBox="0 0 42 42" fill="none" xmlns="http://www.w3.org/2000/svg">
<path d="M6.92562 30.2381C5.9669 30.3558 5.07498 30.7908 4.39155 31.4739C2.6973 33.1755 2.5373 39.4761 2.5373 39.4761C2.5373 39.4761 8.83763 39.316 10.5319 37.6158C11.2159 36.9332 11.6504 36.0401 11.7654 35.0803M40.7894 1.54121C40.7729 1.46235 40.7343 1.38982 40.6781 1.33215C40.6219 1.27448 40.5504 1.23406 40.472 1.21565C35.2426 -0.0640181 23.1644 4.49654 16.6125 11.049C15.445 12.2083 14.3805 13.467 13.4311 14.811C11.4819 14.5694 9.50331 14.8174 7.67383 15.5325C2.81813 17.6686 1.40537 23.2484 1.01169 25.6436C0.989877 25.7749 0.998677 25.9094 1.0374 26.0368C1.07612 26.1641 1.14372 26.2807 1.23491 26.3776C1.3261 26.4745 1.43843 26.5489 1.56312 26.5952C1.68782 26.6414 1.8215 26.6582 1.95375 26.6442L9.74849 25.7871C9.7538 26.3757 9.78903 26.9635 9.85404 27.5485C9.89464 27.9529 10.075 28.3306 10.3639 28.6162L13.3826 31.6393C13.6681 31.9285 14.0454 32.109 14.4495 32.1496C15.0305 32.2144 15.6143 32.2496 16.1988 32.2552L15.3431 40.0468C15.3293 40.1791 15.3463 40.3127 15.3926 40.4374C15.4389 40.562 15.5133 40.6742 15.6101 40.7653C15.7069 40.8564 15.8233 40.924 15.9504 40.9626C16.0775 41.0013 16.2119 41.0101 16.3429 40.9883C18.7376 40.6036 24.3242 39.1897 26.4467 34.3315C27.1588 32.5063 27.4097 30.5332 27.1769 28.5876C28.5236 27.6381 29.7847 26.5725 30.9458 25.4031C37.521 18.8592 42.0488 7.03594 40.7894 1.54121ZM25.1023 16.9271C24.4319 16.2552 24.0151 15.3714 23.9228 14.4264C23.8304 13.4814 24.0683 12.5336 24.5959 11.7444C25.1235 10.9552 25.9081 10.3735 26.8162 10.0983C27.7242 9.82315 28.6995 9.87154 29.5759 10.2353C30.4523 10.599 31.1756 11.2555 31.6226 12.0931C32.0696 12.9306 32.2126 13.8973 32.0274 14.8286C31.8421 15.7598 31.3399 16.5979 30.6065 17.2002C29.873 17.8025 28.9536 18.1317 28.0048 18.1317C26.916 18.1313 25.8719 17.698 25.1023 16.9271Z" stroke="#178CF9" stroke-width="2" stroke-linecap="round" stroke-linejoin="round"/>
</svg>
