<svg width="61" height="60" viewBox="0 0 61 60" fill="none" xmlns="http://www.w3.org/2000/svg">
<path d="M29.9214 55.9109L30.3335 56.0973L30.7456 55.9109C43.3906 50.192 51.3335 37.3911 51.3335 23.5064V13.5241V12.8632L50.7256 12.6041L30.7256 4.07983L30.3335 3.91271L29.9414 4.07983L9.94141 12.6041L9.3335 12.8632V13.5241V23.5064C9.3335 37.7693 17.6152 50.3451 29.9214 55.9109Z" stroke="#178CF9" stroke-width="2"/>
<path d="M30.0721 49.9036L30.5005 50.1067L30.9289 49.9036C40.2066 45.505 46.0005 35.682 46.0005 25.0651V17.4785V16.83L45.4084 16.5655L30.9084 10.087L30.5005 9.90473L30.0926 10.087L15.5926 16.5655L15.0005 16.83V17.4785V25.0651C15.0005 35.9722 21.0424 45.6225 30.0721 49.9036Z" stroke="#178CF9" stroke-width="2"/>
<path d="M39.0005 24L28.0005 35L23.0005 30" stroke="#178CF9" stroke-width="2" stroke-linecap="round" stroke-linejoin="round"/>
</svg>
