<svg width="61" height="60" viewBox="0 0 61 60" fill="none" xmlns="http://www.w3.org/2000/svg">
<path d="M16.836 36.3439C16.836 39.1337 14.5719 41.3885 11.7706 41.3885C8.96919 41.3885 6.70508 39.1337 6.70508 36.3439C6.70508 33.5541 8.96919 31.2993 11.7706 31.2993H16.836V36.3439ZM19.3688 36.3439C19.3688 33.5541 21.6329 31.2993 24.4342 31.2993C27.2356 31.2993 29.4997 33.5541 29.4997 36.3439V48.9554C29.4997 51.7452 27.2356 53.9999 24.4342 53.9999C21.6329 53.9999 19.3688 51.7452 19.3688 48.9554V36.3439Z" fill="#E01E5A"/>
<path d="M24.434 16.0892C21.6327 16.0892 19.3686 13.8344 19.3686 11.0446C19.3686 8.25478 21.6327 6 24.434 6C27.2354 6 29.4995 8.25478 29.4995 11.0446V16.0892H24.434ZM24.434 18.6497C27.2354 18.6497 29.4995 20.9044 29.4995 23.6943C29.4995 26.4841 27.2354 28.7388 24.434 28.7388H11.732C8.93062 28.7388 6.6665 26.4841 6.6665 23.6943C6.6665 20.9044 8.93062 18.6497 11.732 18.6497H24.434Z" fill="#36C5F0"/>
<path d="M44.7345 23.6943C44.7345 20.9044 46.9986 18.6497 49.8 18.6497C52.6013 18.6497 54.8654 20.9044 54.8654 23.6943C54.8654 26.4841 52.6013 28.7388 49.8 28.7388H44.7345V23.6943ZM42.2018 23.6943C42.2018 26.4841 39.9376 28.7388 37.1363 28.7388C34.3349 28.7388 32.0708 26.4841 32.0708 23.6943V11.0446C32.0708 8.25478 34.3349 6 37.1363 6C39.9376 6 42.2018 8.25478 42.2018 11.0446V23.6943Z" fill="#2EB67D"/>
<path d="M37.1363 43.9108C39.9376 43.9108 42.2017 46.1655 42.2017 48.9554C42.2017 51.7452 39.9376 53.9999 37.1363 53.9999C34.3349 53.9999 32.0708 51.7452 32.0708 48.9554V43.9108H37.1363ZM37.1363 41.3885C34.3349 41.3885 32.0708 39.1337 32.0708 36.3439C32.0708 33.5541 34.3349 31.2993 37.1363 31.2993H49.8383C52.6397 31.2993 54.9038 33.5541 54.9038 36.3439C54.9038 39.1337 52.6397 41.3885 49.8383 41.3885H37.1363Z" fill="#ECB22E"/>
</svg>
