<svg width="60" height="60" viewBox="0 0 60 60" fill="none" xmlns="http://www.w3.org/2000/svg">
<path d="M11.3321 12.4886C10.8572 12.6119 10.4476 12.9129 10.1932 13.3404C10.1932 13.3404 10.1932 13.3404 10.1932 13.3404L5.25798 21.637L5.25797 21.637C5.00281 22.066 4.933 22.5751 5.06611 23.0578L5.06623 23.0582C5.19936 23.5401 5.51861 23.9385 5.94845 24.1793C5.94845 24.1793 5.94846 24.1793 5.94847 24.1793L8.08344 25.3757C7.73828 26.9226 7.56233 28.4772 7.56233 30C7.56233 31.5444 7.73512 33.1004 8.07556 34.6286L5.94844 35.8206L5.94827 35.8207C5.05345 36.3223 4.7221 37.462 5.25794 38.3629L5.25798 38.363L10.1932 46.6594C10.1932 46.6594 10.1932 46.6595 10.1932 46.6595C10.7184 47.5424 11.8569 47.8231 12.7352 47.3312L12.7353 47.3311L14.8954 46.1208C17.2806 48.2324 20.1407 49.84 23.1907 50.7837V53.1518C23.1907 54.1997 24.0588 55 25.0646 55H34.9351C35.941 55 36.8091 54.1997 36.8091 53.1518V50.7836C39.8429 49.8445 42.6992 48.2344 45.0939 46.1148L47.2643 47.331C48.1427 47.8234 49.2815 47.5424 49.8066 46.6593L54.7417 38.3631C55.2778 37.4621 54.9465 36.3224 54.0518 35.8207L54.0515 35.8206L51.9165 34.6242C52.2617 33.0773 52.4376 31.5228 52.4376 30C52.4376 28.4553 52.2648 26.8994 51.9244 25.3713L54.0515 24.1793C54.0515 24.1793 54.0515 24.1793 54.0515 24.1793C54.4813 23.9385 54.8006 23.5401 54.9337 23.0582C55.0672 22.5749 54.997 22.0657 54.742 21.637L54.742 21.637L49.8067 13.3404L49.8065 13.3401C49.5521 12.9127 49.1426 12.6121 48.6685 12.4887C48.1943 12.3653 47.6933 12.4287 47.2647 12.6687L47.2645 12.6688L45.1045 13.8792C42.7191 11.7675 39.859 10.1599 36.8092 9.21627V6.84823C36.8092 5.80028 35.9411 5 34.9352 5H25.0647C24.0589 5 23.1908 5.80028 23.1908 6.84823V9.21625C20.1569 10.1554 17.3007 11.7655 14.906 13.8851L12.7354 12.6688L12.7354 12.6688C12.307 12.4287 11.806 12.3654 11.3321 12.4886ZM11.3321 12.4886L11.5834 13.4565M11.3321 12.4886C11.3319 12.4886 11.3317 12.4887 11.3315 12.4887L11.5834 13.4565M11.5834 13.4565C11.3578 13.515 11.1694 13.6555 11.0527 13.8516L12.2466 13.5412C12.0445 13.4279 11.8088 13.3978 11.5834 13.4565ZM15.0272 46.0469C15.027 46.047 15.0269 46.0471 15.0267 46.0472L15.0271 46.047L15.0272 46.0469ZM44.9621 46.041L44.9632 46.0416C44.9628 46.0413 44.9624 46.0411 44.962 46.0409L44.9621 46.041ZM51.8801 25.1766C51.8802 25.1771 51.8803 25.1776 51.8804 25.1781C51.8803 25.1776 51.8802 25.1771 51.8801 25.1766L51.8801 25.1766ZM45.2205 13.9826C45.2199 13.9821 45.2193 13.9816 45.2188 13.9811C45.2194 13.9816 45.2199 13.9821 45.2205 13.9826L45.2205 13.9826Z" stroke="#178CF9" stroke-width="2"/>
<path d="M15 30C15 38.2719 21.7281 45 30 45C38.2719 45 45 38.2719 45 30C45 21.7281 38.2719 15 30 15C21.7281 15 15 21.7281 15 30Z" stroke="#178CF9" stroke-width="2"/>
<path d="M32.7402 26H30.0005C29.5952 26 29.2666 26.3286 29.2666 26.7339V32.9961C29.2666 33.4014 29.5952 33.7299 30.0005 33.7299C30.4057 33.7299 30.7343 33.4014 30.7343 32.9961V31.3816H32.7402C34.2239 31.3816 35.431 30.1746 35.431 28.6908C35.431 27.207 34.2239 26 32.7402 26ZM32.7402 29.9139H30.7343V27.4677H32.7402C33.4146 27.4677 33.9633 28.0163 33.9633 28.6908C33.9633 29.3653 33.4146 29.9139 32.7402 29.9139Z" fill="#178CF9"/>
<path d="M25.9907 26.4762C25.8833 26.1898 25.6095 26 25.3036 26H24.5208C24.215 26 23.9411 26.1897 23.8338 26.4762L21.4854 32.7385C21.3431 33.1179 21.5354 33.5409 21.9149 33.6833C22.2943 33.8256 22.7173 33.6333 22.8597 33.2538L23.2681 32.1644H26.5563L26.9648 33.2537C27.0752 33.5483 27.3549 33.7301 27.652 33.7301C27.7376 33.7301 27.8247 33.7151 27.9095 33.6833C28.2889 33.541 28.4813 33.1179 28.3389 32.7385L25.9907 26.4762ZM23.8185 30.6967L24.9122 27.7801L26.006 30.6967H23.8185Z" fill="#178CF9"/>
<path d="M37.0454 26C36.6401 26 36.3115 26.3286 36.3115 26.7339V32.9961C36.3115 33.4014 36.6401 33.7299 37.0454 33.7299C37.4507 33.7299 37.7792 33.4014 37.7792 32.9961V26.7339C37.7792 26.3286 37.4507 26 37.0454 26Z" fill="#178CF9"/>
</svg>
