<svg width="60" height="60" viewBox="0 0 60 60" fill="none" xmlns="http://www.w3.org/2000/svg">
<rect x="17" y="17" width="26" height="25" rx="3" stroke="#178CF9" stroke-width="2"/>
<path d="M51 38L49.8478 38C48.4671 38 47.3478 36.8807 47.3478 35.5V35.5C47.3478 34.1193 46.2285 33 44.8478 33L43 33" stroke="#178CF9" stroke-width="2"/>
<path d="M51 20L49.8478 20C48.4671 20 47.3478 21.1193 47.3478 22.5V22.5C47.3478 23.8807 46.2285 25 44.8478 25L43 25" stroke="#178CF9" stroke-width="2"/>
<path d="M43 29H51" stroke="#178CF9" stroke-width="2"/>
<circle cx="53" cy="38" r="2" transform="rotate(-90 53 38)" stroke="#178CF9" stroke-width="2"/>
<circle cx="53" cy="29" r="2" transform="rotate(-90 53 29)" stroke="#178CF9" stroke-width="2"/>
<circle cx="53" cy="20" r="2" transform="rotate(-90 53 20)" stroke="#178CF9" stroke-width="2"/>
<path d="M9 38L10.1522 38C11.5329 38 12.6522 36.8807 12.6522 35.5V35.5C12.6522 34.1193 13.7715 33 15.1522 33L17 33" stroke="#178CF9" stroke-width="2"/>
<path d="M9 20L10.1522 20C11.5329 20 12.6522 21.1193 12.6522 22.5V22.5C12.6522 23.8807 13.7715 25 15.1522 25L17 25" stroke="#178CF9" stroke-width="2"/>
<path d="M17 29H9" stroke="#178CF9" stroke-width="2"/>
<circle r="2" transform="matrix(-1.19249e-08 -1 -1 1.19249e-08 7 38)" stroke="#178CF9" stroke-width="2"/>
<circle r="2" transform="matrix(-1.19249e-08 -1 -1 1.19249e-08 7 29)" stroke="#178CF9" stroke-width="2"/>
<circle r="2" transform="matrix(-1.19249e-08 -1 -1 1.19249e-08 7 20)" stroke="#178CF9" stroke-width="2"/>
<path d="M20 51V49.8478C20 48.4671 21.1193 47.3478 22.5 47.3478V47.3478C23.8807 47.3478 25 46.2285 25 44.8478V43" stroke="#178CF9" stroke-width="2"/>
<path d="M40 51V49.8478C40 48.4671 38.8807 47.3478 37.5 47.3478V47.3478C36.1193 47.3478 35 46.2285 35 44.8478V43" stroke="#178CF9" stroke-width="2"/>
<path d="M30 43L30 51" stroke="#178CF9" stroke-width="2"/>
<circle cx="20" cy="53" r="2" stroke="#178CF9" stroke-width="2"/>
<circle cx="30.0908" cy="53" r="2" stroke="#178CF9" stroke-width="2"/>
<circle cx="40" cy="53" r="2" stroke="#178CF9" stroke-width="2"/>
<path d="M39 17H40V16V15C40 9.47715 35.5228 5 30 5C24.4772 5 20 9.47715 20 15V16V17H21H39Z" stroke="#178CF9" stroke-width="2"/>
<path d="M35 17H36V16V15C36 11.6863 33.3137 9 30 9C26.6863 9 24 11.6863 24 15V16V17H25H35Z" stroke="#178CF9" stroke-width="2"/>
<mask id="path-22-outside-1" maskUnits="userSpaceOnUse" x="26.0005" y="24.825" width="8" height="12" fill="black">
<rect fill="white" x="26.0005" y="24.825" width="8" height="12"/>
<path fill-rule="evenodd" clip-rule="evenodd" d="M31.0005 30.5574C31.5983 30.2116 32.0005 29.5652 32.0005 28.825C32.0005 27.7204 31.1051 26.825 30.0005 26.825C28.8959 26.825 28.0005 27.7204 28.0005 28.825C28.0005 29.5652 28.4027 30.2116 29.0005 30.5574V33.234C29.0005 33.7863 29.4482 34.234 30.0005 34.234C30.5528 34.234 31.0005 33.7863 31.0005 33.234V30.5574Z"/>
</mask>
<path d="M31.0005 30.5574L29.999 28.8262L29.0005 29.4038V30.5574H31.0005ZM29.0005 30.5574H31.0005V29.4038L30.0019 28.8262L29.0005 30.5574ZM30.0005 28.825C30.0005 28.8282 30.0001 28.8281 30.0007 28.8262C30.0011 28.8246 30.0016 28.8237 30.0017 28.8235C30.0017 28.8235 30.0013 28.8241 30.0005 28.825C29.9996 28.8259 29.999 28.8262 29.999 28.8262L32.0019 32.2886C33.1923 31.6 34.0005 30.308 34.0005 28.825H30.0005ZM30.0005 28.825H34.0005C34.0005 26.6158 32.2096 24.825 30.0005 24.825V28.825ZM30.0005 28.825V24.825C27.7913 24.825 26.0005 26.6158 26.0005 28.825H30.0005ZM30.0019 28.8262C30.002 28.8262 30.0014 28.8259 30.0005 28.825C29.9996 28.8241 29.9993 28.8235 29.9993 28.8235C29.9994 28.8237 29.9999 28.8246 30.0003 28.8262C30.0008 28.8281 30.0005 28.8282 30.0005 28.825H26.0005C26.0005 30.308 26.8087 31.6 27.999 32.2886L30.0019 28.8262ZM31.0005 33.234V30.5574H27.0005V33.234H31.0005ZM30.0005 32.234C30.5528 32.234 31.0005 32.6818 31.0005 33.234H27.0005C27.0005 34.8909 28.3436 36.234 30.0005 36.234V32.234ZM29.0005 33.234C29.0005 32.6818 29.4482 32.234 30.0005 32.234V36.234C31.6573 36.234 33.0005 34.8909 33.0005 33.234H29.0005ZM29.0005 30.5574V33.234H33.0005V30.5574H29.0005Z" fill="#178CF9" mask="url(#path-22-outside-1)"/>
</svg>
