<svg width="105" height="32" viewBox="0 0 105 32" fill="none" xmlns="http://www.w3.org/2000/svg">
<path fill-rule="evenodd" clip-rule="evenodd" d="M15.9996 0.00112009L16.0016 0V0.00227385C16.6264 0.351704 28.2302 6.83232 28.2302 6.83232C28.2892 6.85432 32 8.42669 32 10.9596V11.4241C32 13.3347 29.8875 14.692 28.8803 15.2314C28.2134 14.8677 22.816 11.8678 19.2012 9.85856L19.1977 9.85662L19.196 9.85567C17.5756 8.95508 16.3145 8.25408 15.9998 8.07977C15.8352 8.17169 4.33129 14.5949 2.9724 15.3025C1.86812 15.8886 0.622443 16.7691 0 17.9553V10.9563C0 8.42669 3.71055 6.85459 3.75159 6.84146C3.75159 6.84146 15.3735 0.349905 15.9975 0.00227385V0L15.9996 0.00112009ZM15.9975 31.9976V31.9993C15.9981 31.999 15.9986 31.9986 15.9991 31.9983C16 31.999 16.0008 31.9993 16.0016 32V31.9969C16.6264 31.6494 28.2496 25.1601 28.2496 25.1601C28.2889 25.1451 32 23.5725 32 21.043V14.0441C31.3759 15.2291 30.132 16.1108 29.0278 16.6928C27.6689 17.4041 16.165 23.8274 15.9994 23.9197C14.9852 23.3539 4.08542 17.2954 3.11997 16.769C2.11334 17.3084 0 18.6638 0 20.5743V21.0403C0 23.5731 3.71055 25.1428 3.77044 25.1672C3.77044 25.1672 15.3737 31.6463 15.9975 31.9976Z" fill="white"/>
<path d="M71.9334 5.04681C71.4642 5.04681 71.0841 5.42715 71.0841 5.89632V22.5811C71.0841 23.0503 71.4642 23.4307 71.9334 23.4307H73.2765C73.7457 23.4307 74.1262 23.0503 74.1262 22.5811V5.89632C74.1262 5.42715 73.7457 5.04681 73.2765 5.04681H71.9334Z" fill="white"/>
<path fill-rule="evenodd" clip-rule="evenodd" d="M62.3849 9.43008C60.3514 9.43008 58.676 10.1601 57.511 11.4523C56.3488 12.7419 55.7137 14.5697 55.7137 16.7349C55.7137 18.7711 56.3638 20.5385 57.5514 21.7989C58.7401 23.061 60.4503 23.7959 62.5313 23.7959C65.102 23.7959 67.4857 22.4074 68.526 19.9462L68.6291 19.7022L65.6904 18.7516L65.5992 18.9443C64.9856 20.2401 63.8586 20.8996 62.3849 20.8996C61.3213 20.8996 60.5124 20.5548 59.9441 19.9503C59.4163 19.3888 59.076 18.5819 58.9523 17.562H68.727L68.7395 17.3325C68.8632 15.0547 68.3887 13.08 67.3143 11.6688C66.2343 10.2498 64.5697 9.43008 62.3849 9.43008ZM62.3877 12.1802C63.474 12.1685 64.2119 12.4595 64.7101 12.9713C65.1696 13.4431 65.4535 14.1314 65.5905 15.031H59.0467C59.2184 14.1825 59.5463 13.4957 60.0382 13.0115C60.5782 12.4797 61.3401 12.1687 62.3821 12.1803L62.3877 12.1802Z" fill="white"/>
<path fill-rule="evenodd" clip-rule="evenodd" d="M83.1172 9.43056C81.1199 9.43056 79.4459 10.1545 78.2725 11.4263C77.1009 12.6963 76.4459 14.4937 76.4459 16.6133C76.4459 18.6954 77.0821 20.4922 78.2439 21.7715C79.4079 23.0531 81.0823 23.7961 83.1172 23.7961C85.1389 23.7961 86.8192 23.0661 87.9925 21.7909C89.1642 20.5178 89.8132 18.7204 89.8132 16.6133C89.8132 14.5311 89.177 12.7341 88.0117 11.4548C86.8446 10.1731 85.164 9.43056 83.1172 9.43056ZM79.6344 16.6133C79.6344 15.3043 79.9207 14.2317 80.4883 13.4917C81.0481 12.7619 81.9041 12.3266 83.1172 12.3266C84.3083 12.3266 85.1713 12.7454 85.7426 13.4673C86.321 14.1979 86.6248 15.2695 86.6248 16.6133C86.6248 17.9202 86.3272 18.9929 85.7506 19.7334C85.181 20.4649 84.3181 20.9 83.1172 20.9C81.9518 20.9 81.0945 20.4821 80.5224 19.7592C79.9437 19.028 79.6344 17.956 79.6344 16.6133Z" fill="white"/>
<path d="M102.374 10.7323C101.117 9.62931 99.5838 9.35489 98.131 9.45484C96.9012 9.5302 95.547 9.98153 94.6394 10.9859V10.6448C94.6394 10.1756 94.259 9.79522 93.7897 9.79522H92.7386C92.2697 9.79522 91.8893 10.1756 91.8893 10.6448V22.5809C91.8893 23.0501 92.2697 23.4303 92.7386 23.4303H94.082C94.551 23.4303 94.9314 23.0501 94.9314 22.5809V17.4165C94.9314 16.4565 94.9331 15.4902 95.0958 14.7933L95.0983 14.7814C95.2366 14.0191 95.5794 13.3734 96.0804 12.9809L96.0846 12.9776C96.572 12.5788 97.1764 12.3729 97.8659 12.3261C98.7456 12.3038 99.4796 12.5365 99.9795 12.9934L99.9855 12.9984C100.447 13.3941 100.732 13.9456 100.9 14.6174C101.07 15.2914 101.118 16.0713 101.118 16.905V22.5809C101.118 23.0501 101.499 23.4303 101.968 23.4303H103.336C103.805 23.4303 104.185 23.0501 104.185 22.5809V16.8092C104.209 14.6305 104.074 12.2268 102.374 10.7323Z" fill="white"/>
<path d="M43.6169 9.79559C42.9191 9.79559 42.5192 10.5905 42.9348 11.1511L46.9312 16.5403L42.8352 22.076C42.4202 22.6367 42.8205 23.4308 43.518 23.4308H45.0248C45.2965 23.4308 45.5519 23.3009 45.7118 23.0812L48.718 18.9503L51.7006 23.0788C51.8605 23.2999 52.1166 23.4308 52.3893 23.4308H53.8916C54.5898 23.4308 54.9901 22.6348 54.573 22.0744L50.4579 16.5399L54.4539 11.1511C54.8699 10.5905 54.4696 9.79559 53.7717 9.79559H52.2685C51.995 9.79559 51.7382 9.92721 51.5786 10.1492L48.7173 14.1296L45.8094 10.1443C45.6494 9.92519 45.3944 9.79559 45.123 9.79559H43.6169Z" fill="white"/>
</svg>
