<svg width="157" height="48" viewBox="0 0 157 48" fill="none" xmlns="http://www.w3.org/2000/svg">
<path fill-rule="evenodd" clip-rule="evenodd" d="M23.9993 0.00168013L24.0024 0V0.00341077C24.9396 0.527556 42.3453 10.2485 42.3453 10.2485C42.4339 10.2815 48 12.64 48 16.4394V17.1362C48 20.0021 44.8313 22.0379 43.3204 22.8471C42.3202 22.3015 34.224 17.8017 28.8017 14.7878L28.7966 14.7849L28.7941 14.7835C26.3634 13.4326 24.4718 12.3811 23.9997 12.1197C23.7528 12.2575 6.49694 21.8923 4.4586 22.9537C2.80217 23.8328 0.933665 25.1537 0 26.9329V16.4345C0 12.64 5.56583 10.2819 5.62739 10.2622C5.62739 10.2622 23.0603 0.524858 23.9963 0.00341077V0L23.9993 0.00168013ZM23.9963 47.9964V47.999C23.9971 47.9985 23.9979 47.998 23.9987 47.9975C24 47.9985 24.0012 47.999 24.0024 48V47.9954C24.9396 47.474 42.3745 37.7401 42.3745 37.7401C42.4334 37.7177 48 35.3587 48 31.5645V21.0661C47.0638 22.8437 45.198 24.1661 43.5417 25.0392C41.5033 26.1062 24.2475 35.7411 23.999 35.8796C22.4778 35.0308 6.12813 25.9431 4.67995 25.1535C3.17 25.9626 0 27.9957 0 30.8615V31.5604C0 35.3597 5.56583 37.7141 5.65566 37.7508C5.65566 37.7508 23.0606 47.4694 23.9963 47.9964Z" fill="#178CF9"/>
<path d="M107.9 7.57031C107.196 7.57031 106.626 8.14081 106.626 8.84457V33.8717C106.626 34.5755 107.196 35.1461 107.9 35.1461H109.914C110.618 35.1461 111.189 34.5755 111.189 33.8717V8.84457C111.189 8.14081 110.618 7.57031 109.914 7.57031H107.9Z" fill="#178CF9"/>
<path fill-rule="evenodd" clip-rule="evenodd" d="M93.5769 14.1452C90.5266 14.1452 88.0135 15.2402 86.266 17.1786C84.5227 19.1129 83.57 21.8546 83.57 25.1024C83.57 28.1567 84.5451 30.8078 86.3266 32.6985C88.1097 34.5916 90.675 35.694 93.7964 35.694C97.6525 35.694 101.228 33.6112 102.788 29.9193L102.943 29.5535L98.5352 28.1275L98.3982 28.4165C97.478 30.3603 95.7874 31.3494 93.5769 31.3494C91.9815 31.3494 90.768 30.8322 89.9157 29.9256C89.124 29.0833 88.6134 27.8729 88.4279 26.3431H103.09L103.109 25.9988C103.294 22.5822 102.583 19.6201 100.971 17.5033C99.3509 15.3747 96.854 14.1452 93.5769 14.1452ZM93.5811 18.2704C95.2105 18.2529 96.3173 18.6893 97.0646 19.457C97.7539 20.1647 98.1798 21.1972 98.3852 22.5466H88.5695C88.8272 21.2738 89.3189 20.2436 90.0568 19.5173C90.8668 18.7197 92.0097 18.2531 93.5727 18.2705L93.5811 18.2704Z" fill="#178CF9"/>
<path fill-rule="evenodd" clip-rule="evenodd" d="M124.675 14.1459C121.679 14.1459 119.168 15.2319 117.408 17.1396C115.651 19.0446 114.668 21.7406 114.668 24.92C114.668 28.0431 115.623 30.7384 117.365 32.6573C119.111 34.5798 121.623 35.6942 124.675 35.6942C127.708 35.6942 130.228 34.5992 131.988 32.6865C133.746 30.7768 134.719 28.0808 134.719 24.92C134.719 21.7967 133.765 19.1013 132.017 17.1823C130.266 15.2598 127.745 14.1459 124.675 14.1459ZM119.451 24.92C119.451 22.9565 119.881 21.3476 120.732 20.2377C121.572 19.1429 122.856 18.49 124.675 18.49C126.462 18.49 127.756 19.1181 128.613 20.2011C129.481 21.297 129.937 22.9043 129.937 24.92C129.937 26.8804 129.49 28.4894 128.625 29.6002C127.771 30.6974 126.477 31.3501 124.675 31.3501C122.927 31.3501 121.641 30.7233 120.783 29.6389C119.915 28.542 119.451 26.9341 119.451 24.92Z" fill="#178CF9"/>
<path d="M153.56 16.0985C151.675 14.4441 149.375 14.0324 147.196 14.1824C145.351 14.2954 143.32 14.9724 141.959 16.4789V15.9672C141.959 15.2635 141.388 14.6929 140.684 14.6929H139.107C138.404 14.6929 137.833 15.2635 137.833 15.9672V33.8715C137.833 34.5752 138.404 35.1456 139.107 35.1456H141.123C141.826 35.1456 142.397 34.5752 142.397 33.8715V26.1249C142.397 24.6849 142.399 23.2354 142.643 22.19L142.647 22.1722C142.854 21.0287 143.369 20.0601 144.12 19.4714L144.126 19.4665C144.857 18.8683 145.764 18.5595 146.798 18.4892C148.118 18.4558 149.219 18.8049 149.969 19.4903L149.978 19.4977C150.67 20.0912 151.097 20.9184 151.35 21.9262C151.604 22.9372 151.677 24.107 151.677 25.3576V33.8715C151.677 34.5752 152.248 35.1456 152.951 35.1456H155.003C155.707 35.1456 156.277 34.5752 156.277 33.8715V25.2138C156.313 21.9458 156.111 18.3403 153.56 16.0985Z" fill="#178CF9"/>
<path d="M65.4249 14.6935C64.3782 14.6935 63.7783 15.8858 64.4017 16.7268L70.3962 24.8105L64.2523 33.1141C63.6299 33.9551 64.2303 35.1464 65.2765 35.1464H67.5367C67.9443 35.1464 68.3273 34.9514 68.5672 34.6218L73.0766 28.4256L77.5504 34.6182C77.7902 34.9499 78.1743 35.1464 78.5835 35.1464H80.8369C81.8841 35.1464 82.4846 33.9524 81.8591 33.1117L75.6863 24.81L81.6803 16.7268C82.3043 15.8858 81.7039 14.6935 80.6571 14.6935H78.4022C77.992 14.6935 77.6068 14.8909 77.3675 15.2239L73.0755 21.1944L68.7135 15.2166C68.4737 14.8879 68.0911 14.6935 67.6841 14.6935H65.4249Z" fill="#178CF9"/>
</svg>
