<svg width="104" height="40" fill="none" xmlns="http://www.w3.org/2000/svg"><g clip-path="url(#clip0)"><path d="M30.215 17.59c2.128 0 3.5 1.104 4.147 2.962h3.178c-.781-3.527-3.582-5.736-7.325-5.736-4.47 0-7.836 3.474-7.836 8.025 0 4.55 3.366 7.917 7.836 7.917 3.743 0 6.463-2.316 7.325-5.736h-3.178c-.646 1.75-2.046 2.962-4.147 2.962-2.935 0-4.766-2.1-4.766-5.116.027-3.043 1.831-5.278 4.766-5.278zm13.114-1.05h-.135l-.161-1.508h-2.666v15.78h2.962v-9.99c0-2.101 1.616-3.259 3.743-3.259.458 0 .566.027.566.027v-2.881s-.189-.054-.566-.054c-.916 0-2.585.377-3.743 1.885zm31.802-1.885c-2.64 0-4.255 1.13-4.955 1.885h-.135l-.161-1.508h-2.666v15.78h2.962v-9.937c0-2.208 1.993-3.366 4.443-3.366 2.1 0 3.609 1.05 3.609 3.232v10.07h2.962V20.552c-.027-4.362-3.097-5.897-6.06-5.897zm9.855.377h2.962v15.78h-2.962v-15.78zm-28.624-.216c-4.497 0-7.917 3.42-7.917 7.971 0 4.55 3.393 7.97 7.917 7.97 4.497 0 7.917-3.42 7.917-7.97s-3.42-7.97-7.917-7.97zm0 13.087c-2.935 0-4.82-2.154-4.82-5.116 0-2.962 1.885-5.17 4.82-5.17 2.935 0 4.82 2.208 4.82 5.17 0 2.962-1.885 5.116-4.82 5.116zm41.146-6.678c-2.935-.646-2.8-1.373-2.8-2.02 0-.78.861-1.75 2.288-1.75 1.185 0 2.45.593 2.45 2.585h2.855c.108-3.23-2.02-5.197-5.305-5.197-2.908 0-5.25 2.02-5.25 4.497 0 3.124 2.477 4.093 5.17 4.686 2.854.619 3.096 1.508 3.096 2.127 0 1.185-1.212 2.208-2.908 2.208-1.212 0-3.07-.754-3.07-3.043H91.18C90.99 28.927 93.603 31 97.104 31c3.312 0 5.924-2.127 5.924-4.955-.027-3.231-2.854-4.254-5.52-4.82zM9.83 9L.002 30.811h3.15l1.913-4.389H17.29l1.912 4.39h3.123L12.551 9H9.83zm1.293 3.716h.134l.162.404 2.773 6.355H8.188l2.774-6.355.162-.404zM6.168 23.945l.915-2.047h8.186l.916 2.047H6.169z" fill="#14234C"/></g><defs><clipPath id="clip0"><path fill="#fff" d="M.002 0h103v40h-103z"/></clipPath></defs></svg>