<svg width="40" height="40" fill="none" xmlns="http://www.w3.org/2000/svg"><path d="M5.176 1.975V35.02h19.527v-1.502H6.678V3.478h25.535v18.024h1.502V1.975H5.176zm6.008 6.76v1.502h16.523V8.735H11.184zm0 9.763V20h3.004v-1.502h-3.004zm5.258 0V20h11.265v-1.502H16.442zm-5.258 4.506v1.502h3.004v-1.502h-3.004zm5.258 0v1.502h6.896a2.2 2.2 0 01-.137-.75 2.2 2.2 0 01.137-.752h-6.896zm9.012 0c-.452 0-.751.3-.751.751 0 .452.299.751.75.751h.752v2.253c0 1.05.525 2.027 1.428 2.778l1.2.977-1.126.977c-.977.751-1.502 1.652-1.502 2.778v2.253h-.751c-.452 0-.751.3-.751.751 0 .452.299.751.75.751H37.47c.452 0 .751-.299.751-.75 0-.452-.3-.752-.824-.752h-.678V34.27c0-1.05-.452-2.027-1.429-2.778l-1.126-.977 1.126-.977c.977-.75 1.429-1.728 1.429-2.778v-2.253h.751c.452 0 .751-.3.751-.75 0-.453-.3-.752-.751-.752H25.454zm2.253 1.502h7.51v2.253c0 .601-.226 1.127-.824 1.652l-1.805 1.502c-.226.15-.302.375-.302.601 0 .226.076.45.302.525l1.805 1.579c.598.525.824.977.824 1.651v2.253h-1.502c0-1.502-2.253-3.004-2.253-3.004s-2.253 1.502-2.253 3.004h-1.502V34.27c0-.674.299-1.126.9-1.651l1.802-1.502c.226-.15.302-.376.302-.602 0-.226-.076-.449-.302-.525l-1.802-1.578c-.601-.525-.9-1.05-.9-1.652v-2.253zm1.502 2.253c0 1.652 2.253 2.253 2.253 2.253s2.253-.601 2.253-2.253h-4.506zm-18.025.751v1.502h3.004V27.51h-3.004zm5.258 0v1.502h8.845a4.654 4.654 0 01-.514-1.502h-8.331z" fill="#fff"/><path fill-rule="evenodd" clip-rule="evenodd" d="M4.8 1.6h29.29v20.278h-2.253V3.853H7.053v29.29h18.025v2.253H4.8V1.6zm.751.751v32.294h18.776v-.751H6.302V3.102h26.286v18.024h.75V2.352H5.552zm5.257 6.008h17.274v2.253H10.808V8.36zm.751.751v.751h15.772v-.75H11.559zm-.75 9.012h3.754v2.253h-3.755v-2.253zm.75.751v.752h2.253v-.752H11.56zm4.506-.75h12.017v2.252H16.065v-2.253zm.751.75v.752h10.515v-.752H16.816zm-6.008 3.755h3.755v2.254h-3.755v-2.254zm.751.752v.75h2.253v-.75H11.56zm4.506-.752h7.808l-.182.504c-.073.2-.115.41-.115.623 0 .214.042.422.115.623l.183.504h-7.809v-2.254zm.751.752v.75h6.038a2.42 2.42 0 010-.75h-6.038zm7.827-.435c.211-.212.5-.317.81-.317H37.47c.311 0 .6.105.81.317.212.211.317.5.317.81 0 .31-.104.599-.316.81-.212.212-.5.317-.81.317h-.376v1.877c0 1.167-.506 2.25-1.566 3.07l-.792.685.792.686c1.06.82 1.566 1.902 1.566 3.07v1.877h.302c.333 0 .64.096.866.307.229.214.334.508.334.82 0 .31-.104.598-.316.81-.212.211-.5.316-.81.316H25.452c-.31 0-.599-.105-.81-.316a1.126 1.126 0 01-.316-.81c0-.311.104-.6.316-.811.211-.212.5-.316.81-.316h.376v-1.878c0-1.264.597-2.264 1.64-3.069l.78-.677-.853-.695-.003-.002c-.971-.807-1.564-1.883-1.564-3.067v-1.877h-.376c-.31 0-.599-.105-.81-.317a1.125 1.125 0 01-.316-.81c0-.31.104-.599.316-.81zm.53.53c-.05.052-.095.139-.095.28 0 .141.045.229.096.28.05.05.138.096.28.096h1.126v2.628c0 .917.456 1.794 1.292 2.488v.002l1.544 1.256-1.472 1.277-.009.007c-.906.696-1.355 1.495-1.355 2.48v2.629h-1.127c-.141 0-.228.045-.28.096-.05.051-.095.138-.095.28 0 .14.045.228.096.279.05.05.138.096.28.096h12.015c.142 0 .229-.045.28-.096.05-.051.096-.138.096-.28 0-.14-.044-.222-.096-.27-.055-.051-.16-.105-.353-.105h-1.053v-2.629c0-.93-.395-1.798-1.282-2.48l-.009-.007-1.462-1.268 1.462-1.268.009-.006c.887-.683 1.282-1.55 1.282-2.48v-2.63h1.126c.142 0 .229-.044.28-.095a.387.387 0 00.096-.28c0-.141-.045-.228-.096-.28-.051-.05-.138-.095-.28-.095H25.453c-.141 0-.228.045-.28.096zm2.158.656h8.26v2.628c0 .723-.282 1.347-.951 1.934l-.008.006-1.82 1.516-.017.01c-.092.062-.134.15-.134.29a.347.347 0 00.032.158l.004.005s.003.003.01.006l.072.023 1.86 1.628c.32.281.565.563.726.885.162.325.227.667.227 1.05v2.628h-2.253v-.376c0-.283-.107-.59-.299-.91a4.79 4.79 0 00-.718-.89 8.07 8.07 0 00-.86-.742 8.097 8.097 0 00-.862.743 4.785 4.785 0 00-.718.89c-.191.318-.298.626-.298.91v.375H27.33v-2.629c0-.398.09-.745.274-1.068.18-.315.44-.591.755-.866l.006-.006 1.817-1.515.018-.011c.092-.062.134-.15.134-.289a.348.348 0 00-.026-.149l-.01-.015-.003-.002a.051.051 0 00-.008-.003l-.071-.024-1.857-1.627m3.101 4.824l.209-.312.002.002.006.004.022.014.033.023.043.031a8.812 8.812 0 011.077.911c.295.295.599.648.831 1.035.169.28.307.592.37.92h.787V34.27c0-.292-.048-.514-.148-.714-.102-.204-.27-.41-.548-.655m0 0l-1.756-1.536c-.391-.177-.479-.585-.479-.85 0-.308.107-.663.452-.902l1.786-1.487c.525-.461.693-.887.693-1.366v-1.877h-6.76v1.877c0 .454.218.885.773 1.369l1.753 1.536c.391.177.479.585.479.85 0 .308-.107.664-.452.902l-1.783 1.487c-.285.25-.474.46-.594.67a1.34 1.34 0 00-.175.696v1.878h.787c.063-.33.2-.64.37-.92.232-.388.536-.741.83-1.035a8.825 8.825 0 011.154-.966l.021-.014.006-.004.002-.001v-.001l.21.312-.21-.312.21-.139.208.139-.209.312m-2.628-7.134h5.257v.375c0 1.02-.699 1.681-1.301 2.063a4.94 4.94 0 01-1.197.544l-.023.006-.007.002h-.003l-.098-.362-.097.363h-.003l-.007-.003-.023-.006a4.27 4.27 0 01-.358-.124 4.932 4.932 0 01-.84-.42c-.602-.381-1.3-1.044-1.3-2.063v-.375zm2.628 2.628l-.097.363.097.026.098-.026-.098-.363zm0-.392a4.178 4.178 0 00.926-.432c.414-.263.768-.608.899-1.053h-3.649c.13.445.485.79.899 1.053a4.174 4.174 0 00.925.432zm-20.653-1.485h3.755v2.253h-3.755v-2.253zm.751.75v.752h2.253v-.751H11.56zm4.506-.75h9.029l.05.317c.075.478.234.942.472 1.381l.301.555h-9.852v-2.253zm.751.75v.752h7.88a4.98 4.98 0 01-.234-.751h-7.646z" fill="#fff"/></svg>