<svg width="80" height="80" fill="none" xmlns="http://www.w3.org/2000/svg"><path d="M75 5H5v70h70V5z" fill="#fff"/><path d="M74 6v68H6V6h68zm2-2H4v72h72V4z" fill="#4788C7"/><path d="M75 5H5v10h70V5z" fill="#B6DCFE"/><path d="M74 6v8H6V6h68zm2-2H4v12h72V4z" fill="#4788C7"/><path d="M74 68H6v6h68v-6z" fill="#B6DCFE"/><path d="M37.028 55.268h-15.82v-1.952c0-.796.112-1.544.334-2.242a9.034 9.034 0 01.896-1.968c.374-.614.814-1.196 1.318-1.74a22.878 22.878 0 011.618-1.582 42.11 42.11 0 011.758-1.476 86.513 86.513 0 001.758-1.432 26.63 26.63 0 001.476-1.344 8.99 8.99 0 001.142-1.362 6.17 6.17 0 00.738-1.486 5.27 5.27 0 00.264-1.696c0-.668-.102-1.25-.308-1.75a3.386 3.386 0 00-.862-1.248 3.686 3.686 0 00-1.31-.756 5.137 5.137 0 00-1.652-.254c-1.032 0-2.08.24-3.146.72-1.066.48-2.092 1.202-3.076 2.162v-3.92a12.932 12.932 0 011.564-1.01 10.195 10.195 0 013.41-1.15c.622-.094 1.284-.14 1.986-.14 1.136 0 2.168.15 3.094.448.926.298 1.716.738 2.374 1.318a5.762 5.762 0 011.52 2.17c.356.866.536 1.864.536 2.988 0 1.02-.126 1.936-.378 2.75a8.92 8.92 0 01-1.072 2.276 11.79 11.79 0 01-1.678 2.004 38.198 38.198 0 01-2.198 1.952c-.68.55-1.356 1.086-2.03 1.608a27.745 27.745 0 00-1.82 1.53c-.54.498-.976.996-1.31 1.494-.334.498-.5 1-.5 1.502v.088h11.374v3.498zM55.75 30.06v16.278h3.744v3.392H55.75v5.538h-3.956V49.73H40.386v-3.428a95.014 95.014 0 006.3-7.918 68.592 68.592 0 002.786-4.246 38.727 38.727 0 002.162-4.078h4.116zm-3.956 16.278V35.756c-1.278 2.296-2.54 4.3-3.788 6.012a106.58 106.58 0 01-3.506 4.57h7.294z" fill="#4788C7"/></svg>