<svg width="72" height="40" fill="none" xmlns="http://www.w3.org/2000/svg"><path d="M23.604 35.743H20.73V24.36h2.873v11.383zm23.161-8.122c-.118-.06-1.043-.607-2.416-.607-1.858 0-3.146 1.292-3.146 3.036 0 1.691 1.233 3.039 3.145 3.039 1.35 0 2.29-.537 2.417-.604v3.055c-.36.1-1.342.405-2.618.405-3.23 0-6.067-2.227-6.067-5.896 0-3.398 2.566-5.892 6.067-5.892 1.347 0 2.346.328 2.618.409v3.055zm-29.984 0c-.115-.06-1.039-.607-2.413-.607-1.86 0-3.148 1.292-3.148 3.036 0 1.691 1.234 3.039 3.148 3.039 1.35 0 2.29-.537 2.413-.604v3.055c-.356.1-1.337.405-2.62.405-3.229 0-6.061-2.227-6.061-5.896 0-3.398 2.566-5.892 6.062-5.892 1.352 0 2.35.328 2.62.409v3.055zm39.02-.565c-1.704 0-2.97 1.341-2.97 2.994 0 1.656 1.266 2.996 2.97 2.996 1.703 0 2.972-1.34 2.972-2.996 0-1.652-1.27-2.994-2.972-2.994zm6.016 2.994c0 3.256-2.514 5.895-6.015 5.895-3.502 0-6.012-2.639-6.012-5.896 0-3.25 2.511-5.892 6.011-5.892 3.502 0 6.016 2.642 6.016 5.893zm-27.32-3.103c-.044-.014-1.253-.347-2.246-.347-1.152 0-1.778.385-1.778.932 0 .694.845.936 1.317 1.085l.793.252c1.865.593 2.714 1.87 2.714 3.256 0 2.86-2.515 3.821-4.713 3.821a17.24 17.24 0 01-3.1-.311v-2.62c.252.063 1.457.423 2.712.423 1.43 0 2.086-.418 2.086-1.062 0-.577-.568-.91-1.28-1.134-.174-.058-.436-.14-.614-.198-1.6-.506-2.934-1.447-2.934-3.33 0-2.13 1.595-3.56 4.242-3.56 1.399 0 2.715.34 2.8.363v2.43z" fill="#C4122E"/><path d="M5.054 12.126c0-.784-.64-1.42-1.426-1.42-.785 0-1.426.636-1.426 1.419v2.989a1.427 1.427 0 002.852 0v-2.988zm7.833-3.922a1.427 1.427 0 00-2.852 0v6.91a1.426 1.426 0 102.852 0v-6.91zm7.835-5.366a1.426 1.426 0 00-2.852 0v15.116a1.427 1.427 0 002.852 0V2.838zm7.833 5.366a1.426 1.426 0 10-2.852 0v6.91a1.427 1.427 0 002.852 0v-6.91zm7.825 3.922a1.42 1.42 0 00-2.424-1.005 1.425 1.425 0 00-.42 1.004v2.989a1.422 1.422 0 102.844 0v-2.988zm7.837-3.922a1.422 1.422 0 00-2.843 0v6.91a1.421 1.421 0 102.843 0v-6.91zm7.839-5.366a1.421 1.421 0 10-2.844 0v15.116a1.422 1.422 0 102.844 0V2.838zm7.837 5.366c0-.785-.636-1.423-1.44-1.423a1.422 1.422 0 00-1.42 1.422v6.911c0 .789.636 1.425 1.42 1.425.804 0 1.44-.636 1.44-1.425v-6.91zm7.822 3.922a1.423 1.423 0 10-2.846 0v2.988a1.424 1.424 0 102.845 0v-2.988h.001z" fill="#15495D"/><path d="M66.072 34.244v.178h-.508v1.32h-.21v-1.32h-.509v-.178h1.227zm.106 0h.327l.449 1.229h.007l.434-1.228h.32v1.497h-.214v-1.228h-.007l-.455 1.228h-.197l-.444-1.228h-.01v1.228h-.21v-1.498z" fill="#C4122E"/></svg>