<svg width="64" height="64" fill="none" xmlns="http://www.w3.org/2000/svg"><path fill-rule="evenodd" clip-rule="evenodd" d="M44.75 3.65a3.728 3.728 0 00-3.71 3.71v3.01h-5.25c-3.269 0-5.95 2.681-5.95 5.95v14.21h-4.227a1.47 1.47 0 000 2.94h4.227v14.21c0 3.269 2.681 5.95 5.95 5.95h5.25v3.01a3.728 3.728 0 003.71 3.71h8.6a3.728 3.728 0 003.71-3.71v-8.96a3.728 3.728 0 00-3.71-3.71h-8.6a3.728 3.728 0 00-3.71 3.71v3.01h-5.25a3.01 3.01 0 01-3.01-3.01V33.47h8.26v3.01a3.728 3.728 0 003.71 3.71h8.6a3.728 3.728 0 003.71-3.71v-8.96a3.728 3.728 0 00-3.71-3.71h-8.6a3.728 3.728 0 00-3.71 3.71v3.01h-8.26V16.32a3.01 3.01 0 013.01-3.01h5.25v3.01a3.728 3.728 0 003.71 3.71h8.6a3.728 3.728 0 003.71-3.71V7.36a3.728 3.728 0 00-3.71-3.71h-8.6zm-.77 3.71c0-.428.342-.77.77-.77h8.6c.428 0 .77.342.77.77v8.96c0 .428-.342.77-.77.77h-8.6a.767.767 0 01-.77-.77V7.36zm0 20.16c0-.428.342-.77.77-.77h8.6c.428 0 .77.342.77.77v8.96c0 .428-.342.77-.77.77h-8.6a.767.767 0 01-.77-.77v-8.96zm0 20.16c0-.428.342-.77.77-.77h8.6c.428 0 .77.342.77.77v8.96c0 .428-.342.77-.77.77h-8.6a.767.767 0 01-.77-.77v-8.96z" fill="#fff"/><path d="M11.856 21.622a.2.2 0 00.177-.2V19.03a.6.6 0 01.6-.6h1.1a.6.6 0 01.6.6v2.423a.2.2 0 00.172.198c1.646.237 2.736.932 3.633 2.093.762.978 1.205 2.216 1.32 3.725a.574.574 0 01-.583.61h-1.95a.64.64 0 01-.623-.584c-.097-.902-.372-1.652-.837-2.239-.587-.764-1.394-1.146-2.399-1.146-.974 0-1.761.264-2.336.817-.577.556-.852 1.342-.852 2.327 0 .893.274 1.631.835 2.192l.003.003c.557.537 1.477 1.032 2.735 1.494 1.246.457 2.217.878 2.918 1.262a7.22 7.22 0 011.753 1.31l.002.002c.47.479.83 1.033 1.085 1.663.252.626.38 1.366.38 2.225 0 1.606-.492 2.891-1.465 3.874-.97.989-2.146 1.576-3.911 1.757a.2.2 0 00-.18.2v2.056a.6.6 0 01-.6.6h-1.1a.6.6 0 01-.6-.6V43.25a.2.2 0 00-.178-.199c-1.889-.21-3.146-.882-4.155-2.014-.849-.961-1.342-2.195-1.47-3.714a.572.572 0 01.582-.611h1.965c.325 0 .587.26.625.582.108.902.414 1.643.93 2.209l.002.001c.671.724 1.609 1.075 2.783 1.075 1.143 0 2.044-.276 2.67-.859.632-.58.943-1.348.943-2.285 0-.877-.28-1.612-.847-2.19-.56-.58-1.473-1.081-2.714-1.515-1.226-.438-2.172-.84-2.843-1.203-1.113-.598-1.938-1.333-2.485-2.201-.546-.868-.823-1.88-.823-3.043 0-1.577.479-2.859 1.425-3.862.954-1.01 2.07-1.609 3.713-1.799z" fill="#fff"/></svg>