<svg width="20" height="20" fill="none" xmlns="http://www.w3.org/2000/svg"><path d="M6 .667A.667.667 0 106 2 .667.667 0 006 .667zm2.667 0a.667.667 0 100 1.333.667.667 0 000-1.333zm2.666 0a.667.667 0 100 1.333.667.667 0 000-1.333zm2.667 0A.666.666 0 1014 2a.666.666 0 000-1.333zM4.667 3.333c-.737 0-1.334.597-1.334 1.334v10.666c0 .737.597 1.334 1.334 1.334h10.666c.737 0 1.334-.597 1.334-1.334V4.667c0-.737-.597-1.334-1.334-1.334H4.667zm-3.334 2a.667.667 0 100 1.334.667.667 0 000-1.334zm5 0a1 1 0 110 2.001 1 1 0 010-2zm12.334 0a.667.667 0 100 1.334.667.667 0 000-1.334zM1.333 8a.667.667 0 100 1.333.667.667 0 000-1.333zm17.334 0a.667.667 0 100 1.333.667.667 0 000-1.333zM1.333 10.667a.667.667 0 100 1.333.667.667 0 000-1.333zm17.334 0a.667.667 0 100 1.333.667.667 0 000-1.333zm-5 2a1 1 0 11-.001 2 1 1 0 010-2zm-12.334.666a.667.667 0 100 1.334.667.667 0 000-1.334zm17.334 0a.667.667 0 100 1.334.667.667 0 000-1.334zM6 18a.667.667 0 100 1.334A.667.667 0 006 18zm2.667 0a.667.667 0 100 1.334.667.667 0 000-1.334zm2.666 0a.667.667 0 100 1.333.667.667 0 000-1.333zM14 18a.667.667 0 100 1.333A.667.667 0 0014 18z" fill="#0089FC"/></svg>