<svg width="50" height="50" fill="none" xmlns="http://www.w3.org/2000/svg"><path d="M25 48.125c-9.824 0-18.125-3.435-18.125-7.5V8.75h36.25v31.875c0 4.065-8.301 7.5-18.125 7.5z" fill="#DFF0FE"/><path d="M42.5 9.375v31.25c0 3.251-7.188 6.875-17.5 6.875-10.313 0-17.5-3.624-17.5-6.875V9.375h35zm1.25-1.25H6.25v32.5c0 4.487 8.395 8.125 18.75 8.125s18.75-3.638 18.75-8.125v-32.5z" fill="#4788C7"/><path d="M25 14.375c-10.842 0-18.125-3.231-18.125-6.25S14.158 1.875 25 1.875c10.843 0 18.125 3.231 18.125 6.25s-7.282 6.25-18.125 6.25z" fill="#DFF0FE"/><path d="M25 2.5c10.843 0 17.5 3.276 17.5 5.625S35.843 13.75 25 13.75c-10.842 0-17.5-3.276-17.5-5.625S14.158 2.5 25 2.5zm0-1.25c-10.355 0-18.75 3.077-18.75 6.875C6.25 11.922 14.645 15 25 15s18.75-3.078 18.75-6.875c0-3.798-8.395-6.875-18.75-6.875z" fill="#4788C7"/><path d="M43.125 18.979c0 3.67-8.115 6.646-18.125 6.646S6.875 22.65 6.875 18.979m0 10.042c0 4.338 8.115 7.854 18.125 7.854s18.125-3.516 18.125-7.854" stroke="#4788C7" stroke-miterlimit="10"/></svg>