<svg width="50" height="50" fill="none" xmlns="http://www.w3.org/2000/svg"><path d="M25 36.875c-7.114 0-13.125-6.011-13.125-13.125 0-5.139 2.675-10.004 4.061-12.179.381 1.656 1.129 4.364 2.282 6.254l.552.906.524-.922c3.295-5.798 5.378-12.904 6.065-15.45C28.187 4.78 38.125 13.984 38.125 23.75c0 7.36-5.765 13.125-13.125 13.125z" fill="#98CCFD"/><path d="M25.699 3.486C29.154 6.575 37.5 14.951 37.5 23.75c0 7.009-5.491 12.5-12.5 12.5-6.776 0-12.5-5.724-12.5-12.5 0-4.145 1.814-8.131 3.199-10.57.437 1.588 1.094 3.509 1.984 4.971l1.105 1.814 1.048-1.846c3.015-5.305 4.988-11.534 5.863-14.633zM25 1.25s-2.176 9.081-6.25 16.25c-1.688-2.77-2.5-7.5-2.5-7.5s-5 6.558-5 13.75S17.352 37.5 25 37.5s13.75-6.102 13.75-13.75C38.75 11.974 25 1.25 25 1.25z" fill="#4788C7"/><path d="M17.5 30c0-6.539 7.5-6.83 7.5-16.346 3.262 4.891 7.5 9.117 7.5 16.346 0 4.907-3.676 7.5-7.5 7.5s-7.5-2.524-7.5-7.5z" fill="#DFF0FE"/><path d="M21.539 32.693C21.539 30.78 25 25.77 25 25.77s3.461 5.011 3.461 6.923a3.462 3.462 0 01-6.922 0z" fill="#fff"/><path d="M46.875 29.375H3.125v17.5h43.75v-17.5z" fill="#B6DCFE"/><path d="M46.25 30v16.25H3.75V30h42.5zm1.25-1.25h-45V47.5h45V28.75z" fill="#4788C7"/><path d="M38.125 29.375h-17.5v8.75h17.5v-8.75z" fill="#B6DCFE"/><path d="M37.5 30v7.5H21.25V30H37.5zm1.25-1.25H20v10h18.75v-10z" fill="#4788C7"/><path d="M20.625 29.375h-17.5v8.75h17.5v-8.75z" fill="#B6DCFE"/><path d="M20 30v7.5H3.75V30H20zm1.25-1.25H2.5v10h18.75v-10z" fill="#4788C7"/><path d="M46.875 38.125h-17.5v8.75h17.5v-8.75z" fill="#B6DCFE"/><path d="M46.25 38.75v7.5H30v-7.5h16.25zm1.25-1.25H28.75v10H47.5v-10z" fill="#4788C7"/><path d="M29.375 38.125h-17.5v8.75h17.5v-8.75z" fill="#B6DCFE"/><path d="M28.75 38.75v7.5H12.5v-7.5h16.25zM30 37.5H11.25v10H30v-10z" fill="#4788C7"/></svg>