<svg width="348" height="120" fill="none" xmlns="http://www.w3.org/2000/svg"><path d="M104.9 25.5S61.7 1.2 59.6 0c-2.1 1.2-45.4 25.5-45.4 25.5C14 25.5.3 31.4.3 40.8v26.1c2.3-4.4 6.9-7.7 11-9.9 5.1-2.7 48.3-26.9 48.3-26.9 3.7 2.1 44.2 24.7 47.7 26.7 3.7-2 11.6-7.1 11.6-14.2v-1.7c0-9.5-13.7-15.4-14-15.4z" fill="#fff"/><path d="M107.9 62.2c-5.1 2.7-48.3 26.9-48.3 26.9-3.7-2.1-44.2-24.7-47.7-26.7C8.2 64.4.3 69.5.3 76.6v1.7c0 9.4 13.8 15.3 14 15.4 0 0 43.2 24.3 45.3 25.5C61.7 118 105 93.7 105 93.7c.1-.1 13.9-5.9 13.9-15.3V52.3c-2.3 4.5-6.9 7.8-11 9.9zm63.4 3.4l16.2 21.8h-9.9l-11-15.2-11.1 15.2h-9.9l16.1-21.8L146 44.3h9.9l10.8 14.8 10.6-14.8h9.9l-15.9 21.3zm40.1 15.1c5.1 0 9.1-2.3 11.3-6.9l8.1 2.6c-3.3 7.7-10.8 12.1-18.9 12.1-13.2 0-21.5-9.3-21.5-22.3 0-13.9 8.1-23.1 21.1-23.1 13.9 0 20.8 10.4 20 25.1h-32.2c.6 7.7 4.8 12.5 12.1 12.5zm-11.9-19.3h23.3c-.8-6.9-4-11-11.4-10.9-7.2-.1-10.8 4.3-11.9 10.9zm41.2 26V28.8h8.4v58.6h-8.4zm17.6-21.6c0-13.6 8.4-22.7 21.1-22.7 13 0 21.1 9.4 21.1 22.7 0 13.5-8.3 22.7-21.1 22.7-13 .1-21.1-9.4-21.1-22.7zM279.4 51c-8.4 0-12.2 6.1-12.2 14.8 0 9 4.1 14.8 12.2 14.8 8.3 0 12.3-6.1 12.3-14.8-.1-9-4.1-14.8-12.3-14.8zm68.2 15.5v20.9h-8.5V66.8c0-5.5-.6-10.5-4-13.4-1.8-1.7-4.5-2.5-7.5-2.4-2.4.2-4.5.9-6.3 2.3-1.8 1.4-3 3.8-3.5 6.4-.6 2.4-.6 5.7-.6 8.8v18.9h-8.4V44.3h7.4v5.3l1.4-1.6c2.8-3.1 7-4.5 10.9-4.8 4.6-.3 9.4.6 13.3 4 5.4 4.6 5.9 12.1 5.8 19.3z" fill="#fff"/></svg>