<svg width="20" height="20" fill="none" xmlns="http://www.w3.org/2000/svg"><path d="M4.667 1.333c-.737 0-1.334.597-1.334 1.334V12c0 .737.597 1.333 1.334 1.333h10.666c.737 0 1.334-.596 1.334-1.333V2.667c0-.737-.597-1.334-1.334-1.334H4.667zM3.333 14.296v3.037c0 .737.597 1.334 1.334 1.334h10.666c.737 0 1.334-.597 1.334-1.334v-3.037a2.64 2.64 0 01-1.334.37H4.667a2.64 2.64 0 01-1.334-.37zm2 1.704a.667.667 0 110 1.334.667.667 0 010-1.334zM8 16a.667.667 0 110 1.334A.667.667 0 018 16zm2.667 0a.667.667 0 110 1.334.667.667 0 010-1.334zm4 0a.667.667 0 110 1.334.667.667 0 010-1.334z" fill="#0089FC"/></svg>