<svg width="96" height="40" fill="none" xmlns="http://www.w3.org/2000/svg"><g clip-path="url(#clip0)"><path d="M30.728 7.364H2.05V2.05h28.678v5.314zM32.774 0H0v9.414h32.774V0z" fill="#00B188"/><path d="M2.05 24.97H0v-9.414h2.05v3.72h3.659v-3.72h2.05v9.414h-2.05v-3.9h-3.66v3.9zm8.812-4.127h2.44c-.045-.694-.329-1.176-1.13-1.176-.605 0-1.13.256-1.31 1.176zm1.548 4.276c-2.08 0-3.494-1.31-3.494-3.464 0-2.096 1.387-3.54 3.222-3.54 2.004 0 2.996 1.341 2.996 3.345v.755h-4.272c.241 1.038 1.054 1.31 1.87 1.31.709 0 1.218-.15 1.85-.544h.077v1.552c-.544.39-1.314.586-2.249.586zm8.077-4.096l-1.054 3.947H17.64l-2.05-6.629v-.076h1.958l1.115 3.961 1.053-3.961h1.598l1.07 3.961 1.13-3.961h1.88v.076l-2.05 6.628h-1.792l-1.065-3.946zm8.237 4.096c-1.628 0-2.291-.648-2.291-2.169v-7.394h1.989v7.256c0 .468.18.633.57.633.134 0 .334-.046.452-.092h.031v1.64a2.2 2.2 0 01-.75.126zm3.253-4.276h2.44c-.045-.694-.329-1.176-1.13-1.176-.601 0-1.13.256-1.31 1.176zm1.552 4.276c-2.08 0-3.495-1.31-3.495-3.464 0-2.096 1.388-3.54 3.223-3.54 2.004 0 2.996 1.341 2.996 3.345v.755h-4.276c.241 1.038 1.054 1.31 1.866 1.31.709 0 1.218-.15 1.854-.544h.077v1.552c-.54.39-1.31.586-2.245.586zm10.889-6.85h1.475v1.597h-1.475v2.724c0 .586.226.858.827.858.165 0 .376-.015.602-.092h.046v1.567a3.524 3.524 0 01-1.219.196c-1.613 0-2.245-.74-2.245-2.44v-2.817h-2.544v2.724c0 .587.226.859.828.859.164 0 .375-.016.601-.092h.046v1.567a3.525 3.525 0 01-1.218.195c-1.613 0-2.245-.74-2.245-2.44v-2.817h-1.023v-1.597h1.023v-1.836h1.988v1.836h2.544v-1.836h1.989v1.843zm8.176 1.911c1.038 0 1.536-.586 1.536-1.429 0-.873-.494-1.46-1.536-1.46h-1.295v2.893l1.295-.004zm3.617-1.429c0 2.05-1.372 3.161-3.448 3.161h-1.46v3.058h-2.046v-9.414h3.51c2.072 0 3.444 1.115 3.444 3.195zm4.367 4.111v-.57c-.302-.166-.693-.227-1.1-.227-.647 0-1.037.242-1.037.782 0 .56.39.797.977.797.559 0 .98-.288 1.16-.782zm.062 1.445c-.437.528-1.084.781-1.778.781-1.31 0-2.38-.797-2.38-2.214 0-1.31 1.07-2.184 2.606-2.184.483 0 .981.076 1.49.226v-.119c0-.724-.406-1.038-1.475-1.038-.678 0-1.325.195-1.885.513h-.072v-1.598c.513-.298 1.417-.555 2.302-.555 2.02 0 3.119.965 3.119 2.651v4.203H60.64v-.666zm2.935-2.682c0-2.154 1.52-3.51 3.51-3.51.708 0 1.37.15 1.865.514v1.7h-.076a2.51 2.51 0 00-1.537-.528c-.992 0-1.747.678-1.747 1.824 0 1.145.755 1.808 1.747 1.808.586 0 1.1-.195 1.537-.529h.076v1.701c-.498.36-1.16.514-1.866.514-1.988 0-3.51-1.337-3.51-3.494zm8.617.302v3.043h-1.989v-9.414h1.989v5.36l2.003-2.651h2.26v.076l-2.409 3.042 2.41 3.51v.076H74.18l-1.988-3.042zm8.72.935v-.57c-.299-.166-.694-.227-1.1-.227-.647 0-1.038.242-1.038.782 0 .56.39.797.977.797.56 0 .98-.288 1.16-.782zm.061 1.445c-.437.528-1.084.781-1.778.781-1.31 0-2.379-.797-2.379-2.214 0-1.31 1.069-2.184 2.605-2.184.483 0 .977.076 1.49.226v-.119c0-.724-.405-1.038-1.474-1.038-.678 0-1.326.195-1.885.513h-.077v-1.598c.514-.298 1.418-.555 2.303-.555 2.019 0 3.119.965 3.119 2.651v4.203h-1.928l.004-.666zm5.272-4.954c.36-.74.89-1.161 1.629-1.161.272 0 .54.061.647.122v1.897h-.073a2.251 2.251 0 00-.873-.15c-.617 0-1.1.36-1.265 1.054v3.855h-1.988v-6.702h1.927l-.004 1.085zm7.544 3.34V20.54c-.33-.482-.766-.693-1.264-.693-.874 0-1.46.632-1.46 1.778 0 1.145.586 1.762 1.46 1.762.498 0 .935-.21 1.264-.693zm.062 1.583c-.422.544-1.085.843-1.989.843-1.716 0-2.816-1.567-2.816-3.494 0-1.928 1.1-3.51 2.816-3.51.874 0 1.506.272 1.927.766v-3.325h1.989v9.41H93.85v-.69zM0 28.042h5.816v1.146H1.31v2.877h4.08v1.115H1.31v3.134h4.502v1.146H0v-9.418zm10.62 2.652c1.491 0 2.319.98 2.319 2.59v4.172h-1.25v-4.142c0-.858-.436-1.475-1.386-1.475-.782 0-1.445.498-1.67 1.203v4.414h-1.25v-6.628h1.25v.965c.39-.617 1.053-1.1 1.988-1.1zm5.679.134H18v1.069h-1.701v3.567c0 .75.39 1.007 1.1 1.007.195 0 .406-.03.555-.092H18v1.07a2.02 2.02 0 01-.782.134c-1.551 0-2.168-.71-2.168-2.004v-3.69h-1.146V30.82h1.146v-1.762h1.249v1.77zm3.793 2.666h3.299c-.046-.977-.529-1.731-1.552-1.731-.946 0-1.563.708-1.747 1.731zm1.973 4.096c-1.942 0-3.268-1.295-3.268-3.372 0-2.08 1.234-3.524 3.027-3.524 1.823 0 2.77 1.31 2.77 3.253v.57H20.05c.134 1.341.996 1.989 2.184 1.989.74 0 1.264-.165 1.854-.602h.046v1.1c-.544.421-1.253.586-2.069.586zm5.257-5.736c.287-.708.92-1.13 1.64-1.13.287 0 .544.046.647.104v1.233h-.046c-.18-.088-.482-.134-.785-.134-.678 0-1.25.452-1.46 1.203v4.322h-1.249v-6.624h1.249l.004 1.027zm6.326 4.606c1.233 0 1.957-.977 1.957-2.318 0-1.326-.724-2.318-1.957-2.318-.679 0-1.31.406-1.64 1.053v2.548c.33.644.965 1.035 1.64 1.035zm.214-5.766c1.973 0 3.027 1.613 3.027 3.448 0 1.839-1.054 3.448-3.027 3.448-.812 0-1.506-.421-1.854-.873V40h-1.25v-9.172h1.25v.75c.344-.463 1.038-.884 1.854-.884zm5.751 1.16c.287-.708.92-1.13 1.64-1.13.287 0 .544.046.647.104v1.233h-.046c-.18-.088-.482-.134-.781-.134-.678 0-1.25.452-1.46 1.203v4.322h-1.249v-6.624h1.249v1.027zm4.1-3.704c.436 0 .797.344.797.781 0 .437-.36.782-.797.782-.422 0-.797-.345-.797-.782-.004-.437.375-.782.797-.782zm-.621 9.306h1.249v-6.628h-1.25v6.628zm5.709-3.87c.95.3 2.004.694 2.004 1.958 0 1.357-1.115 2.05-2.544 2.05-.874 0-1.748-.21-2.246-.602v-1.187h.062c.559.513 1.387.74 2.168.74.709 0 1.341-.273 1.341-.844 0-.586-.525-.724-1.567-1.069-.935-.302-1.973-.647-1.973-1.896 0-1.28 1.054-2.035 2.395-2.035.781 0 1.475.165 2.034.544v1.207h-.046a3.01 3.01 0 00-1.958-.693c-.781 0-1.218.345-1.218.812-.004.517.479.667 1.548 1.015zm4.383-.092h3.299c-.046-.977-.525-1.731-1.552-1.731-.946 0-1.563.708-1.747 1.731zm1.973 4.096c-1.942 0-3.268-1.295-3.268-3.372 0-2.08 1.234-3.524 3.027-3.524 1.824 0 2.77 1.31 2.77 3.253v.57h-4.544c.134 1.341.992 1.989 2.184 1.989.74 0 1.264-.165 1.854-.602h.046v1.1c-.544.421-1.253.586-2.069.586z" fill="#231F20"/></g><defs><clipPath id="clip0"><path fill="#fff" d="M0 0h95.778v40H0z"/></clipPath></defs></svg>