<svg width="80" height="80" fill="none" xmlns="http://www.w3.org/2000/svg"><path d="M40 76.45C35.542 71.124 13 43.51 13 30 13 15.112 25.112 3 40 3s27 12.112 27 27c0 13.514-22.542 41.124-27 46.45z" fill="#98CCFD"/><path d="M40 4c14.336 0 26 11.664 26 26 0 12.536-20.232 37.908-26 44.886C34.232 67.908 14 42.536 14 30 14 15.664 25.664 4 40 4zm0-2C24.536 2 12 14.536 12 30s28 48 28 48 28-32.536 28-48C68 14.536 55.464 2 40 2z" fill="#4788C7"/><path d="M34 42h-4V22h4v20zm8.314-6.89V42H38V22h6.76c4.828 0 7.24 2.126 7.24 6.374 0 2.008-.692 3.632-2.076 4.876-1.386 1.24-3.236 1.862-5.552 1.862h-2.058v-.002zm-.426-9.652v6.234h1.772c2.398 0 3.598-1.052 3.598-3.152 0-2.056-1.2-3.082-3.598-3.082h-1.772z" fill="#fff"/></svg>