<svg width="80" height="80" fill="none" xmlns="http://www.w3.org/2000/svg"><path d="M77 13H3v54h74V13z" fill="#98CCFD"/><path d="M76 14v52H4V14h72zm2-2H2v56h76V12z" fill="#4788C7"/><path d="M24 28v4h-2v16h2v4h-8v-4h2V32h-2v-4h8zm5.126 22.708v-5.166a9.294 9.294 0 002.892 1.768c1.818.684 4.79 1.18 6.44-.17.492-.404.848-1.002.854-1.638.006-.808-.536-1.524-1.166-2.032-2.32-1.878-5.922-2.102-7.848-4.596-.844-1.088-1.264-2.4-1.264-3.94 0-1.204.228-2.242.69-3.108 2.382-4.472 9.272-4.436 13.414-2.864l.006 4.812c-1.922-1.272-4.572-2.12-6.824-1.628-1.04.226-2.148.85-2.322 1.898-.466 2.798 5.032 4.156 6.754 5.228.698.434 1.3.928 1.798 1.476a5.733 5.733 0 011.15 1.882c.264.704.398 1.524.398 2.462 0 1.292-.232 2.376-.696 3.254a5.847 5.847 0 01-1.894 2.13c-.796.544-1.72.934-2.778 1.17a15.248 15.248 0 01-3.342.354c-1.202 0-2.35-.108-3.436-.322-1.088-.216-2.03-.54-2.826-.97zM57.908 52c-2.922 0-5.306-1.082-7.146-3.244C48.922 46.592 48 43.772 48 40.3c0-3.668.934-6.636 2.804-8.9 1.87-2.268 4.348-3.4 7.432-3.4 2.912 0 5.268 1.084 7.066 3.252C67.102 33.422 68 36.28 68 39.83c0 3.648-.932 6.586-2.796 8.82-1.866 2.234-4.296 3.35-7.296 3.35zm.258-20c-2.354 0-5.834 2.25-5.834 8.024C52.334 46.166 55.688 48 58 48c2.312 0 5.584-2 5.584-7.878 0-5.956-3.064-8.122-5.418-8.122z" fill="#fff"/></svg>