<svg width="21" height="24" fill="none" xmlns="http://www.w3.org/2000/svg"><path d="M9.744 0C7.06 0 6 2.046 6 4.951c0 .901.154 1.785.154 2.68C6.154 8.526 3 11.214 3 15.424v.006c.16-.08.322-.15.494-.2a3.04 3.04 0 01.82-.115c.482 0 .944.122 1.356.332.142-1.419.947-3.644 1.613-4.765.353-.594.63-1.068.785-1.483.336.346.776.798 1.383.799.966 0 1.511-.712 1.912-1.018.047-.035.103-.082.155-.119.174.266.362.525.56.791.804 1.082 1.753 2.871 2.12 5.471A2.92 2.92 0 0115 15c.413 0 .823.09 1.201.258A2.976 2.976 0 0117.408 15c.586 0 1.127.176 1.59.467 0-.037.004-.077.004-.114 0-3.963-4.495-6.383-5-10.613C13.814 3.5 13.33 0 9.744 0zM8.205 3C8.772 3 9.23 4.046 9.23 4.896c0 .15-.045.9-.078 1.172-.487.13-.876.488-1.174.756-.46-.247-.798-1.075-.798-1.928C7.18 3.93 7.54 3 8.205 3zm2.565.002c.566 0 .974 1.048 1.025 1.896.03.51-.11 1.434-.608 1.895-.413-.207-.836-.575-1.357-.709a18.08 18.08 0 01-.088-1.186c0-.85.46-1.896 1.027-1.896zM8.205 4.586c-.283 0-.514.344-.514.77 0 .423.231.767.514.767.283 0 .514-.344.514-.768 0-.424-.231-.77-.514-.77zm2.565 0c-.284 0-.514.344-.514.77 0 .423.23.767.514.767.283 0 .511-.344.511-.768 0-.424-.229-.77-.511-.77zM15 17a1 1 0 00-1 1c0 3.341-.498 3.624-.498 4.322 0 .927.75 1.678 1.678 1.678a1.66 1.66 0 001.29-.62c.35-.388.82-.895 1.493-1.46.547-.461.664-.546 1.531-1.047l-.008-.014a.987.987 0 00.522-.859 1 1 0 00-1-1c-.137 0-.377-.052-.488-.184a.616.616 0 01-.149-.548s.037-.177.037-.268a1 1 0 00-1-1c-.245 0-.486.1-.637.244-.15.145-.344.27-.55.272-.198 0-.393-.096-.567-.258A1.013 1.013 0 0015 17zm-10.565.123a.999.999 0 00-.396.03 1.01 1.01 0 00-.559.425c-.123.204-.283.351-.474.404-.2.055-.42-.01-.604-.109a.944.944 0 00-.68-.063c-.53.152-.84.706-.689 1.237.025.089.111.246.111.246a.62.62 0 01.006.57c-.07.157-.287.272-.418.309a1 1 0 00-.69 1.234c.103.36.395.606.735.686 0 .003 0 .01-.002.014.971.244 1.106.293 1.758.587.8.36 1.391.721 1.834 1 .398.277.91.385 1.412.242a1.678 1.678 0 001.156-2.072c-.19-.67-.748-.807-1.66-4.021a1 1 0 00-.84-.719zm4.26 3.777c.058.132.118.257.164.418.158.557.168 1.129.063 1.682h2.646a3.69 3.69 0 01-.068-.678c0-.49.105-.869.19-1.174.02-.072.04-.154.062-.242a7.228 7.228 0 01-1.504.157 7.352 7.352 0 01-1.553-.163z" fill="#2E3144"/></svg>