<svg xmlns="http://www.w3.org/2000/svg" width="90" height="28" fill="none"><path fill="#0089FC" fill-rule="evenodd" d="M13.517.001L13.519 0v.003l10.33 5.803c.05.019 3.185 1.355 3.185 3.507v.395c0 1.624-1.785 2.777-2.636 3.236-.563-.31-5.123-2.859-8.177-4.566l-.002-.001-.002-.002h-.002l-.002-.002-2.696-1.507c-.162.091-9.86 5.537-11.006 6.138C1.578 13.502.526 14.25 0 15.258V9.311c0-2.15 3.135-3.486 3.17-3.497L13.514.002V0l.003.001zm-.002 27.19v.002l.002-.001.002.001v-.002l10.347-5.81c.033-.013 3.168-1.349 3.168-3.499v-5.947c-.527 1.007-1.578 1.756-2.511 2.25-1.146.604-10.839 6.048-11.006 6.142A5568.53 5568.53 0 002.636 14.25C1.786 14.71 0 15.86 0 17.484v.396c0 2.152 3.135 3.486 3.185 3.507 0 0 9.792 5.5 10.33 5.804zm49.779-8.136a.502.502 0 01-.502-.502V4.738c0-.278.224-.502.502-.502h1.112c.277 0 .502.224.502.502v13.815a.502.502 0 01-.502.502h-1.112zm-5.023-6.553c-.201-1.754-1.008-2.782-2.883-2.762-1.815-.02-2.742 1.089-3.004 2.762h5.887zm-.04 3.125l2.056.666c-.826 1.956-2.722 3.065-4.778 3.065-3.347 0-5.444-2.36-5.444-5.646 0-3.508 2.056-5.847 5.323-5.847 3.508 0 5.262 2.621 5.06 6.331h-8.125c.161 1.956 1.21 3.165 3.065 3.165 1.29 0 2.299-.584 2.843-1.734zm-12.969-2.076l3.497 4.702a.502.502 0 01-.404.802h-1.243a.502.502 0 01-.407-.208l-2.632-3.643-2.653 3.644a.502.502 0 01-.406.207h-1.248a.502.502 0 01-.403-.801l3.48-4.703-3.398-4.582a.502.502 0 01.403-.802h1.247c.16 0 .312.077.406.207l2.572 3.523 2.53-3.52a.502.502 0 01.409-.21h1.244c.413 0 .65.47.404.802l-3.398 4.582zm24.207.06c0 2.278 1.049 3.75 3.085 3.75 2.097 0 3.105-1.532 3.105-3.75 0-2.278-1.028-3.75-3.105-3.75-2.117 0-3.085 1.532-3.085 3.75zm3.085-5.746c3.287 0 5.343 2.379 5.343 5.746 0 3.408-2.097 5.747-5.343 5.747-3.266 0-5.323-2.38-5.323-5.747 0-3.427 2.117-5.746 5.323-5.746zm16.74 11.19a.502.502 0 00.503-.502v-4.78c.02-1.815-.1-3.71-1.431-4.88-.988-.867-2.198-1.089-3.368-1.008-.988.06-2.056.423-2.762 1.21l-.343.403V8.67a.502.502 0 00-.502-.503h-.87a.502.502 0 00-.503.503v9.883c0 .277.225.502.503.502h1.112a.502.502 0 00.502-.502v-4.276c0-.787 0-1.614.141-2.218.121-.666.424-1.25.888-1.613.443-.363.988-.545 1.593-.585.766-.02 1.431.181 1.895.605.846.726 1.008 1.996 1.008 3.387v4.7c0 .277.225.502.502.502h1.133z" clip-rule="evenodd"/><path fill="#0089FC" d="M55.388 9.74l-.002.2h.004l-.002-.2zm2.883 2.762v.201h.226l-.026-.224-.2.023zm-5.887 0l-.199-.03-.036.231h.235v-.2zm7.903 3.79l.185.079.086-.202-.209-.067-.062.19zm-2.056-.665l.062-.19-.168-.055-.076.16.182.085zm2.218-1.431v.2h.19l.01-.19-.2-.01zm-8.126 0v-.201h-.218l.018.218.2-.017zm-3.564 4.057l-.162.12.162-.12zm-3.497-4.702l-.161-.12-.09.12.09.12.161-.12zm1.443 5.296l.162-.118-.162.118zm-2.632-3.643l.163-.118-.163-.224-.163.224.163.118zm-2.653 3.644l-.162-.118.162.118zm-2.057-.594l.161.12-.161-.12zm3.48-4.703l.161.12.089-.12-.09-.12-.16.12zm-3.398-4.582l-.162.12.162-.12zm2.056-.595l.163-.119-.163.119zm2.572 3.523l-.163.119.164.224.162-.225-.163-.118zm2.53-3.52l.164.117-.163-.118zm2.057.592l.161.12-.161-.12zm41.137 4.804l-.2-.003v.003h.2zm-1.431-4.88l.132-.15-.132.15zm-3.368-1.008l.013.2h.001l-.014-.2zm-2.762 1.21l-.15-.134-.003.004.153.13zm-.343.403h-.2v.547l.353-.417-.153-.13zm.383 2.56l.196.046.002-.01-.198-.035zm.888-1.612l.124.158.003-.003-.127-.155zm1.593-.585l-.006-.201h-.008l.014.2zm1.895.605l-.136.148.005.004.13-.152zM62.59 18.553c0 .388.315.703.704.703v-.402a.301.301 0 01-.301-.301h-.403zm0-13.815v13.815h.402V4.738h-.401zm.704-.703a.703.703 0 00-.703.703h.401c0-.167.135-.302.302-.302v-.401zm1.112 0h-1.112v.401h1.112v-.401zm.703.703a.703.703 0 00-.703-.703v.401c.166 0 .301.135.301.302h.402zm0 13.815V4.738h-.401v13.815h.401zm-.703.703a.703.703 0 00.703-.703h-.401a.301.301 0 01-.302.301v.402zm-1.112 0h1.112v-.402h-1.112v.402zM55.39 9.941c.9-.01 1.51.231 1.923.655.417.429.66 1.074.758 1.93l.4-.047c-.103-.898-.365-1.645-.87-2.163-.51-.524-1.24-.788-2.215-.777l.004.402zm-2.808 2.592c.127-.81.411-1.46.863-1.904.447-.44 1.078-.698 1.94-.688l.005-.402c-.951-.01-1.692.276-2.227.804-.532.523-.843 1.264-.978 2.128l.397.062zm5.69-.232h-5.888v.402h5.887v-.402zm2.077 3.8l-2.056-.665-.124.383 2.056.665.124-.383zm-4.84 3.457c2.129 0 4.102-1.15 4.963-3.187l-.37-.156c-.792 1.873-2.609 2.942-4.593 2.942v.401zm-5.645-5.846c0 1.686.538 3.15 1.522 4.193.984 1.045 2.4 1.653 4.123 1.653v-.401c-1.624 0-2.93-.571-3.83-1.528-.903-.957-1.413-2.316-1.413-3.917h-.402zm5.524-6.048c-1.684 0-3.071.604-4.036 1.674-.962 1.068-1.488 2.581-1.488 4.374h.402c0-1.716.503-3.126 1.385-4.105.88-.976 2.154-1.541 3.737-1.541v-.402zm5.261 6.543c.103-1.886-.29-3.521-1.18-4.69-.894-1.175-2.272-1.853-4.081-1.853v.402c1.7 0 2.952.632 3.762 1.695.814 1.07 1.197 2.6 1.098 4.424l.401.022zm-8.326.19h8.126v-.402h-8.126v.402zm3.065 2.763c-.881 0-1.55-.285-2.021-.786-.474-.504-.765-1.247-.844-2.195l-.4.034c.083 1.008.397 1.847.95 2.437.559.593 1.34.912 2.315.912v-.402zm2.661-1.619c-.508 1.073-1.441 1.62-2.661 1.62v.401c1.36 0 2.444-.623 3.024-1.849l-.363-.172zm-9.129 2.592l-3.497-4.702-.322.24 3.496 4.702.323-.24zm-.565 1.123c.579 0 .91-.659.565-1.123l-.323.24a.301.301 0 01-.242.481v.402zm-1.243 0h1.243v-.402h-1.243v.402zm-.57-.291a.703.703 0 00.57.291v-.402a.301.301 0 01-.245-.125l-.325.236zm-2.632-3.643l2.632 3.643.325-.236-2.631-3.643-.326.236zm-2.327 3.645l2.652-3.645-.325-.236-2.652 3.644.325.237zm-.569.29a.703.703 0 00.569-.29l-.325-.237a.302.302 0 01-.244.124v.402zm-1.248 0h1.248v-.403h-1.248v.402zm-.565-1.123a.703.703 0 00.566 1.122v-.402a.301.301 0 01-.243-.48l-.323-.24zm3.48-4.703l-3.48 4.703.323.24 3.48-4.704-.323-.239zM39.283 9.09l3.398 4.582.323-.24-3.398-4.582-.323.24zm.565-1.123a.703.703 0 00-.565 1.123l.323-.24a.301.301 0 01.242-.48v-.403zm1.247 0h-1.247v.402h1.247v-.402zm.569.29a.703.703 0 00-.569-.29v.402c.097 0 .187.046.244.124l.325-.237zm2.57 3.523l-2.57-3.524-.325.237 2.571 3.524.325-.237zm2.206-3.52l-2.53 3.521.326.235 2.53-3.521-.325-.235zm.572-.293a.704.704 0 00-.572.293l.327.235a.301.301 0 01.245-.126v-.402zm1.244 0h-1.244v.402h1.244v-.402zm.565 1.123a.703.703 0 00-.565-1.123v.402c.248 0 .39.282.242.481l.323.24zm-3.397 4.582l3.397-4.582-.322-.24-3.398 4.582.323.24zm27.13 3.49c-.965 0-1.675-.346-2.148-.945-.48-.605-.736-1.493-.736-2.605h-.402c0 1.167.268 2.154.823 2.854.56.707 1.392 1.098 2.463 1.098v-.402zm2.904-3.55c0 1.082-.246 1.97-.723 2.584-.472.605-1.187.966-2.18.966v.401c1.102 0 1.94-.405 2.497-1.12.55-.708.808-1.695.808-2.83h-.402zm-2.904-3.55c.986 0 1.7.348 2.174.945.479.605.73 1.493.73 2.605h.402c0-1.166-.262-2.154-.817-2.854-.56-.708-1.398-1.097-2.489-1.097v.402zm-2.884 3.55c0-1.084.237-1.972.707-2.584.464-.605 1.173-.965 2.177-.965V9.66c-1.112 0-1.946.406-2.496 1.122-.543.708-.79 1.695-.79 2.83h.402zm8.428 0c0-1.724-.526-3.212-1.491-4.271-.967-1.061-2.358-1.676-4.053-1.676v.402c1.592 0 2.872.575 3.756 1.545.885.972 1.386 2.357 1.386 4h.402zm-5.544 5.947c1.674 0 3.065-.604 4.037-1.66.97-1.054 1.507-2.542 1.507-4.287h-.402c0 1.663-.51 3.048-1.4 4.015-.89.966-2.17 1.53-3.742 1.53v.402zm-5.524-5.947c0 1.724.527 3.212 1.489 4.271.964 1.061 2.35 1.676 4.035 1.676v-.401c-1.582 0-2.856-.575-3.737-1.545-.883-.972-1.385-2.358-1.385-4h-.402zm5.524-5.947c-1.654 0-3.04.6-4.011 1.652-.97 1.052-1.513 2.54-1.513 4.295h.402c0-1.672.516-3.057 1.406-4.022.889-.963 2.164-1.523 3.716-1.523v-.402zm17.042 10.889a.301.301 0 01-.301.301v.402a.703.703 0 00.703-.703h-.402zm0-4.78v4.78h.402v-4.78h-.402zm-1.363-4.729c1.253 1.101 1.383 2.901 1.363 4.726l.402.005c.02-1.805-.091-3.795-1.5-5.033l-.265.302zm-3.22-.959c1.135-.078 2.285.139 3.22.96l.265-.303c-1.04-.913-2.31-1.14-3.513-1.058l.027.401zM82.385 9.23c.66-.735 1.67-1.085 2.625-1.143l-.025-.402c-1.022.063-2.148.439-2.9 1.277l.3.268zm-.34.4l.343-.404-.306-.26-.343.403.306.26zm-.354-.96v.829h.402V8.67h-.402zm-.301-.3a.3.3 0 01.301.3h.402a.703.703 0 00-.703-.703v.402zm-.87 0h.87v-.403h-.87v.402zm-.302.3a.3.3 0 01.302-.3v-.403a.703.703 0 00-.704.704h.402zm0 9.884V8.67h-.402v9.883h.402zm.302.301a.301.301 0 01-.302-.301h-.402c0 .388.315.703.704.703v-.402zm1.112 0H80.52v.402h1.112v-.402zm.301-.301a.301.301 0 01-.301.301v.402a.703.703 0 00.703-.703h-.402zm0-4.256v4.256h.402v-4.256h-.402zm0-.02v.02h.402v-.02h-.402zm.147-2.264c-.148.632-.147 1.486-.147 2.264h.402c0-.795.001-1.595.136-2.172l-.391-.092zm.959-1.726c-.513.402-.834 1.036-.961 1.736l.395.072c.115-.632.399-1.166.813-1.491l-.247-.317zm1.703-.627c-.637.043-1.224.235-1.707.63l.255.311c.404-.33.906-.501 1.479-.54l-.027-.4zm2.044.657c-.512-.468-1.234-.678-2.036-.657l.01.402c.73-.02 1.34.173 1.755.552l.271-.297zm1.074 3.536c0-.7-.04-1.386-.193-1.992-.153-.608-.42-1.15-.886-1.548l-.261.305c.382.328.618.785.757 1.34.14.559.18 1.205.18 1.895h.403zm0 4.7v-4.7h-.402v4.7h.402zm.301.301a.301.301 0 01-.301-.301h-.402c0 .388.315.703.703.703v-.402zm1.133 0h-1.133v.402h1.133v-.402z"/></svg>