<svg width="300" height="170" fill="none" xmlns="http://www.w3.org/2000/svg"><path d="M16.438 151.771s1.794-7.809 4.598-14.642c1.988-4.832 8.486-14.71 8.486-14.71l4.293-32.122 17.616 7.47-13.964 34.221-16.098 22.621-2.922.051-2.01-2.889z" fill="#C54F67"/><path d="M16.438 151.772s.289-1.311.85-3.308c.8-2.909 5.91 3.559 5.91 3.559l-1.857 2.587-2.923.051-1.98-2.889z" fill="#9779D3"/><path d="M61.595 53.904s4.738 9.625 8.897 25.08c1.76 6.555 10.247 16.228 10.247 16.228.35.505.106 1.218-.486 1.428-1.327.42-1.692.654-4.552 2.662-1.122.786-2.161-.19-2.422-.497-1.913-2.266-6.548-5.989-9.416-10.934-1.962-3.43-2.535-8.642-2.975-9.43a.833.833 0 01-.121-.451c.009-2.725.112-27.735.828-24.086z" fill="#C32B4A"/><path d="M59.084 149.068c1.704 4.938 4.057 9.637 4.057 9.637l4.869.88-2.099-9.671c0 .029-8.503-5.784-6.827-.846z" fill="#9779D3"/><path d="M33.07 83.327S50.3 114.28 50.828 120.09c.63 6.83.525 10.55 2.2 15.488 1.705 4.938 6.14 18.344 6.14 18.344s2.94.914 4.869.88l3.887-.068-11.94-72.6-22.915 1.194z" fill="#C32B4A"/><path d="M36.983 50.445c-2.855 3.939-5.825 22.47-6.291 28.269-.796 9.721-1.557 21.373-1.557 21.373l33.087 4.276s1.1-47.593-.898-51.447c-2.026-3.825-21.486-6.41-24.341-2.47z" fill="#E1637D"/><path d="M16.37 147.884s2.787-7.827 5.563-14.659c1.988-4.832 8.486-14.71 8.486-14.71l4.293-32.123 17.616 7.47-13.965 34.222L24.23 152.6s-2.923.051-4.887-1.845l-2.973-2.871z" fill="#E1637D"/><path d="M29.272 163.214c-.265-.506-.9-1.148-1.993-1.924-3.938-2.855-3.972-4.785-4.97-6.697-.646-1.21-2.923.051-3.905-.897-.693-.669-1.394-1.821-1.746-2.439a.484.484 0 00-.684-.187c-.619.351-1.77 1.053-2.44 1.746-.696.721-.865 2.427-.878 3.336-.002-.114.025-.228.022-.369.518.388 8.915 6.628 12.706 7.499 1.938.448 3.414.423 3.888-.068z" fill="#0C0C0C"/><path d="M28.526 164.476c.056-.001.113-.03.17-.031.056-.03.14-.031.197-.061.029 0 .056-.029.085-.03l.169-.088h.028c.168-.117.28-.26.305-.431.025-.171-.036-.397-.154-.65-.474.49-1.92.516-3.887.067-3.79-.87-12.189-7.139-12.706-7.499 0 .029.005.256-.02.455.004.227-.02.454-.02.454s8.858 6.63 12.763 7.555c.228.053.427.106.626.131.057-.001.114.027.171.026l.427.077c.057-.001.114.027.171.026.17.025.342.051.512.048l.142-.003.312-.005.198-.004.227-.004a1.2 1.2 0 00.284-.033z" fill="#9CAEBC"/><path d="M78.418 162.384c-.46-.361-1.29-.687-2.6-.948-4.758-.995-5.583-2.741-7.281-4.074-1.066-.861-2.647 1.239-3.932.779-.972-.352-2.207-1.211-2.725-1.599a.32.32 0 00-.453.064c-.388.518-1.246 1.754-1.599 2.725-.324.942.216 2.579.542 3.397-.03-.113-.089-.226-.12-.339.628.131 10.858 2.394 14.677 1.646 1.952-.375 3.275-.994 3.519-1.651" fill="#0C0C0C"/><path d="M78.248 163.863c.056-.029.084-.058.14-.087a.633.633 0 00.14-.116c.028-.029.056-.03.056-.058.056-.058.084-.086.11-.144v-.028a.683.683 0 00.105-.513c-.06-.169-.176-.337-.406-.504-.244.657-1.54 1.276-3.52 1.651-3.819.748-14.049-1.514-14.675-1.645 0 .028.089.225.177.422.09.226.178.423.178.423s10.8 2.423 14.733 1.673c.227-.032.424-.093.622-.124.057-.001.113-.031.17-.032.141-.031.282-.09.424-.121.056-.029.113-.03.17-.059.168-.06.338-.12.479-.151.056-.029.085-.03.14-.059.114-.03.198-.089.283-.118l.169-.088c.056-.03.14-.06.196-.118.14-.087.225-.145.309-.204z" fill="#9CAEBC"/><path d="M37.922 50.713a1.413 1.413 0 00-1.526.424c-2.615 3.026-12.962 15.214-16.478 21.917-4.643 8.852-6.59 20.95-7.143 24.962-.1.768.422 1.469 1.163 1.598l2.335.413c.683.13 1.358-.25 1.602-.908 1.249-3.257 5.056-12.805 8.96-18.465 4.734-6.867 15.928-19.296 16.955-23.884.79-3.505-3.813-5.412-5.868-6.057z" fill="#E1637D"/><path d="M48.044 48.492c-.682-.073-1.211.532-1.057 1.21 1.224 5.06 5.064 23.444.358 38.429-1.774 5.65-3.578 9.685-4.647 11.86-.438.888.148 1.957 1.144 2.081l9.785 1.164a1.457 1.457 0 001.57-1.078c1.118-4.249 4.799-11.324 4.409-33.657-.136-7.775-5.191-19.325-5.191-19.325l-6.37-.684z" fill="#272727"/><path d="M42.512 89.18c-1.93.034-6.782.118-9.04-.722-.628-.245-.89-.58-.915-.41-.536 1.798-.593 5.063-.597 6.482.007.398.323.62.695.755 2.257.84 7.11.755 9.04.722.964-.017 1.392-4.765 1.277-6.466-.06-.198-.375-.362-.46-.361z" fill="#C32B4A"/><path d="M49.404 38.59l-1.743 10.704s.033 1.93 3.938 2.855c2.11.502 2.907-1.016 2.907-1.016l.795-9.722-5.897-2.82z" fill="#FFDEE8"/><path d="M47.33 31.814s-.393 8.352 2.133 11.6c2.99 3.837 6.816 1.812 7.775-.135.96-1.947 1.743-10.704 1.743-10.704l-11.65-.761z" fill="#FFDEE8"/><path d="M58.48 36.473l1.452 3.438a.305.305 0 01-.277.43l-2.071.037a.314.314 0 01-.319-.364l.62-3.474c.08-.285.477-.349.596-.067z" fill="#FFDEE8"/><path d="M54.192 34.618c1.362-.024 1.93-.034 2.94.914.981.948 1.929-.034 1.929-.034s1.862-3.921.88-4.87c-.982-.948-4.903-2.837-6.833-2.804-1.93.034-1.913.999-2.906 1.016-.965.017-3.87 1.033-4.801 3.008-.932 1.946 1.083 6.765 1.083 6.765l2.014 4.819.948-.982s-1.016-2.906-1.05-4.836c-.033-1.93 1.896-1.963 1.93-.033.017.964.982.947 1.947.93.964-.016-.04-3.86 1.919-3.893z" fill="#0C0C0C"/><path d="M13.566 99.393s-1.594 2.98-1.862 3.921c-.914 2.94.102 5.818 1.083 6.766.982.948 1.93-.034 1.93-.034l.863-5.834s.558 1.069.859 2.029c.09.31 1.15.831 1.116-1.098l-.101-5.818-3.888.068zm61.15-1.067l3.837-2.99s.273 1.016.998 1.912c.842 1.064 2.79 2.137 3.956 3.82 1.98 2.889.594 4.758-.372 4.747-.965-.012-3.781-3.624-3.781-3.624s2.107 2.035 1.142 2.023c-.682-.016-2.999-1.054-3.615-2.207-.236-.479-2.165-3.681-2.165-3.681z" fill="#FFDEE8"/><rect x="128.98" width="66.917" height="164.156" rx="3" fill="url(#paint0_linear)"/><rect x="129.98" y="1" width="64.917" height="162.156" rx="2" stroke="#fff" stroke-opacity=".5" stroke-width="2" style="mix-blend-mode:soft-light"/><rect x="133.162" y="13.593" width="58.553" height="12.547" rx="1" fill="#83B5ED" fill-opacity=".5" style="mix-blend-mode:multiply"/><rect x="133.162" y="30.322" width="58.553" height="12.547" rx="1" fill="#83B5ED" fill-opacity=".5" style="mix-blend-mode:multiply"/><rect x="133.162" y="47.051" width="58.553" height="12.547" rx="1" fill="#83B5ED" fill-opacity=".5" style="mix-blend-mode:multiply"/><rect x="133.162" y="63.781" width="58.553" height="12.547" rx="1" fill="#83B5ED" fill-opacity=".5" style="mix-blend-mode:multiply"/><rect x="133.162" y="80.51" width="58.553" height="12.547" rx="1" fill="#83B5ED" fill-opacity=".5" style="mix-blend-mode:multiply"/><rect x="133.162" y="97.239" width="58.553" height="12.547" rx="1" fill="#83B5ED" fill-opacity=".5" style="mix-blend-mode:multiply"/><rect x="133.162" y="113.968" width="58.553" height="12.547" rx="1" fill="#83B5ED" fill-opacity=".5" style="mix-blend-mode:multiply"/><rect x="133.162" y="130.698" width="58.553" height="12.547" rx="1" fill="#83B5ED" fill-opacity=".5" style="mix-blend-mode:multiply"/><rect x="166.621" y="18.82" width="19.866" height="2.091" rx="1" fill="#fff"/><rect x="166.621" y="35.55" width="19.866" height="2.091" rx="1" fill="#fff"/><rect x="166.621" y="52.279" width="19.866" height="2.091" rx="1" fill="#fff"/><rect x="166.621" y="69.008" width="19.866" height="2.091" rx="1" fill="#fff"/><rect x="166.621" y="85.738" width="19.866" height="2.091" rx="1" fill="#fff"/><rect x="166.621" y="102.467" width="19.866" height="2.091" rx="1" fill="#fff"/><rect x="166.621" y="119.196" width="19.866" height="2.091" rx="1" fill="#fff"/><rect x="166.621" y="135.926" width="19.866" height="2.091" rx="1" fill="#fff"/><rect x="206.353" y="58.553" width="83.647" height="105.604" rx="3" fill="url(#paint1_linear)"/><rect x="207.353" y="59.553" width="81.647" height="103.604" rx="2" stroke="#fff" stroke-opacity=".5" stroke-width="2" style="mix-blend-mode:soft-light"/><rect x="211.581" y="63.781" width="73.191" height="12.547" rx="1" fill="#83B5ED" fill-opacity=".5" style="mix-blend-mode:multiply"/><rect x="211.581" y="80.51" width="73.191" height="12.547" rx="1" fill="#83B5ED" fill-opacity=".5" style="mix-blend-mode:multiply"/><rect x="211.581" y="97.239" width="73.191" height="12.547" rx="1" fill="#83B5ED" fill-opacity=".5" style="mix-blend-mode:multiply"/><rect x="211.581" y="113.968" width="73.191" height="12.547" rx="1" fill="#83B5ED" fill-opacity=".5" style="mix-blend-mode:multiply"/><rect x="211.581" y="130.698" width="73.191" height="12.547" rx="1" fill="#83B5ED" fill-opacity=".5" style="mix-blend-mode:multiply"/><rect x="218.116" y="69.008" width="24.833" height="2.091" rx="1" fill="#fff"/><rect x="218.116" y="85.738" width="24.833" height="2.091" rx="1" fill="#fff"/><rect x="218.116" y="102.467" width="24.833" height="2.091" rx="1" fill="#fff"/><rect x="218.116" y="119.196" width="24.833" height="2.091" rx="1" fill="#fff"/><rect x="218.116" y="135.926" width="24.833" height="2.091" rx="1" fill="#fff"/><path d="M0 170a6 6 0 016-6h288a6 6 0 016 6H0z" fill="#2E3144"/><defs><linearGradient id="paint0_linear" x1="414.091" y1="52.1" x2="-482.779" y2="462.82" gradientUnits="userSpaceOnUse"><stop offset=".067" stop-color="#fff"/><stop offset=".463" stop-color="#81B4ED"/></linearGradient><linearGradient id="paint1_linear" x1="562.742" y1="92.069" x2="-194.155" y2="765.574" gradientUnits="userSpaceOnUse"><stop offset=".067" stop-color="#fff"/><stop offset=".463" stop-color="#81B4ED"/></linearGradient></defs></svg>