<svg width="40" height="40" fill="none" xmlns="http://www.w3.org/2000/svg"><path d="M1.843 1.969c-.806 0-1.474.668-1.474 1.474v26.541c0 .807.668 1.475 1.474 1.475h12.534v1.474h-3.042c-1.192 0-2.12 1.023-2.12 2.212v2.212h19.17v-2.212c0-1.19-.928-2.212-2.12-2.212h-3.041V31.46h12.533c.806 0 1.474-.668 1.474-1.475V3.444c0-.807-.668-1.475-1.474-1.475H1.843zm0 1.474h33.914v26.541H22.625a.751.751 0 00-.3 0h-7.073a.751.751 0 00-.3 0H1.844V3.444zm2.95 1.475c-.807 0-1.475.668-1.475 1.474v17.694c0 .807.668 1.475 1.474 1.475h28.016c.806 0 1.474-.668 1.474-1.475V6.392c0-.806-.668-1.474-1.474-1.474H4.792zm0 1.474h28.015v17.694H4.792V6.392zm11.703.737a.74.74 0 00-.599.507l-2.788 8.34H5.53v1.475h8.11a.736.736 0 00.692-.507l2.096-6.29 2.396 11.382a.74.74 0 00.567.561.742.742 0 00.746-.285l3.48-4.861h8.455v-1.475h-8.847a.735.735 0 00-.6.3l-2.718 3.801-2.604-12.372a.738.738 0 00-.806-.576zm15.575 19.169a1.474 1.474 0 100 2.95 1.474 1.474 0 100-2.95zm-16.22 5.16h5.898v1.475h-5.898V31.46zm-4.516 2.95h14.93c.343 0 .645.302.645.737v.737H10.69v-.737c0-.435.303-.737.645-.737z" fill="#fff"/><path fill-rule="evenodd" clip-rule="evenodd" d="M0 3.443C0 2.433.833 1.6 1.843 1.6h33.914c1.01 0 1.843.833 1.843 1.843v26.541c0 1.01-.833 1.843-1.843 1.843H23.592v.738h2.673c1.416 0 2.488 1.208 2.488 2.58v2.58H8.847v-2.58c0-1.372 1.072-2.58 2.488-2.58h2.673v-.738H1.843A1.853 1.853 0 010 29.984V3.444zm1.843-1.106c-.603 0-1.106.503-1.106 1.106v26.541c0 .603.503 1.106 1.106 1.106h12.902v2.212h-3.41c-.968 0-1.75.836-1.75 1.843v1.843h18.43v-1.843c0-1.007-.782-1.843-1.75-1.843h-3.41V31.09h12.902c.603 0 1.106-.503 1.106-1.106V3.444c0-.604-.503-1.107-1.106-1.107H1.843zm-.368.737h34.65v27.279H22.588l-.037-.008a.383.383 0 00-.15 0l-.037.008h-7.149l-.036-.008a.383.383 0 00-.151 0l-.037.008H1.475V3.074zm.737.738v25.804h12.707c.12-.02.246-.02.367 0h7.005c.121-.02.246-.02.367 0h12.73V3.812H2.212zM32.07 25.929a1.842 1.842 0 110 3.687 1.842 1.842 0 110-3.687zm0 0h.737c1.01 0 1.843-.833 1.843-1.843V6.392c0-1.01-.833-1.843-1.843-1.843H4.792c-1.01 0-1.843.833-1.843 1.843v17.694c0 1.01.833 1.843 1.843 1.843h27.279zM4.792 5.286c-.603 0-1.106.503-1.106 1.106v17.694c0 .603.503 1.106 1.106 1.106h28.016c.603 0 1.106-.503 1.106-1.106V6.392c0-.603-.503-1.106-1.106-1.106H4.792zm-.368.738h28.752v18.43H4.424V6.025zm.737.737v8.847h7.683l2.703-8.086c.13-.405.48-.697.896-.757l.006-.001h.005a.09.09 0 01.023-.003H5.161zm11.525 0c.47.044.872.386.977.866v.002l2.43 11.552 2.235-3.125c.21-.282.541-.452.898-.448h9.213V6.76H16.686zM5.16 23.718h27.278V17.82h-8.634l-3.372 4.712a1.11 1.11 0 01-1.116.427l-.004-.001a1.109 1.109 0 01-.85-.841v-.005l-2.117-10.05-1.665 4.997a1.105 1.105 0 01-1.038.76H5.16v5.899zM16.543 7.495a.37.37 0 00-.295.253l-.001.005-2.872 8.592H5.898v.737h7.74a.367.367 0 00.342-.253v-.002l2.527-7.58 2.676 12.71c.032.14.142.249.283.28a.374.374 0 00.373-.142l3.587-5.013h8.276v-.737h-8.483a.367.367 0 00-.297.149l-3.204 4.48-2.776-13.19v-.001a.369.369 0 00-.399-.288zm15.528 19.172a1.105 1.105 0 10-.002 2.21 1.105 1.105 0 00.002-2.21zM15.482 31.09h6.636v2.212h-6.636V31.09zm.738.737v.738h5.16v-.738h-5.16zm-4.885 2.95c-.107 0-.276.104-.276.368v.369H26.54v-.369c0-.264-.169-.369-.276-.369h-14.93zm-1.013.368c0-.605.436-1.106 1.013-1.106h14.93c.578 0 1.013.5 1.013 1.106v1.106H10.322v-1.106z" fill="#fff"/></svg>