<svg width="40" height="40" fill="none" xmlns="http://www.w3.org/2000/svg"><path d="M18.8.369a3.697 3.697 0 00-3.686 3.686c0 1.025.423 1.955 1.106 2.626l-5.668 8.71a3.632 3.632 0 00-1.336-.277A3.697 3.697 0 005.53 18.8c0 1.342.74 2.511 1.82 3.156l-2.765 7.949a3.59 3.59 0 00-.53-.046 3.697 3.697 0 00-3.686 3.686 3.697 3.697 0 003.686 3.686 3.697 3.697 0 003.686-3.686c0-1.322-.72-2.482-1.774-3.133l2.788-7.972c.153.02.302.046.46.046.16 0 .309-.026.462-.046l2.81 7.949c-1.068.648-1.797 1.823-1.797 3.156a3.697 3.697 0 003.687 3.686 3.697 3.697 0 003.686-3.686 3.697 3.697 0 00-3.686-3.686c-.168 0-.323.023-.484.046l-2.811-7.949c1.08-.645 1.82-1.814 1.82-3.156a3.675 3.675 0 00-1.106-2.626l5.668-8.71c.417.165.86.277 1.336.277.475 0 .919-.112 1.336-.276l5.668 8.709a3.675 3.675 0 00-1.106 2.626c0 1.342.74 2.511 1.82 3.156l-2.81 7.949c-.162-.023-.317-.046-.484-.046a3.697 3.697 0 00-3.687 3.686 3.697 3.697 0 003.687 3.686 3.697 3.697 0 003.686-3.686c0-1.333-.729-2.508-1.797-3.156l2.81-7.949c.153.02.303.046.461.046.159 0 .308-.026.461-.046l2.788 7.972c-1.054.65-1.774 1.811-1.774 3.133a3.697 3.697 0 003.686 3.686 3.697 3.697 0 003.686-3.686 3.697 3.697 0 00-3.686-3.686c-.181 0-.354.02-.53.046l-2.764-7.949c1.08-.645 1.82-1.814 1.82-3.156a3.697 3.697 0 00-3.687-3.686c-.475 0-.918.112-1.336.276l-5.667-8.709a3.675 3.675 0 001.105-2.626A3.697 3.697 0 0018.8.369zm0 1.474c1.23 0 2.212.982 2.212 2.212 0 1.23-.982 2.212-2.212 2.212a2.201 2.201 0 01-2.212-2.212c0-1.23.982-2.212 2.212-2.212zM9.216 16.588c1.23 0 2.212.982 2.212 2.212 0 1.23-.983 2.212-2.212 2.212A2.201 2.201 0 017.004 18.8c0-1.23.982-2.212 2.212-2.212zm19.168 0c1.23 0 2.212.982 2.212 2.212 0 1.23-.982 2.212-2.212 2.212a2.201 2.201 0 01-2.211-2.212c0-1.23.982-2.212 2.211-2.212zM4.055 31.333c1.23 0 2.212.982 2.212 2.212 0 1.23-.982 2.212-2.212 2.212a2.201 2.201 0 01-2.212-2.212c0-1.23.982-2.212 2.212-2.212zm10.322 0a2.2 2.2 0 012.211 2.212c0 1.23-.982 2.212-2.211 2.212a2.201 2.201 0 01-2.212-2.212c0-1.23.982-2.212 2.212-2.212zm8.847 0a2.2 2.2 0 012.211 2.212c0 1.23-.982 2.212-2.211 2.212a2.201 2.201 0 01-2.212-2.212c0-1.23.982-2.212 2.212-2.212zm10.321 0c1.23 0 2.212.982 2.212 2.212 0 1.23-.982 2.212-2.212 2.212a2.201 2.201 0 01-2.212-2.212c0-1.23.983-2.212 2.212-2.212z" fill="#fff"/><path fill-rule="evenodd" clip-rule="evenodd" d="M14.745 4.055A4.066 4.066 0 0118.8 0a4.066 4.066 0 014.055 4.055c0 1.02-.381 1.954-1.008 2.668l5.35 8.222c.369-.12.764-.2 1.187-.2A4.066 4.066 0 0132.44 18.8c0 1.373-.702 2.577-1.745 3.308l2.572 7.395a3.15 3.15 0 01.28-.013 4.066 4.066 0 014.054 4.055 4.066 4.066 0 01-4.055 4.055 4.066 4.066 0 01-4.055-4.055 4.05 4.05 0 011.7-3.28l-2.594-7.421a2.2 2.2 0 01-.424 0l-2.616 7.396a4.066 4.066 0 011.722 3.305 4.066 4.066 0 01-4.054 4.055 4.066 4.066 0 01-4.055-4.055 4.066 4.066 0 014.055-4.055c.08 0 .16.005.235.012l2.615-7.395c-1.043-.73-1.745-1.934-1.745-3.307 0-1.02.381-1.954 1.008-2.668l-5.35-8.222c-.369.12-.764.2-1.187.2-.423 0-.818-.08-1.187-.2l-5.35 8.222a4.036 4.036 0 011.008 2.668c0 1.373-.702 2.576-1.745 3.307l2.615 7.395c.075-.007.154-.012.236-.012a4.066 4.066 0 014.054 4.055 4.066 4.066 0 01-4.055 4.055 4.066 4.066 0 01-4.054-4.055c0-1.362.689-2.57 1.722-3.305l-2.616-7.396a2.221 2.221 0 01-.424 0l-2.595 7.42a4.051 4.051 0 011.7 3.281A4.066 4.066 0 014.056 37.6 4.066 4.066 0 010 33.545a4.066 4.066 0 014.055-4.055c.096 0 .19.005.28.013l2.571-7.395c-1.043-.73-1.745-1.935-1.745-3.308a4.066 4.066 0 014.055-4.055c.423 0 .818.08 1.186.2l5.35-8.222a4.036 4.036 0 01-1.007-2.668zM18.8.737a3.328 3.328 0 00-3.318 3.318c0 .921.38 1.758.996 2.364l.215.21-5.996 9.214-.28-.11a3.264 3.264 0 00-1.201-.25A3.328 3.328 0 005.898 18.8c0 1.202.663 2.256 1.64 2.84l.258.154-2.963 8.52-.302-.044a3.229 3.229 0 00-.476-.043 3.329 3.329 0 00-3.318 3.318 3.328 3.328 0 003.318 3.318 3.328 3.328 0 003.318-3.318c0-1.184-.646-2.23-1.6-2.82l-.252-.155 2.985-8.535.297.04.097.013c.121.017.214.03.316.03.101 0 .194-.013.315-.03l.097-.013.296-.04 3.01 8.514-.256.155a3.338 3.338 0 00-1.62 2.841 3.328 3.328 0 003.319 3.318 3.328 3.328 0 003.317-3.318 3.329 3.329 0 00-3.317-3.318c-.136 0-.264.019-.428.042l-.303.044-3.012-8.518.259-.155c.977-.584 1.64-1.638 1.64-2.84a3.31 3.31 0 00-.995-2.364l-.215-.21 5.996-9.214.28.11c.388.152.785.25 1.201.25.416 0 .813-.098 1.201-.25l.28-.11 5.996 9.213-.215.211a3.306 3.306 0 00-.995 2.364c0 1.202.663 2.256 1.64 2.84l.26.155-3.013 8.517-.303-.043a2.983 2.983 0 00-.427-.042 3.329 3.329 0 00-3.318 3.318 3.328 3.328 0 003.318 3.318 3.328 3.328 0 003.317-3.318 3.338 3.338 0 00-1.62-2.841l-.256-.155 3.01-8.513.297.039.097.013c.121.017.214.03.315.03.102 0 .195-.013.316-.03l.097-.013.297-.04 2.985 8.535-.253.155c-.953.59-1.599 1.636-1.599 2.82a3.328 3.328 0 003.318 3.318 3.328 3.328 0 003.318-3.318 3.328 3.328 0 00-3.318-3.318c-.155 0-.307.018-.476.043l-.302.044-2.963-8.52.258-.154c.977-.584 1.64-1.638 1.64-2.84a3.328 3.328 0 00-3.318-3.318c-.416 0-.813.099-1.201.251l-.28.11-5.996-9.213.215-.212a3.306 3.306 0 00.996-2.363A3.328 3.328 0 0018.8.737zm0 1.475a1.833 1.833 0 00-1.843 1.843c0 1.026.817 1.843 1.843 1.843a1.833 1.833 0 001.843-1.843A1.833 1.833 0 0018.8 2.212zm-2.58 1.843a2.57 2.57 0 012.58-2.58 2.57 2.57 0 012.58 2.58 2.57 2.57 0 01-2.58 2.58 2.57 2.57 0 01-2.58-2.58zM9.216 16.957A1.833 1.833 0 007.373 18.8c0 1.026.817 1.843 1.843 1.843a1.833 1.833 0 001.843-1.843 1.833 1.833 0 00-1.843-1.843zM6.636 18.8a2.57 2.57 0 012.58-2.58 2.57 2.57 0 012.58 2.58 2.57 2.57 0 01-2.58 2.58 2.57 2.57 0 01-2.58-2.58zm21.748-1.843a1.833 1.833 0 00-1.843 1.843c0 1.026.817 1.843 1.843 1.843a1.833 1.833 0 001.843-1.843 1.833 1.833 0 00-1.843-1.843zm-2.58 1.843a2.57 2.57 0 012.58-2.58 2.57 2.57 0 012.58 2.58 2.57 2.57 0 01-2.58 2.58 2.57 2.57 0 01-2.58-2.58zM4.054 31.702a1.833 1.833 0 00-1.842 1.843c0 1.026.817 1.843 1.843 1.843a1.833 1.833 0 001.843-1.843 1.833 1.833 0 00-1.843-1.843zm-2.58 1.843a2.57 2.57 0 012.58-2.58 2.57 2.57 0 012.581 2.58 2.57 2.57 0 01-2.58 2.58 2.57 2.57 0 01-2.58-2.58zm12.902-1.843a1.833 1.833 0 00-1.843 1.843c0 1.026.817 1.843 1.844 1.843a1.833 1.833 0 001.843-1.843 1.833 1.833 0 00-1.843-1.843zm-2.58 1.843a2.57 2.57 0 012.58-2.58 2.57 2.57 0 012.58 2.58 2.57 2.57 0 01-2.58 2.58 2.57 2.57 0 01-2.58-2.58zm11.428-1.843a1.833 1.833 0 00-1.844 1.843c0 1.026.817 1.843 1.844 1.843a1.833 1.833 0 001.843-1.843 1.833 1.833 0 00-1.843-1.843zm-2.58 1.843a2.57 2.57 0 012.58-2.58 2.57 2.57 0 012.58 2.58 2.57 2.57 0 01-2.58 2.58 2.57 2.57 0 01-2.58-2.58zm12.901-1.843a1.833 1.833 0 00-1.843 1.843c0 1.026.817 1.843 1.843 1.843a1.833 1.833 0 001.843-1.843 1.833 1.833 0 00-1.843-1.843zm-2.58 1.843a2.57 2.57 0 012.58-2.58 2.57 2.57 0 012.58 2.58 2.57 2.57 0 01-2.58 2.58 2.57 2.57 0 01-2.58-2.58z" fill="#fff"/></svg>