<svg width="80" height="80" fill="none" xmlns="http://www.w3.org/2000/svg"><path d="M58.2 55c-3.748 0-6.798-3.14-6.798-7s3.05-7 6.798-7c4.894 0 6.8 1.214 6.8 4.334C65 48.676 63.578 55 58.2 55zm-36.4 0c-5.378 0-6.8-6.324-6.8-9.666C15 42.216 16.906 41 21.8 41c3.748 0 6.798 3.14 6.798 7s-3.05 7-6.798 7z" fill="#DFF0FE"/><path d="M58.2 42c5.356 0 5.8 1.576 5.8 3.334C64 48.33 62.788 54 58.2 54c-3.198 0-5.8-2.692-5.8-6s2.602-6 5.8-6zm-36.4 0c3.198 0 5.8 2.692 5.8 6s-2.602 6-5.8 6c-4.588 0-5.8-5.67-5.8-8.666 0-1.758.444-3.334 5.8-3.334zm36.4-2c-4.308 0-7.8 3.582-7.8 8s3.492 8 7.8 8c5.806 0 7.8-6.248 7.8-10.666S62.508 40 58.2 40zm-36.4 0c-4.308 0-7.8.916-7.8 5.334C14 49.752 16.01 56 21.8 56c4.308 0 7.8-3.582 7.8-8s-3.492-8-7.8-8z" fill="#4788C7"/><path d="M40 77c-2.538 0-4.892-1.054-6.63-2.966l-.17-.186-.234-.084C24.612 70.792 19 62.848 19 54V24.762c0-5.23 4.254-9.486 9.484-9.486h23.032c5.23 0 9.484 4.254 9.484 9.486V54c0 8.848-5.612 16.792-13.964 19.764l-.236.084-.17.186C44.892 75.946 42.538 77 40 77z" fill="#fff"/><path d="M51.516 16.278c4.678 0 8.484 3.806 8.484 8.484V54c0 8.426-5.344 15.99-13.3 18.824l-.472.168-.336.37C44.342 75.062 42.25 76 40 76c-2.25 0-4.342-.938-5.892-2.638l-.336-.37-.472-.168C25.344 69.99 20 62.426 20 54V24.762c0-4.678 3.806-8.484 8.484-8.484h23.032zm0-2H28.484C22.694 14.278 18 18.972 18 24.762V54c0 9.56 6.11 17.674 14.63 20.708C34.458 76.716 37.068 78 40 78c2.932 0 5.542-1.284 7.37-3.292C55.89 71.674 62 63.56 62 54V24.762c0-5.79-4.694-10.484-10.484-10.484z" fill="#4788C7"/><path d="M60 36v12h2s2-4 2-12h-4zm-40 0v12h-2s-2-4-2-12h4zm31 14a3 3 0 100-6 3 3 0 000 6zm-22 0a3 3 0 100-6 3 3 0 000 6z" fill="#4788C7"/><path d="M40 43c12.703 0 23-3.134 23-7s-10.297-7-23-7-23 3.134-23 7 10.297 7 23 7z" fill="#98CCFD"/><path d="M40 30c14.234 0 22 3.964 22 6s-7.766 6-22 6-22-3.964-22-6 7.766-6 22-6zm0-2c-13.254 0-24 3.582-24 8s10.746 8 24 8 24-3.582 24-8-10.746-8-24-8z" fill="#4788C7"/><path d="M16.162 25c-.702-.24-4.008-1.466-6.338-3.936C8.028 19.164 7 16.68 7 14.25 7 5.022 30.822 3 40 3s33 2.022 33 11.25c0 2.43-1.028 4.914-2.822 6.814-2.332 2.47-5.638 3.696-6.338 3.936H16.162z" fill="#98CCFD"/><path d="M40 4c13.288 0 32 3.18 32 10.25 0 2.178-.93 4.41-2.55 6.128-2.04 2.162-4.916 3.312-5.782 3.622H16.332c-.866-.314-3.754-1.472-5.784-3.622C8.93 18.66 8 16.428 8 14.25 8 7.18 26.712 4 40 4zm0-2C30.556 2 6 4 6 14.25c0 2.424.932 5.208 3.094 7.5C11.926 24.75 16 26 16 26h48s4.074-1.25 6.906-4.25C73.068 19.458 74 16.674 74 14.25 74 4 49.444 2 40 2z" fill="#4788C7"/><path d="M64 24H16v12h48V24z" fill="#4788C7"/><path d="M22 30h-4v4h4v-4zm4-4h-4v4h4v-4zm4 4h-4v4h4v-4zm4-4h-4v4h4v-4zm4 4h-4v4h4v-4zm4-4h-4v4h4v-4zm4 4h-4v4h4v-4zm4-4h-4v4h4v-4zm4 4h-4v4h4v-4zm4-4h-4v4h4v-4zm4 4h-4v4h4v-4z" fill="#DFF0FE"/><path d="M46 14H34v12h12V14z" fill="#fff"/><path d="M40 11.5L31.5 20l8.5 8.5 8.499-8.5-8.5-8.5z" fill="#fff"/><path d="M40 24a4 4 0 100-8 4 4 0 000 8z" fill="#4788C7"/><path d="M40 22a2 2 0 100-4 2 2 0 000 4z" fill="#fff"/></svg>