<svg width="20" height="20" fill="none" xmlns="http://www.w3.org/2000/svg"><path d="M4.667 2a.667.667 0 100 1.333.667.667 0 000-1.333zm2.666 0a.667.667 0 100 1.333.667.667 0 000-1.333zM10 2a.667.667 0 100 1.333A.667.667 0 0010 2zm2.667 0a.667.667 0 100 1.333.667.667 0 000-1.333zm2.666 0a.667.667 0 100 1.333.667.667 0 000-1.333zM4 4.667c-.735 0-1.333.598-1.333 1.333v8c0 .735.598 1.333 1.333 1.333h12c.735 0 1.333-.598 1.333-1.333V6c0-.735-.598-1.333-1.333-1.333H4zM15.333 6a.667.667 0 110 1.334.667.667 0 010-1.334zM6 10.667a1.333 1.333 0 110 2.666 1.333 1.333 0 010-2.666zm-1.333 6a.667.667 0 100 1.333.667.667 0 000-1.333zm2.666 0a.667.667 0 100 1.333.667.667 0 000-1.333zm2.667 0A.667.667 0 1010 18a.667.667 0 000-1.333zm2.667 0a.667.667 0 100 1.333.667.667 0 000-1.333zm2.666 0a.667.667 0 100 1.333.667.667 0 000-1.333z" fill="#0089FC"/></svg>