<svg width="64" height="64" fill="none" xmlns="http://www.w3.org/2000/svg"><path fill-rule="evenodd" clip-rule="evenodd" d="M22.872 20.604l11.599 7.836L52.84 8.254H39.048V7h15.861v15.798h-1.254V9.194L34.66 30.071l-11.662-7.836L6.071 40.35l-.94-.815 17.741-18.933zM60.05 56.148v1.254H3v-1.254h5.329V45.68h1.254v10.47h6.269V38.784h1.254v17.365h6.269V30.634h1.253V56.15h6.27V37.53h1.253v18.62h6.27V33.77h1.254v22.38h6.269V25.62h1.253v30.53h6.27V30.007h1.253V56.15h5.33z" fill="#fff"/><path d="M22.872 20.604l.56-.83-.706-.476-.583.622.73.683zm11.599 7.836l-.56.828.717.485.582-.64-.74-.673zM52.84 8.254l.74.673 1.522-1.673H52.84v1zm-13.792 0h-1v1h1v-1zm0-1.254V6h-1v1h1zm15.861 0h1V6h-1v1zm0 15.798v1h1v-1h-1zm-1.254 0h-1v1h1v-1zm0-13.604h1V6.61l-1.74 1.912.74.673zM34.66 30.071l-.558.83.717.482.58-.639-.739-.673zm-11.662-7.836l.558-.83-.707-.475-.581.622.73.683zM6.071 40.35l-.656.756.728.631.658-.704-.73-.683zm-.94-.815l-.73-.684-.711.758.785.681.655-.755zm54.918 16.613h1v-1h-1v1zm0 1.254v1h1v-1h-1zM3 57.403H2v1h1v-1zm0-1.254v-1H2v1h1zm5.329 0v1h1v-1h-1zm0-10.469v-1h-1v1h1zm1.254 0h1v-1h-1v1zm0 10.469h-1v1h1v-1zm6.269 0v1h1v-1h-1zm0-17.365v-1h-1v1h1zm1.254 0h1v-1h-1v1zm0 17.365h-1v1h1v-1zm6.269 0v1h1v-1h-1zm0-25.515v-1h-1v1h1zm1.253 0h1v-1h-1v1zm0 25.515h-1v1h1v-1zm6.27 0v1h1v-1h-1zm0-18.619v-1h-1v1h1zm1.253 0h1v-1h-1v1zm0 18.619h-1v1h1v-1zm6.27 0v1h1v-1h-1zm0-22.38v-1h-1v1h1zm1.254 0h1v-1h-1v1zm0 22.38h-1v1h1v-1zm6.269 0v1h1v-1h-1zm0-30.53v-1h-1v1h1zm1.253 0h1v-1h-1v1zm0 30.53h-1v1h1v-1zm6.27 0v1h1v-1h-1zm0-26.142v-1h-1v1h1zm1.253 0h1v-1h-1v1zm0 26.142h-1v1h1v-1zM22.313 21.432l11.598 7.836 1.12-1.657-11.599-7.836-1.12 1.657zm12.897 7.68L53.58 8.928 52.1 7.58 33.73 27.767l1.48 1.346zM52.84 7.255H39.048v2H52.84v-2zm-12.792 1V7h-2v1.254h2zm-1-.254h15.861V6H39.048v2zm14.861-1v15.798h2V7h-2zm1 14.798h-1.254v2h1.254v-2zm-.254 1V9.194h-2v13.604h2zM52.915 8.52L33.92 29.398l1.479 1.346L54.395 9.867l-1.48-1.346zM35.217 29.24l-11.662-7.836-1.115 1.66L34.1 30.9l1.116-1.66zm-12.95-7.69L5.34 39.67l1.46 1.364 16.927-18.117-1.461-1.365zM6.726 39.597l-.94-.816-1.31 1.511.94.816 1.31-1.511zm-.866.623l17.742-18.932-1.46-1.367-17.74 18.931 1.459 1.367zm53.19 15.93v1.254h2V56.15h-2zm1 .254H3v2h57.05v-2zm-56.05 1V56.15H2v1.254h2zm-1-.254h5.329v-2H3v2zm6.329-1V45.68h-2v10.47h2zm-1-9.469h1.254v-2H8.329v2zm.254-1V56.15h2V45.68h-2zm1 11.469h6.269v-2h-6.27v2zm7.269-1V38.784h-2v17.365h2zm-1-16.365h1.254v-2h-1.254v2zm.254-1V56.15h2V38.784h-2zm1 18.365h6.269v-2h-6.27v2zm7.269-1V30.634h-2V56.15h2zm-1-24.515h1.253v-2h-1.253v2zm.253-1V56.15h2V30.634h-2zm1 26.515h6.27v-2h-6.27v2zm7.27-1V37.53h-2v18.62h2zm-1-17.619h1.253v-2h-1.253v2zm.253-1V56.15h2V37.53h-2zm1 19.619h6.27v-2h-6.27v2zm7.27-1V33.77h-2v22.38h2zm-1-21.38h1.254v-2H38.42v2zm.254-1v22.38h2V33.77h-2zm1 23.38h6.269v-2h-6.27v2zm7.269-1V25.62h-2v30.53h2zm-1-29.53h1.253v-2h-1.253v2zm.253-1v30.53h2V25.62h-2zm1 31.53h6.27v-2h-6.27v2zm7.27-1V30.007h-2V56.15h2zm-1-25.142h1.253v-2h-1.253v2zm.253-1V56.15h2V30.007h-2zm1 27.142h5.33v-2h-5.33v2z" fill="#fff"/></svg>