<svg width="80" height="80" fill="none" xmlns="http://www.w3.org/2000/svg"><path d="M6.998 77a3.98 3.98 0 01-2.828-1.17A3.967 3.967 0 013 73.002a3.98 3.98 0 011.17-2.828L40.636 35.41l3.966 3.97L9.808 75.846A3.958 3.958 0 016.998 77z" fill="#98CCFD"/><path d="M40.62 36.81l2.586 2.588L9.118 75.122a2.98 2.98 0 01-2.12.878 2.98 2.98 0 01-2.12-.878c-1.168-1.168-1.168-3.07-.034-4.206L40.62 36.81zm.034-2.796L3.464 69.468a4.997 4.997 0 107.068 7.068L46 39.366l-5.346-5.352z" fill="#4788C7"/><path d="M52 53c-13.786 0-25-11.214-25-25S38.214 3 52 3s25 11.214 25 25-11.214 25-25 25z" fill="#DFF0FE"/><path d="M52 4c13.234 0 24 10.766 24 24S65.234 52 52 52 28 41.234 28 28 38.766 4 52 4zm0-2C37.64 2 26 13.64 26 28s11.64 26 26 26 26-11.64 26-26S66.36 2 52 2z" fill="#4788C7"/><path d="M60.607 43.5a2.862 2.862 0 01-2.768-2.044 2.862 2.862 0 01-.018-1.614c.323-1.132.193-2.447-.365-3.704l-2.18-4.904 1.564-.695c.519 1.186 1.897 4.33 2.469 5.546.548 1.166 1.67 1.595 2.34 1.851.174.066.324.119.427.181a2.908 2.908 0 011.424 2.492c0 .772-.301 1.499-.848 2.045a2.876 2.876 0 01-2.045.846z" fill="#98CCFD"/><path d="M56.456 31.53c.63 1.437 1.682 3.826 2.174 4.873h0c.677 1.443 2 1.947 2.741 2.229l.01.004h.001a12.391 12.391 0 01.307.123l.008.004s0 0 0 0a2.153 2.153 0 011.053 1.844 2.145 2.145 0 01-2.143 2.143 2.35 2.35 0 01-.566-.07h0a2.109 2.109 0 01-1.482-1.434l-2.103-9.715zm0 0l-.19.085 1.875 4.219h0c.626 1.408.775 2.906.401 4.215h0c-.109.38-.105.78.017 1.197l-2.103-9.715zm.642-1.653l.23-.1-.102-.23-.23.102-2.48 1.103-.229.101.102.228 2.383 5.362s0 0 0 0c.452 1.018.626 2.152.329 3.193h0a3.618 3.618 0 00.019 2.031c.35 1.198 1.346 2.168 2.56 2.469.315.078.625.114.927.114a3.643 3.643 0 001.851-6.781 3.675 3.675 0 00-.53-.232l-.037-.014a7.218 7.218 0 01-.693-.295c-.477-.24-.939-.585-1.21-1.163-.355-.755-1.02-2.25-1.596-3.56a455.55 455.55 0 01-.749-1.705l-.23-.528-.064-.144-.016-.038-.005-.01v-.002h0l-.23.099z" fill="#4788C7" stroke="#4788C7" stroke-width=".5"/><path d="M55.5 22.573l1.171-1.464c.832-1.038 1.211-2.236 1.065-3.374a2.83 2.83 0 01.146-1.301c.318-.914 1.079-1.621 1.985-1.844a2.91 2.91 0 013.632 2.73c.02.802-.426 1.652-1.191 2.275-.421.342-.823.551-1.232.641-1.194.259-2.173.831-2.831 1.652l-1.404 1.757-1.341-1.072z" fill="#98CCFD"/><path d="M57.173 16.189h0c.392-1.128 1.346-2.039 2.514-2.326.312-.076.62-.113.92-.113a3.64 3.64 0 013.64 3.552c.03 1.145-.615 2.182-1.467 2.875-.542.44-1.055.685-1.546.791-.953.208-1.815.652-2.405 1.39l-1.656-6.17zm0 0a3.57 3.57 0 00-.181 1.643l.18-1.643zm3.434-.939c1.152 0 2.114.938 2.143 2.09.014.548-.31 1.182-.915 1.674-.339.276-.638.429-.918.49-1.356.295-2.486.955-3.257 1.917h0l-.937 1.17-.169-.134.703-.879s0 0 0 0c.954-1.191 1.396-2.59 1.224-3.938h0c-.04-.31-.004-.631.11-.959h0c.233-.67.81-1.203 1.455-1.361h.001c.187-.047.376-.07.56-.07zm-3.495 9.254l1.717-2.147-1.837-4.525c.127.99-.259 2-.907 2.81h0L54.6 22.496l-.157.195.196.156 2.12 1.696.196.156.156-.195z" fill="#4788C7" stroke="#4788C7" stroke-width=".5"/><path d="M39.809 27.051a3.345 3.345 0 00-.734-.083c-.493 0-.964.118-1.36.342a1.448 1.448 0 01-.716.188 1.5 1.5 0 01-.001-2.998c.44 0 .856.194 1.14.533.419.499 1.054.855 1.839 1.031l5.427 1.211-.217.976-5.378-1.2z" fill="#98CCFD"/><path d="M37.563 25.515h0c.247.295.549.547.895.754a3.418 3.418 0 00-1.111.386h0a.699.699 0 01-.349.091h0a.748.748 0 010-1.496c.218 0 .424.096.565.265zm.517 2.448h0c.3-.168.641-.245.995-.245a2.687 2.687 0 01.572.064l5.864 1.309.244.054.054-.244.435-1.95.054-.245-.244-.054-5.913-1.32h0c-.563-.125-1.085-.371-1.427-.78h0a2.234 2.234 0 00-1.716-.802 2.249 2.249 0 000 4.496c.395 0 .763-.104 1.082-.283z" fill="#4788C7" stroke="#4788C7" stroke-width=".5"/><path d="M44.036 42.5a1.538 1.538 0 01-1.536-1.536c0-.679.455-1.285 1.106-1.475a2.673 2.673 0 001.393-.996c.653-.953 2.284-3.265 2.947-4.204l.847.594c-.624.879-2.092 2.952-2.856 4.076-.322.476-.365 1.267-.365 1.979a1.544 1.544 0 01-1.536 1.562z" fill="#98CCFD"/><path d="M43.815 40.209a3.394 3.394 0 001.092-.555l.164 1.31h-.25s0 0 0 0a.787.787 0 11-1.006-.755zm4.154-6.82l-.204-.143-.144.204.204.144-.204-.144h0l-.002.002-.005.008-.02.028-.078.11-.285.403-.918 1.303a342.931 342.931 0 00-1.932 2.765h0a1.896 1.896 0 01-.984.7h0a2.287 2.287 0 102.925 2.195v-.026c0-.18 0-.479.03-.783.034-.333.1-.62.206-.775.49-.722 1.274-1.84 1.937-2.778.33-.468.63-.892.849-1.198l.257-.363.07-.099.018-.025.005-.007.001-.001h0l-.203-.146.204.145.146-.205-.206-.145-1.668-1.169z" fill="#4788C7" stroke="#4788C7" stroke-width=".5"/><path d="M42.765 21.032c-.76-.978-1.754-1.61-2.797-1.781a2.88 2.88 0 01-.82-.27c-.864-.431-1.483-1.252-1.614-2.145a2.868 2.868 0 01.668-2.332 2.891 2.891 0 012.191-1.004c.23 0 .461.026.691.079.944.217 1.751.967 2.056 1.91.14.432.18.864.12 1.285-.162 1.146.205 2.364 1.033 3.431l5.291 6.802-1.353 1.053-5.466-7.028z" fill="#B6DCFE"/><path d="M48.531 26.876l-.17.132-5.005-6.435h0c-.87-1.12-2.028-1.858-3.267-2.06h0a2.115 2.115 0 01-.608-.202c-.654-.325-1.11-.937-1.206-1.581h0a2.143 2.143 0 012.118-2.48c.171 0 .347.02.523.06.687.158 1.283.711 1.51 1.41.103.325.133.643.09.95-.192 1.36.237 2.778 1.185 3.995 0 0 0 0 0 0l4.83 6.211zm-9.718-7.223h0l1.073.092-.04.247s0 0 0 0c.92.15 1.732.736 2.326 1.501h0l5.774 7.424.153.197.198-.154 2.142-1.667.197-.153-.154-.198-5.596-7.197h0c-.648-.831-1.025-1.86-.884-2.864a3.6 3.6 0 00-.149-1.62h0c-.382-1.182-1.385-2.132-2.6-2.412a3.81 3.81 0 00-.86-.099 3.645 3.645 0 00-3.602 4.198c.173 1.172.975 2.184 2.022 2.705z" fill="#4788C7" stroke="#4788C7" stroke-width=".5"/><path d="M37.513 37.5c-.61 0-1.182-.272-1.566-.749a2.004 2.004 0 01-.397-1.716 1.998 1.998 0 011.415-1.489c.184-.047.368-.071.549-.071.378 0 .745.105 1.063.305a3.184 3.184 0 001.692.501c.306 0 .607-.048.896-.142l4.649-1.509.273.84-4.737 1.538c-.833.271-1.585.841-2.235 1.696a1.999 1.999 0 01-1.602.796z" fill="#B6DCFE"/><path d="M46.296 31.685l.077.238.58 1.79.078.239-.238.077-5.212 1.692c-.753.245-1.368.777-1.869 1.437h0a2.756 2.756 0 01-2.199 1.092 2.766 2.766 0 01-2.697-3.372l11.48-3.193zm0 0l-.238.077m.238-.077l-.238.077m0 0l-5.125 1.663m5.125-1.663l-5.125 1.663m0 0s0 0 0 0 0 0 0 0c-.219.07-.443.105-.666.105-.446 0-.895-.136-1.292-.386h0m1.958.281l-1.958-.28m0 0a2.74 2.74 0 00-1.462-.421m1.462.42l-1.462-.42m0 0c-.24 0-.488.03-.738.096m.738-.096l-.738.096m0 0a2.747 2.747 0 00-1.96 2.057l1.96-2.057zm1.402 1.594h0c.492.31 1.034.508 1.59.582a6.226 6.226 0 00-1.25 1.255h0c-.24.318-.606.499-1.004.499-.383 0-.74-.17-.983-.47a1.271 1.271 0 01-.248-1.087 1.24 1.24 0 01.87-.921h.001a1.43 1.43 0 01.36-.048c.236 0 .466.066.664.19z" fill="#4788C7" stroke="#4788C7" stroke-width=".5"/><path d="M57.412 26.38l1.545-.395c1.396-.355 3.154-.803 4.064-1.048.614-.164 1.094-.369 1.66-1.519.281-.575.79-.919 1.357-.919a1.462 1.462 0 11-.295 2.894c-.714-.146-1.263-.211-1.779-.211-.442 0-.847.049-1.235.148l-5.239 1.352-.078-.302z" fill="#B6DCFE"/><path d="M66.75 23.961a.712.712 0 00-.71-.711.659.659 0 00-.464.195 1.118 1.118 0 00-.223.304s0 0 0 0l-.224-.111a4.995 4.995 0 01-.493.825l2.114-.502zm0 0a.712.712 0 01-.857.697m.857-.697l-1.828.533c.299.037.618.091.971.164m0 0h.002l-.05.245.047-.246h.001zm-9.333 1.31a.338.338 0 00.017.116l-.015.003.327 1.268.063.241.242-.062 5.723-1.476h0a4.173 4.173 0 011.05-.125c.534 0 1.077.082 1.627.195h0a2.211 2.211 0 10.445-4.378c-.926 0-1.661.584-2.031 1.338-.24.487-.431.731-.602.87-.167.137-.332.19-.578.256h0c-.828.222-2.36.613-3.682.95l-.372.094-1.335.34a92.085 92.085 0 00-.701.185h0l-.029.01-.02.01s0 0 0 0a.218.218 0 00-.058.041.445.445 0 00-.07.123z" fill="#4788C7" stroke="#4788C7" stroke-width=".5"/><path d="M51.5 46.5c-.277 0-.559-.037-.837-.112a2.947 2.947 0 01-2.047-2.035c-.364-1.34.144-2.667 1.294-3.382 1.106-.687 1.74-1.745 1.74-2.904v-.175c0-.441-.167-.794-.278-1.026-.03-.067-.063-.125-.076-.175.004-.13.363-.391.904-.391s.9.261.9.434c-.007.015-.06.143-.097.236-.113.277-.254.623-.254.979v.694a4.66 4.66 0 001.065 2.966c.448.539.685 1.193.685 1.892a2.98 2.98 0 01-.879 2.122 2.979 2.979 0 01-2.12.877z" fill="#DFF0FE"/><path d="M47.893 44.55h0c-.479-1.76.292-3.391 1.622-4.216l-1.622 4.216zm0 0a3.693 3.693 0 002.576 2.561c.35.095.695.139 1.031.139a3.75 3.75 0 003.75-3.75c0-.904-.323-1.728-.858-2.37a3.889 3.889 0 01-.892-2.487v0-.001 0-.001 0-.001 0-.001 0-.001 0-.001 0-.001 0-.001 0-.001 0-.001 0-.001 0-.001 0-.001 0-.001 0-.001 0-.001 0-.001 0-.001 0-.001 0-.001 0-.001 0-.001 0-.001 0-.001 0-.001 0-.001 0-.001 0-.001 0-.002 0-.001 0-.001 0-.001 0-.001 0-.002 0-.001 0-.002 0-.001 0-.002 0-.002 0-.001 0-.002 0-.002 0-.002 0-.001 0-.002 0-.002 0-.001 0-.002 0-.001 0-.002 0-.002 0-.002 0-.002 0-.002 0-.003 0-.002 0-.004 0-.002 0-.002 0-.008 0-.002 0-.002 0-.002 0-.002 0-.002 0-.002 0-.002 0-.012 0-.002 0-.008 0-.007 0-.006 0-.006 0-.005 0-.009 0-.004 0-.004 0-.004 0-.027 0-.496c0-.168.069-.372.157-.594l.04-.097c.03-.073.06-.148.083-.213a.956.956 0 00.07-.311c0-.367-.223-.67-.521-.869-.3-.2-.7-.315-1.129-.315-.429 0-.829.116-1.128.315m-3.18 8.685l3.18-8.685m0 0c-.298.199-.522.5-.522.868 0 .113.04.22.075.3.02.048.047.106.074.163l.049.103c.082.182.152.374.152.592v.176m.172-2.2l-.172 2.2m0 0c0 .936-.555 1.752-1.385 2.268l1.385-2.268zm-.594 3.542c.816-.506 1.431-1.214 1.777-2.02a5.38 5.38 0 001.156 2.498c.335.405.511.893.511 1.414 0 1.24-1.009 2.25-2.25 2.25-.21 0-.426-.029-.642-.087a2.188 2.188 0 01-1.518-1.507c-.277-1.018.106-2.012.966-2.548z" fill="#4788C7" stroke="#4788C7" stroke-width=".5"/><path d="M66.393 35.5a1.963 1.963 0 01-1.889-1.446 1.73 1.73 0 00-1.021-1.154c-.002-.001-2.089-.824-2.781-1.108-.255-.104-.532-.118-.745-.118l-.312.004a.463.463 0 01-.079-.005c-.044-.022-.15-.35.04-.785.162-.37.426-.545.555-.547.004.008.019.028.035.05.12.159.321.425.688.563.711.267 2.821 1.124 2.821 1.124.2.08.408.12.622.12.351 0 .699-.107 1.009-.311a1.94 1.94 0 011.512-.262 1.982 1.982 0 011.47 1.507 1.957 1.957 0 01-.405 1.651 1.97 1.97 0 01-1.52.717z" fill="#DFF0FE"/><path d="M67.332 34.305h0a1.216 1.216 0 00-.648-1.95v-.001l.648 1.95zm0 0a1.207 1.207 0 01-2.104-.448h0m2.104.448l-2.104-.448m0 0a2.489 2.489 0 00-.492-.945m.492.945l-.492-.945m-5.818-2.325h0c.246-.562.733-.998 1.245-.998a.82.82 0 01.33.068h0c.1.044.17.12.217.174.027.032.06.077.09.116l.045.058a.694.694 0 00.302.245l-.088.234.088-.234c.36.135 1.072.419 1.69.667l.807.325.25.102.07.028.017.007.005.002h0a.918.918 0 00.341.065c.204 0 .412-.065.6-.187l-6.01-.672zm0 0c-.153.35-.202.72-.145 1.039.056.316.226.613.534.748h0a.95.95 0 00.363.053l.136-.002h.007l.144-.002c.184 0 .34.013.459.062h0a222.75 222.75 0 002.45.978l.247.097.068.027.017.007.005.002h0m-4.285-3.009l4.285 3.01m0 0h0a.972.972 0 01.577.653h0a2.71 2.71 0 002.613 2 2.718 2.718 0 002.66-3.265 2.721 2.721 0 00-2.04-2.094h0a2.838 2.838 0 00-.62-.07c-.543 0-1.045.162-1.466.438l-1.724 2.337zm1.533-.685a2.63 2.63 0 001.01-.398l-1.01.398z" fill="#4788C7" stroke="#4788C7" stroke-width=".5"/><path d="M51.5 21.1c-1.036 0-2.009-.562-2.009-.899 0-.21.16-.427.437-.597.612-.374.964-.957.964-1.599v-.276c0-1.035-.135-2.088-1.108-2.77-1.084-.758-1.532-2.089-1.145-3.391.276-.93 1.067-1.697 2.013-1.954a3.31 3.31 0 01.85-.114 3.003 3.003 0 012.998 3c0 .977-.478 1.895-1.278 2.457-.835.587-1.259 1.506-1.259 2.732v.315c0 .642.352 1.225.964 1.599.276.17.436.387.436.597 0 .356-.835.9-1.863.9z" fill="#DFF0FE"/><path d="M52.79 14.342h0a2.25 2.25 0 00-1.29-4.092c-.214 0-.433.03-.653.09l1.943 4.002zm0 0a3.522 3.522 0 00-1.333 1.767m1.333-1.767l-1.333 1.767m0 0c-.18-.62-.538-1.27-1.245-1.764-.81-.567-1.15-1.567-.854-2.56a2.181 2.181 0 011.49-1.446l.61 5.77zm-.967 4.022c.419-.297.741-.686.937-1.125.201.451.535.849.97 1.148a2.176 2.176 0 01-.898.196 2.543 2.543 0 01-1.01-.22zm-.035-11.24h0a3.681 3.681 0 00-2.535 2.464h0c-.512 1.718.179 3.342 1.432 4.219.674.472.79 1.201.79 2.156v.275c0 .387-.235.732-.606.959h0c-.46.282-.795.714-.795 1.236 0 .536.455.95.953 1.211a4.038 4.038 0 001.805.439 3.63 3.63 0 001.74-.443c.473-.269.872-.684.872-1.207s-.335-.955-.794-1.236h0c-.37-.227-.606-.573-.606-.959v-.316c0-.902.253-1.636.94-2.118a3.75 3.75 0 00-2.15-6.82 3.979 3.979 0 00-1.046.14z" fill="#4788C7" stroke="#4788C7" stroke-width=".5"/><path d="M51.5 38.5c-5.514 0-10-4.486-10-10s4.486-10 10-10 10 4.486 10 10-4.486 10-10 10z" fill="#DFF0FE"/><path d="M51.5 19.25c5.1 0 9.25 4.15 9.25 9.25s-4.15 9.25-9.25 9.25-9.25-4.15-9.25-9.25 4.15-9.25 9.25-9.25zm0-1.5c-5.937 0-10.75 4.813-10.75 10.75s4.813 10.75 10.75 10.75 10.75-4.813 10.75-10.75-4.813-10.75-10.75-10.75z" fill="#4788C7" stroke="#4788C7" stroke-width=".5"/><path d="M49.5 28a2.5 2.5 0 100-5 2.5 2.5 0 000 5zm-1 6c-.9 0-1.5-.6-1.5-1.5s.599-1.5 1.5-1.5c.9 0 1.5.6 1.5 1.5s-.6 1.5-1.5 1.5zm6.5 0c-1.067 0-2-.932-2-2s.933-2 2-2c1.066 0 2 .932 2 2s-.934 2-2 2z" fill="#98CCFD"/></svg>