<svg width="1200" height="725" fill="none" xmlns="http://www.w3.org/2000/svg"><path opacity=".3" fill-rule="evenodd" clip-rule="evenodd" d="M600 925.415L140.67 666.067C139.132 665.579 0 605.987 0 510.085V244.79c23.339 44.951 70.047 78.342 111.454 100.548C162.775 372.364 600 619.174 600 619.174v306.241z" fill="url(#paint0_linear)"/><path opacity=".5" fill-rule="evenodd" clip-rule="evenodd" d="M.062 175.487c0-95.525 139.136-154.825 141.351-155.654 0 0 437.041-245.516 458.649-257.675V66.831c-37.591 20.94-446.783 249.876-483.028 269.764C79.27 316.251.062 265.065.062 193.008v-17.521z" fill="url(#paint1_linear)"/><path opacity=".3" fill-rule="evenodd" clip-rule="evenodd" d="M600 925.415c21.578-12.151 459.33-259.348 459.33-259.348 1.54-.488 140.67-60.08 140.67-155.982V244.79c-23.34 44.951-70.05 78.342-111.45 100.548C1037.23 372.364 600 619.174 600 619.174v306.241z" fill="url(#paint2_linear)"/><defs><linearGradient id="paint0_linear" x1="600" y1="244.79" x2="600" y2="925.415" gradientUnits="userSpaceOnUse"><stop stop-color="#56A3C4" stop-opacity=".01"/><stop offset="1" stop-color="#2B6A92"/></linearGradient><linearGradient id="paint1_linear" x1="-1202.67" y1="828.071" x2="-424.939" y2="-492.112" gradientUnits="userSpaceOnUse"><stop stop-color="#80A6BE" stop-opacity=".492"/><stop offset="1" stop-color="#2B6A92" stop-opacity=".01"/></linearGradient><linearGradient id="paint2_linear" x1="954.306" y1="135.01" x2="455.443" y2="533.446" gradientUnits="userSpaceOnUse"><stop stop-color="#fff" stop-opacity=".01"/><stop offset="1" stop-color="#80A6BE"/></linearGradient></defs></svg>