<svg width="40" height="40" fill="none" xmlns="http://www.w3.org/2000/svg"><path d="M22.88 2C17.696 2 12.384 3.58 8.457 8.593 4.531 13.604 2 21.915 2 35.255a.718.718 0 00.832.72s4.18-.72 12.128-.72h.045c1.4 1.302 3.046 2.16 4.995 2.16 1.952 0 3.732-.844 5.265-2.16h.022a.754.754 0 00.113 0c7.805 0 11.745.72 11.745.72a.722.722 0 00.855-.72c0-3.569-.315-6.083-.63-7.718-.228-1.178-.425-1.771-.54-2.092a3.53 3.53 0 00.45-1.71v-2.16c0-1.162-.577-2.197-1.44-2.857-.04-3.983-1.23-7.55-3.33-10.148-2.022-2.5-4.936-4.044-8.348-4.207l-.585-1.868A.72.72 0 0022.88 2zm-.518 1.485l.54 1.755c.099.301.383.5.698.495 3.245 0 5.89 1.392 7.785 3.735 1.746 2.16 2.832 5.155 2.992 8.573a3.576 3.576 0 00-.697-.068h-1.508a.717.717 0 00-.652.72V20a3.156 3.156 0 00-1.013-.292c-.863-1.08-4.46-5.62-6.187-10.013-.144-.287-.36-.5-.72-.427a.692.692 0 00-.653.495c-.72 2.593-6.699 10.161-12.892 10.305-.36-.074-1.21-.217-2.003.36-.72.576-1.012 1.372-1.012 2.452 0 1.657 1.071 3.015 2.655 3.375.959 2.506 2.247 5.383 3.982 7.582-6.046.057-9.233.467-10.192.608.11-12.628 2.545-20.422 6.097-24.952 3.505-4.472 8.07-5.907 12.78-6.008zm1.238 8.303c2.16 4.606 5.751 8.85 5.895 9.067.143.143.368.293.585.293 0 0 1.026.014 1.44.877v1.71c0 .937-1.8 1.148-1.8 1.148-.287 0-.58.298-.653.585a18.753 18.753 0 01-1.732 4.747h1.597c.577-1.296 1.086-2.663 1.373-3.96a4.68 4.68 0 001.215-.45v.81c0 .397.323.72.72.72h.72c0 1.983-1.617 3.6-3.6 3.6h-5.895c-.301-.832-1.094-1.44-2.025-1.44H20c-1.184 0-2.16.976-2.16 2.16 0 1.184.976 2.16 2.16 2.16h1.44c.93 0 1.724-.607 2.025-1.44h5.895c2.767 0 5.04-2.273 5.04-5.04v-.068c.484-.1.934-.29 1.327-.562.076.298.138.653.225 1.103.27 1.392.538 3.633.585 6.614-.94-.143-3.97-.531-9.855-.584.206-.242.394-.484.585-.743H25.4c-1.513 1.727-3.384 2.88-5.4 2.88-3.457 0-6.399-3.465-9.135-10.665-.073-.287-.369-.427-.585-.427-1.007-.074-1.8-.923-1.8-2.003 0-.433.073-1.02.36-1.238.287-.216.855-.134.855-.134h.225c5.976 0 11.663-5.904 13.68-9.72zm9.36 7.627h.72a2.16 2.16 0 012.16 2.16v2.16c0 .43-.121.832-.338 1.17a.77.77 0 00-.112.157 2.163 2.163 0 01-1.71.833h-.72v-3.758a.762.762 0 000-.495v-2.227zM20 30.935h1.44c.4 0 .72.32.72.72 0 .4-.32.72-.72.72H20c-.4 0-.72-.32-.72-.72 0-.4.32-.72.72-.72z" fill="#fff"/><path fill-rule="evenodd" clip-rule="evenodd" d="M23.957 2.37a1.12 1.12 0 00-1.08-.77c-5.268 0-10.712 1.612-14.734 6.746C4.137 13.46 1.6 21.876 1.6 35.253a1.119 1.119 0 001.296 1.117H2.9l.01-.003.034-.005a19.63 19.63 0 01.717-.103 55.3 55.3 0 012.289-.246c2.008-.177 4.99-.355 8.898-.358 1.428 1.29 3.128 2.16 5.15 2.16 2.024 0 3.854-.855 5.413-2.16h.001c3.884 0 6.803.18 8.75.358.974.09 1.704.18 2.19.246a24.905 24.905 0 01.678.102l.032.006.008.001h.001a1.122 1.122 0 001.328-1.115c0-3.592-.317-6.131-.637-7.791-.198-1.024-.375-1.621-.498-1.985.26-.525.415-1.111.415-1.742v-2.16c0-1.226-.575-2.319-1.443-3.051-.075-3.982-1.283-7.567-3.416-10.205-2.037-2.52-4.952-4.102-8.36-4.34l-.502-1.603-.002-.005zM2.78 35.579l-.01.002h-.001a.316.316 0 01-.257-.074.318.318 0 01-.111-.246v-.005c0-13.301 2.526-21.506 6.372-26.416C12.602 3.951 17.782 2.4 22.88 2.4h.007a.32.32 0 01.31.217l.667 2.132.28.013c3.295.158 6.103 1.647 8.055 4.06 2.035 2.517 3.202 5.992 3.24 9.9l.003.195.155.118c.773.593 1.283 1.514 1.283 2.54v2.16a3.13 3.13 0 01-.4 1.517l-.088.159.061.17c.109.3.3.874.524 2.032.31 1.608.623 4.097.623 7.642v.005a.319.319 0 01-.112.25l-.003.002a.323.323 0 01-.268.07h-.002l-.002-.001-.01-.002-.037-.006-.142-.024c-.126-.02-.314-.049-.562-.083a50.199 50.199 0 00-2.226-.25c-1.973-.18-4.921-.361-8.836-.361h-.015l-.016.001a.365.365 0 01-.051 0l-.015-.001h-.186l-.113.097c-1.482 1.273-3.174 2.063-5.004 2.063-1.82 0-3.373-.798-4.723-2.053l-.115-.107h-.202c-3.986 0-7.03.18-9.08.362-1.024.09-1.8.18-2.322.249-.261.034-.458.063-.59.083l-.15.023-.04.006zm34.438.003l-.072.394.072-.394zM23.962 11.618l-.34-.727-.376.71c-.981 1.857-2.87 4.245-5.252 6.166-2.385 1.924-5.214 3.34-8.074 3.34h-.205a2.35 2.35 0 00-.355-.013c-.193.007-.514.043-.761.23-.259.194-.376.512-.436.764a3.54 3.54 0 00-.083.792c0 1.282.947 2.313 2.17 2.402h.03c.03 0 .082.012.13.043.042.027.06.056.067.084l.006.022.008.021c1.375 3.618 2.814 6.333 4.367 8.15 1.559 1.824 3.26 2.773 5.142 2.773 2.119 0 4.044-1.178 5.58-2.88h.868l-.07.084-.553.65.854.008c5.867.054 8.88.44 9.798.58l.468.072-.008-.473c-.048-3-.317-5.265-.592-6.685a60.136 60.136 0 01-.053-.278c-.061-.32-.115-.602-.177-.847l-.142-.558-.474.328a3.22 3.22 0 01-1.181.5l-.318.067v.392c0 2.547-2.094 4.64-4.64 4.64h-6.176l-.095.264a1.768 1.768 0 01-1.65 1.176H20c-.962 0-1.76-.797-1.76-1.76s.798-1.76 1.76-1.76h1.44a1.77 1.77 0 011.65 1.176l.095.264h6.176c2.204 0 4-1.796 4-4v-.4h-1.12a.321.321 0 01-.32-.32v-1.473l-.587.309a4.285 4.285 0 01-1.111.413l-.252.053-.056.252c-.262 1.183-.716 2.435-1.243 3.646h-.687a19.058 19.058 0 001.472-4.254.472.472 0 01.13-.201c.074-.069.126-.078.134-.078h.023l.023-.002-.046-.398.047.398h.002l.006-.001.018-.003c.01 0 .021-.003.035-.005a4.777 4.777 0 00.933-.237 2.38 2.38 0 00.745-.427c.227-.204.414-.493.414-.872v-1.8l-.04-.083c-.266-.557-.73-.832-1.1-.966a2.443 2.443 0 00-.672-.138h-.028a.298.298 0 01-.129-.044.784.784 0 01-.154-.113c-.042-.056-.117-.15-.22-.28-.875-1.103-3.763-4.742-5.615-8.693zm3.542 21.83c-.167.221-.335.434-.517.648l-.305-.258.003-.343h-.237c.171-.206.333-.415.498-.638l.321.238v.349l.237.003zm.497-.673l-.412.558a18.99 18.99 0 01-.085.114c4.65.07 7.382.35 8.624.514l.01.468.4-.007.06-.395a23.33 23.33 0 00-.47-.066c-.066-2.729-.318-4.785-.568-6.077l-.057-.298-.05-.258c.174-.085.342-.183.502-.294l-.228-.329-.387.099c.04.155.074.325.113.524a3.97 3.97 0 01-.659.253c.004-.081.006-.163.006-.246v-.068h-.4l.082.392c.105-.022.21-.048.312-.078-.13 2.876-2.528 5.194-5.434 5.194H28zm-2.853 0l.07-.08h2.842l-.059.08h-2.853zm1.567-2.24l.265-.506a18.35 18.35 0 001.696-4.646l.002-.007.002-.007a1.26 1.26 0 01.36-.594 1.03 1.03 0 01.65-.292 2.611 2.611 0 00.231-.04c.156-.032.359-.082.558-.157.202-.077.376-.17.492-.274.11-.1.149-.187.149-.277v-1.611a1.123 1.123 0 00-.611-.485 1.636 1.636 0 00-.434-.091h-.001c-.374-.003-.693-.241-.862-.41l-.029-.029-.022-.033-.002-.003a58.302 58.302 0 01-2.18-2.873c-1.076-1.508-2.361-3.471-3.406-5.552-1.099 1.831-2.891 3.979-5.077 5.742-2.457 1.982-5.46 3.517-8.576 3.517h-.254l-.027-.003-.014-.002a1.42 1.42 0 00-.235-.009c-.163.007-.27.039-.31.069-.027.021-.09.106-.138.31a2.75 2.75 0 00-.062.608c0 .874.633 1.54 1.418 1.603.33.007.809.212.948.703 1.36 3.573 2.757 6.184 4.22 7.897 1.461 1.709 2.958 2.492 4.534 2.492 1.858 0 3.628-1.065 5.099-2.744l.05-.056h-1.42c.042-.086.08-.174.112-.264l-.376-.136v.4h.264a2.56 2.56 0 01-2.29 1.44H20a2.571 2.571 0 01-2.56-2.56 2.571 2.571 0 012.56-2.56h1.44a2.56 2.56 0 012.29 1.44h-.264v.4l.376-.136a2.573 2.573 0 00-.112-.264h2.986zm2.513 0l-.036.08h-2.518l.041-.08h2.513zm1.411-3.95c-.302 1.259-.794 2.563-1.341 3.793l-.07.157h.132a3.209 3.209 0 003.175-2.8h.425v-.4h-.4c0 .135-.009.269-.025.4h-.295a1.12 1.12 0 01-1.12-1.12v-.188c.204-.079.4-.17.586-.268l-.186-.354h-.4v.622c-.155.06-.315.114-.481.159zm0 0a4.52 4.52 0 01-.251.061l-.083-.391.39.086c-.018.082-.036.163-.056.245zm-5.06 6.91h-.18v-.4l.302.264-.122.136zM9.72 21.108l.02.002.008.001h.005l-.057.396v-.4h.024zm23.96-2.093h-1.12v2.691l.02.061a.364.364 0 01.004.237l-.023.065v4.226h1.12c.818 0 1.555-.383 2.025-.987l.02-.025.015-.028a.369.369 0 01.054-.076l.025-.027.02-.031c.258-.403.4-.88.4-1.386v-2.16a2.56 2.56 0 00-2.56-2.56zm-.32 2.57v-1.77h.32c.972 0 1.76.788 1.76 1.76v2.16c0 .343-.092.661-.257.928a1.17 1.17 0 00-.125.175 1.764 1.764 0 01-1.377.657h-.32v-3.297c.052-.189.057-.4 0-.613zm-13.68 10.07c0-.178.142-.32.32-.32h1.44c.18 0 .32.142.32.32 0 .178-.14.32-.32.32H20a.318.318 0 01-.32-.32zm.32-1.12c-.62 0-1.12.5-1.12 1.12 0 .62.5 1.12 1.12 1.12h1.44c.621 0 1.12-.5 1.12-1.12 0-.62-.499-1.12-1.12-1.12H20z" fill="#fff"/><path d="M23.729 32.775c.042-.086.08-.174.112-.264l-.376-.136v.4h.264zm0-2.24h-.264v.4l.376-.136a2.573 2.573 0 00-.112-.264zm2.719 2.96h.237l-.003.343.305.258c.182-.213.35-.426.517-.649l-.237-.003v-.349l-.321-.238c-.165.223-.327.432-.498.638zm9.68.465l.01.469.4-.007.06-.395a23.33 23.33 0 00-.47-.066zm-.675-6.632c.174-.085.342-.183.502-.294l-.228-.329-.387.099c.04.155.074.325.113.524zm-.659.253c.004-.081.006-.163.006-.246v-.068h-.4l.082.392c.105-.022.21-.048.312-.078zm-2.259.154h.425v-.4h-.4c0 .135-.009.269-.025.4zm-1.415-1.308c.204-.079.4-.17.586-.268l-.186-.354h-.4v.622zm-.481.159c.02-.082.038-.163.056-.245l-.39-.086.083.391a4.52 4.52 0 00.251-.06zM19.68 31.655c0-.178.141-.32.32-.32h1.44c.178 0 .32.142.32.32 0 .178-.142.32-.32.32H20a.318.318 0 01-.32-.32zm7.035-1.12l-.041.08h2.518l.036-.08h-2.513zm1.286 2.24l.06-.08h-2.843l-.07.08h2.853z" fill="#fff"/></svg>