<svg width="480" height="309" fill="none" xmlns="http://www.w3.org/2000/svg"><path d="M4.574 173.626l228.593 132.588a13.372 13.372 0 0013.409.01l229.113-132.588c5.716-3.307 5.716-11.571-.01-14.868L249.214 28.208a18.674 18.674 0 00-18.665.01L4.584 158.769c-5.716 3.297-5.726 11.551-.01 14.858z" fill="#F5F8FB"/><path d="M475.727 169.13L245.136 300.978a13.37 13.37 0 01-13.409-.01L3.123 168.381c-1.978-1.149-1.79-2.888-2.399-4.806-1.139 3.617-1.328 7.884 2.4 10.042l228.593 132.587a13.372 13.372 0 0013.409.01l230.591-131.848c3.737-2.159 5.026-6.425 3.877-10.052-.6 1.928-1.889 3.667-3.867 4.816z" fill="#DDE9F2"/><path d="M103.758 187.866l75.356 45.055a6.443 6.443 0 006.579.029l77.109-46.377a6.476 6.476 0 016.07-.244l7.665 4.709a6.453 6.453 0 006.207-.333l92.803-55.511c2.085-1.292 3.191-4.552-1.009-6.589l-53.846-33.62a6.472 6.472 0 00-5.522-.42l-179.603 69.031a2.8 2.8 0 00-.391.186l-31.329 17.838c-2.419 1.351-2.477 4.816-.089 6.246z" fill="#DDE9F2"/><path d="M357.356 63.294l-.049.03a.26.26 0 00-.118-.196L295.07 30.487l-76.501 44.507 54.963 38.475-.138.079-.048 67.543c0 .284.293.46.528.313l84.246-49.842-.764-68.268z" fill="url(#paint0_linear)"/><path d="M221.351 75.11l73.756-42.91 60.758 31.926.745 66.586-81.763 48.374.047-64.667 1.436-.821-1.938-1.357-53.041-37.13z" stroke="#fff" stroke-opacity=".5" stroke-width="3" style="mix-blend-mode:soft-light"/><path d="M202.337 132.629l75.796 45.897c.46.274 1.028-.069 1.028-.607l.323-67.426-77.187-46.004.04 68.14z" fill="url(#paint1_linear)"/><path d="M203.799 67.13l74.181 44.213-.312 65.148-73.832-44.708-.037-64.653zm73.862 110.789v-.007.007z" stroke="#fff" stroke-opacity=".5" stroke-width="3" style="mix-blend-mode:soft-light"/><path d="M121.243 185.927s60.544 35.568 60.553 35.02l.911-66.055-34.628-64.694-26.875 27.589.039 68.14z" fill="url(#paint2_linear)"/><path d="M147.723 92.712l33.479 62.547-.872 63.256-.41-.226a627.004 627.004 0 01-6.843-3.883 3887.22 3887.22 0 01-20.805-12.059 10626.2 10626.2 0 01-27.668-16.186l-1.861-1.093-.038-66.672 25.018-25.684z" stroke="#fff" stroke-opacity=".5" stroke-width="3" style="mix-blend-mode:soft-light"/><path d="M200.467 65.595l78.812 45.104 38.27-61.953 39.631 17.31 1.831-3.193-68.336-41.452L251.944 0 200.33 61.67l.137 3.925z" fill="url(#paint3_linear)"/><path d="M318.149 47.371l-1.192-.52-.684 1.107-37.508 60.718-76.828-43.968-.088-2.517 50.452-60.28 37.621 20.798 67.059 40.678-.433.755-38.399-16.77z" stroke="#fff" stroke-opacity=".5" stroke-width="3" style="mix-blend-mode:soft-light"/><path d="M359.011 62.863l-68.336-41.452L251.944 0l33.258 22.322 33.718 21.411 16.849 10.476 21.411 11.846 1.831-3.192z" fill="url(#paint4_linear)"/><path d="M316.168 42.392l-39.141 63.265c-.01.019-.03.019-.049.01l-76.629-43.91c-.029-.01-.059 0-.049.03l.176 3.788c0 .01.01.02.02.03l78.763 45.074c.02.01.039 0 .049-.01l38.231-61.904c.01-.02.029-.02.049-.01l39.572 17.29c.02.01.039 0 .049-.02l1.792-3.122c.01-.02 0-.04-.02-.05l-42.764-20.47c-.019-.01-.039-.01-.049.009z" fill="url(#paint5_linear)"/><path d="M181.787 220.947l84.735-49.656v-51.223c0-4.259-4.524-6.99-8.293-5.003l-75.532 39.817-.91 66.065z" fill="url(#paint6_linear)"/><path d="M265.022 170.431l-81.699 47.877.862-62.514 74.744-39.402h0c2.769-1.46 6.093.546 6.093 3.676v50.363z" stroke="#fff" stroke-opacity=".5" stroke-width="3" style="mix-blend-mode:soft-light"/><path d="M113.441 125.345l33.14-32.298a.622.622 0 01.979.147l38.133 71.568a2.328 2.328 0 003.163.94l77.46-43.932c1.567-.842 2.027-2.868.989-4.317l-48.912-74.317a.617.617 0 00-.823-.166l-71.694 41.648c-.039.029-.088.058-.117.097l-35.784 36.763a2.753 2.753 0 00-.411 3.368c.813 1.38 2.722 1.635 3.877.499z" fill="url(#paint7_linear)"/><path d="M112.394 124.271l-.005.004a.981.981 0 01-1.532-.19l-.005-.007-.004-.007a1.254 1.254 0 01.188-1.532l.007-.008.007-.007 35.706-36.683 70.857-41.161 48.439 73.597.016.025.018.024c.517.722.28 1.714-.48 2.123l-.015.008-.015.008-77.446 43.924a.827.827 0 01-1.116-.339l-.003-.004-38.127-71.558-.004-.007c-.681-1.26-2.352-1.469-3.341-.512l-.005.004-33.14 32.298z" stroke="#fff" stroke-opacity=".5" stroke-width="3" style="mix-blend-mode:soft-light"/><g filter="url(#filter0_d)"><path d="M133.952 174.933l35.078 20.501.911-35.921-35.989-20.794v36.214z" fill="url(#paint8_linear)"/></g><g filter="url(#filter1_d)"><path d="M200.016 190.362l19.581-12.003v-21.421l-19.277 11.014-.304 22.41z" fill="url(#paint9_linear)"/></g><g filter="url(#filter2_d)"><path d="M233.725 170.106l19.59-11.014v-21.431l-19.287 11.024-.303 21.421z" fill="url(#paint10_linear)"/></g><path d="M133.952 151.906l35.764 21.118" stroke="#F5F8FB" stroke-miterlimit="10"/><g filter="url(#filter3_d)"><path d="M302.835 164.075l36.9-21.871V95.279l-37.35 20.961.45 47.835z" fill="url(#paint11_linear)"/><path d="M338.735 141.634l-34.916 20.696-.428-45.508 35.344-19.835v44.647z" stroke="#fff" stroke-opacity=".5" stroke-width="2" style="mix-blend-mode:soft-light"/></g><path d="M200.016 190.362l19.581-12.003v-21.421l-19.277 11.014-.304 22.41zm33.709-20.256l19.59-11.014v-21.431l-19.287 11.024-.303 21.421z" stroke="#F5F8FB" stroke-miterlimit="10"/><path d="M308.14 178.152c1.283.323 1.89.352 2.164.333a.253.253 0 00.215-.167c-.059-.343-.264-.763-.901-.969-1.243-.411-1.909-.969-2.193-1.273a.662.662 0 01-.176-.46v-.94h-1.488v2.575c0 .01 0 .313 2.379.901zm1.439-1.782c.02.137.029.264.02.372a1.303 1.303 0 00-.02-.372z" fill="#0C0C0C"/><path d="M310.519 178.328a.254.254 0 01-.215.166c-.274.02-.881-.019-2.164-.332-2.369-.598-2.369-.891-2.369-.891v.391s0 .294 2.369.891c1.283.323 1.89.353 2.164.333a.262.262 0 00.235-.245c0-.088 0-.196-.02-.313z" fill="#C7C7C9"/><path d="M312.026 176.605c1.283.323 1.89.352 2.164.333a.271.271 0 00.215-.167c-.058-.342-.264-.763-.9-.969-1.342-.45-2.007-1.067-2.262-1.341a.464.464 0 01-.118-.314v-.538a.48.48 0 00-.479-.48h-.529a.481.481 0 00-.48.48v1.88c0 .176.098.342.255.421.284.147.881.382 2.134.695z" fill="#0C0C0C"/><path d="M314.406 176.771a.257.257 0 01-.215.167c-.275.019-.881-.02-2.164-.333-2.369-.597-2.369-.891-2.369-.891v.392s0 .293 2.369.89c1.283.324 1.889.353 2.164.333a.261.261 0 00.235-.244c0-.089 0-.196-.02-.314z" fill="#C7C7C9"/><path d="M304.077 151.982s1.391 9.35 1.391 12.023c0 2.389-.891 2.673-.891 5.345 0 2.389 1.057 6.354 1.057 6.354h1.948s.01-8.42.265-9.32c.597-2.076.9-11.288.9-11.288l.392-3.114h-5.062z" fill="#C12B4A"/><path d="M307.966 151.591s1.654 8.85 1.654 11.523c0 2.389-.891 2.673-.891 5.345 0 2.389.784 6.08.784 6.08l1.879-.147s.333-7.998.598-8.899c.597-2.076.381-10.642.293-12.463-.049-1.048-.44-1.43-.44-1.43h-3.877v-.009zm3.112-12.052c.46-.304 1.165 0 1.948 1.165.969 1.449 1.165 3.113 1.165 3.113l-2.722.774c-.009 0-1.566-4.279-.391-5.052z" fill="#C12B4A"/><path d="M304.078 140.312c.607-.822 2.34-1.38 3.887-1.556 1.449-.167 3.123.401 3.495.773 1.665 1.664 1.038 11.68.774 13.217-.255 1.547-7.392 1.498-8.165.773-.774-.695-1.156-11.611.009-13.207z" fill="#C12B4A"/><path d="M312.242 152.374c-.254 1.547-7.391 1.498-8.165.773-.421-.391-.44-.019 0 .392.774.715 7.911.764 8.165-.774.118-.763.118-1.116 0-.391z" fill="#F998B2"/><path d="M307.964 137.209c-.558 0-.626-.597-.773-.774l-.392 2.722s0 .773 1.165.773 1.165-.773 1.165-.773l-.146-1.292c-.235.058-.568-.656-1.019-.656z" fill="#FFDEE8"/><path d="M306.017 132.539s.206 2.829 1.165 4.278c.773 1.165 1.948 1.165 2.33.774.392-.392.392-4.67.392-4.67l-3.887-.382z" fill="#FFDEE8"/><path d="M307.573 135.26s-.108-1.801.392-1.556c.773.391 1.948 0 1.948 0s.773-1.557-.392-1.948c-1.165-.392-1.948 0-1.948 0s-1.165 0-1.557.391c-.616.617-.773.774-.773 1.557 0 .783.392 1.165.773 1.948a1.384 1.384 0 001.165.774s-.773-1.166-.391-1.557c.284-.274.783.391.783.391z" fill="#0C0C0C"/><path d="M309.864 144.003l-1.459 6.579a.162.162 0 00.186.186l4.631-1.067a.293.293 0 00.225-.225l1.459-6.579a.162.162 0 00-.186-.186l-4.631 1.067a.294.294 0 00-.225.225z" fill="#EDEEEF"/><path d="M309.521 134.771v1.175c0 .049.039.098.098.098h.881c.078 0 .117-.088.078-.147l-.881-1.175c-.068-.088-.176-.049-.176.049zm-5.658 5.933s-1.254.313-1.773 3.192c-.704 3.896-.352 4.963-.352 5.316 0 3.191 2.125 6.021 2.125 6.021l.704-.353-1.067-6.021s.715-4.993 1.067-6.736c.353-1.772-.704-1.419-.704-1.419z" fill="#FFDEE8"/><path d="M304.85 139.93c-.46-.303-1.165 0-1.948 1.166-.969 1.448-1.165 4.278-1.165 4.278h2.33c.01 0 1.948-4.67.783-5.444z" fill="#C12B4A"/><path d="M303.746 154.254c-.118-.04-.235.049-.216.166.059.646.226 2.311.333 2.575.48 1.204 1.126 1.586 1.488 1.713a.164.164 0 00.206-.205l-.636-2.213s.705 1.42.705.705c0-.646-1.028-2.193-1.214-2.477a.157.157 0 00-.079-.059l-.587-.205z" fill="#FFDEE8"/><path d="M310.255 144.395l-1.459 6.579a.162.162 0 00.186.186l4.631-1.067a.294.294 0 00.225-.225l1.459-6.579a.162.162 0 00-.186-.187l-4.631 1.068a.27.27 0 00-.225.225z" fill="#fff"/><path d="M314.829 145.413s.528 1.126.137 1.899c-.245.49-.774.774-.774.774l.637-2.673z" fill="#FFDEE8"/><path d="M314.181 148.096s-1.331.225-1.948-.392c-.392-.392 0-1.165 1.557-1.165h.773l-.382 1.557z" fill="#FFDEE8"/><path d="M133.952 174.933l35.078 20.501.911-35.921-35.989-20.794v36.214z" stroke="#F5F8FB" stroke-miterlimit="10"/><path d="M133.952 174.933l35.078 20.501.911-35.921-35.989-20.794v36.214z" stroke="#F5F8FB" stroke-miterlimit="10"/><path d="M284.683 204.274a.915.915 0 01-.91-.91V25.239c0-.499.411-.91.91-.91.499 0 .911.411.911.91v178.125c0 .509-.412.91-.911.91z" fill="#272E50"/><path d="M320.494 39.326L286.766 58.34a.752.752 0 01-1.108-.663l-.27-27.09a.78.78 0 01.378-.663l33.998-20.066a.753.753 0 011.122.662v28.158c.014.257-.148.514-.392.65z" fill="#272E50"/><g clip-path="url(#clip0)"><path d="M303.817 24.328c-3.186 1.839-6.5 4.581-6.5 4.581l-.003.005a3.14 3.14 0 00-.798 1.014c-.203.403-.314.825-.315 1.194v4.796c-.001 8.312 6.937 7.78 6.937 7.78.207.015.44-.049.677-.186.236-.137.469-.341.675-.594l.003-.002s6.937-7.479 6.938-15.79v-4.797c0-.37-.111-.665-.314-.834-.203-.168-.487-.2-.801-.09 0 0-3.314 1.083-6.499 2.923zm-.001 4.184c.14-.08.279-.07.333.082l.801 2.277 2.504-1.41c.336-.19.475.222.206.61l-2.009 2.886.746 2.33c.1.312-.264.828-.538.762l-2.043-.493-2.043 2.852c-.275.383-.638.287-.539-.14l.747-3.192-2.009-.567c-.269-.075-.13-.649.206-.848l2.504-1.48.802-3.202a.764.764 0 01.332-.467z" fill="#fff"/><path d="M304.149 28.595c-.054-.153-.193-.164-.333-.083a.764.764 0 00-.332.466l-.802 3.203-2.504 1.48c-.336.2-.475.773-.206.848l2.009.567-.747 3.191c-.099.428.264.523.539.14l2.043-2.851 2.043.493c.274.066.638-.45.538-.762l-.746-2.33 2.009-2.886c.269-.388.13-.8-.206-.61l-2.504 1.41-.801-2.276z" fill="#0089FC"/></g><path d="M229.181 236.661a.915.915 0 01-.91-.911V57.626c0-.5.411-.91.91-.91.5 0 .911.41.911.91V235.75c0 .5-.411.911-.911.911z" fill="#272E50"/><path d="M264.993 71.184l-33.728 19.012a.753.753 0 01-1.109-.662l-.27-27.09c0-.271.149-.528.378-.663l33.999-20.067a.754.754 0 011.122.663v28.158c.013.257-.149.514-.392.649z" fill="#D80027"/><path d="M249.407 73.569l-3.528 1.865V59.43l3.528-1.987V73.57z" fill="#F5F8FB"/><path d="M254.097 60.645l-12.788 7.192-.122 4.394 12.775-6.922.135-4.664z" fill="#F5F8FB"/><defs><linearGradient id="paint0_linear" x1="293.589" y1="205.702" x2="287.246" y2="53.6" gradientUnits="userSpaceOnUse"><stop stop-color="#C0D6ED"/><stop offset=".334" stop-color="#A2C6ED"/><stop offset=".68" stop-color="#8AB9ED"/><stop offset=".892" stop-color="#81B4ED"/></linearGradient><linearGradient id="paint1_linear" x1="1021.75" y1="-60.936" x2="-378.657" y2="266.143" gradientUnits="userSpaceOnUse"><stop offset=".359" stop-color="#C0D6ED"/><stop offset=".548" stop-color="#81B4ED"/></linearGradient><linearGradient id="paint2_linear" x1="801.153" y1="6.982" x2="-367.773" y2="279.995" gradientUnits="userSpaceOnUse"><stop offset=".434" stop-color="#C0D6ED"/><stop offset=".689" stop-color="#81B4ED"/></linearGradient><linearGradient id="paint3_linear" x1="295.315" y1="-384.354" x2="253.659" y2="804.835" gradientUnits="userSpaceOnUse"><stop offset=".034" stop-color="#fff"/><stop offset=".202" stop-color="#D3E5F9"/><stop offset=".449" stop-color="#98C2F0"/><stop offset=".568" stop-color="#81B4ED"/></linearGradient><linearGradient id="paint4_linear" x1="320.011" y1="-383.489" x2="278.355" y2="805.7" gradientUnits="userSpaceOnUse"><stop offset=".034" stop-color="#fff"/><stop offset=".144" stop-color="#D3E5F9"/><stop offset=".307" stop-color="#98C2F0"/><stop offset=".385" stop-color="#81B4ED"/></linearGradient><linearGradient id="paint5_linear" x1="288.946" y1="-203.317" x2="262.526" y2="550.924" gradientUnits="userSpaceOnUse"><stop offset=".034" stop-color="#fff"/><stop offset=".111" stop-color="#F5F9FE"/><stop offset=".24" stop-color="#DCEAFA"/><stop offset=".404" stop-color="#B2D1F4"/><stop offset=".568" stop-color="#81B4ED"/></linearGradient><linearGradient id="paint6_linear" x1="1252.29" y1="-73.185" x2="-592.836" y2="357.762" gradientUnits="userSpaceOnUse"><stop offset=".434" stop-color="#C0D6ED"/><stop offset=".689" stop-color="#81B4ED"/></linearGradient><linearGradient id="paint7_linear" x1="39.936" y1="-38.977" x2="384.777" y2="311.305" gradientUnits="userSpaceOnUse"><stop offset=".219" stop-color="#fff"/><stop offset=".222" stop-color="#FDFEFF"/><stop offset=".351" stop-color="#ADD0F7"/><stop offset=".457" stop-color="#72AFF2"/><stop offset=".534" stop-color="#4E9AEE"/><stop offset=".576" stop-color="#4092ED"/></linearGradient><linearGradient id="paint8_linear" x1="36.871" y1="167.078" x2="347.544" y2="167.078" gradientUnits="userSpaceOnUse"><stop offset=".143" stop-color="#B6DCFF"/><stop offset=".514" stop-color="#BDD8F3"/><stop offset=".882" stop-color="#C0D6ED"/></linearGradient><linearGradient id="paint9_linear" x1="200.012" y1="173.158" x2="280.962" y2="173.158" gradientUnits="userSpaceOnUse"><stop offset=".143" stop-color="#B6DCFF"/><stop offset=".514" stop-color="#BDD8F3"/><stop offset=".882" stop-color="#C0D6ED"/></linearGradient><linearGradient id="paint10_linear" x1="233.725" y1="153.888" x2="314.675" y2="153.888" gradientUnits="userSpaceOnUse"><stop offset=".143" stop-color="#B6DCFF"/><stop offset=".514" stop-color="#BDD8F3"/><stop offset=".882" stop-color="#C0D6ED"/></linearGradient><linearGradient id="paint11_linear" x1="372.509" y1="176.072" x2="284.536" y2="96.385" gradientUnits="userSpaceOnUse"><stop offset=".031" stop-color="#fff"/><stop offset=".037" stop-color="#FDFEFF"/><stop offset=".274" stop-color="#ADD0F7"/><stop offset=".469" stop-color="#72AFF2"/><stop offset=".612" stop-color="#4E9AEE"/><stop offset=".688" stop-color="#4092ED"/></linearGradient><filter id="filter0_d" x="133.952" y="137.719" width="37.489" height="57.715" filterUnits="userSpaceOnUse" color-interpolation-filters="sRGB"><feFlood flood-opacity="0" result="BackgroundImageFix"/><feColorMatrix in="SourceAlpha" values="0 0 0 0 0 0 0 0 0 0 0 0 0 0 0 0 0 0 127 0"/><feOffset dx="1.5" dy="-1"/><feColorMatrix values="0 0 0 0 0.376471 0 0 0 0 0.643137 0 0 0 0 0.941176 0 0 0 0.5 0"/><feBlend in2="BackgroundImageFix" result="effect1_dropShadow"/><feBlend in="SourceGraphic" in2="effect1_dropShadow" result="shape"/></filter><filter id="filter1_d" x="198.516" y="155.938" width="21.081" height="34.424" filterUnits="userSpaceOnUse" color-interpolation-filters="sRGB"><feFlood flood-opacity="0" result="BackgroundImageFix"/><feColorMatrix in="SourceAlpha" values="0 0 0 0 0 0 0 0 0 0 0 0 0 0 0 0 0 0 127 0"/><feOffset dx="-1.5" dy="-1"/><feColorMatrix values="0 0 0 0 0.376471 0 0 0 0 0.643137 0 0 0 0 0.941176 0 0 0 0.5 0"/><feBlend in2="BackgroundImageFix" result="effect1_dropShadow"/><feBlend in="SourceGraphic" in2="effect1_dropShadow" result="shape"/></filter><filter id="filter2_d" x="232.225" y="136.661" width="21.09" height="33.445" filterUnits="userSpaceOnUse" color-interpolation-filters="sRGB"><feFlood flood-opacity="0" result="BackgroundImageFix"/><feColorMatrix in="SourceAlpha" values="0 0 0 0 0 0 0 0 0 0 0 0 0 0 0 0 0 0 127 0"/><feOffset dx="-1.5" dy="-1"/><feColorMatrix values="0 0 0 0 0.376471 0 0 0 0 0.643137 0 0 0 0 0.941176 0 0 0 0.5 0"/><feBlend in2="BackgroundImageFix" result="effect1_dropShadow"/><feBlend in="SourceGraphic" in2="effect1_dropShadow" result="shape"/></filter><filter id="filter3_d" x="300.385" y="94.279" width="39.35" height="69.796" filterUnits="userSpaceOnUse" color-interpolation-filters="sRGB"><feFlood flood-opacity="0" result="BackgroundImageFix"/><feColorMatrix in="SourceAlpha" values="0 0 0 0 0 0 0 0 0 0 0 0 0 0 0 0 0 0 127 0"/><feOffset dx="-2" dy="-1"/><feColorMatrix values="0 0 0 0 0.25098 0 0 0 0 0.572549 0 0 0 0 0.929412 0 0 0 1 0"/><feBlend in2="BackgroundImageFix" result="effect1_dropShadow"/><feBlend in="SourceGraphic" in2="effect1_dropShadow" result="shape"/></filter><clipPath id="clip0"><path transform="matrix(.86603 -.5 -.00008 1 293.433 28.904)" fill="#fff" d="M0 0h23.981v23.981H0z"/></clipPath></defs></svg>