<svg width="64" height="64" fill="none" xmlns="http://www.w3.org/2000/svg"><path fill-rule="evenodd" clip-rule="evenodd" d="M53.667 9.917H10.333a.417.417 0 00-.416.416v43.334c0 .23.186.416.416.416h43.334c.23 0 .416-.186.416-.416V10.333a.417.417 0 00-.416-.416zM10.333 7A3.333 3.333 0 007 10.333v43.334A3.333 3.333 0 0010.333 57h43.334A3.333 3.333 0 0057 53.667V10.333A3.333 3.333 0 0053.667 7H10.333z" fill="#fff"/><path fill-rule="evenodd" clip-rule="evenodd" d="M27.924 19.5v8.424H19.5v8.152h8.424v8.425h8.152v-8.425h8.425v-8.152h-8.425V19.5h-8.152zm1.25 1.25h5.653v8.424h8.424v5.653h-8.424v8.424h-5.653v-8.424H20.75v-5.653h8.424V20.75z" fill="#fff"/><path fill-rule="evenodd" clip-rule="evenodd" d="M27.091 18.667h9.819v8.424h8.424v9.819h-8.425v8.424h-9.818V36.91h-8.424v-9.82h8.424v-8.424zm2.916 2.916v8.424h-8.424v3.986h8.424v8.425h3.986v-8.425h8.425v-3.986h-8.425v-8.424h-3.986z" fill="#fff"/></svg>