<svg width="40" height="40" fill="none" xmlns="http://www.w3.org/2000/svg"><g clip-path="url(#clip0)" fill="#fff"><path d="M7.2 3.2a2.403 2.403 0 00-2.4 2.4v4H4a.8.8 0 100 1.6h3.2a.799.799 0 100-1.6h-.8v-4a.8.8 0 01.8-.8h22.4a.8.8 0 01.8.8v13.744a9.526 9.526 0 011.6.414V5.6c0-1.323-1.076-2.4-2.4-2.4H7.2zm12.402 8c-2.081 0-3.71.758-4.584 2.136-.662 1.04-.791 2.342-.375 3.569a1.69 1.69 0 00-.183 1.039c.109.87.45 1.314.783 1.542.138.583.415 1.256.78 1.684a44.52 44.52 0 00-.02 1.06c-.235.347-.986.63-1.713.907-1.574.599-3.73 1.418-3.888 4.016a.8.8 0 00.799.847h8.04c.046-.549.14-1.082.274-1.6H12.2c.392-.844 1.322-1.26 2.657-1.769 1.125-.427 2.289-.87 2.691-1.934a.803.803 0 00.052-.281c0-.732.034-1.58.034-1.585a.812.812 0 00-.24-.584.793.793 0 00-.174-.134c-.138-.178-.415-.752-.474-1.277a.797.797 0 00-.593-.686c-.028-.058-.075-.191-.103-.464a.798.798 0 00.236-.974c-.41-.875-.38-1.793.08-2.518.509-.8 1.475-1.28 2.75-1.375l.168.339A.8.8 0 0020 13.6c.637 0 1.08.279 1.351.851.4.845.242 1.882.067 2.094a.796.796 0 00.138 1.146c0 .015 0 .032-.003.051-.03.23-.076.35-.105.406a.802.802 0 00-.597.686c-.045.403-.441 1.123-.708 1.507A.81.81 0 0020 20.8v1.616c0 .096.018.191.051.282.142.376.38.671.677.918.29-.45.618-.872.976-1.266a.794.794 0 01-.104-.12v-1.19c.203-.319.559-.927.74-1.542.337-.224.689-.67.8-1.554a1.83 1.83 0 00-.143-1.013c.321-.898.264-2.185-.2-3.165s-1.263-1.58-2.283-1.729l-.197-.393a.8.8 0 00-.716-.444zM4.801 12v2.4H4a.799.799 0 00-.31 1.542c.098.04.204.06.31.058h3.2a.799.799 0 100-1.6h-.8V12H4.8zm0 4.8v2.4H4a.799.799 0 00-.31 1.542c.098.04.204.06.31.058h3.2a.799.799 0 100-1.6h-.8v-2.4H4.8zm24 4c-4.41 0-8 3.591-8 8s3.59 8 8 8c1.917 0 3.677-.68 5.057-1.811l4.777 4.777 1.131-1.132-4.776-4.776A7.958 7.958 0 0036.8 28.8c0-4.409-3.59-8-8-8zm-24 .8V24H4a.799.799 0 00-.31 1.542.8.8 0 00.31.058h3.2a.8.8 0 100-1.6h-.8v-2.4H4.8zm24 .8c3.544 0 6.4 2.856 6.4 6.4 0 3.544-2.856 6.4-6.4 6.4a6.388 6.388 0 01-6.4-6.4c0-3.544 2.855-6.4 6.4-6.4zm1.6 1.88v9.04a4.797 4.797 0 001.6-.953v-7.136a4.793 4.793 0 00-1.6-.951zM4.8 26.4v2.4H4a.799.799 0 00-.31 1.542c.098.04.204.06.31.058h3.2a.799.799 0 100-1.6h-.8v-2.4H4.8zm0 4.8v3.2c0 1.323 1.076 2.4 2.4 2.4h16.297a9.635 9.635 0 01-1.838-1.6H7.2a.8.8 0 01-.8-.8v-3.2H4.8z"/><path fill-rule="evenodd" clip-rule="evenodd" d="M4.4 5.6c0-1.544 1.256-2.8 2.8-2.8h22.4c1.545 0 2.8 1.256 2.8 2.8v14.724l-.533-.19a9.128 9.128 0 00-1.533-.396L30 19.682V5.6a.4.4 0 00-.4-.4H7.2a.4.4 0 00-.4.4v3.6h.398a1.2 1.2 0 110 2.4H6.8V14h.398a1.2 1.2 0 110 2.4H6.8v2.4h.398a1.2 1.2 0 110 2.4H6.8v2.4h.398a1.2 1.2 0 110 2.4H6.8v2.4h.398a1.2 1.2 0 110 2.4H6.8v3.6c0 .22.18.4.4.4h14.638l.12.133a9.23 9.23 0 001.76 1.534l1.105.733H7.2a2.803 2.803 0 01-2.8-2.8v-3.6h-.397a1.199 1.199 0 110-2.4H4.4V26h-.397a1.199 1.199 0 110-2.4H4.4v-2.4h-.397a1.199 1.199 0 110-2.4H4.4v-2.4h-.397a1.199 1.199 0 110-2.4H4.4v-2.4h-.397a1.199 1.199 0 110-2.4H4.4V5.6zm2.8-2c-1.102 0-2 .898-2 2V10H3.995a.4.4 0 100 .8h3.211a.4.4 0 100-.8H6V5.6a1.2 1.2 0 011.2-1.2h22.4a1.2 1.2 0 011.2 1.2v13.41c.271.055.538.121.8.198V5.599c0-1.101-.897-2-2-2H7.2zm7.48 9.521c.968-1.525 2.747-2.321 4.922-2.321a1.2 1.2 0 011.073.665m0 0l.107.213c1.059.218 1.89.888 2.377 1.916.482 1.02.566 2.331.265 3.32.122.325.162.696.114 1.08-.112.891-.456 1.434-.855 1.75-.185.559-.483 1.088-.683 1.412v.923l.263.252-.262.288a9.27 9.27 0 00-.936 1.213l-.245.38-.347-.289a2.593 2.593 0 01-.795-1.083l-.001-.003a1.214 1.214 0 01-.076-.421V20.8c0-.245.075-.484.214-.686v-.002c.122-.175.278-.434.407-.695.136-.274.218-.501.233-.628a1.2 1.2 0 01.677-.949v-.001a1.2 1.2 0 01-.236-.42m-4.247-.876c.205.437.125.94-.174 1.289l.003.013c.362.175.62.528.667.947m-2.465-5.67c-.703 1.104-.856 2.466-.467 3.752a2.123 2.123 0 00-.15 1.119c.109.87.439 1.408.826 1.727.143.534.39 1.137.73 1.585a39.66 39.66 0 00-.016.773 2.067 2.067 0 01-.447.272c-.287.139-.636.272-1.003.411l-.006.003-.023.009c-.774.294-1.755.667-2.559 1.31-.832.665-1.475 1.62-1.562 3.046a1.2 1.2 0 00.323.895c.227.24.545.376.874.376h8.41l.03-.367a9.178 9.178 0 01.262-1.533l.129-.5h-7.024a2.9 2.9 0 01.377-.269c.413-.251.947-.471 1.617-.726l.016-.006c.55-.21 1.153-.438 1.667-.755.528-.326.996-.763 1.24-1.406v-.002c.049-.132.076-.273.076-.42 0-.36.009-.751.017-1.054.006-.208.013-.387.016-.475l.001-.04a1.21 1.21 0 00-.352-.878 1.185 1.185 0 00-.178-.15 2.552 2.552 0 01-.179-.365 2.616 2.616 0 01-.18-.662m2.457-7.192c-1.988 0-3.466.72-4.247 1.95-.591.93-.714 2.105-.334 3.226l.057.167-.085.154a1.293 1.293 0 00-.136.797c.097.775.389 1.109.612 1.262l.127.087.036.15c.13.55.386 1.156.695 1.518l.1.117-.005.155c-.009.279-.018.67-.02 1.05v.12l-.069.1c-.182.271-.52.468-.828.617-.32.154-.696.298-1.048.432l-.025.01c-.796.302-1.669.637-2.367 1.196-.68.543-1.192 1.297-1.264 2.47a.401.401 0 00.108.298c.074.078.18.124.291.124h7.68c.033-.27.077-.537.131-.8h-7.437l.264-.569c.24-.516.639-.884 1.13-1.183.484-.295 1.082-.537 1.748-.79.57-.217 1.105-.422 1.549-.695.435-.27.75-.585.91-1.007a.402.402 0 00.026-.14 39.912 39.912 0 01.034-1.585v-.016a.415.415 0 00-.128-.29.39.39 0 00-.086-.066l-.068-.04-.048-.062a2.773 2.773 0 01-.321-.602 3.401 3.401 0 01-.234-.875.398.398 0 00-.295-.342l-.181-.047-.081-.168c-.054-.113-.109-.295-.14-.595l-.024-.224.179-.136a.398.398 0 00.116-.485c-.46-.982-.439-2.047.106-2.904.598-.941 1.705-1.457 3.056-1.56l.268-.02.289.58a.401.401 0 00.357.22c.379 0 .726.084 1.027.274.3.189.525.466.686.807m-2.111-2.68a.4.4 0 01.358.222l-.358-.222zm.358.222l.197.394-.197-.394zM5.2 12.4v2.4H3.995a.4.4 0 100 .8h3.211a.4.4 0 100-.8H6v-2.4h-.8zm17.236 1.537c-.41-.865-1.098-1.376-1.979-1.504l-.207-.03-.093-.187m2.279 1.72c.42.89.469 2.067.185 2.86l-.056.157.071.15c.099.207.147.48.108.79-.099.79-.4 1.123-.624 1.272l-.121.08-.041.14c-.166.56-.497 1.13-.695 1.44l-.063.099v1.393c-.185.217-.362.44-.529.673a1.627 1.627 0 01-.244-.431.416.416 0 01-.026-.143V20.8a.41.41 0 01.072-.232c.145-.209.32-.501.466-.796.14-.283.28-.617.31-.893a.403.403 0 01.3-.343l.174-.045.082-.16a1.615 1.615 0 00.152-.64v-.2l-.16-.12a.396.396 0 01-.068-.572m-16.529.4v2.4H3.995a.4.4 0 100 .801h3.211a.4.4 0 100-.8H6v-2.4h-.8zm15.2 11.6c0-4.629 3.77-8.4 8.4-8.4 4.63 0 8.4 3.771 8.4 8.4a8.35 8.35 0 01-1.677 5.026l4.809 4.81-1.697 1.696-4.809-4.809A8.35 8.35 0 0128.8 37.2c-4.63 0-8.4-3.77-8.4-8.4zm8.4-7.6c-4.187 0-7.6 3.413-7.6 7.6 0 4.189 3.413 7.6 7.6 7.6a7.555 7.555 0 004.805-1.72l.28-.229 4.75 4.75.565-.566-4.75-4.75.23-.28A7.558 7.558 0 0036.4 28.8c0-4.188-3.412-7.6-7.6-7.6zM5.2 22v2.4H3.995a.4.4 0 100 .801h3.211a.4.4 0 100-.8H6V22h-.8zm23.6.8c-3.323 0-6 2.678-6 6 0 3.324 2.677 6 6 6 3.324 0 6-2.676 6-6 0-3.322-2.676-6-6-6zm-6.8 6c0-3.764 3.035-6.8 6.8-6.8 3.765 0 6.8 3.036 6.8 6.8 0 3.766-3.035 6.8-6.8 6.8a6.788 6.788 0 01-6.8-6.8zm8-5.086l.534.19a5.19 5.19 0 011.734 1.03l.133.12v7.492l-.133.12c-.5.45-1.087.802-1.734 1.032l-.534.19V23.713zm.8 1.174v7.826c.287-.147.554-.325.8-.529v-6.77a4.387 4.387 0 00-.8-.527zM5.2 26.8v2.4H3.995a.4.4 0 100 .8h3.211a.4.4 0 100-.8H6v-2.4h-.8zm0 4.8v2.8c0 1.102.898 2 2 2h15.111a10.355 10.355 0 01-.828-.8H7.2A1.2 1.2 0 016 34.4v-2.8h-.8z"/></g><defs><clipPath id="clip0"><path fill="#fff" d="M0 0h40v40H0z"/></clipPath></defs></svg>