<svg width="119" height="40" fill="none" xmlns="http://www.w3.org/2000/svg"><g clip-path="url(#clip0)"><path d="M51.483 27.642l-5.17-14.396c-.07-.191-.157-.47-.157-.696 0-.627.522-1.219 1.288-1.219.662 0 1.097.436 1.288 1.045l4.283 12.394 4.317-12.429c.191-.592.591-1.01 1.253-1.01h.14c.696 0 1.113.436 1.322 1.01l4.282 12.412 4.352-12.464c.174-.522.523-.992 1.219-.992.73 0 1.253.557 1.253 1.183 0 .227-.104.488-.157.697L65.793 27.59c-.261.748-.784 1.149-1.393 1.149h-.104c-.662 0-1.15-.4-1.393-1.149l-4.247-12.22-4.283 12.22c-.226.748-.73 1.149-1.375 1.149h-.07c-.66.052-1.183-.348-1.444-1.097zm37.67-15.074c0-.697.556-1.289 1.253-1.289.73 0 1.288.557 1.288 1.289v2.924c1.253-2.838 4.02-4.178 5.866-4.178.766 0 1.253.557 1.253 1.288 0 .697-.47 1.184-1.131 1.288-3.29.4-6.006 2.873-6.006 7.782v5.779c0 .696-.522 1.288-1.253 1.288a1.264 1.264 0 01-1.288-1.288l.017-14.883zm17.807 16.328c-4.595 0-8.338-3.552-8.338-8.774v-.07c0-4.856 3.394-8.773 8.007-8.773 4.944 0 7.764 4.074 7.764 8.547a1.18 1.18 0 01-1.166 1.184h-12.081c.348 3.656 2.907 5.71 5.884 5.71 2.071 0 3.586-.819 4.822-1.967.191-.157.417-.296.713-.296.609 0 1.097.487 1.097 1.079 0 .296-.122.592-.383.818-1.602 1.515-3.482 2.542-6.319 2.542zm4.944-9.766c-.261-3.064-2.002-5.744-5.327-5.744-2.907 0-5.1 2.437-5.431 5.744h10.758zm-40.768 4.491v-.07c0-3.585 2.959-5.483 7.259-5.483 2.175 0 3.707.296 5.24.731v-.592c0-3.063-1.88-4.63-5.066-4.63-1.706 0-2.698.226-3.952.783a1.2 1.2 0 01-.452.105c-.592 0-1.115-.488-1.115-1.08 0-.522.227-.852.697-1.061 1.67-.731 2.942-.975 5.1-.975 2.402 0 4.248.627 5.484 1.88 1.148 1.149 1.74 2.803 1.74 4.961v9.383c0 .713-.522 1.253-1.218 1.253-.714 0-1.201-.522-1.201-1.184v-1.619c-1.184 1.55-3.168 2.925-6.145 2.925-3.168-.035-6.371-1.845-6.371-5.327zm12.533-1.323v-1.636a17.565 17.565 0 00-4.996-.731c-3.185 0-4.961 1.375-4.961 3.516v.07c0 2.14 1.967 3.394 4.282 3.394 3.116 0 5.675-1.915 5.675-4.613zm-78.246-9.87c-.557-1.218-1.932-1.775-3.22-1.2-1.289.574-1.759 2-1.184 3.22L6.415 26.18c.853 1.845 1.74 2.803 3.43 2.803 1.792 0 2.576-1.045 3.429-2.803 0 0 4.7-10.253 4.752-10.357.052-.105.191-.436.679-.436.4 0 .748.331.748.766V26.18c0 1.55.853 2.82 2.507 2.82 1.654 0 2.541-1.27 2.541-2.82v-8.199c0-1.584 1.132-2.611 2.681-2.611 1.55 0 2.577 1.062 2.577 2.611v8.199c0 1.55.852 2.82 2.506 2.82s2.542-1.27 2.542-2.82v-8.199c0-1.584 1.131-2.611 2.68-2.611 1.55 0 2.577 1.062 2.577 2.611v8.199c0 1.55.853 2.82 2.506 2.82 1.654 0 2.542-1.27 2.542-2.82v-9.33c0-3.43-2.75-5.832-6.075-5.832-3.308 0-5.397 2.298-5.397 2.298-1.096-1.445-2.628-2.315-5.204-2.315-2.716 0-5.1 2.298-5.1 2.298C22.237 11.87 20.358 11 18.791 11c-2.402.017-4.317 1.08-5.484 3.742l-3.446 8.13-4.439-10.445zm109.161.958c0-1.167.923-2.124 2.107-2.124 1.183 0 2.106.94 2.106 2.089v.017c0 1.15-.923 2.124-2.106 2.124a2.103 2.103 0 01-2.107-2.106zm3.813-.018c0-.957-.731-1.723-1.706-1.723-.958 0-1.706.783-1.706 1.723v.018c0 .94.731 1.723 1.706 1.723.957 0 1.706-.8 1.706-1.74z" fill="#717073"/><path d="M115.891 12.55a.23.23 0 01.226-.226h.696c.261 0 .47.07.592.209.122.104.174.278.174.47 0 .313-.157.522-.4.626l.313.383c.035.053.07.105.07.174a.212.212 0 01-.209.21.273.273 0 01-.227-.123l-.435-.557h-.365v.436a.23.23 0 01-.227.226.23.23 0 01-.226-.226l.018-1.602zm.905.766c.226 0 .33-.122.33-.296 0-.191-.121-.296-.348-.296h-.452v.592h.47z" fill="#fff"/></g><defs><clipPath id="clip0"><path fill="#fff" d="M.777 0h118v40h-118z"/></clipPath></defs></svg>