<svg width="80" height="80" fill="none" xmlns="http://www.w3.org/2000/svg"><path d="M47 57H33v12h14V57z" fill="#98CCFD"/><path d="M46 58v10H34V58h12zm2-2H32v14h16V56z" fill="#4788C7"/><path d="M77 9H3v52h74V9z" fill="#fff"/><path d="M76 10v50H4V10h72zm2-2H2v54h76V8z" fill="#4788C7"/><path d="M77 53H3v8h74v-8z" fill="#98CCFD"/><path d="M76 54v6H4v-6h72zm2-2H2v10h76V52z" fill="#4788C7"/><path d="M19 73v-1c0-2.756 2.244-5 5-5h32c2.756 0 5 2.244 5 5v1H19z" fill="#98CCFD"/><path d="M56 68c2.206 0 4 1.794 4 4H20c0-2.206 1.794-4 4-4h32zm0-2H24a6 6 0 00-6 6v2h44v-2a6 6 0 00-6-6z" fill="#4788C7"/><path d="M73 58h-4a1 1 0 010-2h4a1 1 0 010 2z" fill="#fff"/><path d="M39.998 45.92c-2.112-.922-12.738-6.442-12.994-24.262L40 16.088l12.996 5.57c-.258 17.768-10.96 23.358-12.998 24.262z" fill="#DFF0FE"/><path d="M40 17.176l11.98 5.134c-.47 15.852-9.394 21.272-11.974 22.51-2.594-1.262-11.518-6.742-11.988-22.51L40 17.176zM40 15l-14 6c0 20.92 14 26 14 26s14-4.972 14-26l-14-6z" fill="#4788C7"/><path d="M40 21.528l-7.8 3.342c.966 8.982 5.2 13.384 7.824 15.286 2.584-1.868 6.816-6.248 7.778-15.286L40 21.528z" fill="#98CCFD"/></svg>