<svg width="38" height="38" fill="none" xmlns="http://www.w3.org/2000/svg"><path d="M30.936 1.401a1.759 1.759 0 00-1.22.414l-.022.023-21.09 18.33-.045.022-.023.023-.046.046a.71.71 0 00-.207.207l-2.829 2.829c-.434.434-.563 1.07-.506 1.54.058.472.219.849.322 1.197.187.62.38 1.273.345 1.955-.034.655-.262 1.374-1.08 2.23a.698.698 0 00-.093.092.704.704 0 00-.092.115L.81 33.943a.74.74 0 00-.184.701.74.74 0 00.506.518l4.622 1.38c.262.08.543.008.736-.184l1.909-1.932a.712.712 0 00.138-.115c1.693-1.65 3.34-.983 4.254-.759.322.078.71.213 1.173.276.463.063 1.098-.04 1.541-.483l2.852-2.875a.663.663 0 00.16-.138c.01-.008.015-.014.024-.023a.897.897 0 00.046-.069L36.96 9.082c.604-.71.59-1.756-.069-2.414l-4.76-4.76a1.757 1.757 0 00-1.196-.507zm-.046 1.472c.083.003.16.023.207.069l4.76 4.76c.086.087.086.288 0 .414-.006.006.006.018 0 .023L17.942 28.746l-7.888-7.889L30.66 2.942a.337.337 0 01.23-.069zM8.973 21.869l7.957 7.957-2.484 2.484c-.109.11-.089.098-.299.07-.21-.03-.549-.17-.989-.277-.595-.144-2.97-.779-5.082.782l-2.139-2.139c.722-.922 1.107-1.857 1.15-2.69.052-1.018-.239-1.858-.414-2.438-.124-.414-.253-.765-.276-.966-.023-.201-.026-.204.092-.322l2.484-2.46zM4.97 31.873l1.955 1.955-1.173 1.173-3.013-.897 2.231-2.23z" fill="#fff" stroke="#fff"/></svg>