<svg width="24" height="22" fill="none" xmlns="http://www.w3.org/2000/svg"><path d="M23 0a1 1 0 00-.2.021V.02l-9.315 1.27a.85.85 0 00-.734.843V9a1 1 0 001 1H23a1 1 0 001-1V1a1 1 0 00-1-1zM9.775 1.795L.87 3.01A1 1 0 000 4v5a1 1 0 001 1h8.742a1 1 0 001-1V2.639a.851.851 0 00-.967-.844zM1 12a1 1 0 00-1 1v5a1 1 0 00.9.994l8.875 1.211a.851.851 0 00.967-.844V13a1 1 0 00-1-1H1zm12.75 0a1 1 0 00-1 1v6.867a.85.85 0 00.734.844l9.315 1.27h.002A1.002 1.002 0 0024 21v-8a1 1 0 00-1-1h-9.25z" fill="#2E3144"/></svg>