<svg width="50" height="50" fill="none" xmlns="http://www.w3.org/2000/svg"><path d="M29.375 35.625h-8.75v7.5h8.75v-7.5z" fill="#98CCFD"/><path d="M28.75 36.25v6.25h-7.5v-6.25h7.5zM30 35H20v8.75h10V35z" fill="#4788C7"/><path d="M48.125 5.625H1.875v32.5h46.25v-32.5z" fill="#fff"/><path d="M47.5 6.25V37.5h-45V6.25h45zM48.75 5H1.25v33.75h47.5V5z" fill="#4788C7"/><path d="M48.125 33.125H1.875v5h46.25v-5z" fill="#98CCFD"/><path d="M47.5 33.75v3.75h-45v-3.75h45zm1.25-1.25H1.25v6.25h47.5V32.5z" fill="#4788C7"/><path d="M11.875 45.625V45A3.128 3.128 0 0115 41.875h20A3.128 3.128 0 0138.125 45v.625h-26.25z" fill="#98CCFD"/><path d="M35 42.5c1.379 0 2.5 1.121 2.5 2.5h-25c0-1.379 1.121-2.5 2.5-2.5h20zm0-1.25H15A3.75 3.75 0 0011.25 45v1.25h27.5V45A3.75 3.75 0 0035 41.25z" fill="#4788C7"/><path d="M45.625 36.25h-2.5a.625.625 0 010-1.25h2.5a.625.625 0 010 1.25z" fill="#fff"/><path d="M25 18.75h8.75V10L25 11.25v7.5zM25 20v7.5l8.75 1.25V20H25zm-10-7.321v6.071h8.75v-7.321L15 12.679zm8.75 14.642V20H15v6.071l8.75 1.25z" fill="#98CCFD"/></svg>