<svg width="1640" height="1590" fill="none" xmlns="http://www.w3.org/2000/svg"><path opacity=".3" fill-rule="evenodd" clip-rule="evenodd" d="M820 1589.78l627.75-354.44c2.1-.66 192.25-82.11 192.25-213.17V659.597c-31.9 61.433-95.73 107.067-152.32 137.416C1417.54 833.948 820 1171.26 820 1171.26v418.52z" fill="url(#paint0_linear)"/><path opacity=".5" fill-rule="evenodd" clip-rule="evenodd" d="M1639.92 564.884c0-130.552-190.16-211.595-193.18-212.729 0 0-597.294-335.537-626.825-352.155v416.387c51.374 28.618 610.605 341.496 660.135 368.677 51.61-27.803 159.87-97.758 159.87-196.235v-23.945z" fill="url(#paint1_linear)"/><path opacity=".3" fill-rule="evenodd" clip-rule="evenodd" d="M820 1589.78c-29.491-16.6-627.751-354.44-627.751-354.44C190.148 1234.68 0 1153.23 0 1022.17V659.597c31.896 61.433 95.73 107.067 152.32 137.416C222.459 833.948 820 1171.26 820 1171.26v418.52z" fill="url(#paint2_linear)"/><defs><linearGradient id="paint0_linear" x1="820" y1="659.597" x2="820" y2="1589.78" gradientUnits="userSpaceOnUse"><stop stop-color="#56A3C4" stop-opacity=".01"/><stop offset="1" stop-color="#2B6A92"/></linearGradient><linearGradient id="paint1_linear" x1="3283.65" y1="1456.75" x2="2220.75" y2="-347.502" gradientUnits="userSpaceOnUse"><stop stop-color="#80A6BE" stop-opacity=".492"/><stop offset="1" stop-color="#2B6A92" stop-opacity=".01"/></linearGradient><linearGradient id="paint2_linear" x1="335.782" y1="509.565" x2="1017.56" y2="1054.09" gradientUnits="userSpaceOnUse"><stop stop-color="#fff" stop-opacity=".01"/><stop offset="1" stop-color="#80A6BE"/></linearGradient></defs></svg>