<?xml version="1.0" standalone="no"?>
<!DOCTYPE svg PUBLIC "-//W3C//DTD SVG 20010904//EN"
 "http://www.w3.org/TR/2001/REC-SVG-20010904/DTD/svg10.dtd">
<svg version="1.0" xmlns="http://www.w3.org/2000/svg"
 width="700.000000pt" height="700.000000pt" viewBox="0 0 700.000000 700.000000"
 preserveAspectRatio="xMidYMid meet">
<metadata>
Created by potrace 1.14, written by Peter Selinger 2001-2017
</metadata>
<g transform="translate(0.000000,700.000000) scale(0.100000,-0.100000)"
fill="#000000" stroke="none">
<path d="M3260 6866 c-305 -171 -774 -434 -825 -461 -34 -19 -99 -55 -325
-182 -19 -11 -62 -35 -95 -53 -33 -18 -94 -52 -135 -75 -41 -23 -97 -55 -125
-70 -27 -15 -124 -69 -215 -120 -91 -51 -187 -105 -215 -120 -27 -15 -84 -47
-125 -70 -41 -23 -102 -57 -135 -75 -33 -18 -89 -50 -125 -70 -36 -21 -114
-63 -175 -93 -359 -181 -598 -391 -706 -621 -59 -125 -59 -127 -59 -990 l0
-788 42 63 c132 201 327 359 668 543 80 43 183 100 230 126 88 49 157 87 270
148 58 31 147 81 235 132 17 9 59 33 95 52 67 36 933 517 1005 558 22 13 65
36 95 53 30 16 105 58 165 92 61 34 137 77 170 95 33 18 155 86 270 151 116
64 221 122 235 129 23 10 43 1 215 -95 105 -59 219 -123 255 -142 36 -20 202
-112 370 -206 168 -93 330 -183 360 -200 30 -16 109 -60 175 -97 66 -37 156
-87 200 -110 44 -24 92 -51 107 -62 14 -10 28 -18 31 -18 3 0 34 -16 69 -36
34 -20 88 -50 118 -66 85 -47 132 -73 170 -95 19 -11 71 -39 115 -63 44 -24
208 -115 365 -202 238 -133 288 -157 305 -149 139 71 309 196 418 307 172 176
247 343 247 550 0 123 -14 209 -46 288 -25 62 -84 165 -113 197 -9 9 -34 38
-56 64 -81 95 -284 251 -435 332 -30 17 -104 56 -165 87 -60 31 -132 69 -160
85 -27 16 -66 38 -85 49 -19 11 -114 63 -210 117 -96 54 -204 113 -240 133
-36 19 -82 46 -102 59 -21 13 -40 23 -42 23 -2 0 -43 23 -91 50 -48 28 -88 50
-90 50 -2 0 -42 23 -90 50 -48 28 -88 50 -90 50 -2 0 -30 15 -62 34 -32 18
-157 89 -278 156 -121 68 -312 175 -425 238 -113 63 -230 128 -260 144 -30 17
-84 47 -120 68 -36 21 -90 51 -120 68 -30 16 -92 51 -138 76 -45 25 -83 46
-85 45 -1 0 -108 -60 -237 -133z"/>
<path d="M6950 3848 c-53 -83 -177 -213 -275 -291 -100 -79 -186 -133 -352
-223 -123 -67 -487 -267 -528 -291 -22 -12 -47 -26 -55 -30 -8 -3 -67 -36
-130 -71 -63 -36 -137 -78 -165 -92 -27 -15 -70 -38 -95 -52 -69 -39 -568
-317 -625 -348 -27 -15 -81 -44 -120 -65 -38 -21 -81 -46 -95 -55 -14 -9 -38
-24 -55 -32 -16 -8 -52 -27 -80 -43 -164 -92 -410 -229 -535 -298 -80 -43
-154 -85 -165 -92 -11 -7 -22 -12 -25 -11 -3 0 -18 -9 -35 -20 -61 -43 -118
-67 -135 -56 -14 8 -1246 694 -1400 779 -30 16 -77 43 -105 58 -164 92 -300
167 -370 205 -44 23 -84 46 -90 50 -5 4 -37 22 -70 40 -33 18 -74 41 -92 51
-18 10 -63 35 -100 55 -37 21 -122 67 -188 104 -66 37 -142 79 -170 94 -57 31
-111 61 -172 95 l-41 24 -84 -49 c-115 -67 -273 -189 -349 -269 -35 -37 -69
-73 -75 -79 -26 -27 -94 -136 -117 -186 -46 -102 -49 -121 -53 -280 -1 -87 3
-157 11 -199 50 -230 262 -468 596 -666 9 -5 66 -35 126 -66 112 -58 169 -89
306 -166 42 -24 96 -54 120 -67 23 -13 175 -98 337 -188 280 -157 332 -186
432 -242 24 -13 61 -33 83 -46 22 -12 77 -43 123 -69 46 -25 104 -58 130 -74
26 -15 54 -30 62 -34 8 -4 157 -86 330 -184 174 -97 338 -189 365 -203 28 -15
57 -31 65 -36 29 -18 213 -120 216 -120 3 0 21 -10 42 -23 20 -13 63 -38 95
-55 l57 -32 163 91 c89 50 190 106 224 125 34 19 85 47 113 64 28 16 52 30 54
30 2 0 48 25 102 56 120 68 154 87 409 229 110 61 217 121 237 133 21 12 68
38 105 58 59 32 228 126 343 191 19 11 62 35 95 53 78 43 114 63 205 115 41
23 107 59 145 80 39 21 108 60 154 87 46 26 85 48 87 48 1 0 42 23 91 51 48
28 138 76 198 106 165 82 258 141 419 263 42 31 177 173 214 223 21 29 55 86
75 127 68 138 67 129 65 1004 l-3 784 -45 -70z"/>
</g>
</svg>
