<svg width="49" height="49" viewBox="0 0 49 49" fill="none" xmlns="http://www.w3.org/2000/svg">
<path d="M16.0013 38.9156L16.0012 38.9156C15.9151 38.8646 15.8483 38.8619 15.7841 38.8752C15.6996 38.8927 15.6293 38.9395 15.6029 38.9658L15.6028 38.966M16.0013 38.9156L14.8958 38.2588L15.6028 38.966M16.0013 38.9156C17.3499 39.7132 18.8017 40.3159 20.3163 40.7068L20.3163 40.7068M16.0013 38.9156L20.3163 40.7068M15.6028 38.966L14.2145 40.3543L15.6028 38.966ZM10.6561 40.3543C11.6219 41.321 13.2166 41.3531 14.2141 40.3548L8.64543 38.3436L10.6556 40.3538M10.6561 40.3543L11.3632 39.6472L10.6556 40.3538M10.6561 40.3543C10.6559 40.3541 10.6557 40.354 10.6556 40.3538M10.6561 40.3543L10.6556 40.3538M20.3163 40.7068C20.4609 40.7441 20.5619 40.8744 20.5619 41.0238V42.9838C20.5619 44.3722 21.69 45.5 23.0782 45.5H25.9218C27.31 45.5 28.4381 44.3722 28.4381 42.9838V41.0238C28.4381 40.8744 28.5391 40.7441 28.6837 40.7068L28.6837 40.7068M20.3163 40.7068L28.6837 40.7068M28.6837 40.7068C30.1983 40.3159 31.6501 39.7132 32.9987 38.9156M28.6837 40.7068L32.9987 38.9156M33.397 10.0343L33.3971 10.0342L34.7854 8.64575C35.7829 7.64696 37.3779 7.67899 38.3439 8.64581C38.3441 8.64597 38.3443 8.64613 38.3444 8.6463L40.3546 10.6564C41.3231 11.6238 41.3518 13.2187 40.354 14.2153M33.397 10.0343L38.9158 16.0016L38.055 16.5105L38.9157 16.0015C38.8397 15.8728 38.8604 15.709 38.9661 15.6033L40.354 14.2153M33.397 10.0343C33.2913 10.14 33.1274 10.1607 32.9989 10.0846L32.9988 10.0846M33.397 10.0343L32.9988 10.0846M40.354 14.2153L39.6474 13.5078L40.3545 14.2149L40.354 14.2153ZM32.9988 10.0846C31.6502 9.287 30.1984 8.68429 28.6838 8.29341L28.6838 8.29339M32.9988 10.0846L28.6838 8.29339M28.6838 8.29339C28.5392 8.25609 28.4382 8.12574 28.4382 7.97637V6.01619C28.4382 4.62782 27.3101 3.5 25.9219 3.5H23.0783C21.6901 3.5 20.562 4.62782 20.562 6.01619V7.97619C20.562 8.12556 20.461 8.25592 20.3164 8.29321L20.3164 8.29323M28.6838 8.29339L20.3164 8.29323M20.3164 8.29323C18.8019 8.68409 17.3501 9.28676 16.0016 10.0843L20.3164 8.29323ZM6.01617 20.5619H6.01628H7.97627C8.12556 20.5619 8.25594 20.4609 8.29331 20.3163L6.01617 20.5619ZM6.01617 20.5619C4.62805 20.562 3.5 21.6897 3.5 23.0781M6.01617 20.5619L3.5 23.0781M32.9987 38.9156C33.1275 38.8395 33.2912 38.8602 33.397 38.9659M32.9987 38.9156L33.397 38.9659M33.397 38.9659C33.397 38.9659 33.397 38.966 33.397 38.966L34.7849 40.3539L33.397 38.9659ZM40.3545 34.7853L38.9661 33.3969C38.8604 33.2912 38.8397 33.1274 38.9157 32.9987L40.3545 34.7853ZM40.3545 34.7853L40.355 34.7858L39.6479 35.4929L40.3545 34.7853ZM10.6569 8.645C11.6257 7.67526 13.2202 7.65029 14.2148 8.64566L10.6569 8.645ZM10.6569 8.645C10.6568 8.64509 10.6567 8.64518 10.6566 8.64528M10.6569 8.645L10.6566 8.64528M10.6566 8.64528C10.6565 8.64539 10.6564 8.6455 10.6563 8.64561M10.6566 8.64528L10.6563 8.64561M10.6563 8.64561L8.64605 10.6557C8.64592 10.6559 8.64578 10.656 8.64564 10.6562C7.68109 11.62 7.6446 13.2149 8.64551 14.2146L8.64509 14.2142L10.6563 8.64561ZM3.5 23.0781V25.9219M3.5 23.0781V25.9219M3.5 25.9219C3.5 27.3102 4.62805 28.4381 6.01628 28.4381M3.5 25.9219L6.01628 28.4381M6.01628 28.4381H7.97619M6.01628 28.4381H7.97619M7.97619 28.4381C8.12544 28.4381 8.25582 28.539 8.29322 28.6836L7.97619 28.4381ZM38.3438 40.3544L40.354 38.3443L40.3544 38.3438L38.3438 40.3544ZM38.9158 32.9986C39.7133 31.6501 40.3159 30.1983 40.7068 28.6838L38.9158 32.9986ZM40.7068 28.6837C40.7441 28.5391 40.8745 28.4381 41.0238 28.4381H42.9837C44.3719 28.4381 45.5 27.3103 45.5 25.9219V23.0782C45.5 21.6899 44.3719 20.562 42.9837 20.562H41.0238C40.8745 20.562 40.7441 20.4611 40.7068 20.3164L40.7068 28.6837ZM16.0014 10.0844C15.8724 10.1605 15.7087 10.1396 15.6031 10.0341C15.6031 10.0341 15.6031 10.0341 15.6031 10.034L14.2152 8.64605L16.0014 10.0844ZM10.0843 16.0014C9.28677 17.3499 8.68419 18.8017 8.29333 20.3162L10.0843 16.0014ZM8.29325 28.6837C8.68412 30.1983 9.28681 31.6501 10.0842 32.9985C10.1604 33.1272 10.1396 33.2911 10.0339 33.3968L8.64595 34.7848C8.64581 34.7849 8.64568 34.7851 8.64554 34.7852C7.64837 35.7816 7.677 37.3759 8.64501 38.3432L8.29325 28.6837Z" stroke="white" stroke-width="2"/>
<path d="M24.4995 15.5C19.5359 15.5 15.4995 19.5365 15.4995 24.5C15.4995 29.4635 19.536 33.5 24.4995 33.5C29.463 33.5 33.4995 29.4635 33.4995 24.5C33.4995 19.5365 29.4631 15.5 24.4995 15.5Z" stroke="white" stroke-width="2"/>
</svg>
