<svg width="20" height="20" viewBox="0 0 20 20" fill="none" xmlns="http://www.w3.org/2000/svg">
<path d="M18.3327 14.1449V16.6539C18.3336 16.8868 18.2858 17.1174 18.1923 17.3308C18.0988 17.5442 17.9617 17.7358 17.7897 17.8932C17.6177 18.0507 17.4147 18.1706 17.1936 18.2452C16.9725 18.3198 16.7383 18.3475 16.5058 18.3266C13.9272 18.0469 11.4502 17.1675 9.27392 15.759C7.24918 14.475 5.53256 12.7617 4.24595 10.741C2.82972 8.55918 1.94837 6.07509 1.67331 3.48998C1.65236 3.2587 1.6799 3.02561 1.75417 2.80554C1.82844 2.58547 1.94781 2.38325 2.10468 2.21174C2.26155 2.04024 2.45248 1.90321 2.66532 1.80938C2.87816 1.71556 3.10824 1.66699 3.34092 1.66677H5.8549C6.26159 1.66277 6.65585 1.8065 6.96421 2.07116C7.27257 2.33583 7.47397 2.70336 7.53089 3.10526C7.637 3.9082 7.83379 4.69658 8.11749 5.45537C8.23024 5.75471 8.25464 6.08004 8.1878 6.3928C8.12097 6.70556 7.9657 6.99264 7.74039 7.22003L6.67614 8.28218C7.86907 10.376 9.60615 12.1096 11.7041 13.3002L12.7684 12.238C12.9962 12.0132 13.2839 11.8582 13.5972 11.7915C13.9106 11.7248 14.2366 11.7492 14.5365 11.8617C15.2968 12.1448 16.0868 12.3412 16.8913 12.4471C17.2984 12.5044 17.6701 12.7091 17.9359 13.0221C18.2016 13.3351 18.3429 13.7347 18.3327 14.1449Z" stroke="#B1BED3" stroke-width="2" stroke-linecap="round" stroke-linejoin="round"/>
</svg>
