<svg width="14" height="14" viewBox="0 0 14 14" fill="none" xmlns="http://www.w3.org/2000/svg">
<path d="M13.6664 10.3161V12.3233C13.6672 12.5096 13.6289 12.694 13.5541 12.8648C13.4793 13.0355 13.3696 13.1888 13.2321 13.3147C13.0945 13.4407 12.932 13.5366 12.7552 13.5963C12.5783 13.656 12.3909 13.6782 12.205 13.6614C10.142 13.4377 8.16045 12.7342 6.41943 11.6074C4.79964 10.5801 3.42634 9.20953 2.39705 7.59295C1.26407 5.84749 0.55899 3.86022 0.338938 1.79213C0.322185 1.60711 0.344217 1.42064 0.403631 1.24458C0.463045 1.06852 0.55854 0.906744 0.684035 0.76954C0.80953 0.632335 0.962275 0.522713 1.13255 0.447652C1.30282 0.372591 1.48688 0.333736 1.67303 0.333561H3.68422C4.00956 0.330365 4.32497 0.445348 4.57166 0.657077C4.81835 0.868807 4.97947 1.16284 5.02501 1.48436C5.1099 2.12671 5.26732 2.75741 5.49429 3.36444C5.58448 3.60391 5.604 3.86418 5.55054 4.11438C5.49707 4.36459 5.37285 4.59426 5.19261 4.77617L4.3412 5.62589C5.29555 7.30093 6.68521 8.68784 8.36358 9.6403L9.21498 8.79058C9.39726 8.61069 9.62738 8.48672 9.87809 8.43336C10.1288 8.38 10.3896 8.39948 10.6295 8.4895C11.2378 8.71601 11.8697 8.87313 12.5133 8.95785C12.839 9.0037 13.1364 9.16741 13.349 9.41783C13.5616 9.66825 13.6746 9.98793 13.6664 10.3161Z" fill="#178CF9"/>
</svg>
