<svg width="60" height="60" viewBox="0 0 60 60" fill="none" xmlns="http://www.w3.org/2000/svg">
<path d="M44.2379 17.2037H43.9454C43.1145 17.2037 42.4043 16.6008 42.2496 15.7701C41.1565 9.89675 36.0896 5.45459 29.9999 5.45459C23.9103 5.45459 18.8432 9.89675 17.7501 15.7701C17.5956 16.6008 16.8852 17.2037 16.0543 17.2037H15.7619C10.0691 17.2037 5.4541 21.8998 5.4541 27.6929C5.4541 33.4858 10.0689 38.1819 15.7617 38.1819H44.2375C49.9302 38.1819 54.545 33.4858 54.545 27.6929C54.5454 21.8998 49.9306 17.2037 44.2379 17.2037Z" fill="#DBEAF8"/>
<path d="M48.6069 38.8603L47.413 38.3212L44.6518 34.2029L44.7157 32.8818C42.5808 31.0839 39.8248 30 36.8153 30C30.2809 29.9999 24.9401 35.1069 24.5645 41.5471L24.9625 41.7289V43.4587L24.6419 43.8381C24.858 45.5334 25.4198 47.1207 26.2545 48.5271C26.2793 48.5337 27.0316 48.7363 27.1325 48.7766C27.235 48.8176 29.9008 50.6843 29.9008 50.6843V52.413C31.8699 53.7583 34.2505 54.5455 36.8153 54.5455C43.5934 54.5455 49.0881 49.0507 49.0881 42.2726C49.0881 41.0885 48.9199 39.9437 48.6069 38.8603Z" fill="#74B7F3"/>
<path d="M48.611 38.8613H41.4981C40.9041 38.8613 40.4229 38.3801 40.4229 37.7861C40.4229 37.489 40.5434 37.2199 40.7377 37.0256C40.932 36.8314 41.2011 36.7108 41.4981 36.7108H43.0903C43.5827 36.7108 43.982 36.3116 43.982 35.8191C43.982 35.5731 43.8822 35.3503 43.7212 35.1893C43.5602 35.0278 43.3368 34.9279 43.0909 34.9279H42.9091C42.3441 34.9279 41.8861 34.4699 41.8861 33.9049C41.8861 33.6222 42.0007 33.3667 42.1855 33.1814C42.3708 32.996 42.6263 32.8813 42.9091 32.8813H44.7192C46.5609 34.4206 47.929 36.4927 48.611 38.8613Z" fill="#C3E87D"/>
<path d="M34.4191 50.2344C35.0268 50.2344 35.5199 50.7269 35.5199 51.3352C35.5199 51.6394 35.3964 51.9144 35.1973 52.1134C34.9983 52.313 34.7227 52.436 34.4191 52.436L29.9042 52.4145C28.3804 51.4099 27.1996 50.0942 26.2568 48.5276H31.6923C32.5472 48.5276 33.2399 49.2203 33.2399 50.0746C33.2399 50.1185 33.2577 50.1589 33.2862 50.1874C33.3153 50.2165 33.3551 50.2344 33.3991 50.2344H34.4191Z" fill="#C3E87D"/>
<path d="M32.0833 41.5471C32.7219 41.5471 33.24 42.0652 33.24 42.7038C33.24 43.0234 33.1105 43.3127 32.9013 43.5218C32.6916 43.731 32.4023 43.8605 32.0833 43.8605H24.8124L24.644 43.839C24.5739 43.3102 24.5449 42.8209 24.5449 42.2731C24.5449 42.0391 24.5524 41.7776 24.5661 41.5471H24.8124H32.0833Z" fill="#C3E87D"/>
<path d="M37.3915 44.9104C36.7681 44.9104 36.2627 45.4158 36.2627 46.0392C36.2627 46.6626 36.7681 47.168 37.3915 47.168H43.3582C43.9816 47.168 44.487 46.6626 44.487 46.0392C44.487 45.4158 43.9816 44.9104 43.3582 44.9104H37.3915Z" fill="#C3E87D"/>
</svg>
