<svg width="88" height="60" viewBox="0 0 88 60" fill="none" xmlns="http://www.w3.org/2000/svg">
<g clip-path="url(#clip0)">
<path d="M49.0283 11.1428V33.2973C49.0283 34.9326 54.8097 36.2582 61.9413 36.2582C69.073 36.2582 74.8543 34.9326 74.8543 33.2973V11.1428C74.8543 11.1428 49.0283 11.1428 49.0283 11.1428Z" fill="#DFEAEF"/>
<path d="M71.9037 11.1428V18.5276C71.9037 20.0485 66.9027 21.3013 60.4659 21.4692C60.9502 21.4818 61.4422 21.4885 61.9412 21.4885C65.9517 21.4885 69.5352 21.0692 71.9036 20.4115V25.9124C71.9036 27.4332 66.9027 28.6861 60.4659 28.8539C60.9501 28.8666 61.4422 28.8733 61.9411 28.8733C65.9517 28.8733 69.5352 28.454 71.9036 27.7963V33.3256C71.9036 34.8465 66.9026 36.0993 60.4658 36.2672C60.9502 36.28 61.4422 36.2867 61.9412 36.2867C69.0729 36.2867 74.8542 34.961 74.8542 33.3257V25.9409H74.8526C74.853 25.9314 74.8542 25.922 74.8542 25.9125V18.5276V11.1428H71.9037Z" fill="#BFCFD6"/>
<path d="M61.9413 20.6265C54.8097 20.6265 49.0283 19.3008 49.0283 17.6655V18.5276C49.0283 20.1628 54.8097 21.4885 61.9413 21.4885C69.073 21.4885 74.8543 20.1628 74.8543 18.5276V17.6655C74.8543 19.3008 69.073 20.6265 61.9413 20.6265Z" fill="#86AEBC"/>
<path d="M61.9413 28.011C54.8097 28.011 49.0283 26.6853 49.0283 25.05V25.9121C49.0283 27.5474 54.8097 28.873 61.9413 28.873C69.073 28.873 74.8543 27.5474 74.8543 25.9121V25.05C74.8543 26.6853 69.073 28.011 61.9413 28.011Z" fill="#86AEBC"/>
<path d="M61.9413 35.3975C54.8097 35.3975 49.0283 34.0718 49.0283 32.4365V33.2986C49.0283 34.9338 54.8097 36.2595 61.9413 36.2595C69.073 36.2595 74.8543 34.9338 74.8543 33.2986V32.4365C74.8543 34.0718 69.073 35.3975 61.9413 35.3975Z" fill="#86AEBC"/>
<path d="M61.9411 14.1038C69.0727 14.1038 74.854 12.7781 74.854 11.1428C74.854 9.50754 69.0727 8.18188 61.9411 8.18188C54.8096 8.18188 49.0283 9.50754 49.0283 11.1428C49.0283 12.7781 54.8096 14.1038 61.9411 14.1038Z" fill="#9EBECC"/>
<path d="M61.941 8.18188C61.4421 8.18188 60.95 8.18858 60.4658 8.20121C66.9026 8.36912 71.9036 9.62193 71.9036 11.1428C71.9036 12.6636 66.9026 13.9165 60.4658 14.0843C60.95 14.097 61.4421 14.1036 61.941 14.1036C69.0727 14.1036 74.854 12.778 74.854 11.1427C74.854 9.50753 69.0727 8.18188 61.941 8.18188Z" fill="#86AEBC"/>
<path d="M69.7834 18.3191C70.4621 18.3191 71.0122 17.769 71.0122 17.0903C71.0122 16.4117 70.4621 15.8616 69.7834 15.8616C69.1048 15.8616 68.5547 16.4117 68.5547 17.0903C68.5547 17.769 69.1048 18.3191 69.7834 18.3191Z" fill="#FC9F3D"/>
<path d="M61.9412 18.2452C58.4036 18.2452 55.0888 17.9244 52.6074 17.3421C52.3795 17.2886 52.2381 17.0604 52.2916 16.8325C52.3451 16.6045 52.5737 16.4633 52.8012 16.5166C55.2209 17.0845 58.467 17.3973 61.9413 17.3973C63.3966 17.3973 64.824 17.3418 66.1838 17.2324C66.4173 17.2136 66.6216 17.3876 66.6403 17.6209C66.6591 17.8543 66.4852 18.0587 66.2518 18.0774C64.8694 18.1887 63.4191 18.2452 61.9412 18.2452Z" fill="#9EBECC"/>
<path d="M69.7834 25.6067C70.4621 25.6067 71.0122 25.0566 71.0122 24.3779C71.0122 23.6993 70.4621 23.1492 69.7834 23.1492C69.1048 23.1492 68.5547 23.6993 68.5547 24.3779C68.5547 25.0566 69.1048 25.6067 69.7834 25.6067Z" fill="#FC9F3D"/>
<path d="M61.9412 25.5328C58.4038 25.5328 55.089 25.212 52.6074 24.6297C52.3795 24.5762 52.2381 24.348 52.2916 24.1201C52.3451 23.892 52.5733 23.7509 52.8012 23.8042C55.2211 24.3721 58.4672 24.6849 61.9413 24.6849C63.3966 24.6849 64.824 24.6294 66.1838 24.52C66.4184 24.5004 66.6216 24.6752 66.6403 24.9085C66.6591 25.1419 66.4852 25.3463 66.2518 25.365C64.8694 25.4764 63.4191 25.5328 61.9412 25.5328Z" fill="#9EBECC"/>
<path d="M69.7834 32.9055C70.4621 32.9055 71.0122 32.3554 71.0122 31.6768C71.0122 30.9981 70.4621 30.448 69.7834 30.448C69.1048 30.448 68.5547 30.9981 68.5547 31.6768C68.5547 32.3554 69.1048 32.9055 69.7834 32.9055Z" fill="#FC9F3D"/>
<path d="M61.9412 32.8316C58.4036 32.8316 55.0888 32.5108 52.6074 31.9285C52.3795 31.875 52.2381 31.6468 52.2916 31.4189C52.3451 31.1909 52.5737 31.0498 52.8012 31.103C55.2209 31.6709 58.467 31.9836 61.9413 31.9836C63.3966 31.9836 64.824 31.9282 66.1838 31.8188C66.4173 31.7995 66.6216 31.9739 66.6403 32.2073C66.6591 32.4407 66.4852 32.645 66.2518 32.6638C64.8694 32.7751 63.4191 32.8316 61.9412 32.8316Z" fill="#9EBECC"/>
</g>
<g clip-path="url(#clip1)">
<path d="M12.0488 11.1428V33.2973C12.0488 34.9326 17.8302 36.2582 24.9618 36.2582C32.0935 36.2582 37.8748 34.9326 37.8748 33.2973V11.1428C37.8748 11.1428 12.0488 11.1428 12.0488 11.1428Z" fill="#DFEAEF"/>
<path d="M34.9242 11.1428V18.5276C34.9242 20.0485 29.9233 21.3013 23.4864 21.4692C23.9707 21.4818 24.4627 21.4885 24.9617 21.4885C28.9722 21.4885 32.5557 21.0692 34.9241 20.4115V25.9124C34.9241 27.4332 29.9232 28.6861 23.4864 28.8539C23.9706 28.8666 24.4627 28.8733 24.9616 28.8733C28.9722 28.8733 32.5557 28.454 34.9241 27.7963V33.3256C34.9241 34.8465 29.9231 36.0993 23.4863 36.2672C23.9707 36.28 24.4627 36.2867 24.9617 36.2867C32.0934 36.2867 37.8747 34.961 37.8747 33.3257V25.9409H37.8731C37.8735 25.9314 37.8747 25.922 37.8747 25.9125V18.5276V11.1428H34.9242Z" fill="#BFCFD6"/>
<path d="M24.9618 20.6265C17.8302 20.6265 12.0488 19.3008 12.0488 17.6655V18.5276C12.0488 20.1628 17.8302 21.4885 24.9618 21.4885C32.0935 21.4885 37.8748 20.1628 37.8748 18.5276V17.6655C37.8748 19.3008 32.0935 20.6265 24.9618 20.6265Z" fill="#86AEBC"/>
<path d="M24.9618 28.011C17.8302 28.011 12.0488 26.6853 12.0488 25.05V25.9121C12.0488 27.5474 17.8302 28.873 24.9618 28.873C32.0935 28.873 37.8748 27.5474 37.8748 25.9121V25.05C37.8748 26.6853 32.0935 28.011 24.9618 28.011Z" fill="#86AEBC"/>
<path d="M24.9618 35.3975C17.8302 35.3975 12.0488 34.0718 12.0488 32.4365V33.2986C12.0488 34.9338 17.8302 36.2595 24.9618 36.2595C32.0935 36.2595 37.8748 34.9338 37.8748 33.2986V32.4365C37.8748 34.0718 32.0935 35.3975 24.9618 35.3975Z" fill="#86AEBC"/>
<path d="M24.9617 14.1038C32.0932 14.1038 37.8745 12.7781 37.8745 11.1428C37.8745 9.50754 32.0932 8.18188 24.9617 8.18188C17.8301 8.18188 12.0488 9.50754 12.0488 11.1428C12.0488 12.7781 17.8301 14.1038 24.9617 14.1038Z" fill="#9EBECC"/>
<path d="M24.9616 8.18188C24.4626 8.18188 23.9705 8.18858 23.4863 8.20121C29.9231 8.36912 34.9241 9.62193 34.9241 11.1428C34.9241 12.6636 29.9231 13.9165 23.4863 14.0843C23.9705 14.097 24.4626 14.1036 24.9616 14.1036C32.0932 14.1036 37.8745 12.778 37.8745 11.1427C37.8745 9.50753 32.0932 8.18188 24.9616 8.18188Z" fill="#86AEBC"/>
<path d="M32.804 18.3191C33.4826 18.3191 34.0327 17.769 34.0327 17.0903C34.0327 16.4117 33.4826 15.8616 32.804 15.8616C32.1253 15.8616 31.5752 16.4117 31.5752 17.0903C31.5752 17.769 32.1253 18.3191 32.804 18.3191Z" fill="#FC9F3D"/>
<path d="M24.9618 18.2452C21.4241 18.2452 18.1093 17.9244 15.6279 17.3421C15.4 17.2886 15.2586 17.0604 15.3121 16.8325C15.3656 16.6045 15.5942 16.4633 15.8217 16.5166C18.2414 17.0845 21.4875 17.3973 24.9618 17.3973C26.4171 17.3973 27.8445 17.3418 29.2043 17.2324C29.4378 17.2136 29.6421 17.3876 29.6609 17.6209C29.6796 17.8543 29.5057 18.0587 29.2723 18.0774C27.8899 18.1887 26.4396 18.2452 24.9618 18.2452Z" fill="#9EBECC"/>
<path d="M32.804 25.6067C33.4826 25.6067 34.0327 25.0566 34.0327 24.3779C34.0327 23.6993 33.4826 23.1492 32.804 23.1492C32.1253 23.1492 31.5752 23.6993 31.5752 24.3779C31.5752 25.0566 32.1253 25.6067 32.804 25.6067Z" fill="#FC9F3D"/>
<path d="M24.9618 25.5328C21.4243 25.5328 18.1095 25.212 15.6279 24.6297C15.4 24.5762 15.2586 24.348 15.3121 24.1201C15.3656 23.892 15.5938 23.7509 15.8217 23.8042C18.2416 24.3721 21.4877 24.6849 24.9618 24.6849C26.4171 24.6849 27.8445 24.6294 29.2043 24.52C29.4389 24.5004 29.6421 24.6752 29.6609 24.9085C29.6796 25.1419 29.5057 25.3463 29.2723 25.365C27.8899 25.4764 26.4396 25.5328 24.9618 25.5328Z" fill="#9EBECC"/>
<path d="M32.804 32.9055C33.4826 32.9055 34.0327 32.3554 34.0327 31.6768C34.0327 30.9981 33.4826 30.448 32.804 30.448C32.1253 30.448 31.5752 30.9981 31.5752 31.6768C31.5752 32.3554 32.1253 32.9055 32.804 32.9055Z" fill="#FC9F3D"/>
<path d="M24.9618 32.8316C21.4241 32.8316 18.1093 32.5108 15.6279 31.9285C15.4 31.875 15.2586 31.6468 15.3121 31.4189C15.3656 31.1909 15.5942 31.0498 15.8217 31.103C18.2414 31.6709 21.4875 31.9836 24.9618 31.9836C26.4171 31.9836 27.8445 31.9282 29.2043 31.8188C29.4378 31.7995 29.6421 31.9739 29.6609 32.2073C29.6796 32.4407 29.5057 32.645 29.2723 32.6638C27.8899 32.7751 26.4396 32.8316 24.9618 32.8316Z" fill="#9EBECC"/>
</g>
<g clip-path="url(#clip2)">
<path d="M29.1797 24.0278V48.5144C29.1797 50.3218 35.5696 51.787 43.4519 51.787C51.3343 51.787 57.7242 50.3218 57.7242 48.5144V24.0278C57.7242 24.0278 29.1797 24.0278 29.1797 24.0278Z" fill="#DFEAEF"/>
<path d="M54.4632 24.0278V32.19C54.4632 33.8709 48.9358 35.2557 41.8214 35.4412C42.3566 35.4551 42.9005 35.4625 43.4519 35.4625C47.8847 35.4625 51.8454 34.9991 54.4631 34.2721V40.3521C54.4631 42.033 48.9357 43.4177 41.8214 43.6033C42.3566 43.6172 42.9004 43.6247 43.4519 43.6247C47.8846 43.6247 51.8453 43.1613 54.463 42.4343V48.5457C54.463 50.2266 48.9357 51.6113 41.8213 51.7969C42.3566 51.811 42.9005 51.8184 43.452 51.8184C51.3343 51.8184 57.7242 50.3532 57.7242 48.5458V40.3836H57.7225C57.7229 40.3731 57.7242 40.3627 57.7242 40.3522V32.19V24.0278H54.4632Z" fill="#BFCFD6"/>
<path d="M43.4519 34.5097C35.5696 34.5097 29.1797 33.0445 29.1797 31.2371V32.1898C29.1797 33.9973 35.5696 35.4624 43.4519 35.4624C51.3343 35.4624 57.7242 33.9973 57.7242 32.1898V31.2371C57.7242 33.0445 51.3343 34.5097 43.4519 34.5097Z" fill="#86AEBC"/>
<path d="M43.4519 42.6715C35.5696 42.6715 29.1797 41.2064 29.1797 39.3989V40.3517C29.1797 42.1591 35.5696 43.6243 43.4519 43.6243C51.3343 43.6243 57.7242 42.1591 57.7242 40.3517V39.3989C57.7242 41.2064 51.3343 42.6715 43.4519 42.6715Z" fill="#86AEBC"/>
<path d="M43.4519 50.8354C35.5696 50.8354 29.1797 49.3702 29.1797 47.5627V48.5155C29.1797 50.3229 35.5696 51.7881 43.4519 51.7881C51.3343 51.7881 57.7242 50.3229 57.7242 48.5155V47.5627C57.7242 49.3702 51.3343 50.8354 43.4519 50.8354Z" fill="#86AEBC"/>
<path d="M43.4518 27.3004C51.334 27.3004 57.7238 25.8352 57.7238 24.0277C57.7238 22.2203 51.334 20.7551 43.4518 20.7551C35.5695 20.7551 29.1797 22.2203 29.1797 24.0277C29.1797 25.8352 35.5695 27.3004 43.4518 27.3004Z" fill="#9EBECC"/>
<path d="M43.4518 20.7551C42.9003 20.7551 42.3565 20.7625 41.8213 20.7765C48.9356 20.9621 54.463 22.3468 54.463 24.0277C54.463 25.7086 48.9357 27.0934 41.8213 27.2789C42.3565 27.2928 42.9003 27.3002 43.4518 27.3002C51.3341 27.3002 57.7241 25.835 57.7241 24.0276C57.7241 22.2203 51.3341 20.7551 43.4518 20.7551Z" fill="#86AEBC"/>
<path d="M52.1198 31.9594C52.8699 31.9594 53.4779 31.3513 53.4779 30.6013C53.4779 29.8512 52.8699 29.2432 52.1198 29.2432C51.3698 29.2432 50.7617 29.8512 50.7617 30.6013C50.7617 31.3513 51.3698 31.9594 52.1198 31.9594Z" fill="#FC9F3D"/>
<path d="M43.4514 31.8775C39.5413 31.8775 35.8776 31.523 33.135 30.8794C32.8831 30.8203 32.7268 30.5681 32.7859 30.3161C32.8451 30.0642 33.0977 29.9081 33.3492 29.967C36.0236 30.5947 39.6114 30.9404 43.4514 30.9404C45.0599 30.9404 46.6375 30.879 48.1405 30.7581C48.3985 30.7374 48.6243 30.9297 48.6451 31.1875C48.6658 31.4455 48.4736 31.6714 48.2157 31.6921C46.6877 31.8152 45.0848 31.8775 43.4514 31.8775Z" fill="#9EBECC"/>
<path d="M52.1198 40.0141C52.8699 40.0141 53.4779 39.406 53.4779 38.656C53.4779 37.9059 52.8699 37.2979 52.1198 37.2979C51.3698 37.2979 50.7617 37.9059 50.7617 38.656C50.7617 39.406 51.3698 40.0141 52.1198 40.0141Z" fill="#FC9F3D"/>
<path d="M43.4514 39.9325C39.5416 39.9325 35.8778 39.578 33.135 38.9343C32.8831 38.8752 32.7268 38.623 32.7859 38.3711C32.8451 38.119 33.0973 37.963 33.3492 38.022C36.0239 38.6497 39.6116 38.9953 43.4514 38.9953C45.0599 38.9953 46.6375 38.934 48.1405 38.813C48.3998 38.7914 48.6243 38.9846 48.6451 39.2425C48.6658 39.5004 48.4736 39.7263 48.2157 39.7471C46.6877 39.8702 45.0848 39.9325 43.4514 39.9325Z" fill="#9EBECC"/>
<path d="M52.1198 48.0814C52.8699 48.0814 53.4779 47.4734 53.4779 46.7233C53.4779 45.9733 52.8699 45.3652 52.1198 45.3652C51.3698 45.3652 50.7617 45.9733 50.7617 46.7233C50.7617 47.4734 51.3698 48.0814 52.1198 48.0814Z" fill="#FC9F3D"/>
<path d="M43.4514 47.9996C39.5413 47.9996 35.8776 47.6451 33.135 47.0014C32.8831 46.9423 32.7268 46.6901 32.7859 46.4382C32.8451 46.1862 33.0977 46.0303 33.3492 46.0891C36.0236 46.7167 39.6114 47.0624 43.4514 47.0624C45.0599 47.0624 46.6375 47.0011 48.1405 46.8801C48.3985 46.8589 48.6243 47.0516 48.6451 47.3096C48.6658 47.5675 48.4736 47.7934 48.2157 47.8142C46.6877 47.9372 45.0848 47.9996 43.4514 47.9996Z" fill="#9EBECC"/>
</g>
<defs>
<clipPath id="clip0">
<rect width="28.1048" height="28.1048" fill="white" transform="translate(47.8887 8.18188)"/>
</clipPath>
<clipPath id="clip1">
<rect width="28.1048" height="28.1048" fill="white" transform="translate(10.9092 8.18188)"/>
</clipPath>
<clipPath id="clip2">
<rect width="31.0632" height="31.0632" fill="white" transform="translate(27.9199 20.7551)"/>
</clipPath>
</defs>
</svg>
