<svg width="850" height="536" viewBox="0 0 850 536" fill="none" xmlns="http://www.w3.org/2000/svg" class="xln-scheme xln-scheme--desktop">
    <g class="xln-scheme-el xln-active" data-tab-selector="server">
        <rect x="454" y="297" width="90" height="90" rx="9" stroke="#DBEAF8" stroke-width="2"/>
        <path d="M514.254 321.509H513.867C512.769 321.509 511.831 320.713 511.626 319.616C510.182 311.864 503.486 306 495.438 306C487.39 306 480.694 311.864 479.249 319.616C479.045 320.713 478.106 321.509 477.008 321.509H476.622C469.099 321.509 463 327.708 463 335.355C463 343.001 469.099 349.2 476.622 349.2H514.253C521.776 349.2 527.875 343.001 527.875 335.355C527.875 327.708 521.777 321.509 514.254 321.509Z" fill="#DBEAF8"/>
        <path d="M500.311 374.25H528.326C528.848 374.25 529.272 374.672 529.272 375.194C529.272 375.715 528.848 376.138 528.326 376.138H500.311C499.789 376.138 499.365 375.715 499.365 375.194C499.365 374.672 499.788 374.25 500.311 374.25Z" fill="#D9E1EE"/>
        <path d="M513.373 363.207H515.264V375.847H513.373V363.207Z" fill="#D9E1EE"/>
        <path d="M512.554 372.387H516.084C516.661 372.387 517.129 372.854 517.129 373.431V376.956C517.129 377.533 516.661 378 516.084 378H512.554C511.977 378 511.509 377.533 511.509 376.956V373.431C511.509 372.854 511.977 372.387 512.554 372.387Z" fill="#575B6D"/>
        <path d="M498.709 354.079H529.928V356.678H498.709V354.079Z" fill="#434963"/>
        <path d="M498.709 341.964H529.928V344.563H498.709V341.964Z" fill="#434963"/>
        <path d="M494.676 344.14H533.96C534.535 344.14 535.001 344.605 535.001 345.179V353.755C535.001 354.329 534.535 354.794 533.96 354.794H494.676C494.102 354.794 493.636 354.329 493.636 353.755V345.179C493.636 344.605 494.102 344.14 494.676 344.14Z" fill="#575B6D"/>
        <path d="M531.186 346.316H532.313V352.921H531.186V346.316Z" fill="#434963"/>
        <path d="M528.031 346.316H529.159V352.921H528.031V346.316Z" fill="#434963"/>
        <path d="M524.877 346.316H526.004V352.921H524.877V346.316Z" fill="#434963"/>
        <path d="M521.723 346.316H522.85V352.921H521.723V346.316Z" fill="#434963"/>
        <path d="M518.568 346.316H519.696V352.921H518.568V346.316Z" fill="#434963"/>
        <path d="M515.415 346.316H516.542V352.921H515.415V346.316Z" fill="#434963"/>
        <path d="M512.26 346.316H513.387V352.921H512.26V346.316Z" fill="#434963"/>
        <path d="M497.94 351.167C498.796 351.167 499.49 350.474 499.49 349.619C499.49 348.764 498.796 348.071 497.94 348.071C497.084 348.071 496.39 348.764 496.39 349.619C496.39 350.474 497.084 351.167 497.94 351.167Z" fill="#2CBFAE"/>
        <path d="M503.468 351.167C504.324 351.167 505.018 350.474 505.018 349.619C505.018 348.764 504.324 348.071 503.468 348.071C502.611 348.071 501.917 348.764 501.917 349.619C501.917 350.474 502.611 351.167 503.468 351.167Z" fill="#EF5261"/>
        <path d="M494.676 332.1H533.959C534.534 332.1 535 332.565 535 333.14V341.715C535 342.289 534.534 342.754 533.959 342.754H494.676C494.101 342.754 493.635 342.289 493.635 341.715V333.14C493.635 332.565 494.101 332.1 494.676 332.1V332.1Z" fill="#575B6D"/>
        <path d="M531.185 334.276H532.313V340.881H531.185V334.276Z" fill="#434963"/>
        <path d="M528.031 334.276H529.158V340.881H528.031V334.276Z" fill="#434963"/>
        <path d="M524.876 334.276H526.004V340.881H524.876V334.276Z" fill="#434963"/>
        <path d="M521.722 334.276H522.85V340.881H521.722V334.276Z" fill="#434963"/>
        <path d="M518.568 334.276H519.695V340.881H518.568V334.276Z" fill="#434963"/>
        <path d="M515.414 334.276H516.542V340.881H515.414V334.276Z" fill="#434963"/>
        <path d="M512.26 334.276H513.387V340.881H512.26V334.276Z" fill="#434963"/>
        <path d="M497.94 339.127C498.796 339.127 499.49 338.434 499.49 337.579C499.49 336.724 498.796 336.031 497.94 336.031C497.084 336.031 496.39 336.724 496.39 337.579C496.39 338.434 497.084 339.127 497.94 339.127Z" fill="#2CBFAE"/>
        <path d="M503.468 339.127C504.324 339.127 505.018 338.434 505.018 337.579C505.018 336.724 504.324 336.031 503.468 336.031C502.611 336.031 501.917 336.724 501.917 337.579C501.917 338.434 502.611 339.127 503.468 339.127Z" fill="#EF5261"/>
        <path d="M494.676 356.18H533.96C534.535 356.18 535.001 356.646 535.001 357.22V365.795C535.001 366.369 534.535 366.835 533.96 366.835H494.676C494.102 366.835 493.636 366.369 493.636 365.795V357.22C493.636 356.646 494.102 356.18 494.676 356.18Z" fill="#575B6D"/>
        <path d="M531.185 358.357H532.313V364.961H531.185V358.357Z" fill="#434963"/>
        <path d="M528.031 358.357H529.158V364.961H528.031V358.357Z" fill="#434963"/>
        <path d="M524.876 358.357H526.004V364.961H524.876V358.357Z" fill="#434963"/>
        <path d="M521.722 358.357H522.85V364.961H521.722V358.357Z" fill="#434963"/>
        <path d="M518.568 358.357H519.695V364.961H518.568V358.357Z" fill="#434963"/>
        <path d="M515.414 358.357H516.542V364.961H515.414V358.357Z" fill="#434963"/>
        <path d="M512.26 358.357H513.387V364.961H512.26V358.357Z" fill="#434963"/>
        <path d="M497.94 363.207C498.796 363.207 499.49 362.514 499.49 361.659C499.49 360.804 498.796 360.11 497.94 360.11C497.084 360.11 496.39 360.804 496.39 361.659C496.39 362.514 497.084 363.207 497.94 363.207Z" fill="#2CBFAE"/>
        <path d="M503.468 363.207C504.324 363.207 505.018 362.514 505.018 361.659C505.018 360.804 504.324 360.11 503.468 360.11C502.611 360.11 501.917 360.804 501.917 361.659C501.917 362.514 502.611 363.207 503.468 363.207Z" fill="#EF5261"/>
    </g>
    <g class="xln-scheme-el xln-active" data-tab-selector="server">
        <rect x="630" y="297" width="90" height="90" rx="9" stroke="#DBEAF8" stroke-width="2"/>
        <path d="M690.254 321.509H689.867C688.769 321.509 687.831 320.713 687.626 319.616C686.182 311.864 679.486 306 671.438 306C663.39 306 656.694 311.864 655.249 319.616C655.045 320.713 654.106 321.509 653.008 321.509H652.622C645.099 321.509 639 327.708 639 335.355C639 343.001 645.099 349.2 652.622 349.2H690.253C697.776 349.2 703.875 343.001 703.875 335.355C703.875 327.708 697.777 321.509 690.254 321.509Z" fill="#DBEAF8"/>
        <path d="M670.55 374.25H698.566C699.088 374.25 699.511 374.672 699.511 375.194C699.511 375.715 699.088 376.138 698.566 376.138H670.55C670.028 376.138 669.605 375.715 669.605 375.194C669.605 374.672 670.028 374.25 670.55 374.25Z" fill="#D9E1EE"/>
        <path d="M683.613 363.207H685.504V375.847H683.613V363.207Z" fill="#D9E1EE"/>
        <path d="M682.794 372.387H686.324C686.901 372.387 687.369 372.854 687.369 373.431V376.956C687.369 377.533 686.901 378 686.324 378H682.794C682.217 378 681.749 377.533 681.749 376.956V373.431C681.749 372.854 682.217 372.387 682.794 372.387Z" fill="#575B6D"/>
        <path d="M668.949 354.079H700.168V356.678H668.949V354.079Z" fill="#434963"/>
        <path d="M668.949 341.964H700.168V344.563H668.949V341.964Z" fill="#434963"/>
        <path d="M664.916 344.14H704.2C704.774 344.14 705.24 344.605 705.24 345.179V353.755C705.24 354.329 704.774 354.794 704.2 354.794H664.916C664.341 354.794 663.875 354.329 663.875 353.755V345.179C663.875 344.605 664.341 344.14 664.916 344.14Z" fill="#575B6D"/>
        <path d="M701.425 346.316H702.553V352.921H701.425V346.316Z" fill="#434963"/>
        <path d="M698.271 346.316H699.399V352.921H698.271V346.316Z" fill="#434963"/>
        <path d="M695.117 346.316H696.244V352.921H695.117V346.316Z" fill="#434963"/>
        <path d="M691.962 346.316H693.09V352.921H691.962V346.316Z" fill="#434963"/>
        <path d="M688.808 346.316H689.936V352.921H688.808V346.316Z" fill="#434963"/>
        <path d="M685.654 346.316H686.782V352.921H685.654V346.316Z" fill="#434963"/>
        <path d="M682.5 346.316H683.627V352.921H682.5V346.316Z" fill="#434963"/>
        <path d="M668.18 351.167C669.036 351.167 669.73 350.474 669.73 349.619C669.73 348.764 669.036 348.071 668.18 348.071C667.324 348.071 666.63 348.764 666.63 349.619C666.63 350.474 667.324 351.167 668.18 351.167Z" fill="#2CBFAE"/>
        <path d="M673.707 351.167C674.563 351.167 675.257 350.474 675.257 349.619C675.257 348.764 674.563 348.071 673.707 348.071C672.851 348.071 672.157 348.764 672.157 349.619C672.157 350.474 672.851 351.167 673.707 351.167Z" fill="#EF5261"/>
        <path d="M664.916 332.1H704.199C704.774 332.1 705.24 332.565 705.24 333.14V341.715C705.24 342.289 704.774 342.754 704.199 342.754H664.916C664.341 342.754 663.875 342.289 663.875 341.715V333.14C663.875 332.565 664.341 332.1 664.916 332.1V332.1Z" fill="#575B6D"/>
        <path d="M701.425 334.276H702.552V340.881H701.425V334.276Z" fill="#434963"/>
        <path d="M698.271 334.276H699.398V340.881H698.271V334.276Z" fill="#434963"/>
        <path d="M695.116 334.276H696.244V340.881H695.116V334.276Z" fill="#434963"/>
        <path d="M691.962 334.276H693.089V340.881H691.962V334.276Z" fill="#434963"/>
        <path d="M688.808 334.276H689.935V340.881H688.808V334.276Z" fill="#434963"/>
        <path d="M685.654 334.276H686.781V340.881H685.654V334.276Z" fill="#434963"/>
        <path d="M682.5 334.276H683.627V340.881H682.5V334.276Z" fill="#434963"/>
        <path d="M668.18 339.127C669.036 339.127 669.73 338.434 669.73 337.579C669.73 336.724 669.036 336.031 668.18 336.031C667.324 336.031 666.63 336.724 666.63 337.579C666.63 338.434 667.324 339.127 668.18 339.127Z" fill="#2CBFAE"/>
        <path d="M673.707 339.127C674.563 339.127 675.257 338.434 675.257 337.579C675.257 336.724 674.563 336.031 673.707 336.031C672.851 336.031 672.157 336.724 672.157 337.579C672.157 338.434 672.851 339.127 673.707 339.127Z" fill="#EF5261"/>
        <path d="M664.916 356.18H704.2C704.774 356.18 705.24 356.646 705.24 357.22V365.795C705.24 366.369 704.774 366.835 704.2 366.835H664.916C664.341 366.835 663.875 366.369 663.875 365.795V357.22C663.875 356.646 664.341 356.18 664.916 356.18Z" fill="#575B6D"/>
        <path d="M701.425 358.357H702.552V364.961H701.425V358.357Z" fill="#434963"/>
        <path d="M698.271 358.357H699.398V364.961H698.271V358.357Z" fill="#434963"/>
        <path d="M695.116 358.357H696.244V364.961H695.116V358.357Z" fill="#434963"/>
        <path d="M691.962 358.357H693.089V364.961H691.962V358.357Z" fill="#434963"/>
        <path d="M688.808 358.357H689.935V364.961H688.808V358.357Z" fill="#434963"/>
        <path d="M685.654 358.357H686.781V364.961H685.654V358.357Z" fill="#434963"/>
        <path d="M682.5 358.357H683.627V364.961H682.5V358.357Z" fill="#434963"/>
        <path d="M668.18 363.207C669.036 363.207 669.73 362.514 669.73 361.659C669.73 360.804 669.036 360.11 668.18 360.11C667.324 360.11 666.63 360.804 666.63 361.659C666.63 362.514 667.324 363.207 668.18 363.207Z" fill="#2CBFAE"/>
        <path d="M673.707 363.207C674.563 363.207 675.257 362.514 675.257 361.659C675.257 360.804 674.563 360.11 673.707 360.11C672.851 360.11 672.157 360.804 672.157 361.659C672.157 362.514 672.851 363.207 673.707 363.207Z" fill="#EF5261"/>
    </g>
    <g class="xln-scheme-el" data-tab-selector="services">
        <rect x="542" y="1" width="90" height="90" rx="9" stroke="#DBEAF8" stroke-width="2"/>
        <path d="M607.883 27.2321H607.454C606.235 27.2321 605.194 26.3478 604.967 25.1294C603.364 16.5152 595.932 10 587 10C578.069 10 570.637 16.5152 569.034 25.1294C568.808 26.3478 567.766 27.2321 566.547 27.2321H566.118C557.769 27.2321 551 34.1196 551 42.6162C551 51.1125 557.768 58 566.118 58H607.882C616.232 58 623 51.1125 623 42.6162C623.001 34.1196 616.232 27.2321 607.883 27.2321Z" fill="#DBEAF8"/>
        <path d="M614.292 58.9951L612.54 58.2045L608.491 52.1642L608.584 50.2266C605.453 47.5897 601.411 46 596.997 46C587.413 45.9999 579.58 53.4902 579.029 62.9357L579.613 63.2024V65.7394L579.143 66.2959C579.46 68.7823 580.284 71.1103 581.508 73.1731C581.544 73.1828 582.648 73.4799 582.796 73.539C582.946 73.5991 586.856 76.337 586.856 76.337V78.8723C589.744 80.8455 593.236 82 596.997 82C606.938 82 614.997 73.941 614.997 63.9999C614.997 62.2632 614.751 60.5841 614.292 58.9951Z" fill="#74B7F3"/>
        <path d="M614.297 58.9965H603.865C602.993 58.9965 602.288 58.2907 602.288 57.4194C602.288 56.9837 602.464 56.589 602.749 56.3041C603.034 56.0192 603.429 55.8423 603.865 55.8423H606.2C606.922 55.8423 607.508 55.2568 607.508 54.5345C607.508 54.1738 607.361 53.847 607.125 53.6109C606.889 53.3739 606.561 53.2275 606.201 53.2275H605.934C605.105 53.2275 604.434 52.5557 604.434 51.7271C604.434 51.3124 604.602 50.9377 604.873 50.6658C605.145 50.394 605.519 50.2258 605.934 50.2258H608.589C611.29 52.4834 613.297 55.5225 614.297 58.9965Z" fill="#C3E87D"/>
        <path d="M593.483 75.6771C594.374 75.6771 595.097 76.3994 595.097 77.2917C595.097 77.7378 594.916 78.1412 594.624 78.4331C594.332 78.7258 593.928 78.9062 593.483 78.9062L586.861 78.8746C584.626 77.4012 582.894 75.4715 581.511 73.1738H589.483C590.737 73.1738 591.753 74.1898 591.753 75.4427C591.753 75.5072 591.779 75.5665 591.821 75.6083C591.864 75.651 591.922 75.6771 591.987 75.6771H593.483Z" fill="#C3E87D"/>
        <path d="M590.056 62.9358C590.993 62.9358 591.753 63.6956 591.753 64.6322C591.753 65.101 591.563 65.5253 591.256 65.832C590.949 66.1387 590.524 66.3287 590.056 66.3287H579.392L579.145 66.2972C579.043 65.5217 579 64.804 579 64.0006C579 63.6573 579.011 63.2739 579.031 62.9358H579.392H590.056Z" fill="#C3E87D"/>
        <path d="M597.841 67.8687C596.927 67.8687 596.186 68.6099 596.186 69.5242C596.186 70.4386 596.927 71.1798 597.841 71.1798H606.592C607.507 71.1798 608.248 70.4386 608.248 69.5242C608.248 68.6099 607.507 67.8687 606.592 67.8687H597.841Z" fill="#C3E87D"/>
    </g>
    <g class="xln-scheme-el" data-tab-selector="firewall">
        <rect x="542" y="149" width="90" height="90" rx="9" stroke="#DBEAF8" stroke-width="2"/>
        <path d="M568.379 201.448H552.241C551.556 201.448 551 200.893 551 200.207V191.517C551 190.832 551.556 190.276 552.241 190.276H568.379C569.065 190.276 569.621 190.832 569.621 191.517V200.207C569.621 200.892 569.065 201.448 568.379 201.448Z" fill="#F4B973"/>
        <path d="M552.241 158H568.379C569.065 158 569.621 158.556 569.621 159.241V167.931C569.621 168.617 569.065 169.172 568.379 169.172H552.241C551.556 169.172 551 168.617 551 167.931V159.241C551 158.556 551.556 158 552.241 158Z" fill="#F4B973"/>
        <path d="M575.827 158H598.172C598.858 158 599.414 158.556 599.414 159.241V167.931C599.414 168.617 598.858 169.172 598.172 169.172H575.827C575.142 169.172 574.586 168.617 574.586 167.931V159.241C574.586 158.556 575.142 158 575.827 158Z" fill="#F4B973"/>
        <path d="M584.517 175.913V175.379C584.515 174.694 583.961 174.14 583.276 174.138H552.241C551.557 174.14 551.002 174.694 551 175.379V184.069C551.002 184.753 551.557 185.308 552.241 185.31H577.416L584.517 175.913Z" fill="#F4B973"/>
        <path d="M589.483 185.31H621.759C622.444 185.308 622.998 184.754 623 184.069V175.379C622.998 174.694 622.444 174.14 621.759 174.138H590.724C590.04 174.14 589.485 174.694 589.483 175.379V185.31H589.483Z" fill="#F4B973"/>
        <path d="M569.286 217.586H552.241C551.557 217.584 551.002 217.029 551 216.345V207.655C551.002 206.97 551.557 206.416 552.241 206.414H570.452L569.286 217.586Z" fill="#F4B973"/>
        <path d="M606.291 206.414H621.758C622.443 206.416 622.998 206.97 623 207.655V216.345C622.998 217.029 622.443 217.584 621.758 217.586H606.154L606.291 206.414Z" fill="#F4B973"/>
        <path d="M605.62 158H621.758C622.444 158 623 158.556 623 159.241V167.931C623 168.617 622.444 169.172 621.758 169.172H605.62C604.935 169.172 604.379 168.617 604.379 167.931V159.241C604.379 158.556 604.935 158 605.62 158Z" fill="#F4B973"/>
        <path d="M605.62 190.276H621.758C622.444 190.276 623 190.831 623 191.517V200.207C623 200.892 622.444 201.448 621.758 201.448H605.62C604.935 201.448 604.379 200.892 604.379 200.207V191.517C604.379 190.831 604.935 190.276 605.62 190.276Z" fill="#F4B973"/>
        <path d="M588.154 201.448H587.037" stroke="black" stroke-width="2" stroke-linecap="round" stroke-linejoin="round"/>
        <path d="M606.825 213.552C606.759 214.918 606.534 216.272 606.154 217.586C605.405 220.26 603.937 222.678 601.909 224.575C599.872 226.502 597.434 227.955 594.771 228.833H594.759C592.515 229.609 590.156 230.003 587.782 230C587.015 230.002 586.248 229.961 585.486 229.876C577.628 229.069 571.235 224.103 569.286 217.586C568.872 216.23 568.663 214.82 568.665 213.403C568.669 211.116 569.209 208.863 570.241 206.823C570.303 206.687 570.378 206.55 570.453 206.414C571.051 205.245 571.811 204.166 572.712 203.211C573.541 202.485 574.202 201.587 574.648 200.579C574.713 200.397 574.762 200.211 574.797 200.021C574.904 199.384 574.831 198.731 574.586 198.134C573.916 196.723 572.736 195.618 571.284 195.043C571.16 194.993 570.428 194.745 569.621 194.509C568.541 194.199 567.312 193.913 567.15 194.137C567.734 193.078 568.586 192.191 569.621 191.567C571.454 190.488 573.591 190.039 575.703 190.288C575.744 190.278 575.786 190.274 575.828 190.276H577.777C577.397 188.65 577.276 186.974 577.417 185.311C577.567 180.995 580.407 177.236 584.517 175.913C584.766 175.826 585.018 175.751 585.275 175.69C586.652 175.359 588.079 175.288 589.483 175.479C590.262 175.558 591.033 175.695 591.792 175.888C592.003 175.938 594.535 176.881 594.672 176.881C591.978 179.215 591.916 182.393 593.046 185.31C593.772 187.117 594.843 188.766 596.199 190.164L596.31 190.276C597.353 191.368 598.408 192.461 599.414 193.59C601.102 195.422 602.592 197.428 603.858 199.574C605.029 201.709 605.851 204.018 606.291 206.414C606.546 207.872 606.72 209.343 606.812 210.821C606.872 211.73 606.877 212.642 606.825 213.552Z" fill="#EF5261"/>
        <path d="M594.771 228.833H594.759C592.515 229.609 590.157 230.003 587.782 230C587.015 230.002 586.248 229.961 585.486 229.876V229.826C581.128 227.865 576.486 224.389 576.436 219.783C576.433 219.037 576.551 218.295 576.784 217.586C577.287 216.06 578.212 214.709 579.453 213.688C580.855 212.509 582.568 211.665 583.971 210.473C584.157 210.311 584.344 210.15 584.517 209.989C585.609 209.013 586.394 207.74 586.777 206.327C587.074 204.719 587.162 203.079 587.037 201.448C587.025 201.163 587.025 200.89 587.025 200.604C587.025 200.703 587.745 201.113 587.82 201.175C587.931 201.262 588.043 201.349 588.155 201.448C588.698 201.872 589.209 202.337 589.682 202.839C591.434 204.59 592.53 206.891 592.785 209.356C592.984 211.963 591.593 214.284 590.141 216.494C592.785 218.381 597.726 217.052 597.726 213.887C597.726 214.148 598.359 214.781 598.495 215.016C598.973 215.825 599.352 216.688 599.625 217.586C599.686 217.744 599.736 217.906 599.774 218.07C600.916 222.465 598.582 226.226 594.771 228.833Z" fill="#FEDB41"/>
        <path d="M594.76 228.833C594.747 228.845 594.722 228.858 594.709 228.871L594.76 228.833Z" fill="#FEDB41"/>
    </g>
    <g class="xln-scheme-el" data-tab-selector="recovery">
        <rect x="759" y="149" width="90" height="90" rx="9" stroke="#DBEAF8" stroke-width="2"/>
        <path d="M819.254 173.509H818.867C817.769 173.509 816.831 172.713 816.626 171.616C815.182 163.864 808.486 158 800.438 158C792.39 158 785.694 163.864 784.249 171.616C784.045 172.713 783.106 173.509 782.008 173.509H781.622C774.099 173.509 768 179.708 768 187.355C768 195.001 774.099 201.2 781.622 201.2H819.253C826.776 201.2 832.875 195.001 832.875 187.355C832.875 179.708 826.777 173.509 819.254 173.509Z" fill="#DBEAF8"/>
        <path d="M797.864 188.846V225.107C797.864 227.784 807.327 229.953 818.999 229.953C830.672 229.953 840.134 227.784 840.134 225.107V188.846C840.134 188.846 797.864 188.846 797.864 188.846Z" fill="#DFEAEF"/>
        <path d="M835.307 188.846V200.933C835.307 203.422 827.121 205.473 816.586 205.748C817.379 205.768 818.184 205.779 819.001 205.779C825.565 205.779 831.43 205.093 835.307 204.016V213.02C835.307 215.509 827.121 217.56 816.586 217.835C817.379 217.855 818.184 217.866 819.001 217.866C825.565 217.866 831.43 217.18 835.307 216.103V225.153C835.307 227.643 827.121 229.693 816.586 229.968C817.379 229.989 818.184 230 819.001 230C830.673 230 840.136 227.83 840.136 225.154V213.067H840.133C840.134 213.051 840.136 213.036 840.136 213.02V200.933V188.846H835.307Z" fill="#BFCFD6"/>
        <path d="M818.999 204.369C807.327 204.369 797.864 202.199 797.864 199.522V200.933C797.864 203.61 807.327 205.78 818.999 205.78C830.672 205.78 840.134 203.61 840.134 200.933V199.522C840.134 202.199 830.672 204.369 818.999 204.369Z" fill="#86AEBC"/>
        <path d="M818.999 216.455C807.327 216.455 797.864 214.285 797.864 211.609V213.02C797.864 215.696 807.327 217.866 818.999 217.866C830.672 217.866 840.134 215.696 840.134 213.02V211.609C840.134 214.285 830.672 216.455 818.999 216.455Z" fill="#86AEBC"/>
        <path d="M818.999 228.545C807.327 228.545 797.864 226.375 797.864 223.698V225.109C797.864 227.786 807.327 229.956 818.999 229.956C830.672 229.956 840.134 227.786 840.134 225.109V223.698C840.134 226.375 830.672 228.545 818.999 228.545Z" fill="#86AEBC"/>
        <path d="M818.999 193.693C830.672 193.693 840.134 191.523 840.134 188.846C840.134 186.17 830.672 184 818.999 184C807.327 184 797.864 186.17 797.864 188.846C797.864 191.523 807.327 193.693 818.999 193.693Z" fill="#9EBECC"/>
        <path d="M819 184C818.184 184 817.378 184.011 816.586 184.032C827.121 184.306 835.307 186.357 835.307 188.846C835.307 191.335 827.121 193.386 816.586 193.661C817.378 193.681 818.184 193.692 819 193.692C830.673 193.692 840.136 191.523 840.136 188.846C840.136 186.17 830.673 184 819 184Z" fill="#86AEBC"/>
        <path d="M831.837 200.592C832.948 200.592 833.848 199.692 833.848 198.581C833.848 197.47 832.948 196.57 831.837 196.57C830.727 196.57 829.826 197.47 829.826 198.581C829.826 199.692 830.727 200.592 831.837 200.592Z" fill="#FC9F3D"/>
        <path d="M819 200.471C813.21 200.471 807.784 199.946 803.723 198.993C803.35 198.905 803.118 198.532 803.206 198.159C803.294 197.786 803.668 197.554 804.04 197.642C808.001 198.571 813.313 199.083 819 199.083C821.382 199.083 823.718 198.992 825.944 198.813C826.326 198.782 826.66 199.067 826.691 199.449C826.722 199.831 826.437 200.166 826.055 200.196C823.793 200.379 821.419 200.471 819 200.471Z" fill="#9EBECC"/>
        <path d="M831.837 212.519C832.948 212.519 833.848 211.619 833.848 210.508C833.848 209.397 832.948 208.497 831.837 208.497C830.727 208.497 829.826 209.397 829.826 210.508C829.826 211.619 830.727 212.519 831.837 212.519Z" fill="#FC9F3D"/>
        <path d="M819 212.399C813.21 212.399 807.785 211.874 803.723 210.921C803.35 210.833 803.118 210.46 803.206 210.086C803.294 209.713 803.667 209.482 804.04 209.569C808.001 210.499 813.314 211.011 819 211.011C821.382 211.011 823.718 210.92 825.944 210.741C826.328 210.709 826.66 210.995 826.691 211.377C826.722 211.759 826.437 212.093 826.055 212.124C823.793 212.306 821.419 212.399 819 212.399Z" fill="#9EBECC"/>
        <path d="M831.837 224.466C832.948 224.466 833.848 223.565 833.848 222.455C833.848 221.344 832.948 220.444 831.837 220.444C830.727 220.444 829.826 221.344 829.826 222.455C829.826 223.565 830.727 224.466 831.837 224.466Z" fill="#FC9F3D"/>
        <path d="M819 224.345C813.21 224.345 807.784 223.82 803.723 222.867C803.35 222.779 803.118 222.406 803.206 222.033C803.294 221.66 803.668 221.429 804.04 221.516C808.001 222.445 813.313 222.957 819 222.957C821.382 222.957 823.718 222.866 825.944 222.687C826.326 222.656 826.66 222.941 826.691 223.323C826.722 223.705 826.437 224.04 826.055 224.071C823.793 224.253 821.419 224.345 819 224.345Z" fill="#9EBECC"/>
    </g>
    <g class="xln-scheme-el" data-tab-selector="balancer">
        <rect x="217" y="149" width="90" height="90" rx="9" stroke="#DBEAF8" stroke-width="2"/>
        <circle cx="262" cy="166" r="8" fill="#178CF9"/>
        <circle cx="262.237" cy="194.237" r="13.2373" stroke="#178CF9" stroke-width="4"/>
        <path d="M262 170L262 180" stroke="#178CF9" stroke-width="4"/>
        <path d="M262 208V228M262 228L269 221M262 228L255 221" stroke="#178CF9" stroke-width="4" stroke-linecap="round" stroke-linejoin="round"/>
        <path d="M275 200L295.821 212.062M295.821 212.062L293.258 202.5M295.821 212.062L286.258 214.624" stroke="#178CF9" stroke-width="4" stroke-linecap="round" stroke-linejoin="round"/>
        <path d="M248.821 200L228 212.062M228 212.062L230.562 202.5M228 212.062L237.562 214.624" stroke="#178CF9" stroke-width="4" stroke-linecap="round" stroke-linejoin="round"/>
    </g>
    <g class="xln-scheme-el" data-tab-selector="kubernetes">
        <rect x="109" y="297" width="90" height="90" rx="9" stroke="#DBEAF8" stroke-width="2"/>
        <path d="M140.871 377C139.194 377 137.61 376.233 136.538 374.842L120.232 353.986C119.16 352.596 118.741 350.822 119.16 349.096L124.984 323.062C125.357 321.336 126.475 319.945 128.012 319.178L151.587 307.575C152.333 307.192 153.171 307 154.01 307C154.849 307 155.687 307.192 156.433 307.575L180.007 319.13C181.545 319.897 182.663 321.288 183.036 323.014L188.859 349.048C189.232 350.774 188.859 352.548 187.788 353.938L171.481 374.795C170.41 376.137 168.826 376.952 167.148 376.952L140.871 377Z" fill="#178CF9"/>
        <path d="M177.639 347.236C177.592 347.236 177.592 347.236 177.639 347.236H177.592C177.545 347.236 177.498 347.236 177.498 347.189C177.404 347.189 177.31 347.143 177.216 347.143C176.888 347.097 176.606 347.05 176.325 347.05C176.184 347.05 176.043 347.05 175.855 347.004H175.808C174.823 346.911 174.025 346.819 173.274 346.587C172.946 346.448 172.852 346.263 172.758 346.077C172.758 346.031 172.711 346.031 172.711 345.985L172.101 345.799C172.383 343.668 172.289 341.444 171.773 339.266C171.257 337.089 170.365 335.05 169.145 333.197L169.614 332.78V332.687C169.614 332.456 169.661 332.224 169.849 331.992C170.412 331.483 171.116 331.066 171.961 330.556C172.101 330.463 172.242 330.417 172.383 330.324C172.664 330.185 172.899 330.046 173.181 329.861C173.228 329.815 173.321 329.768 173.415 329.676C173.462 329.629 173.509 329.629 173.509 329.583C174.166 329.027 174.307 328.1 173.838 327.498C173.603 327.174 173.181 326.988 172.758 326.988C172.383 326.988 172.054 327.127 171.726 327.359C171.679 327.405 171.679 327.405 171.632 327.452C171.538 327.498 171.491 327.591 171.397 327.637C171.163 327.869 170.975 328.054 170.787 328.286C170.693 328.378 170.6 328.517 170.459 328.61C169.802 329.305 169.192 329.861 168.582 330.278C168.441 330.371 168.3 330.417 168.159 330.417C168.066 330.417 167.972 330.417 167.878 330.371H167.784L167.221 330.741C166.611 330.093 165.954 329.537 165.297 328.981C162.481 326.803 159.056 325.459 155.489 325.135L155.442 324.533C155.395 324.486 155.395 324.486 155.348 324.44C155.208 324.301 155.02 324.162 154.973 323.838C154.926 323.097 155.02 322.263 155.114 321.336V321.29C155.114 321.151 155.161 320.965 155.208 320.826C155.255 320.548 155.302 320.27 155.348 319.946V319.668V319.529C155.348 318.695 154.691 318 153.894 318C153.518 318 153.143 318.185 152.861 318.463C152.58 318.741 152.439 319.112 152.439 319.529V319.622V319.9C152.439 320.224 152.486 320.502 152.58 320.78C152.627 320.919 152.627 321.058 152.674 321.243V321.29C152.767 322.216 152.908 323.05 152.814 323.792C152.767 324.116 152.58 324.255 152.439 324.394C152.392 324.44 152.392 324.44 152.345 324.486L152.298 325.089C151.454 325.181 150.609 325.274 149.764 325.459C146.151 326.247 142.96 328.054 140.473 330.649L140.003 330.324H139.91C139.816 330.324 139.722 330.371 139.628 330.371C139.487 330.371 139.346 330.324 139.206 330.232C138.596 329.815 137.986 329.212 137.329 328.517C137.235 328.425 137.141 328.286 137 328.193C136.812 327.961 136.625 327.776 136.39 327.544C136.343 327.498 136.249 327.452 136.155 327.359C136.108 327.313 136.062 327.313 136.062 327.266C135.78 327.035 135.405 326.896 135.029 326.896C134.607 326.896 134.184 327.081 133.95 327.405C133.481 328.008 133.621 328.934 134.278 329.49C134.325 329.49 134.325 329.537 134.372 329.537C134.466 329.583 134.513 329.676 134.607 329.722C134.888 329.907 135.123 330.046 135.405 330.185C135.545 330.232 135.686 330.324 135.827 330.417C136.672 330.927 137.376 331.344 137.939 331.853C138.173 332.085 138.173 332.317 138.173 332.548V332.641L138.643 333.058C138.549 333.197 138.455 333.29 138.408 333.429C136.062 337.089 135.17 341.398 135.78 345.66L135.17 345.846C135.17 345.892 135.123 345.892 135.123 345.938C135.029 346.124 134.888 346.309 134.607 346.448C133.903 346.68 133.058 346.772 132.073 346.865H132.026C131.885 346.865 131.697 346.865 131.557 346.911C131.275 346.911 130.993 346.958 130.665 347.004C130.571 347.004 130.477 347.05 130.383 347.05C130.337 347.05 130.29 347.05 130.243 347.097C129.398 347.282 128.882 348.069 129.023 348.811C129.163 349.459 129.773 349.876 130.524 349.876C130.665 349.876 130.759 349.876 130.9 349.83C130.947 349.83 130.993 349.83 130.993 349.784C131.087 349.784 131.181 349.737 131.275 349.737C131.604 349.645 131.838 349.552 132.12 349.413C132.261 349.367 132.401 349.274 132.542 349.228H132.589C133.481 348.903 134.278 348.625 135.029 348.533H135.123C135.405 348.533 135.592 348.672 135.733 348.764C135.78 348.764 135.78 348.811 135.827 348.811L136.484 348.718C137.61 352.147 139.769 355.205 142.631 357.429C143.288 357.938 143.945 358.355 144.649 358.772L144.368 359.375C144.368 359.421 144.415 359.421 144.415 359.467C144.508 359.653 144.602 359.884 144.508 360.208C144.227 360.903 143.804 361.598 143.288 362.386V362.432C143.194 362.571 143.101 362.664 143.007 362.803C142.819 363.035 142.678 363.266 142.491 363.544C142.444 363.591 142.397 363.683 142.35 363.776C142.35 363.822 142.303 363.869 142.303 363.869C141.927 364.656 142.209 365.537 142.913 365.861C143.101 365.954 143.288 366 143.476 366C144.039 366 144.602 365.629 144.884 365.12C144.884 365.073 144.931 365.027 144.931 365.027C144.978 364.934 145.025 364.842 145.071 364.795C145.212 364.471 145.259 364.239 145.353 363.961C145.4 363.822 145.447 363.683 145.494 363.544C145.822 362.618 146.057 361.876 146.479 361.228C146.667 360.95 146.902 360.903 147.089 360.811C147.136 360.811 147.136 360.811 147.183 360.764L147.512 360.162C149.576 360.95 151.829 361.367 154.081 361.367C155.442 361.367 156.85 361.228 158.164 360.903C159.009 360.718 159.806 360.486 160.604 360.208L160.886 360.718C160.933 360.718 160.933 360.718 160.98 360.764C161.214 360.811 161.402 360.903 161.59 361.181C161.965 361.83 162.247 362.618 162.575 363.498V363.544C162.622 363.683 162.669 363.822 162.716 363.961C162.81 364.239 162.857 364.517 162.998 364.795C163.044 364.888 163.091 364.934 163.138 365.027C163.138 365.073 163.185 365.12 163.185 365.12C163.467 365.676 164.03 366 164.593 366C164.781 366 164.968 365.954 165.156 365.861C165.485 365.676 165.766 365.398 165.86 365.027C165.954 364.656 165.954 364.239 165.766 363.869C165.766 363.822 165.719 363.822 165.719 363.776C165.672 363.683 165.625 363.591 165.578 363.544C165.438 363.266 165.25 363.035 165.062 362.803C164.968 362.664 164.875 362.571 164.781 362.432V362.386C164.265 361.598 163.795 360.903 163.561 360.208C163.467 359.884 163.561 359.699 163.608 359.467C163.608 359.421 163.654 359.421 163.654 359.375L163.42 358.819C165.907 357.382 168.019 355.344 169.614 352.842C170.459 351.544 171.116 350.108 171.585 348.672L172.148 348.764C172.195 348.764 172.195 348.718 172.242 348.718C172.43 348.625 172.571 348.486 172.852 348.486H172.946C173.697 348.579 174.495 348.857 175.386 349.181H175.433C175.574 349.228 175.715 349.32 175.855 349.367C176.137 349.506 176.372 349.598 176.7 349.691C176.794 349.691 176.888 349.737 176.982 349.737C177.029 349.737 177.076 349.737 177.122 349.784C177.263 349.83 177.357 349.83 177.498 349.83C178.202 349.83 178.812 349.367 179 348.764C179 348.208 178.483 347.467 177.639 347.236ZM155.912 344.965L153.847 345.938L151.782 344.965L151.266 342.788L152.674 341.027H154.973L156.381 342.788L155.912 344.965ZM168.159 340.147C168.535 341.722 168.629 343.297 168.488 344.826L161.308 342.788C160.651 342.602 160.276 341.954 160.417 341.305C160.463 341.12 160.557 340.934 160.698 340.795L166.376 335.745C167.174 337.042 167.784 338.525 168.159 340.147ZM164.124 332.965L157.976 337.274C157.46 337.598 156.756 337.506 156.334 336.996C156.193 336.857 156.146 336.672 156.099 336.486L155.677 328.934C158.915 329.305 161.871 330.741 164.124 332.965ZM150.515 329.166C151.031 329.073 151.5 328.981 152.017 328.888L151.594 336.301C151.547 336.95 151.031 337.506 150.327 337.506C150.14 337.506 149.905 337.459 149.764 337.367L143.523 332.965C145.447 331.066 147.84 329.768 150.515 329.166ZM141.27 335.745L146.855 340.656C147.371 341.073 147.418 341.861 146.995 342.371C146.855 342.556 146.667 342.695 146.432 342.741L139.159 344.826C138.877 341.676 139.581 338.479 141.27 335.745ZM140.003 348.301L147.465 347.05C148.075 347.004 148.638 347.421 148.779 348.023C148.826 348.301 148.826 348.533 148.732 348.764L145.869 355.575C143.241 353.907 141.13 351.359 140.003 348.301ZM157.132 357.521C156.052 357.753 154.973 357.892 153.847 357.892C152.204 357.892 150.609 357.614 149.107 357.151L152.814 350.525C153.19 350.108 153.8 349.923 154.316 350.201C154.551 350.34 154.738 350.525 154.879 350.71L158.493 357.151C158.07 357.29 157.601 357.382 157.132 357.521ZM166.282 351.081C165.109 352.934 163.561 354.417 161.777 355.575L158.821 348.579C158.68 348.023 158.915 347.421 159.478 347.143C159.666 347.05 159.9 347.004 160.135 347.004L167.643 348.255C167.362 349.274 166.892 350.201 166.282 351.081Z" fill="white"/>
    </g>
    <g class="xln-scheme-el" data-tab-selector="kubernetes">
        <rect x="217" y="297" width="90" height="90" rx="9" stroke="#DBEAF8" stroke-width="2"/>
        <path d="M248.871 377C247.194 377 245.61 376.233 244.538 374.842L228.232 353.986C227.16 352.596 226.741 350.822 227.16 349.096L232.984 323.062C233.357 321.336 234.475 319.945 236.012 319.178L259.587 307.575C260.333 307.192 261.171 307 262.01 307C262.849 307 263.687 307.192 264.433 307.575L288.007 319.13C289.545 319.897 290.663 321.288 291.036 323.014L296.859 349.048C297.232 350.774 296.859 352.548 295.788 353.938L279.481 374.795C278.41 376.137 276.826 376.952 275.148 376.952L248.871 377Z" fill="#178CF9"/>
        <path d="M285.639 347.236C285.592 347.236 285.592 347.236 285.639 347.236H285.592C285.545 347.236 285.498 347.236 285.498 347.189C285.404 347.189 285.31 347.143 285.216 347.143C284.888 347.097 284.606 347.05 284.325 347.05C284.184 347.05 284.043 347.05 283.855 347.004H283.808C282.823 346.911 282.025 346.819 281.274 346.587C280.946 346.448 280.852 346.263 280.758 346.077C280.758 346.031 280.711 346.031 280.711 345.985L280.101 345.799C280.383 343.668 280.289 341.444 279.773 339.266C279.257 337.089 278.365 335.05 277.145 333.197L277.614 332.78V332.687C277.614 332.456 277.661 332.224 277.849 331.992C278.412 331.483 279.116 331.066 279.961 330.556C280.101 330.463 280.242 330.417 280.383 330.324C280.664 330.185 280.899 330.046 281.181 329.861C281.228 329.815 281.321 329.768 281.415 329.676C281.462 329.629 281.509 329.629 281.509 329.583C282.166 329.027 282.307 328.1 281.838 327.498C281.603 327.174 281.181 326.988 280.758 326.988C280.383 326.988 280.054 327.127 279.726 327.359C279.679 327.405 279.679 327.405 279.632 327.452C279.538 327.498 279.491 327.591 279.397 327.637C279.163 327.869 278.975 328.054 278.787 328.286C278.693 328.378 278.6 328.517 278.459 328.61C277.802 329.305 277.192 329.861 276.582 330.278C276.441 330.371 276.3 330.417 276.159 330.417C276.066 330.417 275.972 330.417 275.878 330.371H275.784L275.221 330.741C274.611 330.093 273.954 329.537 273.297 328.981C270.481 326.803 267.056 325.459 263.489 325.135L263.442 324.533C263.395 324.486 263.395 324.486 263.348 324.44C263.208 324.301 263.02 324.162 262.973 323.838C262.926 323.097 263.02 322.263 263.114 321.336V321.29C263.114 321.151 263.161 320.965 263.208 320.826C263.255 320.548 263.302 320.27 263.348 319.946V319.668V319.529C263.348 318.695 262.691 318 261.894 318C261.518 318 261.143 318.185 260.861 318.463C260.58 318.741 260.439 319.112 260.439 319.529V319.622V319.9C260.439 320.224 260.486 320.502 260.58 320.78C260.627 320.919 260.627 321.058 260.674 321.243V321.29C260.767 322.216 260.908 323.05 260.814 323.792C260.767 324.116 260.58 324.255 260.439 324.394C260.392 324.44 260.392 324.44 260.345 324.486L260.298 325.089C259.454 325.181 258.609 325.274 257.764 325.459C254.151 326.247 250.96 328.054 248.473 330.649L248.003 330.324H247.91C247.816 330.324 247.722 330.371 247.628 330.371C247.487 330.371 247.346 330.324 247.206 330.232C246.596 329.815 245.986 329.212 245.329 328.517C245.235 328.425 245.141 328.286 245 328.193C244.812 327.961 244.625 327.776 244.39 327.544C244.343 327.498 244.249 327.452 244.155 327.359C244.108 327.313 244.062 327.313 244.062 327.266C243.78 327.035 243.405 326.896 243.029 326.896C242.607 326.896 242.184 327.081 241.95 327.405C241.481 328.008 241.621 328.934 242.278 329.49C242.325 329.49 242.325 329.537 242.372 329.537C242.466 329.583 242.513 329.676 242.607 329.722C242.888 329.907 243.123 330.046 243.405 330.185C243.545 330.232 243.686 330.324 243.827 330.417C244.672 330.927 245.376 331.344 245.939 331.853C246.173 332.085 246.173 332.317 246.173 332.548V332.641L246.643 333.058C246.549 333.197 246.455 333.29 246.408 333.429C244.062 337.089 243.17 341.398 243.78 345.66L243.17 345.846C243.17 345.892 243.123 345.892 243.123 345.938C243.029 346.124 242.888 346.309 242.607 346.448C241.903 346.68 241.058 346.772 240.073 346.865H240.026C239.885 346.865 239.697 346.865 239.557 346.911C239.275 346.911 238.993 346.958 238.665 347.004C238.571 347.004 238.477 347.05 238.383 347.05C238.337 347.05 238.29 347.05 238.243 347.097C237.398 347.282 236.882 348.069 237.023 348.811C237.163 349.459 237.773 349.876 238.524 349.876C238.665 349.876 238.759 349.876 238.9 349.83C238.947 349.83 238.993 349.83 238.993 349.784C239.087 349.784 239.181 349.737 239.275 349.737C239.604 349.645 239.838 349.552 240.12 349.413C240.261 349.367 240.401 349.274 240.542 349.228H240.589C241.481 348.903 242.278 348.625 243.029 348.533H243.123C243.405 348.533 243.592 348.672 243.733 348.764C243.78 348.764 243.78 348.811 243.827 348.811L244.484 348.718C245.61 352.147 247.769 355.205 250.631 357.429C251.288 357.938 251.945 358.355 252.649 358.772L252.368 359.375C252.368 359.421 252.415 359.421 252.415 359.467C252.508 359.653 252.602 359.884 252.508 360.208C252.227 360.903 251.804 361.598 251.288 362.386V362.432C251.194 362.571 251.101 362.664 251.007 362.803C250.819 363.035 250.678 363.266 250.491 363.544C250.444 363.591 250.397 363.683 250.35 363.776C250.35 363.822 250.303 363.869 250.303 363.869C249.927 364.656 250.209 365.537 250.913 365.861C251.101 365.954 251.288 366 251.476 366C252.039 366 252.602 365.629 252.884 365.12C252.884 365.073 252.931 365.027 252.931 365.027C252.978 364.934 253.025 364.842 253.071 364.795C253.212 364.471 253.259 364.239 253.353 363.961C253.4 363.822 253.447 363.683 253.494 363.544C253.822 362.618 254.057 361.876 254.479 361.228C254.667 360.95 254.902 360.903 255.089 360.811C255.136 360.811 255.136 360.811 255.183 360.764L255.512 360.162C257.576 360.95 259.829 361.367 262.081 361.367C263.442 361.367 264.85 361.228 266.164 360.903C267.009 360.718 267.806 360.486 268.604 360.208L268.886 360.718C268.933 360.718 268.933 360.718 268.98 360.764C269.214 360.811 269.402 360.903 269.59 361.181C269.965 361.83 270.247 362.618 270.575 363.498V363.544C270.622 363.683 270.669 363.822 270.716 363.961C270.81 364.239 270.857 364.517 270.998 364.795C271.044 364.888 271.091 364.934 271.138 365.027C271.138 365.073 271.185 365.12 271.185 365.12C271.467 365.676 272.03 366 272.593 366C272.781 366 272.968 365.954 273.156 365.861C273.485 365.676 273.766 365.398 273.86 365.027C273.954 364.656 273.954 364.239 273.766 363.869C273.766 363.822 273.719 363.822 273.719 363.776C273.672 363.683 273.625 363.591 273.578 363.544C273.438 363.266 273.25 363.035 273.062 362.803C272.968 362.664 272.875 362.571 272.781 362.432V362.386C272.265 361.598 271.795 360.903 271.561 360.208C271.467 359.884 271.561 359.699 271.608 359.467C271.608 359.421 271.654 359.421 271.654 359.375L271.42 358.819C273.907 357.382 276.019 355.344 277.614 352.842C278.459 351.544 279.116 350.108 279.585 348.672L280.148 348.764C280.195 348.764 280.195 348.718 280.242 348.718C280.43 348.625 280.571 348.486 280.852 348.486H280.946C281.697 348.579 282.495 348.857 283.386 349.181H283.433C283.574 349.228 283.715 349.32 283.855 349.367C284.137 349.506 284.372 349.598 284.7 349.691C284.794 349.691 284.888 349.737 284.982 349.737C285.029 349.737 285.076 349.737 285.122 349.784C285.263 349.83 285.357 349.83 285.498 349.83C286.202 349.83 286.812 349.367 287 348.764C287 348.208 286.483 347.467 285.639 347.236ZM263.912 344.965L261.847 345.938L259.782 344.965L259.266 342.788L260.674 341.027H262.973L264.381 342.788L263.912 344.965ZM276.159 340.147C276.535 341.722 276.629 343.297 276.488 344.826L269.308 342.788C268.651 342.602 268.276 341.954 268.417 341.305C268.463 341.12 268.557 340.934 268.698 340.795L274.376 335.745C275.174 337.042 275.784 338.525 276.159 340.147ZM272.124 332.965L265.976 337.274C265.46 337.598 264.756 337.506 264.334 336.996C264.193 336.857 264.146 336.672 264.099 336.486L263.677 328.934C266.915 329.305 269.871 330.741 272.124 332.965ZM258.515 329.166C259.031 329.073 259.5 328.981 260.017 328.888L259.594 336.301C259.547 336.95 259.031 337.506 258.327 337.506C258.14 337.506 257.905 337.459 257.764 337.367L251.523 332.965C253.447 331.066 255.84 329.768 258.515 329.166ZM249.27 335.745L254.855 340.656C255.371 341.073 255.418 341.861 254.995 342.371C254.855 342.556 254.667 342.695 254.432 342.741L247.159 344.826C246.877 341.676 247.581 338.479 249.27 335.745ZM248.003 348.301L255.465 347.05C256.075 347.004 256.638 347.421 256.779 348.023C256.826 348.301 256.826 348.533 256.732 348.764L253.869 355.575C251.241 353.907 249.13 351.359 248.003 348.301ZM265.132 357.521C264.052 357.753 262.973 357.892 261.847 357.892C260.204 357.892 258.609 357.614 257.107 357.151L260.814 350.525C261.19 350.108 261.8 349.923 262.316 350.201C262.551 350.34 262.738 350.525 262.879 350.71L266.493 357.151C266.07 357.29 265.601 357.382 265.132 357.521ZM274.282 351.081C273.109 352.934 271.561 354.417 269.777 355.575L266.821 348.579C266.68 348.023 266.915 347.421 267.478 347.143C267.666 347.05 267.9 347.004 268.135 347.004L275.643 348.255C275.362 349.274 274.892 350.201 274.282 351.081Z" fill="white"/>
    </g>
    <g class="xln-scheme-el" data-tab-selector="kubernetes">
        <rect x="325" y="297" width="90" height="90" rx="9" stroke="#DBEAF8" stroke-width="2"/>
        <path d="M356.871 377C355.194 377 353.61 376.233 352.538 374.842L336.232 353.986C335.16 352.596 334.741 350.822 335.16 349.096L340.984 323.062C341.357 321.336 342.475 319.945 344.012 319.178L367.587 307.575C368.333 307.192 369.171 307 370.01 307C370.849 307 371.687 307.192 372.433 307.575L396.007 319.13C397.545 319.897 398.663 321.288 399.036 323.014L404.859 349.048C405.232 350.774 404.859 352.548 403.788 353.938L387.481 374.795C386.41 376.137 384.826 376.952 383.148 376.952L356.871 377Z" fill="#178CF9"/>
        <path d="M393.639 347.236C393.592 347.236 393.592 347.236 393.639 347.236H393.592C393.545 347.236 393.498 347.236 393.498 347.189C393.404 347.189 393.31 347.143 393.216 347.143C392.888 347.097 392.606 347.05 392.325 347.05C392.184 347.05 392.043 347.05 391.855 347.004H391.808C390.823 346.911 390.025 346.819 389.274 346.587C388.946 346.448 388.852 346.263 388.758 346.077C388.758 346.031 388.711 346.031 388.711 345.985L388.101 345.799C388.383 343.668 388.289 341.444 387.773 339.266C387.257 337.089 386.365 335.05 385.145 333.197L385.614 332.78V332.687C385.614 332.456 385.661 332.224 385.849 331.992C386.412 331.483 387.116 331.066 387.961 330.556C388.101 330.463 388.242 330.417 388.383 330.324C388.664 330.185 388.899 330.046 389.181 329.861C389.228 329.815 389.321 329.768 389.415 329.676C389.462 329.629 389.509 329.629 389.509 329.583C390.166 329.027 390.307 328.1 389.838 327.498C389.603 327.174 389.181 326.988 388.758 326.988C388.383 326.988 388.054 327.127 387.726 327.359C387.679 327.405 387.679 327.405 387.632 327.452C387.538 327.498 387.491 327.591 387.397 327.637C387.163 327.869 386.975 328.054 386.787 328.286C386.693 328.378 386.6 328.517 386.459 328.61C385.802 329.305 385.192 329.861 384.582 330.278C384.441 330.371 384.3 330.417 384.159 330.417C384.066 330.417 383.972 330.417 383.878 330.371H383.784L383.221 330.741C382.611 330.093 381.954 329.537 381.297 328.981C378.481 326.803 375.056 325.459 371.489 325.135L371.442 324.533C371.395 324.486 371.395 324.486 371.348 324.44C371.208 324.301 371.02 324.162 370.973 323.838C370.926 323.097 371.02 322.263 371.114 321.336V321.29C371.114 321.151 371.161 320.965 371.208 320.826C371.255 320.548 371.302 320.27 371.348 319.946V319.668V319.529C371.348 318.695 370.691 318 369.894 318C369.518 318 369.143 318.185 368.861 318.463C368.58 318.741 368.439 319.112 368.439 319.529V319.622V319.9C368.439 320.224 368.486 320.502 368.58 320.78C368.627 320.919 368.627 321.058 368.674 321.243V321.29C368.767 322.216 368.908 323.05 368.814 323.792C368.767 324.116 368.58 324.255 368.439 324.394C368.392 324.44 368.392 324.44 368.345 324.486L368.298 325.089C367.454 325.181 366.609 325.274 365.764 325.459C362.151 326.247 358.96 328.054 356.473 330.649L356.003 330.324H355.91C355.816 330.324 355.722 330.371 355.628 330.371C355.487 330.371 355.346 330.324 355.206 330.232C354.596 329.815 353.986 329.212 353.329 328.517C353.235 328.425 353.141 328.286 353 328.193C352.812 327.961 352.625 327.776 352.39 327.544C352.343 327.498 352.249 327.452 352.155 327.359C352.108 327.313 352.062 327.313 352.062 327.266C351.78 327.035 351.405 326.896 351.029 326.896C350.607 326.896 350.184 327.081 349.95 327.405C349.481 328.008 349.621 328.934 350.278 329.49C350.325 329.49 350.325 329.537 350.372 329.537C350.466 329.583 350.513 329.676 350.607 329.722C350.888 329.907 351.123 330.046 351.405 330.185C351.545 330.232 351.686 330.324 351.827 330.417C352.672 330.927 353.376 331.344 353.939 331.853C354.173 332.085 354.173 332.317 354.173 332.548V332.641L354.643 333.058C354.549 333.197 354.455 333.29 354.408 333.429C352.062 337.089 351.17 341.398 351.78 345.66L351.17 345.846C351.17 345.892 351.123 345.892 351.123 345.938C351.029 346.124 350.888 346.309 350.607 346.448C349.903 346.68 349.058 346.772 348.073 346.865H348.026C347.885 346.865 347.697 346.865 347.557 346.911C347.275 346.911 346.993 346.958 346.665 347.004C346.571 347.004 346.477 347.05 346.383 347.05C346.337 347.05 346.29 347.05 346.243 347.097C345.398 347.282 344.882 348.069 345.023 348.811C345.163 349.459 345.773 349.876 346.524 349.876C346.665 349.876 346.759 349.876 346.9 349.83C346.947 349.83 346.993 349.83 346.993 349.784C347.087 349.784 347.181 349.737 347.275 349.737C347.604 349.645 347.838 349.552 348.12 349.413C348.261 349.367 348.401 349.274 348.542 349.228H348.589C349.481 348.903 350.278 348.625 351.029 348.533H351.123C351.405 348.533 351.592 348.672 351.733 348.764C351.78 348.764 351.78 348.811 351.827 348.811L352.484 348.718C353.61 352.147 355.769 355.205 358.631 357.429C359.288 357.938 359.945 358.355 360.649 358.772L360.368 359.375C360.368 359.421 360.415 359.421 360.415 359.467C360.508 359.653 360.602 359.884 360.508 360.208C360.227 360.903 359.804 361.598 359.288 362.386V362.432C359.194 362.571 359.101 362.664 359.007 362.803C358.819 363.035 358.678 363.266 358.491 363.544C358.444 363.591 358.397 363.683 358.35 363.776C358.35 363.822 358.303 363.869 358.303 363.869C357.927 364.656 358.209 365.537 358.913 365.861C359.101 365.954 359.288 366 359.476 366C360.039 366 360.602 365.629 360.884 365.12C360.884 365.073 360.931 365.027 360.931 365.027C360.978 364.934 361.025 364.842 361.071 364.795C361.212 364.471 361.259 364.239 361.353 363.961C361.4 363.822 361.447 363.683 361.494 363.544C361.822 362.618 362.057 361.876 362.479 361.228C362.667 360.95 362.902 360.903 363.089 360.811C363.136 360.811 363.136 360.811 363.183 360.764L363.512 360.162C365.576 360.95 367.829 361.367 370.081 361.367C371.442 361.367 372.85 361.228 374.164 360.903C375.009 360.718 375.806 360.486 376.604 360.208L376.886 360.718C376.933 360.718 376.933 360.718 376.98 360.764C377.214 360.811 377.402 360.903 377.59 361.181C377.965 361.83 378.247 362.618 378.575 363.498V363.544C378.622 363.683 378.669 363.822 378.716 363.961C378.81 364.239 378.857 364.517 378.998 364.795C379.044 364.888 379.091 364.934 379.138 365.027C379.138 365.073 379.185 365.12 379.185 365.12C379.467 365.676 380.03 366 380.593 366C380.781 366 380.968 365.954 381.156 365.861C381.485 365.676 381.766 365.398 381.86 365.027C381.954 364.656 381.954 364.239 381.766 363.869C381.766 363.822 381.719 363.822 381.719 363.776C381.672 363.683 381.625 363.591 381.578 363.544C381.438 363.266 381.25 363.035 381.062 362.803C380.968 362.664 380.875 362.571 380.781 362.432V362.386C380.265 361.598 379.795 360.903 379.561 360.208C379.467 359.884 379.561 359.699 379.608 359.467C379.608 359.421 379.654 359.421 379.654 359.375L379.42 358.819C381.907 357.382 384.019 355.344 385.614 352.842C386.459 351.544 387.116 350.108 387.585 348.672L388.148 348.764C388.195 348.764 388.195 348.718 388.242 348.718C388.43 348.625 388.571 348.486 388.852 348.486H388.946C389.697 348.579 390.495 348.857 391.386 349.181H391.433C391.574 349.228 391.715 349.32 391.855 349.367C392.137 349.506 392.372 349.598 392.7 349.691C392.794 349.691 392.888 349.737 392.982 349.737C393.029 349.737 393.076 349.737 393.122 349.784C393.263 349.83 393.357 349.83 393.498 349.83C394.202 349.83 394.812 349.367 395 348.764C395 348.208 394.483 347.467 393.639 347.236ZM371.912 344.965L369.847 345.938L367.782 344.965L367.266 342.788L368.674 341.027H370.973L372.381 342.788L371.912 344.965ZM384.159 340.147C384.535 341.722 384.629 343.297 384.488 344.826L377.308 342.788C376.651 342.602 376.276 341.954 376.417 341.305C376.463 341.12 376.557 340.934 376.698 340.795L382.376 335.745C383.174 337.042 383.784 338.525 384.159 340.147ZM380.124 332.965L373.976 337.274C373.46 337.598 372.756 337.506 372.334 336.996C372.193 336.857 372.146 336.672 372.099 336.486L371.677 328.934C374.915 329.305 377.871 330.741 380.124 332.965ZM366.515 329.166C367.031 329.073 367.5 328.981 368.017 328.888L367.594 336.301C367.547 336.95 367.031 337.506 366.327 337.506C366.14 337.506 365.905 337.459 365.764 337.367L359.523 332.965C361.447 331.066 363.84 329.768 366.515 329.166ZM357.27 335.745L362.855 340.656C363.371 341.073 363.418 341.861 362.995 342.371C362.855 342.556 362.667 342.695 362.432 342.741L355.159 344.826C354.877 341.676 355.581 338.479 357.27 335.745ZM356.003 348.301L363.465 347.05C364.075 347.004 364.638 347.421 364.779 348.023C364.826 348.301 364.826 348.533 364.732 348.764L361.869 355.575C359.241 353.907 357.13 351.359 356.003 348.301ZM373.132 357.521C372.052 357.753 370.973 357.892 369.847 357.892C368.204 357.892 366.609 357.614 365.107 357.151L368.814 350.525C369.19 350.108 369.8 349.923 370.316 350.201C370.551 350.34 370.738 350.525 370.879 350.71L374.493 357.151C374.07 357.29 373.601 357.382 373.132 357.521ZM382.282 351.081C381.109 352.934 379.561 354.417 377.777 355.575L374.821 348.579C374.68 348.023 374.915 347.421 375.478 347.143C375.666 347.05 375.9 347.004 376.135 347.004L383.643 348.255C383.362 349.274 382.892 350.201 382.282 351.081Z" fill="white"/>
    </g>
    <g class="xln-scheme-el" data-tab-selector="database">
        <rect x="197" y="445" width="130" height="90" rx="9" stroke="#DBEAF8" stroke-width="2"/>
        <path d="M269.908 462.343V494.836C269.908 497.234 278.388 499.179 288.847 499.179C299.307 499.179 307.786 497.234 307.786 494.836V462.343C307.786 462.343 269.908 462.343 269.908 462.343Z" fill="#DFEAEF"/>
        <path d="M303.459 462.343V473.174C303.459 475.404 296.124 477.242 286.683 477.488C287.394 477.507 288.115 477.516 288.847 477.516C294.729 477.516 299.985 476.902 303.459 475.937V484.005C303.459 486.235 296.124 488.073 286.683 488.319C287.393 488.338 288.115 488.347 288.847 488.347C294.729 488.347 299.985 487.733 303.458 486.768V494.878C303.458 497.108 296.124 498.946 286.683 499.192C287.394 499.211 288.115 499.22 288.847 499.22C299.307 499.22 307.786 497.276 307.786 494.878V484.047H307.784C307.784 484.033 307.786 484.019 307.786 484.005V473.174V462.343H303.459Z" fill="#BFCFD6"/>
        <path d="M288.847 476.252C278.388 476.252 269.908 474.308 269.908 471.909V473.174C269.908 475.572 278.388 477.516 288.847 477.516C299.307 477.516 307.786 475.572 307.786 473.174V471.909C307.786 474.308 299.307 476.252 288.847 476.252Z" fill="#86AEBC"/>
        <path d="M288.847 487.083C278.388 487.083 269.908 485.139 269.908 482.74V484.005C269.908 486.403 278.388 488.347 288.847 488.347C299.307 488.347 307.786 486.403 307.786 484.005V482.74C307.786 485.139 299.307 487.083 288.847 487.083Z" fill="#86AEBC"/>
        <path d="M288.847 497.916C278.388 497.916 269.908 495.972 269.908 493.573V494.838C269.908 497.236 278.388 499.181 288.847 499.181C299.307 499.181 307.786 497.236 307.786 494.838V493.573C307.786 495.972 299.307 497.916 288.847 497.916Z" fill="#86AEBC"/>
        <path d="M288.847 466.685C299.307 466.685 307.786 464.741 307.786 462.343C307.786 459.944 299.307 458 288.847 458C278.387 458 269.908 459.944 269.908 462.343C269.908 464.741 278.387 466.685 288.847 466.685Z" fill="#9EBECC"/>
        <path d="M288.847 458C288.115 458 287.394 458.01 286.684 458.028C296.124 458.275 303.459 460.112 303.459 462.343C303.459 464.573 296.124 466.411 286.684 466.657C287.394 466.675 288.115 466.685 288.847 466.685C299.307 466.685 307.786 464.741 307.786 462.343C307.786 459.944 299.307 458 288.847 458Z" fill="#86AEBC"/>
        <path d="M300.35 472.868C301.345 472.868 302.152 472.061 302.152 471.066C302.152 470.071 301.345 469.264 300.35 469.264C299.354 469.264 298.547 470.071 298.547 471.066C298.547 472.061 299.354 472.868 300.35 472.868Z" fill="#FC9F3D"/>
        <path d="M288.847 472.759C283.659 472.759 278.797 472.289 275.158 471.435C274.823 471.357 274.616 471.022 274.694 470.688C274.773 470.353 275.108 470.146 275.442 470.224C278.991 471.057 283.752 471.516 288.847 471.516C290.982 471.516 293.075 471.434 295.07 471.274C295.412 471.246 295.712 471.502 295.739 471.844C295.767 472.186 295.512 472.486 295.169 472.513C293.142 472.677 291.015 472.759 288.847 472.759Z" fill="#9EBECC"/>
        <path d="M300.35 483.556C301.345 483.556 302.152 482.749 302.152 481.754C302.152 480.759 301.345 479.952 300.35 479.952C299.354 479.952 298.547 480.759 298.547 481.754C298.547 482.749 299.354 483.556 300.35 483.556Z" fill="#FC9F3D"/>
        <path d="M288.847 483.448C283.659 483.448 278.797 482.978 275.158 482.123C274.823 482.045 274.616 481.71 274.694 481.376C274.773 481.042 275.108 480.835 275.442 480.913C278.991 481.746 283.752 482.204 288.847 482.204C290.982 482.204 293.075 482.123 295.07 481.962C295.414 481.934 295.712 482.19 295.739 482.532C295.767 482.875 295.512 483.174 295.169 483.202C293.142 483.365 291.015 483.448 288.847 483.448Z" fill="#9EBECC"/>
        <path d="M300.35 494.261C301.345 494.261 302.152 493.454 302.152 492.459C302.152 491.464 301.345 490.657 300.35 490.657C299.354 490.657 298.547 491.464 298.547 492.459C298.547 493.454 299.354 494.261 300.35 494.261Z" fill="#FC9F3D"/>
        <path d="M288.847 494.153C283.659 494.153 278.797 493.682 275.158 492.828C274.823 492.75 274.616 492.415 274.694 492.081C274.773 491.746 275.108 491.54 275.442 491.618C278.991 492.45 283.752 492.909 288.847 492.909C290.982 492.909 293.075 492.828 295.07 492.667C295.412 492.639 295.712 492.895 295.739 493.237C295.767 493.579 295.512 493.879 295.169 493.907C293.142 494.07 291.015 494.153 288.847 494.153Z" fill="#9EBECC"/>
        <path d="M215.671 462.343V494.836C215.671 497.234 224.151 499.179 234.61 499.179C245.07 499.179 253.55 497.234 253.55 494.836V462.343C253.55 462.343 215.671 462.343 215.671 462.343Z" fill="#DFEAEF"/>
        <path d="M249.222 462.343V473.174C249.222 475.404 241.887 477.242 232.446 477.488C233.157 477.507 233.878 477.516 234.61 477.516C240.492 477.516 245.748 476.902 249.222 475.937V484.005C249.222 486.235 241.887 488.073 232.446 488.319C233.157 488.338 233.878 488.347 234.61 488.347C240.492 488.347 245.748 487.733 249.222 486.768V494.878C249.222 497.108 241.887 498.946 232.446 499.192C233.157 499.211 233.878 499.22 234.61 499.22C245.07 499.22 253.549 497.276 253.549 494.878V484.047H253.547C253.547 484.033 253.549 484.019 253.549 484.005V473.174V462.343H249.222Z" fill="#BFCFD6"/>
        <path d="M234.61 476.252C224.151 476.252 215.671 474.308 215.671 471.909V473.174C215.671 475.572 224.151 477.516 234.61 477.516C245.07 477.516 253.55 475.572 253.55 473.174V471.909C253.55 474.308 245.07 476.252 234.61 476.252Z" fill="#86AEBC"/>
        <path d="M234.61 487.083C224.151 487.083 215.671 485.139 215.671 482.74V484.005C215.671 486.403 224.151 488.347 234.61 488.347C245.07 488.347 253.55 486.403 253.55 484.005V482.74C253.55 485.139 245.07 487.083 234.61 487.083Z" fill="#86AEBC"/>
        <path d="M234.61 497.916C224.151 497.916 215.671 495.972 215.671 493.573V494.838C215.671 497.236 224.151 499.181 234.61 499.181C245.07 499.181 253.55 497.236 253.55 494.838V493.573C253.55 495.972 245.07 497.916 234.61 497.916Z" fill="#86AEBC"/>
        <path d="M234.61 466.685C245.07 466.685 253.549 464.741 253.549 462.343C253.549 459.944 245.07 458 234.61 458C224.151 458 215.671 459.944 215.671 462.343C215.671 464.741 224.151 466.685 234.61 466.685Z" fill="#9EBECC"/>
        <path d="M234.61 458C233.879 458 233.157 458.01 232.447 458.028C241.887 458.275 249.222 460.112 249.222 462.343C249.222 464.573 241.887 466.411 232.447 466.657C233.157 466.675 233.879 466.685 234.61 466.685C245.07 466.685 253.55 464.741 253.55 462.343C253.55 459.944 245.07 458 234.61 458Z" fill="#86AEBC"/>
        <path d="M246.113 472.868C247.108 472.868 247.915 472.061 247.915 471.066C247.915 470.071 247.108 469.264 246.113 469.264C245.117 469.264 244.311 470.071 244.311 471.066C244.311 472.061 245.117 472.868 246.113 472.868Z" fill="#FC9F3D"/>
        <path d="M234.61 472.759C229.422 472.759 224.56 472.289 220.921 471.435C220.586 471.357 220.379 471.022 220.458 470.688C220.536 470.353 220.871 470.146 221.205 470.224C224.754 471.057 229.515 471.516 234.61 471.516C236.745 471.516 238.838 471.434 240.833 471.274C241.175 471.246 241.475 471.502 241.502 471.844C241.53 472.186 241.275 472.486 240.933 472.513C238.905 472.677 236.778 472.759 234.61 472.759Z" fill="#9EBECC"/>
        <path d="M246.113 483.556C247.108 483.556 247.915 482.749 247.915 481.754C247.915 480.759 247.108 479.952 246.113 479.952C245.117 479.952 244.311 480.759 244.311 481.754C244.311 482.749 245.117 483.556 246.113 483.556Z" fill="#FC9F3D"/>
        <path d="M234.61 483.448C229.422 483.448 224.56 482.978 220.921 482.123C220.586 482.045 220.379 481.71 220.458 481.376C220.536 481.042 220.871 480.835 221.205 480.913C224.754 481.746 229.515 482.204 234.61 482.204C236.745 482.204 238.838 482.123 240.833 481.962C241.177 481.934 241.475 482.19 241.502 482.532C241.53 482.875 241.275 483.174 240.933 483.202C238.905 483.365 236.778 483.448 234.61 483.448Z" fill="#9EBECC"/>
        <path d="M246.113 494.261C247.108 494.261 247.915 493.454 247.915 492.459C247.915 491.464 247.108 490.657 246.113 490.657C245.117 490.657 244.311 491.464 244.311 492.459C244.311 493.454 245.117 494.261 246.113 494.261Z" fill="#FC9F3D"/>
        <path d="M234.61 494.153C229.422 494.153 224.56 493.682 220.921 492.828C220.586 492.75 220.379 492.415 220.458 492.081C220.536 491.746 220.871 491.54 221.205 491.618C224.754 492.45 229.515 492.909 234.61 492.909C236.745 492.909 238.838 492.828 240.833 492.667C241.175 492.639 241.475 492.895 241.502 493.237C241.53 493.579 241.275 493.879 240.933 493.907C238.905 494.07 236.778 494.153 234.61 494.153Z" fill="#9EBECC"/>
        <path d="M240.796 481.24V517.154C240.796 519.805 250.168 521.954 261.729 521.954C273.289 521.954 282.661 519.805 282.661 517.154V481.24C282.661 481.24 240.796 481.24 240.796 481.24Z" fill="#DFEAEF"/>
        <path d="M277.878 481.24V493.212C277.878 495.677 269.771 497.708 259.337 497.98C260.122 498.001 260.919 498.011 261.728 498.011C268.229 498.011 274.038 497.332 277.878 496.265V505.183C277.878 507.648 269.771 509.679 259.337 509.951C260.122 509.972 260.919 509.983 261.728 509.983C268.229 509.983 274.038 509.303 277.878 508.237V517.2C277.878 519.665 269.771 521.696 259.336 521.968C260.122 521.989 260.919 522 261.728 522C273.289 522 282.661 519.851 282.661 517.2V505.229H282.658C282.659 505.214 282.661 505.198 282.661 505.183V493.212V481.24H277.878Z" fill="#BFCFD6"/>
        <path d="M261.729 496.614C250.168 496.614 240.796 494.465 240.796 491.814V493.212C240.796 495.863 250.168 498.012 261.729 498.012C273.289 498.012 282.661 495.863 282.661 493.212V491.814C282.661 494.465 273.289 496.614 261.729 496.614Z" fill="#86AEBC"/>
        <path d="M261.729 508.585C250.168 508.585 240.796 506.436 240.796 503.785V505.183C240.796 507.834 250.168 509.983 261.729 509.983C273.289 509.983 282.661 507.834 282.661 505.183V503.785C282.661 506.436 273.289 508.585 261.729 508.585Z" fill="#86AEBC"/>
        <path d="M261.729 520.559C250.168 520.559 240.796 518.41 240.796 515.759V517.156C240.796 519.807 250.168 521.956 261.729 521.956C273.289 521.956 282.661 519.807 282.661 517.156V515.759C282.661 518.41 273.289 520.559 261.729 520.559Z" fill="#86AEBC"/>
        <path d="M261.728 486.04C273.289 486.04 282.661 483.891 282.661 481.241C282.661 478.59 273.289 476.441 261.728 476.441C250.168 476.441 240.796 478.59 240.796 481.241C240.796 483.891 250.168 486.04 261.728 486.04Z" fill="#9EBECC"/>
        <path d="M261.728 476.441C260.919 476.441 260.122 476.452 259.337 476.472C269.771 476.744 277.878 478.775 277.878 481.24C277.878 483.706 269.771 485.737 259.337 486.009C260.122 486.029 260.919 486.04 261.728 486.04C273.289 486.04 282.661 483.891 282.661 481.24C282.661 478.59 273.289 476.441 261.728 476.441Z" fill="#86AEBC"/>
        <path d="M274.442 492.874C275.542 492.874 276.433 491.982 276.433 490.882C276.433 489.782 275.542 488.89 274.442 488.89C273.342 488.89 272.45 489.782 272.45 490.882C272.45 491.982 273.342 492.874 274.442 492.874Z" fill="#FC9F3D"/>
        <path d="M261.728 492.754C255.994 492.754 250.62 492.234 246.598 491.29C246.228 491.203 245.999 490.833 246.086 490.464C246.172 490.094 246.543 489.865 246.912 489.952C250.834 490.872 256.096 491.379 261.728 491.379C264.088 491.379 266.401 491.289 268.606 491.112C268.984 491.081 269.315 491.363 269.346 491.742C269.376 492.12 269.094 492.451 268.716 492.482C266.475 492.662 264.124 492.754 261.728 492.754Z" fill="#9EBECC"/>
        <path d="M274.442 504.687C275.542 504.687 276.433 503.795 276.433 502.695C276.433 501.595 275.542 500.703 274.442 500.703C273.342 500.703 272.45 501.595 272.45 502.695C272.45 503.795 273.342 504.687 274.442 504.687Z" fill="#FC9F3D"/>
        <path d="M261.728 504.567C255.994 504.567 250.62 504.047 246.598 503.103C246.228 503.017 245.999 502.647 246.086 502.277C246.172 501.908 246.542 501.679 246.912 501.765C250.835 502.686 256.097 503.193 261.728 503.193C264.088 503.193 266.401 503.103 268.606 502.926C268.986 502.894 269.315 503.177 269.346 503.555C269.376 503.934 269.094 504.265 268.716 504.295C266.475 504.476 264.124 504.567 261.728 504.567Z" fill="#9EBECC"/>
        <path d="M274.442 516.519C275.542 516.519 276.433 515.627 276.433 514.527C276.433 513.427 275.542 512.535 274.442 512.535C273.342 512.535 272.45 513.427 272.45 514.527C272.45 515.627 273.342 516.519 274.442 516.519Z" fill="#FC9F3D"/>
        <path d="M261.728 516.399C255.994 516.399 250.62 515.879 246.598 514.935C246.228 514.848 245.999 514.479 246.086 514.109C246.172 513.739 246.543 513.511 246.912 513.597C250.834 514.518 256.096 515.025 261.728 515.025C264.088 515.025 266.401 514.935 268.606 514.757C268.984 514.726 269.315 515.009 269.346 515.387C269.376 515.765 269.094 516.097 268.716 516.127C266.475 516.308 264.124 516.399 261.728 516.399Z" fill="#9EBECC"/>
    </g>
    <g class="xln-scheme-el" data-tab-selector="storage">
        <rect x="1" y="445" width="90" height="90" rx="9" stroke="#DBEAF8" stroke-width="2"/>
        <path d="M76.1982 463.778V516.219C76.1982 520.09 62.5603 523.228 45.737 523.228C28.9137 523.228 15.2757 520.09 15.2757 516.219V463.778C15.2757 463.778 76.1982 463.778 76.1982 463.778Z" fill="#575B6D"/>
        <path d="M45.738 486.227C62.5612 486.227 76.1992 483.089 76.1992 479.218V481.258C76.1992 485.129 62.5612 488.267 45.738 488.267C28.9147 488.267 15.2767 485.129 15.2767 481.258V479.218C15.2767 483.089 28.9147 486.227 45.738 486.227Z" fill="#434963"/>
        <path d="M45.7384 503.706C62.5617 503.706 76.1997 500.569 76.1997 496.698V498.738C76.1997 502.609 62.5617 505.747 45.7384 505.747C28.9152 505.747 15.2772 502.609 15.2772 498.738V496.698C15.2772 500.569 28.9152 503.706 45.7384 503.706Z" fill="#434963"/>
        <path d="M45.7384 521.19C62.5617 521.19 76.1997 518.052 76.1997 514.182V516.222C76.1997 520.093 62.5617 523.231 45.7384 523.231C28.9152 523.231 15.2772 520.093 15.2772 516.222V514.182C15.2772 518.052 28.9152 521.19 45.7384 521.19Z" fill="#434963"/>
        <path d="M45.7374 470.787C28.9143 470.787 15.2765 467.649 15.2765 463.778C15.2765 459.907 28.9143 456.769 45.7374 456.769C62.5604 456.769 76.1982 459.907 76.1982 463.778C76.1982 467.649 62.5604 470.787 45.7374 470.787Z" fill="#434963"/>
        <path d="M22.7969 478.17C21.6538 478.17 20.7271 477.241 20.7271 476.094C20.7271 474.946 21.6538 474.017 22.7969 474.017C23.94 474.017 24.8667 474.946 24.8667 476.094C24.8667 477.241 23.94 478.17 22.7969 478.17Z" fill="#FF5364"/>
        <path d="M22.7969 495.418C21.6538 495.418 20.7271 494.488 20.7271 493.341C20.7271 492.194 21.6538 491.264 22.7969 491.264C23.94 491.264 24.8667 492.194 24.8667 493.341C24.8667 494.488 23.94 495.418 22.7969 495.418Z" fill="#FF5364"/>
        <path d="M22.7969 512.666C21.6538 512.666 20.7271 511.736 20.7271 510.589C20.7271 509.442 21.6538 508.512 22.7969 508.512C23.94 508.512 24.8667 509.442 24.8667 510.589C24.8667 511.736 23.94 512.666 22.7969 512.666Z" fill="#FF5364"/>
        <path d="M45.7394 480.59C54.0846 480.59 61.9041 479.83 67.7575 478.452C68.2952 478.325 68.6289 477.785 68.5026 477.246C68.3764 476.706 67.8372 476.372 67.3004 476.498C61.5925 477.842 53.9351 478.583 45.7393 478.583C42.3063 478.583 38.9392 478.451 35.7314 478.192C35.1807 478.148 34.6987 478.56 34.6544 479.112C34.6102 479.664 35.0205 480.148 35.571 480.193C38.832 480.456 42.2532 480.59 45.7394 480.59Z" fill="#434963"/>
        <path d="M45.7394 497.84C54.0841 497.84 61.9036 497.081 67.7575 495.702C68.2952 495.576 68.6289 495.036 68.5026 494.496C68.3764 493.956 67.8381 493.622 67.3004 493.749C61.5919 495.093 53.9346 495.833 45.7393 495.833C42.3063 495.833 38.9392 495.702 35.7314 495.443C35.178 495.397 34.6987 495.81 34.6544 496.362C34.6102 496.915 35.0205 497.399 35.571 497.443C38.832 497.707 42.2532 497.84 45.7394 497.84Z" fill="#434963"/>
        <path d="M45.7394 515.116C54.0846 515.116 61.9041 514.357 67.7575 512.979C68.2952 512.852 68.6289 512.312 68.5026 511.772C68.3764 511.233 67.8372 510.899 67.3004 511.025C61.5925 512.369 53.9351 513.109 45.7393 513.109C42.3063 513.109 38.9392 512.978 35.7314 512.719C35.1807 512.674 34.6987 513.086 34.6544 513.639C34.6102 514.191 35.0205 514.675 35.571 514.719C38.832 514.983 42.2532 515.116 45.7394 515.116Z" fill="#434963"/>
    </g>
    <g class="xln-scheme-lines">
        <path d="M804 246V310C804 327.673 789.673 342 772 342H727" stroke="#DBEAF8" stroke-width="4"/>
        <path d="M262 142L262 78C262 60.3269 276.327 46 294 46L535 46" stroke="#DBEAF8" stroke-width="4"/>
        <path d="M623 342L607 342C595.954 342 587 333.046 587 322L587 246" stroke="#DBEAF8" stroke-width="4"/>
        <path d="M551 342L567 342C578.046 342 587 333.046 587 322L587 246" stroke="#DBEAF8" stroke-width="4"/>
        <path d="M370 290V226C370 208.327 355.673 194 338 194H314" stroke="#DBEAF8" stroke-width="4"/>
        <path d="M499 290V226C499 208.327 484.673 194 467 194H314" stroke="#DBEAF8" stroke-width="4"/>
        <path d="M499 394V458C499 475.673 484.673 490 467 490H334" stroke="#DBEAF8" stroke-width="4"/>
        <path d="M154 290V226C154 208.327 168.327 194 186 194H210" stroke="#DBEAF8" stroke-width="4"/>
        <path d="M154 394V470C154 481.046 145.046 490 134 490H98" stroke="#DBEAF8" stroke-width="4"/>
        <path d="M154 394V470C154 481.046 162.954 490 174 490H185" stroke="#DBEAF8" stroke-width="4"/>
        <path d="M370 394V470C370 481.046 361.046 490 350 490H334" stroke="#DBEAF8" stroke-width="4"/>
        <path d="M587 98L587 142" stroke="#DBEAF8" stroke-width="4"/>
        <path d="M262 246V290" stroke="#DBEAF8" stroke-width="4"/>
        <path d="M262 394V438" stroke="#DBEAF8" stroke-width="4"/>
    </g>
</svg>