<svg width="24" height="24" viewBox="0 0 24 24" fill="none" xmlns="http://www.w3.org/2000/svg">
<g>
<path d="M4.70544 0.00598145C2.12023 0.00598145 0.00439453 2.12177 0.00439453 4.70703V19.2952C0.00439453 21.8804 2.12019 23.9955 4.70544 23.9955H19.2936C21.8789 23.9955 23.9939 21.8804 23.9939 19.2952V4.70703C23.9939 2.12182 21.8789 0.00598145 19.2936 0.00598145H4.70544ZM5.88783 3.96473C7.12738 3.96473 7.89089 4.77848 7.91446 5.84813C7.91446 6.89417 7.12733 7.73079 5.86385 7.73079H5.84059C4.62463 7.73079 3.83871 6.89422 3.83871 5.84813C3.83871 4.7785 4.64842 3.96473 5.8878 3.96473H5.88783ZM16.5697 8.96417C18.9536 8.96417 20.7407 10.5223 20.7407 13.8706V20.1214H17.1178V14.2897C17.1178 12.8243 16.5935 11.8245 15.2824 11.8245C14.2815 11.8245 13.6849 12.4984 13.423 13.1493C13.3273 13.3822 13.3038 13.7075 13.3038 14.0333V20.1214H9.68091C9.68091 20.1214 9.72845 10.2427 9.68091 9.21982H13.3045V10.7636C13.786 10.0208 14.6471 8.96415 16.5697 8.96415V8.96417ZM4.0524 9.22061H7.67527V20.1215H4.0524V9.22061Z" fill="currentColor"/>
</g>
</svg>
