<svg width="324" height="283" viewBox="0 0 324 283" fill="none" xmlns="http://www.w3.org/2000/svg" class="xln-scheme xln-scheme--mobile">
    <g class="xln-scheme-el xln-active" data-tab-selector="server">
        <rect x="193" y="152" width="50" height="50" rx="9" stroke="#DBEAF8" stroke-width="2" />
        <path d="M226.32 165.823H226.109C225.51 165.823 224.999 165.389 224.887 164.791C224.099 160.562 220.447 157.364 216.057 157.364C211.667 157.364 208.015 160.562 207.227 164.791C207.116 165.389 206.604 165.823 206.005 165.823H205.794C201.69 165.823 198.364 169.204 198.364 173.375C198.364 177.546 201.69 180.927 205.794 180.927H226.32C230.423 180.927 233.75 177.546 233.75 173.375C233.75 169.204 230.424 165.823 226.32 165.823Z" fill="#DBEAF8" />
        <path d="M215.573 194.59H230.854C231.139 194.59 231.37 194.821 231.37 195.105C231.37 195.39 231.139 195.621 230.854 195.621H215.573C215.288 195.621 215.057 195.39 215.057 195.105C215.057 194.821 215.288 194.59 215.573 194.59Z" fill="#D9E1EE" />
        <path d="M222.698 188.567H223.729V195.462H222.698V188.567Z" fill="#D9E1EE" />
        <path d="M222.251 193.574H224.176C224.491 193.574 224.747 193.829 224.747 194.144V196.067C224.747 196.381 224.491 196.636 224.176 196.636H222.251C221.936 196.636 221.681 196.381 221.681 196.067V194.144C221.681 193.829 221.936 193.574 222.251 193.574Z" fill="#575B6D" />
        <path d="M214.7 183.588H231.728V185.006H214.7V183.588Z" fill="#434963" />
        <path d="M214.7 176.98H231.728V178.398H214.7V176.98Z" fill="#434963" />
        <path d="M212.5 178.167H233.927C234.241 178.167 234.495 178.421 234.495 178.734V183.411C234.495 183.725 234.241 183.978 233.927 183.978H212.5C212.186 183.978 211.932 183.725 211.932 183.411V178.734C211.932 178.421 212.186 178.167 212.5 178.167Z" fill="#575B6D" />
        <path d="M232.414 179.354H233.029V182.956H232.414V179.354Z" fill="#434963" />
        <path d="M230.693 179.354H231.308V182.956H230.693V179.354Z" fill="#434963" />
        <path d="M228.973 179.354H229.588V182.956H228.973V179.354Z" fill="#434963" />
        <path d="M227.252 179.354H227.867V182.956H227.252V179.354Z" fill="#434963" />
        <path d="M225.532 179.354H226.147V182.956H225.532V179.354Z" fill="#434963" />
        <path d="M223.811 179.354H224.426V182.956H223.811V179.354Z" fill="#434963" />
        <path d="M222.091 179.354H222.706V182.957H222.091V179.354Z" fill="#434963" />
        <path d="M214.28 182C214.747 182 215.125 181.622 215.125 181.156C215.125 180.689 214.747 180.311 214.28 180.311C213.813 180.311 213.435 180.689 213.435 181.156C213.435 181.622 213.813 182 214.28 182Z" fill="#2CBFAE" />
        <path d="M217.295 182C217.762 182 218.14 181.622 218.14 181.156C218.14 180.689 217.762 180.311 217.295 180.311C216.828 180.311 216.449 180.689 216.449 181.156C216.449 181.622 216.828 182 217.295 182Z" fill="#EF5261" />
        <path d="M212.499 171.6H233.927C234.24 171.6 234.494 171.854 234.494 172.167V176.844C234.494 177.157 234.24 177.411 233.927 177.411H212.499C212.186 177.411 211.932 177.157 211.932 176.844V172.167C211.932 171.854 212.186 171.6 212.499 171.6V171.6Z" fill="#575B6D" />
        <path d="M232.414 172.787H233.029V176.389H232.414V172.787Z" fill="#434963" />
        <path d="M230.693 172.787H231.308V176.389H230.693V172.787Z" fill="#434963" />
        <path d="M228.972 172.787H229.587V176.389H228.972V172.787Z" fill="#434963" />
        <path d="M227.252 172.787H227.867V176.389H227.252V172.787Z" fill="#434963" />
        <path d="M225.531 172.787H226.146V176.389H225.531V172.787Z" fill="#434963" />
        <path d="M223.811 172.787H224.426V176.389H223.811V172.787Z" fill="#434963" />
        <path d="M222.091 172.787H222.706V176.389H222.091V172.787Z" fill="#434963" />
        <path d="M214.28 175.433C214.747 175.433 215.125 175.055 215.125 174.588C215.125 174.122 214.747 173.744 214.28 173.744C213.813 173.744 213.435 174.122 213.435 174.588C213.435 175.055 213.813 175.433 214.28 175.433Z" fill="#2CBFAE" />
        <path d="M217.295 175.433C217.762 175.433 218.14 175.055 218.14 174.588C218.14 174.122 217.762 173.744 217.295 173.744C216.828 173.744 216.449 174.122 216.449 174.588C216.449 175.055 216.828 175.433 217.295 175.433Z" fill="#EF5261" />
        <path d="M212.5 184.734H233.927C234.241 184.734 234.495 184.988 234.495 185.301V189.979C234.495 190.292 234.241 190.546 233.927 190.546H212.5C212.186 190.546 211.932 190.292 211.932 189.979V185.301C211.932 184.988 212.186 184.734 212.5 184.734Z" fill="#575B6D" />
        <path d="M232.414 185.922H233.029V189.524H232.414V185.922Z" fill="#434963" />
        <path d="M230.693 185.922H231.308V189.524H230.693V185.922Z" fill="#434963" />
        <path d="M228.972 185.922H229.587V189.524H228.972V185.922Z" fill="#434963" />
        <path d="M227.252 185.922H227.867V189.524H227.252V185.922Z" fill="#434963" />
        <path d="M225.531 185.922H226.146V189.524H225.531V185.922Z" fill="#434963" />
        <path d="M223.811 185.922H224.426V189.524H223.811V185.922Z" fill="#434963" />
        <path d="M222.091 185.922H222.706V189.524H222.091V185.922Z" fill="#434963" />
        <path d="M214.28 188.567C214.747 188.567 215.125 188.189 215.125 187.723C215.125 187.256 214.747 186.878 214.28 186.878C213.813 186.878 213.435 187.256 213.435 187.723C213.435 188.189 213.813 188.567 214.28 188.567Z" fill="#2CBFAE" />
        <path d="M217.295 188.567C217.762 188.567 218.14 188.189 218.14 187.723C218.14 187.256 217.762 186.878 217.295 186.878C216.828 186.878 216.449 187.256 216.449 187.723C216.449 188.189 216.828 188.567 217.295 188.567Z" fill="#EF5261" />
    </g>
    <g class="xln-scheme-el xln-active" data-tab-selector="server">
        <rect x="273" y="152" width="50" height="50" rx="9" stroke="#DBEAF8" stroke-width="2" />
        <path d="M306.32 165.823H306.109C305.51 165.823 304.999 165.389 304.887 164.791C304.099 160.562 300.447 157.364 296.057 157.364C291.667 157.364 288.015 160.562 287.227 164.791C287.116 165.389 286.604 165.823 286.005 165.823H285.794C281.69 165.823 278.364 169.204 278.364 173.375C278.364 177.546 281.69 180.927 285.794 180.927H306.32C310.423 180.927 313.75 177.546 313.75 173.375C313.75 169.204 310.424 165.823 306.32 165.823Z" fill="#DBEAF8" />
        <path d="M295.573 194.59H310.854C311.139 194.59 311.37 194.821 311.37 195.105C311.37 195.39 311.139 195.621 310.854 195.621H295.573C295.288 195.621 295.057 195.39 295.057 195.105C295.057 194.821 295.288 194.59 295.573 194.59Z" fill="#D9E1EE" />
        <path d="M302.698 188.567H303.729V195.462H302.698V188.567Z" fill="#D9E1EE" />
        <path d="M302.251 193.574H304.176C304.491 193.574 304.747 193.829 304.747 194.144V196.067C304.747 196.381 304.491 196.636 304.176 196.636H302.251C301.936 196.636 301.681 196.381 301.681 196.067V194.144C301.681 193.829 301.936 193.574 302.251 193.574Z" fill="#575B6D" />
        <path d="M294.7 183.588H311.728V185.006H294.7V183.588Z" fill="#434963" />
        <path d="M294.7 176.98H311.728V178.398H294.7V176.98Z" fill="#434963" />
        <path d="M292.5 178.167H313.927C314.241 178.167 314.495 178.421 314.495 178.734V183.411C314.495 183.725 314.241 183.978 313.927 183.978H292.5C292.186 183.978 291.932 183.725 291.932 183.411V178.734C291.932 178.421 292.186 178.167 292.5 178.167Z" fill="#575B6D" />
        <path d="M312.414 179.354H313.029V182.956H312.414V179.354Z" fill="#434963" />
        <path d="M310.693 179.354H311.308V182.956H310.693V179.354Z" fill="#434963" />
        <path d="M308.973 179.354H309.588V182.956H308.973V179.354Z" fill="#434963" />
        <path d="M307.252 179.354H307.867V182.956H307.252V179.354Z" fill="#434963" />
        <path d="M305.532 179.354H306.147V182.956H305.532V179.354Z" fill="#434963" />
        <path d="M303.811 179.354H304.426V182.956H303.811V179.354Z" fill="#434963" />
        <path d="M302.091 179.354H302.706V182.957H302.091V179.354Z" fill="#434963" />
        <path d="M294.28 182C294.747 182 295.125 181.622 295.125 181.156C295.125 180.689 294.747 180.311 294.28 180.311C293.813 180.311 293.435 180.689 293.435 181.156C293.435 181.622 293.813 182 294.28 182Z" fill="#2CBFAE" />
        <path d="M297.295 182C297.762 182 298.14 181.622 298.14 181.156C298.14 180.689 297.762 180.311 297.295 180.311C296.828 180.311 296.449 180.689 296.449 181.156C296.449 181.622 296.828 182 297.295 182Z" fill="#EF5261" />
        <path d="M292.499 171.6H313.927C314.24 171.6 314.494 171.854 314.494 172.167V176.844C314.494 177.157 314.24 177.411 313.927 177.411H292.499C292.186 177.411 291.932 177.157 291.932 176.844V172.167C291.932 171.854 292.186 171.6 292.499 171.6V171.6Z" fill="#575B6D" />
        <path d="M312.414 172.787H313.029V176.389H312.414V172.787Z" fill="#434963" />
        <path d="M310.693 172.787H311.308V176.389H310.693V172.787Z" fill="#434963" />
        <path d="M308.972 172.787H309.587V176.389H308.972V172.787Z" fill="#434963" />
        <path d="M307.252 172.787H307.867V176.389H307.252V172.787Z" fill="#434963" />
        <path d="M305.531 172.787H306.146V176.389H305.531V172.787Z" fill="#434963" />
        <path d="M303.811 172.787H304.426V176.389H303.811V172.787Z" fill="#434963" />
        <path d="M302.091 172.787H302.706V176.389H302.091V172.787Z" fill="#434963" />
        <path d="M294.28 175.433C294.747 175.433 295.125 175.055 295.125 174.588C295.125 174.122 294.747 173.744 294.28 173.744C293.813 173.744 293.435 174.122 293.435 174.588C293.435 175.055 293.813 175.433 294.28 175.433Z" fill="#2CBFAE" />
        <path d="M297.295 175.433C297.762 175.433 298.14 175.055 298.14 174.588C298.14 174.122 297.762 173.744 297.295 173.744C296.828 173.744 296.449 174.122 296.449 174.588C296.449 175.055 296.828 175.433 297.295 175.433Z" fill="#EF5261" />
        <path d="M292.5 184.734H313.927C314.241 184.734 314.495 184.988 314.495 185.301V189.979C314.495 190.292 314.241 190.546 313.927 190.546H292.5C292.186 190.546 291.932 190.292 291.932 189.979V185.301C291.932 184.988 292.186 184.734 292.5 184.734Z" fill="#575B6D" />
        <path d="M312.414 185.922H313.029V189.524H312.414V185.922Z" fill="#434963" />
        <path d="M310.693 185.922H311.308V189.524H310.693V185.922Z" fill="#434963" />
        <path d="M308.972 185.922H309.587V189.524H308.972V185.922Z" fill="#434963" />
        <path d="M307.252 185.922H307.867V189.524H307.252V185.922Z" fill="#434963" />
        <path d="M305.531 185.922H306.146V189.524H305.531V185.922Z" fill="#434963" />
        <path d="M303.811 185.922H304.426V189.524H303.811V185.922Z" fill="#434963" />
        <path d="M302.091 185.922H302.706V189.524H302.091V185.922Z" fill="#434963" />
        <path d="M294.28 188.567C294.747 188.567 295.125 188.189 295.125 187.723C295.125 187.256 294.747 186.878 294.28 186.878C293.813 186.878 293.435 187.256 293.435 187.723C293.435 188.189 293.813 188.567 294.28 188.567Z" fill="#2CBFAE" />
        <path d="M297.295 188.567C297.762 188.567 298.14 188.189 298.14 187.723C298.14 187.256 297.762 186.878 297.295 186.878C296.828 186.878 296.449 187.256 296.449 187.723C296.449 188.189 296.828 188.567 297.295 188.567Z" fill="#EF5261" />
    </g>
    <g class="xln-scheme-el" data-tab-selector="services">
        <rect x="131" y="1" width="62" height="62" rx="9" stroke="#DBEAF8" stroke-width="2" />
        <path d="M176.238 19.2037H175.946C175.115 19.2037 174.405 18.6008 174.25 17.7701C173.157 11.8968 168.09 7.45459 162 7.45459C155.911 7.45459 150.844 11.8968 149.751 17.7701C149.596 18.6008 148.886 19.2037 148.055 19.2037H147.762C142.07 19.2037 137.455 23.8998 137.455 29.6929C137.455 35.4858 142.069 40.1819 147.762 40.1819H176.238C181.931 40.1819 186.546 35.4858 186.546 29.6929C186.546 23.8998 181.931 19.2037 176.238 19.2037Z" fill="#DBEAF8" />
        <path d="M180.608 40.8603L179.414 40.3212L176.653 36.2029L176.717 34.8818C174.582 33.0839 171.826 32 168.816 32C162.282 31.9999 156.941 37.1069 156.565 43.5471L156.964 43.7289V45.4587L156.643 45.8381C156.859 47.5334 157.421 49.1207 158.256 50.5271C158.28 50.5337 159.033 50.7363 159.134 50.7766C159.236 50.8176 161.902 52.6843 161.902 52.6843V54.413C163.871 55.7583 166.252 56.5455 168.816 56.5455C175.594 56.5455 181.089 51.0507 181.089 44.2726C181.089 43.0885 180.921 41.9437 180.608 40.8603Z" fill="#74B7F3" />
        <path d="M180.612 40.8613H173.499C172.905 40.8613 172.423 40.3801 172.423 39.7861C172.423 39.489 172.544 39.2199 172.738 39.0256C172.933 38.8314 173.202 38.7108 173.499 38.7108H175.091C175.583 38.7108 175.983 38.3116 175.983 37.8191C175.983 37.5731 175.883 37.3503 175.722 37.1893C175.561 37.0278 175.337 36.9279 175.091 36.9279H174.91C174.345 36.9279 173.887 36.4699 173.887 35.9049C173.887 35.6222 174.001 35.3667 174.186 35.1814C174.371 34.996 174.627 34.8813 174.91 34.8813H176.72C178.561 36.4206 179.93 38.4927 180.612 40.8613Z" fill="#C3E87D" />
        <path d="M166.42 52.2341C167.028 52.2341 167.521 52.7266 167.521 53.3349C167.521 53.6391 167.397 53.9142 167.198 54.1132C166.999 54.3128 166.724 54.4358 166.42 54.4358L161.905 54.4142C160.381 53.4096 159.201 52.0939 158.258 50.5273H163.693C164.548 50.5273 165.241 51.22 165.241 52.0743C165.241 52.1183 165.259 52.1587 165.287 52.1872C165.316 52.2163 165.356 52.2341 165.4 52.2341H166.42Z" fill="#C3E87D" />
        <path d="M164.084 43.5471C164.722 43.5471 165.241 44.0652 165.241 44.7038C165.241 45.0234 165.111 45.3127 164.902 45.5218C164.692 45.731 164.403 45.8605 164.084 45.8605H156.813L156.645 45.839C156.574 45.3102 156.545 44.8209 156.545 44.2731C156.545 44.0391 156.553 43.7776 156.567 43.5471H156.813H164.084Z" fill="#C3E87D" />
        <path d="M169.392 46.9104C168.768 46.9104 168.263 47.4158 168.263 48.0392C168.263 48.6626 168.768 49.168 169.392 49.168H175.358C175.982 49.168 176.487 48.6626 176.487 48.0392C176.487 47.4158 175.982 46.9104 175.358 46.9104H169.392Z" fill="#C3E87D" />
    </g>
    <g class="xln-scheme-el" data-tab-selector="firewall">
        <rect x="233" y="72" width="50" height="50" rx="9" stroke="#DBEAF8" stroke-width="2" />
        <path d="M247.843 101.063H239.041C238.667 101.063 238.364 100.759 238.364 100.385V95.6457C238.364 95.2717 238.667 94.9685 239.041 94.9685H247.843C248.217 94.9685 248.52 95.2716 248.52 95.6457V100.385C248.52 100.759 248.217 101.063 247.843 101.063Z" fill="#F4B973" />
        <path d="M239.041 77.3635H247.843C248.217 77.3635 248.52 77.6667 248.52 78.0407V82.7805C248.52 83.1544 248.217 83.4576 247.843 83.4576H239.041C238.667 83.4575 238.364 83.1544 238.364 82.7805V78.0407C238.364 77.6667 238.667 77.3635 239.041 77.3635Z" fill="#F4B973" />
        <path d="M251.906 77.3635H264.094C264.468 77.3635 264.771 77.6667 264.771 78.0407V82.7805C264.771 83.1544 264.468 83.4576 264.094 83.4576H251.906C251.532 83.4576 251.229 83.1545 251.229 82.7805V78.0407C251.229 77.6667 251.532 77.3635 251.906 77.3635Z" fill="#F4B973" />
        <path d="M256.646 87.1343V86.8432C256.645 86.4697 256.342 86.1672 255.969 86.166H239.041C238.667 86.1671 238.365 86.4696 238.364 86.8432V91.583C238.365 91.9564 238.667 92.259 239.041 92.2601H252.773L256.646 87.1343Z" fill="#F4B973" />
        <path d="M259.354 92.2601H276.959C277.333 92.259 277.635 91.9565 277.636 91.583V86.8432C277.635 86.4697 277.333 86.1672 276.959 86.166H260.031C259.658 86.1671 259.355 86.4696 259.354 86.8432V92.2601H259.354Z" fill="#F4B973" />
        <path d="M248.338 109.865H239.041C238.667 109.864 238.365 109.561 238.364 109.188V104.448C238.365 104.075 238.667 103.772 239.041 103.771H248.974L248.338 109.865Z" fill="#F4B973" />
        <path d="M268.522 103.771H276.959C277.333 103.772 277.635 104.075 277.636 104.448V109.188C277.635 109.561 277.333 109.864 276.959 109.865H268.448L268.522 103.771Z" fill="#F4B973" />
        <path d="M268.157 77.3635H276.959C277.333 77.3635 277.636 77.6667 277.636 78.0407V82.7805C277.636 83.1544 277.333 83.4576 276.959 83.4576H268.157C267.783 83.4576 267.48 83.1545 267.48 82.7805V78.0407C267.48 77.6667 267.783 77.3635 268.157 77.3635Z" fill="#F4B973" />
        <path d="M268.156 94.9685H276.959C277.333 94.9685 277.636 95.2716 277.636 95.6457V100.385C277.636 100.759 277.333 101.063 276.959 101.063H268.156C267.783 101.063 267.479 100.759 267.479 100.385V95.6457C267.479 95.2716 267.783 94.9685 268.156 94.9685Z" fill="#F4B973" />
        <path d="M258.63 101.062H258.02" stroke="black" stroke-width="2" stroke-linecap="round" stroke-linejoin="round" />
        <path d="M268.814 107.664C268.778 108.41 268.655 109.148 268.448 109.865C268.039 111.324 267.238 112.642 266.132 113.677C265.021 114.728 263.692 115.521 262.239 116H262.232C261.008 116.423 259.722 116.638 258.427 116.636C258.008 116.638 257.59 116.615 257.174 116.568C252.888 116.128 249.401 113.42 248.338 109.865C248.112 109.125 247.998 108.356 247.999 107.583C248.001 106.336 248.296 105.107 248.859 103.994C248.893 103.92 248.933 103.845 248.974 103.771C249.3 103.133 249.715 102.545 250.206 102.024C250.659 101.628 251.019 101.138 251.263 100.589C251.298 100.489 251.325 100.387 251.344 100.284C251.402 99.9368 251.362 99.5803 251.229 99.2546C250.863 98.4849 250.22 97.8824 249.428 97.5686C249.36 97.5415 248.961 97.4061 248.52 97.2774C247.931 97.1081 247.261 96.9524 247.173 97.0743C247.491 96.4967 247.956 96.0133 248.52 95.6727C249.521 95.0844 250.686 94.8395 251.838 94.9753C251.86 94.9697 251.883 94.9674 251.906 94.9685H252.969C252.762 94.0815 252.696 93.1676 252.773 92.2601C252.854 89.9061 254.404 87.856 256.646 87.1343C256.781 87.0866 256.919 87.0459 257.059 87.0125C257.81 86.8321 258.589 86.7931 259.354 86.8973C259.779 86.9404 260.2 87.0151 260.614 87.1208C260.729 87.1478 262.11 87.6625 262.185 87.6625C260.715 88.9354 260.681 90.6688 261.298 92.26C261.694 93.2456 262.278 94.1448 263.017 94.9076L263.078 94.9685C263.647 95.5643 264.223 96.1602 264.771 96.7764C265.692 97.7755 266.505 98.8696 267.195 100.04C267.834 101.205 268.282 102.464 268.522 103.771C268.661 104.566 268.756 105.369 268.807 106.175C268.839 106.671 268.842 107.168 268.814 107.664Z" fill="#EF5261" />
        <path d="M262.239 116H262.232C261.008 116.423 259.722 116.638 258.427 116.636C258.008 116.638 257.59 116.615 257.174 116.568V116.541C254.797 115.471 252.265 113.576 252.238 111.063C252.236 110.656 252.3 110.252 252.427 109.865C252.702 109.033 253.207 108.296 253.883 107.739C254.648 107.096 255.583 106.635 256.348 105.985C256.449 105.897 256.551 105.809 256.646 105.721C257.241 105.189 257.67 104.495 257.878 103.724C258.04 102.846 258.088 101.952 258.02 101.063C258.014 100.907 258.014 100.758 258.014 100.602C258.014 100.656 258.406 100.88 258.447 100.914C258.508 100.961 258.569 101.008 258.63 101.063C258.926 101.294 259.205 101.547 259.463 101.821C260.419 102.776 261.016 104.032 261.155 105.376C261.264 106.798 260.505 108.064 259.713 109.269C261.155 110.298 263.85 109.574 263.85 107.847C263.85 107.989 264.196 108.335 264.27 108.463C264.531 108.904 264.737 109.375 264.886 109.865C264.92 109.951 264.947 110.039 264.968 110.129C265.59 112.526 264.317 114.578 262.239 116Z" fill="#FEDB41" />
        <path d="M262.233 116C262.226 116.007 262.212 116.014 262.205 116.02L262.233 116Z" fill="#FEDB41" />
    </g>
    <g class="xln-scheme-el" data-tab-selector="recovery">
        <rect x="273" y="1" width="50" height="50" rx="9" stroke="#DBEAF8" stroke-width="2" />
        <path d="M306.32 14.8229H306.109C305.51 14.8229 304.999 14.3888 304.887 13.7907C304.099 9.56188 300.447 6.36353 296.057 6.36353C291.667 6.36353 288.015 9.56188 287.227 13.7907C287.116 14.3888 286.604 14.8229 286.005 14.8229H285.794C281.69 14.8229 278.364 18.2041 278.364 22.3751C278.364 26.546 281.69 29.9272 285.794 29.9272H306.32C310.423 29.9272 313.75 26.546 313.75 22.3751C313.75 18.2041 310.424 14.8229 306.32 14.8229Z" fill="#DBEAF8" />
        <path d="M294.653 23.1887V42.9674C294.653 44.4273 299.815 45.6108 306.182 45.6108C312.548 45.6108 317.71 44.4273 317.71 42.9674V23.1887C317.71 23.1887 294.653 23.1887 294.653 23.1887Z" fill="#DFEAEF" />
        <path d="M315.076 23.1887V29.7816C315.076 31.1394 310.612 32.2579 304.865 32.4077C305.298 32.419 305.737 32.425 306.182 32.425C309.763 32.425 312.962 32.0507 315.076 31.4634V36.3744C315.076 37.7322 310.612 38.8507 304.865 39.0005C305.297 39.0118 305.737 39.0178 306.182 39.0178C309.763 39.0178 312.962 38.6435 315.076 38.0563V42.9927C315.076 44.3505 310.612 45.469 304.865 45.6188C305.298 45.6302 305.737 45.6362 306.182 45.6362C312.549 45.6362 317.711 44.4527 317.711 42.9928V36.3999H317.709C317.709 36.3914 317.711 36.383 317.711 36.3745V29.7816V23.1887H315.076Z" fill="#BFCFD6" />
        <path d="M306.182 31.6556C299.815 31.6556 294.653 30.4721 294.653 29.0122V29.7818C294.653 31.2417 299.815 32.4252 306.182 32.4252C312.548 32.4252 317.71 31.2417 317.71 29.7818V29.0122C317.71 30.4721 312.548 31.6556 306.182 31.6556Z" fill="#86AEBC" />
        <path d="M306.182 38.2484C299.815 38.2484 294.653 37.0649 294.653 35.605V36.3746C294.653 37.8345 299.815 39.018 306.182 39.018C312.548 39.018 317.71 37.8345 317.71 36.3746V35.605C317.71 37.0649 312.548 38.2484 306.182 38.2484Z" fill="#86AEBC" />
        <path d="M306.182 44.8426C299.815 44.8426 294.653 43.6591 294.653 42.1992V42.9688C294.653 44.4287 299.815 45.6122 306.182 45.6122C312.548 45.6122 317.71 44.4287 317.71 42.9688V42.1992C317.71 43.6591 312.548 44.8426 306.182 44.8426Z" fill="#86AEBC" />
        <path d="M306.181 25.8322C312.548 25.8322 317.709 24.6487 317.709 23.1888C317.709 21.7289 312.548 20.5454 306.181 20.5454C299.815 20.5454 294.653 21.7289 294.653 23.1888C294.653 24.6487 299.815 25.8322 306.181 25.8322Z" fill="#9EBECC" />
        <path d="M306.182 20.5454C305.737 20.5454 305.297 20.5514 304.865 20.5627C310.612 20.7126 315.076 21.831 315.076 23.1888C315.076 24.5465 310.612 25.665 304.865 25.8149C305.297 25.8262 305.737 25.8321 306.182 25.8321C312.549 25.8321 317.71 24.6487 317.71 23.1887C317.71 21.7289 312.549 20.5454 306.182 20.5454Z" fill="#86AEBC" />
        <path d="M313.184 29.5956C313.79 29.5956 314.281 29.1045 314.281 28.4986C314.281 27.8928 313.79 27.4016 313.184 27.4016C312.578 27.4016 312.087 27.8928 312.087 28.4986C312.087 29.1045 312.578 29.5956 313.184 29.5956Z" fill="#FC9F3D" />
        <path d="M306.182 29.5295C303.024 29.5295 300.064 29.2432 297.849 28.7233C297.645 28.6756 297.519 28.4719 297.567 28.2683C297.615 28.0648 297.819 27.9388 298.022 27.9864C300.182 28.4934 303.08 28.7726 306.182 28.7726C307.481 28.7726 308.755 28.723 309.969 28.6253C310.178 28.6086 310.36 28.7639 310.377 28.9722C310.394 29.1806 310.238 29.363 310.03 29.3798C308.796 29.4792 307.501 29.5295 306.182 29.5295Z" fill="#9EBECC" />
        <path d="M313.184 36.1015C313.79 36.1015 314.281 35.6103 314.281 35.0045C314.281 34.3986 313.79 33.9075 313.184 33.9075C312.578 33.9075 312.087 34.3986 312.087 35.0045C312.087 35.6103 312.578 36.1015 313.184 36.1015Z" fill="#FC9F3D" />
        <path d="M306.182 36.0357C303.024 36.0357 300.064 35.7493 297.849 35.2294C297.645 35.1817 297.519 34.978 297.567 34.7744C297.615 34.5709 297.818 34.4449 298.022 34.4925C300.182 34.9995 303.08 35.2787 306.182 35.2787C307.481 35.2787 308.755 35.2291 309.969 35.1315C310.179 35.114 310.36 35.27 310.377 35.4783C310.394 35.6867 310.238 35.8691 310.03 35.8859C308.796 35.9853 307.501 36.0357 306.182 36.0357Z" fill="#9EBECC" />
        <path d="M313.184 42.6178C313.79 42.6178 314.281 42.1267 314.281 41.5208C314.281 40.915 313.79 40.4238 313.184 40.4238C312.578 40.4238 312.087 40.915 312.087 41.5208C312.087 42.1267 312.578 42.6178 313.184 42.6178Z" fill="#FC9F3D" />
        <path d="M306.182 42.5517C303.024 42.5517 300.064 42.2654 297.849 41.7455C297.645 41.6978 297.519 41.494 297.567 41.2905C297.615 41.087 297.819 40.9611 298.022 41.0085C300.182 41.5156 303.08 41.7947 306.182 41.7947C307.481 41.7947 308.755 41.7452 309.969 41.6475C310.178 41.6304 310.36 41.7861 310.377 41.9944C310.394 42.2028 310.238 42.3852 310.03 42.402C308.796 42.5014 307.501 42.5517 306.182 42.5517Z" fill="#9EBECC" />
    </g>
    <g class="xln-scheme-el" data-tab-selector="balancer">
        <rect x="57" y="72" width="50" height="50" rx="9" stroke="#DBEAF8" stroke-width="2" />
        <ellipse cx="82" cy="81.7272" rx="4.36364" ry="4.36364" fill="#178CF9" />
        <path d="M89.6908 97.1294C89.6908 101.305 86.3055 104.691 82.1295 104.691C77.9535 104.691 74.5682 101.305 74.5682 97.1294C74.5682 92.9534 77.9535 89.5681 82.1295 89.5681C86.3055 89.5681 89.6908 92.9534 89.6908 97.1294Z" stroke="#178CF9" stroke-width="1.5" />
        <path d="M82 83.9089L82 89.3635" stroke="#178CF9" stroke-width="1.5" />
        <path d="M82.0001 104.636V115.545M82.0001 115.545L85.8182 111.727M82.0001 115.545L78.1819 111.727" stroke="#178CF9" stroke-width="1.5" stroke-linecap="round" stroke-linejoin="round" />
        <path d="M89.0909 100.273L100.448 106.852M100.448 106.852L99.0501 101.636M100.448 106.852L95.2319 108.25" stroke="#178CF9" stroke-width="1.5" stroke-linecap="round" stroke-linejoin="round" />
        <path d="M74.8113 100.273L63.4546 106.852M63.4546 106.852L64.8521 101.636M63.4546 106.852L68.6703 108.25" stroke="#178CF9" stroke-width="1.5" stroke-linecap="round" stroke-linejoin="round" />
    </g>
    <g class="xln-scheme-el" data-tab-selector="kubernetes">
        <rect x="1" y="152" width="50" height="50" rx="9" stroke="#DBEAF8" stroke-width="2" />
        <path d="M18.8389 196.091C17.924 196.091 17.06 195.673 16.4755 194.914L7.58098 183.538C6.99648 182.78 6.76777 181.812 6.99648 180.871L10.1731 166.67C10.3764 165.729 10.9863 164.97 11.8249 164.552L24.6839 158.223C25.0905 158.014 25.5479 157.909 26.0054 157.909C26.4628 157.909 26.9202 158.014 27.3268 158.223L40.1858 164.526C41.0244 164.944 41.6343 165.702 41.8376 166.644L45.0142 180.844C45.2175 181.786 45.0142 182.754 44.4297 183.512L35.5352 194.888C34.9507 195.62 34.0867 196.065 33.1718 196.065L18.8389 196.091Z" fill="#178CF9" />
        <path d="M38.894 179.856C38.8684 179.856 38.8684 179.856 38.894 179.856H38.8684C38.8428 179.856 38.8172 179.856 38.8172 179.831C38.766 179.831 38.7148 179.805 38.6636 179.805C38.4844 179.78 38.3308 179.755 38.1773 179.755C38.1005 179.755 38.0237 179.755 37.9213 179.729H37.8957C37.3582 179.679 36.923 179.628 36.5135 179.502C36.3343 179.426 36.2831 179.325 36.2319 179.224C36.2319 179.199 36.2063 179.199 36.2063 179.173L35.8736 179.072C36.0272 177.91 35.976 176.697 35.6944 175.509C35.4128 174.321 34.9265 173.209 34.261 172.198L34.517 171.971V171.92C34.517 171.794 34.5426 171.668 34.645 171.541C34.9521 171.263 35.3361 171.036 35.7968 170.758C35.8736 170.707 35.9504 170.682 36.0272 170.632C36.1807 170.556 36.3087 170.48 36.4623 170.379C36.4879 170.354 36.5391 170.328 36.5903 170.278C36.6159 170.252 36.6415 170.252 36.6415 170.227C36.9998 169.924 37.0766 169.418 36.8206 169.09C36.6927 168.913 36.4623 168.812 36.2319 168.812C36.0272 168.812 35.848 168.888 35.6688 169.014C35.6432 169.039 35.6432 169.039 35.6176 169.065C35.5664 169.09 35.5408 169.14 35.4896 169.166C35.3617 169.292 35.2593 169.393 35.1569 169.52C35.1057 169.57 35.0545 169.646 34.9777 169.696C34.6194 170.076 34.2866 170.379 33.9539 170.606C33.8771 170.657 33.8003 170.682 33.7235 170.682C33.6723 170.682 33.6211 170.682 33.5699 170.657H33.5187L33.2116 170.859C32.8788 170.505 32.5205 170.202 32.1621 169.899C30.6263 168.711 28.7578 167.978 26.8125 167.801L26.7869 167.473C26.7613 167.447 26.7613 167.447 26.7357 167.422C26.6589 167.346 26.5565 167.27 26.5309 167.093C26.5053 166.689 26.5565 166.234 26.6077 165.729V165.703C26.6077 165.628 26.6333 165.527 26.6589 165.451C26.6845 165.299 26.7101 165.148 26.7357 164.971V164.819V164.743C26.7357 164.288 26.3773 163.909 25.9422 163.909C25.7374 163.909 25.5326 164.01 25.3791 164.162C25.2255 164.314 25.1487 164.516 25.1487 164.743V164.794V164.945C25.1487 165.122 25.1743 165.274 25.2255 165.426C25.2511 165.501 25.2511 165.577 25.2767 165.678V165.703C25.3279 166.209 25.4047 166.664 25.3535 167.068C25.3279 167.245 25.2255 167.321 25.1487 167.397C25.1231 167.422 25.1231 167.422 25.0975 167.447L25.0719 167.776C24.6112 167.826 24.1504 167.877 23.6897 167.978C21.7188 168.408 19.9782 169.393 18.6216 170.808L18.3657 170.632H18.3145C18.2633 170.632 18.2121 170.657 18.1609 170.657C18.0841 170.657 18.0073 170.632 17.9305 170.581C17.5978 170.354 17.265 170.025 16.9067 169.646C16.8555 169.595 16.8043 169.52 16.7275 169.469C16.6251 169.343 16.5227 169.242 16.3947 169.115C16.3691 169.09 16.3179 169.065 16.2667 169.014C16.2412 168.989 16.2156 168.989 16.2156 168.964C16.062 168.837 15.8572 168.761 15.6524 168.761C15.4221 168.761 15.1917 168.862 15.0637 169.039C14.8078 169.368 14.8845 169.873 15.2429 170.177C15.2685 170.177 15.2685 170.202 15.2941 170.202C15.3453 170.227 15.3709 170.278 15.4221 170.303C15.5756 170.404 15.7036 170.48 15.8572 170.556C15.934 170.581 16.0108 170.632 16.0876 170.682C16.5483 170.96 16.9323 171.188 17.2394 171.466C17.3674 171.592 17.3674 171.718 17.3674 171.845V171.895L17.6234 172.123C17.5722 172.198 17.521 172.249 17.4954 172.325C16.2156 174.321 15.7292 176.672 16.062 178.997L15.7292 179.098C15.7292 179.123 15.7036 179.123 15.7036 179.148C15.6524 179.249 15.5756 179.35 15.4221 179.426C15.0381 179.553 14.5774 179.603 14.0399 179.654H14.0143C13.9375 179.654 13.8351 179.654 13.7583 179.679C13.6047 179.679 13.4511 179.704 13.272 179.729C13.2208 179.729 13.1696 179.755 13.1184 179.755C13.0928 179.755 13.0672 179.755 13.0416 179.78C12.5809 179.881 12.2993 180.311 12.3761 180.715C12.4529 181.069 12.7856 181.296 13.1952 181.296C13.272 181.296 13.3232 181.296 13.4 181.271C13.4255 181.271 13.4511 181.271 13.4511 181.246C13.5023 181.246 13.5535 181.221 13.6047 181.221C13.7839 181.17 13.9119 181.119 14.0655 181.044C14.1422 181.018 14.219 180.968 14.2958 180.943H14.3214C14.8078 180.766 15.2429 180.614 15.6524 180.563H15.7036C15.8572 180.563 15.9596 180.639 16.0364 180.69C16.062 180.69 16.062 180.715 16.0876 180.715L16.4459 180.665C17.0602 182.535 18.2377 184.203 19.799 185.416C20.1574 185.694 20.5157 185.921 20.8997 186.149L20.7461 186.477C20.7461 186.502 20.7717 186.502 20.7717 186.528C20.8229 186.629 20.8741 186.755 20.8229 186.932C20.6693 187.311 20.439 187.69 20.1574 188.12V188.145C20.1062 188.221 20.055 188.271 20.0038 188.347C19.9014 188.474 19.8246 188.6 19.7223 188.752C19.6967 188.777 19.6711 188.827 19.6455 188.878C19.6455 188.903 19.6199 188.928 19.6199 188.928C19.4151 189.358 19.5687 189.838 19.9526 190.015C20.055 190.066 20.1574 190.091 20.2598 190.091C20.5669 190.091 20.8741 189.889 21.0277 189.611C21.0277 189.586 21.0533 189.56 21.0533 189.56C21.0789 189.51 21.1045 189.459 21.1301 189.434C21.2069 189.257 21.2324 189.131 21.2836 188.979C21.3092 188.903 21.3348 188.827 21.3604 188.752C21.5396 188.246 21.6676 187.842 21.898 187.488C22.0003 187.336 22.1283 187.311 22.2307 187.261C22.2563 187.261 22.2563 187.261 22.2819 187.235L22.4611 186.907C23.5873 187.336 24.8159 187.564 26.0446 187.564C26.7869 187.564 27.5548 187.488 28.2715 187.311C28.7322 187.21 29.1673 187.084 29.6025 186.932L29.756 187.21C29.7816 187.21 29.7816 187.21 29.8072 187.235C29.9352 187.261 30.0376 187.311 30.14 187.463C30.3448 187.817 30.4983 188.246 30.6775 188.726V188.752C30.7031 188.827 30.7287 188.903 30.7543 188.979C30.8055 189.131 30.8311 189.282 30.9079 189.434C30.9335 189.484 30.9591 189.51 30.9847 189.56C30.9847 189.586 31.0103 189.611 31.0103 189.611C31.1638 189.914 31.471 190.091 31.7782 190.091C31.8805 190.091 31.9829 190.066 32.0853 190.015C32.2645 189.914 32.4181 189.762 32.4693 189.56C32.5205 189.358 32.5205 189.131 32.4181 188.928C32.4181 188.903 32.3925 188.903 32.3925 188.878C32.3669 188.827 32.3413 188.777 32.3157 188.752C32.2389 188.6 32.1365 188.474 32.0341 188.347C31.9829 188.271 31.9317 188.221 31.8805 188.145V188.12C31.599 187.69 31.343 187.311 31.215 186.932C31.1638 186.755 31.215 186.654 31.2406 186.528C31.2406 186.502 31.2662 186.502 31.2662 186.477L31.1383 186.174C32.4949 185.39 33.6467 184.278 34.517 182.914C34.9777 182.206 35.3361 181.423 35.592 180.639L35.8992 180.69C35.9248 180.69 35.9248 180.665 35.9504 180.665C36.0528 180.614 36.1295 180.538 36.2831 180.538H36.3343C36.7439 180.589 37.179 180.74 37.6653 180.917H37.6909C37.7677 180.943 37.8445 180.993 37.9213 181.018C38.0749 181.094 38.2029 181.145 38.382 181.195C38.4332 181.195 38.4844 181.221 38.5356 181.221C38.5612 181.221 38.5868 181.221 38.6124 181.246C38.6892 181.271 38.7404 181.271 38.8172 181.271C39.2011 181.271 39.5339 181.018 39.6363 180.69C39.6363 180.387 39.3547 179.982 38.894 179.856ZM27.0428 178.617L25.9166 179.148L24.7903 178.617L24.5088 177.43L25.2767 176.469H26.5309L27.2988 177.43L27.0428 178.617ZM33.7235 175.989C33.9283 176.848 33.9794 177.708 33.9027 178.542L29.9864 177.43C29.6281 177.329 29.4233 176.975 29.5001 176.621C29.5257 176.52 29.5769 176.419 29.6537 176.343L32.7508 173.588C33.186 174.296 33.5187 175.105 33.7235 175.989ZM31.5222 172.072L28.1691 174.422C27.8875 174.599 27.5036 174.549 27.2732 174.271C27.1964 174.195 27.1708 174.094 27.1452 173.993L26.9148 169.873C28.681 170.076 30.2936 170.859 31.5222 172.072ZM24.0992 170C24.3808 169.949 24.6368 169.899 24.9183 169.848L24.688 173.892C24.6624 174.245 24.3808 174.549 23.9969 174.549C23.8945 174.549 23.7665 174.523 23.6897 174.473L20.2854 172.072C21.3348 171.036 22.6402 170.328 24.0992 170ZM19.0568 173.588L22.1027 176.267C22.3843 176.495 22.4099 176.924 22.1795 177.202C22.1027 177.303 22.0003 177.379 21.8724 177.404L17.9049 178.542C17.7513 176.823 18.1353 175.079 19.0568 173.588ZM18.3657 180.437L22.4355 179.755C22.7682 179.729 23.0754 179.957 23.1522 180.285C23.1778 180.437 23.1778 180.563 23.1266 180.69L21.5652 184.405C20.1318 183.495 18.98 182.105 18.3657 180.437ZM27.7083 185.466C27.1196 185.593 26.5309 185.668 25.9166 185.668C25.0207 185.668 24.1504 185.517 23.3314 185.264L25.3535 181.65C25.5582 181.423 25.891 181.322 26.1726 181.473C26.3005 181.549 26.4029 181.65 26.4797 181.751L28.4506 185.264C28.2203 185.34 27.9643 185.39 27.7083 185.466ZM32.6996 181.953C32.0597 182.964 31.215 183.773 30.2424 184.405L28.6298 180.589C28.553 180.285 28.681 179.957 28.9882 179.805C29.0905 179.755 29.2185 179.729 29.3465 179.729L33.4419 180.412C33.2883 180.968 33.0324 181.473 32.6996 181.953Z" fill="white" />
    </g>
    <g class="xln-scheme-el" data-tab-selector="kubernetes">
        <rect x="57" y="152" width="50" height="50" rx="9" stroke="#DBEAF8" stroke-width="2" />
        <path d="M74.8389 196.091C73.924 196.091 73.06 195.673 72.4755 194.914L63.581 183.538C62.9965 182.78 62.7678 181.812 62.9965 180.871L66.1731 166.67C66.3764 165.729 66.9863 164.97 67.8249 164.552L80.6839 158.223C81.0905 158.014 81.5479 157.909 82.0054 157.909C82.4628 157.909 82.9202 158.014 83.3268 158.223L96.1858 164.526C97.0244 164.944 97.6343 165.702 97.8376 166.644L101.014 180.844C101.218 181.786 101.014 182.754 100.43 183.512L91.5352 194.888C90.9507 195.62 90.0867 196.065 89.1718 196.065L74.8389 196.091Z" fill="#178CF9" />
        <path d="M94.894 179.856C94.8684 179.856 94.8684 179.856 94.894 179.856H94.8684C94.8428 179.856 94.8172 179.856 94.8172 179.831C94.766 179.831 94.7148 179.805 94.6636 179.805C94.4844 179.78 94.3308 179.755 94.1773 179.755C94.1005 179.755 94.0237 179.755 93.9213 179.729H93.8957C93.3582 179.679 92.923 179.628 92.5135 179.502C92.3343 179.426 92.2831 179.325 92.2319 179.224C92.2319 179.199 92.2063 179.199 92.2063 179.173L91.8736 179.072C92.0272 177.91 91.976 176.697 91.6944 175.509C91.4128 174.321 90.9265 173.209 90.261 172.198L90.517 171.971V171.92C90.517 171.794 90.5426 171.668 90.645 171.541C90.9521 171.263 91.3361 171.036 91.7968 170.758C91.8736 170.707 91.9504 170.682 92.0272 170.632C92.1807 170.556 92.3087 170.48 92.4623 170.379C92.4879 170.354 92.5391 170.328 92.5903 170.278C92.6159 170.252 92.6415 170.252 92.6415 170.227C92.9998 169.924 93.0766 169.418 92.8206 169.09C92.6927 168.913 92.4623 168.812 92.2319 168.812C92.0272 168.812 91.848 168.888 91.6688 169.014C91.6432 169.039 91.6432 169.039 91.6176 169.065C91.5664 169.09 91.5408 169.14 91.4896 169.166C91.3617 169.292 91.2593 169.393 91.1569 169.52C91.1057 169.57 91.0545 169.646 90.9777 169.696C90.6194 170.076 90.2866 170.379 89.9539 170.606C89.8771 170.657 89.8003 170.682 89.7235 170.682C89.6723 170.682 89.6211 170.682 89.5699 170.657H89.5187L89.2116 170.859C88.8788 170.505 88.5205 170.202 88.1621 169.899C86.6263 168.711 84.7578 167.978 82.8125 167.801L82.7869 167.473C82.7613 167.447 82.7613 167.447 82.7357 167.422C82.6589 167.346 82.5565 167.27 82.5309 167.093C82.5053 166.689 82.5565 166.234 82.6077 165.729V165.703C82.6077 165.628 82.6333 165.527 82.6589 165.451C82.6845 165.299 82.7101 165.148 82.7357 164.971V164.819V164.743C82.7357 164.288 82.3773 163.909 81.9422 163.909C81.7374 163.909 81.5326 164.01 81.3791 164.162C81.2255 164.314 81.1487 164.516 81.1487 164.743V164.794V164.945C81.1487 165.122 81.1743 165.274 81.2255 165.426C81.2511 165.501 81.2511 165.577 81.2767 165.678V165.703C81.3279 166.209 81.4047 166.664 81.3535 167.068C81.3279 167.245 81.2255 167.321 81.1487 167.397C81.1231 167.422 81.1231 167.422 81.0975 167.447L81.0719 167.776C80.6112 167.826 80.1504 167.877 79.6897 167.978C77.7188 168.408 75.9782 169.393 74.6216 170.808L74.3657 170.632H74.3145C74.2633 170.632 74.2121 170.657 74.1609 170.657C74.0841 170.657 74.0073 170.632 73.9305 170.581C73.5978 170.354 73.265 170.025 72.9067 169.646C72.8555 169.595 72.8043 169.52 72.7275 169.469C72.6251 169.343 72.5227 169.242 72.3947 169.115C72.3691 169.09 72.3179 169.065 72.2667 169.014C72.2412 168.989 72.2156 168.989 72.2156 168.964C72.062 168.837 71.8572 168.761 71.6524 168.761C71.4221 168.761 71.1917 168.862 71.0637 169.039C70.8078 169.368 70.8845 169.873 71.2429 170.177C71.2685 170.177 71.2685 170.202 71.2941 170.202C71.3453 170.227 71.3709 170.278 71.4221 170.303C71.5756 170.404 71.7036 170.48 71.8572 170.556C71.934 170.581 72.0108 170.632 72.0876 170.682C72.5483 170.96 72.9323 171.188 73.2394 171.466C73.3674 171.592 73.3674 171.718 73.3674 171.845V171.895L73.6234 172.123C73.5722 172.198 73.521 172.249 73.4954 172.325C72.2156 174.321 71.7292 176.672 72.062 178.997L71.7292 179.098C71.7292 179.123 71.7036 179.123 71.7036 179.148C71.6524 179.249 71.5756 179.35 71.4221 179.426C71.0381 179.553 70.5774 179.603 70.0399 179.654H70.0143C69.9375 179.654 69.8351 179.654 69.7583 179.679C69.6047 179.679 69.4511 179.704 69.272 179.729C69.2208 179.729 69.1696 179.755 69.1184 179.755C69.0928 179.755 69.0672 179.755 69.0416 179.78C68.5809 179.881 68.2993 180.311 68.3761 180.715C68.4529 181.069 68.7856 181.296 69.1952 181.296C69.272 181.296 69.3232 181.296 69.4 181.271C69.4255 181.271 69.4511 181.271 69.4511 181.246C69.5023 181.246 69.5535 181.221 69.6047 181.221C69.7839 181.17 69.9119 181.119 70.0655 181.044C70.1422 181.018 70.219 180.968 70.2958 180.943H70.3214C70.8078 180.766 71.2429 180.614 71.6524 180.563H71.7036C71.8572 180.563 71.9596 180.639 72.0364 180.69C72.062 180.69 72.062 180.715 72.0876 180.715L72.4459 180.665C73.0602 182.535 74.2377 184.203 75.799 185.416C76.1574 185.694 76.5157 185.921 76.8997 186.149L76.7461 186.477C76.7461 186.502 76.7717 186.502 76.7717 186.528C76.8229 186.629 76.8741 186.755 76.8229 186.932C76.6693 187.311 76.439 187.69 76.1574 188.12V188.145C76.1062 188.221 76.055 188.271 76.0038 188.347C75.9014 188.474 75.8246 188.6 75.7223 188.752C75.6967 188.777 75.6711 188.827 75.6455 188.878C75.6455 188.903 75.6199 188.928 75.6199 188.928C75.4151 189.358 75.5687 189.838 75.9526 190.015C76.055 190.066 76.1574 190.091 76.2598 190.091C76.5669 190.091 76.8741 189.889 77.0277 189.611C77.0277 189.586 77.0533 189.56 77.0533 189.56C77.0789 189.51 77.1045 189.459 77.1301 189.434C77.2069 189.257 77.2324 189.131 77.2836 188.979C77.3092 188.903 77.3348 188.827 77.3604 188.752C77.5396 188.246 77.6676 187.842 77.898 187.488C78.0003 187.336 78.1283 187.311 78.2307 187.261C78.2563 187.261 78.2563 187.261 78.2819 187.235L78.4611 186.907C79.5873 187.336 80.8159 187.564 82.0446 187.564C82.7869 187.564 83.5548 187.488 84.2715 187.311C84.7322 187.21 85.1673 187.084 85.6025 186.932L85.756 187.21C85.7816 187.21 85.7816 187.21 85.8072 187.235C85.9352 187.261 86.0376 187.311 86.14 187.463C86.3448 187.817 86.4983 188.246 86.6775 188.726V188.752C86.7031 188.827 86.7287 188.903 86.7543 188.979C86.8055 189.131 86.8311 189.282 86.9079 189.434C86.9335 189.484 86.9591 189.51 86.9847 189.56C86.9847 189.586 87.0103 189.611 87.0103 189.611C87.1638 189.914 87.471 190.091 87.7782 190.091C87.8805 190.091 87.9829 190.066 88.0853 190.015C88.2645 189.914 88.4181 189.762 88.4693 189.56C88.5205 189.358 88.5205 189.131 88.4181 188.928C88.4181 188.903 88.3925 188.903 88.3925 188.878C88.3669 188.827 88.3413 188.777 88.3157 188.752C88.2389 188.6 88.1365 188.474 88.0341 188.347C87.9829 188.271 87.9317 188.221 87.8805 188.145V188.12C87.599 187.69 87.343 187.311 87.215 186.932C87.1638 186.755 87.215 186.654 87.2406 186.528C87.2406 186.502 87.2662 186.502 87.2662 186.477L87.1383 186.174C88.4949 185.39 89.6467 184.278 90.517 182.914C90.9777 182.206 91.3361 181.423 91.592 180.639L91.8992 180.69C91.9248 180.69 91.9248 180.665 91.9504 180.665C92.0528 180.614 92.1295 180.538 92.2831 180.538H92.3343C92.7439 180.589 93.179 180.74 93.6653 180.917H93.6909C93.7677 180.943 93.8445 180.993 93.9213 181.018C94.0749 181.094 94.2029 181.145 94.382 181.195C94.4332 181.195 94.4844 181.221 94.5356 181.221C94.5612 181.221 94.5868 181.221 94.6124 181.246C94.6892 181.271 94.7404 181.271 94.8172 181.271C95.2011 181.271 95.5339 181.018 95.6363 180.69C95.6363 180.387 95.3547 179.982 94.894 179.856ZM83.0428 178.617L81.9166 179.148L80.7903 178.617L80.5088 177.43L81.2767 176.469H82.5309L83.2988 177.43L83.0428 178.617ZM89.7235 175.989C89.9283 176.848 89.9794 177.708 89.9027 178.542L85.9864 177.43C85.6281 177.329 85.4233 176.975 85.5001 176.621C85.5257 176.52 85.5769 176.419 85.6537 176.343L88.7508 173.588C89.186 174.296 89.5187 175.105 89.7235 175.989ZM87.5222 172.072L84.1691 174.422C83.8875 174.599 83.5036 174.549 83.2732 174.271C83.1964 174.195 83.1708 174.094 83.1452 173.993L82.9148 169.873C84.681 170.076 86.2936 170.859 87.5222 172.072ZM80.0992 170C80.3808 169.949 80.6368 169.899 80.9183 169.848L80.688 173.892C80.6624 174.245 80.3808 174.549 79.9969 174.549C79.8945 174.549 79.7665 174.523 79.6897 174.473L76.2854 172.072C77.3348 171.036 78.6402 170.328 80.0992 170ZM75.0568 173.588L78.1027 176.267C78.3843 176.495 78.4099 176.924 78.1795 177.202C78.1027 177.303 78.0003 177.379 77.8724 177.404L73.9049 178.542C73.7513 176.823 74.1353 175.079 75.0568 173.588ZM74.3657 180.437L78.4355 179.755C78.7682 179.729 79.0754 179.957 79.1522 180.285C79.1778 180.437 79.1778 180.563 79.1266 180.69L77.5652 184.405C76.1318 183.495 74.98 182.105 74.3657 180.437ZM83.7083 185.466C83.1196 185.593 82.5309 185.668 81.9166 185.668C81.0207 185.668 80.1504 185.517 79.3314 185.264L81.3535 181.65C81.5582 181.423 81.891 181.322 82.1726 181.473C82.3005 181.549 82.4029 181.65 82.4797 181.751L84.4506 185.264C84.2203 185.34 83.9643 185.39 83.7083 185.466ZM88.6996 181.953C88.0597 182.964 87.215 183.773 86.2424 184.405L84.6298 180.589C84.553 180.285 84.681 179.957 84.9882 179.805C85.0905 179.755 85.2185 179.729 85.3465 179.729L89.4419 180.412C89.2883 180.968 89.0324 181.473 88.6996 181.953Z" fill="white" />
    </g>
    <g class="xln-scheme-el" data-tab-selector="kubernetes">
        <rect x="113" y="152" width="50" height="50" rx="9" stroke="#DBEAF8" stroke-width="2" />
        <path d="M130.839 196.091C129.924 196.091 129.06 195.673 128.476 194.914L119.581 183.538C118.996 182.78 118.768 181.812 118.996 180.871L122.173 166.67C122.376 165.729 122.986 164.97 123.825 164.552L136.684 158.223C137.09 158.014 137.548 157.909 138.005 157.909C138.463 157.909 138.92 158.014 139.327 158.223L152.186 164.526C153.024 164.944 153.634 165.702 153.838 166.644L157.014 180.844C157.218 181.786 157.014 182.754 156.43 183.512L147.535 194.888C146.951 195.62 146.087 196.065 145.172 196.065L130.839 196.091Z" fill="#178CF9" />
        <path d="M150.894 179.856C150.868 179.856 150.868 179.856 150.894 179.856H150.868C150.843 179.856 150.817 179.856 150.817 179.831C150.766 179.831 150.715 179.805 150.664 179.805C150.484 179.78 150.331 179.755 150.177 179.755C150.1 179.755 150.024 179.755 149.921 179.729H149.896C149.358 179.679 148.923 179.628 148.513 179.502C148.334 179.426 148.283 179.325 148.232 179.224C148.232 179.199 148.206 179.199 148.206 179.173L147.874 179.072C148.027 177.91 147.976 176.697 147.694 175.509C147.413 174.321 146.927 173.209 146.261 172.198L146.517 171.971V171.92C146.517 171.794 146.543 171.668 146.645 171.541C146.952 171.263 147.336 171.036 147.797 170.758C147.874 170.707 147.95 170.682 148.027 170.632C148.181 170.556 148.309 170.48 148.462 170.379C148.488 170.354 148.539 170.328 148.59 170.278C148.616 170.252 148.641 170.252 148.641 170.227C149 169.924 149.077 169.418 148.821 169.09C148.693 168.913 148.462 168.812 148.232 168.812C148.027 168.812 147.848 168.888 147.669 169.014C147.643 169.039 147.643 169.039 147.618 169.065C147.566 169.09 147.541 169.14 147.49 169.166C147.362 169.292 147.259 169.393 147.157 169.52C147.106 169.57 147.054 169.646 146.978 169.696C146.619 170.076 146.287 170.379 145.954 170.606C145.877 170.657 145.8 170.682 145.723 170.682C145.672 170.682 145.621 170.682 145.57 170.657H145.519L145.212 170.859C144.879 170.505 144.52 170.202 144.162 169.899C142.626 168.711 140.758 167.978 138.812 167.801L138.787 167.473C138.761 167.447 138.761 167.447 138.736 167.422C138.659 167.346 138.556 167.27 138.531 167.093C138.505 166.689 138.556 166.234 138.608 165.729V165.703C138.608 165.628 138.633 165.527 138.659 165.451C138.684 165.299 138.71 165.148 138.736 164.971V164.819V164.743C138.736 164.288 138.377 163.909 137.942 163.909C137.737 163.909 137.533 164.01 137.379 164.162C137.225 164.314 137.149 164.516 137.149 164.743V164.794V164.945C137.149 165.122 137.174 165.274 137.225 165.426C137.251 165.501 137.251 165.577 137.277 165.678V165.703C137.328 166.209 137.405 166.664 137.353 167.068C137.328 167.245 137.225 167.321 137.149 167.397C137.123 167.422 137.123 167.422 137.098 167.447L137.072 167.776C136.611 167.826 136.15 167.877 135.69 167.978C133.719 168.408 131.978 169.393 130.622 170.808L130.366 170.632H130.314C130.263 170.632 130.212 170.657 130.161 170.657C130.084 170.657 130.007 170.632 129.931 170.581C129.598 170.354 129.265 170.025 128.907 169.646C128.855 169.595 128.804 169.52 128.727 169.469C128.625 169.343 128.523 169.242 128.395 169.115C128.369 169.09 128.318 169.065 128.267 169.014C128.241 168.989 128.216 168.989 128.216 168.964C128.062 168.837 127.857 168.761 127.652 168.761C127.422 168.761 127.192 168.862 127.064 169.039C126.808 169.368 126.885 169.873 127.243 170.177C127.268 170.177 127.268 170.202 127.294 170.202C127.345 170.227 127.371 170.278 127.422 170.303C127.576 170.404 127.704 170.48 127.857 170.556C127.934 170.581 128.011 170.632 128.088 170.682C128.548 170.96 128.932 171.188 129.239 171.466C129.367 171.592 129.367 171.718 129.367 171.845V171.895L129.623 172.123C129.572 172.198 129.521 172.249 129.495 172.325C128.216 174.321 127.729 176.672 128.062 178.997L127.729 179.098C127.729 179.123 127.704 179.123 127.704 179.148C127.652 179.249 127.576 179.35 127.422 179.426C127.038 179.553 126.577 179.603 126.04 179.654H126.014C125.937 179.654 125.835 179.654 125.758 179.679C125.605 179.679 125.451 179.704 125.272 179.729C125.221 179.729 125.17 179.755 125.118 179.755C125.093 179.755 125.067 179.755 125.042 179.78C124.581 179.881 124.299 180.311 124.376 180.715C124.453 181.069 124.786 181.296 125.195 181.296C125.272 181.296 125.323 181.296 125.4 181.271C125.426 181.271 125.451 181.271 125.451 181.246C125.502 181.246 125.554 181.221 125.605 181.221C125.784 181.17 125.912 181.119 126.065 181.044C126.142 181.018 126.219 180.968 126.296 180.943H126.321C126.808 180.766 127.243 180.614 127.652 180.563H127.704C127.857 180.563 127.96 180.639 128.036 180.69C128.062 180.69 128.062 180.715 128.088 180.715L128.446 180.665C129.06 182.535 130.238 184.203 131.799 185.416C132.157 185.694 132.516 185.921 132.9 186.149L132.746 186.477C132.746 186.502 132.772 186.502 132.772 186.528C132.823 186.629 132.874 186.755 132.823 186.932C132.669 187.311 132.439 187.69 132.157 188.12V188.145C132.106 188.221 132.055 188.271 132.004 188.347C131.901 188.474 131.825 188.6 131.722 188.752C131.697 188.777 131.671 188.827 131.645 188.878C131.645 188.903 131.62 188.928 131.62 188.928C131.415 189.358 131.569 189.838 131.953 190.015C132.055 190.066 132.157 190.091 132.26 190.091C132.567 190.091 132.874 189.889 133.028 189.611C133.028 189.586 133.053 189.56 133.053 189.56C133.079 189.51 133.104 189.459 133.13 189.434C133.207 189.257 133.232 189.131 133.284 188.979C133.309 188.903 133.335 188.827 133.36 188.752C133.54 188.246 133.668 187.842 133.898 187.488C134 187.336 134.128 187.311 134.231 187.261C134.256 187.261 134.256 187.261 134.282 187.235L134.461 186.907C135.587 187.336 136.816 187.564 138.045 187.564C138.787 187.564 139.555 187.488 140.271 187.311C140.732 187.21 141.167 187.084 141.602 186.932L141.756 187.21C141.782 187.21 141.782 187.21 141.807 187.235C141.935 187.261 142.038 187.311 142.14 187.463C142.345 187.817 142.498 188.246 142.678 188.726V188.752C142.703 188.827 142.729 188.903 142.754 188.979C142.805 189.131 142.831 189.282 142.908 189.434C142.933 189.484 142.959 189.51 142.985 189.56C142.985 189.586 143.01 189.611 143.01 189.611C143.164 189.914 143.471 190.091 143.778 190.091C143.881 190.091 143.983 190.066 144.085 190.015C144.264 189.914 144.418 189.762 144.469 189.56C144.52 189.358 144.52 189.131 144.418 188.928C144.418 188.903 144.392 188.903 144.392 188.878C144.367 188.827 144.341 188.777 144.316 188.752C144.239 188.6 144.137 188.474 144.034 188.347C143.983 188.271 143.932 188.221 143.881 188.145V188.12C143.599 187.69 143.343 187.311 143.215 186.932C143.164 186.755 143.215 186.654 143.241 186.528C143.241 186.502 143.266 186.502 143.266 186.477L143.138 186.174C144.495 185.39 145.647 184.278 146.517 182.914C146.978 182.206 147.336 181.423 147.592 180.639L147.899 180.69C147.925 180.69 147.925 180.665 147.95 180.665C148.053 180.614 148.13 180.538 148.283 180.538H148.334C148.744 180.589 149.179 180.74 149.665 180.917H149.691C149.768 180.943 149.845 180.993 149.921 181.018C150.075 181.094 150.203 181.145 150.382 181.195C150.433 181.195 150.484 181.221 150.536 181.221C150.561 181.221 150.587 181.221 150.612 181.246C150.689 181.271 150.74 181.271 150.817 181.271C151.201 181.271 151.534 181.018 151.636 180.69C151.636 180.387 151.355 179.982 150.894 179.856ZM139.043 178.617L137.917 179.148L136.79 178.617L136.509 177.43L137.277 176.469H138.531L139.299 177.43L139.043 178.617ZM145.723 175.989C145.928 176.848 145.979 177.708 145.903 178.542L141.986 177.43C141.628 177.329 141.423 176.975 141.5 176.621C141.526 176.52 141.577 176.419 141.654 176.343L144.751 173.588C145.186 174.296 145.519 175.105 145.723 175.989ZM143.522 172.072L140.169 174.422C139.888 174.599 139.504 174.549 139.273 174.271C139.196 174.195 139.171 174.094 139.145 173.993L138.915 169.873C140.681 170.076 142.294 170.859 143.522 172.072ZM136.099 170C136.381 169.949 136.637 169.899 136.918 169.848L136.688 173.892C136.662 174.245 136.381 174.549 135.997 174.549C135.894 174.549 135.766 174.523 135.69 174.473L132.285 172.072C133.335 171.036 134.64 170.328 136.099 170ZM131.057 173.588L134.103 176.267C134.384 176.495 134.41 176.924 134.18 177.202C134.103 177.303 134 177.379 133.872 177.404L129.905 178.542C129.751 176.823 130.135 175.079 131.057 173.588ZM130.366 180.437L134.435 179.755C134.768 179.729 135.075 179.957 135.152 180.285C135.178 180.437 135.178 180.563 135.127 180.69L133.565 184.405C132.132 183.495 130.98 182.105 130.366 180.437ZM139.708 185.466C139.12 185.593 138.531 185.668 137.917 185.668C137.021 185.668 136.15 185.517 135.331 185.264L137.353 181.65C137.558 181.423 137.891 181.322 138.173 181.473C138.301 181.549 138.403 181.65 138.48 181.751L140.451 185.264C140.22 185.34 139.964 185.39 139.708 185.466ZM144.7 181.953C144.06 182.964 143.215 183.773 142.242 184.405L140.63 180.589C140.553 180.285 140.681 179.957 140.988 179.805C141.091 179.755 141.219 179.729 141.347 179.729L145.442 180.412C145.288 180.968 145.032 181.473 144.7 181.953Z" fill="white" />
    </g>
    <g class="xln-scheme-el" data-tab-selector="database">
        <rect x="57" y="232" width="107" height="50" rx="9" stroke="#DBEAF8" stroke-width="2" />
        <path d="M115.223 241.914V259.638C115.223 260.946 119.848 262.006 125.553 262.006C131.258 262.006 135.884 260.946 135.884 259.638V241.914C135.884 241.914 115.223 241.914 115.223 241.914Z" fill="#DFEAEF" />
        <path d="M133.523 241.914V247.822C133.523 249.039 129.522 250.041 124.373 250.175C124.76 250.185 125.154 250.191 125.553 250.191C128.761 250.191 131.628 249.855 133.523 249.329V253.73C133.523 254.946 129.522 255.949 124.373 256.083C124.76 256.093 125.154 256.098 125.553 256.098C128.761 256.098 131.628 255.763 133.523 255.237V259.66C133.523 260.877 129.522 261.879 124.373 262.014C124.76 262.024 125.154 262.029 125.553 262.029C131.258 262.029 135.883 260.969 135.883 259.66V253.753H135.882C135.882 253.745 135.883 253.737 135.883 253.73V247.822V241.914H133.523Z" fill="#BFCFD6" />
        <path d="M125.553 249.501C119.848 249.501 115.223 248.441 115.223 247.133V247.822C115.223 249.13 119.848 250.191 125.553 250.191C131.258 250.191 135.884 249.13 135.884 247.822V247.133C135.884 248.441 131.258 249.501 125.553 249.501Z" fill="#86AEBC" />
        <path d="M125.553 255.409C119.848 255.409 115.223 254.349 115.223 253.04V253.73C115.223 255.038 119.848 256.099 125.553 256.099C131.258 256.099 135.884 255.038 135.884 253.73V253.04C135.884 254.349 131.258 255.409 125.553 255.409Z" fill="#86AEBC" />
        <path d="M125.553 261.318C119.848 261.318 115.223 260.257 115.223 258.949V259.639C115.223 260.947 119.848 262.008 125.553 262.008C131.258 262.008 135.884 260.947 135.884 259.639V258.949C135.884 260.257 131.258 261.318 125.553 261.318Z" fill="#86AEBC" />
        <path d="M125.553 244.283C131.258 244.283 135.883 243.222 135.883 241.914C135.883 240.606 131.258 239.545 125.553 239.545C119.848 239.545 115.223 240.606 115.223 241.914C115.223 243.222 119.848 244.283 125.553 244.283Z" fill="#9EBECC" />
        <path d="M125.553 239.545C125.154 239.545 124.76 239.551 124.373 239.561C129.522 239.695 133.523 240.697 133.523 241.914C133.523 243.131 129.522 244.133 124.373 244.267C124.76 244.277 125.154 244.283 125.553 244.283C131.258 244.283 135.884 243.222 135.884 241.914C135.884 240.606 131.258 239.545 125.553 239.545Z" fill="#86AEBC" />
        <path d="M131.827 247.655C132.37 247.655 132.81 247.215 132.81 246.672C132.81 246.129 132.37 245.689 131.827 245.689C131.284 245.689 130.844 246.129 130.844 246.672C130.844 247.215 131.284 247.655 131.827 247.655Z" fill="#FC9F3D" />
        <path d="M125.553 247.596C122.723 247.596 120.071 247.339 118.086 246.873C117.904 246.831 117.79 246.648 117.833 246.466C117.876 246.283 118.059 246.17 118.241 246.213C120.177 246.667 122.774 246.918 125.553 246.918C126.717 246.918 127.859 246.873 128.947 246.786C129.134 246.771 129.297 246.91 129.312 247.097C129.327 247.283 129.188 247.447 129.001 247.462C127.896 247.551 126.735 247.596 125.553 247.596Z" fill="#9EBECC" />
        <path d="M131.827 253.485C132.37 253.485 132.81 253.045 132.81 252.502C132.81 251.959 132.37 251.519 131.827 251.519C131.284 251.519 130.844 251.959 130.844 252.502C130.844 253.045 131.284 253.485 131.827 253.485Z" fill="#FC9F3D" />
        <path d="M125.553 253.426C122.723 253.426 120.071 253.169 118.086 252.704C117.904 252.661 117.79 252.478 117.833 252.296C117.876 252.113 118.059 252.001 118.241 252.043C120.177 252.498 122.774 252.748 125.553 252.748C126.717 252.748 127.859 252.703 128.947 252.616C129.135 252.6 129.297 252.74 129.312 252.927C129.327 253.113 129.188 253.277 129.001 253.292C127.896 253.381 126.735 253.426 125.553 253.426Z" fill="#9EBECC" />
        <path d="M131.827 259.324C132.37 259.324 132.81 258.884 132.81 258.341C132.81 257.799 132.37 257.358 131.827 257.358C131.284 257.358 130.844 257.799 130.844 258.341C130.844 258.884 131.284 259.324 131.827 259.324Z" fill="#FC9F3D" />
        <path d="M125.553 259.265C122.723 259.265 120.071 259.009 118.086 258.543C117.904 258.5 117.79 258.317 117.833 258.135C117.876 257.953 118.059 257.84 118.241 257.882C120.177 258.337 122.774 258.587 125.553 258.587C126.717 258.587 127.859 258.542 128.947 258.455C129.134 258.439 129.297 258.579 129.312 258.766C129.327 258.952 129.188 259.116 129.001 259.131C127.896 259.22 126.735 259.265 125.553 259.265Z" fill="#9EBECC" />
        <path d="M85.6389 241.914V259.638C85.6389 260.946 90.264 262.006 95.9693 262.006C101.675 262.006 106.3 260.946 106.3 259.638V241.914C106.3 241.914 85.6389 241.914 85.6389 241.914Z" fill="#DFEAEF" />
        <path d="M103.939 241.914V247.822C103.939 249.039 99.9384 250.041 94.7889 250.175C95.1763 250.185 95.57 250.191 95.9691 250.191C99.1776 250.191 102.044 249.855 103.939 249.329V253.73C103.939 254.946 99.9383 255.949 94.7889 256.083C95.1763 256.093 95.5699 256.098 95.969 256.098C99.1775 256.098 102.044 255.763 103.939 255.237V259.66C103.939 260.877 99.9383 261.879 94.7888 262.014C95.1763 262.024 95.57 262.029 95.9691 262.029C101.674 262.029 106.3 260.969 106.3 259.66V253.753H106.298C106.299 253.745 106.3 253.737 106.3 253.73V247.822V241.914H103.939Z" fill="#BFCFD6" />
        <path d="M95.9693 249.501C90.264 249.501 85.6389 248.441 85.6389 247.133V247.822C85.6389 249.13 90.264 250.191 95.9693 250.191C101.675 250.191 106.3 249.13 106.3 247.822V247.133C106.3 248.441 101.675 249.501 95.9693 249.501Z" fill="#86AEBC" />
        <path d="M95.9693 255.409C90.264 255.409 85.6389 254.349 85.6389 253.04V253.73C85.6389 255.038 90.264 256.099 95.9693 256.099C101.675 256.099 106.3 255.038 106.3 253.73V253.04C106.3 254.349 101.675 255.409 95.9693 255.409Z" fill="#86AEBC" />
        <path d="M95.9693 261.318C90.264 261.318 85.6389 260.257 85.6389 258.949V259.639C85.6389 260.947 90.264 262.008 95.9693 262.008C101.675 262.008 106.3 260.947 106.3 259.639V258.949C106.3 260.257 101.675 261.318 95.9693 261.318Z" fill="#86AEBC" />
        <path d="M95.9693 244.283C101.675 244.283 106.3 243.222 106.3 241.914C106.3 240.606 101.675 239.545 95.9693 239.545C90.2641 239.545 85.639 240.606 85.639 241.914C85.639 243.222 90.2641 244.283 95.9693 244.283Z" fill="#9EBECC" />
        <path d="M95.9692 239.545C95.5701 239.545 95.1764 239.551 94.7891 239.561C99.9385 239.695 103.939 240.697 103.939 241.914C103.939 243.131 99.9385 244.133 94.7891 244.267C95.1764 244.277 95.5701 244.283 95.9692 244.283C101.675 244.283 106.3 243.222 106.3 241.914C106.3 240.606 101.675 239.545 95.9692 239.545Z" fill="#86AEBC" />
        <path d="M102.243 247.655C102.786 247.655 103.226 247.215 103.226 246.672C103.226 246.129 102.786 245.689 102.243 245.689C101.7 245.689 101.26 246.129 101.26 246.672C101.26 247.215 101.7 247.655 102.243 247.655Z" fill="#FC9F3D" />
        <path d="M95.9691 247.596C93.139 247.596 90.4872 247.339 88.5021 246.873C88.3198 246.831 88.2066 246.648 88.2494 246.466C88.2922 246.283 88.4751 246.17 88.6571 246.213C90.5929 246.667 93.1897 246.918 95.9692 246.918C97.1334 246.918 98.2753 246.873 99.3632 246.786C99.5499 246.771 99.7134 246.91 99.7284 247.097C99.7434 247.283 99.6043 247.447 99.4176 247.462C98.3117 247.551 97.1514 247.596 95.9691 247.596Z" fill="#9EBECC" />
        <path d="M102.243 253.485C102.786 253.485 103.226 253.045 103.226 252.502C103.226 251.959 102.786 251.519 102.243 251.519C101.7 251.519 101.26 251.959 101.26 252.502C101.26 253.045 101.7 253.485 102.243 253.485Z" fill="#FC9F3D" />
        <path d="M95.9691 253.426C93.1392 253.426 90.4873 253.169 88.5021 252.704C88.3198 252.661 88.2066 252.478 88.2494 252.296C88.2922 252.113 88.4748 252.001 88.6571 252.043C90.593 252.498 93.1899 252.748 95.9692 252.748C97.1334 252.748 98.2753 252.703 99.3632 252.616C99.5509 252.6 99.7134 252.74 99.7284 252.927C99.7434 253.113 99.6043 253.277 99.4176 253.292C98.3117 253.381 97.1514 253.426 95.9691 253.426Z" fill="#9EBECC" />
        <path d="M102.243 259.324C102.786 259.324 103.226 258.884 103.226 258.341C103.226 257.799 102.786 257.358 102.243 257.358C101.7 257.358 101.26 257.799 101.26 258.341C101.26 258.884 101.7 259.324 102.243 259.324Z" fill="#FC9F3D" />
        <path d="M95.9691 259.265C93.139 259.265 90.4872 259.009 88.5021 258.543C88.3198 258.5 88.2066 258.317 88.2494 258.135C88.2922 257.953 88.4751 257.84 88.6571 257.882C90.5929 258.337 93.1897 258.587 95.9692 258.587C97.1334 258.587 98.2753 258.542 99.3632 258.455C99.5499 258.439 99.7134 258.579 99.7284 258.766C99.7434 258.952 99.6043 259.116 99.4176 259.131C98.3117 259.22 97.1514 259.265 95.9691 259.265Z" fill="#9EBECC" />
        <path d="M99.3431 252.222V271.811C99.3431 273.257 104.455 274.429 110.761 274.429C117.067 274.429 122.179 273.257 122.179 271.811V252.222C122.179 252.222 99.3431 252.222 99.3431 252.222Z" fill="#DFEAEF" />
        <path d="M119.57 252.222V258.752C119.57 260.097 115.148 261.204 109.457 261.353C109.885 261.364 110.32 261.37 110.761 261.37C114.307 261.37 117.476 260.999 119.57 260.418V265.282C119.57 266.626 115.148 267.734 109.456 267.883C109.885 267.894 110.32 267.9 110.761 267.9C114.307 267.9 117.476 267.529 119.57 266.947V271.836C119.57 273.181 115.148 274.289 109.456 274.437C109.885 274.449 110.32 274.455 110.761 274.455C117.067 274.455 122.179 273.282 122.179 271.837V265.307H122.177C122.178 265.298 122.179 265.29 122.179 265.282V258.752V252.222H119.57Z" fill="#BFCFD6" />
        <path d="M110.761 260.608C104.455 260.608 99.3431 259.435 99.3431 257.99V258.752C99.3431 260.198 104.455 261.37 110.761 261.37C117.067 261.37 122.179 260.198 122.179 258.752V257.99C122.179 259.435 117.067 260.608 110.761 260.608Z" fill="#86AEBC" />
        <path d="M110.761 267.137C104.455 267.137 99.3431 265.965 99.3431 264.519V265.281C99.3431 266.727 104.455 267.899 110.761 267.899C117.067 267.899 122.179 266.727 122.179 265.281V264.519C122.179 265.965 117.067 267.137 110.761 267.137Z" fill="#86AEBC" />
        <path d="M110.761 273.668C104.455 273.668 99.3431 272.496 99.3431 271.05V271.812C99.3431 273.258 104.455 274.43 110.761 274.43C117.067 274.43 122.179 273.258 122.179 271.812V271.05C122.179 272.496 117.067 273.668 110.761 273.668Z" fill="#86AEBC" />
        <path d="M110.761 254.84C117.067 254.84 122.179 253.668 122.179 252.222C122.179 250.776 117.067 249.604 110.761 249.604C104.455 249.604 99.3434 250.776 99.3434 252.222C99.3434 253.668 104.455 254.84 110.761 254.84Z" fill="#9EBECC" />
        <path d="M110.761 249.604C110.32 249.604 109.885 249.61 109.457 249.621C115.148 249.77 119.57 250.877 119.57 252.222C119.57 253.567 115.148 254.675 109.457 254.823C109.885 254.834 110.32 254.84 110.761 254.84C117.067 254.84 122.179 253.668 122.179 252.222C122.179 250.776 117.067 249.604 110.761 249.604Z" fill="#86AEBC" />
        <path d="M117.695 258.567C118.295 258.567 118.782 258.081 118.782 257.481C118.782 256.881 118.295 256.395 117.695 256.395C117.095 256.395 116.609 256.881 116.609 257.481C116.609 258.081 117.095 258.567 117.695 258.567Z" fill="#FC9F3D" />
        <path d="M110.761 258.502C107.633 258.502 104.702 258.218 102.508 257.703C102.306 257.656 102.181 257.454 102.229 257.253C102.276 257.051 102.478 256.926 102.679 256.974C104.819 257.476 107.689 257.752 110.761 257.752C112.048 257.752 113.31 257.703 114.512 257.606C114.719 257.59 114.899 257.744 114.916 257.95C114.933 258.156 114.779 258.337 114.572 258.354C113.35 258.452 112.068 258.502 110.761 258.502Z" fill="#9EBECC" />
        <path d="M117.695 265.011C118.295 265.011 118.782 264.525 118.782 263.925C118.782 263.325 118.295 262.838 117.695 262.838C117.095 262.838 116.609 263.325 116.609 263.925C116.609 264.525 117.095 265.011 117.695 265.011Z" fill="#FC9F3D" />
        <path d="M110.761 264.946C107.633 264.946 104.702 264.662 102.508 264.147C102.306 264.1 102.181 263.898 102.229 263.697C102.276 263.495 102.478 263.37 102.679 263.417C104.819 263.92 107.689 264.196 110.761 264.196C112.048 264.196 113.31 264.147 114.512 264.05C114.72 264.033 114.899 264.188 114.916 264.394C114.933 264.6 114.779 264.781 114.572 264.797C113.35 264.896 112.068 264.946 110.761 264.946Z" fill="#9EBECC" />
        <path d="M117.695 271.465C118.295 271.465 118.782 270.979 118.782 270.378C118.782 269.778 118.295 269.292 117.695 269.292C117.095 269.292 116.609 269.778 116.609 270.378C116.609 270.979 117.095 271.465 117.695 271.465Z" fill="#FC9F3D" />
        <path d="M110.761 271.399C107.633 271.399 104.702 271.116 102.508 270.601C102.306 270.554 102.181 270.352 102.229 270.15C102.276 269.949 102.478 269.824 102.679 269.871C104.819 270.373 107.689 270.65 110.761 270.65C112.048 270.65 113.31 270.601 114.512 270.504C114.719 270.487 114.899 270.641 114.916 270.847C114.933 271.054 114.779 271.234 114.572 271.251C113.35 271.35 112.068 271.399 110.761 271.399Z" fill="#9EBECC" />
    </g>
    <g class="xln-scheme-el" data-tab-selector="storage">
        <rect x="1" y="232" width="50" height="50" rx="9" stroke="#DBEAF8" stroke-width="2" />
        <path d="M42.4719 242.697V271.301C42.4719 273.413 35.033 275.124 25.8567 275.124C16.6804 275.124 9.24146 273.413 9.24146 271.301V242.697C9.24146 242.697 42.4719 242.697 42.4719 242.697Z" fill="#575B6D" />
        <path d="M25.8572 254.942C35.0335 254.942 42.4724 253.23 42.4724 251.119V252.232C42.4724 254.343 35.0335 256.055 25.8572 256.055C16.6808 256.055 9.24194 254.343 9.24194 252.232V251.119C9.24194 253.23 16.6808 254.942 25.8572 254.942Z" fill="#434963" />
        <path d="M25.8574 264.476C35.0338 264.476 42.4727 262.764 42.4727 260.653V261.766C42.4727 263.877 35.0338 265.589 25.8574 265.589C16.6811 265.589 9.24219 263.877 9.24219 261.766V260.653C9.24219 262.764 16.6811 264.476 25.8574 264.476Z" fill="#434963" />
        <path d="M25.8574 274.013C35.0338 274.013 42.4727 272.301 42.4727 270.19V271.303C42.4727 273.414 35.0338 275.126 25.8574 275.126C16.6811 275.126 9.24219 273.414 9.24219 271.303V270.19C9.24219 272.301 16.6811 274.013 25.8574 274.013Z" fill="#434963" />
        <path d="M25.8569 246.52C16.6807 246.52 9.24189 244.808 9.24189 242.697C9.24189 240.586 16.6807 238.874 25.8569 238.874C35.0331 238.874 42.4719 240.586 42.4719 242.697C42.4719 244.808 35.0331 246.52 25.8569 246.52Z" fill="#434963" />
        <path d="M13.3438 250.547C12.7203 250.547 12.2148 250.04 12.2148 249.415C12.2148 248.789 12.7203 248.282 13.3438 248.282C13.9673 248.282 14.4728 248.789 14.4728 249.415C14.4728 250.04 13.9673 250.547 13.3438 250.547Z" fill="#FF5364" />
        <path d="M13.3438 259.955C12.7203 259.955 12.2148 259.448 12.2148 258.822C12.2148 258.197 12.7203 257.689 13.3438 257.689C13.9673 257.689 14.4728 258.197 14.4728 258.822C14.4728 259.448 13.9673 259.955 13.3438 259.955Z" fill="#FF5364" />
        <path d="M13.3438 269.363C12.7203 269.363 12.2148 268.856 12.2148 268.23C12.2148 267.604 12.7203 267.097 13.3438 267.097C13.9673 267.097 14.4728 267.604 14.4728 268.23C14.4728 268.856 13.9673 269.363 13.3438 269.363Z" fill="#FF5364" />
        <path d="M25.858 251.867C30.4099 251.867 34.6751 251.453 37.8679 250.701C38.1611 250.632 38.3431 250.337 38.2743 250.043C38.2054 249.749 37.9113 249.566 37.6185 249.635C34.5051 250.368 30.3284 250.772 25.8579 250.772C23.9854 250.772 22.1488 250.7 20.3991 250.559C20.0987 250.535 19.8358 250.76 19.8116 251.061C19.7875 251.362 20.0113 251.626 20.3115 251.65C22.0903 251.794 23.9564 251.867 25.858 251.867Z" fill="#434963" />
        <path d="M25.858 261.276C30.4096 261.276 34.6748 260.862 37.8679 260.11C38.1611 260.041 38.3431 259.746 38.2743 259.452C38.2054 259.158 37.9118 258.975 37.6185 259.044C34.5048 259.778 30.3281 260.181 25.8579 260.181C23.9854 260.181 22.1488 260.11 20.3991 259.968C20.0972 259.943 19.8358 260.169 19.8116 260.47C19.7875 260.771 20.0113 261.035 20.3115 261.06C22.0903 261.203 23.9564 261.276 25.858 261.276Z" fill="#434963" />
        <path d="M25.858 270.7C30.4099 270.7 34.6751 270.286 37.8679 269.534C38.1611 269.465 38.3431 269.17 38.2743 268.876C38.2054 268.582 37.9113 268.399 37.6185 268.468C34.5051 269.201 30.3284 269.605 25.8579 269.605C23.9854 269.605 22.1488 269.533 20.3991 269.392C20.0987 269.367 19.8358 269.593 19.8116 269.894C19.7875 270.195 20.0113 270.459 20.3115 270.483C22.0903 270.627 23.9564 270.7 25.858 270.7Z" fill="#434963" />
    </g>
    <g class="xln-scheme-lines">
        <path d="M26 203V207C26 212.523 30.4772 217 36 217H55" stroke="#DBEAF8" stroke-width="2" />
        <path d="M73 231V227C73 221.477 68.5228 217 63 217H44" stroke="#DBEAF8" stroke-width="2" />
        <path d="M130 32L102 32C90.9543 32 82 40.9543 82 52L82 71" stroke="#DBEAF8" stroke-width="2" />
        <path d="M194 32L238 32C249.046 32 258 40.9543 258 52L258 71" stroke="#DBEAF8" stroke-width="2" />
        <path d="M112 97L198 97C209.046 97 218 105.954 218 117L218 151" stroke="#DBEAF8" stroke-width="2" />
        <path d="M165 257L198 257C209.046 257 218 248.046 218 237L218 203" stroke="#DBEAF8" stroke-width="2" />
        <path d="M272 177L268 177C262.477 177 258 172.523 258 167L258 123" stroke="#DBEAF8" stroke-width="2" />
        <path d="M244 177L248 177C253.523 177 258 172.523 258 167L258 123" stroke="#DBEAF8" stroke-width="2" />
        <path d="M108 97L118 97C129.046 97 138 105.954 138 117L138 151" stroke="#DBEAF8" stroke-width="2" />
        <path d="M56 97L46 97C34.9543 97 26 105.954 26 117L26 151" stroke="#DBEAF8" stroke-width="2" />
        <path d="M82 123V151" stroke="#DBEAF8" stroke-width="2" />
        <path d="M298 52L298 151" stroke="#DBEAF8" stroke-width="2" />
        <path d="M82 203V231" stroke="#DBEAF8" stroke-width="2" />
        <path d="M138 203V231" stroke="#DBEAF8" stroke-width="2" />
        <path d="M26 203L26 231" stroke="#DBEAF8" stroke-width="2" />
    </g>
</svg>