<svg width="24" height="25" viewBox="0 0 24 25" fill="none" xmlns="http://www.w3.org/2000/svg">
<g>
<path d="M12 0.5C5.376 0.5 0 5.876 0 12.5C0 19.124 5.376 24.5 12 24.5H18V22.1H12C6.792 22.1 2.4 17.708 2.4 12.5C2.4 7.292 6.792 2.9 12 2.9C17.208 2.9 21.6 7.292 21.6 12.5V14.216C21.6 15.164 20.748 16.1 19.8 16.1C18.852 16.1 18 15.164 18 14.216V12.5C18 9.188 15.312 6.5 12 6.5C8.688 6.5 6 9.188 6 12.5C6 15.812 8.688 18.5 12 18.5C13.656 18.5 15.168 17.828 16.248 16.736C17.028 17.804 18.372 18.5 19.8 18.5C22.164 18.5 24 16.58 24 14.216V12.5C24 5.876 18.624 0.5 12 0.5ZM12 16.1C10.008 16.1 8.4 14.492 8.4 12.5C8.4 10.508 10.008 8.9 12 8.9C13.992 8.9 15.6 10.508 15.6 12.5C15.6 14.492 13.992 16.1 12 16.1Z" fill="currentColor"/>
</g>
</svg>
