<svg width="28" height="24" viewBox="0 0 28 24" fill="none" xmlns="http://www.w3.org/2000/svg">
<g clip-path="url(#clip0)">
<path d="M27.9979 2.84287C27.2183 4.06666 26.2619 5.10989 25.1286 5.97254C25.1398 6.2039 25.1454 6.4654 25.1454 6.75703C25.1454 8.3774 24.9216 9.99973 24.4739 11.624C24.0262 13.2483 23.3423 14.8031 22.4223 16.2882C21.5022 17.7734 20.4063 19.0892 19.1345 20.2355C17.8627 21.3818 16.3339 22.2958 14.5481 22.9775C12.7624 23.6592 10.8485 24 8.8066 24C5.61981 24 2.68509 23.0921 0.00244141 21.2762C0.47858 21.3321 0.935237 21.3601 1.37241 21.3601C4.03471 21.3601 6.41258 20.4947 8.506 18.7638C7.26469 18.7398 6.153 18.3365 5.17093 17.554C4.18886 16.7715 3.51303 15.7716 3.14342 14.5543C3.50875 14.6277 3.86932 14.6645 4.22513 14.6645C4.73729 14.6645 5.24124 14.594 5.737 14.453C4.41229 14.173 3.31332 13.4766 2.44011 12.364C1.56692 11.2514 1.13033 9.9672 1.13033 8.51146V8.43643C1.94345 8.91157 2.81076 9.1643 3.73228 9.19464C2.94753 8.64251 2.32534 7.92252 1.86571 7.03466C1.40605 6.14681 1.17622 5.18599 1.17622 4.15222C1.17622 3.06193 1.4351 2.04666 1.95286 1.10642C3.39346 2.97214 5.13905 4.46327 7.18963 5.57983C9.24025 6.69641 11.4402 7.31652 13.7894 7.44017C13.6892 6.99948 13.639 6.5396 13.6388 6.06053C13.6388 4.38779 14.1997 2.95952 15.3215 1.77571C16.4433 0.591904 17.7967 0 19.3817 0C21.0412 0 22.4389 0.637688 23.575 1.91306C24.8731 1.64172 26.0884 1.15093 27.2212 0.440688C26.7848 1.89013 25.9439 3.00827 24.6984 3.79512C25.8431 3.65157 26.9429 3.33415 27.9979 2.84287H27.9979Z" fill="currentColor"/>
</g>
<defs>
<clipPath id="clip0">
<rect width="28" height="24" fill="currentColor"/>
</clipPath>
</defs>
</svg>
