<svg width="60" height="60" viewBox="0 0 60 60" fill="none" xmlns="http://www.w3.org/2000/svg">
<circle cx="29.9995" cy="10.9091" r="5.45455" fill="#178CF9"/>
<path fill-rule="evenodd" clip-rule="evenodd" d="M30.1615 37.8236C34.393 37.8236 37.8234 34.3933 37.8234 30.1618C37.8234 25.9303 34.393 22.5 30.1615 22.5C25.93 22.5 22.4997 25.9303 22.4997 30.1618C22.4997 34.3933 25.93 37.8236 30.1615 37.8236ZM30.1615 40.5509C35.8993 40.5509 40.5506 35.8995 40.5506 30.1618C40.5506 24.4241 35.8993 19.7727 30.1615 19.7727C24.4238 19.7727 19.7725 24.4241 19.7725 30.1618C19.7725 35.8995 24.4238 40.5509 30.1615 40.5509Z" fill="#178CF9"/>
<path fill-rule="evenodd" clip-rule="evenodd" d="M28.6357 20.4547L28.6357 13.6365L31.363 13.6365L31.363 20.4547L28.6357 20.4547Z" fill="#178CF9"/>
<path fill-rule="evenodd" clip-rule="evenodd" d="M29.9996 38.1819C30.7528 38.1819 31.3633 38.7924 31.3633 39.5455V49.8898L33.8081 47.4449C34.3407 46.9124 35.2041 46.9124 35.7366 47.4449C36.2691 47.9775 36.2691 48.8409 35.7366 49.3734L30.9639 54.1461C30.4313 54.6787 29.5679 54.6787 29.0354 54.1461L24.2627 49.3734C23.7301 48.8409 23.7301 47.9775 24.2627 47.4449C24.7952 46.9124 25.6586 46.9124 26.1912 47.4449L28.636 49.8898V39.5455C28.636 38.7924 29.2465 38.1819 29.9996 38.1819Z" fill="#178CF9"/>
<path fill-rule="evenodd" clip-rule="evenodd" d="M37.683 33.4073C38.0605 32.7557 38.8948 32.5335 39.5465 32.911L50.8877 39.4814L49.9946 36.1484C49.7997 35.4209 50.2314 34.6732 50.9589 34.4783C51.6863 34.2833 52.4341 34.715 52.629 35.4425L54.3759 41.9622C54.4695 42.3115 54.4205 42.6837 54.2397 42.9969C54.0589 43.3101 53.761 43.5387 53.4117 43.6323L46.892 45.3792C46.1646 45.5741 45.4168 45.1424 45.2219 44.415C45.027 43.6875 45.4587 42.9398 46.1862 42.7449L49.5326 41.8482L38.1793 35.2708C37.5277 34.8933 37.3054 34.059 37.683 33.4073Z" fill="#178CF9"/>
<path fill-rule="evenodd" clip-rule="evenodd" d="M22.1935 33.4073C22.5711 34.059 22.3488 34.8933 21.6972 35.2708L10.3439 41.8482L13.6903 42.7449C14.4178 42.9398 14.8495 43.6875 14.6546 44.415C14.4597 45.1424 13.7119 45.5741 12.9845 45.3792L6.46481 43.6323C6.11547 43.5387 5.81763 43.3101 5.6368 42.9969C5.45597 42.6837 5.40697 42.3115 5.50057 41.9622L7.24751 35.4425C7.44243 34.715 8.19016 34.2833 8.91762 34.4783C9.64507 34.6732 10.0768 35.4209 9.88185 36.1484L8.98877 39.4814L20.33 32.911C20.9817 32.5335 21.816 32.7557 22.1935 33.4073Z" fill="#178CF9"/>
</svg>
