<svg width="60" height="60" viewBox="0 0 60 60" fill="none" xmlns="http://www.w3.org/2000/svg">
<path d="M40.3998 16.0288H40.1362C39.3876 16.0288 38.7477 15.4862 38.6083 14.7385C37.6234 9.45254 33.0579 5.45459 27.5708 5.45459C22.0838 5.45459 17.5182 9.45254 16.5333 14.7385C16.394 15.4862 15.754 16.0288 15.0053 16.0288H14.7418C9.61241 16.0288 5.4541 20.2553 5.4541 25.4691C5.4541 30.6827 9.61222 34.9092 14.7416 34.9092H40.3994C45.5288 34.9092 49.6869 30.6827 49.6869 25.4691C49.6873 20.2553 45.5291 16.0288 40.3998 16.0288Z" fill="#DBEAF8"/>
<path d="M30.8927 51.9883H49.9941C50.3501 51.9883 50.6388 52.2765 50.6388 52.6322C50.6388 52.9877 50.3502 53.276 49.9941 53.276H30.8927C30.5367 53.276 30.248 52.9878 30.248 52.6322C30.248 52.2765 30.5366 51.9883 30.8927 51.9883Z" fill="#D9E1EE"/>
<path d="M39.7998 44.4592H41.089V53.0777H39.7998V44.4592Z" fill="#D9E1EE"/>
<path d="M39.2409 50.7183H41.6473C42.0409 50.7183 42.3599 51.0369 42.3599 51.4301V53.8337C42.3599 54.2268 42.0409 54.5455 41.6473 54.5455H39.2409C38.8474 54.5455 38.5283 54.2268 38.5283 53.8337V51.4301C38.5283 51.0369 38.8474 50.7183 39.2409 50.7183Z" fill="#575B6D"/>
<path d="M29.8018 38.2358H51.0872V40.0075H29.8018V38.2358Z" fill="#414451"/>
<path d="M29.8018 29.9753H51.0872V31.747H29.8018V29.9753Z" fill="#414451"/>
<path d="M27.0513 31.459H53.8355C54.2274 31.459 54.545 31.7763 54.545 32.1677V38.0146C54.545 38.406 54.2274 38.7233 53.8355 38.7233H27.0513C26.6594 38.7233 26.3418 38.406 26.3418 38.0146V32.1678C26.3417 31.7763 26.6594 31.459 27.0513 31.459Z" fill="#575B6D"/>
<path d="M51.9443 32.9429H52.7131V37.4459H51.9443V32.9429Z" fill="#414451"/>
<path d="M49.793 32.9429H50.5617V37.4459H49.793V32.9429Z" fill="#414451"/>
<path d="M47.6426 32.9429H48.4114V37.4459H47.6426V32.9429Z" fill="#414451"/>
<path d="M45.4922 32.9429H46.261V37.4459H45.4922V32.9429Z" fill="#414451"/>
<path d="M43.3408 32.9429H44.1096V37.4459H43.3408V32.9429Z" fill="#414451"/>
<path d="M41.1914 32.9429H41.9602V37.4459H41.1914V32.9429Z" fill="#414451"/>
<path d="M39.04 32.9431H39.8088V37.4462H39.04V32.9431Z" fill="#414451"/>
<path d="M29.2766 36.2504C29.8602 36.2504 30.3334 35.7778 30.3334 35.1948C30.3334 34.6118 29.8602 34.1392 29.2766 34.1392C28.6929 34.1392 28.2197 34.6118 28.2197 35.1948C28.2197 35.7778 28.6929 36.2504 29.2766 36.2504Z" fill="#2CBFAE"/>
<path d="M33.0461 36.2504C33.6298 36.2504 34.1029 35.7778 34.1029 35.1948C34.1029 34.6118 33.6298 34.1392 33.0461 34.1392C32.4624 34.1392 31.9893 34.6118 31.9893 35.1948C31.9893 35.7778 32.4624 36.2504 33.0461 36.2504Z" fill="#EF5261"/>
<path d="M27.0513 23.25H53.8355C54.2274 23.25 54.545 23.5673 54.545 23.9587V29.8056C54.545 30.1971 54.2274 30.5143 53.8355 30.5143H27.0513C26.6594 30.5143 26.3418 30.1971 26.3418 29.8056V23.9587C26.3417 23.5673 26.6594 23.25 27.0513 23.25V23.25Z" fill="#575B6D"/>
<path d="M51.9443 24.7336H52.7131V29.2367H51.9443V24.7336Z" fill="#414451"/>
<path d="M49.793 24.7336H50.5617V29.2367H49.793V24.7336Z" fill="#414451"/>
<path d="M47.6426 24.7336H48.4114V29.2367H47.6426V24.7336Z" fill="#414451"/>
<path d="M45.4922 24.7336H46.261V29.2367H45.4922V24.7336Z" fill="#414451"/>
<path d="M43.3408 24.7336H44.1096V29.2367H43.3408V24.7336Z" fill="#414451"/>
<path d="M41.1904 24.7336H41.9592V29.2367H41.1904V24.7336Z" fill="#414451"/>
<path d="M39.04 24.7336H39.8088V29.2367H39.04V24.7336Z" fill="#414451"/>
<path d="M29.2766 28.0412C29.8602 28.0412 30.3334 27.5685 30.3334 26.9855C30.3334 26.4025 29.8602 25.9299 29.2766 25.9299C28.6929 25.9299 28.2197 26.4025 28.2197 26.9855C28.2197 27.5685 28.6929 28.0412 29.2766 28.0412Z" fill="#2CBFAE"/>
<path d="M33.0461 28.0412C33.6298 28.0412 34.1029 27.5685 34.1029 26.9855C34.1029 26.4025 33.6298 25.9299 33.0461 25.9299C32.4624 25.9299 31.9893 26.4025 31.9893 26.9855C31.9893 27.5685 32.4624 28.0412 33.0461 28.0412Z" fill="#EF5261"/>
<path d="M27.0513 39.6685H53.8355C54.2274 39.6685 54.545 39.9857 54.545 40.3772V46.2241C54.545 46.6155 54.2274 46.9328 53.8355 46.9328H27.0513C26.6594 46.9328 26.3418 46.6155 26.3418 46.2241V40.3772C26.3417 39.9857 26.6594 39.6685 27.0513 39.6685Z" fill="#575B6D"/>
<path d="M51.9443 41.1521H52.7131V45.6552H51.9443V41.1521Z" fill="#414451"/>
<path d="M49.793 41.1521H50.5617V45.6552H49.793V41.1521Z" fill="#414451"/>
<path d="M47.6426 41.1521H48.4114V45.6552H47.6426V41.1521Z" fill="#414451"/>
<path d="M45.4922 41.1521H46.261V45.6552H45.4922V41.1521Z" fill="#414451"/>
<path d="M43.3408 41.1521H44.1096V45.6552H43.3408V41.1521Z" fill="#414451"/>
<path d="M41.1904 41.1521H41.9592V45.6552H41.1904V41.1521Z" fill="#414451"/>
<path d="M39.04 41.1521H39.8088V45.6552H39.04V41.1521Z" fill="#414451"/>
<path d="M29.2766 44.4591C29.8602 44.4591 30.3334 43.9865 30.3334 43.4035C30.3334 42.8205 29.8602 42.3479 29.2766 42.3479C28.6929 42.3479 28.2197 42.8205 28.2197 43.4035C28.2197 43.9865 28.6929 44.4591 29.2766 44.4591Z" fill="#2CBFAE"/>
<path d="M33.0461 44.4591C33.6298 44.4591 34.1029 43.9865 34.1029 43.4035C34.1029 42.8205 33.6298 42.3479 33.0461 42.3479C32.4624 42.3479 31.9893 42.8205 31.9893 43.4035C31.9893 43.9865 32.4624 44.4591 33.0461 44.4591Z" fill="#EF5261"/>
</svg>
