<svg width="60" height="60" viewBox="0 0 60 60" fill="none" xmlns="http://www.w3.org/2000/svg">
<path d="M40.3998 16.0288H40.1362C39.3876 16.0288 38.7477 15.4862 38.6083 14.7385C37.6234 9.45254 33.0579 5.45459 27.5708 5.45459C22.0838 5.45459 17.5182 9.45254 16.5333 14.7385C16.394 15.4862 15.754 16.0288 15.0053 16.0288H14.7418C9.61241 16.0288 5.4541 20.2553 5.4541 25.4691C5.4541 30.6827 9.61222 34.9092 14.7416 34.9092H40.3994C45.5288 34.9092 49.6869 30.6827 49.6869 25.4691C49.6873 20.2553 45.5291 16.0288 40.3998 16.0288Z" fill="#DBEAF8"/>
<g clip-path="url(#clip0)">
<path d="M25.8164 26.4861V51.2095C25.8164 53.0344 32.2681 54.5137 40.2267 54.5137C48.1853 54.5137 54.637 53.0344 54.637 51.2095V26.4861C54.637 26.4861 25.8164 26.4861 25.8164 26.4861Z" fill="#DFEAEF"/>
<path d="M51.3452 26.4861V34.7272C51.3452 36.4244 45.7644 37.8225 38.5812 38.0098C39.1216 38.0239 39.6707 38.0314 40.2275 38.0314C44.7031 38.0314 48.7021 37.5635 51.3451 36.8295V42.9682C51.3451 44.6654 45.7643 46.0635 38.5811 46.2509C39.1215 46.265 39.6706 46.2725 40.2274 46.2725C44.703 46.2725 48.702 45.8046 51.3451 45.0706V51.2411C51.3451 52.9382 45.7642 54.3364 38.5811 54.5237C39.1216 54.538 39.6707 54.5455 40.2275 54.5455C48.1861 54.5455 54.6378 53.0661 54.6378 51.2412V43.0001H54.6361C54.6365 42.9895 54.6378 42.9789 54.6378 42.9683V34.7272V26.4861H51.3452Z" fill="#BFCFD6"/>
<path d="M40.2267 37.0697C32.2681 37.0697 25.8164 35.5903 25.8164 33.7654V34.7274C25.8164 36.5523 32.2681 38.0316 40.2267 38.0316C48.1853 38.0316 54.637 36.5523 54.637 34.7274V33.7654C54.637 35.5903 48.1853 37.0697 40.2267 37.0697Z" fill="#86AEBC"/>
<path d="M40.2267 45.3104C32.2681 45.3104 25.8164 43.831 25.8164 42.0061V42.9681C25.8164 44.793 32.2681 46.2724 40.2267 46.2724C48.1853 46.2724 54.637 44.793 54.637 42.9681V42.0061C54.637 43.831 48.1853 45.3104 40.2267 45.3104Z" fill="#86AEBC"/>
<path d="M40.2267 53.5533C32.2681 53.5533 25.8164 52.0739 25.8164 50.249V51.211C25.8164 53.0359 32.2681 54.5153 40.2267 54.5153C48.1853 54.5153 54.637 53.0359 54.637 51.211V50.249C54.637 52.0739 48.1853 53.5533 40.2267 53.5533Z" fill="#86AEBC"/>
<path d="M40.2265 29.7904C48.185 29.7904 54.6367 28.3111 54.6367 26.4862C54.6367 24.6613 48.185 23.1819 40.2265 23.1819C32.268 23.1819 25.8164 24.6613 25.8164 26.4862C25.8164 28.3111 32.268 29.7904 40.2265 29.7904Z" fill="#9EBECC"/>
<path d="M40.2273 23.1819C39.6705 23.1819 39.1214 23.1894 38.5811 23.2034C45.7642 23.3908 51.3451 24.7889 51.3451 26.4861C51.3451 28.1833 45.7642 29.5814 38.5811 29.7687C39.1214 29.7828 39.6705 29.7903 40.2273 29.7903C48.1859 29.7903 54.6376 28.3109 54.6376 26.486C54.6376 24.6612 48.1859 23.1819 40.2273 23.1819Z" fill="#86AEBC"/>
<path d="M48.9796 34.4947C49.737 34.4947 50.3509 33.8808 50.3509 33.1234C50.3509 32.3661 49.737 31.7522 48.9796 31.7522C48.2223 31.7522 47.6084 32.3661 47.6084 33.1234C47.6084 33.8808 48.2223 34.4947 48.9796 34.4947Z" fill="#FC9F3D"/>
<path d="M40.2275 34.412C36.2797 34.412 32.5805 34.0541 29.8114 33.4042C29.5571 33.3445 29.3992 33.0899 29.4589 32.8355C29.5186 32.5811 29.7737 32.4235 30.0276 32.483C32.7279 33.1168 36.3503 33.4658 40.2276 33.4658C41.8516 33.4658 43.4445 33.4038 44.962 33.2817C45.2225 33.2608 45.4505 33.455 45.4715 33.7153C45.4924 33.9758 45.2983 34.2038 45.0379 34.2248C43.4952 34.349 41.8767 34.412 40.2275 34.412Z" fill="#9EBECC"/>
<path d="M48.9796 42.627C49.737 42.627 50.3509 42.0131 50.3509 41.2558C50.3509 40.4984 49.737 39.8845 48.9796 39.8845C48.2223 39.8845 47.6084 40.4984 47.6084 41.2558C47.6084 42.0131 48.2223 42.627 48.9796 42.627Z" fill="#FC9F3D"/>
<path d="M40.2275 42.5446C36.2799 42.5446 32.5807 42.1866 29.8114 41.5368C29.5571 41.4771 29.3992 41.2225 29.4589 40.9681C29.5186 40.7136 29.7733 40.5561 30.0276 40.6156C32.7281 41.2493 36.3506 41.5983 40.2276 41.5983C41.8516 41.5983 43.4445 41.5364 44.962 41.4143C45.2238 41.3925 45.4505 41.5875 45.4715 41.8479C45.4924 42.1084 45.2983 42.3364 45.0379 42.3574C43.4952 42.4817 41.8767 42.5446 40.2275 42.5446Z" fill="#9EBECC"/>
<path d="M48.9796 50.7723C49.737 50.7723 50.3509 50.1583 50.3509 49.401C50.3509 48.6437 49.737 48.0298 48.9796 48.0298C48.2223 48.0298 47.6084 48.6437 47.6084 49.401C47.6084 50.1583 48.2223 50.7723 48.9796 50.7723Z" fill="#FC9F3D"/>
<path d="M40.2275 50.6898C36.2797 50.6898 32.5805 50.3319 29.8114 49.682C29.5571 49.6223 29.3992 49.3677 29.4589 49.1133C29.5186 48.8589 29.7737 48.7014 30.0276 48.7608C32.7279 49.3946 36.3503 49.7436 40.2276 49.7436C41.8516 49.7436 43.4445 49.6816 44.962 49.5595C45.2225 49.5381 45.4505 49.7327 45.4715 49.9931C45.4924 50.2536 45.2983 50.4816 45.0379 50.5026C43.4952 50.6268 41.8767 50.6898 40.2275 50.6898Z" fill="#9EBECC"/>
</g>
<defs>
<clipPath id="clip0">
<rect width="28.6364" height="31.3636" fill="white" transform="translate(25.9092 23.1819)"/>
</clipPath>
</defs>
</svg>
