<svg width="162" height="60" viewBox="0 0 162 60" fill="none" xmlns="http://www.w3.org/2000/svg">
<path d="M10.2587 0.131676C8.27062 0.603218 7.46772 0.84536 6.69031 1.22769C4.72767 2.20901 3.05815 3.80206 2.10232 5.61177C1.52882 6.70779 1.32491 7.29403 1.01905 8.7214C0.776905 9.81742 0.76416 10.4801 0.76416 30.0046C0.76416 49.6947 0.76416 50.1917 1.01905 51.3514C1.33766 52.868 1.66901 53.7347 2.30623 54.8307C3.60616 57.0355 6.12956 58.9344 8.60197 59.5716C10.3225 60.0176 11.444 60.0304 31.8605 59.9794C53.9338 59.9412 52.4555 59.9922 54.5328 59.1893C55.0553 58.9981 55.9092 58.5393 56.4445 58.1825C57.8719 57.2266 62.0648 53.7601 62.8294 52.919C63.5941 52.0651 64.6391 50.0133 64.894 48.8663C65.0215 48.2546 65.0597 45.3488 65.0597 34.72V21.3384L66.143 20.9688C67.6723 20.459 69.6859 19.86 72.1966 19.1718C74.5798 18.5091 75.0513 18.3052 74.7964 18.0121C74.669 17.8591 74.5925 17.8719 74.2484 18.0758C74.0318 18.216 73.573 18.3944 73.2161 18.4709C69.4055 19.3885 60.6119 22.2687 54.3544 24.6519C45.051 28.1821 36.1171 32.4005 27.5274 37.3071C25.3609 38.5433 23.1561 39.856 22.0473 40.5824C21.8052 40.7354 20.8621 41.3471 19.9445 41.9333C16.2996 44.2783 13.5978 46.2282 7.83731 50.625C5.60704 52.32 5.05903 52.6896 5.47959 52.1798C5.5688 52.0779 5.60704 51.9122 5.5688 51.823C5.50508 51.6446 6.0276 50.2937 6.12956 50.3829C6.16779 50.4211 6.19328 50.3319 6.20602 50.1917C6.21877 50.0515 6.34621 49.6947 6.47365 49.4016C6.88148 48.5222 7.09813 47.9997 7.27655 47.5026C7.36576 47.2477 7.48046 47.0566 7.53144 47.0821C7.58242 47.1203 7.60791 47.0693 7.60791 46.9801C7.58242 46.738 8.04122 45.7439 8.18141 45.7439C8.24513 45.7439 8.25787 45.6802 8.21964 45.6165C8.16866 45.54 8.25787 45.2214 8.39806 44.9155C8.55099 44.5969 8.66569 44.2783 8.66569 44.2146C8.66569 44.1381 8.71667 44.1126 8.79314 44.1509C8.8696 44.2018 8.88235 44.1381 8.83137 44.0107C8.76765 43.845 8.79314 43.8195 8.92058 43.896C9.02254 43.9597 9.06077 43.9469 9.00979 43.8705C8.89509 43.6921 9.60878 42.0098 9.73622 42.1372C9.7872 42.1882 9.7872 42.1372 9.74897 42.0225C9.71073 41.9206 9.74897 41.7422 9.85092 41.653C9.94013 41.551 10.0039 41.3981 9.96562 41.2961C9.92739 41.1814 9.96562 41.1559 10.0676 41.2196C10.195 41.2961 10.2205 41.2706 10.1568 41.1177C10.1186 41.003 10.1568 40.8373 10.246 40.7481C10.3352 40.6589 10.3862 40.506 10.348 40.404C10.3097 40.2893 10.348 40.2638 10.4372 40.3275C10.5391 40.3785 10.5774 40.353 10.5646 40.2511C10.5136 39.9962 10.8322 39.1168 10.9597 39.1168C11.0234 39.1168 11.0362 39.0276 10.9979 38.9002C10.9469 38.76 10.9597 38.7217 11.0616 38.7855C11.1636 38.8364 11.1891 38.811 11.1381 38.6963C11.0999 38.5943 11.1509 38.4286 11.2528 38.3394C11.342 38.2375 11.4057 38.0845 11.3675 37.9826C11.3293 37.8806 11.3675 37.8424 11.4567 37.8934C11.5332 37.9443 11.5714 37.9188 11.5204 37.8041C11.4822 37.7022 11.5332 37.5365 11.6351 37.4473C11.7244 37.3453 11.7881 37.2052 11.7753 37.1414C11.6606 36.7973 12.3616 36.3513 14.6556 35.2808C31.0576 27.6086 48.7723 21.5933 62.2559 19.1208C63.4539 18.8914 64.5882 18.6875 64.7793 18.6493L65.1489 18.5728L65.0852 15.1063C65.0215 11.3722 64.9577 10.9262 64.2568 9.39685C63.4666 7.66362 62.7785 6.89896 59.8345 4.49026C55.7818 1.17672 55.17 0.832615 52.3153 0.246372C51.1046 -0.0085144 50.6203 -0.0085144 30.9174 0.0042305C18.9377 0.0169754 10.5646 0.0679512 10.2587 0.131676ZM51.9967 0.93457C54.2142 1.32965 55.4377 1.8904 56.916 3.19033C57.2729 3.4962 57.9356 4.0697 58.4071 4.45203C58.9806 4.93632 59.3247 5.34414 59.5031 5.75196C59.86 6.55486 59.8472 6.63132 59.3757 6.46564C59.159 6.38918 58.5601 6.36369 58.012 6.40192C56.8396 6.47839 56.4827 6.32546 55.1828 5.22944C54.6985 4.83436 53.9466 4.32458 53.4878 4.10793C51.7418 3.25406 53.3094 3.30503 30.0381 3.30503C9.16273 3.30503 8.93333 3.30503 8.10494 3.55992C7.02166 3.90402 6.39719 3.955 6.30798 3.71285C6.18053 3.36876 6.24426 2.59135 6.44817 2.31097C6.69031 1.96687 7.30204 1.64826 8.47453 1.25318C9.35389 0.96006 9.49408 0.947315 15.4202 0.883595C18.7465 0.84536 28.1264 0.807129 36.2573 0.794384C48.1479 0.768894 51.232 0.794384 51.9967 0.93457ZM36.6524 15.3995C38.5768 19.9237 40.1189 23.6324 40.1061 23.6578C40.0807 23.6706 39.1248 24.0147 37.9651 24.397C36.8181 24.7921 35.1613 25.3783 34.3074 25.697C33.135 26.1303 32.7016 26.245 32.6379 26.1303C32.3958 25.7479 28.8656 16.1769 28.7636 15.6671C28.7254 15.4122 28.6999 15.4377 28.6872 15.7945C28.6744 16.0367 27.6676 18.9042 26.4314 22.1668C25.1952 25.4293 24.0354 28.5135 23.857 29.0105L23.5129 29.9408L22.4934 30.3487C21.4483 30.7565 18.5171 32.0309 17.3956 32.5534C17.0515 32.7191 15.9045 33.2544 14.8467 33.7514C13.8017 34.2485 12.9351 34.6308 12.9096 34.6053C12.8713 34.5671 13.1645 33.7259 13.2537 33.6367C13.2919 33.5985 13.3429 33.4583 13.3556 33.3181C13.3811 33.1779 13.4576 33.0505 13.5086 33.025C13.5723 32.9995 13.585 32.8975 13.5468 32.7828C13.4831 32.6299 13.5086 32.6044 13.636 32.6809C13.738 32.7446 13.7762 32.7319 13.7125 32.6427C13.6233 32.4897 13.8782 31.8525 14.0311 31.8525C14.0948 31.8525 14.1076 31.7633 14.0693 31.6613C14.0183 31.5594 14.0821 31.4447 14.184 31.3937C14.2987 31.3555 14.3497 31.2408 14.3115 31.1388C14.2732 31.0369 14.3115 30.9604 14.3879 30.9604C14.4644 30.9604 14.5154 30.9222 14.5026 30.8584C14.4644 30.68 14.7065 29.9918 15.1271 29.0997C15.3565 28.5899 15.5477 28.1184 15.5477 28.0419C15.5477 27.9655 15.6114 27.9017 15.6879 27.9017C15.7516 27.9017 15.7771 27.838 15.7388 27.7743C15.7006 27.6978 15.7134 27.6468 15.7898 27.6468C15.8663 27.6468 15.8918 27.5704 15.8535 27.4812C15.8153 27.3792 15.879 27.239 15.981 27.1498C16.0829 27.0606 16.1339 26.8949 16.0957 26.793C16.0447 26.6528 16.0702 26.6146 16.1594 26.6783C16.2614 26.742 16.2868 26.7038 16.2359 26.5763C16.1976 26.4616 16.2231 26.3724 16.2996 26.3724C16.3761 26.3724 16.4398 26.2577 16.4398 26.1175C16.4398 25.9773 16.5035 25.8626 16.58 25.8626C16.6437 25.8626 16.6819 25.8117 16.6437 25.7479C16.5417 25.5823 16.6947 25.2127 16.8349 25.3019C16.8986 25.3401 16.9113 25.2764 16.8731 25.1744C16.8349 25.0597 16.9113 24.8303 17.0643 24.6392C17.2044 24.4607 17.2937 24.2568 17.2554 24.1931C17.2172 24.1294 17.2554 24.0784 17.3319 24.0784C17.4084 24.0784 17.4466 24.0274 17.3956 23.9637C17.3574 23.9 17.3829 23.8108 17.4466 23.7725C17.5103 23.7343 17.5995 23.4922 17.6378 23.25C17.7015 22.9569 17.7779 22.8295 17.8672 22.8804C17.9564 22.9442 17.9819 22.8932 17.9309 22.7657C17.8926 22.6383 17.9054 22.5491 17.9691 22.5491C18.0328 22.5491 18.0583 22.4726 18.0201 22.3707C17.9819 22.2687 18.0073 22.154 18.0838 22.103C18.1603 22.0648 18.224 21.9374 18.224 21.8227C18.224 21.708 18.3132 21.5168 18.4152 21.4021C18.5299 21.2746 18.6446 21.058 18.6701 20.9051C18.772 20.357 18.8867 20.1276 19.0014 20.1914C19.0651 20.2296 19.0779 20.1786 19.0396 20.0767C19.0014 19.9747 19.0906 19.7071 19.2436 19.4904C19.3965 19.2865 19.4857 19.1081 19.4475 19.1081C19.4092 19.1081 19.4475 18.9297 19.5112 18.7258C19.5877 18.5091 19.7024 18.3434 19.7661 18.3434C19.8171 18.3434 19.8425 18.267 19.8043 18.1778C19.7661 18.0758 19.8298 17.9229 19.9317 17.8337C20.0464 17.7444 20.0974 17.6297 20.0592 17.566C20.021 17.5023 20.0592 17.4513 20.1357 17.4513C20.2121 17.4513 20.2504 17.4003 20.2121 17.3366C20.1102 17.1709 20.4543 16.4063 20.5817 16.521C20.6327 16.5847 20.6454 16.5592 20.5945 16.47C20.5435 16.3808 20.569 16.2151 20.6327 16.0877C20.6964 15.9602 20.8621 15.6161 20.9768 15.3103C21.1042 15.0171 21.2444 14.775 21.3081 14.775C21.3591 14.775 21.3719 14.6985 21.3336 14.5966C21.2954 14.5074 21.3591 14.3417 21.4611 14.227C21.563 14.125 21.6268 14.0103 21.6013 13.9848C21.4993 13.8829 22.264 12.2261 22.3659 12.3281C22.4169 12.379 22.4297 12.3536 22.3914 12.2643C22.2895 12.0987 22.9139 10.5693 23.0924 10.5693C23.1561 10.5693 23.1816 10.5184 23.1433 10.4546C23.0286 10.2762 23.2071 9.91938 23.36 10.0213C23.4365 10.0596 23.4492 10.0341 23.3982 9.94487C23.2963 9.77919 23.9462 8.1479 24.1119 8.1479C24.1629 8.1479 24.1756 8.07144 24.1374 7.96948C24.0992 7.88027 24.1629 7.76558 24.2776 7.7146C24.4178 7.66362 24.456 7.56166 24.405 7.38324C24.3286 7.12835 24.3668 7.12835 28.7381 7.15384L33.1604 7.19208L36.6524 15.3995ZM46.8989 39.4354C48.7978 43.845 50.3654 47.5154 50.3781 47.5918C50.3909 47.6811 48.7086 47.7193 45.5225 47.7193H40.6414L39.1631 43.7685C38.3602 41.5892 37.2387 38.5943 36.6779 37.0905C36.1299 35.5994 35.6838 34.3632 35.7093 34.3377C35.7985 34.2612 38.3474 32.9995 40.6542 31.9035L43.1393 30.7183L43.2923 31.0623C43.3815 31.2535 45.0127 35.0131 46.8989 39.4354ZM59.758 42.3921C60.0384 43.4627 60.1531 44.5332 60.2805 47.0056C60.3443 48.433 60.4717 49.8094 60.5482 50.0643C60.8413 51.0456 60.8668 51.173 60.7776 51.7465C60.6501 52.5877 60.1913 53.7984 59.8217 54.2189C59.6561 54.4101 59.5159 54.614 59.5159 54.6777C59.5159 54.7287 59.2482 54.9454 58.9169 55.1748C58.4454 55.4679 58.1905 55.5571 57.8209 55.5316C57.566 55.5061 57.3493 55.4424 57.3621 55.3787C57.3621 55.315 57.2984 55.2257 57.2091 55.162C56.8778 54.9581 56.916 53.5435 57.2729 52.4347C57.464 51.874 57.7062 51.275 57.8336 51.0966C57.9483 50.9181 58.1267 50.6378 58.2287 50.4593C58.3944 50.1535 58.6875 47.7193 58.8149 45.6165C58.8404 45.0939 58.9296 44.342 59.0061 43.9597C59.0826 43.5774 59.1463 43.1186 59.1463 42.9401C59.1463 42.5578 59.3757 41.9206 59.5286 41.9206C59.5796 41.9206 59.6943 42.1372 59.758 42.3921Z" fill="url(#paint0_linear)"/>
<path d="M105.396 20.8927V39.3721H108.263H111.131V20.8927V2.41328H108.263H105.396V20.8927Z" fill="#434963"/>
<path d="M118.394 20.8927V39.3721L121.198 39.3466L124.002 39.3083L124.04 20.8544L124.065 2.41328H121.236H118.394V20.8927Z" fill="#434963"/>
<path d="M132.541 4.05692C131.241 4.452 130.375 5.53528 130.375 6.746C130.375 8.73412 132.618 10.085 134.72 9.3586C136.772 8.64491 137.269 6.14701 135.651 4.71963C134.873 4.03144 133.548 3.75106 132.541 4.05692Z" fill="#434963"/>
<path d="M85.4764 7.53653C85.3617 7.8424 82.9657 15.0557 80.1492 23.569C77.3327 32.0823 75.0004 39.1299 74.9622 39.2064C74.924 39.3338 75.4975 39.3721 77.5876 39.3721H80.2511L80.5443 38.4417C80.6972 37.9447 81.0158 36.9251 81.2452 36.186C81.7168 34.7076 82.6981 31.5343 82.7873 31.1774C82.851 30.9735 83.1824 30.9608 88.1017 30.9862L93.3397 31.0245L94.27 34.1469C94.7798 35.8674 95.3533 37.7408 95.5317 38.3143L95.8503 39.3721H98.8962C100.578 39.3721 101.955 39.3593 101.955 39.3338C101.955 39.2956 100.183 33.892 96.0924 21.5299C94.1426 15.6037 92.2564 9.91974 91.925 8.87469L91.326 7.00127H88.4968H85.6803L85.4764 7.53653ZM88.8791 15.1577C89.0703 15.8969 90.7271 21.5554 92.0142 25.8885L92.4858 27.5198H88.1782C85.795 27.5198 83.8578 27.4815 83.8578 27.4433C83.8578 27.3668 84.6862 24.6268 85.9606 20.4466C87.3115 16.0243 87.7958 14.3803 88.0125 13.3097L88.2419 12.1628L88.4585 13.246C88.5732 13.845 88.7644 14.6989 88.8791 15.1577Z" fill="#434963"/>
<path d="M130.629 26.6914V39.3721H133.497H136.364V26.6914V14.0107H133.497H130.629V26.6914Z" fill="#434963"/>
<path d="M140.443 14.1127C140.443 14.1636 140.519 14.3166 140.621 14.4568C140.711 14.5969 141.564 16.0625 142.507 17.7066C145.91 23.6072 147.108 25.6718 147.274 25.9267C147.44 26.1689 147.121 26.7424 143.565 32.6685C141.424 36.2369 139.678 39.2064 139.678 39.2574C139.678 39.3211 140.965 39.3721 142.533 39.3721H145.388L145.732 38.6966C146.535 37.1673 148.115 34.1214 148.714 32.9999C149.071 32.3372 149.542 31.4323 149.772 30.9862C150.001 30.5529 150.231 30.2088 150.294 30.2343C150.358 30.2471 150.944 31.3303 151.62 32.6175C152.295 33.9175 153.34 35.9438 153.965 37.1418L155.086 39.3083L158.209 39.3466C159.942 39.3593 161.344 39.3466 161.344 39.3211C161.344 39.2829 161.012 38.6966 160.605 38.0084C160.184 37.3202 159.075 35.434 158.132 33.8283C157.176 32.2097 155.736 29.7628 154.921 28.3864L153.429 25.863L156.87 20.2045C158.757 17.0948 160.362 14.4313 160.439 14.2783L160.592 14.0107H157.915H155.239L154.704 14.992C154.411 15.54 154.016 16.2665 153.825 16.6233C153.175 17.8213 151.48 20.9564 151.135 21.5936C150.944 21.9377 150.74 22.2181 150.689 22.2054C150.613 22.1926 148.51 18.2036 146.726 14.6734L146.382 14.0107H143.412C141.781 14.0107 140.443 14.0489 140.443 14.1127Z" fill="#434963"/>
<path d="M85.1317 44.342C84.8131 44.4058 84.2906 44.4822 83.9592 44.5332C83.2201 44.6352 83.1818 44.8008 83.8573 44.9793C84.1377 45.0557 84.418 45.2214 84.4945 45.3616C84.571 45.5145 84.6219 47.5919 84.6219 51.0201V56.4492H85.3229H86.0238V50.3319C86.0238 45.5145 85.9856 44.2146 85.8709 44.2273C85.7817 44.2401 85.4503 44.2911 85.1317 44.342Z" fill="#434963"/>
<path d="M89.3384 44.3547C88.9561 44.4184 88.3953 44.4949 88.1022 44.5331C87.7963 44.5841 87.5542 44.6606 87.5542 44.7243C87.5542 44.7753 87.7963 44.9027 88.1022 45.0047C88.9433 45.2596 88.9433 45.3106 88.9433 51.224V56.3854L89.5933 56.4237L90.2305 56.4619V50.3446C90.2305 46.9673 90.1923 44.2273 90.1413 44.2273C90.0776 44.24 89.7207 44.291 89.3384 44.3547Z" fill="#434963"/>
<path d="M160.261 44.2778C160.197 44.3033 159.636 44.3925 159.024 44.469C157.839 44.6347 157.623 44.7748 158.336 44.9023C159.152 45.0552 159.241 45.2846 159.292 47.4767C159.33 49.4393 159.267 49.7579 158.922 49.1207C158.693 48.7001 157.597 48.1649 156.973 48.1649C154.959 48.1649 153.825 49.7069 153.825 52.4215C153.825 55.0851 154.972 56.5762 157.036 56.5762C157.801 56.5762 158.349 56.3213 158.897 55.7096L159.318 55.238L159.279 55.8115L159.241 56.385L159.917 56.4232L160.579 56.4615V50.3442C160.579 46.9669 160.541 44.2141 160.49 44.2268C160.426 44.2268 160.337 44.2523 160.261 44.2778ZM158.107 49.0442C159.267 49.7579 159.662 53.0587 158.795 54.8557C158.451 55.5566 157.865 55.939 157.138 55.939C156.667 55.939 156.527 55.8625 156.131 55.4547C155.558 54.8557 155.354 54.2567 155.265 52.8803C155.112 50.4843 155.928 48.8021 157.266 48.8021C157.508 48.8021 157.89 48.9168 158.107 49.0442Z" fill="#434963"/>
<path d="M77.5616 48.407C76.8097 48.7129 76.4783 48.9933 76.2616 49.5286C75.943 50.255 76.0068 50.3315 76.8224 50.3315H77.5616L77.7145 49.758C77.8292 49.3374 77.9566 49.1462 78.237 48.9933C79.0017 48.5982 79.9575 48.8531 80.2889 49.5286C80.3781 49.7197 80.48 50.3442 80.5183 50.9177L80.5693 51.95L79.6389 52.0265C77.8674 52.1794 76.7459 52.6764 76.1979 53.5685C75.8666 54.0911 75.9175 55.2635 76.2871 55.7861C77.0773 56.8566 79.0144 56.8438 80.0212 55.7606C80.4418 55.3145 80.5438 55.34 80.5438 55.939V56.4488H81.1937H81.8309L81.7927 53.0333C81.7545 49.758 81.7417 49.6178 81.4614 49.1717C81.0535 48.509 80.4291 48.2414 79.2056 48.2031C78.4282 48.1776 78.0331 48.2286 77.5616 48.407ZM80.5183 53.3519C80.4418 54.8685 79.7536 55.7478 78.6703 55.7478C78.2115 55.7478 78.0459 55.6841 77.8037 55.391C77.1792 54.6773 77.3194 53.5685 78.0968 53.0588C78.4919 52.8039 79.5115 52.5235 80.1487 52.5107L80.5693 52.498L80.5183 53.3519Z" fill="#434963"/>
<path d="M107.41 48.356C106.697 48.5854 105.97 49.2609 105.639 50.0001C105.32 50.7392 105.116 52.1666 105.218 52.995C105.499 55.3017 106.76 56.5762 108.774 56.5762C110.405 56.5762 111.45 55.9644 112.062 54.6645C112.291 54.1802 112.33 53.8489 112.342 52.498C112.342 51.0324 112.317 50.8412 112.011 50.1912C111.629 49.3756 111.081 48.8021 110.393 48.4707C109.755 48.1649 108.188 48.1139 107.41 48.356ZM109.73 49.0442C110.036 49.1972 110.291 49.503 110.558 50.0128C110.928 50.7265 110.941 50.8284 110.941 52.4215C110.941 53.9508 110.915 54.142 110.622 54.7282C110.214 55.5439 109.628 55.939 108.851 55.939C107.997 55.939 107.487 55.5821 107.092 54.7027C106.506 53.4156 106.544 50.7265 107.168 49.656C107.614 48.8785 108.863 48.5727 109.73 49.0442Z" fill="#434963"/>
<path d="M114.928 48.3565C113.628 48.5859 113.514 48.6624 114.202 48.9173C115.03 49.2231 115.081 49.4143 115.081 52.0524C115.094 54.4993 115.196 55.2512 115.604 55.8375C116.126 56.5639 117.566 56.8061 118.509 56.3218C119.057 56.0541 119.758 55.2767 119.873 54.8179C120.026 54.2572 120.141 54.563 120.128 55.4552L120.115 56.3855L120.791 56.4237L121.453 56.462V52.32C121.453 50.026 121.415 48.1654 121.364 48.1654C121.3 48.1654 120.752 48.2546 120.115 48.3565C119.491 48.4585 118.93 48.5477 118.879 48.5477C118.815 48.5477 118.777 48.5987 118.777 48.6751C118.777 48.7389 119.006 48.8536 119.287 48.93C119.567 49.0065 119.848 49.1722 119.924 49.3124C120.09 49.6182 120.09 52.8043 119.924 53.3906C119.733 54.1042 119.006 55.2003 118.522 55.5316C117.719 56.0669 116.802 55.6846 116.496 54.6777C116.407 54.3719 116.356 53.072 116.356 51.173C116.356 48.382 116.343 48.1654 116.139 48.1781C116.012 48.1908 115.464 48.2673 114.928 48.3565Z" fill="#434963"/>
<path d="M129.865 48.3055C129.483 48.3692 128.973 48.4584 128.756 48.4967C128.221 48.5731 128.221 48.7388 128.743 48.9172C129.635 49.2358 129.61 49.0956 129.61 52.9699V56.4619L130.247 56.4237L130.884 56.3854L130.923 54.0277C130.948 51.7847 130.961 51.6318 131.279 50.9691C131.929 49.5672 132.86 48.8408 133.765 49.0064C134.606 49.1594 134.644 49.325 134.682 53.0974L134.72 56.4492H135.358H135.982L135.969 53.0337C135.969 50.7397 135.918 49.4907 135.816 49.1976C135.587 48.5604 135.103 48.2545 134.198 48.1908C133.166 48.1143 132.235 48.5604 131.585 49.427C131.343 49.7711 131.139 50.1152 131.139 50.1917C131.139 50.2681 131.088 50.3319 131.012 50.3319C130.935 50.3319 130.884 49.8858 130.884 49.2486C130.884 48.4584 130.846 48.1653 130.731 48.178C130.642 48.1908 130.247 48.2418 129.865 48.3055Z" fill="#434963"/>
<path d="M140.213 48.3562C138.977 48.7385 138.378 49.5796 138.148 51.2237C137.906 52.9314 138.416 54.8048 139.321 55.646C139.984 56.2577 140.697 56.4999 141.972 56.5508C143.386 56.6146 144.266 56.4234 144.266 56.0793C144.266 55.8754 144.164 55.8499 143.348 55.9009C142.609 55.9518 142.303 55.9136 141.819 55.7097C140.544 55.1489 139.576 53.7088 139.448 52.1668L139.385 51.3511H141.972H144.559L144.47 50.7011C144.304 49.4777 143.616 48.5728 142.634 48.2925C141.997 48.114 140.876 48.1395 140.213 48.3562ZM142.176 49.0444C142.609 49.312 142.991 50.0002 142.991 50.51V50.8413H141.207C139.181 50.8413 139.193 50.8541 139.716 49.8218C140.188 48.8787 141.322 48.5219 142.176 49.0444Z" fill="#434963"/>
<path d="M147.847 48.3821C147.069 48.6625 146.368 49.4016 146.126 50.2173C145.999 50.6251 145.922 51.377 145.922 52.1162C145.922 54.1935 146.534 55.468 147.885 56.1562C149.045 56.7679 152.04 56.7042 152.04 56.0797C152.04 55.8631 151.95 55.8503 151.224 55.9013C150.141 55.9905 149.287 55.6974 148.56 54.9964C147.809 54.27 147.337 53.2759 147.235 52.2054L147.159 51.3515H149.733H152.295V51.0202C152.295 49.8349 151.441 48.586 150.447 48.3056C149.733 48.1145 148.509 48.1527 147.847 48.3821ZM149.975 49.0575C150.421 49.3252 150.765 49.9751 150.765 50.5231V50.8418H148.968H147.171L147.261 50.4212C147.554 49.0703 148.892 48.3948 149.975 49.0575Z" fill="#434963"/>
<path d="M96.1817 48.369C96.0415 48.522 96.2199 48.6749 96.5385 48.6749C97.2267 48.6749 97.5581 49.2229 99.1001 52.8678C100.719 56.7166 100.655 56.4108 100.03 57.9274C99.5972 58.9851 99.304 59.291 98.7688 59.291C98.2717 59.291 97.9276 58.9724 97.7875 58.3862C97.6728 57.9146 97.6728 57.9146 96.9336 57.8764L96.1817 57.8381L96.2709 58.2587C96.4748 59.3165 97.2777 59.9282 98.4502 59.941C99.355 59.9537 99.8903 59.6861 100.387 58.9724C100.655 58.5773 101.662 56.1177 102.21 54.5373C102.273 54.3589 102.426 53.9256 102.567 53.5815C102.974 52.5365 104.504 48.4073 104.504 48.3436C104.504 48.3181 104.313 48.2926 104.083 48.2926H103.65L102.592 51.1218C102.019 52.6894 101.483 54.104 101.42 54.2825L101.292 54.6011L101.126 54.2697C101.025 54.0913 100.54 52.9443 100.043 51.7208C99.5334 50.4974 99.0109 49.2357 98.8707 48.8916L98.6158 48.2926H97.4306C96.7934 48.2926 96.2199 48.3308 96.1817 48.369Z" fill="#434963"/>
<defs>
<linearGradient id="paint0_linear" x1="23.7642" y1="35.5" x2="5.26416" y2="4.5" gradientUnits="userSpaceOnUse">
<stop stop-color="#B92433"/>
<stop offset="1" stop-color="#801923"/>
</linearGradient>
</defs>
</svg>
