<svg width="81" height="80" viewBox="0 0 81 80" fill="none" xmlns="http://www.w3.org/2000/svg">
<path d="M39.6822 0.0114288C39.6754 0.0181961 39.2521 0.0317459 38.7442 0.0452881C38.2362 0.0588379 37.8028 0.0757675 37.7791 0.0825424C37.7587 0.0893097 37.5725 0.102859 37.3659 0.116402C36.2688 0.177353 34.6129 0.373756 33.3532 0.593864C26.3402 1.81293 19.9198 4.79963 14.4408 9.39143C11.2611 12.0564 8.44371 15.3005 6.21554 18.873C5.3114 20.319 4.25149 22.3169 3.58778 23.8204C1.62035 28.2936 0.536744 32.8109 0.231979 37.7888C0.157481 39.0011 0.177799 41.5645 0.269228 42.8513C0.357271 44.0737 0.553676 45.6957 0.746694 46.7963C2.0538 54.3071 5.33172 61.0593 10.4281 66.7584C11.4677 67.9233 13.3335 69.718 14.5593 70.7407C19.3679 74.7433 24.9789 77.5471 31.0167 78.9592C32.4186 79.2877 34.2032 79.6026 35.368 79.7279C35.4798 79.7414 35.6085 79.7583 35.6559 79.7651C35.9742 79.8159 37.498 79.9344 38.4326 79.9818C39.0184 80.0123 41.9781 80.0022 42.2422 79.9683C42.3167 79.9615 42.5537 79.9446 42.7671 79.931C43.7355 79.8803 45.1273 79.7279 46.3396 79.5416C55.6011 78.1126 64.0735 73.4463 70.2806 66.3521C74.527 61.5029 77.5103 55.7699 79.0341 49.5324C79.4439 47.8494 79.7148 46.3188 79.9315 44.4767C80.0771 43.2407 80.1584 41.7304 80.1651 40.2777C80.1685 39.2042 80.1313 37.5348 80.1042 37.484C80.0974 37.4739 80.0839 37.2978 80.0703 37.0946C79.9146 34.5041 79.305 31.1855 78.472 28.4359C77.5543 25.3916 76.2235 22.3677 74.6049 19.6383C70.1011 12.0429 63.1728 6.11689 54.9814 2.84574C51.2768 1.36594 47.2539 0.434715 43.2919 0.136719C42.4487 0.0723801 42.3031 0.0656052 41.311 0.0317459C40.2443 -0.00212097 39.7059 -0.00888824 39.6822 0.0114288ZM66.2001 30.2035C66.7622 30.3085 67.2702 30.7453 67.4903 31.3041C67.558 31.4801 67.5682 31.5682 67.5682 31.9305C67.5682 32.4181 67.5208 32.5908 67.2736 32.9362C67.0433 33.2613 66.7927 33.4543 66.4168 33.5999L66.217 33.6744L52.7227 33.6914C40.2781 33.7083 39.2182 33.7117 39.0896 33.7659C38.6595 33.9386 38.3852 34.179 38.2159 34.5346L38.1109 34.7581L38.1008 35.4489C38.0906 36.1126 38.094 36.1532 38.1753 36.4207C38.3107 36.8542 38.5681 37.142 39.0252 37.3689C39.2148 37.4603 39.7837 37.6161 41.8189 38.124C45.1137 38.9503 45.3847 39.0315 45.9569 39.3634C46.4649 39.6614 47.0609 40.193 47.3961 40.6468C47.8837 41.3071 48.2291 42.1876 48.3172 43.0104C48.3612 43.4134 48.3646 44.1347 48.3206 44.6799C48.1614 46.7218 46.939 48.4149 45.1104 49.1294C44.6871 49.292 44.2977 49.3936 43.915 49.4376C43.7389 49.4579 40.6845 49.4714 35.9877 49.4714H28.3415V41.683V33.8946H27.2511C26.6484 33.8979 26.0524 33.9115 25.9271 33.925C25.6325 33.9657 25.3717 34.0943 25.1415 34.3145C25.0331 34.416 24.2746 35.4387 23.2688 36.8406C22.341 38.1342 20.2821 41.0057 18.6906 43.2238C17.1024 45.4384 15.6904 47.3889 15.5583 47.5582C15.3145 47.8596 14.8641 48.2829 14.4747 48.5741C13.96 48.9567 13.1473 49.2818 12.3955 49.4071C12.0196 49.4681 11.8537 49.4748 10.7836 49.4647L9.59166 49.4545L9.26658 49.292C8.78234 49.0515 8.50128 48.7197 8.36583 48.2185C8.27101 47.8833 8.2744 47.5819 8.3726 47.2399C8.53175 46.6913 8.89747 46.3188 9.507 46.0919C9.7305 46.0073 9.75759 46.0073 10.9191 45.987L12.1043 45.9666L12.3752 45.821C12.5343 45.733 12.6969 45.6145 12.768 45.5332C12.9136 45.3605 15.4973 41.7812 19.334 36.4309C20.9018 34.2467 22.2394 32.3877 22.3071 32.3098C22.6695 31.8594 23.1808 31.4293 23.77 31.0839C24.0071 30.9451 24.5963 30.7013 24.9214 30.6099C25.5546 30.4338 25.6359 30.4304 28.8427 30.4168L31.8294 30.4033V38.1782V45.9497L37.7825 45.9429L43.7321 45.9328L43.9252 45.8549C44.301 45.7025 44.616 45.3774 44.765 44.9846C44.8327 44.8052 44.8462 44.7036 44.8598 44.155C44.8767 43.4642 44.8496 43.2373 44.7142 42.9393C44.6126 42.7226 44.3688 42.4551 44.1791 42.3569C44.1046 42.3196 42.6587 41.9065 40.9622 41.4426C39.2623 40.9787 37.7486 40.5588 37.5928 40.5113C36.5905 40.193 35.5915 39.3194 35.0734 38.2967C34.8872 37.931 34.684 37.3012 34.6061 36.8542C34.4199 35.7773 34.5113 34.2467 34.8127 33.3392C34.9075 33.0649 35.1649 32.5468 35.3579 32.2522C35.9132 31.3955 36.8851 30.6945 37.9314 30.3898C38.7137 30.1629 37.6064 30.1764 52.4721 30.173C61.4492 30.1696 66.0816 30.1798 66.2001 30.2035ZM66.2509 37.975C66.9316 38.1477 67.4734 38.7065 67.5919 39.3634C67.6393 39.6174 67.6122 40.0576 67.5343 40.2777C67.4023 40.657 67.0704 41.0565 66.725 41.2631C66.6471 41.3071 66.4642 41.3748 66.3186 41.4121C66.0579 41.4798 65.9462 41.4798 58.9569 41.4798C51.1616 41.4798 51.6425 41.49 51.2361 41.2766C50.8637 41.0769 50.5149 40.6502 50.3828 40.2303C50.2846 39.9255 50.288 39.4785 50.3828 39.1738C50.5183 38.7437 50.9077 38.2899 51.2937 38.1071C51.6831 37.9242 51.3343 37.931 58.9704 37.9276C65.2046 37.9242 66.0748 37.931 66.2509 37.975ZM66.4033 46.0039C66.9112 46.2037 67.2329 46.4949 67.4598 46.9554L67.6054 47.2534V47.6936V48.1339L67.4598 48.4352C67.2194 48.9364 66.8401 49.2547 66.3017 49.4071C66.0918 49.4681 65.8005 49.4714 58.984 49.4714C52.0726 49.4714 51.8795 49.4681 51.629 49.4071C51.4901 49.3699 51.3073 49.3055 51.2294 49.2683C51.033 49.1667 50.7417 48.8856 50.5826 48.6452C49.9257 47.6361 50.5047 46.2274 51.6831 45.9666C51.8592 45.9294 53.102 45.9226 59.0551 45.926L66.217 45.9328L66.4033 46.0039Z" fill="#B1BED3"/>
</svg>
