<svg width="197" height="60" viewBox="0 0 197 60" fill="none" xmlns="http://www.w3.org/2000/svg">
<path d="M4.10926 19.1517H0.905435V12.66H4.10926V13.1393H1.42259V15.355H4.02938V15.8386H1.42259V18.6682H4.10926V19.1517Z" fill="black"/>
<path d="M5.77845 19.1517H5.2613V12.66H5.77845V19.1517Z" fill="black"/>
<path d="M11.8203 15.9058C11.8203 16.8869 11.498 17.6731 10.8533 18.2646C10.2086 18.856 9.35928 19.1517 8.30535 19.1517H7.11127V12.66H8.41887C9.42515 12.66 10.2436 12.9613 10.8743 13.5639C11.505 14.1638 11.8203 14.9444 11.8203 15.9058ZM11.2947 15.9058C11.2947 15.0789 11.0229 14.4118 10.4791 13.9045C9.9353 13.3943 9.22053 13.1393 8.33478 13.1393H7.62843V18.6682H8.29694C9.1883 18.6682 9.91007 18.4131 10.4623 17.903C11.0173 17.3928 11.2947 16.7271 11.2947 15.9058Z" fill="black"/>
<path d="M18.8334 16.3179C18.8334 17.1616 18.5181 17.8679 17.8874 18.4369C17.2848 18.9779 16.5742 19.2484 15.7557 19.2484C14.8223 19.2484 14.0263 18.9247 13.3676 18.2772C12.7117 17.6297 12.3837 16.8392 12.3837 15.9058C12.3837 14.9836 12.7131 14.1946 13.3718 13.5387C14.0305 12.8828 14.8251 12.5548 15.7557 12.5548C16.3163 12.5548 16.8503 12.6936 17.3576 12.9711C17.8341 13.2318 18.2252 13.5779 18.5307 14.0096L18.1355 14.346C17.516 13.4742 16.72 13.0384 15.7473 13.0384C14.9765 13.0384 14.308 13.3229 13.7418 13.8919C13.1784 14.4609 12.8967 15.1322 12.8967 15.9058C12.8967 16.6935 13.1756 17.369 13.7334 17.9324C14.2912 18.493 14.9513 18.7733 15.7137 18.7733C16.3724 18.7733 16.9582 18.5603 17.4712 18.1342C18.0177 17.6773 18.291 17.1209 18.291 16.465H16.1089V15.9899H18.8334V16.3179Z" fill="black"/>
<path d="M22.979 19.1517H19.7752V12.66H22.979V13.1393H20.2924V15.355H22.8992V15.8386H20.2924V18.6682H22.979V19.1517Z" fill="black"/>
<path d="M29.8744 19.3325L24.6188 13.8204V19.1517H24.1227V12.5548L29.3405 18.0249V12.66H29.8744V19.3325Z" fill="black"/>
<path d="M37.5813 15.9058C37.5813 16.8224 37.2505 17.6087 36.589 18.2646C35.9303 18.9205 35.1385 19.2484 34.2135 19.2484C33.2829 19.2484 32.4868 18.9205 31.8253 18.2646C31.1638 17.6087 30.833 16.8224 30.833 15.9058C30.833 14.9864 31.1638 14.1988 31.8253 13.5429C32.4896 12.8842 33.2857 12.5548 34.2135 12.5548C35.1385 12.5548 35.9303 12.8842 36.589 13.5429C37.2505 14.2016 37.5813 14.9893 37.5813 15.9058ZM37.0641 15.9058C37.0641 15.1126 36.788 14.4385 36.2358 13.8835C35.6836 13.3257 35.0095 13.0468 34.2135 13.0468C33.4174 13.0468 32.7405 13.3257 32.1827 13.8835C31.6277 14.4385 31.3502 15.1126 31.3502 15.9058C31.3502 16.7019 31.6277 17.3774 32.1827 17.9324C32.7405 18.4874 33.4174 18.7649 34.2135 18.7649C35.0095 18.7649 35.6836 18.4874 36.2358 17.9324C36.788 17.3774 37.0641 16.7019 37.0641 15.9058Z" fill="black"/>
<path d="M42.202 17.3354C42.202 17.8707 42.0058 18.3234 41.6134 18.6934C41.2238 19.0634 40.7431 19.2484 40.1712 19.2484C39.7116 19.2484 39.3037 19.1139 38.9477 18.8448C38.5946 18.5729 38.3535 18.2071 38.2246 17.7474L38.6997 17.575C38.781 17.9114 38.9491 18.1889 39.2042 18.4075C39.4817 18.6458 39.8097 18.7649 40.1881 18.7649C40.6001 18.7649 40.9519 18.6233 41.2434 18.3402C41.5377 18.0571 41.6849 17.7166 41.6849 17.3185C41.6849 17.027 41.5755 16.779 41.3569 16.5743C41.1495 16.3837 40.7655 16.1581 40.2049 15.8974C39.6022 15.6171 39.193 15.3761 38.9772 15.1742C38.7109 14.922 38.5777 14.5996 38.5777 14.2072C38.5777 13.7223 38.7417 13.3257 39.0697 13.0173C39.3976 12.709 39.8167 12.5548 40.3268 12.5548C41.0191 12.5548 41.5461 12.8646 41.9077 13.484L41.5293 13.7699C41.2462 13.2878 40.8356 13.0468 40.2974 13.0468C39.961 13.0468 39.6765 13.1575 39.4439 13.3789C39.2112 13.6004 39.0949 13.8709 39.0949 14.1904C39.0949 14.4455 39.1874 14.6613 39.3724 14.8379C39.5574 15.0117 39.912 15.2149 40.4361 15.4475C41.1257 15.7503 41.5924 16.0334 41.8362 16.2968C42.0801 16.5575 42.202 16.9037 42.202 17.3354Z" fill="black"/>
<path d="M46.869 17.3354C46.869 17.8707 46.6728 18.3234 46.2804 18.6934C45.8908 19.0634 45.41 19.2484 44.8382 19.2484C44.3785 19.2484 43.9707 19.1139 43.6147 18.8448C43.2616 18.5729 43.0205 18.2071 42.8916 17.7474L43.3667 17.575C43.4479 17.9114 43.6161 18.1889 43.8712 18.4075C44.1487 18.6458 44.4767 18.7649 44.8551 18.7649C45.2671 18.7649 45.6189 18.6233 45.9104 18.3402C46.2047 18.0571 46.3519 17.7166 46.3519 17.3185C46.3519 17.027 46.2425 16.779 46.0239 16.5743C45.8165 16.3837 45.4325 16.1581 44.8719 15.8974C44.2692 15.6171 43.86 15.3761 43.6442 15.1742C43.3779 14.922 43.2447 14.5996 43.2447 14.2072C43.2447 13.7223 43.4087 13.3257 43.7367 13.0173C44.0646 12.709 44.4837 12.5548 44.9938 12.5548C45.6861 12.5548 46.2131 12.8646 46.5747 13.484L46.1963 13.7699C45.9132 13.2878 45.5025 13.0468 44.9644 13.0468C44.628 13.0468 44.3435 13.1575 44.1109 13.3789C43.8782 13.6004 43.7619 13.8709 43.7619 14.1904C43.7619 14.4455 43.8544 14.6613 44.0394 14.8379C44.2244 15.0117 44.579 15.2149 45.1031 15.4475C45.7927 15.7503 46.2594 16.0334 46.5032 16.2968C46.7471 16.5575 46.869 16.9037 46.869 17.3354Z" fill="black"/>
<path d="M48.4036 19.1517H47.8865V12.66H48.4036V19.1517Z" fill="black"/>
<path d="M53.3944 17.3354C53.3944 17.8707 53.1982 18.3234 52.8058 18.6934C52.4161 19.0634 51.9354 19.2484 51.3636 19.2484C50.9039 19.2484 50.4961 19.1139 50.1401 18.8448C49.7869 18.5729 49.5459 18.2071 49.4169 17.7474L49.892 17.575C49.9733 17.9114 50.1415 18.1889 50.3966 18.4075C50.6741 18.6458 51.002 18.7649 51.3804 18.7649C51.7925 18.7649 52.1442 18.6233 52.4358 18.3402C52.7301 18.0571 52.8772 17.7166 52.8772 17.3185C52.8772 17.027 52.7679 16.779 52.5493 16.5743C52.3419 16.3837 51.9578 16.1581 51.3973 15.8974C50.7946 15.6171 50.3854 15.3761 50.1695 15.1742C49.9033 14.922 49.7701 14.5996 49.7701 14.2072C49.7701 13.7223 49.9341 13.3257 50.262 13.0173C50.59 12.709 51.009 12.5548 51.5192 12.5548C52.2115 12.5548 52.7385 12.8646 53.1001 13.484L52.7217 13.7699C52.4386 13.2878 52.0279 13.0468 51.4897 13.0468C51.1534 13.0468 50.8689 13.1575 50.6362 13.3789C50.4036 13.6004 50.2873 13.8709 50.2873 14.1904C50.2873 14.4455 50.3798 14.6613 50.5648 14.8379C50.7498 15.0117 51.1043 15.2149 51.6285 15.4475C52.318 15.7503 52.7847 16.0334 53.0286 16.2968C53.2725 16.5575 53.3944 16.9037 53.3944 17.3354Z" fill="black"/>
<path d="M59.4657 13.9591C58.9107 13.3453 58.2155 13.0384 57.3802 13.0384C56.6178 13.0384 55.9563 13.3187 55.3957 13.8793C54.8379 14.4399 54.559 15.1154 54.559 15.9058C54.559 16.6963 54.8393 17.3718 55.3999 17.9324C55.9605 18.493 56.6234 18.7733 57.3887 18.7733C58.1819 18.7733 58.8714 18.472 59.4573 17.8693V18.5336C58.8434 19.0102 58.2001 19.2484 57.5274 19.2484C56.538 19.2484 55.7097 18.9275 55.0426 18.2856C54.3754 17.6437 54.0419 16.8504 54.0419 15.9058C54.0419 14.978 54.3768 14.1876 55.0468 13.5345C55.7167 12.8814 56.5155 12.5548 57.4433 12.5548C58.2338 12.5548 58.9079 12.7987 59.4657 13.2864V13.9591Z" fill="black"/>
<path d="M65.352 19.1517H64.8348V15.8638H61.118V19.1517H60.6009V12.66H61.118V15.3803H64.8348V12.66H65.352V19.1517Z" fill="black"/>
<path d="M69.8844 19.1517H66.6806V12.66H69.8844V13.1393H67.1978V15.355H69.8045V15.8386H67.1978V18.6682H69.8844V19.1517Z" fill="black"/>
<path d="M76.7882 13.1393H74.3959V15.3635H76.557V15.8386H74.3959V19.1517H73.8787V12.66H76.7882V13.1393Z" fill="black"/>
<path d="M78.264 19.1517H77.7468V12.66H78.264V19.1517Z" fill="black"/>
<path d="M85.3486 19.3325L80.0929 13.8204V19.1517H79.5968V12.5548L84.8146 18.0249V12.66H85.3486V19.3325Z" fill="black"/>
<path d="M91.6007 19.1517H91.0583L90.2342 17.1546H87.3373L86.5132 19.1517H85.9792L88.7836 12.4287L91.6007 19.1517ZM90.024 16.671L88.7836 13.6648L87.5475 16.671H90.024Z" fill="black"/>
<path d="M97.9873 19.3325L92.7317 13.8204V19.1517H92.2355V12.5548L97.4533 18.0249V12.66H97.9873V19.3325Z" fill="black"/>
<path d="M103.386 12.66L99.6312 18.6682H103.327V19.1517H98.7483L102.511 13.1393H99.1351V12.66H103.386Z" fill="black"/>
<path d="M108.532 19.1517H107.843L104.702 15.8974V19.1517H104.185V12.66H104.702V15.6452L107.687 12.66H108.377L105.261 15.7671L108.532 19.1517Z" fill="black"/>
<path d="M114.952 15.9058C114.952 16.8224 114.622 17.6087 113.96 18.2646C113.301 18.9205 112.51 19.2484 111.585 19.2484C110.654 19.2484 109.858 18.9205 109.196 18.2646C108.535 17.6087 108.204 16.8224 108.204 15.9058C108.204 14.9864 108.535 14.1988 109.196 13.5429C109.861 12.8842 110.657 12.5548 111.585 12.5548C112.51 12.5548 113.301 12.8842 113.96 13.5429C114.622 14.2016 114.952 14.9893 114.952 15.9058ZM114.435 15.9058C114.435 15.1126 114.159 14.4385 113.607 13.8835C113.055 13.3257 112.381 13.0468 111.585 13.0468C110.789 13.0468 110.112 13.3257 109.554 13.8835C108.999 14.4385 108.721 15.1126 108.721 15.9058C108.721 16.7019 108.999 17.3774 109.554 17.9324C110.112 18.4874 110.789 18.7649 111.585 18.7649C112.381 18.7649 113.055 18.4874 113.607 17.9324C114.159 17.3774 114.435 16.7019 114.435 15.9058Z" fill="black"/>
<path d="M121.667 19.3325L116.411 13.8204V19.1517H115.915V12.5548L121.133 18.0249V12.66H121.667V19.3325Z" fill="black"/>
<path d="M126.292 13.1393H124.598V19.1517H124.08V13.1393H122.382V12.66H126.292V13.1393Z" fill="black"/>
<path d="M130.442 19.1517H129.82L127.755 16.1455H127.524V19.1517H127.007V12.66H128.075C128.722 12.66 129.221 12.8141 129.571 13.1225C129.922 13.428 130.097 13.8681 130.097 14.4427C130.097 14.9248 129.94 15.3256 129.626 15.6452C129.295 15.9787 128.864 16.1455 128.331 16.1455L130.442 19.1517ZM129.597 14.4258C129.597 13.5625 129.081 13.1309 128.049 13.1309H127.524V15.7082H128.125C128.579 15.7082 128.938 15.5947 129.201 15.3677C129.465 15.1378 129.597 14.8239 129.597 14.4258Z" fill="black"/>
<path d="M137.531 15.9058C137.531 16.8224 137.2 17.6087 136.538 18.2646C135.88 18.9205 135.088 19.2484 134.163 19.2484C133.232 19.2484 132.436 18.9205 131.775 18.2646C131.113 17.6087 130.782 16.8224 130.782 15.9058C130.782 14.9864 131.113 14.1988 131.775 13.5429C132.439 12.8842 133.235 12.5548 134.163 12.5548C135.088 12.5548 135.88 12.8842 136.538 13.5429C137.2 14.2016 137.531 14.9893 137.531 15.9058ZM137.013 15.9058C137.013 15.1126 136.737 14.4385 136.185 13.8835C135.633 13.3257 134.959 13.0468 134.163 13.0468C133.367 13.0468 132.69 13.3257 132.132 13.8835C131.577 14.4385 131.3 15.1126 131.3 15.9058C131.3 16.7019 131.577 17.3774 132.132 17.9324C132.69 18.4874 133.367 18.7649 134.163 18.7649C134.959 18.7649 135.633 18.4874 136.185 17.9324C136.737 17.3774 137.013 16.7019 137.013 15.9058Z" fill="black"/>
<path d="M140.928 19.1517H138.493V12.66H139.011V18.6682H140.928V19.1517Z" fill="black"/>
<path d="M144.09 19.1517H141.655V12.66H142.172V18.6682H144.09V19.1517Z" fill="black"/>
<path d="M148.021 19.1517H144.817V12.66H148.021V13.1393H145.334V15.355H147.941V15.8386H145.334V18.6682H148.021V19.1517Z" fill="black"/>
<path d="M16.1425 27.5123C15.5875 26.8984 14.8924 26.5915 14.0571 26.5915C13.2947 26.5915 12.6332 26.8718 12.0726 27.4324C11.5148 27.993 11.2359 28.6685 11.2359 29.459C11.2359 30.2494 11.5162 30.9249 12.0768 31.4855C12.6374 32.0461 13.3003 32.3264 14.0655 32.3264C14.8588 32.3264 15.5483 32.0251 16.1341 31.4225V32.0868C15.5203 32.5633 14.877 32.8015 14.2043 32.8015C13.2148 32.8015 12.3865 32.4806 11.7194 31.8387C11.0523 31.1968 10.7187 30.4036 10.7187 29.459C10.7187 28.5312 11.0537 27.7407 11.7236 27.0876C12.3935 26.4345 13.1924 26.108 14.1202 26.108C14.9106 26.108 15.5847 26.3518 16.1425 26.8396V27.5123Z" fill="black"/>
<path d="M23.3701 29.459C23.3701 30.3755 23.0393 31.1618 22.3778 31.8177C21.7191 32.4736 20.9273 32.8015 20.0023 32.8015C19.0717 32.8015 18.2756 32.4736 17.6141 31.8177C16.9526 31.1618 16.6219 30.3755 16.6219 29.459C16.6219 28.5396 16.9526 27.7519 17.6141 27.096C18.2784 26.4373 19.0745 26.108 20.0023 26.108C20.9273 26.108 21.7191 26.4373 22.3778 27.096C23.0393 27.7547 23.3701 28.5424 23.3701 29.459ZM22.8529 29.459C22.8529 28.6657 22.5768 27.9916 22.0246 27.4366C21.4724 26.8788 20.7983 26.5999 20.0023 26.5999C19.2062 26.5999 18.5293 26.8788 17.9715 27.4366C17.4165 27.9916 17.139 28.6657 17.139 29.459C17.139 30.255 17.4165 30.9305 17.9715 31.4855C18.5293 32.0405 19.2062 32.318 20.0023 32.318C20.7983 32.318 21.4724 32.0405 22.0246 31.4855C22.5768 30.9305 22.8529 30.255 22.8529 29.459Z" fill="black"/>
<path d="M30.0847 32.8856L24.829 27.3735V32.7048H24.3329V26.108L29.5507 31.578V26.2131H30.0847V32.8856Z" fill="black"/>
<path d="M34.7096 26.6924H33.0152V32.7048H32.498V26.6924H30.7994V26.2131H34.7096V26.6924Z" fill="black"/>
<path d="M38.8594 32.7048H38.2372L36.1728 29.6986H35.9415V32.7048H35.4244V26.2131H36.4923C37.1398 26.2131 37.6387 26.3672 37.9891 26.6756C38.3395 26.9811 38.5147 27.4212 38.5147 27.9958C38.5147 28.4779 38.3577 28.8787 38.0438 29.1983C37.713 29.5318 37.2814 29.6986 36.7488 29.6986L38.8594 32.7048ZM38.0143 27.979C38.0143 27.1156 37.4986 26.684 36.4671 26.684H35.9415V29.2613H36.5428C36.9968 29.2613 37.3556 29.1478 37.6191 28.9208C37.8826 28.6909 38.0143 28.377 38.0143 27.979Z" fill="black"/>
<path d="M45.9482 29.459C45.9482 30.3755 45.6175 31.1618 44.956 31.8177C44.2973 32.4736 43.5054 32.8015 42.5804 32.8015C41.6498 32.8015 40.8538 32.4736 40.1923 31.8177C39.5308 31.1618 39.2 30.3755 39.2 29.459C39.2 28.5396 39.5308 27.7519 40.1923 27.096C40.8566 26.4373 41.6526 26.108 42.5804 26.108C43.5054 26.108 44.2973 26.4373 44.956 27.096C45.6175 27.7547 45.9482 28.5424 45.9482 29.459ZM45.4311 29.459C45.4311 28.6657 45.155 27.9916 44.6028 27.4366C44.0506 26.8788 43.3765 26.5999 42.5804 26.5999C41.7844 26.5999 41.1074 26.8788 40.5496 27.4366C39.9947 27.9916 39.7172 28.6657 39.7172 29.459C39.7172 30.255 39.9947 30.9305 40.5496 31.4855C41.1074 32.0405 41.7844 32.318 42.5804 32.318C43.3765 32.318 44.0506 32.0405 44.6028 31.4855C45.155 30.9305 45.4311 30.255 45.4311 29.459Z" fill="black"/>
<path d="M49.3455 32.7048H46.9111V26.2131H47.4282V32.2213H49.3455V32.7048Z" fill="black"/>
<path d="M53.2767 32.7048H50.0728V26.2131H53.2767V26.6924H50.59V28.9082H53.1968V29.3917H50.59V32.2213H53.2767V32.7048Z" fill="black"/>
<path d="M60.1804 26.6924H57.7881V28.9166H59.9492V29.3917H57.7881V32.7048H57.2709V26.2131H60.1804V26.6924Z" fill="black"/>
<path d="M64.3345 32.7048H61.1307V26.2131H64.3345V26.6924H61.6478V28.9082H64.2546V29.3917H61.6478V32.2213H64.3345V32.7048Z" fill="black"/>
<path d="M70.1872 29.459C70.1872 30.44 69.8648 31.2262 69.2201 31.8177C68.5754 32.4091 67.7261 32.7048 66.6722 32.7048H65.4781V26.2131H66.7857C67.792 26.2131 68.6105 26.5144 69.2411 27.1171C69.8718 27.7169 70.1872 28.4975 70.1872 29.459ZM69.6616 29.459C69.6616 28.6321 69.3897 27.965 68.8459 27.4576C68.3021 26.9475 67.5874 26.6924 66.7016 26.6924H65.9953V32.2213H66.6638C67.5551 32.2213 68.2769 31.9662 68.8291 31.4561C69.3841 30.9459 69.6616 30.2802 69.6616 29.459Z" fill="black"/>
<path d="M74.3328 32.7048H71.129V26.2131H74.3328V26.6924H71.6461V28.9082H74.2529V29.3917H71.6461V32.2213H74.3328V32.7048Z" fill="black"/>
<path d="M78.9115 32.7048H78.2892L76.2248 29.6986H75.9936V32.7048H75.4764V26.2131H76.5444C77.1918 26.2131 77.6908 26.3672 78.0412 26.6756C78.3915 26.9811 78.5667 27.4212 78.5667 27.9958C78.5667 28.4779 78.4097 28.8787 78.0958 29.1983C77.7651 29.5318 77.3334 29.6986 76.8008 29.6986L78.9115 32.7048ZM78.0664 27.979C78.0664 27.1156 77.5506 26.684 76.5191 26.684H75.9936V29.2613H76.5948C77.0489 29.2613 77.4077 29.1478 77.6712 28.9208C77.9346 28.6909 78.0664 28.377 78.0664 27.979Z" fill="black"/>
<path d="M84.7389 32.7048H84.1965L83.3725 30.7077H80.4756L79.6515 32.7048H79.1175L81.9219 25.9818L84.7389 32.7048ZM83.1622 30.2242L81.9219 27.218L80.6858 30.2242H83.1622Z" fill="black"/>
<path d="M87.8082 32.7048H85.3738V26.2131H85.891V32.2213H87.8082V32.7048Z" fill="black"/>
<path d="M96.0953 29.459C96.0953 30.44 95.7729 31.2262 95.1282 31.8177C94.4836 32.4091 93.6342 32.7048 92.5803 32.7048H91.3862V26.2131H92.6938C93.7001 26.2131 94.5186 26.5144 95.1493 27.1171C95.7799 27.7169 96.0953 28.4975 96.0953 29.459ZM95.5697 29.459C95.5697 28.6321 95.2978 27.965 94.754 27.4576C94.2103 26.9475 93.4955 26.6924 92.6097 26.6924H91.9034V32.2213H92.5719C93.4633 32.2213 94.185 31.9662 94.7372 31.4561C95.2922 30.9459 95.5697 30.2802 95.5697 29.459Z" fill="black"/>
<path d="M100.241 32.7048H97.0371V26.2131H100.241V26.6924H97.5542V28.9082H100.161V29.3917H97.5542V32.2213H100.241V32.7048Z" fill="black"/>
<path d="M104.849 30.8885C104.849 31.4239 104.653 31.8765 104.26 32.2465C103.871 32.6165 103.39 32.8015 102.818 32.8015C102.359 32.8015 101.951 32.667 101.595 32.3979C101.242 32.126 101.001 31.7602 100.872 31.3005L101.347 31.1281C101.428 31.4645 101.596 31.742 101.851 31.9606C102.129 32.1989 102.457 32.318 102.835 32.318C103.247 32.318 103.599 32.1765 103.89 31.8934C104.185 31.6103 104.332 31.2697 104.332 30.8717C104.332 30.5802 104.223 30.3321 104.004 30.1275C103.797 29.9369 103.412 29.7112 102.852 29.4505C102.249 29.1702 101.84 28.9292 101.624 28.7274C101.358 28.4751 101.225 28.1528 101.225 27.7603C101.225 27.2754 101.389 26.8788 101.717 26.5705C102.045 26.2621 102.464 26.108 102.974 26.108C103.666 26.108 104.193 26.4177 104.555 27.0372L104.176 27.3231C103.893 26.841 103.483 26.5999 102.944 26.5999C102.608 26.5999 102.324 26.7106 102.091 26.9321C101.858 27.1535 101.742 27.424 101.742 27.7435C101.742 27.9986 101.834 28.2144 102.019 28.391C102.204 28.5648 102.559 28.768 103.083 29.0007C103.773 29.3034 104.239 29.5865 104.483 29.85C104.727 30.1107 104.849 30.4568 104.849 30.8885Z" fill="black"/>
<path d="M111.618 26.6924H109.226V28.9166H111.387V29.3917H109.226V32.7048H108.709V26.2131H111.618V26.6924Z" fill="black"/>
<path d="M113.094 32.7048H112.577V26.2131H113.094V32.7048Z" fill="black"/>
<path d="M120.179 32.8856L114.923 27.3735V32.7048H114.427V26.108L119.645 31.578V26.2131H120.179V32.8856Z" fill="black"/>
<path d="M126.431 32.7048H125.888L125.064 30.7077H122.167L121.343 32.7048H120.809L123.614 25.9818L126.431 32.7048ZM124.854 30.2242L123.614 27.218L122.378 30.2242H124.854Z" fill="black"/>
<path d="M132.817 32.8856L127.562 27.3735V32.7048H127.066V26.108L132.283 31.578V26.2131H132.817V32.8856Z" fill="black"/>
<path d="M139.208 27.5123C138.653 26.8984 137.958 26.5915 137.123 26.5915C136.36 26.5915 135.699 26.8718 135.138 27.4324C134.58 27.993 134.302 28.6685 134.302 29.459C134.302 30.2494 134.582 30.9249 135.142 31.4855C135.703 32.0461 136.366 32.3264 137.131 32.3264C137.924 32.3264 138.614 32.0251 139.2 31.4225V32.0868C138.586 32.5633 137.943 32.8015 137.27 32.8015C136.28 32.8015 135.452 32.4806 134.785 31.8387C134.118 31.1968 133.784 30.4036 133.784 29.459C133.784 28.5312 134.119 27.7407 134.789 27.0876C135.459 26.4345 136.258 26.108 137.186 26.108C137.976 26.108 138.65 26.3518 139.208 26.8396V27.5123Z" fill="black"/>
<path d="M143.547 32.7048H140.343V26.2131H143.547V26.6924H140.861V28.9082H143.467V29.3917H140.861V32.2213H143.547V32.7048Z" fill="black"/>
<path d="M148.155 30.8885C148.155 31.4239 147.959 31.8765 147.567 32.2465C147.177 32.6165 146.696 32.8015 146.125 32.8015C145.665 32.8015 145.257 32.667 144.901 32.3979C144.548 32.126 144.307 31.7602 144.178 31.3005L144.653 31.1281C144.734 31.4645 144.902 31.742 145.158 31.9606C145.435 32.1989 145.763 32.318 146.141 32.318C146.553 32.318 146.905 32.1765 147.197 31.8934C147.491 31.6103 147.638 31.2697 147.638 30.8717C147.638 30.5802 147.529 30.3321 147.31 30.1275C147.103 29.9369 146.719 29.7112 146.158 29.4505C145.556 29.1702 145.146 28.9292 144.931 28.7274C144.664 28.4751 144.531 28.1528 144.531 27.7603C144.531 27.2754 144.695 26.8788 145.023 26.5705C145.351 26.2621 145.77 26.108 146.28 26.108C146.972 26.108 147.499 26.4177 147.861 27.0372L147.483 27.3231C147.2 26.841 146.789 26.5999 146.251 26.5999C145.914 26.5999 145.63 26.7106 145.397 26.9321C145.165 27.1535 145.048 27.424 145.048 27.7435C145.048 27.9986 145.141 28.2144 145.326 28.391C145.511 28.5648 145.865 28.768 146.389 29.0007C147.079 29.3034 147.546 29.5865 147.79 29.85C148.033 30.1107 148.155 30.4568 148.155 30.8885Z" fill="black"/>
<path d="M5.53879 41.0654C4.9838 40.4515 4.28865 40.1446 3.45336 40.1446C2.69095 40.1446 2.02944 40.4249 1.46884 40.9855C0.911042 41.5461 0.632143 42.2216 0.632143 43.0121C0.632143 43.8025 0.912443 44.4781 1.47304 45.0387C2.03364 45.5993 2.69655 45.8796 3.46177 45.8796C4.25502 45.8796 4.94456 45.5782 5.53038 44.9756V45.6399C4.91653 46.1164 4.27324 46.3547 3.60052 46.3547C2.61106 46.3547 1.78277 46.0337 1.11566 45.3918C0.448547 44.7499 0.11499 43.9567 0.11499 43.0121C0.11499 42.0843 0.449949 41.2938 1.11987 40.6407C1.78978 39.9876 2.58864 39.6611 3.51643 39.6611C4.30687 39.6611 4.981 39.905 5.53879 40.3927V41.0654Z" fill="black"/>
<path d="M12.7663 43.0121C12.7663 43.9287 12.4356 44.7149 11.7741 45.3708C11.1154 46.0267 10.3235 46.3547 9.39852 46.3547C8.46793 46.3547 7.67187 46.0267 7.01037 45.3708C6.34886 44.7149 6.01811 43.9287 6.01811 43.0121C6.01811 42.0927 6.34886 41.3051 7.01037 40.6492C7.67468 39.9904 8.47073 39.6611 9.39852 39.6611C10.3235 39.6611 11.1154 39.9904 11.7741 40.6492C12.4356 41.3079 12.7663 42.0955 12.7663 43.0121ZM12.2492 43.0121C12.2492 42.2188 11.9731 41.5447 11.4209 40.9897C10.8687 40.4319 10.1946 40.153 9.39852 40.153C8.60247 40.153 7.92555 40.4319 7.36775 40.9897C6.81276 41.5447 6.53526 42.2188 6.53526 43.0121C6.53526 43.8081 6.81276 44.4837 7.36775 45.0387C7.92555 45.5936 8.60247 45.8711 9.39852 45.8711C10.1946 45.8711 10.8687 45.5936 11.4209 45.0387C11.9731 44.4837 12.2492 43.8081 12.2492 43.0121Z" fill="black"/>
<path d="M19.4809 46.4388L14.2253 40.9267V46.258H13.7292V39.6611L18.9469 45.1311V39.7662H19.4809V46.4388Z" fill="black"/>
<path d="M24.1059 40.2455H22.4114V46.258H21.8943V40.2455H20.1957V39.7662H24.1059V40.2455Z" fill="black"/>
<path d="M28.2557 46.258H27.6334L25.569 43.2517H25.3378V46.258H24.8206V39.7662H25.8886C26.5361 39.7662 27.035 39.9204 27.3854 40.2287C27.7357 40.5342 27.9109 40.9743 27.9109 41.5489C27.9109 42.031 27.754 42.4319 27.44 42.7514C27.1093 43.085 26.6776 43.2517 26.145 43.2517L28.2557 46.258ZM27.4106 41.5321C27.4106 40.6688 26.8948 40.2371 25.8633 40.2371H25.3378V42.8145H25.939C26.3931 42.8145 26.7519 42.7009 27.0154 42.4739C27.2788 42.2441 27.4106 41.9301 27.4106 41.5321Z" fill="black"/>
<path d="M35.3445 43.0121C35.3445 43.9287 35.0137 44.7149 34.3522 45.3708C33.6935 46.0267 32.9017 46.3547 31.9767 46.3547C31.0461 46.3547 30.25 46.0267 29.5885 45.3708C28.927 44.7149 28.5963 43.9287 28.5963 43.0121C28.5963 42.0927 28.927 41.3051 29.5885 40.6492C30.2528 39.9904 31.0489 39.6611 31.9767 39.6611C32.9017 39.6611 33.6935 39.9904 34.3522 40.6492C35.0137 41.3079 35.3445 42.0955 35.3445 43.0121ZM34.8273 43.0121C34.8273 42.2188 34.5512 41.5447 33.999 40.9897C33.4468 40.4319 32.7727 40.153 31.9767 40.153C31.1806 40.153 30.5037 40.4319 29.9459 40.9897C29.3909 41.5447 29.1134 42.2188 29.1134 43.0121C29.1134 43.8081 29.3909 44.4837 29.9459 45.0387C30.5037 45.5936 31.1806 45.8711 31.9767 45.8711C32.7727 45.8711 33.4468 45.5936 33.999 45.0387C34.5512 44.4837 34.8273 43.8081 34.8273 43.0121Z" fill="black"/>
<path d="M38.7417 46.258H36.3073V39.7662H36.8245V45.7744H38.7417V46.258Z" fill="black"/>
<path d="M41.9035 46.258H39.4691V39.7662H39.9862V45.7744H41.9035V46.258Z" fill="black"/>
<path d="M48.7232 43.0121C48.7232 43.9287 48.3924 44.7149 47.7309 45.3708C47.0722 46.0267 46.2804 46.3547 45.3554 46.3547C44.4248 46.3547 43.6287 46.0267 42.9672 45.3708C42.3057 44.7149 41.975 43.9287 41.975 43.0121C41.975 42.0927 42.3057 41.3051 42.9672 40.6492C43.6315 39.9904 44.4276 39.6611 45.3554 39.6611C46.2804 39.6611 47.0722 39.9904 47.7309 40.6492C48.3924 41.3079 48.7232 42.0955 48.7232 43.0121ZM48.206 43.0121C48.206 42.2188 47.9299 41.5447 47.3777 40.9897C46.8256 40.4319 46.1514 40.153 45.3554 40.153C44.5593 40.153 43.8824 40.4319 43.3246 40.9897C42.7696 41.5447 42.4921 42.2188 42.4921 43.0121C42.4921 43.8081 42.7696 44.4837 43.3246 45.0387C43.8824 45.5936 44.5593 45.8711 45.3554 45.8711C46.1514 45.8711 46.8256 45.5936 47.3777 45.0387C47.9299 44.4837 48.206 43.8081 48.206 43.0121Z" fill="black"/>
<path d="M55.4462 40.2455H53.0538V42.4697H55.2149V42.9448H53.0538V46.258H52.5367V39.7662H55.4462V40.2455Z" fill="black"/>
<path d="M59.6002 46.258H56.3964V39.7662H59.6002V40.2455H56.9136V42.4613H59.5203V42.9448H56.9136V45.7744H59.6002V46.258Z" fill="black"/>
<path d="M65.4529 43.0121C65.4529 43.9931 65.1305 44.7794 64.4859 45.3708C63.8412 45.9622 62.9919 46.258 61.9379 46.258H60.7439V39.7662H62.0514C63.0577 39.7662 63.8762 40.0675 64.5069 40.6702C65.1376 41.27 65.4529 42.0507 65.4529 43.0121ZM64.9273 43.0121C64.9273 42.1852 64.6554 41.5181 64.1117 41.0107C63.5679 40.5006 62.8531 40.2455 61.9674 40.2455H61.261V45.7744H61.9295C62.8209 45.7744 63.5426 45.5194 64.0948 45.0092C64.6498 44.4991 64.9273 43.8334 64.9273 43.0121Z" fill="black"/>
<path d="M69.5985 46.258H66.3947V39.7662H69.5985V40.2455H66.9118V42.4613H69.5186V42.9448H66.9118V45.7744H69.5985V46.258Z" fill="black"/>
<path d="M74.1772 46.258H73.555L71.4905 43.2517H71.2593V46.258H70.7421V39.7662H71.8101C72.4576 39.7662 72.9565 39.9204 73.3069 40.2287C73.6573 40.5342 73.8325 40.9743 73.8325 41.5489C73.8325 42.031 73.6755 42.4319 73.3615 42.7514C73.0308 43.085 72.5991 43.2517 72.0666 43.2517L74.1772 46.258ZM73.3321 41.5321C73.3321 40.6688 72.8164 40.2371 71.7849 40.2371H71.2593V42.8145H71.8605C72.3146 42.8145 72.6734 42.7009 72.9369 42.4739C73.2004 42.2441 73.3321 41.9301 73.3321 41.5321Z" fill="black"/>
<path d="M80.0046 46.258H79.4623L78.6382 44.2608H75.7413L74.9172 46.258H74.3832L77.1876 39.535L80.0046 46.258ZM78.428 43.7773L77.1876 40.7711L75.9515 43.7773H78.428Z" fill="black"/>
<path d="M83.0739 46.258H80.6395V39.7662H81.1567V45.7744H83.0739V46.258Z" fill="black"/>
<path d="M87.0051 46.258H83.8013V39.7662H87.0051V40.2455H84.3185V42.4613H86.9253V42.9448H84.3185V45.7744H87.0051V46.258Z" fill="black"/>
<path d="M95.7085 43.0121C95.7085 43.9931 95.3861 44.7794 94.7414 45.3708C94.0967 45.9622 93.2474 46.258 92.1935 46.258H90.9994V39.7662H92.307C93.3133 39.7662 94.1318 40.0675 94.7624 40.6702C95.3931 41.27 95.7085 42.0507 95.7085 43.0121ZM95.1829 43.0121C95.1829 42.1852 94.911 41.5181 94.3672 41.0107C93.8234 40.5006 93.1087 40.2455 92.2229 40.2455H91.5166V45.7744H92.1851C93.0764 45.7744 93.7982 45.5194 94.3504 45.0092C94.9054 44.4991 95.1829 43.8334 95.1829 43.0121Z" fill="black"/>
<path d="M99.8541 46.258H96.6503V39.7662H99.8541V40.2455H97.1674V42.4613H99.7742V42.9448H97.1674V45.7744H99.8541V46.258Z" fill="black"/>
<path d="M103.432 46.258H100.998V39.7662H101.515V45.7744H103.432V46.258Z" fill="black"/>
<path d="M106.594 46.258H104.159V39.7662H104.677V45.7744H106.594V46.258Z" fill="black"/>
<path d="M110.525 46.258H107.321V39.7662H110.525V40.2455H107.838V42.4613H110.445V42.9448H107.838V45.7744H110.525V46.258Z" fill="black"/>
<path d="M117.429 40.2455H115.037V42.4697H117.198V42.9448H115.037V46.258H114.519V39.7662H117.429V40.2455Z" fill="black"/>
<path d="M118.905 46.258H118.388V39.7662H118.905V46.258Z" fill="black"/>
<path d="M125.989 46.4388L120.734 40.9267V46.258H120.237V39.6611L125.455 45.1311V39.7662H125.989V46.4388Z" fill="black"/>
<path d="M132.241 46.258H131.699L130.875 44.2608H127.978L127.154 46.258H126.62L129.424 39.535L132.241 46.258ZM130.665 43.7773L129.424 40.7711L128.188 43.7773H130.665Z" fill="black"/>
<path d="M138.628 46.4388L133.372 40.9267V46.258H132.876V39.6611L138.094 45.1311V39.7662H138.628V46.4388Z" fill="black"/>
<path d="M144.027 39.7662L140.272 45.7744H143.968V46.258H139.389L143.152 40.2455H139.776V39.7662H144.027Z" fill="black"/>
<path d="M148.021 46.258H144.817V39.7662H148.021V40.2455H145.334V42.4613H147.941V42.9448H145.334V45.7744H148.021V46.258Z" fill="black"/>
<path d="M38.7207 57.9947C38.7207 58.5301 38.5245 58.9828 38.1321 59.3528C37.7424 59.7228 37.2617 59.9078 36.6899 59.9078C36.2302 59.9078 35.8224 59.7732 35.4664 59.5042C35.1132 59.2323 34.8722 58.8665 34.7432 58.4068L35.2183 58.2344C35.2996 58.5708 35.4678 58.8483 35.7229 59.0669C36.0004 59.3051 36.3283 59.4243 36.7067 59.4243C37.1188 59.4243 37.4706 59.2827 37.7621 58.9996C38.0564 58.7165 38.2035 58.3759 38.2035 57.9779C38.2035 57.6864 38.0942 57.4383 37.8756 57.2337C37.6682 57.0431 37.2842 56.8175 36.7236 56.5568C36.1209 56.2765 35.7117 56.0354 35.4958 55.8336C35.2296 55.5814 35.0964 55.259 35.0964 54.8666C35.0964 54.3817 35.2604 53.985 35.5883 53.6767C35.9163 53.3684 36.3353 53.2142 36.8455 53.2142C37.5378 53.2142 38.0648 53.524 38.4264 54.1434L38.048 54.4293C37.7649 53.9472 37.3542 53.7062 36.8161 53.7062C36.4797 53.7062 36.1952 53.8169 35.9625 54.0383C35.7299 54.2597 35.6136 54.5302 35.6136 54.8498C35.6136 55.1048 35.7061 55.3207 35.8911 55.4973C36.0761 55.6711 36.4306 55.8743 36.9548 56.1069C37.6443 56.4096 38.111 56.6927 38.3549 56.9562C38.5988 57.2169 38.7207 57.5631 38.7207 57.9947Z" fill="black"/>
<path d="M48.0673 53.3193L45.8053 60.0003L43.4718 54.4125L41.1383 60.0003L38.8721 53.3193H39.3976L41.1971 58.638L43.4718 53.189L45.7422 58.638L47.5417 53.3193H48.0673Z" fill="black"/>
<path d="M49.2614 59.8111H48.7442V53.3193H49.2614V59.8111Z" fill="black"/>
<path d="M54.2521 57.9947C54.2521 58.5301 54.0559 58.9828 53.6635 59.3528C53.2739 59.7228 52.7931 59.9078 52.2213 59.9078C51.7616 59.9078 51.3538 59.7732 50.9978 59.5042C50.6447 59.2323 50.4036 58.8665 50.2747 58.4068L50.7498 58.2344C50.8311 58.5708 50.9992 58.8483 51.2543 59.0669C51.5318 59.3051 51.8598 59.4243 52.2382 59.4243C52.6502 59.4243 53.002 59.2827 53.2935 58.9996C53.5878 58.7165 53.735 58.3759 53.735 57.9779C53.735 57.6864 53.6256 57.4383 53.407 57.2337C53.1996 57.0431 52.8156 56.8175 52.255 56.5568C51.6523 56.2765 51.2431 56.0354 51.0273 55.8336C50.761 55.5814 50.6278 55.259 50.6278 54.8666C50.6278 54.3817 50.7918 53.985 51.1198 53.6767C51.4477 53.3684 51.8668 53.2142 52.3769 53.2142C53.0692 53.2142 53.5962 53.524 53.9578 54.1434L53.5794 54.4293C53.2963 53.9472 52.8856 53.7062 52.3475 53.7062C52.0111 53.7062 51.7266 53.8169 51.494 54.0383C51.2613 54.2597 51.145 54.5302 51.145 54.8498C51.145 55.1048 51.2375 55.3207 51.4225 55.4973C51.6075 55.6711 51.9621 55.8743 52.4862 56.1069C53.1758 56.4096 53.6425 56.6927 53.8863 56.9562C54.1302 57.2169 54.2521 57.5631 54.2521 57.9947Z" fill="black"/>
<path d="M58.9191 57.9947C58.9191 58.5301 58.7229 58.9828 58.3305 59.3528C57.9408 59.7228 57.4601 59.9078 56.8883 59.9078C56.4286 59.9078 56.0208 59.7732 55.6648 59.5042C55.3116 59.2323 55.0706 58.8665 54.9416 58.4068L55.4168 58.2344C55.498 58.5708 55.6662 58.8483 55.9213 59.0669C56.1988 59.3051 56.5267 59.4243 56.9051 59.4243C57.3172 59.4243 57.669 59.2827 57.9605 58.9996C58.2548 58.7165 58.4019 58.3759 58.4019 57.9779C58.4019 57.6864 58.2926 57.4383 58.074 57.2337C57.8666 57.0431 57.4826 56.8175 56.922 56.5568C56.3193 56.2765 55.9101 56.0354 55.6942 55.8336C55.428 55.5814 55.2948 55.259 55.2948 54.8666C55.2948 54.3817 55.4588 53.985 55.7867 53.6767C56.1147 53.3684 56.5337 53.2142 57.0439 53.2142C57.7362 53.2142 58.2632 53.524 58.6248 54.1434L58.2464 54.4293C57.9633 53.9472 57.5526 53.7062 57.0145 53.7062C56.6781 53.7062 56.3936 53.8169 56.1609 54.0383C55.9283 54.2597 55.812 54.5302 55.812 54.8498C55.812 55.1048 55.9045 55.3207 56.0895 55.4973C56.2745 55.6711 56.629 55.8743 57.1532 56.1069C57.8427 56.4096 58.3094 56.6927 58.5533 56.9562C58.7972 57.2169 58.9191 57.5631 58.9191 57.9947Z" fill="black"/>
<path d="M65.6883 53.7987H63.296V56.0228H65.4571V56.4979H63.296V59.8111H62.7788V53.3193H65.6883V53.7987Z" fill="black"/>
<path d="M69.8424 59.8111H66.6386V53.3193H69.8424V53.7987H67.1557V56.0144H69.7625V56.4979H67.1557V59.3276H69.8424V59.8111Z" fill="black"/>
<path d="M75.695 56.5652C75.695 57.5463 75.3727 58.3325 74.728 58.9239C74.0833 59.5154 73.234 59.8111 72.1801 59.8111H70.986V53.3193H72.2936C73.2999 53.3193 74.1184 53.6207 74.749 54.2233C75.3797 54.8231 75.695 55.6038 75.695 56.5652ZM75.1695 56.5652C75.1695 55.7383 74.8976 55.0712 74.3538 54.5639C73.81 54.0537 73.0953 53.7987 72.2095 53.7987H71.5032V59.3276H72.1717C73.063 59.3276 73.7848 59.0725 74.337 58.5623C74.892 58.0522 75.1695 57.3865 75.1695 56.5652Z" fill="black"/>
<path d="M79.8407 59.8111H76.6368V53.3193H79.8407V53.7987H77.154V56.0144H79.7608V56.4979H77.154V59.3276H79.8407V59.8111Z" fill="black"/>
<path d="M84.4194 59.8111H83.7971L81.7327 56.8049H81.5015V59.8111H80.9843V53.3193H82.0522C82.6997 53.3193 83.1987 53.4735 83.549 53.7818C83.8994 54.0874 84.0746 54.5274 84.0746 55.102C84.0746 55.5842 83.9176 55.985 83.6037 56.3045C83.2729 56.6381 82.8413 56.8049 82.3087 56.8049L84.4194 59.8111ZM83.5743 55.0852C83.5743 54.2219 83.0585 53.7902 82.027 53.7902H81.5015V56.3676H82.1027C82.5568 56.3676 82.9156 56.2541 83.179 56.027C83.4425 55.7972 83.5743 55.4833 83.5743 55.0852Z" fill="black"/>
<path d="M90.2468 59.8111H89.7044L88.8803 57.8139H85.9835L85.1594 59.8111H84.6254L87.4298 53.0881L90.2468 59.8111ZM88.6701 57.3304L87.4298 54.3242L86.1937 57.3304H88.6701Z" fill="black"/>
<path d="M93.3161 59.8111H90.8817V53.3193H91.3988V59.3276H93.3161V59.8111Z" fill="black"/>
<path d="M101.818 59.8111H101.275L100.451 57.8139H97.5542L96.7302 59.8111H96.1962L99.0006 53.0881L101.818 59.8111ZM100.241 57.3304L99.0006 54.3242L97.7645 57.3304H100.241Z" fill="black"/>
<path d="M106.619 57.65C106.619 58.3395 106.415 58.8889 106.005 59.2981C105.599 59.7046 105.054 59.9078 104.37 59.9078C103.683 59.9078 103.136 59.7046 102.73 59.2981C102.324 58.8917 102.12 58.3423 102.12 57.65V53.3193H102.637V57.5533C102.637 58.1531 102.787 58.6156 103.087 58.9408C103.39 59.2631 103.818 59.4243 104.37 59.4243C104.93 59.4243 105.359 59.2631 105.656 58.9408C105.953 58.6184 106.102 58.1559 106.102 57.5533V53.3193H106.619V57.65Z" fill="black"/>
<path d="M112.611 56.5652C112.611 57.5463 112.288 58.3325 111.644 58.9239C110.999 59.5154 110.15 59.8111 109.096 59.8111H107.901V53.3193H109.209C110.215 53.3193 111.034 53.6207 111.665 54.2233C112.295 54.8231 112.611 55.6038 112.611 56.5652ZM112.085 56.5652C112.085 55.7383 111.813 55.0712 111.269 54.5639C110.726 54.0537 110.011 53.7987 109.125 53.7987H108.419V59.3276H109.087C109.979 59.3276 110.7 59.0725 111.252 58.5623C111.807 58.0522 112.085 57.3865 112.085 56.5652Z" fill="black"/>
<path d="M114.078 59.8111H113.561V53.3193H114.078V59.8111Z" fill="black"/>
<path d="M118.707 53.7987H117.013V59.8111H116.495V53.7987H114.797V53.3193H118.707V53.7987Z" fill="black"/>
<path d="M128.079 56.5652C128.079 57.4818 127.748 58.268 127.087 58.9239C126.428 59.5798 125.636 59.9078 124.711 59.9078C123.78 59.9078 122.984 59.5798 122.323 58.9239C121.661 58.268 121.331 57.4818 121.331 56.5652C121.331 55.6458 121.661 54.8582 122.323 54.2023C122.987 53.5436 123.783 53.2142 124.711 53.2142C125.636 53.2142 126.428 53.5436 127.087 54.2023C127.748 54.861 128.079 55.6486 128.079 56.5652ZM127.562 56.5652C127.562 55.772 127.286 55.0978 126.733 54.5428C126.181 53.9851 125.507 53.7062 124.711 53.7062C123.915 53.7062 123.238 53.9851 122.68 54.5428C122.125 55.0978 121.848 55.772 121.848 56.5652C121.848 57.3613 122.125 58.0368 122.68 58.5918C123.238 59.1468 123.915 59.4243 124.711 59.4243C125.507 59.4243 126.181 59.1468 126.733 58.5918C127.286 58.0368 127.562 57.3613 127.562 56.5652Z" fill="black"/>
<path d="M131.951 53.7987H129.559V56.0228H131.72V56.4979H129.559V59.8111H129.042V53.3193H131.951V53.7987Z" fill="black"/>
<path d="M135.811 53.7987H133.419V56.0228H135.58V56.4979H133.419V59.8111H132.901V53.3193H135.811V53.7987Z" fill="black"/>
<path d="M137.287 59.8111H136.77V53.3193H137.287V59.8111Z" fill="black"/>
<path d="M143.682 54.6185C143.127 54.0047 142.432 53.6977 141.596 53.6977C140.834 53.6977 140.172 53.978 139.612 54.5386C139.054 55.0992 138.775 55.7748 138.775 56.5652C138.775 57.3557 139.055 58.0312 139.616 58.5918C140.177 59.1524 140.84 59.4327 141.605 59.4327C142.398 59.4327 143.088 59.1314 143.673 58.5287V59.193C143.06 59.6695 142.416 59.9078 141.743 59.9078C140.754 59.9078 139.926 59.5868 139.259 58.945C138.592 58.3031 138.258 57.5098 138.258 56.5652C138.258 55.6374 138.593 54.847 139.263 54.1939C139.933 53.5408 140.732 53.2142 141.659 53.2142C142.45 53.2142 143.124 53.4581 143.682 53.9458V54.6185Z" fill="black"/>
<path d="M148.021 59.8111H144.817V53.3193H148.021V53.7987H145.334V56.0144H147.941V56.4979H145.334V59.3276H148.021V59.8111Z" fill="black"/>
<path d="M33.5929 11.6387C33.5929 11.8828 33.395 12.0807 33.1509 12.0807C32.9069 12.0807 32.709 11.8828 32.709 11.6387C32.709 11.3946 32.9069 11.1968 33.1509 11.1968C33.395 11.1968 33.5929 11.3946 33.5929 11.6387Z" fill="black"/>
<path d="M35.6553 11.6387C35.6553 11.8828 35.4574 12.0807 35.2134 12.0807C34.9693 12.0807 34.7714 11.8828 34.7714 11.6387C34.7714 11.3946 34.9693 11.1968 35.2134 11.1968C35.4574 11.1968 35.6553 11.3946 35.6553 11.6387Z" fill="black"/>
<path fill-rule="evenodd" clip-rule="evenodd" d="M42.5803 24.1899L44.0287 25.1556L43.7835 25.5233L42.5803 24.7211L41.377 25.5233L41.1318 25.1556L42.5803 24.1899Z" fill="black"/>
<path fill-rule="evenodd" clip-rule="evenodd" d="M63.6631 24.0139L62.3373 25.4871L62.0088 25.1914L63.3346 23.7183L63.6631 24.0139Z" fill="black"/>
<path fill-rule="evenodd" clip-rule="evenodd" d="M73.6795 24.0139L72.3536 25.4871L72.0251 25.1914L73.351 23.7183L73.6795 24.0139Z" fill="black"/>
<path d="M170.156 38.155L177.375 10.0175L196.968 0L195.053 8.10241L186.655 12.2273L186.066 14.879L192.695 11.638L191.075 19.1512L184.004 22.5394L181.794 32.2623L170.156 38.155Z" fill="#EC1F0A"/>
<path d="M177.374 2.20947H168.093H167.946V12.5216H157.339V21.9499H167.946V32.4094H171.629L177.374 9.86994V2.20947Z" fill="#CBCBC9"/>
</svg>
