<svg width="264" height="40" viewBox="0 0 264 40" fill="none" xmlns="http://www.w3.org/2000/svg">
<path fill-rule="evenodd" clip-rule="evenodd" d="M74.1065 0.120226C71.5062 0.592116 69.7469 1.99429 68.7164 4.41611C68.0181 6.05708 67.7282 7.8649 67.7264 10.5872C67.725 12.6802 67.7914 13.3255 68.1606 14.8108C68.9759 18.0909 70.9475 20.3171 73.759 21.1318C75.7921 21.7211 78.3405 21.6111 80.6688 20.8338C81.4369 20.5774 82.4924 20.0842 82.9207 19.7816L83.1585 19.6136V14.2994V8.98529L79.4182 9.00778L75.6778 9.03036V10.2845V11.5386L77.6453 11.5618L79.6128 11.5851V14.8996V18.2141L79.1937 18.4422C78.3235 18.9158 76.5299 19.1131 75.4616 18.8526C73.3654 18.3415 72.1486 16.4873 71.7403 13.1819C71.6187 12.1971 71.6188 8.99957 71.7406 7.98469C72.1427 4.63129 73.2004 2.9738 75.1878 2.58277C75.8655 2.44941 76.7185 2.52284 77.2584 2.76094C78.1367 3.14825 78.8054 4.14712 78.8995 5.21251C78.9252 5.50467 78.9893 5.77236 79.0417 5.8073C79.0942 5.84224 79.9893 5.87139 81.0309 5.87217L82.9247 5.87346L82.8744 5.11668C82.7637 3.44621 81.9657 2.00891 80.6711 1.14782C80.0219 0.71597 78.897 0.298309 77.9264 0.128702C76.9848 -0.0358886 74.9911 -0.0402995 74.1065 0.120226ZM129.08 0.0446337C128.166 0.210435 127.474 0.391719 126.925 0.609414C125.248 1.274 123.901 2.63674 123.143 4.43453C122.269 6.50571 121.908 9.5435 122.163 12.6629C122.328 14.6727 122.686 16.1063 123.375 17.5064C124.104 18.9877 125.077 19.9888 126.443 20.6602C129.062 21.948 133.152 21.7536 135.387 20.2351C137.65 18.6985 138.775 16.0215 138.987 11.6683C139.05 10.3833 138.929 8.3271 138.721 7.14816C138.285 4.67635 137.277 2.72626 135.845 1.58606C135.148 1.03114 134.118 0.529757 133.151 0.275303C132.448 0.0906465 132.095 0.0538016 130.81 0.0315736C129.978 0.0172163 129.199 0.0230112 129.08 0.0446337ZM154.483 0.122907C151.019 0.705332 149.076 2.74797 149.261 5.61399C149.346 6.92994 149.855 7.9859 150.889 8.98849C151.635 9.71181 152.598 10.352 154.722 11.5366C157.488 13.079 158.362 13.7742 158.891 14.8518C159.103 15.2828 159.133 15.4411 159.129 16.1225C159.126 16.7924 159.094 16.9627 158.896 17.344C158.603 17.9079 157.998 18.4416 157.373 18.6872C156.69 18.9554 154.929 19.0135 153.891 18.802C152.698 18.559 151.498 18.0707 150.257 17.3239C149.989 17.1626 149.746 17.0307 149.717 17.0307C149.687 17.0307 149.663 17.8448 149.663 18.8398V20.6489L150.766 20.909C152.671 21.3581 153.623 21.4759 155.371 21.4787C156.576 21.4806 157.152 21.4434 157.706 21.328C161.298 20.5793 163.089 18.661 163.091 15.5604C163.092 14.7788 163.056 14.5492 162.837 13.9132C162.183 12.0169 160.891 10.8507 157.21 8.83091C155.197 7.72686 154.542 7.30133 153.961 6.72046C153.4 6.15905 153.213 5.72176 153.211 4.96065C153.207 3.84925 153.799 3.07525 154.939 2.70014C155.301 2.58096 155.672 2.54498 156.495 2.54956C157.76 2.55648 158.75 2.77297 160.426 3.40875C160.99 3.62264 161.465 3.7977 161.481 3.7977C161.498 3.7977 161.511 3.06487 161.511 2.16909V0.540481L160.754 0.396302C158.699 0.00476124 155.909 -0.11693 154.483 0.122907ZM0.741211 10.7537V21.1822L4.00591 21.1805C7.47418 21.1788 8.47529 21.1031 9.73534 20.7475C12.5148 19.9632 14.1915 17.8154 14.7974 14.263C15.3152 11.2276 15.1358 7.51972 14.3589 5.19746C13.4999 2.62982 11.8752 1.21338 9.06968 0.586495C8.28633 0.411525 7.93764 0.3944 4.48156 0.361101L0.741211 0.325121V10.7537ZM26.4264 10.7602V21.1822H28.1992H29.9721V10.7602V0.338095H28.1992H26.4264V10.7602ZM47.0514 0.446207C47.0301 0.505713 46.6004 1.76086 46.0963 3.23551C45.2827 5.61616 42.776 12.9484 41.173 17.6361C40.8558 18.5637 40.463 19.7059 40.3001 20.1744C40.1373 20.6428 40.004 21.0611 40.004 21.1041C40.004 21.1481 40.8052 21.182 41.8418 21.1817L43.6795 21.1813L44.5818 18.3699L45.484 15.5585L49.2445 15.5811L53.0052 15.6036L53.0717 15.8198C53.1082 15.9388 53.5119 17.1939 53.9686 18.6091L54.7991 21.1822H56.6523H58.5055L57.2894 17.6145C56.6207 15.6523 55.7502 13.0932 55.3551 11.9278C54.96 10.7623 54.0646 8.13518 53.3653 6.08969C52.666 4.0442 51.9387 1.91334 51.7491 1.35435L51.4044 0.338095H49.2473C47.5998 0.338095 47.0809 0.363609 47.0514 0.446207ZM94.9201 10.7587V21.1822H96.5628H98.2055L98.2276 13.1603L98.2496 5.1383L98.9514 6.4789C99.6268 7.76933 101.801 11.9143 103.17 14.5225C103.532 15.2122 104.46 16.9919 105.233 18.4773L106.638 21.1781L108.649 21.1801L110.66 21.1822V10.7602V0.338095H109.017H107.374L107.352 7.98443L107.33 15.6307L103.334 8.00605L99.3377 0.38134L97.1289 0.358247L94.9201 0.335154V10.7587ZM174.051 10.7621V21.199L177.791 21.1585C181.847 21.1147 182.232 21.0749 183.672 20.5515C187.008 19.3376 188.549 15.8398 188.382 9.85807C188.238 4.66407 186.794 1.99101 183.547 0.90547C182.111 0.425276 181.817 0.397427 177.791 0.359977L174.051 0.325121V10.7621ZM204.134 2.04628C203.819 2.98573 202.366 7.23785 200.905 11.4953C199.443 15.7528 198.099 19.6748 197.916 20.2109L197.585 21.1856L199.453 21.1622L201.322 21.139L201.475 20.6633C201.56 20.4016 201.964 19.1464 202.373 17.874L203.117 15.5604H206.869H210.621L211.107 17.0956C211.375 17.9399 211.78 19.1951 212.007 19.8849L212.42 21.139L214.251 21.1623C215.375 21.1767 216.081 21.1537 216.081 21.1029C216.081 21.0263 213.703 14.0114 210.919 5.87346C210.276 3.99447 209.589 1.98028 209.394 1.3976L209.037 0.338095H206.872H204.706L204.134 2.04628ZM223.346 1.67869V3.01929H225.984H228.621V12.1008V21.1822H230.394H232.167V12.1008V3.01929H234.805H237.442V1.67869V0.338095H230.394H223.346V1.67869ZM251.642 0.833943C251.547 1.10829 250.963 2.81171 250.344 4.61936C249.726 6.427 248.753 9.2682 248.182 10.9331C245.669 18.2698 244.707 21.0955 244.707 21.1373C244.707 21.162 245.537 21.1822 246.552 21.1822H248.398L249.295 18.3704L250.191 15.5585L253.95 15.5811L257.708 15.6036L257.991 16.4685C258.147 16.9442 258.552 18.1994 258.892 19.2578L259.51 21.1822H261.362C262.38 21.1822 263.214 21.1659 263.214 21.1459C263.214 21.1259 263.1 20.7853 262.961 20.3891C262.528 19.1574 256.28 0.826159 256.215 0.597565L256.153 0.38134L253.984 0.358247L251.815 0.335154L251.642 0.833943ZM131.964 2.75939C133.662 3.40426 134.655 5.30505 134.969 8.51306C135.093 9.78611 135.019 13.0617 134.844 14.0468C134.525 15.8339 133.97 17.1492 133.215 17.9035C131.675 19.4438 128.935 19.3023 127.601 17.6136C126.974 16.8214 126.553 15.7454 126.266 14.2089C126.072 13.1725 125.996 9.70308 126.136 8.3406C126.477 5.03166 127.626 3.10872 129.556 2.61469C130.182 2.45451 131.345 2.52439 131.964 2.75939ZM7.35034 2.97207C9.56929 3.39665 10.6953 4.92631 11.0274 7.96748C11.1473 9.06608 11.1449 12.1999 11.0232 13.3299C10.8145 15.2685 10.2978 16.6564 9.48281 17.4679C8.616 18.331 7.83732 18.5764 5.73555 18.6492L4.28697 18.6994V10.7728V2.84631H5.49011C6.18361 2.84631 6.97163 2.89959 7.35034 2.97207ZM180.681 2.97544C182.881 3.39466 183.964 4.83645 184.351 7.86274C184.493 8.97128 184.493 12.3568 184.352 13.4414C183.948 16.5447 182.91 18.0574 180.883 18.5002C180.622 18.5574 179.775 18.6253 179.002 18.6512L177.597 18.6982V10.7723V2.84631H178.8C179.507 2.84631 180.283 2.89959 180.681 2.97544ZM50.6737 8.18906C51.4207 10.5806 52.0541 12.5947 52.081 12.6649C52.1236 12.776 51.7562 12.7927 49.2669 12.7927C47.3166 12.7927 46.4037 12.7636 46.4037 12.7014C46.4037 12.6513 46.8664 11.1431 47.4318 9.34994C47.9972 7.55682 48.6267 5.55354 48.8306 4.89829C49.0346 4.24304 49.2271 3.73707 49.2584 3.77392C49.2896 3.81076 49.9265 5.79761 50.6737 8.18906ZM208.341 8.33843L209.731 12.7494L208.328 12.7731C207.557 12.7862 206.266 12.7862 205.459 12.7731L203.993 12.7494L205.108 9.20333C205.721 7.25298 206.364 5.20965 206.537 4.6626C206.71 4.11555 206.874 3.72635 206.901 3.7977C206.929 3.86906 207.576 5.91238 208.341 8.33843ZM254.565 5.57075C254.86 6.52214 255.469 8.46817 255.918 9.89526C256.366 11.3223 256.754 12.558 256.78 12.6413C256.823 12.7833 256.65 12.7927 253.966 12.7927C252.393 12.7927 251.107 12.7636 251.107 12.7282C251.107 12.6927 251.596 11.1067 252.195 9.20368C252.793 7.30072 253.425 5.28844 253.6 4.73188C253.774 4.1754 253.942 3.74728 253.973 3.78049C254.004 3.81379 254.27 4.61936 254.565 5.57075Z" fill="#013AA7"/>
<path fill-rule="evenodd" clip-rule="evenodd" d="M44.796 28.8221C44.8313 28.8576 45.0811 28.9112 45.3509 28.9414C45.8088 28.9926 45.7974 28.9956 45.1791 28.9857C44.8148 28.98 44.535 28.9457 44.5572 28.9098C44.5795 28.8738 44.5175 28.8443 44.4196 28.8443C44.3217 28.8443 44.2415 28.8832 44.2415 28.9308C44.2415 28.9783 44.0865 29.0173 43.8969 29.0173C43.5087 29.0173 42.6437 29.4861 42.7411 29.6437C42.7725 29.6944 42.7595 29.712 42.7123 29.6829C42.5995 29.6132 42.2799 29.8413 42.154 30.0812L42.0543 30.2714L42.2614 30.099C42.468 29.9272 42.468 29.9275 42.2542 30.1691C42.134 30.3048 42.0252 30.368 42.0068 30.3126C41.9414 30.1164 41.6448 30.7505 41.6908 30.9883C41.7253 31.1661 41.7186 31.1824 41.6633 31.0555C41.6232 30.9636 41.5694 30.9246 41.5438 30.969C41.4221 31.1797 41.2077 31.9632 41.2521 32.0351C41.2797 32.0797 41.2635 32.1292 41.2161 32.1452C40.9585 32.232 40.8699 35.9142 41.1154 36.3367C41.2058 36.4926 41.2098 36.4922 41.2206 36.3257C41.2301 36.1807 41.2431 36.1876 41.3011 36.3689C41.3392 36.4878 41.3737 36.6435 41.3777 36.7149C41.3842 36.8302 41.3757 36.8302 41.3011 36.7149C41.2286 36.6026 41.2172 36.6044 41.216 36.7288C41.2138 36.9671 41.5775 37.839 41.6584 37.789C41.6997 37.7635 41.7336 37.7875 41.7336 37.8425C41.7336 37.8974 41.8191 38.0623 41.9236 38.2091C42.028 38.3559 42.0629 38.4446 42.001 38.4064C41.9352 38.3657 41.9514 38.4328 42.0401 38.5681C42.1283 38.7028 42.2422 38.7799 42.313 38.7528C42.384 38.7254 42.411 38.744 42.378 38.7974C42.3093 38.9086 42.6049 39.1409 42.7271 39.0718C42.7752 39.0447 42.7846 39.0554 42.7479 39.0957C42.642 39.2122 43.3843 39.6254 43.9683 39.775C44.2617 39.8502 44.6864 39.8943 44.9121 39.873C45.2405 39.8421 45.2707 39.849 45.0631 39.9078C44.8202 39.9764 44.8174 39.9816 45.0199 39.9905C45.4569 40.0097 46.1582 39.8907 46.0421 39.8171C45.9617 39.7661 45.9869 39.7443 46.1276 39.7433C46.2375 39.7426 46.3059 39.7768 46.2796 39.8193C46.2516 39.8644 46.3662 39.8653 46.5555 39.8214C46.7336 39.78 46.9072 39.7452 46.9414 39.7441C46.9756 39.743 46.9811 39.6837 46.9538 39.6123C46.9222 39.5301 46.9549 39.4826 47.0429 39.4826C47.1194 39.4826 47.1819 39.5206 47.1819 39.5672C47.1819 39.6187 47.2666 39.6133 47.3981 39.5533C47.517 39.4992 47.6143 39.4221 47.6143 39.3822C47.6143 39.3423 47.6435 39.3142 47.6792 39.3198C47.852 39.3471 47.9039 39.2978 47.7873 39.2171C47.6804 39.1431 47.688 39.1323 47.8305 39.1558C47.9956 39.183 48.6125 38.7222 48.5264 38.636C48.5044 38.6141 48.5548 38.5329 48.6383 38.4556C48.7217 38.3783 48.7474 38.3344 48.6954 38.3582C48.6433 38.382 48.6901 38.3221 48.7994 38.2252C48.9086 38.1283 48.998 37.9606 48.998 37.8525C48.998 37.7445 49.0299 37.6758 49.0688 37.6998C49.192 37.7759 49.3755 37.1229 49.3699 36.6284C49.3652 36.2124 49.3727 36.1907 49.4293 36.4554C49.465 36.6219 49.4993 36.6949 49.5055 36.6176C49.5118 36.5403 49.5397 36.3457 49.5674 36.1851C49.6058 35.9641 49.5955 35.9247 49.5256 36.023C49.4747 36.0943 49.4325 36.1115 49.4318 36.0611C49.4311 36.0108 49.4876 35.894 49.5574 35.8016C49.6548 35.6729 49.6851 35.3495 49.6871 34.4157C49.6887 33.7458 49.6617 33.1694 49.6273 33.135C49.5928 33.1005 49.5591 32.9286 49.5523 32.7529C49.5456 32.5774 49.4956 32.2585 49.4413 32.0444C49.387 31.8304 49.3208 31.5599 49.2941 31.4435C49.2546 31.2714 49.2291 31.2552 49.1576 31.357C49.0903 31.4527 49.0801 31.4342 49.1144 31.2789C49.1702 31.0266 49.0037 30.6399 48.8627 30.694C48.7954 30.7198 48.7737 30.6748 48.8017 30.5676C48.828 30.4672 48.8012 30.4011 48.7343 30.4011C48.6732 30.4011 48.6447 30.3797 48.6708 30.3536C48.7485 30.276 48.1169 29.6226 48.0213 29.6817C47.9726 29.7117 47.9598 29.6934 47.9925 29.6404C48.0252 29.5876 47.9635 29.498 47.8546 29.4399C47.6695 29.3413 47.6654 29.3445 47.7873 29.495C47.9054 29.6408 47.9029 29.6498 47.7586 29.5956C47.6715 29.5629 47.5816 29.5362 47.5589 29.5362C47.5362 29.5362 47.5406 29.4989 47.5688 29.4534C47.5969 29.4079 47.502 29.3095 47.3577 29.235C47.209 29.1581 47.0954 29.1377 47.0954 29.188C47.0954 29.2368 47.0577 29.2767 47.0116 29.2767C46.9656 29.2767 46.9503 29.2184 46.9776 29.147C47.0294 29.0122 46.949 28.9949 46.3171 29.0042C46.0494 29.0081 46.0394 29.001 46.2306 28.9426C46.4173 28.8857 46.3891 28.8686 46.0239 28.8172C45.4628 28.7383 44.7152 28.7414 44.796 28.8221ZM81.2774 28.8191C81.1229 28.839 80.9964 28.8917 80.9964 28.9362C80.9964 28.9809 80.81 29.0091 80.5821 28.9993C80.0938 28.978 79.5366 29.1698 79.715 29.2978C79.7987 29.3579 79.7884 29.3665 79.6761 29.3303C79.497 29.2726 78.9777 29.5612 79.0725 29.6657C79.108 29.7049 79.0915 29.7108 79.0359 29.679C78.9044 29.6037 78.6423 29.8657 78.7177 29.9973C78.7495 30.0529 78.7436 30.0694 78.7045 30.034C78.5929 29.9328 78.2429 30.5159 78.1383 30.9773C78.0337 31.4388 78.1005 32.2677 78.2497 32.3599C78.3115 32.3982 78.3249 32.3667 78.2879 32.2703C78.254 32.1822 78.2656 32.1434 78.3164 32.1748C78.4301 32.2451 78.4262 32.4769 78.3113 32.4769C78.2135 32.4769 78.6858 33.2068 78.8488 33.3074C78.9065 33.3432 78.9239 33.3304 78.8908 33.2767C78.8548 33.2185 78.9001 33.2022 79.0145 33.2321C79.1137 33.258 79.1547 33.3041 79.1056 33.3344C78.9898 33.406 79.0994 33.558 79.2667 33.558C79.3423 33.558 79.3858 33.6212 79.371 33.7094C79.3571 33.7926 79.3935 33.8607 79.452 33.8607C79.5104 33.8607 79.6433 33.9406 79.7472 34.0382C79.8511 34.1358 80.0164 34.2218 80.1143 34.2292C80.2123 34.2365 80.2779 34.2663 80.26 34.2952C80.2421 34.3242 80.3421 34.4156 80.4822 34.4984C80.6223 34.5812 80.7375 34.6175 80.7382 34.5792C80.739 34.5408 80.7682 34.5537 80.8031 34.6077C80.901 34.7592 81.6623 35.1607 81.7905 35.1285C81.8532 35.1128 81.875 35.1163 81.8391 35.1364C81.7279 35.1984 81.8596 35.3262 81.985 35.2781C82.05 35.2532 82.1326 35.2804 82.1685 35.3385C82.213 35.4106 82.1978 35.4219 82.1206 35.3743C82.0451 35.3277 82.0283 35.338 82.0701 35.4056C82.1045 35.4613 82.1654 35.4866 82.2055 35.4618C82.2455 35.4371 82.4277 35.5775 82.6103 35.7739C82.7929 35.9703 83.0153 36.2018 83.1046 36.2884C83.2455 36.4248 83.2619 36.5439 83.2283 37.1852C83.1954 37.8118 83.1583 37.9579 82.9859 38.1415C82.874 38.2606 82.7475 38.3582 82.7048 38.3582C82.6621 38.3582 82.5717 38.4137 82.5038 38.4816C82.3969 38.5885 82.4006 38.6095 82.5316 38.6383C82.6147 38.6567 82.1514 38.6693 81.5019 38.6663C80.8526 38.6633 80.3661 38.6895 80.4209 38.7245C80.4809 38.7626 80.4447 38.7885 80.3305 38.7894C80.2258 38.79 80.1061 38.7297 80.0643 38.655C80.0226 38.5805 79.8173 38.481 79.6081 38.4341C79.3989 38.387 79.2073 38.3208 79.1824 38.2868C79.1149 38.1947 78.6404 37.9807 78.4668 37.964C78.3335 37.9511 78.3154 38.0359 78.3154 38.6728V39.3961L78.5965 39.4063L78.8776 39.4166L78.6181 39.4749L78.3587 39.5332L78.6614 39.5997C79.5862 39.8029 80.1236 39.8856 80.0819 39.8182C80.0561 39.7763 80.0956 39.742 80.1697 39.742C80.2438 39.742 80.3045 39.781 80.3045 39.8285C80.3045 39.8761 80.3652 39.915 80.4393 39.915C80.5203 39.915 80.5492 39.8745 80.5117 39.8138C80.469 39.7448 80.4971 39.7311 80.6001 39.7706C80.6831 39.8025 80.8744 39.8291 81.0251 39.8298C81.2338 39.8309 81.2682 39.8512 81.1693 39.915C81.0676 39.9808 81.0888 39.9992 81.2682 40.0002C81.3939 40.0009 81.5192 39.9431 81.5466 39.8718C81.5769 39.7927 81.5467 39.742 81.4693 39.742C81.3995 39.742 81.3423 39.7031 81.3423 39.6555C81.3423 39.608 81.4396 39.5691 81.5585 39.5691C81.6774 39.5691 81.7747 39.608 81.7747 39.6555C81.7747 39.7049 82.0338 39.742 82.3791 39.742C82.8275 39.742 83.0287 39.7034 83.1585 39.5922C83.2548 39.5097 83.4556 39.4362 83.6048 39.4287C83.7539 39.4212 83.9111 39.3524 83.954 39.2759C83.9968 39.1992 84.0718 39.1366 84.1207 39.1366C84.2921 39.1366 84.6782 38.6623 84.6487 38.4879C84.6262 38.3553 84.6386 38.3431 84.7017 38.4357C84.7666 38.5307 84.8127 38.5009 84.9191 38.2952C84.9934 38.1517 85.0276 38.0077 84.9952 37.9752C84.9628 37.9429 84.9936 37.8809 85.0635 37.8378C85.2328 37.7332 85.2502 36.1007 85.0827 36.0447C85.0232 36.0248 84.9745 35.9167 84.9745 35.8044C84.9745 35.6921 84.9019 35.5494 84.8132 35.4873C84.7244 35.4251 84.6427 35.3354 84.6316 35.2878C84.6204 35.2402 84.5763 35.2111 84.5335 35.2229C84.4907 35.2349 84.4653 35.1959 84.4773 35.1364C84.4891 35.077 84.4517 35.0376 84.3939 35.0489C84.3332 35.0608 84.3098 35.0152 84.3383 34.9408C84.3691 34.8605 84.3366 34.8121 84.2517 34.8121C84.177 34.8121 84.075 34.7357 84.025 34.6423C83.9695 34.5388 83.882 34.4926 83.8006 34.5238C83.712 34.5578 83.6508 34.513 83.6189 34.3909C83.5895 34.2785 83.5015 34.2067 83.3934 34.2067C83.2959 34.2067 83.2419 34.1809 83.2734 34.1493C83.3596 34.0632 82.8102 33.7566 82.6676 33.8113C82.5997 33.8374 82.5658 33.8236 82.5923 33.7806C82.6189 33.7376 82.5093 33.6213 82.3488 33.5221C82.0214 33.3197 81.9077 33.2936 81.9991 33.4417C82.0377 33.504 82.0228 33.5179 81.9596 33.4789C81.9039 33.4444 81.8808 33.38 81.9082 33.3356C81.9756 33.2267 81.5337 33.0551 81.2126 33.0655C80.9645 33.0736 80.9627 33.071 81.1693 33.0069L81.3856 32.9399L81.1886 32.8748C80.9527 32.7968 79.9577 31.8241 79.9606 31.6742C79.9631 31.5386 80.2864 30.3362 80.2967 30.4239C80.301 30.4601 80.4627 30.3899 80.6559 30.2679C80.9877 30.0584 81.0649 30.047 82.04 30.0639C82.8064 30.0771 83.0989 30.1132 83.1741 30.2037C83.237 30.2795 83.3542 30.306 83.4836 30.2734C83.6169 30.24 83.6718 30.2536 83.6362 30.3112C83.5823 30.3985 83.7866 30.4365 84.153 30.4072C84.2817 30.3969 84.2964 30.4134 84.2106 30.4717C84.1179 30.5346 84.1236 30.5609 84.2393 30.6053C84.3185 30.6357 84.4011 30.6606 84.4227 30.6606C84.4444 30.6606 84.451 30.3005 84.4373 29.8605L84.4124 29.0605L84.0232 29.0368C83.8092 29.0238 83.5562 28.9781 83.4611 28.9352C83.2656 28.847 81.706 28.7641 81.2774 28.8191ZM140.986 28.8155C140.954 28.8472 140.86 28.8797 140.777 28.8875C140.083 28.9532 139.047 29.3928 139.091 29.6038C139.103 29.6618 139.032 29.7092 138.934 29.7092C138.836 29.7092 138.78 29.7481 138.81 29.7957C138.839 29.8432 138.82 29.8822 138.766 29.8822C138.713 29.8822 138.693 29.9207 138.723 29.9677C138.754 30.0186 138.715 30.03 138.626 29.9959C138.512 29.9521 138.49 29.9725 138.532 30.0823C138.565 30.1677 138.547 30.2177 138.489 30.2055C138.354 30.1771 138.154 30.5834 138.212 30.7687C138.265 30.9405 138.116 30.9775 138.037 30.8119C138.009 30.7525 138.002 30.7901 138.021 30.8955C138.041 31.0009 138.018 31.0788 137.971 31.0685C137.924 31.0582 137.85 31.1393 137.808 31.2488C137.758 31.3768 137.761 31.429 137.816 31.3951C137.863 31.366 137.901 31.4322 137.9 31.542C137.899 31.7027 137.882 31.7164 137.815 31.612C137.74 31.4953 137.691 31.5493 137.718 31.7201C137.724 31.7558 137.695 31.7849 137.653 31.7849C137.612 31.7849 137.558 31.9504 137.533 32.1525C137.508 32.3547 137.458 32.5946 137.421 32.6857C137.373 32.8022 137.383 32.8327 137.454 32.7887C137.521 32.7478 137.555 32.7952 137.554 32.9258C137.553 33.0655 137.531 33.0915 137.481 33.0121C137.437 32.9435 137.387 33.1826 137.353 33.6175C137.271 34.6661 137.284 35.3131 137.386 35.3765C137.436 35.4071 137.454 35.5034 137.426 35.5905C137.398 35.6776 137.419 35.7755 137.471 35.808C137.524 35.8406 137.56 35.9703 137.552 36.0964C137.523 36.5431 137.554 36.7258 137.65 36.6671C137.709 36.6303 137.735 36.6839 137.719 36.8133C137.692 37.0451 137.9 37.6663 138.005 37.6663C138.043 37.6663 138.067 37.6954 138.058 37.7311C138.028 37.8509 138.436 38.445 138.515 38.3962C138.558 38.3697 138.593 38.4282 138.593 38.5261C138.593 38.692 138.689 38.749 138.896 38.7072C138.944 38.6976 138.955 38.7176 138.921 38.7516C138.817 38.8551 139.028 39.1543 139.167 39.1011C139.237 39.0742 139.274 39.085 139.249 39.1252C139.18 39.2375 140.003 39.6519 140.594 39.8018C141.032 39.913 141.178 39.9174 141.45 39.8278C141.663 39.7572 141.892 39.7443 142.109 39.7906C142.292 39.8296 142.52 39.8608 142.615 39.86C142.963 39.8571 143.744 39.7196 143.91 39.632C144.08 39.5423 144.08 39.5416 143.91 39.475C143.75 39.4124 143.751 39.4078 143.934 39.4021C144.041 39.3988 144.128 39.4308 144.128 39.4734C144.128 39.5169 144.281 39.5118 144.478 39.4618L144.828 39.3729L144.813 38.6061C144.804 38.1844 144.773 37.8405 144.744 37.842C144.618 37.8485 144.396 38.0787 144.454 38.1427C144.489 38.1812 144.452 38.1895 144.372 38.1609C144.293 38.1324 144.179 38.1668 144.121 38.2375C144.062 38.3082 143.959 38.345 143.892 38.3191C143.761 38.269 143.523 38.4578 143.523 38.6115C143.523 38.7285 143.292 38.7332 143.22 38.6177C143.191 38.5701 143.081 38.5318 142.977 38.5325C142.823 38.5336 142.812 38.5495 142.917 38.6177C143.007 38.6756 142.834 38.7015 142.355 38.7015C141.838 38.7015 141.696 38.678 141.793 38.6082C141.897 38.5333 141.889 38.5273 141.75 38.5774C141.4 38.7037 141.188 38.7228 141.188 38.6278C141.188 38.5746 141.256 38.5308 141.339 38.5304C141.422 38.53 141.232 38.4091 140.917 38.2619C140.586 38.1076 140.296 37.9078 140.233 37.79C140.173 37.6776 140.085 37.6098 140.037 37.6394C139.986 37.6709 139.977 37.6492 140.016 37.5865C140.055 37.5237 140.01 37.4129 139.906 37.3163C139.779 37.198 139.716 37.1818 139.68 37.258C139.652 37.3161 139.648 37.2663 139.671 37.1473C139.716 36.9189 139.477 35.9267 139.357 35.8456C139.276 35.79 139.323 32.4519 139.41 32.1309C139.442 32.012 139.478 31.8758 139.489 31.8282C139.5 31.7806 139.557 31.6567 139.614 31.5528C139.671 31.4488 139.718 31.3029 139.718 31.2285C139.718 31.154 139.75 31.093 139.79 31.093C139.896 31.093 140.095 30.6466 140.08 30.4444C140.068 30.2869 140.072 30.2856 140.133 30.4283C140.195 30.5752 140.21 30.5729 140.369 30.3919C140.463 30.2855 140.491 30.2268 140.431 30.2616C140.372 30.2964 140.323 30.2892 140.323 30.2457C140.323 30.1536 140.474 30.1385 141.725 30.1058C142.235 30.0925 142.632 30.1141 142.607 30.1537C142.534 30.2723 142.771 30.4645 142.936 30.4212C143.021 30.399 143.09 30.4267 143.09 30.4826C143.09 30.5385 143.052 30.5602 143.004 30.5308C142.956 30.5014 142.917 30.5186 142.917 30.569C142.917 30.6193 142.963 30.6606 143.018 30.6606C143.074 30.6606 143.096 30.684 143.067 30.7127C143.038 30.7414 143.057 30.8679 143.108 30.9938C143.159 31.1198 143.225 31.359 143.255 31.5255L143.309 31.8282L144.25 31.8528L145.191 31.8776L145.143 31.3555C145.069 30.5408 144.491 29.7171 143.887 29.5654C143.68 29.5136 143.675 29.5023 143.829 29.4456C143.981 29.3895 143.974 29.3765 143.761 29.3205C143.63 29.2862 143.523 29.2188 143.523 29.1708C143.523 29.1229 143.427 29.1019 143.309 29.1244C143.192 29.1469 143.116 29.1319 143.141 29.0913C143.167 29.0506 143.109 29.0173 143.014 29.0173C142.919 29.0173 142.815 28.9749 142.783 28.923C142.745 28.8621 142.506 28.8446 142.108 28.8738C141.7 28.9036 141.593 28.8954 141.793 28.8497C142.064 28.788 142.04 28.7793 141.57 28.7692C141.28 28.7629 141.018 28.7837 140.986 28.8155ZM171.867 28.8197C171.737 28.8395 171.63 28.8947 171.63 28.9424C171.63 28.9899 171.551 29.0039 171.455 28.9734C171.282 28.9186 170.505 29.1612 170.505 29.2701C170.505 29.301 170.418 29.3328 170.311 29.3406C170.031 29.3611 169.298 30.1808 169.358 30.4073C169.387 30.5186 169.33 30.6602 169.203 30.7957C169.036 30.9729 169.003 31.1027 169.003 31.5632C169.003 31.868 169.044 32.1691 169.095 32.2323C169.145 32.2954 169.216 32.4444 169.253 32.5634C169.326 32.8034 169.678 33.1681 169.839 33.1701C169.919 33.1711 169.919 33.1867 169.839 33.2379C169.73 33.3067 169.968 33.5284 170.762 34.0986C171.139 34.3694 171.438 34.4723 171.327 34.2932C171.297 34.2456 171.319 34.2067 171.374 34.2067C171.43 34.2067 171.453 34.2644 171.426 34.3351C171.367 34.4882 171.68 34.6844 171.932 34.653C172.06 34.637 172.075 34.652 171.99 34.7097C171.897 34.7727 171.903 34.7989 172.018 34.8433C172.098 34.8737 172.239 34.8986 172.334 34.8986C172.428 34.8986 172.485 34.9303 172.461 34.9693C172.437 35.0081 172.532 35.1076 172.672 35.1903C172.812 35.2731 172.927 35.311 172.927 35.2746C172.927 35.2381 173.075 35.3721 173.256 35.5724C173.437 35.7727 173.634 35.9365 173.693 35.9365C173.752 35.9365 173.857 36.0727 173.927 36.2392C174.057 36.5507 174.17 36.6601 174.083 36.3905C174.045 36.2725 174.053 36.2656 174.12 36.3592C174.167 36.4253 174.203 36.834 174.2 37.2674C174.195 38.1043 174.134 38.2288 173.664 38.3659C173.567 38.3938 173.5 38.4649 173.513 38.5237C173.528 38.5946 173.477 38.6119 173.361 38.5751C173.265 38.5445 173.186 38.5564 173.186 38.6015C173.186 38.7388 171.539 38.7766 171.223 38.6465C171.046 38.5737 170.928 38.5636 170.894 38.6184C170.813 38.7488 170.591 38.7209 170.642 38.5868C170.684 38.4778 170.308 38.261 169.999 38.2151C169.934 38.2056 169.792 38.1142 169.683 38.012C169.554 37.8905 169.466 37.8589 169.427 37.9206C169.395 37.9725 169.331 37.9917 169.285 37.9632C169.233 37.9308 169.211 38.2119 169.226 38.7151L169.251 39.5186L169.634 39.6293C169.845 39.6901 170.036 39.7213 170.059 39.6984C170.082 39.6754 169.978 39.6322 169.827 39.6021C169.677 39.572 169.554 39.5134 169.554 39.4718C169.554 39.3656 169.58 39.3716 170.092 39.5975C170.638 39.8383 171.111 39.9446 171.111 39.8264C171.111 39.78 171.152 39.742 171.202 39.742C171.253 39.742 171.266 39.7871 171.232 39.8422C171.188 39.9139 171.229 39.9225 171.378 39.8728C171.734 39.7539 172.679 39.7189 172.781 39.8207C172.899 39.939 173.042 39.9449 172.97 39.8285C172.94 39.7803 173.005 39.7426 173.116 39.7433C173.281 39.7445 173.293 39.7608 173.186 39.8355C173.081 39.9094 173.089 39.918 173.229 39.8815C173.325 39.8569 173.519 39.8101 173.662 39.7775C173.805 39.7449 173.968 39.6813 174.026 39.6362C174.083 39.5911 174.167 39.5772 174.213 39.6054C174.258 39.6336 174.475 39.5202 174.693 39.3534C174.911 39.1866 175.129 39.0501 175.176 39.0501C175.223 39.0501 175.262 38.9881 175.262 38.9123C175.262 38.8365 175.338 38.7544 175.432 38.7299C175.62 38.6807 175.725 38.452 175.649 38.2551C175.62 38.1789 175.651 38.1275 175.725 38.1275C175.803 38.1275 175.832 38.1802 175.802 38.2645C175.775 38.3399 175.78 38.3775 175.813 38.3483C175.846 38.319 175.889 38.2217 175.908 38.132C175.928 38.0423 175.985 37.833 176.035 37.6669C176.085 37.5007 176.12 37.1309 176.112 36.8452L176.098 36.3257L176.037 36.8446L175.976 37.3636L175.98 36.6716C175.985 35.9322 175.842 35.5114 175.518 35.3092C175.425 35.2508 175.348 35.1437 175.348 35.0713C175.348 34.9988 175.261 34.8998 175.154 34.8511C175.047 34.8023 174.966 34.723 174.975 34.6748C174.984 34.6266 174.911 34.5375 174.815 34.477C174.681 34.3934 174.654 34.3925 174.704 34.4731C174.746 34.5412 174.734 34.5572 174.67 34.5176C174.615 34.4837 174.57 34.3999 174.57 34.3313C174.57 34.2627 174.517 34.2067 174.453 34.2067C174.389 34.2067 174.006 33.9992 173.602 33.7456C172.709 33.1848 172.58 33.1222 172.256 33.0922C172.197 33.0868 172.148 33.0281 172.148 32.9618C172.148 32.8323 171.914 32.698 171.738 32.7265C171.678 32.7361 171.63 32.703 171.63 32.653C171.63 32.6031 171.533 32.4783 171.415 32.3758C171.151 32.1464 170.914 31.5502 170.952 31.2137C170.969 31.0665 170.927 30.9187 170.851 30.855C170.739 30.7615 170.743 30.7542 170.878 30.8013C170.988 30.8398 171.047 30.8061 171.078 30.6883C171.102 30.5961 171.255 30.4494 171.417 30.3622C171.578 30.2749 171.692 30.1723 171.668 30.1339C171.644 30.0957 172.288 30.0673 173.097 30.0708C173.907 30.0743 174.57 30.1075 174.57 30.1446C174.57 30.1816 174.482 30.1913 174.375 30.1659C174.183 30.1206 174.183 30.1218 174.354 30.2578C174.449 30.3336 174.606 30.3969 174.702 30.3983C174.798 30.3999 174.959 30.4581 175.058 30.5278C175.158 30.5974 175.264 30.6299 175.294 30.5999C175.324 30.5698 175.348 30.2098 175.348 29.7998C175.348 29.1521 175.328 29.0527 175.197 29.0422C175.114 29.0355 174.864 29.0175 174.643 29.0023C174.421 28.9871 174.253 28.9536 174.269 28.9279C174.322 28.8427 173.922 28.8754 173.864 28.9611C173.83 29.0111 173.749 28.9869 173.663 28.9015C173.55 28.7885 173.369 28.7606 172.812 28.7708C172.423 28.7779 171.998 28.7999 171.867 28.8197ZM80.7208 28.9034C80.7831 28.9284 80.8577 28.9252 80.8865 28.8965C80.9152 28.8678 80.8642 28.8474 80.773 28.8511C80.6722 28.8553 80.6517 28.8758 80.7208 28.9034ZM82.7188 28.986C82.7386 29.0033 82.3884 29.0122 81.9405 29.0058C81.359 28.9977 81.2127 28.9765 81.4288 28.9317C81.7068 28.8741 82.6347 28.9131 82.7188 28.986ZM1.0424 34.3364L1.04378 39.7853H1.9086H2.77342L2.79573 34.358L2.81796 28.9308H1.99578H1.17351L1.15292 33.9256L1.13234 38.9204L1.08668 33.904L1.04102 28.8875L1.0424 34.3364ZM8.1507 28.9875C8.11844 29.0197 8.09206 29.271 8.09206 29.5459V30.0456L8.50285 30.0781L8.91364 30.1105L8.50285 30.1261C8.27688 30.1346 8.09206 30.1832 8.09206 30.2341C8.09206 30.297 8.53442 30.3177 9.47586 30.299L10.8597 30.2714L10.8594 35.0283L10.8591 39.7853L11.7674 39.7581L12.6756 39.7309V34.9734V30.2159L14.0017 30.2437L15.3279 30.2714L15.3206 29.6227L15.3133 28.974L11.7613 28.9514C9.80769 28.9391 8.18287 28.9553 8.1507 28.9875ZM35.3555 28.9987C34.6458 29.0184 34.4691 29.0486 34.4691 29.15C34.4691 29.2197 34.434 29.2767 34.3912 29.2767C34.2978 29.2767 34.086 30.1024 34.1071 30.3842C34.1153 30.4939 34.0883 30.5628 34.0471 30.5373C33.962 30.4847 33.6684 31.1954 33.7038 31.3686C33.7166 31.4311 33.6753 31.5758 33.6122 31.6902C33.3987 32.0769 33.0023 33.4232 33.0587 33.5702C33.0943 33.6628 33.0808 33.6951 33.0217 33.6586C32.9188 33.5949 32.6249 34.3509 32.7034 34.4777C32.7697 34.5852 32.6555 34.9104 32.5701 34.8576C32.492 34.8093 32.3965 35.0985 32.3947 35.3887C32.394 35.4917 32.3568 35.589 32.3121 35.605C32.2673 35.6208 32.2126 35.7311 32.1904 35.85C32.1681 35.9689 32.1099 36.1692 32.0611 36.2951C32.0121 36.4211 31.9956 36.5476 32.0243 36.5762C32.0529 36.605 32.0284 36.6284 31.9697 36.6284C31.9032 36.6284 31.8832 36.6921 31.9165 36.7971C31.9461 36.8905 31.9023 37.0928 31.8181 37.2511C31.7345 37.4081 31.6741 37.5657 31.6838 37.6014C31.6936 37.6371 31.6485 37.6663 31.5837 37.6663C31.5188 37.6663 31.3972 37.4869 31.3135 37.2677C31.202 36.9757 31.1404 36.9005 31.083 36.9866C31.0315 37.0637 31.0232 37.0237 31.0587 36.8704C31.1288 36.5683 30.8507 35.6908 30.7389 35.8616C30.687 35.9411 30.6671 35.8809 30.6783 35.677C30.6874 35.5105 30.649 35.2893 30.5929 35.1854C30.5368 35.0814 30.4909 34.8966 30.4909 34.7746C30.4909 34.6525 30.4618 34.5526 30.426 34.5525C30.3903 34.5525 30.3552 34.4649 30.3479 34.3579C30.3408 34.251 30.2859 34.0467 30.2263 33.904C30.1369 33.6902 30.111 33.6732 30.0796 33.8071C30.0587 33.8965 30.0928 34.0014 30.1556 34.0403C30.2183 34.079 30.2395 34.1409 30.2027 34.1779C30.0802 34.3003 29.9755 33.9965 29.985 33.5461C29.9903 33.2924 29.9345 32.9816 29.8548 32.822C29.7781 32.6682 29.7364 32.5082 29.7623 32.4664C29.7881 32.4245 29.768 32.3904 29.7177 32.3904C29.6673 32.3904 29.6261 32.276 29.6261 32.136C29.6261 31.9961 29.5911 31.86 29.5482 31.8336C29.5055 31.8071 29.4224 31.5852 29.3637 31.3402C29.2299 30.7824 29.0568 30.4314 28.9935 30.5896C28.9633 30.6653 28.9456 30.6691 28.9411 30.6008C28.9373 30.5442 28.9724 30.4743 29.019 30.4455C29.1127 30.3875 28.9941 30.1327 28.7285 29.8214C28.6283 29.7042 28.5846 29.5598 28.6144 29.4456C28.7151 29.0607 28.6239 29.0173 27.7142 29.0173C26.7777 29.0173 26.7623 29.0278 26.9725 29.5277C27.0352 29.6767 27.1153 29.7696 27.1507 29.7342C27.1862 29.6988 27.1977 29.7663 27.1766 29.8842C27.1372 30.1033 27.3914 30.8774 27.4752 30.7935C27.5007 30.768 27.5141 30.8347 27.5049 30.9417C27.489 31.1268 27.6993 31.7797 27.8043 31.8714C27.8316 31.8952 27.8673 32.03 27.8837 32.1709C27.9002 32.3118 27.9779 32.476 28.0563 32.5358C28.1433 32.6018 28.158 32.6454 28.0937 32.6471C28.0334 32.6486 28.0109 32.7085 28.0409 32.7869C28.0836 32.898 28.1086 32.9021 28.1736 32.8085C28.2307 32.7263 28.24 32.7428 28.2061 32.8661C28.1493 33.073 28.2707 33.5762 28.3627 33.5147C28.3984 33.491 28.4699 33.5473 28.5217 33.6399C28.5911 33.7638 28.5893 33.8171 28.5151 33.8419C28.4596 33.8604 28.4366 33.9117 28.464 33.956C28.4913 34.0003 28.5326 34.1402 28.5555 34.2669C28.6112 34.574 28.6678 34.6537 28.7806 34.5839C28.8379 34.5486 28.8495 34.5663 28.8104 34.6295C28.7752 34.6865 28.793 34.7894 28.85 34.858C28.907 34.9267 28.9309 35.0421 28.9031 35.1145C28.8431 35.2709 28.9919 35.705 29.0857 35.6471C29.1216 35.6248 29.1568 35.71 29.1639 35.8364C29.1938 36.3677 29.3278 36.749 29.4566 36.6695C29.5483 36.6127 29.6655 37.0135 29.5919 37.1326C29.5178 37.2525 29.8377 38.203 29.9253 38.1233C29.9662 38.086 29.9755 38.098 29.9459 38.1501C29.8617 38.2981 30.053 38.8908 30.163 38.8227C30.218 38.7887 30.2338 38.8035 30.2002 38.8577C30.1684 38.9091 30.1892 39.1267 30.2465 39.3409C30.3721 39.8103 30.417 39.8267 31.5719 39.8246C32.378 39.8232 32.4467 39.8093 32.5836 39.6209C32.6644 39.5096 32.746 39.326 32.7649 39.2127C32.7838 39.0995 32.8241 38.9485 32.8545 38.8771C33.0195 38.4885 33.1563 38.0121 33.1032 38.0109C33.0696 38.0102 33.0844 37.981 33.136 37.9461C33.2667 37.8577 33.431 37.348 33.4326 37.0263C33.4336 36.8214 33.4537 36.7887 33.5178 36.8879C33.5897 36.9992 33.6033 36.9961 33.6138 36.8662C33.6204 36.783 33.6339 36.6857 33.6438 36.65C33.6535 36.6143 33.6906 36.4684 33.7261 36.3257C33.7616 36.183 33.8357 35.9738 33.8908 35.8609C33.9459 35.7479 33.9936 35.6117 33.9969 35.5582C34.0002 35.5046 34.0496 35.3505 34.1069 35.2157C34.164 35.0808 34.1852 34.9289 34.1537 34.878C34.1177 34.8199 34.1378 34.811 34.2075 34.854C34.2816 34.8999 34.3049 34.8828 34.2777 34.8025C34.2552 34.7364 34.3098 34.5416 34.3989 34.3695C34.6147 33.9531 34.6624 33.6697 34.5324 33.5756C34.4591 33.5225 34.4723 33.5134 34.5744 33.5461C34.7635 33.6067 34.8323 33.493 34.8323 33.12C34.8323 32.9443 34.8676 32.8451 34.9188 32.8767C34.9682 32.9073 34.9637 32.8525 34.9081 32.7487C34.825 32.5935 34.832 32.5753 34.9569 32.6232C35.0501 32.659 35.0819 32.6454 35.0449 32.5854C35.013 32.5339 35.0347 32.4757 35.0931 32.4562C35.1627 32.433 35.1959 32.2444 35.1892 31.9083C35.1814 31.5131 35.1945 31.4552 35.2463 31.6552C35.2934 31.8373 35.3165 31.8618 35.3237 31.7374C35.3293 31.6399 35.3746 31.5193 35.4244 31.4695C35.4743 31.4197 35.5214 31.2186 35.5292 31.0226C35.5369 30.8266 35.5687 30.7071 35.5996 30.7572C35.635 30.8145 35.6737 30.8014 35.7043 30.7216C35.7309 30.6521 35.7091 30.5515 35.6558 30.4981C35.5841 30.4264 35.5971 30.4011 35.7058 30.4011C35.8633 30.4011 35.8827 30.3155 35.8627 29.7092C35.8517 29.3749 35.8644 29.3438 35.9521 29.4892C36.0463 29.6451 36.0633 29.6322 36.1701 29.3237C36.2337 29.1396 36.276 28.9857 36.2639 28.9815C36.2518 28.9774 35.8431 28.9851 35.3555 28.9987ZM55.8301 34.3797V39.8285H58.8606H61.8911L61.8659 39.1582L61.8406 38.4879L59.7218 38.4447L57.603 38.4014V33.6661V28.9308H56.7166H55.8301V34.3797ZM83.308 28.983C83.2793 29.0117 83.2046 29.0148 83.1423 28.9898C83.0732 28.9623 83.0937 28.9418 83.1945 28.9376C83.2856 28.9339 83.3367 28.9543 83.308 28.983ZM91.0493 34.3797L91.0715 39.7853H94.2714H97.4712V39.1366V38.4879L95.2333 38.4648C93.9361 38.4514 92.9546 38.4757 92.8983 38.5225C92.8268 38.582 92.8126 38.1101 92.8444 36.7293L92.8876 34.8553L94.9848 34.8322C97.732 34.8018 97.7927 34.6511 95.0713 34.6174L93.0606 34.5925L95.0713 34.5726L97.082 34.5526V34.0337V33.5147H94.9632C93.7979 33.5147 92.8435 33.4856 92.8423 33.4499C92.8412 33.4142 92.8314 32.6941 92.8207 31.8498L92.8012 30.3146L94.9632 30.3043C96.1523 30.2987 97.1701 30.2996 97.225 30.3062C97.2936 30.3146 97.3206 30.1144 97.3115 29.6646L97.2982 29.0109L94.1627 28.9924L91.027 28.974L91.0493 34.3797ZM114.984 29.0173C114.912 29.0634 114.898 29.1017 114.952 29.1025C115.006 29.1031 115.096 29.2882 115.153 29.5135C115.21 29.7388 115.295 29.9706 115.344 30.0286C115.392 30.0866 115.408 30.1711 115.38 30.2165C115.293 30.3567 115.426 30.5741 115.598 30.5741C115.704 30.5741 115.762 30.635 115.762 30.7471C115.762 30.8422 115.73 30.92 115.69 30.92C115.65 30.92 115.618 30.9784 115.618 31.0498C115.618 31.1211 115.65 31.1795 115.69 31.1795C115.73 31.1795 115.755 31.2087 115.746 31.2444C115.737 31.2801 115.759 31.4357 115.796 31.5903C115.864 31.8795 115.974 31.9539 116.051 31.7633C116.082 31.6854 116.096 31.6839 116.101 31.7582C116.105 31.8149 116.069 31.8853 116.022 31.9147C115.974 31.9441 115.935 32.0071 115.935 32.0546C115.935 32.1022 115.98 32.1133 116.035 32.0793C116.104 32.0368 116.12 32.0762 116.086 32.2048C116.033 32.4073 116.188 32.9093 116.303 32.9093C116.342 32.9093 116.333 32.8341 116.284 32.742C116.168 32.5253 116.165 32.3259 116.279 32.4402C116.325 32.4866 116.385 32.774 116.411 33.0788C116.438 33.3836 116.497 33.678 116.542 33.7332C116.588 33.7883 116.6 33.859 116.569 33.8903C116.537 33.9216 116.554 33.9472 116.606 33.9472C116.658 33.9472 116.718 33.879 116.739 33.7958C116.761 33.7126 116.773 33.7709 116.767 33.9254C116.761 34.0799 116.72 34.2064 116.675 34.2065C116.629 34.2066 116.639 34.2534 116.696 34.3105C116.753 34.3675 116.8 34.4843 116.8 34.5699C116.8 34.6556 116.858 34.7256 116.93 34.7256C117.001 34.7256 117.059 34.7863 117.059 34.8605C117.059 34.9346 117.027 34.9756 116.988 34.9514C116.949 34.9273 117.015 35.2149 117.134 35.5905C117.254 35.97 117.387 36.2503 117.434 36.2212C117.485 36.1902 117.499 36.245 117.47 36.3555C117.443 36.4582 117.451 36.524 117.487 36.5018C117.523 36.4795 117.555 36.5743 117.559 36.7125C117.563 36.8506 117.608 37.0412 117.659 37.1363C117.71 37.2312 117.751 37.3846 117.751 37.477C117.751 37.5695 117.811 37.695 117.885 37.7561C117.958 37.817 118 37.9159 117.977 37.9757C117.954 38.0355 117.995 38.1075 118.069 38.1359C118.161 38.1709 118.19 38.2596 118.16 38.4132C118.128 38.5835 118.157 38.6496 118.28 38.6817C118.467 38.7304 118.494 38.8422 118.335 38.9064C118.248 38.9412 118.248 38.9514 118.335 38.9568C118.394 38.9605 118.443 39.0049 118.443 39.0552C118.443 39.1056 118.408 39.125 118.365 39.0984C118.322 39.0717 118.307 39.1274 118.331 39.222C118.356 39.3167 118.406 39.3755 118.443 39.3528C118.48 39.3301 118.508 39.3597 118.506 39.4187C118.493 39.7871 118.487 39.7853 119.625 39.7853H120.72L120.825 39.4393C120.883 39.249 120.983 38.9182 121.047 38.7042C121.111 38.4901 121.228 38.1805 121.307 38.016C121.386 37.8517 121.441 37.6297 121.429 37.5229C121.418 37.416 121.448 37.3364 121.497 37.3461C121.589 37.3644 121.731 36.9197 121.757 36.5283C121.765 36.402 121.802 36.3169 121.838 36.3393C121.909 36.3833 121.972 36.2529 122.012 35.9797C122.026 35.8846 122.066 35.7608 122.101 35.7046C122.136 35.6485 122.125 35.5781 122.077 35.5481C122.028 35.5183 121.989 35.4475 121.99 35.3908C121.991 35.3234 122.018 35.3293 122.067 35.4076C122.128 35.5037 122.162 35.492 122.239 35.3484C122.292 35.25 122.335 35.0705 122.335 34.9496C122.335 34.8287 122.412 34.6024 122.507 34.4466C122.602 34.2908 122.68 34.0986 122.68 34.0192C122.681 33.9399 122.762 33.687 122.86 33.4571C122.959 33.2272 123.04 32.8733 123.041 32.6708C123.041 32.4683 123.077 32.3246 123.12 32.3516C123.164 32.3785 123.2 32.3376 123.2 32.2606C123.2 32.1837 123.239 32.1447 123.286 32.1742C123.374 32.2287 123.407 32.0309 123.387 31.5687C123.378 31.3633 123.39 31.3438 123.445 31.4753C123.502 31.6106 123.536 31.5661 123.629 31.2352C123.691 31.0118 123.775 30.8087 123.815 30.7839C123.855 30.7591 123.872 30.5557 123.853 30.3321C123.83 30.0691 123.843 29.9866 123.888 30.0984C123.954 30.2591 123.966 30.254 124.055 30.0279C124.108 29.894 124.151 29.7309 124.151 29.6654C124.151 29.5999 124.188 29.5234 124.234 29.4953C124.279 29.4672 124.296 29.391 124.271 29.3259C124.246 29.2609 124.267 29.182 124.318 29.1506C124.57 28.9951 124.334 28.9308 123.512 28.9308C122.687 28.9308 122.611 28.9448 122.569 29.1038C122.544 29.1989 122.559 29.2767 122.602 29.2767C122.741 29.2767 122.686 29.435 122.462 29.6764C122.342 29.806 122.222 30.0122 122.196 30.1349C122.169 30.2575 122.093 30.5026 122.026 30.6796C121.96 30.8566 121.929 31.0609 121.957 31.1337C121.985 31.2083 121.961 31.266 121.901 31.266C121.829 31.266 121.811 31.3492 121.846 31.5225C121.884 31.7131 121.856 31.8075 121.738 31.8901C121.651 31.9512 121.55 32.1374 121.514 32.3039C121.479 32.4704 121.394 32.7137 121.328 32.8445C121.261 32.9752 121.228 33.0823 121.254 33.0823C121.28 33.0823 121.248 33.1894 121.182 33.3201C121.116 33.4509 121.015 33.7521 120.957 33.9893C120.899 34.2265 120.821 34.46 120.784 34.5083C120.664 34.6648 120.526 35.1581 120.602 35.1581C120.644 35.1581 120.716 35.051 120.764 34.9202C120.817 34.776 120.854 34.7408 120.858 34.8308C120.868 35.0564 120.588 35.5905 120.459 35.5905C120.397 35.5905 120.345 35.6392 120.344 35.6986C120.344 35.7581 120.324 35.904 120.3 36.023C120.262 36.2138 120.272 36.2087 120.384 35.9797C120.454 35.837 120.511 35.7786 120.512 35.85C120.513 35.9981 120.269 36.4578 120.259 36.3257C120.251 36.2068 120.007 36.6441 120.003 36.7849C120.001 36.8487 120.043 36.8712 120.1 36.8364C120.212 36.7668 120.132 36.9328 119.949 37.1473C119.889 37.2187 119.838 37.3071 119.836 37.3438C119.835 37.3804 119.795 37.4777 119.749 37.56C119.67 37.6992 119.655 37.6977 119.537 37.5375C119.467 37.4429 119.428 37.3355 119.451 37.299C119.473 37.2625 119.434 37.2103 119.363 37.183C119.287 37.1539 119.236 37.0308 119.24 36.8856C119.244 36.7493 119.179 36.5336 119.096 36.4062C119.012 36.2789 118.987 36.2012 119.039 36.2337C119.092 36.2661 119.135 36.2514 119.135 36.2011C119.135 36.1507 119.074 36.1095 119 36.1095C118.926 36.1095 118.89 36.0691 118.921 36.0197C118.99 35.9084 118.783 35.0716 118.686 35.0716C118.648 35.0716 118.616 34.9768 118.616 34.861C118.616 34.7452 118.571 34.5408 118.515 34.4069C118.413 34.1613 118.388 34.0872 118.366 33.9688C118.359 33.9331 118.316 33.9623 118.27 34.0337C118.22 34.1116 118.186 34.1223 118.185 34.0604C118.184 34.0038 118.219 33.9357 118.262 33.9091C118.353 33.8525 118.14 33.0871 117.996 32.9553C117.925 32.8905 117.915 32.9133 117.96 33.0391C118.009 33.1779 117.999 33.1907 117.912 33.1039C117.833 33.025 117.829 32.9699 117.899 32.9003C118.013 32.7861 117.783 32.0147 117.658 32.0921C117.615 32.1184 117.603 32.0795 117.632 32.0057C117.66 31.9318 117.647 31.8714 117.602 31.8714C117.558 31.8714 117.522 31.8033 117.522 31.7201C117.524 31.3007 117.484 31.0878 117.412 31.1323C117.368 31.1595 117.287 30.9575 117.232 30.6833C117.177 30.4092 117.089 30.0342 117.036 29.8501C116.957 29.578 116.927 29.5455 116.876 29.6771C116.835 29.7798 116.81 29.6729 116.806 29.3848L116.8 28.9308L115.957 28.9321C115.493 28.9328 115.055 28.9712 114.984 29.0173ZM129.573 28.9854C129.54 29.0188 129.513 31.4721 129.513 34.4373V39.8285H130.291H131.069L131.09 34.4013L131.111 28.974L131.156 34.3797L131.202 39.7853L131.2 34.3797L131.199 28.974L130.417 28.9494C129.986 28.9358 129.607 28.952 129.573 28.9854ZM173.036 28.9875C172.978 29.0112 172.861 29.0127 172.777 28.9907C172.693 28.9687 172.741 28.9494 172.883 28.9476C173.026 28.9459 173.095 28.9638 173.036 28.9875ZM181.987 34.3884L182.01 39.855L183.06 39.7985C183.638 39.7675 185.077 39.742 186.259 39.742H188.407V39.0896V38.4372L186.094 38.4488C184.765 38.4554 183.738 38.4956 183.68 38.5432C183.617 38.595 183.56 38.5954 183.529 38.5444C183.501 38.4995 183.537 38.4405 183.608 38.4132C183.716 38.3715 183.737 38.0894 183.737 36.6403C183.737 35.1487 183.755 34.91 183.874 34.8646C183.949 34.8357 184.922 34.8121 186.036 34.8121C187.303 34.8121 188.061 34.7804 188.061 34.7272C188.061 34.6748 187.291 34.6328 186.05 34.6174L184.04 34.5925L186.05 34.5726L188.061 34.5526V34.0337V33.5147H185.906C184.565 33.5147 183.741 33.4825 183.723 33.4293C183.707 33.3823 183.705 32.6623 183.719 31.8292L183.745 30.3146H186.02H188.296L188.313 29.6227C188.323 29.1857 188.296 28.9308 188.239 28.9308C188.186 28.9308 188.141 29.1743 188.131 29.5146L188.114 30.0984L188.084 29.5578L188.053 29.0173L185.181 29.0161C183.602 29.0154 182.232 28.994 182.137 28.9684C181.965 28.9222 181.964 28.9585 181.987 34.3884ZM205.033 28.9956L201.552 29.0193V29.5349V30.0506L202.806 30.0781L204.06 30.1056L202.785 30.102L201.509 30.0984L201.455 29.5362L201.402 28.974L201.412 29.6227L201.423 30.2714H202.72C203.485 30.2714 204.043 30.3068 204.081 30.3579C204.116 30.4054 204.145 32.5356 204.145 35.0916L204.147 39.7388L204.342 39.7879C204.45 39.8149 204.829 39.8253 205.186 39.8111L205.833 39.7853V35.05V30.3146L207.174 30.3043C207.911 30.2987 208.543 30.2987 208.579 30.3044C208.615 30.31 208.644 30.0422 208.644 29.7092C208.644 29.3407 208.608 29.1038 208.552 29.1038C208.502 29.1038 208.485 29.0648 208.514 29.0173C208.543 28.9697 208.555 28.94 208.541 28.9514C208.526 28.9627 206.948 28.9827 205.033 28.9956ZM2.70847 37.0825C2.69524 38.5691 2.68435 37.3527 2.68435 34.3797C2.68435 31.4066 2.69524 30.1903 2.70847 31.6768C2.72179 33.1633 2.72179 35.5959 2.70847 37.0825ZM67.2667 34.4013L67.289 39.7853L70.2832 39.808L73.2774 39.8308L73.3317 39.5594C73.4339 39.0483 73.3955 38.5533 73.2492 38.4972C73.1739 38.4683 72.201 38.4447 71.0871 38.4447H69.0619V33.731V29.0173H68.1531H67.2444L67.2667 34.4013ZM91.1796 37.0825C91.1663 38.5691 91.1554 37.3527 91.1554 34.3797C91.1554 31.4066 91.1663 30.1903 91.1796 31.6768C91.1929 33.1633 91.1929 35.5959 91.1796 37.0825ZM103.416 34.3926L103.438 39.7679L104.26 39.7609L105.082 39.7539L105.105 37.3828L105.128 35.0117L105.58 34.9975C105.829 34.9898 106.298 35.0596 106.622 35.1526C106.946 35.2456 107.276 35.3007 107.357 35.275C107.482 35.235 107.484 35.2419 107.373 35.3215C107.276 35.3913 107.273 35.4152 107.358 35.4162C107.421 35.4169 107.531 35.4759 107.602 35.5473C107.673 35.6186 107.703 35.677 107.669 35.677C107.634 35.677 107.671 35.7489 107.751 35.8368C107.906 36.008 108.138 36.7249 108.212 37.256C108.236 37.4347 108.293 37.6033 108.337 37.6308C108.384 37.6597 108.398 37.5772 108.371 37.4357L108.324 37.1906L108.419 37.4314C108.49 37.6106 108.488 37.7036 108.412 37.7951C108.356 37.8628 108.331 37.9523 108.357 37.9941C108.383 38.0358 108.426 38.2029 108.453 38.3655C108.48 38.528 108.565 38.9237 108.641 39.2447L108.78 39.8285H109.675H110.569L110.478 39.5907C110.428 39.4598 110.372 39.2361 110.353 39.0934C110.334 38.9507 110.279 38.6242 110.23 38.3681C110.181 38.1118 110.141 37.888 110.141 37.8707C110.141 37.8534 110.093 37.849 110.035 37.8609C109.976 37.8728 109.916 37.7852 109.901 37.6663C109.879 37.4897 109.892 37.4738 109.971 37.5798C110.047 37.6816 110.056 37.6536 110.013 37.4501C109.983 37.3073 109.925 36.9912 109.885 36.7476C109.845 36.5039 109.769 36.2217 109.714 36.1205C109.66 36.0193 109.639 35.9365 109.668 35.9365C109.696 35.9365 109.632 35.7805 109.525 35.59C109.384 35.3393 109.308 35.2735 109.252 35.3521C109.199 35.4252 109.191 35.4065 109.228 35.2945C109.266 35.1764 109.205 35.0576 109.014 34.8837C108.714 34.6099 108.497 34.55 108.675 34.7905C108.737 34.8737 108.68 34.8332 108.549 34.7004C108.378 34.5263 108.258 34.4736 108.123 34.5114C107.975 34.553 107.963 34.5449 108.065 34.4731C108.176 34.3953 108.173 34.3821 108.039 34.381C107.815 34.379 107.951 34.2072 108.178 34.2039C108.35 34.2014 108.354 34.1908 108.223 34.0909C108.088 33.9883 108.088 33.9743 108.231 33.8854C108.324 33.8271 108.431 33.82 108.505 33.8673C108.61 33.9337 108.61 33.9448 108.505 33.9459C108.437 33.9466 108.407 33.9722 108.438 34.0028C108.468 34.0333 108.549 34.0125 108.616 33.9565C108.684 33.9005 108.772 33.8606 108.813 33.8679C109.049 33.9104 109.189 33.8432 109.189 33.6877C109.189 33.5926 109.231 33.5147 109.281 33.5147C109.331 33.5147 109.344 33.5634 109.309 33.6229C109.275 33.6824 109.335 33.6531 109.443 33.558C109.881 33.1739 109.968 32.8365 109.93 31.6826C109.911 31.0967 109.892 30.5687 109.888 30.5092C109.884 30.4498 109.827 30.4011 109.761 30.4011C109.695 30.4011 109.616 30.3372 109.586 30.2592C109.538 30.1351 109.55 30.1323 109.68 30.2376C109.808 30.3418 109.818 30.3406 109.75 30.2286C109.567 29.9253 109.234 29.6204 109.13 29.6604C109.067 29.6842 108.929 29.6684 108.822 29.6255C108.628 29.5474 108.628 29.5471 108.844 29.5407C109.016 29.5354 108.968 29.4898 108.601 29.3133C108.349 29.1919 108.096 29.1115 108.039 29.1345C107.982 29.1576 108.013 29.1803 108.108 29.1847C108.243 29.1911 108.255 29.2098 108.161 29.2695C108.032 29.3506 107.792 29.1993 107.863 29.0821C107.885 29.0464 106.947 29.0173 105.779 29.0173H103.656L103.633 34.4013L103.61 39.7853L103.589 34.4013C103.575 30.8565 103.538 29.0173 103.481 29.0173C103.423 29.0173 103.401 30.8251 103.416 34.3926ZM150.701 34.3783V39.7388L150.895 39.7862C151.002 39.8122 152.433 39.8227 154.074 39.8094L157.057 39.7853L157.083 39.1507C157.1 38.7254 157.079 38.5346 157.018 38.572C156.968 38.6027 156.928 38.5866 156.928 38.5363C156.928 38.4741 156.187 38.4447 154.623 38.4447H152.319L152.374 37.8609C152.404 37.5398 152.43 36.7224 152.43 36.0446L152.43 34.8121H154.593H156.755V34.1649V33.5178L154.614 33.4946L152.474 33.4715V31.8889V30.3064L154.722 30.2888L156.971 30.2714L156.998 29.8446C157.053 28.9786 157.366 29.0582 153.817 29.0367L150.701 29.0179V34.3783ZM194.288 34.3797V39.742H194.751C195.006 39.742 195.396 39.7668 195.616 39.797L196.017 39.8521V34.4347V29.0173H195.153H194.288V34.3797ZM221.021 29.1646C220.798 29.2438 220.626 29.3647 220.601 29.4605C220.577 29.5497 220.495 29.6221 220.417 29.6214C220.293 29.6202 220.292 29.6083 220.405 29.5267C220.513 29.4491 220.508 29.442 220.377 29.4848C220.29 29.5131 220.2 29.5362 220.177 29.5362C220.154 29.5362 220.16 29.5751 220.189 29.6227C220.219 29.6706 220.154 29.7104 220.043 29.712C219.805 29.7152 219.517 29.9136 219.607 30.0126C219.642 30.0512 219.603 30.0587 219.521 30.0294C219.44 30 219.318 30.0308 219.251 30.098C219.184 30.165 219.103 30.1937 219.071 30.1618C219.039 30.1298 219.038 30.1706 219.07 30.2523C219.112 30.364 219.081 30.4011 218.944 30.4011C218.774 30.4011 218.762 30.447 218.762 31.093C218.762 31.4736 218.796 31.7849 218.837 31.7849C218.878 31.7849 218.892 31.6871 218.87 31.5675C218.836 31.3901 218.855 31.3605 218.975 31.4066C219.092 31.4514 219.099 31.4781 219.007 31.5362C218.919 31.5919 218.929 31.6096 219.046 31.6107C219.275 31.6126 219.642 31.3444 219.592 31.2127C219.561 31.1313 219.63 31.1017 219.833 31.1093C220.152 31.1213 220.347 31.0353 220.273 30.915C220.245 30.8711 220.29 30.861 220.372 30.8925C220.472 30.9309 220.5 30.9168 220.458 30.8492C220.419 30.7862 220.441 30.7662 220.517 30.7952C220.583 30.8207 220.687 30.7813 220.748 30.7078C220.809 30.6342 220.883 30.5741 220.913 30.5741C220.943 30.574 220.956 32.6368 220.942 35.1581L220.917 39.742H221.785H222.654V34.5526C222.654 31.1507 222.684 29.3632 222.74 29.3632C222.788 29.3632 222.827 29.2854 222.827 29.1902C222.827 29.0307 222.771 29.0178 222.113 29.0241C221.708 29.028 221.236 29.0887 221.021 29.1646ZM231.951 29.0811C231.717 29.1199 231.708 29.1319 231.864 29.2021C231.992 29.2595 231.952 29.2695 231.711 29.2402C231.38 29.1999 230.783 29.3864 230.783 29.5301C230.783 29.5731 230.832 29.6314 230.891 29.6597C230.951 29.688 230.905 29.6931 230.79 29.671C230.643 29.6431 230.493 29.7077 230.29 29.8863C230.033 30.1121 230.008 30.1758 230.185 30.1567C230.213 30.1537 230.235 30.2075 230.235 30.2762C230.235 30.3449 230.181 30.4011 230.115 30.4011C230.049 30.4011 230.019 30.3622 230.048 30.3146C230.077 30.267 230.061 30.2281 230.012 30.2281C229.876 30.2281 229.546 30.9295 229.554 31.2023C229.558 31.3342 229.533 31.4248 229.499 31.4036C229.401 31.3431 229.378 31.66 229.405 32.7147C229.409 32.8694 229.453 32.9958 229.503 32.9958C229.561 32.9958 229.578 33.1268 229.549 33.3436C229.517 33.5799 229.541 33.7304 229.624 33.8131C229.691 33.8801 229.745 33.9765 229.745 34.0275C229.745 34.0785 229.794 34.1208 229.853 34.1215C229.937 34.1225 229.936 34.1391 229.849 34.194C229.767 34.2463 229.859 34.3926 230.196 34.7463C230.573 35.1417 230.747 35.254 231.173 35.3764C231.458 35.4582 231.726 35.5459 231.77 35.5712C231.813 35.5971 231.817 35.5641 231.778 35.4958C231.722 35.3975 231.731 35.395 231.826 35.4824C231.965 35.6119 233.032 35.631 233.032 35.504C233.032 35.4565 233.129 35.4175 233.248 35.4175C233.367 35.4175 233.464 35.3829 233.464 35.3404C233.464 35.298 233.554 35.2407 233.664 35.2131C233.775 35.1854 233.95 35.089 234.054 34.9989C234.257 34.8227 234.312 34.6737 234.134 34.7804C234.06 34.825 234.063 34.7999 234.144 34.6999C234.247 34.573 234.415 34.5685 234.415 34.6926C234.415 34.7164 234.37 34.7081 234.316 34.6742C234.25 34.6333 234.239 34.6507 234.286 34.7254C234.34 34.8136 234.381 34.8034 234.472 34.6789C234.608 34.4923 234.606 34.4805 234.606 35.4608C234.606 36.0556 234.615 36.098 234.671 35.7635L234.735 35.3743L234.748 35.7449C234.755 35.9488 234.704 36.2036 234.633 36.3114C234.562 36.4192 234.489 36.661 234.47 36.8489C234.451 37.0368 234.414 37.249 234.389 37.3203C234.363 37.3917 234.297 37.596 234.242 37.7744C234.187 37.9528 234.103 38.0987 234.053 38.0987C234.005 38.0987 233.987 38.1567 234.014 38.2274C234.042 38.3004 234.019 38.3472 233.961 38.3355C233.905 38.3242 233.82 38.4026 233.771 38.5096C233.722 38.6165 233.651 38.7042 233.611 38.7042C233.572 38.7042 233.564 38.6653 233.594 38.6179C233.629 38.5607 233.571 38.5606 233.421 38.6178C233.16 38.717 232.348 38.7004 232.282 38.5944C232.258 38.555 232.173 38.5715 232.094 38.6309C231.975 38.7207 231.968 38.7192 232.054 38.6222C232.137 38.5292 232.106 38.442 231.903 38.1959C231.763 38.0256 231.648 37.8174 231.648 37.733C231.648 37.5949 231.546 37.5798 230.612 37.5798H229.577L229.63 37.8609C229.659 38.0155 229.742 38.2101 229.814 38.2933C229.886 38.3765 229.918 38.4447 229.885 38.4447C229.853 38.4447 229.868 38.5237 229.92 38.6201C229.971 38.7165 230.05 38.7729 230.095 38.7453C230.139 38.7177 230.155 38.7493 230.13 38.8156C230.074 38.9605 230.306 39.1744 230.434 39.0956C230.483 39.0648 230.562 39.1394 230.608 39.2612C230.669 39.4199 230.756 39.4826 230.916 39.4826C231.039 39.4826 231.117 39.5184 231.09 39.5621C230.95 39.7881 232.731 40.0554 233.447 39.9158C234.139 39.7808 234.848 39.5544 234.848 39.4686C234.848 39.4287 234.906 39.3961 234.978 39.3961C235.049 39.3961 235.107 39.3634 235.107 39.3235C235.107 39.2836 235.202 39.208 235.317 39.1555C235.472 39.0849 235.516 39.0081 235.489 38.8604C235.468 38.7507 235.474 38.7092 235.502 38.7683C235.543 38.8537 235.574 38.8537 235.655 38.7683C235.836 38.5756 235.994 38.2038 235.935 38.108C235.899 38.0497 235.927 38.0337 236.011 38.0657C236.139 38.1149 236.182 38.0104 236.167 37.6821C236.165 37.6195 236.186 37.5915 236.214 37.6197C236.35 37.7564 236.497 36.7428 236.506 35.5905C236.514 34.6901 236.534 34.4706 236.576 34.8121C236.633 35.2698 236.636 35.2617 236.641 34.5959C236.645 34.0978 236.625 33.9645 236.571 34.1202C236.521 34.261 236.511 34.0951 236.54 33.6445C236.58 33.023 236.464 31.7293 236.359 31.6243C236.252 31.5166 236.208 31.7273 236.306 31.8838C236.367 31.9814 236.392 32.0855 236.363 32.1152C236.245 32.2328 236.148 31.8942 236.199 31.5423C236.244 31.2296 236.221 31.1361 236.055 30.9594C235.946 30.8437 235.847 30.6512 235.834 30.5318C235.804 30.2519 235.497 29.8214 235.278 29.7517C235.184 29.7219 235.107 29.6599 235.107 29.6138C235.107 29.5604 235.05 29.5609 234.948 29.6152C234.861 29.662 234.705 29.6783 234.602 29.6514C234.398 29.598 234.352 29.4074 234.523 29.3271C234.583 29.2992 234.476 29.2951 234.286 29.3178C234.034 29.3478 233.987 29.3377 234.113 29.2808C234.208 29.2376 234.266 29.1967 234.242 29.1897C234.219 29.1827 234.121 29.1545 234.026 29.127C233.795 29.0602 232.278 29.0267 231.951 29.0811ZM245.357 29.1153C245.167 29.1596 244.978 29.2305 244.936 29.2728C244.893 29.3151 244.799 29.3266 244.725 29.2985C244.652 29.2703 244.614 29.2831 244.64 29.3269C244.667 29.3707 244.634 29.4566 244.568 29.518C244.494 29.5869 244.447 29.594 244.447 29.5365C244.447 29.2986 243.576 29.9981 243.371 30.4011C243.225 30.6883 243.111 31.1867 243.233 31.0065C243.377 30.7939 243.343 31.0911 243.193 31.3525C242.966 31.7505 243.055 32.5397 243.396 33.1528C243.483 33.3074 243.535 33.331 243.625 33.2563C243.715 33.1816 243.754 33.2002 243.798 33.3385C243.829 33.4368 243.9 33.4958 243.956 33.4695C244.012 33.4433 243.994 33.4693 243.915 33.5274C243.786 33.6232 243.792 33.6481 243.982 33.798C244.165 33.942 244.313 34.0015 244.552 34.027C244.586 34.0307 244.658 34.1162 244.712 34.2171C244.79 34.3618 244.787 34.3862 244.701 34.3327C244.623 34.2843 244.607 34.3069 244.647 34.4107C244.695 34.5356 244.677 34.5426 244.521 34.4595C244.392 34.3905 244.357 34.3899 244.399 34.4575C244.436 34.5172 244.375 34.5526 244.236 34.5526C244.115 34.5526 244.015 34.5916 244.015 34.6391C244.015 34.6867 244.056 34.7256 244.107 34.7256C244.157 34.7256 244.174 34.7645 244.145 34.8121C244.115 34.8597 244.033 34.8986 243.961 34.8986C243.89 34.8986 243.856 34.8597 243.885 34.8121C243.915 34.7645 243.897 34.7256 243.847 34.7256C243.797 34.7256 243.755 34.7957 243.755 34.8813C243.755 35.0544 243.597 35.2459 243.457 35.242C243.407 35.2405 243.434 35.1997 243.518 35.1511C243.601 35.1026 243.669 35.0244 243.669 34.9774C243.669 34.8841 243.282 35.2167 243.277 35.3144C243.275 35.3473 243.22 35.4716 243.153 35.5905C243.087 35.7094 243.041 35.9624 243.05 36.1527C243.059 36.343 243.037 36.4537 243 36.3988C242.964 36.3438 242.934 36.6026 242.934 36.9739C242.934 37.3545 242.965 37.6056 243.006 37.5495C243.047 37.493 243.055 37.5528 243.026 37.6879C242.959 37.9934 243.05 38.3582 243.193 38.3582C243.255 38.3582 243.328 38.4186 243.356 38.4924C243.385 38.5685 243.371 38.604 243.323 38.5744C243.275 38.5448 243.261 38.5803 243.29 38.6564C243.318 38.7303 243.392 38.7907 243.453 38.7907C243.561 38.7907 243.71 39.0287 243.683 39.1582C243.67 39.2198 243.711 39.2327 244.015 39.2619C244.086 39.2688 244.135 39.3213 244.123 39.3785C244.111 39.4358 244.131 39.4855 244.166 39.4892C244.329 39.5058 244.514 39.5633 244.804 39.6876C245.395 39.9406 247.3 40.0498 247.371 39.8347C247.389 39.7823 247.634 39.7414 247.935 39.7407C248.298 39.7398 248.428 39.7137 248.342 39.6589C248.145 39.5345 248.3 39.4555 248.515 39.5707C248.644 39.6395 248.687 39.6417 248.647 39.5777C248.592 39.4879 248.631 39.4705 248.944 39.4462C249.02 39.4404 249.071 39.3561 249.067 39.245C249.062 39.1016 249.088 39.0762 249.169 39.1434C249.244 39.2058 249.327 39.2019 249.441 39.1306C249.644 39.0038 250.087 38.2324 250.004 38.1497C249.971 38.1165 249.996 38.0571 250.06 38.0177C250.137 37.9702 250.19 37.688 250.218 37.1792C250.253 36.5456 250.229 36.3227 250.079 35.8982C249.89 35.3654 249.651 35.0047 249.76 35.4175C249.809 35.6034 249.804 35.6118 249.72 35.4771C249.666 35.391 249.641 35.2708 249.664 35.2099C249.688 35.149 249.681 35.0634 249.65 35.0197C249.569 34.9071 248.858 34.4532 248.858 34.5143C248.858 34.5422 248.796 34.5035 248.721 34.4283C248.646 34.3531 248.549 34.3137 248.505 34.3407C248.461 34.3677 248.425 34.3528 248.425 34.3075C248.425 34.2622 248.483 34.203 248.554 34.176C248.627 34.1479 248.66 34.0694 248.631 33.9937C248.603 33.9206 248.625 33.8607 248.681 33.8607C248.736 33.8607 248.758 33.8996 248.728 33.9472C248.629 34.1082 248.796 34.0349 249.152 33.7615C249.347 33.6118 249.617 33.3118 249.752 33.0946C249.96 32.7607 250.005 32.5794 250.045 31.9174C250.085 31.2385 250.066 31.0767 249.901 30.6928C249.786 30.4249 249.629 30.2131 249.502 30.1555C249.38 30.0998 249.313 30.0113 249.339 29.9419C249.397 29.7906 249.158 29.5874 249.021 29.6718C248.962 29.7085 248.94 29.6994 248.97 29.6505C249.054 29.5148 248.326 29.1796 248.191 29.2917C248.069 29.3932 247.561 29.2332 247.561 29.0933C247.561 28.9937 245.801 29.0113 245.357 29.1153ZM258.544 29.1153C258.377 29.1606 258.183 29.2218 258.111 29.2514C258.04 29.2809 257.943 29.3102 257.895 29.3164C257.848 29.3227 257.818 29.3733 257.829 29.4289C257.841 29.4862 257.794 29.5084 257.721 29.4803C257.495 29.3938 256.905 29.8457 256.894 30.1139C256.89 30.2107 256.87 30.2284 256.842 30.1596C256.771 29.9832 256.555 30.2095 256.555 30.46C256.555 30.5974 256.52 30.6492 256.455 30.6091C256.394 30.5714 256.379 30.5853 256.415 30.6447C256.448 30.6982 256.415 30.8579 256.342 30.9997C256.269 31.1415 256.209 31.2983 256.209 31.3482C256.209 31.4063 256.567 31.439 257.203 31.439C258.13 31.439 258.198 31.4276 258.198 31.2711C258.198 31.1787 258.24 31.0775 258.29 31.0461C258.341 31.0148 258.361 30.9326 258.335 30.8636C258.308 30.7945 258.32 30.7591 258.362 30.7849C258.404 30.8106 258.458 30.7542 258.483 30.6596C258.507 30.565 258.492 30.4876 258.449 30.4876C258.406 30.4876 258.371 30.4473 258.371 30.3981C258.371 30.3364 258.423 30.3363 258.538 30.3977C258.707 30.4884 258.976 30.4379 258.976 30.3155C258.976 30.2785 259.054 30.228 259.149 30.203C259.244 30.1782 259.322 30.1985 259.322 30.2484C259.322 30.3054 259.49 30.3227 259.776 30.2951C260.225 30.2518 260.665 30.3632 260.706 30.5308C260.758 30.7381 260.815 30.83 260.869 30.7962C260.949 30.7469 260.97 30.913 261.004 31.8492C261.024 32.3986 261.005 32.6309 260.942 32.5918C260.887 32.5579 260.869 32.5855 260.897 32.6601C260.924 32.7289 260.882 32.8629 260.804 32.9578C260.66 33.1338 260.111 33.5019 259.992 33.5023C259.956 33.5024 259.712 33.5292 259.451 33.5618L258.976 33.6211L258.977 33.9355C258.978 34.1084 259.002 34.3959 259.032 34.5743C259.085 34.896 259.089 34.8986 259.496 34.8986C259.722 34.8986 260.045 34.9566 260.215 35.0275C260.384 35.0984 260.574 35.1436 260.636 35.1281C260.698 35.1127 260.717 35.1173 260.677 35.1385C260.638 35.1598 260.702 35.2799 260.82 35.4054C260.938 35.531 261.049 35.7039 261.065 35.7897C261.082 35.8754 261.13 35.9402 261.172 35.9336C261.284 35.9162 261.395 36.1229 261.397 36.3524C261.397 36.4786 261.362 36.53 261.301 36.492C261.197 36.4277 261.227 36.8625 261.35 37.1906C261.403 37.3343 261.397 37.3417 261.312 37.2338C261.23 37.1295 261.22 37.16 261.26 37.3895C261.288 37.5523 261.275 37.6539 261.23 37.6261C261.148 37.5754 261.034 37.8418 261.009 38.1416C261 38.249 260.932 38.3143 260.828 38.3146C260.722 38.3148 260.671 38.3665 260.687 38.4598C260.7 38.5395 260.665 38.6331 260.608 38.6677C260.547 38.706 260.529 38.6938 260.564 38.637C260.659 38.4833 260.485 38.4406 260.308 38.5744C260.128 38.7104 258.67 38.7631 258.752 38.6307C258.777 38.5903 258.704 38.5072 258.59 38.4462C258.476 38.3851 258.336 38.2241 258.28 38.0883C258.224 37.9526 258.144 37.8624 258.102 37.8881C258.061 37.9137 258.05 37.8744 258.078 37.8005C258.109 37.7201 258.083 37.6658 258.013 37.665C257.915 37.6639 257.916 37.6506 258.015 37.5879C258.229 37.4522 257.817 37.3933 256.858 37.4225L255.951 37.4501L256.006 37.7528C256.036 37.9193 256.084 38.0749 256.113 38.0987C256.142 38.1225 256.178 38.2004 256.194 38.2717C256.325 38.8682 257.199 39.5642 258.068 39.7644C258.569 39.8796 259.209 39.9361 259.093 39.8548C259.039 39.8166 259.38 39.78 259.85 39.7736C260.437 39.7656 260.706 39.7927 260.707 39.8601C260.708 39.9206 260.736 39.9143 260.781 39.8435C260.821 39.7804 260.908 39.7398 260.975 39.7534C261.176 39.7944 261.571 39.6588 261.549 39.5567C261.537 39.504 261.576 39.4431 261.636 39.4213C261.695 39.3995 261.744 39.4201 261.744 39.4673C261.744 39.5198 261.827 39.5142 261.959 39.4528C262.078 39.3978 262.175 39.3087 262.175 39.2548C262.176 39.2009 262.259 39.1351 262.36 39.1086C262.478 39.0778 262.527 39.0145 262.496 38.9327C262.469 38.8624 262.504 38.7827 262.575 38.7555C262.659 38.7236 262.685 38.7439 262.65 38.8132C262.62 38.8722 262.652 38.8522 262.72 38.7689C262.788 38.6857 262.829 38.5105 262.811 38.3797C262.784 38.1795 262.791 38.1693 262.857 38.315C262.931 38.4792 262.94 38.4765 263.025 38.2621C263.196 37.829 263.323 36.9716 263.263 36.6498C263.229 36.4716 263.187 36.1799 263.167 36.0019C263.148 35.8237 263.076 35.5707 263.008 35.4397C262.779 35.0021 262.217 34.5194 261.83 34.427C261.806 34.4214 261.696 34.3664 261.585 34.3048C261.392 34.1976 261.39 34.1876 261.542 34.0656C261.69 33.9467 261.686 33.9421 261.484 33.9967C261.365 34.0288 261.298 34.0237 261.334 33.9853C261.371 33.9469 261.543 33.9042 261.717 33.8905C262.034 33.8656 262.209 33.7244 262.114 33.5704C262.085 33.5245 262.109 33.5164 262.167 33.5521C262.3 33.6345 262.543 33.435 262.487 33.2891C262.461 33.222 262.491 33.1954 262.561 33.2223C262.724 33.2848 262.81 33.1095 262.797 32.7444C262.789 32.5165 262.808 32.4682 262.869 32.5634C262.935 32.6665 262.954 32.6487 262.962 32.4769C263.017 31.2593 262.898 30.4949 262.622 30.2962C262.537 30.235 262.436 30.107 262.398 30.0119C262.354 29.9007 262.315 29.8778 262.288 29.9476C262.231 30.101 262.09 29.9911 262.09 29.7933C262.09 29.6729 262.049 29.6428 261.938 29.6825C261.855 29.7123 261.816 29.7049 261.851 29.666C261.969 29.5361 261.726 29.3632 261.425 29.3632C261.262 29.3632 261.148 29.3307 261.173 29.291C261.302 29.0818 259.186 28.9404 258.544 29.1153ZM247.82 29.1377C247.82 29.1564 247.88 29.1949 247.954 29.2233C248.031 29.2528 248.066 29.2382 248.036 29.1893C247.985 29.107 247.82 29.0677 247.82 29.1377ZM139.977 29.2767C139.977 29.3243 139.87 29.3605 139.739 29.3572C139.529 29.3517 139.521 29.3426 139.674 29.2767C139.911 29.1752 139.977 29.1752 139.977 29.2767ZM245.745 29.2767C245.745 29.3243 245.637 29.3593 245.507 29.3546L245.269 29.346L245.485 29.2767C245.604 29.2387 245.711 29.2036 245.723 29.1989C245.735 29.1941 245.745 29.2292 245.745 29.2767ZM260.855 29.329C260.827 29.3577 260.752 29.3608 260.69 29.3358C260.621 29.3082 260.641 29.2877 260.742 29.2836C260.833 29.2798 260.884 29.3003 260.855 29.329ZM234.761 29.4981C234.761 29.5722 234.801 29.6084 234.849 29.5786C234.898 29.5487 234.915 29.488 234.887 29.4437C234.813 29.3238 234.761 29.3461 234.761 29.4981ZM28.6748 29.526C28.6748 29.5736 28.7137 29.6365 28.7613 29.6659C28.8088 29.6953 28.8477 29.6805 28.8477 29.6329C28.8477 29.5853 28.8088 29.5224 28.7613 29.493C28.7137 29.4636 28.6748 29.4784 28.6748 29.526ZM257.593 29.6227C257.521 29.6688 257.424 29.7065 257.376 29.7065C257.329 29.7065 257.348 29.6688 257.42 29.6227C257.491 29.5766 257.588 29.5389 257.636 29.5389C257.683 29.5389 257.664 29.5766 257.593 29.6227ZM115.389 29.8119C115.361 29.8809 115.341 29.8604 115.337 29.7596C115.333 29.6684 115.353 29.6174 115.382 29.6461C115.411 29.6748 115.414 29.7495 115.389 29.8119ZM230.58 29.9217C230.552 29.9951 230.47 30.0551 230.397 30.0551C230.285 30.0551 230.288 30.0308 230.416 29.8966C230.588 29.7159 230.655 29.7261 230.58 29.9217ZM109.414 30.0329C109.354 30.0929 109.189 29.971 109.189 29.8665C109.189 29.8091 109.239 29.8157 109.321 29.8839C109.394 29.9441 109.435 30.0111 109.414 30.0329ZM208.53 30.0714C208.502 30.1403 208.482 30.1198 208.478 30.0191C208.474 29.9279 208.494 29.8769 208.523 29.9056C208.552 29.9343 208.555 30.009 208.53 30.0714ZM232.21 30.0551C232.24 30.1027 232.222 30.1416 232.172 30.1416C232.122 30.1416 232.08 30.1027 232.08 30.0551C232.08 30.0076 232.098 29.9687 232.119 29.9687C232.14 29.9687 232.181 30.0076 232.21 30.0551ZM249.377 30.0026C249.377 30.0213 249.437 30.0598 249.511 30.0882C249.588 30.1177 249.623 30.1031 249.592 30.0542C249.542 29.9719 249.377 29.9326 249.377 30.0026ZM46.2005 30.1871C46.3836 30.2627 46.6501 30.4762 46.7928 30.6615C46.9354 30.8469 47.089 31.0003 47.134 31.0026C47.1791 31.0047 47.0889 30.8755 46.9336 30.7153C46.7045 30.4789 46.6769 30.4143 46.787 30.372C46.8653 30.3419 46.9225 30.3655 46.9225 30.4278C46.9225 30.4872 47.0036 30.605 47.1026 30.6899C47.2017 30.7747 47.2619 30.8986 47.2364 30.9651C47.182 31.1069 47.431 31.8879 47.5144 31.8369C47.5456 31.8179 47.5813 32.0383 47.5938 32.3265C47.6061 32.6148 47.6566 32.8993 47.7058 32.9586C47.7604 33.0244 47.7719 33.2433 47.7352 33.5199C47.6912 33.8519 47.7017 33.9569 47.7744 33.9119C47.8451 33.8682 47.8738 34.0032 47.8738 34.3797C47.8738 34.6759 47.8391 34.8873 47.795 34.8601C47.7517 34.8333 47.703 35.0415 47.6869 35.3227C47.6708 35.6039 47.6867 35.8158 47.7224 35.7936C47.7582 35.7715 47.7873 35.7913 47.7873 35.8377C47.7873 35.8841 47.7434 35.9367 47.6897 35.9545C47.6283 35.975 47.5918 36.2418 47.5914 36.6754C47.5909 37.1529 47.571 37.2842 47.5263 37.1041C47.4791 36.9139 47.4563 36.8908 47.4414 37.0176C47.4301 37.1127 47.4273 37.2398 47.4351 37.2998C47.443 37.3599 47.3924 37.431 47.3226 37.4578C47.2399 37.4896 47.2091 37.587 47.234 37.7377C47.2569 37.8769 47.2438 37.9264 47.2009 37.8618C47.1498 37.785 47.0214 37.8649 46.7486 38.1429C46.539 38.3565 46.3173 38.5312 46.2559 38.5312C46.1944 38.5312 46.1441 38.5701 46.1441 38.6177C46.1441 38.6686 45.8404 38.7042 45.406 38.7042C44.8488 38.7042 44.6112 38.6671 44.4364 38.5528C44.3092 38.4696 44.235 38.4501 44.2716 38.5096C44.3082 38.5691 44.3067 38.6168 44.2683 38.6158C44.1749 38.6132 43.7468 38.2761 43.8338 38.2736C43.8711 38.2726 43.8608 38.1953 43.8109 38.1019C43.7517 37.9914 43.6677 37.9506 43.57 37.9849C43.45 38.0271 43.4409 38.0151 43.5243 37.925C43.6065 37.8361 43.593 37.762 43.4607 37.5762C43.3683 37.4465 43.25 37.1315 43.198 36.8763C43.1458 36.621 43.0285 36.2064 42.9372 35.9548C42.7599 35.4661 42.7284 35.3022 42.8476 35.4905C42.8932 35.5624 42.9254 35.3973 42.932 35.0581C42.9395 34.6735 42.9175 34.5482 42.8583 34.6391C42.7968 34.7337 42.774 34.6636 42.774 34.3797C42.774 34.0968 42.7969 34.0259 42.8578 34.1202C42.9165 34.2109 42.9402 34.0808 42.9369 33.6877C42.9336 33.2944 42.9098 33.1775 42.8578 33.2985C42.8022 33.428 42.7845 33.3735 42.7874 33.0823C42.7896 32.8682 42.8092 32.7612 42.8309 32.8445C42.8875 33.0608 43.0119 33.0316 43.0156 32.8012C43.0213 32.4471 43.1942 31.6844 43.2969 31.5607C43.3524 31.4937 43.3742 31.439 43.3453 31.439C43.2488 31.439 43.6203 30.8978 43.998 30.4884L44.3713 30.0837L45.1195 30.0667C45.6392 30.055 45.9694 30.0917 46.2005 30.1871ZM46.663 30.1416C46.663 30.1892 46.6264 30.2281 46.5816 30.2281C46.5369 30.2281 46.4762 30.1892 46.4468 30.1416C46.4174 30.0941 46.4541 30.0551 46.5282 30.0551C46.6023 30.0551 46.663 30.0941 46.663 30.1416ZM96.0709 30.1198C95.491 30.1346 94.5181 30.1347 93.9088 30.1198C93.2997 30.105 93.7741 30.0927 94.9632 30.0927C96.1523 30.0926 96.6508 30.1048 96.0709 30.1198ZM105.514 30.1416C105.33 30.1884 105.469 30.2102 105.99 30.2165C106.531 30.2231 106.691 30.2012 106.595 30.1335C106.496 30.0634 106.527 30.0538 106.725 30.0932C107.093 30.1664 107.126 30.178 107.427 30.3375C107.576 30.4162 107.728 30.4531 107.765 30.4193C107.803 30.3855 107.806 30.4066 107.771 30.466C107.737 30.5255 107.747 30.5741 107.794 30.5741C107.93 30.5741 108.238 31.1363 108.238 31.3843C108.238 31.5096 108.277 31.612 108.325 31.612C108.439 31.612 108.436 32.1576 108.321 32.2725C108.263 32.331 108.26 32.4363 108.312 32.5746C108.369 32.7235 108.358 32.8503 108.276 32.9994C108.205 33.1268 108.156 33.16 108.154 33.0823C108.152 32.9949 108.087 33.0276 107.957 33.1822C107.85 33.3085 107.587 33.5061 107.373 33.6213C107.039 33.8013 106.85 33.8337 106.033 33.8519L105.082 33.873V32.0158C105.082 30.9943 105.111 30.1765 105.146 30.1984C105.182 30.2203 105.211 30.1971 105.211 30.1467C105.211 30.0964 105.338 30.0597 105.492 30.0654L105.773 30.0756L105.514 30.1416ZM156.928 30.1267C156.928 30.166 155.972 30.199 154.804 30.1998C153.635 30.2008 152.73 30.1691 152.793 30.1296C152.941 30.0359 156.928 30.0331 156.928 30.1267ZM183.91 30.1416C183.741 30.2511 183.626 30.2511 183.694 30.1416C183.723 30.0941 183.813 30.0558 183.893 30.0564C184.019 30.0577 184.022 30.0694 183.91 30.1416ZM205.963 30.1416C205.963 30.1892 205.946 30.2281 205.925 30.2281C205.904 30.2281 205.863 30.1892 205.833 30.1416C205.804 30.0941 205.821 30.0551 205.871 30.0551C205.922 30.0551 205.963 30.0941 205.963 30.1416ZM232.986 30.1486C233.589 30.26 234.156 30.5846 234.156 30.8182C234.156 30.864 234.206 30.9207 234.266 30.944C234.327 30.9673 234.386 31.1174 234.397 31.2776C234.429 31.7532 234.511 32.0493 234.595 31.9968C234.639 31.9698 234.675 31.989 234.675 32.0393C234.675 32.0897 234.631 32.1309 234.578 32.1309C234.513 32.1309 234.494 32.3021 234.519 32.6498C234.539 32.9353 234.524 33.1688 234.486 33.1688C234.447 33.1688 234.415 33.2638 234.415 33.3799C234.415 33.4961 234.376 33.6155 234.328 33.6454C234.279 33.6753 234.266 33.742 234.298 33.7936C234.332 33.8487 234.316 33.8626 234.258 33.8273C234.2 33.7911 234.14 33.8522 234.107 33.9812C234.073 34.1185 234.01 34.1784 233.932 34.1484C233.858 34.1203 233.81 34.1565 233.81 34.2396C233.81 34.3182 233.745 34.3721 233.659 34.3649C233.335 34.3378 233.11 34.3835 233.161 34.4661C233.195 34.5198 233.057 34.5483 232.799 34.5412C232.395 34.5302 232.392 34.528 232.686 34.4661C232.963 34.4078 232.968 34.4014 232.747 34.3911C232.382 34.3739 231.898 34.0833 231.575 33.6886C231.341 33.4011 231.306 33.3113 231.391 33.2086C231.453 33.1348 231.46 33.0823 231.409 33.0823C231.314 33.0823 231.325 31.6989 231.421 31.5435C231.451 31.4941 231.428 31.4377 231.369 31.4181C231.284 31.3899 231.284 31.3393 231.369 31.1729L231.476 30.9633L231.428 31.1795C231.381 31.3878 231.385 31.3896 231.514 31.2279C231.588 31.1355 231.653 31.009 231.659 30.9468C231.681 30.7101 231.693 30.673 231.77 30.6029C231.817 30.5599 231.819 30.5832 231.774 30.6606C231.734 30.7319 231.822 30.6764 231.97 30.5372C232.119 30.3979 232.329 30.2705 232.436 30.2541C232.544 30.2376 232.654 30.1999 232.68 30.1702C232.707 30.1404 232.642 30.1377 232.534 30.164C232.427 30.1903 232.34 30.1767 232.34 30.1335C232.34 30.0345 232.373 30.0353 232.986 30.1486ZM247.104 30.2216C247.297 30.2734 247.504 30.3758 247.565 30.4491C247.653 30.5562 247.691 30.5602 247.754 30.47C247.815 30.3835 247.825 30.3875 247.797 30.4876C247.741 30.6886 248.087 31.3061 248.177 31.1647C248.217 31.1015 248.25 31.0919 248.251 31.1435C248.252 31.195 248.226 31.2638 248.193 31.2962C248.161 31.3287 248.126 31.6323 248.116 31.9709C248.104 32.3947 248.125 32.5493 248.184 32.4668C248.249 32.3753 248.257 32.3844 248.217 32.5056C248.189 32.5927 248.163 32.7289 248.16 32.8083C248.155 32.9232 248.139 32.9175 248.081 32.7796C248.016 32.6254 248.001 32.6361 247.948 32.8778C247.914 33.035 247.802 33.1957 247.682 33.26C247.567 33.321 247.474 33.4187 247.474 33.4769C247.474 33.5351 247.413 33.6063 247.337 33.6352C247.139 33.7113 247.024 33.6997 247.08 33.6093C247.107 33.5661 246.995 33.5718 246.832 33.6219C246.584 33.6981 246.454 33.6799 246.032 33.5093C245.755 33.3973 245.451 33.2303 245.355 33.138C245.26 33.0458 245.241 33.0022 245.312 33.0412C245.4 33.089 245.39 33.0527 245.282 32.9301C245.17 32.8017 245.105 32.5363 245.06 32.0287C244.998 31.3239 245.002 31.3009 245.263 30.9013C245.409 30.6769 245.636 30.4481 245.768 30.3927C246.078 30.2626 246.183 30.1031 245.907 30.1812C245.75 30.2255 245.732 30.2182 245.831 30.1505C245.979 30.0487 246.589 30.0828 247.104 30.2216ZM247.278 30.1074C247.249 30.1361 247.174 30.1392 247.112 30.1142C247.043 30.0866 247.064 30.0661 247.164 30.062C247.255 30.0583 247.307 30.0787 247.278 30.1074ZM260.297 30.1119C260.238 30.1356 260.121 30.137 260.037 30.1151C259.953 30.0931 260.001 30.0737 260.144 30.072C260.286 30.0703 260.355 30.0882 260.297 30.1119ZM204.32 30.1798C204.32 30.2008 204.281 30.242 204.233 30.2714C204.186 30.3008 204.147 30.2836 204.147 30.2332C204.147 30.1829 204.186 30.1416 204.233 30.1416C204.281 30.1416 204.32 30.1588 204.32 30.1798ZM243.755 30.1743C243.755 30.1922 243.687 30.2604 243.604 30.3257C243.467 30.4332 243.464 30.4302 243.571 30.293C243.684 30.1489 243.755 30.1031 243.755 30.1743ZM245.397 30.5813C245.398 30.609 245.34 30.6318 245.269 30.6318C245.12 30.6318 245.121 30.6351 245.194 30.4442C245.239 30.3292 245.264 30.3234 245.323 30.4155C245.363 30.4789 245.397 30.5535 245.397 30.5813ZM169.173 30.5395C169.143 30.6197 169.137 30.7048 169.161 30.7286C169.184 30.7523 169.229 30.7062 169.26 30.626C169.291 30.5458 169.296 30.4607 169.273 30.4369C169.249 30.4131 169.204 30.4593 169.173 30.5395ZM220.814 30.4533C220.786 30.4821 220.711 30.4852 220.649 30.4602C220.58 30.4326 220.6 30.4121 220.701 30.4079C220.792 30.4042 220.843 30.4246 220.814 30.4533ZM204.484 34.9635C204.479 37.4251 204.444 39.342 204.406 39.2231C204.301 38.8956 204.301 30.4876 204.406 30.4876C204.463 30.4876 204.49 32.0314 204.484 34.9635ZM78.3727 30.8552C78.3487 30.9147 78.3291 30.866 78.3291 30.7471C78.3291 30.6281 78.3487 30.5795 78.3727 30.639C78.3967 30.6985 78.3967 30.7958 78.3727 30.8552ZM144.879 30.8498C144.852 30.9187 144.831 30.8983 144.827 30.7975C144.823 30.7063 144.844 30.6553 144.872 30.684C144.901 30.7127 144.904 30.7874 144.879 30.8498ZM109.981 31.093C109.981 31.2119 110.001 31.2606 110.025 31.2011C110.049 31.1417 110.049 31.0444 110.025 30.9849C110.001 30.9255 109.981 30.9741 109.981 31.093ZM79.9586 31.1846C79.9586 31.2294 79.9197 31.266 79.8721 31.266C79.8245 31.266 79.7856 31.2053 79.7856 31.1312C79.7856 31.057 79.8245 31.0204 79.8721 31.0498C79.9197 31.0792 79.9586 31.1398 79.9586 31.1846ZM123.518 31.1958C123.491 31.2647 123.47 31.2442 123.466 31.1435C123.462 31.0523 123.483 31.0013 123.511 31.03C123.54 31.0587 123.543 31.1333 123.518 31.1958ZM262.947 31.3957C262.95 31.4433 262.914 31.4239 262.868 31.3525C262.822 31.2811 262.786 31.1644 262.789 31.093C262.794 30.956 262.938 31.2319 262.947 31.3957ZM170.824 31.2823C170.796 31.3512 170.776 31.3307 170.772 31.2299C170.768 31.1388 170.788 31.0878 170.817 31.1165C170.846 31.1452 170.849 31.2198 170.824 31.2823ZM143.41 31.6752C143.388 31.7593 143.368 31.7114 143.367 31.5687C143.365 31.426 143.383 31.3572 143.407 31.4157C143.43 31.4743 143.432 31.591 143.41 31.6752ZM110.078 31.7849C110.078 31.999 110.095 32.0866 110.115 31.9795C110.136 31.8725 110.136 31.6974 110.115 31.5903C110.095 31.4833 110.078 31.5709 110.078 31.7849ZM262.843 31.9785C262.822 32.0861 262.804 32.0185 262.803 31.8282C262.802 31.6379 262.819 31.5499 262.841 31.6326C262.863 31.7152 262.863 31.8709 262.843 31.9785ZM244.905 32.1264C244.937 32.3753 244.926 32.4669 244.875 32.3859C244.802 32.2703 244.754 31.6245 244.825 31.7056C244.842 31.7255 244.878 31.9149 244.905 32.1264ZM229.543 32.066C229.519 32.1255 229.5 32.0769 229.5 31.9579C229.5 31.839 229.519 31.7904 229.543 31.8498C229.567 31.9093 229.567 32.0066 229.543 32.066ZM169.381 32.2174C169.381 32.265 169.364 32.3039 169.343 32.3039C169.322 32.3039 169.281 32.265 169.251 32.2174C169.222 32.1698 169.239 32.1309 169.289 32.1309C169.34 32.1309 169.381 32.1698 169.381 32.2174ZM41.3602 32.4066C41.3326 32.4756 41.3121 32.4551 41.308 32.3543C41.3043 32.2632 41.3247 32.2121 41.3534 32.2408C41.3821 32.2695 41.3852 32.3442 41.3602 32.4066ZM234.734 32.7147C234.713 32.7979 234.695 32.7299 234.695 32.5634C234.695 32.3969 234.713 32.3288 234.734 32.412C234.756 32.4952 234.756 32.6315 234.734 32.7147ZM49.403 32.5796C49.3755 32.6485 49.355 32.6281 49.3508 32.5273C49.3471 32.4361 49.3675 32.3851 49.3962 32.4138C49.4249 32.4425 49.428 32.5172 49.403 32.5796ZM243.363 32.4709C243.39 32.5152 243.373 32.5758 243.324 32.6057C243.276 32.6356 243.237 32.5993 243.237 32.5252C243.237 32.3733 243.288 32.3509 243.363 32.4709ZM78.7451 33.034C78.7466 33.0788 78.6907 33.0398 78.6209 32.9475C78.551 32.8552 78.4926 32.7429 78.4912 32.6982C78.4896 32.6534 78.5456 32.6923 78.6154 32.7847C78.6852 32.877 78.7436 32.9892 78.7451 33.034ZM80.6505 32.8279C80.6505 32.8727 80.6115 32.9093 80.564 32.9093C80.5164 32.9093 80.4775 32.8486 80.4775 32.7745C80.4775 32.7004 80.5164 32.6637 80.564 32.6931C80.6115 32.7225 80.6505 32.7831 80.6505 32.8279ZM122.738 33.5364C122.714 33.5959 122.694 33.5472 122.694 33.4283C122.694 33.3093 122.714 33.2607 122.738 33.3201C122.762 33.3797 122.762 33.477 122.738 33.5364ZM231.389 33.3367C231.389 33.3815 231.427 33.4418 231.474 33.4709C231.523 33.5012 231.538 33.4665 231.508 33.3895C231.451 33.2397 231.389 33.2123 231.389 33.3367ZM260.531 33.3871C260.471 33.4596 260.399 33.4964 260.372 33.4689C260.344 33.4414 260.379 33.3827 260.449 33.3384C260.632 33.2226 260.656 33.2368 260.531 33.3871ZM121.183 33.877C121.155 33.9459 121.135 33.9254 121.131 33.8246C121.127 33.7335 121.148 33.6825 121.176 33.7112C121.205 33.7399 121.208 33.8145 121.183 33.877ZM246.932 33.8265C246.903 33.8552 246.829 33.8583 246.766 33.8333C246.697 33.8057 246.718 33.7852 246.818 33.7811C246.91 33.7773 246.961 33.7977 246.932 33.8265ZM248.493 34.532C248.441 34.5954 248.374 34.6163 248.346 34.5783C248.317 34.5404 248.258 34.4801 248.215 34.4443C248.172 34.4085 248.239 34.3876 248.363 34.3979C248.541 34.4126 248.569 34.4412 248.493 34.532ZM155.7 34.6172C155.144 34.6322 154.21 34.6323 153.625 34.6172C153.039 34.6023 153.494 34.59 154.636 34.5899C155.777 34.5899 156.256 34.6021 155.7 34.6172ZM234.891 34.6391C234.862 34.6867 234.801 34.7256 234.756 34.7256C234.711 34.7256 234.675 34.6867 234.675 34.6391C234.675 34.5916 234.736 34.5526 234.81 34.5526C234.884 34.5526 234.92 34.5916 234.891 34.6391ZM246.436 34.6391C246.365 34.6852 246.268 34.7229 246.22 34.7229C246.173 34.7229 246.192 34.6852 246.263 34.6391C246.335 34.593 246.432 34.5553 246.48 34.5553C246.527 34.5553 246.508 34.593 246.436 34.6391ZM81.2558 34.6773C81.2558 34.7685 81.0899 34.8069 81.0405 34.727C81.0107 34.6786 81.0469 34.6391 81.121 34.6391C81.1951 34.6391 81.2558 34.6562 81.2558 34.6773ZM262.3 34.9075C262.275 34.9493 262.201 34.9351 262.137 34.8761C261.986 34.7358 262.068 34.6004 262.226 34.7312C262.293 34.7865 262.326 34.8658 262.3 34.9075ZM30.377 34.9149C30.3494 34.9838 30.3289 34.9633 30.3248 34.8625C30.321 34.7714 30.3415 34.7203 30.3702 34.7491C30.3989 34.7778 30.402 34.8524 30.377 34.9149ZM247.498 35.0237C247.622 35.1047 247.832 35.314 247.966 35.4888C248.202 35.7977 248.21 35.8399 248.227 36.9744C248.237 37.6165 248.216 38.0486 248.182 37.9344L248.119 37.7269L248.025 37.9344C247.973 38.0486 247.928 38.176 247.925 38.2177C247.923 38.2594 247.82 38.3596 247.697 38.4404C247.574 38.5213 247.502 38.6199 247.538 38.6597C247.574 38.6994 247.557 38.7047 247.499 38.6714C247.441 38.6381 247.188 38.6632 246.936 38.7273C246.502 38.8383 246.387 38.8288 245.831 38.6355C245.76 38.6107 245.649 38.5992 245.585 38.6098C245.52 38.6205 245.492 38.5896 245.522 38.5413C245.552 38.493 245.494 38.4095 245.394 38.3559C245.294 38.3022 245.172 38.1421 245.122 38.0002C245.061 37.8246 244.991 37.758 244.903 37.7917C244.806 37.8288 244.79 37.8029 244.839 37.6888C244.911 37.5217 244.911 37.4955 244.83 36.7921C244.793 36.4759 244.81 36.2391 244.879 36.1114C244.947 35.9832 244.951 35.9359 244.888 35.9744C244.778 36.0429 244.773 35.8812 244.88 35.6338C244.948 35.4744 244.955 35.4778 244.966 35.677L244.977 35.8932L245.06 35.6853C245.106 35.5709 245.23 35.4013 245.336 35.3083C245.442 35.2153 245.515 35.0948 245.5 35.0405C245.484 34.9863 245.495 34.966 245.524 34.9955C245.554 35.0249 245.722 34.995 245.899 34.929C246.312 34.7748 247.199 34.8273 247.498 35.0237ZM18.0375 35.6657V36.4328L18.3618 36.4864C18.7539 36.5512 23.5959 36.5606 23.762 36.4968C23.8543 36.4615 23.8664 36.3091 23.8185 35.7833C23.785 35.4156 23.7548 35.0662 23.7514 35.0067C23.7467 34.9225 23.1136 34.8986 20.8914 34.8986H18.0375V35.6657ZM92.736 37.5535C92.7207 38.0674 92.7081 37.6706 92.708 36.6716C92.7079 35.6727 92.7205 35.2522 92.7359 35.7372C92.7513 36.2222 92.7514 37.0395 92.736 37.5535ZM233.853 34.9851C233.824 35.0327 233.761 35.0716 233.713 35.0716C233.666 35.0716 233.651 35.0327 233.68 34.9851C233.71 34.9375 233.773 34.8986 233.82 34.8986C233.868 34.8986 233.883 34.9375 233.853 34.9851ZM260.51 34.9508C260.481 34.9795 260.406 34.9827 260.344 34.9577C260.275 34.9301 260.295 34.9096 260.396 34.9054C260.487 34.9017 260.538 34.9221 260.51 34.9508ZM47.9577 35.3094C47.9554 35.5135 47.9424 35.5256 47.8664 35.3952C47.8177 35.3116 47.8018 35.2046 47.831 35.1574C47.9204 35.0127 47.9603 35.0607 47.9577 35.3094ZM231.625 35.2968C231.596 35.3255 231.521 35.3286 231.459 35.3036C231.39 35.276 231.41 35.2555 231.511 35.2514C231.602 35.2477 231.653 35.2681 231.625 35.2968ZM33.8896 35.5335C33.9141 35.5973 33.9037 35.6987 33.8665 35.7589C33.8232 35.829 33.7988 35.7872 33.7988 35.643C33.7988 35.3913 33.8237 35.3614 33.8896 35.5335ZM109.732 36.5394C109.683 36.6002 109.538 36.3451 109.538 36.1959C109.538 36.1244 109.589 36.1633 109.652 36.2824C109.715 36.4014 109.751 36.517 109.732 36.5394ZM250.041 36.2987C250.014 36.3676 249.993 36.3471 249.989 36.2464C249.985 36.1552 250.006 36.1042 250.034 36.1329C250.063 36.1616 250.066 36.2362 250.041 36.2987ZM261.232 36.2464C261.236 36.3471 261.256 36.3676 261.284 36.2987C261.309 36.2362 261.306 36.1616 261.277 36.1329C261.248 36.1042 261.228 36.1552 261.232 36.2464ZM22.5129 36.4336C21.8113 36.4481 20.6633 36.4481 19.9617 36.4336C19.2601 36.4191 19.8342 36.4072 21.2373 36.4072C22.6405 36.4072 23.2146 36.4191 22.5129 36.4336ZM85.1475 36.5419C85.1475 36.5895 85.1086 36.6284 85.061 36.6284C85.0135 36.6284 84.9745 36.5895 84.9745 36.5419C84.9745 36.4943 85.0135 36.4554 85.061 36.4554C85.1086 36.4554 85.1475 36.4943 85.1475 36.5419ZM117.808 36.996C117.785 37.0555 117.765 37.0068 117.765 36.8879C117.765 36.7689 117.785 36.7203 117.808 36.7798C117.833 36.8393 117.833 36.9366 117.808 36.996ZM137.874 37.1636C137.847 37.2325 137.826 37.212 137.822 37.1113C137.818 37.0201 137.839 36.9691 137.867 36.9978C137.896 37.0265 137.899 37.1011 137.874 37.1636ZM236.202 37.3419C236.178 37.4014 236.159 37.3527 236.159 37.2338C236.159 37.1149 236.178 37.0663 236.202 37.1257C236.226 37.1852 236.226 37.2825 236.202 37.3419ZM31.226 37.2338C31.2554 37.2814 31.2382 37.3203 31.1879 37.3203C31.1375 37.3203 31.0963 37.2814 31.0963 37.2338C31.0963 37.1863 31.1134 37.1473 31.1344 37.1473C31.1554 37.1473 31.1966 37.1863 31.226 37.2338ZM117.897 37.5582C117.876 37.6414 117.858 37.5733 117.858 37.4068C117.858 37.2403 117.876 37.1722 117.897 37.2554C117.919 37.3387 117.919 37.475 117.897 37.5582ZM250.101 37.569C250.071 37.7209 250.028 37.8272 250.006 37.8052C249.984 37.7831 249.993 37.6428 250.025 37.4933C250.103 37.1386 250.173 37.2085 250.101 37.569ZM41.82 37.4068C41.82 37.4544 41.7835 37.4933 41.7387 37.4933C41.6939 37.4933 41.6332 37.4544 41.6038 37.4068C41.5744 37.3592 41.6111 37.3203 41.6852 37.3203C41.7593 37.3203 41.82 37.3592 41.82 37.4068ZM230.07 37.4708C230.367 37.4878 230.853 37.4878 231.151 37.4708C231.448 37.4539 231.205 37.4401 230.61 37.4401C230.016 37.4401 229.772 37.4539 230.07 37.4708ZM33.1877 37.685C33.1257 37.7471 33.0854 37.7522 33.0854 37.698C33.0854 37.5826 33.1877 37.4802 33.2453 37.538C33.2699 37.5626 33.244 37.6287 33.1877 37.685ZM256.425 37.6431C256.33 37.6669 256.223 37.7305 256.189 37.7844C256.148 37.8467 256.125 37.8272 256.124 37.7311C256.123 37.621 256.187 37.5826 256.36 37.5898C256.543 37.5975 256.558 37.61 256.425 37.6431ZM29.972 37.8393C29.972 37.9344 29.957 38.0122 29.9389 38.0122C29.9206 38.0122 29.8853 37.9344 29.8604 37.8393C29.8356 37.7441 29.8505 37.6663 29.8937 37.6663C29.9367 37.6663 29.972 37.7441 29.972 37.8393ZM173.961 38.0264C173.862 38.2196 173.865 38.2219 174.014 38.0792C174.1 37.997 174.147 37.9061 174.118 37.8771C174.089 37.8482 174.018 37.9154 173.961 38.0264ZM229.918 38.0987C229.918 38.1463 229.877 38.1852 229.827 38.1852C229.776 38.1852 229.759 38.1463 229.789 38.0987C229.818 38.0512 229.859 38.0122 229.88 38.0122C229.901 38.0122 229.918 38.0512 229.918 38.0987ZM46.8828 38.2659C46.8515 38.3167 46.7844 38.3582 46.7339 38.3582C46.6764 38.3582 46.683 38.3086 46.7512 38.2264C46.8699 38.0834 46.9758 38.1153 46.8828 38.2659ZM32.8781 38.5077C32.7903 38.5957 32.7177 38.4633 32.7898 38.3466C32.8443 38.2584 32.8647 38.2584 32.894 38.3463C32.914 38.4064 32.9069 38.479 32.8781 38.5077ZM43.8956 38.3057C43.8956 38.3244 43.956 38.3629 44.0298 38.3912C44.1068 38.4207 44.1415 38.4062 44.1112 38.3572C44.0604 38.275 43.8956 38.2356 43.8956 38.3057ZM46.663 38.6177C46.663 38.6652 46.556 38.7036 46.4252 38.7029C46.2399 38.7018 46.216 38.683 46.3171 38.6177C46.4863 38.5083 46.663 38.5083 46.663 38.6177ZM60.738 38.5958C60.1315 38.6107 59.1392 38.6107 58.5327 38.5958C57.9262 38.5809 58.4224 38.5688 59.6353 38.5688C60.8482 38.5688 61.3445 38.5809 60.738 38.5958ZM73.2633 38.9636L73.2703 39.3528L73.237 38.9869L73.2037 38.621L71.3273 38.5952L69.451 38.5695L71.3536 38.5719L73.2562 38.5744L73.2633 38.9636ZM154.055 38.5947C153.831 38.6124 153.441 38.6126 153.19 38.595C152.939 38.5775 153.122 38.563 153.598 38.5627C154.074 38.5626 154.279 38.5768 154.055 38.5947ZM79.8937 38.6749C79.8343 38.699 79.737 38.699 79.6775 38.6749C79.6181 38.651 79.6667 38.6313 79.7856 38.6313C79.9045 38.6313 79.9532 38.651 79.8937 38.6749ZM110.286 39.4988C110.259 39.5678 110.238 39.5473 110.234 39.4465C110.23 39.3553 110.251 39.3043 110.28 39.333C110.308 39.3617 110.311 39.4364 110.286 39.4988ZM174.42 39.4528C174.362 39.4765 174.245 39.478 174.161 39.456C174.077 39.434 174.124 39.4147 174.267 39.4129C174.41 39.4112 174.479 39.4291 174.42 39.4528ZM83.2882 39.5691C83.2588 39.6166 83.2736 39.6555 83.3212 39.6555C83.3688 39.6555 83.4317 39.6166 83.4611 39.5691C83.4905 39.5215 83.4756 39.4826 83.4281 39.4826C83.3805 39.4826 83.3176 39.5215 83.2882 39.5691ZM141.123 39.7993C141.064 39.8233 140.966 39.8233 140.907 39.7993C140.847 39.7753 140.896 39.7557 141.015 39.7557C141.134 39.7557 141.182 39.7753 141.123 39.7993ZM246.978 39.8029C246.872 39.8234 246.677 39.8239 246.546 39.8041C246.414 39.7843 246.501 39.7675 246.739 39.7668C246.977 39.7662 247.085 39.7824 246.978 39.8029ZM258.78 39.7943C258.751 39.823 258.677 39.8261 258.614 39.8011C258.545 39.7735 258.566 39.753 258.666 39.7489C258.758 39.7452 258.809 39.7656 258.78 39.7943ZM81.8396 39.8896C81.9466 39.9102 82.1218 39.9102 82.2287 39.8896C82.3357 39.8689 82.2482 39.8521 82.0342 39.8521C81.8201 39.8521 81.7326 39.8689 81.8396 39.8896ZM171.867 39.8911C172.022 39.9103 172.275 39.9103 172.429 39.8911C172.584 39.872 172.458 39.8562 172.148 39.8562C171.839 39.8562 171.713 39.872 171.867 39.8911ZM260.21 39.8885C260.294 39.9104 260.411 39.909 260.47 39.8853C260.528 39.8616 260.459 39.8437 260.317 39.8454C260.174 39.8471 260.126 39.8665 260.21 39.8885ZM141.599 39.9761C141.706 39.9967 141.881 39.9967 141.988 39.9761C142.095 39.9554 142.007 39.9385 141.793 39.9385C141.579 39.9385 141.492 39.9554 141.599 39.9761ZM259.432 39.9771C259.563 39.9969 259.758 39.9964 259.864 39.9759C259.97 39.9554 259.863 39.9392 259.625 39.9398C259.387 39.9404 259.3 39.9572 259.432 39.9771Z" fill="#B1B1AF"/>
</svg>
