<svg width="219" height="60" viewBox="0 0 219 60" fill="none" xmlns="http://www.w3.org/2000/svg">
<path fill-rule="evenodd" clip-rule="evenodd" d="M89.6223 15.5744C89.6184 29.1544 89.6015 29.4144 88.5953 31.577C86.4639 36.1583 81.596 38.6413 77.1751 37.4026C74.0467 36.5261 70.807 33.19 69.8469 29.8561C68.6435 25.6778 69.7274 21.317 72.712 18.33C76.5325 14.5061 81.5565 14.2687 86.0499 17.6987L87.5162 18.8178L87.3767 17.4078C87.2581 16.2074 86.8832 15.7983 84.86 14.657C80.2536 12.0587 74.1031 13.1765 70.5181 17.2635C68.0761 20.047 67.2619 22.3661 67.2571 26.5526C67.2532 29.7222 67.4253 30.6 68.4649 32.7187C72.3845 40.7065 82.6143 42.1878 88.5132 35.6213C91.6838 32.0926 91.7989 31.3905 91.7989 15.6057V1.77002H90.7128H89.6267L89.6223 15.5744ZM99.0759 5.28306C97.6639 6.10611 98.4264 8.29176 100.125 8.29176C100.771 8.29176 101.791 7.13045 101.791 6.3948C101.791 6.06524 100.464 4.81176 100.131 4.82654C99.9686 4.83393 99.4942 5.03915 99.0759 5.28306ZM178.992 6.82741C178.825 6.99524 178.688 13.1235 178.688 20.4461C178.688 33.3978 178.714 33.8118 179.665 35.6674C181.006 38.2831 182.805 39.1613 186.827 39.1613C189.694 39.1613 189.983 39.0813 189.983 38.2918C189.983 37.5444 189.693 37.4218 187.92 37.4196C184.634 37.4161 182.666 36.6848 181.708 35.1131C180.943 33.8578 180.863 32.8735 180.862 24.7048L180.86 15.6831H185.422C189.667 15.6831 189.983 15.6239 189.983 14.8287C189.983 14.0431 189.625 13.9644 185.53 13.8505L181.077 13.7265L180.86 10.2526C180.693 7.57741 180.488 6.74915 179.97 6.65045C179.6 6.58002 179.16 6.65958 178.992 6.82741ZM141.131 13.7691C133.88 16.0835 130.212 23.3265 132.458 30.8948C132.984 32.6674 133.735 33.8083 135.612 35.687C138.5 38.5765 141.265 39.7048 145.462 39.7048C150.647 39.7048 155.585 36.3065 157.381 31.5035C158.619 28.1918 158.567 26.9874 157.183 26.9874C156.349 26.9874 156.095 27.2148 156.087 27.9657C156.06 30.7322 152.972 35.0057 149.797 36.6705C147.339 37.9596 142.632 37.9687 140.239 36.6887C135.245 34.017 132.996 28.7187 134.566 23.3178C136.004 18.3648 140.816 14.9235 145.686 15.3657C148.287 15.6013 151.035 16.7765 152.325 18.2039C153.104 19.0661 153.006 19.1509 145.063 24.4457C140.634 27.3978 137.004 29.9226 136.996 30.0565C136.988 30.19 137.244 30.6592 137.565 31.0987C138.11 31.8439 138.754 31.4905 147.105 25.8557C152.03 22.5326 156.068 19.5991 156.078 19.3365C156.114 18.4196 152.877 15.5531 150.658 14.5365C147.71 13.1861 143.915 12.8805 141.131 13.7691ZM202.005 13.6735C197.951 14.8105 194.142 18.5857 193.039 22.5626C191.778 27.1061 193.089 32.5909 196.201 35.7892C200.414 40.1187 206.338 40.9561 211.782 37.9905C220.61 33.1818 220.229 19.0457 211.151 14.6326C208.334 13.2631 204.793 12.8918 202.005 13.6735ZM98.75 26.5526V39.1613H99.8361H100.922V26.5526V13.9439H99.8361H98.75V26.5526ZM106.368 15.5931C106.73 16.5 108.949 22.1248 111.297 28.0931C114.917 37.2926 115.742 39.0305 116.716 39.5113C117.661 39.9774 118.068 39.9774 119.006 39.5113C119.967 39.0335 120.808 37.2661 124.343 28.2918C126.651 22.4331 128.873 16.8078 129.281 15.7918L130.023 13.9439H128.754C127.498 13.9439 127.439 14.0605 122.846 25.6831C120.294 32.1396 118.047 37.4222 117.853 37.4222C117.659 37.4222 115.417 32.1396 112.869 25.6831C108.288 14.0691 108.225 13.9439 106.973 13.9439H105.708L106.368 15.5931ZM162.613 26.5526V39.1613H163.659H164.704L164.853 30.9961C164.995 23.2883 165.064 22.7126 166.091 20.7165C167.607 17.7705 169.726 16.1609 172.525 15.8287C174.336 15.6144 174.778 15.4035 174.778 14.7531C174.778 14.0713 174.434 13.9439 172.588 13.9439C169.942 13.9439 167.476 15.1052 165.917 17.0839L164.795 18.5091L164.79 16.2265C164.786 14.0831 164.72 13.9439 163.699 13.9439H162.613V26.5526ZM210.653 16.767C215.448 19.5787 217.389 26.5865 214.788 31.69C210.836 39.4418 200.607 39.7631 196.376 32.2683C192.792 25.9192 195.765 17.8248 202.48 15.6552C204.602 14.9696 208.491 15.4987 210.653 16.767ZM167.989 44.6805C167.481 44.7792 166.609 45.347 166.05 45.9422C165.115 46.9374 165.019 47.4783 164.858 52.6583C164.703 57.6313 164.765 58.2918 165.386 58.2918C165.997 58.2918 166.089 57.5626 166.089 52.707C166.089 47.6626 166.174 47.0457 166.963 46.33C168.823 44.6461 172.179 45.8852 172.165 48.2505C172.152 50.2565 170.713 51.3352 168.047 51.3352C167.108 51.3352 166.58 51.5109 166.741 51.77C166.888 52.0092 167.945 52.2048 169.088 52.2048C171.828 52.2048 172.606 53.0531 172.606 56.0435C172.606 57.28 172.801 58.2918 173.04 58.2918C173.281 58.2918 173.474 57.1431 173.474 55.7148C173.474 53.4918 173.327 53.0213 172.401 52.2922C171.337 51.4548 171.335 51.4405 172.184 50.6718C173.393 49.5765 173.342 46.8679 172.089 45.7C171.566 45.2126 170.898 44.8135 170.604 44.8135C170.31 44.8135 169.81 44.7431 169.491 44.657C169.173 44.5713 168.497 44.5818 167.989 44.6805ZM117.431 51.5526C117.431 55.7557 117.594 58.2918 117.866 58.2918C118.137 58.2918 118.3 55.7557 118.3 51.5526C118.3 47.3496 118.137 44.8135 117.866 44.8135C117.594 44.8135 117.431 47.3496 117.431 51.5526ZM124.391 45.5752C123.559 45.9931 122.418 47.02 121.855 47.857C120.988 49.1444 120.856 49.7948 120.997 52.0822C121.176 54.9892 122.071 56.4318 124.469 57.6809C125.814 58.3813 129.161 58.507 129.161 57.857C129.161 57.6178 128.278 57.4222 127.2 57.4222C125.582 57.4222 124.961 57.1679 123.657 55.9722C122.281 54.7096 122.054 54.2174 121.908 52.1678C121.806 50.7483 121.964 49.387 122.306 48.7396C123.174 47.0978 125.573 45.6831 127.488 45.6831C128.408 45.6831 129.161 45.4874 129.161 45.2483C129.161 44.5396 126.023 44.7544 124.391 45.5752ZM129.596 45.2483C129.596 45.4874 130.475 45.6831 131.551 45.6831H133.506V51.9874C133.506 55.9005 133.67 58.2918 133.94 58.2918C134.21 58.2918 134.374 55.9005 134.374 51.9874V45.6831H136.329C137.405 45.6831 138.284 45.4874 138.284 45.2483C138.284 44.9874 136.547 44.8135 133.94 44.8135C131.333 44.8135 129.596 44.9874 129.596 45.2483ZM145.887 45.3331C144.677 46.02 144.381 46.5639 144.373 48.1157C144.365 49.857 145.335 50.6974 148.647 51.817C152.364 53.0731 153.5 54.8039 151.752 56.5526C151.038 57.2674 150.304 57.4222 147.625 57.4222C145.743 57.4222 144.367 57.6057 144.367 57.857C144.367 58.1109 145.821 58.2918 147.862 58.2918C150.994 58.2918 151.468 58.1809 152.423 57.2244C154.577 55.0691 153.251 52.3235 149.466 51.1018C146.291 50.077 145.236 49.3265 145.236 48.0952C145.236 46.2683 146.297 45.6831 149.611 45.6831C151.328 45.6831 152.621 45.4961 152.621 45.2483C152.621 44.6483 146.968 44.7196 145.887 45.3331ZM158.278 45.5752C153.738 47.8574 153.541 54.7413 157.939 57.4244C159.412 58.3235 163.333 58.67 162.831 57.857C162.683 57.6178 161.977 57.4222 161.263 57.4222C158.709 57.4222 156.306 55.5344 155.83 53.1544L155.554 51.77H159.301C161.509 51.77 163.048 51.5913 163.048 51.3352C163.048 51.0796 161.527 50.9005 159.355 50.9005C157.066 50.9005 155.662 50.727 155.662 50.4439C155.662 49.3865 157.106 47.3235 158.399 46.5352C159.163 46.0683 160.523 45.6857 161.419 45.6848C162.315 45.6839 163.048 45.4874 163.048 45.2483C163.048 44.5396 159.91 44.7544 158.278 45.5752ZM174.539 46.0092C175.37 49.4344 178.342 58.2948 178.743 58.5431C179.595 59.0705 180.309 57.6787 182.328 51.5522C184.459 45.0896 184.528 44.8135 183.994 44.8135C183.806 44.8135 182.693 47.7365 181.52 51.3092C180.348 54.8818 179.27 57.7309 179.124 57.6405C178.978 57.55 178.003 54.6274 176.958 51.1448C175.913 47.6626 174.876 44.8135 174.654 44.8135C174.431 44.8135 174.38 45.3513 174.539 46.0092ZM185.917 45.1152C185.764 45.2683 185.639 48.2952 185.639 51.8426C185.639 57.2852 185.741 58.2918 186.291 58.2918C186.841 58.2918 186.942 57.28 186.942 51.7957C186.942 45.8844 186.703 44.3278 185.917 45.1152ZM192.444 45.7318C187.968 48.0952 188.233 55.7548 192.858 57.6887C194.535 58.39 197.991 58.5131 197.586 57.857C197.438 57.6178 196.596 57.4213 195.714 57.4205C191.414 57.4161 188.92 53.2152 190.754 49.0657C191.718 46.8839 193.665 45.6831 196.24 45.6831C197.1 45.6831 197.803 45.4874 197.803 45.2483C197.803 44.4896 194.177 44.817 192.444 45.7318ZM202.156 45.5752C201.325 45.9931 200.184 47.02 199.62 47.857C198.754 49.1444 198.622 49.7948 198.763 52.0822C198.942 54.9892 199.836 56.4318 202.235 57.6809C203.587 58.3848 207.121 58.5239 206.709 57.857C206.562 57.6178 205.856 57.4222 205.142 57.4222C202.552 57.4222 199.541 54.9361 199.541 52.7983C199.541 51.7974 199.639 51.77 203.26 51.77C205.628 51.77 206.881 51.6122 206.709 51.3352C206.562 51.0961 204.889 50.9005 202.991 50.9005C199.914 50.9005 199.541 50.8126 199.541 50.0896C199.541 48.0626 202.697 45.6831 205.384 45.6831C206.233 45.6831 206.927 45.4874 206.927 45.2483C206.927 44.5396 203.789 44.7544 202.156 45.5752ZM209.509 45.6152C207.164 47.5152 208.844 50.7765 212.69 51.7905C215.606 52.5592 216.484 53.3087 216.484 55.0257C216.484 56.9813 215.615 57.4222 211.76 57.4222C210.086 57.4222 208.595 57.6178 208.447 57.857C208.093 58.4313 214.962 58.4396 216.033 57.8661C217.137 57.2748 217.853 55.0405 217.356 53.7331C216.872 52.4583 215.537 51.5574 213.226 50.9465C210.656 50.2674 209.533 49.3248 209.533 47.8474C209.533 46.1674 210.548 45.6831 214.066 45.6831C215.679 45.6831 216.919 45.4939 216.919 45.2483C216.919 44.9978 215.559 44.8135 213.709 44.8135C211.236 44.8135 210.271 44.9978 209.509 45.6152Z" fill="#B1BED3"/>
<circle cx="30.5015" cy="30" r="30" fill="#B1BED3"/>
<path fill-rule="evenodd" clip-rule="evenodd" d="M30.5014 0C33.557 0 36.5056 0.456814 39.2834 1.30588C48.3074 6.29796 53.0014 16.0233 53.0014 26.1111C53.0014 35.1625 45.6636 42.5 36.6125 42.5C27.5614 42.5 20.2236 35.1625 20.2236 26.1111C20.2236 17.0597 27.5614 9.72222 36.6125 9.72222C41.121 9.72222 45.2041 11.5428 48.1674 14.4889C44.4939 6.28269 36.2252 0.561659 26.6125 0.561659C25.7369 0.561659 24.8721 0.609131 24.0214 0.701633C26.108 0.242242 28.2765 0 30.5014 0ZM36.6125 12.2222C28.9422 12.2222 22.7236 18.4405 22.7236 26.1111C22.7236 33.7817 28.9422 40 36.6125 40C44.2829 40 50.5014 33.7817 50.5014 26.1111C50.5014 19.4444 44.4873 12.2222 36.6125 12.2222Z" fill="white"/>
</svg>
