<svg width="173" height="60" viewBox="0 0 173 60" fill="none" xmlns="http://www.w3.org/2000/svg">
<path fill-rule="evenodd" clip-rule="evenodd" d="M15.9788 0.140229C13.0164 0.492319 7.96291 2.06739 6.06856 3.22886L5.38632 3.64719L6.56829 4.92226C8.13434 6.61135 9.9395 9.08746 11.1221 11.1684C11.6503 12.0982 12.1946 12.8596 12.3313 12.8602C12.4681 12.861 13.0322 12.6834 13.5847 12.4656C16.522 11.3079 20.8422 11.0913 24.2062 11.9331C38.1485 15.4224 43.1174 32.4327 33.2131 42.7675C29.6237 46.513 24.9529 48.5322 19.8614 48.5396C17.6572 48.5427 16.1695 48.3005 13.8769 47.5649L12.1851 47.0224V39.6824V32.3424H6.23671H0.288086L0.341197 43.6635L0.394103 54.9843L2.66228 56.1281C6.6657 58.1473 10.9906 59.3408 16.0813 59.8313C25.8291 60.7707 34.5454 57.7592 41.0889 51.1908C45.33 46.934 47.9913 42.0031 49.3352 35.9132C49.9445 33.1522 49.9927 27.2247 49.4283 24.4476C47.5381 15.1429 41.6578 7.32557 33.4375 3.18928C31.1574 2.04197 28.054 0.955758 25.6166 0.451717C23.7258 0.0606653 18.1616 -0.119173 15.9788 0.140229ZM57.5037 0.0735841C56.0432 0.214051 53.0364 0.898956 51.2624 1.49548C49.2856 2.15988 46.6354 3.36461 46.6354 3.59859C46.6354 3.6923 47.1245 4.31528 47.7222 4.98316C49.3139 6.76125 50.5933 8.49237 51.747 10.4298C53.4051 13.2139 53.134 13.0127 54.5487 12.5091C58.5927 11.07 63.3145 11.0556 67.1415 12.471C72.2283 14.3522 76.2448 18.248 78.2083 23.2047C80.019 27.7759 79.8482 33.2976 77.7596 37.7062L76.8819 39.5589L73.7244 35.9507L70.5667 32.3424H64.2403C60.7606 32.3424 57.9138 32.4191 57.9138 32.513C57.9138 32.6699 67.0534 43.1053 69.1015 45.2869L69.9919 46.2353L68.618 46.8511C66.7691 47.6798 66.6641 47.7148 64.7975 48.1303C61.5425 48.855 57.4309 48.5531 54.2969 47.3599L53.2431 46.9586L52.2937 48.6637C51.3344 50.3862 48.9953 53.6118 47.4745 55.3093C47.0197 55.8168 46.6448 56.2885 46.6416 56.3574C46.6313 56.5647 49.8284 57.9585 51.7669 58.5919C54.391 59.4495 56.6287 59.8391 59.6677 59.9677C62.767 60.0987 65.3995 59.8354 68.2856 59.1056C71.2491 58.3565 74.973 56.7753 76.811 55.486C77.1104 55.2761 77.4434 55.1042 77.5508 55.1042C77.6583 55.1042 78.4189 55.8654 79.2412 56.796C81.8329 59.7294 80.7687 59.4105 87.9667 59.4105C91.4003 59.4105 94.2088 59.3414 94.208 59.2567C94.2072 59.172 93.5959 58.4108 92.8496 57.565C92.1034 56.7191 90.1492 54.5044 88.5071 52.6435C86.8649 50.7826 85.3493 49.0648 85.1393 48.8263C84.762 48.3979 84.7715 48.3717 85.9124 46.6731C88.188 43.2859 89.8123 39.2323 90.5351 35.1372C91.0273 32.3496 91.0627 27.7015 90.6122 25.0628C88.527 12.8497 79.2537 3.18682 67.0747 0.536202C65.209 0.130181 59.6896 -0.136604 57.5037 0.0735841ZM101.971 32.4175C100.741 32.7546 100.03 33.2293 99.532 34.0453C98.9221 35.0453 98.829 35.9253 99.2238 36.9594C99.6405 38.0499 100.415 38.7438 101.738 39.2116C105.589 40.5736 106.308 41.1396 106.308 42.8092C106.308 43.6321 106.197 43.9378 105.689 44.5169C103.994 46.4476 100.418 45.6353 100.034 43.2324C99.9105 42.463 99.8457 42.3904 99.282 42.3904C98.6664 42.3904 98.6654 42.3923 98.7954 43.3399C99.0784 45.4052 100.702 46.6918 103.027 46.6936C105.742 46.6957 107.411 45.4481 107.555 43.3091C107.669 41.6208 107.557 41.1814 106.796 40.3388C106.019 39.4788 105.406 39.1529 102.761 38.1926C100.908 37.5198 100.361 36.9717 100.361 35.7873C100.361 34.1226 101.272 33.4852 103.471 33.6095C105.197 33.7071 105.901 34.2593 106.088 35.6642C106.192 36.4398 106.274 36.554 106.771 36.6112C107.503 36.6953 107.671 36.2601 107.338 35.1466C106.974 33.9276 106.434 33.2584 105.435 32.7876C104.248 32.2278 103.107 32.106 101.971 32.4175ZM120.194 32.4698C120.113 32.5502 120.047 35.7378 120.047 39.5538V46.4917H120.768H121.488L121.434 39.4683L121.38 32.445L120.86 32.3843C120.574 32.3508 120.274 32.3894 120.194 32.4698ZM141.005 32.7936C140.627 33.1715 140.711 33.7217 141.2 34.0641C141.968 34.6014 142.839 33.7803 142.391 32.9428C142.154 32.5005 141.381 32.4173 141.005 32.7936ZM135.837 34.7006V36.0335H134.696C133.571 36.0335 133.555 36.0419 133.619 36.5975C133.68 37.1234 133.756 37.1655 134.76 37.2233L135.837 37.2854V41.8884V46.4917H136.452H137.067L137.068 41.8265L137.069 37.1614L138.077 37.1603C139.236 37.1589 139.413 37.0504 139.225 36.459C139.113 36.1041 138.923 36.0335 138.079 36.0335H137.067V34.7006V33.3677H136.452H135.837V34.7006ZM111.538 36.2995C111.038 36.5827 110.518 37.121 110.205 37.6802C109.731 38.5273 109.692 38.7992 109.692 41.2626C109.692 43.7233 109.731 43.9993 110.204 44.8512C110.955 46.2017 112.119 46.7554 113.958 46.6356C116.555 46.4666 117.569 45.0152 117.569 41.4677C117.569 38.2232 117.177 37.1841 115.619 36.2931C114.507 35.657 112.667 35.6599 111.538 36.2995ZM146.618 36.2931C146.116 36.5788 145.634 37.0916 145.337 37.655C144.907 38.4686 144.86 38.8287 144.86 41.2626C144.86 43.6897 144.908 44.0578 145.332 44.8594C146.036 46.1912 147.211 46.7603 149.008 46.6397C150.112 46.5655 150.536 46.4338 151.132 45.9792C152.344 45.0552 152.643 44.1203 152.643 41.2626C152.643 38.3202 152.337 37.4275 150.996 36.4564C150.236 35.9056 149.964 35.8289 148.776 35.8318C147.757 35.8344 147.224 35.9482 146.618 36.2931ZM157.471 36.0678C157.245 36.1925 156.853 36.4826 156.6 36.7125L156.138 37.1304V36.5819C156.138 36.1336 156.044 36.0335 155.625 36.0335H155.113V41.2755V46.5177L155.779 46.4533L156.446 46.3891L156.548 42.3219L156.651 38.2546L157.32 37.6568C157.87 37.1663 158.173 37.0588 159.009 37.0588C159.845 37.0588 160.148 37.1663 160.697 37.6568L161.367 38.2548L161.43 42.3732L161.494 46.4917H162.199H162.905L162.896 43.0569C162.884 38.1924 162.663 37.38 161.062 36.2899C160.538 35.9333 160.099 35.8299 159.132 35.8346C158.444 35.8381 157.697 35.9431 157.471 36.0678ZM166.799 36.2899C165.788 36.9783 165.31 37.7347 165.31 38.6477C165.31 40.1754 166.1 40.8449 169.009 41.782C170.567 42.2844 171.041 42.6291 171.112 43.3132C171.2 44.1542 171.094 44.4734 170.565 44.9635C170.123 45.3733 169.81 45.4661 168.873 45.4655C167.281 45.4645 166.443 44.9389 166.266 43.8308C166.146 43.0798 166.078 43.0056 165.518 43.0056C164.908 43.0056 164.903 43.0142 165.008 43.946C165.201 45.6556 166.665 46.693 168.89 46.6955C170.12 46.6971 170.842 46.4187 171.664 45.6261C172.912 44.4224 172.713 42.2541 171.274 41.3651C170.9 41.1344 169.949 40.7497 169.16 40.5102C167.209 39.9182 166.596 39.4663 166.596 38.6185C166.596 37.5752 167.342 37.0061 168.735 36.986C170.074 36.9666 170.9 37.4645 171.187 38.4639C171.34 38.9991 171.475 39.1095 171.974 39.1095C172.545 39.1095 172.568 39.076 172.432 38.443C172.193 37.3351 171.804 36.7697 170.946 36.2876C169.794 35.6402 167.752 35.6413 166.799 36.2899ZM124.393 40.3255C124.462 45.031 124.49 45.1428 125.868 46.1714C126.71 46.8001 129.196 46.7792 130.065 46.1361C130.674 45.6864 130.687 45.6854 130.814 46.0848C130.896 46.3436 131.125 46.4917 131.442 46.4917H131.941V41.2626V36.0335H131.223H130.505V39.8374C130.505 43.946 130.395 44.4734 129.395 45.1284C128.743 45.5556 127.252 45.5654 126.654 45.1462C125.7 44.4786 125.584 43.9011 125.584 39.8374V36.0335H124.957H124.331L124.393 40.3255ZM140.964 41.2626V46.4917H141.579H142.194V41.2626V36.0335H141.579H140.964V41.2626ZM115.405 37.6726C116.679 38.906 116.704 43.525 115.444 44.8407C114.379 45.9521 112.366 45.7592 111.494 44.462C111.069 43.8308 111.025 43.53 111.025 41.2626C111.025 38.9961 111.069 38.6942 111.493 38.0632C112.361 36.7732 114.278 36.5817 115.405 37.6726ZM149.886 37.1491C151.135 37.6709 151.42 38.4385 151.421 41.2835C151.422 43.5281 151.377 43.8318 150.954 44.462C150.653 44.91 150.177 45.2664 149.621 45.46C148.86 45.7249 148.652 45.7249 147.891 45.46C147.335 45.2664 146.859 44.91 146.558 44.462C146.132 43.8273 146.09 43.5326 146.09 41.1574C146.09 38.7939 146.132 38.4967 146.534 37.9851C147.355 36.942 148.629 36.6239 149.886 37.1491Z" fill="#B1BED3"/>
</svg>
