<svg width="173" height="60" viewBox="0 0 173 60" fill="none" xmlns="http://www.w3.org/2000/svg">
<path fill-rule="evenodd" clip-rule="evenodd" d="M15.6907 0.140229C12.7284 0.492319 7.67483 2.06739 5.78047 3.22886L5.09823 3.64719L6.28021 4.92226C7.84626 6.61135 9.65141 9.08746 10.834 11.1684C11.3622 12.0982 11.9065 12.8596 12.0432 12.8602C12.18 12.861 12.7441 12.6834 13.2966 12.4656C16.2339 11.3079 20.5541 11.0913 23.9181 11.9331C37.8605 15.4224 42.8293 32.4327 32.925 42.7675C29.3356 46.513 24.6648 48.5322 19.5733 48.5396C17.3691 48.5427 15.8814 48.3005 13.5888 47.5649L11.897 47.0224V32.3424H0L0.106017 54.9843L2.3742 56.1281C6.37761 58.1473 10.7026 59.3408 15.7932 59.8313C25.541 60.7707 34.2573 57.7592 40.8008 51.1908C45.0419 46.934 47.7032 42.0031 49.0472 35.9132C49.6564 33.1522 49.7046 27.2247 49.1403 24.4476C47.25 15.1429 41.3697 7.32557 33.1494 3.18928C30.8693 2.04197 27.7659 0.955758 25.3285 0.451717C23.4377 0.0606653 17.8735 -0.119173 15.6907 0.140229ZM57.2156 0.0735841C55.7551 0.214051 52.7483 0.898956 50.9743 1.49548C48.9975 2.15988 46.3473 3.36461 46.3473 3.59859C46.3473 3.6923 46.8364 4.31528 47.4341 4.98316C49.0258 6.76125 50.3052 8.49237 51.4589 10.4298C53.117 13.2139 52.8459 13.0127 54.2606 12.5091C58.3046 11.07 63.0264 11.0556 66.8534 12.471C71.9402 14.3522 75.9567 18.248 77.9202 23.2047C79.7309 27.7759 79.5601 33.2976 77.4715 37.7062L76.5939 39.5589L70.2786 32.3424H63.9522C60.4726 32.3424 57.6257 32.4191 57.6257 32.513C57.6257 32.6699 66.7653 43.1053 68.8134 45.2869L69.7038 46.2353L68.3299 46.8511C66.4811 47.6798 66.3761 47.7148 64.5094 48.1303C61.2545 48.855 57.1428 48.5531 54.0088 47.3599L52.955 46.9586L52.0056 48.6637C51.0463 50.3862 48.7072 53.6118 47.1864 55.3093C46.7316 55.8168 46.3568 56.2885 46.3535 56.3574C46.3432 56.5647 49.5403 57.9585 51.4788 58.5919C54.1029 59.4495 56.3406 59.8391 59.3796 59.9677C62.4789 60.0987 65.1115 59.8354 67.9975 59.1056C70.961 58.3565 74.6849 56.7753 76.5229 55.486C76.8223 55.2761 77.1553 55.1042 77.2628 55.1042C77.3702 55.1042 78.1308 55.8654 78.9531 56.796C81.5449 59.7294 80.4806 59.4105 87.6786 59.4105C91.1122 59.4105 93.9207 59.3414 93.9199 59.2567C93.9191 59.172 93.3078 58.4108 92.5616 57.565C91.8153 56.7191 89.8611 54.5044 88.219 52.6435C86.5769 50.7826 85.0612 49.0648 84.8513 48.8263C84.4739 48.3979 84.4834 48.3717 85.6243 46.6731C87.8999 43.2859 89.5242 39.2323 90.247 35.1372C90.7392 32.3496 90.7747 27.7015 90.3241 25.0628C88.2389 12.8497 78.9656 3.18682 66.7866 0.536202C64.921 0.130181 59.4015 -0.136604 57.2156 0.0735841ZM101.683 32.4175C100.453 32.7546 99.7418 33.2293 99.2439 34.0453C98.634 35.0453 98.5409 35.9253 98.9357 36.9594C99.3524 38.0499 100.127 38.7438 101.45 39.2116C105.301 40.5736 106.02 41.1396 106.02 42.8092C106.02 43.6321 105.909 43.9378 105.401 44.5169C103.706 46.4476 100.13 45.6353 99.7455 43.2324C99.6224 42.463 99.5576 42.3904 98.9939 42.3904C98.3783 42.3904 98.3773 42.3923 98.5073 43.3399C98.7903 45.4052 100.414 46.6918 102.739 46.6936C105.454 46.6957 107.123 45.4481 107.267 43.3091C107.381 41.6208 107.269 41.1814 106.508 40.3388C105.731 39.4788 105.118 39.1529 102.473 38.1926C100.62 37.5198 100.073 36.9717 100.073 35.7873C100.073 34.1226 100.983 33.4852 103.183 33.6095C104.909 33.7071 105.612 34.2593 105.8 35.6642C105.903 36.4398 105.986 36.554 106.483 36.6112C107.215 36.6953 107.383 36.2601 107.05 35.1466C106.686 33.9276 106.146 33.2584 105.147 32.7876C103.96 32.2278 102.819 32.106 101.683 32.4175ZM119.905 32.4698C119.825 32.5502 119.759 35.7378 119.759 39.5538V46.4917H121.2L121.092 32.445L120.572 32.3843C120.286 32.3508 119.986 32.3894 119.905 32.4698ZM140.717 32.7936C140.339 33.1715 140.423 33.7217 140.912 34.0641C141.679 34.6014 142.551 33.7803 142.103 32.9428C141.866 32.5005 141.093 32.4173 140.717 32.7936ZM135.549 36.0335H134.408C133.283 36.0335 133.267 36.0419 133.331 36.5975C133.392 37.1234 133.468 37.1655 134.472 37.2233L135.549 37.2854V46.4917H136.779L136.781 37.1614L137.789 37.1603C138.947 37.1589 139.125 37.0504 138.937 36.459C138.825 36.1041 138.635 36.0335 137.791 36.0335H136.779V33.3677H135.549V36.0335ZM111.25 36.2995C110.75 36.5827 110.23 37.121 109.917 37.6802C109.443 38.5273 109.404 38.7992 109.404 41.2626C109.404 43.7233 109.443 43.9993 109.916 44.8512C110.667 46.2017 111.831 46.7554 113.67 46.6356C116.267 46.4666 117.28 45.0152 117.281 41.4677C117.281 38.2232 116.889 37.1841 115.331 36.2931C114.219 35.657 112.379 35.6599 111.25 36.2995ZM146.33 36.2931C145.828 36.5788 145.346 37.0916 145.048 37.655C144.619 38.4686 144.572 38.8287 144.572 41.2626C144.572 43.6897 144.62 44.0578 145.044 44.8594C145.748 46.1912 146.923 46.7603 148.72 46.6397C149.824 46.5655 150.248 46.4338 150.844 45.9792C152.056 45.0552 152.355 44.1203 152.355 41.2626C152.355 38.3202 152.049 37.4275 150.708 36.4564C149.948 35.9056 149.676 35.8289 148.488 35.8318C147.469 35.8344 146.936 35.9482 146.33 36.2931ZM157.183 36.0678C156.957 36.1925 156.565 36.4826 156.311 36.7125L155.85 37.1304V36.5819C155.85 36.1336 155.756 36.0335 155.337 36.0335H154.825V46.5177L156.158 46.3891L156.363 38.2546L157.032 37.6568C157.582 37.1663 157.885 37.0588 158.721 37.0588C159.557 37.0588 159.86 37.1663 160.409 37.6568L161.079 38.2548L161.206 46.4917H162.617L162.608 43.0569C162.596 38.1924 162.375 37.38 160.774 36.2899C160.25 35.9333 159.811 35.8299 158.844 35.8346C158.156 35.8381 157.408 35.9431 157.183 36.0678ZM166.511 36.2899C165.5 36.9782 165.022 37.7347 165.022 38.6477C165.022 40.1754 165.812 40.8449 168.72 41.782C170.279 42.2844 170.753 42.6291 170.824 43.3132C170.912 44.1542 170.806 44.4734 170.277 44.9635C169.835 45.3733 169.521 45.4661 168.585 45.4655C166.993 45.4645 166.155 44.9389 165.978 43.8308C165.857 43.0798 165.79 43.0056 165.23 43.0056C164.62 43.0056 164.615 43.0142 164.72 43.946C164.913 45.6556 166.377 46.693 168.602 46.6955C169.832 46.6971 170.554 46.4187 171.376 45.6261C172.624 44.4224 172.425 42.2541 170.986 41.3651C170.612 41.1344 169.661 40.7497 168.871 40.5102C166.921 39.9182 166.308 39.4663 166.308 38.6185C166.308 37.5752 167.054 37.0061 168.447 36.986C169.786 36.9666 170.612 37.4645 170.899 38.4639C171.052 38.9991 171.187 39.1095 171.686 39.1095C172.257 39.1095 172.28 39.076 172.144 38.443C171.905 37.3351 171.516 36.7697 170.658 36.2876C169.506 35.6402 167.464 35.6413 166.511 36.2899ZM124.105 40.3255C124.174 45.031 124.202 45.1428 125.58 46.1714C126.422 46.8001 128.907 46.7792 129.777 46.1361C130.386 45.6864 130.399 45.6854 130.526 46.0848C130.608 46.3436 130.837 46.4917 131.154 46.4917H131.653V36.0335H130.217V39.8374C130.217 43.946 130.107 44.4734 129.107 45.1284C128.455 45.5556 126.964 45.5654 126.366 45.1462C125.412 44.4786 125.296 43.9011 125.296 39.8374V36.0335H124.043L124.105 40.3255ZM140.675 46.4917H141.906V36.0335H140.675V46.4917ZM115.117 37.6726C116.391 38.906 116.416 43.525 115.155 44.8407C114.091 45.9521 112.078 45.7592 111.206 44.462C110.781 43.8308 110.737 43.53 110.737 41.2626C110.737 38.9961 110.781 38.6942 111.205 38.0632C112.073 36.7732 113.99 36.5817 115.117 37.6726ZM149.598 37.1491C150.847 37.6709 151.132 38.4385 151.133 41.2835C151.134 43.5281 151.089 43.8318 150.665 44.462C150.365 44.91 149.889 45.2664 149.333 45.46C148.572 45.7249 148.364 45.7249 147.603 45.46C147.047 45.2664 146.571 44.91 146.27 44.462C145.844 43.8273 145.802 43.5326 145.802 41.1574C145.802 38.7939 145.844 38.4967 146.246 37.9851C147.067 36.942 148.341 36.6239 149.598 37.1491Z" fill="#292D3D"/>
</svg>
