<svg width="203" height="60" viewBox="0 0 203 60" fill="none" xmlns="http://www.w3.org/2000/svg">
<path d="M89.4637 59.8489C88.3047 59.523 87.5438 58.7887 87.2051 57.6695C86.8026 56.3393 86.7491 52.2427 87.1129 50.6085C87.5323 48.7248 88.4946 47.9672 90.583 47.8767C92.0602 47.8126 92.839 48.0348 93.4816 48.7035C94.049 49.294 94.3212 50.0387 94.3212 51.0006V51.7192H93.1277H91.9342V51.2788C91.9342 50.5729 91.8124 50.1522 91.515 49.8313C91.2745 49.5719 91.1732 49.5402 90.7616 49.5954C90.1264 49.6806 89.7185 50.1398 89.5649 50.9425C89.2238 52.7253 89.3345 56.4913 89.7561 57.4443C90.0173 58.0349 90.2661 58.1983 90.9037 58.1983C91.6636 58.1983 92.0458 57.581 92.0472 56.3512L92.048 55.8113H93.2348C93.8875 55.8113 94.4496 55.8567 94.4839 55.9122C94.6 56.1 94.3282 57.7425 94.0891 58.2982C93.805 58.9586 93.2934 59.4807 92.6731 59.7433C92.0445 60.0095 90.245 60.0687 89.4638 59.8489H89.4637ZM105.915 59.8417C103.892 59.2768 103.301 57.9415 103.301 53.9357C103.301 50.837 103.603 49.5809 104.555 48.7251C105.319 48.0383 106.167 47.8091 107.694 47.8767C109.538 47.9585 110.496 48.5549 111.016 49.9453C111.348 50.8331 111.531 52.9918 111.44 54.947C111.304 57.8619 110.891 58.8579 109.53 59.55C108.845 59.8982 108.655 59.9414 107.654 59.9769C106.891 60.0039 106.344 59.9613 105.915 59.8417ZM108.307 57.853C108.514 57.6304 108.68 57.2767 108.771 56.8583C108.966 55.965 108.964 51.8752 108.768 50.9876C108.519 49.8623 107.805 49.364 106.899 49.684C106.007 49.9986 105.734 51.266 105.835 54.6142C105.902 56.8718 106.008 57.3984 106.486 57.8768C106.756 58.1469 106.902 58.1983 107.396 58.1983C107.905 58.1983 108.028 58.1516 108.307 57.853H108.307ZM164.367 59.8479C163.25 59.534 162.549 58.9817 162.138 58.0931C161.907 57.5936 161.896 57.3842 161.864 52.7706L161.831 47.9681H163.022H164.213L164.251 52.4865C164.291 57.2999 164.302 57.3941 164.868 57.9185C165.104 58.1367 165.293 58.1983 165.727 58.1983C166.451 58.1983 166.874 57.9701 167.139 57.4361C167.336 57.0394 167.356 56.6424 167.389 52.4865L167.424 47.9681H168.615H169.807L169.773 52.7706L169.74 57.5731L169.438 58.1415C169.044 58.8832 168.641 59.2531 167.815 59.6311C166.973 60.0159 165.332 60.1191 164.367 59.8479H164.367ZM120.806 53.8789V47.9682H122H123.193V53.8789V59.7897H122H120.806V53.8789ZM132.628 53.8772V47.9645L135.668 47.9948L138.709 48.0251L138.742 48.9031L138.775 49.7812L136.923 49.8125L135.071 49.8438L135.04 51.3499L135.008 52.856H136.773H138.538V53.7653V54.6747H136.776H135.015V57.2322V59.7898H133.821H132.628V53.8772ZM147.177 53.8789V47.9682H150.246H153.315V48.8775V49.7869H151.497H149.678V51.3214V52.8559H151.44H153.202V53.7653V54.6746H151.44H149.678V57.2322V59.7897H148.428H147.177V53.8789ZM179.118 53.8698V47.9498L181.761 47.9897C183.992 48.0234 184.475 48.0612 184.858 48.2323C185.913 48.7022 186.421 49.6332 186.432 51.1129C186.438 51.9258 186.397 52.1233 186.101 52.7019C185.808 53.2741 185.673 53.4082 185.095 53.7038C184.429 54.0446 184.429 54.0452 184.775 54.1161C185.367 54.237 185.871 54.6029 186.119 55.0903C186.316 55.4789 186.368 55.8523 186.428 57.3043C186.468 58.2649 186.534 59.2171 186.575 59.4203L186.649 59.7897H185.446H184.244L184.125 59.3634C184.06 59.129 184.007 58.3089 184.006 57.5411C184.005 55.4459 183.75 55.0419 182.358 54.9301L181.619 54.8708V57.3303V59.7897H180.368H179.118V53.8698ZM183.471 52.7913C183.808 52.4547 184.036 51.5691 183.931 51.0127C183.752 50.0744 183.353 49.7869 182.227 49.7869H181.619V51.435V53.0832H182.399C183.085 53.0832 183.214 53.0481 183.471 52.7913ZM195.6 53.8789V47.9682H198.84H202.079V48.8775V49.7869H200.09H198.101V51.2645V52.7422H199.919H201.738V53.6516V54.5609H199.919H198.101V56.266V57.971H200.147H202.193V58.8803V59.7897H198.896H195.6V53.8789ZM0.771973 21.7675V0H101.369H201.965V21.7675V43.5351H101.369H0.771973V21.7675Z" fill="#B1BED3"/>
<path d="M57.044 37.38C51.4398 36.7948 46.6329 33.8864 43.9419 29.4525C42.4182 26.942 41.7594 24.4466 41.7628 21.199C41.765 19.0389 41.9696 17.7805 42.6157 15.9489C43.9165 12.2617 46.6279 9.18328 50.3314 7.18855C56.5002 3.86606 65.245 4.36388 71.3001 8.38225C72.6365 9.26919 74.8389 11.3645 74.7309 11.6462C74.6934 11.7439 73.9127 12.6617 72.9961 13.6857L71.3295 15.5476L70.4639 14.8179C68.5051 13.1665 66.0422 11.7666 64.199 11.2567C62.1078 10.6782 59.2385 10.5092 57.4073 10.8566C54.3055 11.445 51.6892 13.1166 50.0263 15.5724C47.4122 19.4331 47.8745 24.9455 51.105 28.4349C53.0682 30.5553 55.675 31.6675 58.9702 31.7904C61.6225 31.8894 64.3548 31.3911 67.0277 30.3209L68.2342 29.8379V27.5645V25.2911L63.8295 25.2614L59.4249 25.2316V22.5049V19.7782H66.9279H74.4309L74.4016 26.5099L74.3723 33.2416L72.9515 33.9499C67.3416 36.7463 62.0018 37.8978 57.044 37.38H57.044ZM143.994 37.4426C142.568 37.2722 141.155 36.9817 140.073 36.636C132.035 34.0679 127.552 26.2394 129.277 17.7822C130.402 12.2655 134.14 8.08168 139.458 6.38792C144.168 4.8875 149.912 5.22724 153.94 7.24456C158.378 9.46662 161.212 13.3417 162.151 18.471C162.409 19.8812 162.41 22.9997 162.152 24.3884C161.432 28.276 159.24 31.8567 156.174 34.1583C154.252 35.6005 151.46 36.7923 148.996 37.2218C147.958 37.4027 144.82 37.5412 143.994 37.4426H143.994ZM148.314 31.4787C151.371 30.7079 153.669 28.8365 155.015 26.0218C155.785 24.4113 155.966 23.5333 155.963 21.4264C155.962 19.8261 155.925 19.4712 155.661 18.471C154.703 14.8486 152.319 12.4643 148.712 11.5193C147.717 11.2587 147.34 11.2204 145.699 11.2128C144.12 11.2055 143.665 11.244 142.817 11.4567C138.249 12.6025 135.542 15.9869 135.277 20.8803C135.164 22.9807 135.606 24.8886 136.617 26.6677C137.154 27.612 138.558 29.185 139.445 29.8359C140.62 30.6983 142.517 31.4697 144.051 31.709C145.099 31.8724 147.203 31.7587 148.314 31.4787ZM81.5903 21.5969V6.36529H84.8298H88.0694V21.5969V36.8285H84.8298H81.5903V21.5969ZM94.6621 21.6026V6.36529L102.42 6.36632C106.72 6.36689 110.758 6.41864 111.48 6.48249C118.256 7.08229 122.741 10.3153 124.612 15.9509C125.632 19.0227 125.8 22.1499 125.115 25.3143C123.927 30.7959 120.842 34.4138 116.032 35.9664C113.556 36.7656 113.675 36.7576 103.67 36.8009L94.6621 36.8399V21.6026ZM112.508 30.984C114.322 30.4786 115.921 29.4587 116.903 28.1805C118.413 26.2146 119.209 23.047 118.888 20.2715C118.333 15.456 115.41 12.6274 110.395 12.0529C109.838 11.9891 107.528 11.9365 105.262 11.936L101.141 11.9351V21.6031V31.2711L106.455 31.2305C111.156 31.1945 111.855 31.1661 112.508 30.984ZM166.273 21.5908V6.35305L175.509 6.39767C185.658 6.44669 185.499 6.43665 187.69 7.17075C189.735 7.85581 191.324 8.92261 192.531 10.4216C195.44 14.0321 195.672 19.2674 193.093 23.0884C192.104 24.5534 190.178 26.1603 188.808 26.6647C188.511 26.7739 188.219 26.9065 188.159 26.9594C188.093 27.0174 188.345 27.3598 188.794 27.8216C189.858 28.9169 196.212 35.975 196.723 36.6296C196.87 36.8182 196.665 36.8284 192.744 36.8265L188.609 36.8243L184.46 32.3399L180.311 27.8555L176.532 27.8519L172.753 27.8484V32.3383V36.8282H169.513H166.273V21.5908ZM184.437 21.9859C186.246 21.6156 187.577 20.6184 188.104 19.2379C188.42 18.4103 188.533 16.6283 188.327 15.7039C187.961 14.0562 186.902 12.9605 185.138 12.4038C183.867 12.0029 182.789 11.9351 177.689 11.9351H172.753V17.0501V22.1652H178.157C182.632 22.1652 183.711 22.1344 184.437 21.9859Z" fill="white"/>
</svg>
