<svg width="76" height="89" viewBox="0 0 76 89" fill="none" xmlns="http://www.w3.org/2000/svg">
<path fill-rule="evenodd" clip-rule="evenodd" d="M32.2328 0.564142C28.7443 1.40947 25.3548 3.35154 22.7186 6.01549C19.8187 8.94554 18.4603 11.3377 17.4474 15.2983C16.5044 18.9871 16.5044 22.0839 17.4474 25.7727C18.3331 29.236 19.585 31.6531 21.7806 34.1375L23.3975 35.9667L22.4522 33.1439C19.3401 23.8498 25.0493 14.1613 34.6951 12.3671C39.4106 11.4898 44.2823 13.0081 48.1764 16.5674C52.1261 20.1787 56.798 21.4821 61.2004 20.202C62.368 19.8625 63.4159 19.4342 63.5296 19.2502C63.8836 18.6774 60.4783 12.3705 58.5085 9.95158C52.4512 2.51261 41.0298 -1.568 32.2328 0.564142ZM16.1361 9.90302C10.5344 16.4052 8.24556 25.9579 10.2662 34.4055C13.1123 46.3052 23.2515 55.0389 35.2938 55.9651C41.6284 56.4522 46.7183 53.6369 49.3361 48.1987C50.1477 46.5122 50.3369 45.5709 50.3561 43.1177C50.3693 41.4617 50.247 39.6307 50.0845 39.0484L49.7895 37.9904L47.9807 39.6167C43.1587 43.9533 36.7451 44.9887 29.7148 42.5648C24.2061 40.6657 19.6471 36.6362 16.8905 31.2293C15.1337 27.7829 14.4455 24.8073 14.4455 20.6544C14.4455 16.6502 15.1096 13.6377 16.6918 10.4676C17.286 9.27712 17.7138 8.30345 17.6431 8.30345C17.5723 8.30345 16.8943 9.02345 16.1361 9.90302ZM44.5476 28.7298C44.5476 28.8119 45.4363 29.4942 46.523 30.2466C53.9405 35.3826 55.1537 46.2506 49.0486 52.8751C48.176 53.8221 47.5476 54.597 47.6522 54.597C48.2885 54.597 51.1143 53.1514 53.2693 51.7238C57.1111 49.178 60.7959 44.9973 62.8003 40.9096C65.508 35.3875 66.2583 31.3832 64.9003 29.7043C64.1828 28.8172 64.1628 28.8153 54.3646 28.6986C48.965 28.6339 44.5476 28.6482 44.5476 28.7298Z" fill="#015665"/>
<path d="M11.9874 68.3978H11.9306C11.1054 67.0805 9.42487 66.4749 7.71401 66.4749C3.74724 66.4749 0 69.4689 0 74.681C0 79.5676 3.5542 82.694 7.71401 82.694C10.1138 82.694 11.4347 81.4033 11.9041 80.5252H11.9571V80.9945C11.9571 85.0824 8.81925 85.1581 8.24013 85.1581C7.93733 85.1581 6.20376 85.1278 5.43538 83.6895L1.27179 86.0779C2.36568 87.6298 4.41341 89 7.89569 89C11.6808 89 14.4552 87.3232 15.64 85.4042C16.397 84.1134 16.5484 82.66 16.5484 80.3813V66.9708H11.9874V68.3978ZM8.24013 78.4396C6.34759 78.4396 4.57238 76.9596 4.57238 74.5145C4.56233 74.0223 4.65035 73.533 4.83132 73.0752C5.01228 72.6174 5.28256 72.2001 5.6264 71.8478C5.97025 71.4955 6.38078 71.2152 6.83407 71.0232C7.28737 70.8312 7.77435 70.7313 8.26663 70.7294C10.3068 70.7294 11.9874 72.2131 11.9874 74.6545C12.0102 75.1544 11.9291 75.6536 11.7494 76.1207C11.5697 76.5877 11.2951 77.0124 10.943 77.368C10.5909 77.7236 10.169 78.0025 9.70381 78.1869C9.23861 78.3713 8.74024 78.4574 8.24013 78.4396Z" fill="#015665"/>
<path d="M29.0846 67.2812C26.9687 65.9299 24.0012 67.0541 23.2783 68.587H23.2215V66.9708H18.9254V82.202H23.4978V73.8294C23.4978 71.5583 24.3722 70.5098 26.4426 70.9413C27.0207 69.5291 27.9263 68.2746 29.0846 67.2812Z" fill="#015665"/>
<path d="M51.0495 66.4484C46.8518 66.4484 43.714 69.6392 43.1349 73.3827C42.5292 69.4197 39.3498 66.4484 35.1862 66.4484C30.5267 66.4484 27.1656 70.3735 27.1656 74.6242C27.1736 76.7659 28.0295 78.8173 29.546 80.3296C31.0626 81.8419 33.1164 82.692 35.2581 82.694C36.8166 82.7034 38.3388 82.2242 39.6109 81.3238C40.9977 80.3457 42.078 78.9936 42.7261 77.4252H38.0401C37.7339 77.8779 37.3184 78.246 36.8321 78.4955C36.3458 78.7449 35.8044 78.8676 35.2581 78.8521C33.4677 78.8521 31.9499 77.7847 31.6736 75.9717H43.15C43.4755 77.853 44.4548 79.559 45.9152 80.7889C47.3757 82.0187 49.2234 82.6934 51.1327 82.694C52.6912 82.7034 54.2135 82.2242 55.4856 81.3238C56.8724 80.3457 57.9527 78.9936 58.6007 77.4252H53.9148C53.6086 77.8779 53.1931 78.246 52.7068 78.4955C52.2205 78.7449 51.6791 78.8676 51.1327 78.8521C49.3424 78.8521 47.8246 77.7847 47.5483 75.9717H59.0133C59.088 75.5736 59.1248 75.1693 59.1231 74.7642C59.1231 70.1275 55.7051 66.4484 51.0495 66.4484ZM31.7455 72.8831C31.9386 71.9746 32.847 70.2751 35.2165 70.2751C37.5859 70.2751 38.4981 71.9746 38.6874 72.8831H31.7455ZM47.6202 72.8831C47.8132 71.9746 48.7216 70.2751 51.0911 70.2751C53.4606 70.2751 54.369 71.9746 54.562 72.8831H47.6202Z" fill="#015665"/>
<path d="M73.3436 67.7656C72.2127 66.9207 70.8415 66.4592 69.4298 66.4484C66.7008 66.4484 65.7356 67.8489 65.2663 68.587H65.2095V66.9707H60.9399V82.2019H65.5123V73.9126C65.5123 72.9815 65.5123 70.7293 68.1316 70.7293C70.5275 70.7293 70.5275 72.8149 70.5275 73.8861V82.2133H75.1037V72.6786C75.1075 69.6884 74.1877 68.4772 73.3436 67.7656Z" fill="#015665"/>
</svg>
