<svg width="126" height="80" viewBox="0 0 126 80" fill="none" xmlns="http://www.w3.org/2000/svg">
<path d="M24.2141 53.5457H26.0658C27.3955 53.5457 28.5819 54.1101 28.5819 56.3223C28.5819 58.5345 27.3955 59.0996 26.0658 59.0996H24.2141V53.5457ZM25.8757 58.0643C26.7303 58.0643 27.2529 57.8285 27.2529 56.3223C27.2529 54.8161 26.7309 54.581 25.8757 54.581H25.4963V58.0643H25.8757ZM29.579 53.5457H30.8606V59.0996H29.579V53.5457ZM32.0952 53.5457H35.751V54.581H33.3767V55.7579H34.9908V56.7932H33.3767V58.0643H35.8929V59.0996H32.0952V53.5457ZM38.5516 57.7817C38.9706 58.0233 39.445 58.1531 39.9288 58.1584C40.3558 58.1584 40.6409 58.0168 40.6884 57.6401C40.7352 57.2641 40.4983 57.1699 40.1182 57.0283L39.5487 56.7932C39.3281 56.757 39.1167 56.6778 38.9268 56.5599C38.7369 56.4421 38.5722 56.288 38.4421 56.1065C38.3119 55.925 38.219 55.7197 38.1686 55.5022C38.1181 55.2848 38.1112 55.0596 38.1481 54.8395C38.2256 54.395 38.4765 53.9993 38.8458 53.7391C39.2151 53.4789 39.6727 53.3755 40.1182 53.4515C40.696 53.4246 41.2702 53.5545 41.7798 53.8275L41.4479 54.8161C41.0632 54.6233 40.643 54.5112 40.2132 54.4868C39.8338 54.4868 39.5962 54.6277 39.5962 55.0044C39.5962 55.3812 39.7863 55.4753 40.1657 55.6637L40.8778 55.9456C41.2111 56.0296 41.5058 56.2247 41.713 56.4986C41.9202 56.7725 42.0276 57.1087 42.0174 57.4518C42.0174 58.5819 41.2104 59.1937 39.9764 59.1937C39.3571 59.2126 38.7461 59.0488 38.2197 58.7228L38.5516 57.7811V57.7817ZM42.9195 53.5457H44.9605C46.2427 53.5457 46.8597 54.2042 46.8597 55.3337C46.8597 56.4639 46.2427 57.1699 44.9612 57.1699H44.201V59.0996H42.9195V53.5457ZM44.6761 56.1339C45.2456 56.1339 45.5782 55.993 45.5782 55.3337C45.5782 54.6751 45.2456 54.581 44.6761 54.581H44.201V56.1339H44.6761ZM47.7143 53.5457H48.9489V59.0996H47.7143V53.5457ZM51.1325 54.581H49.7085V53.5457H53.8388V54.581H52.4147V59.0996H51.1325V54.581ZM53.6012 59.0054L55.3578 53.5457H56.8769L58.6336 59.0054V59.0989H57.3045L56.9719 57.9233H55.1678L54.8359 59.0989H53.6012V59.0054ZM54.7408 52.4155C54.7335 52.3395 54.7432 52.2627 54.7693 52.1909C54.7953 52.119 54.837 52.0538 54.8914 52.0001C54.946 51.9461 55.0119 51.9048 55.0842 51.879C55.1566 51.8533 55.2338 51.8437 55.3103 51.8511C55.3869 51.8436 55.4642 51.8531 55.5368 51.8789C55.6093 51.9046 55.6752 51.946 55.7299 52.0001C55.7843 52.0538 55.826 52.119 55.852 52.1909C55.8781 52.2627 55.8878 52.3395 55.8805 52.4155C55.8878 52.4916 55.8781 52.5683 55.852 52.6401C55.826 52.712 55.7843 52.7772 55.7299 52.831C55.6753 52.8851 55.6094 52.9266 55.5368 52.9525C55.4643 52.9784 55.387 52.988 55.3103 52.9806C54.9784 52.9806 54.7408 52.8864 54.7408 52.4155ZM56.6875 56.9341L56.0699 54.8635L55.4529 56.9341H56.6875ZM56.4025 52.4155C56.4025 52.1036 56.6574 51.8511 56.9719 51.8511C57.2865 51.8511 57.5421 52.1036 57.5421 52.4155C57.5421 52.8864 57.3045 52.9806 56.9719 52.9806C56.64 52.9806 56.4025 52.8864 56.4025 52.4155ZM59.3931 53.5457H60.6278V58.0168H62.8113V59.0989H59.3931V53.5457ZM63.6184 53.5457H67.2742V54.581H64.8531V55.7579H66.4672V56.7932H64.8531V58.0643H67.3692V59.0996H63.6177L63.6184 53.5457ZM68.3188 53.5457H70.313C71.5946 53.5457 72.2116 54.2042 72.2116 55.3337C72.2484 55.6555 72.1864 55.9809 72.0338 56.2667C71.8812 56.5525 71.6452 56.7852 71.357 56.9341L72.6392 58.958V59.0996H71.262L70.1705 57.1225H69.5528V59.0996H68.3188V53.5457ZM70.028 56.1339C70.5975 56.1339 70.93 55.993 70.93 55.3337C70.93 54.6751 70.5975 54.581 70.028 54.581H69.5528V56.1339H70.028ZM75.2497 53.5457H77.102C78.3842 53.5457 79.5714 54.1101 79.5714 56.3223C79.5714 58.5345 78.3842 59.0996 77.102 59.0996H75.2504V53.5457H75.2497ZM76.8645 58.0643C77.719 58.0643 78.2885 57.8285 78.2885 56.3223C78.2885 54.8161 77.719 54.581 76.8645 54.581H76.4844V58.0643H76.8645ZM80.5671 53.5457H84.223V54.581H81.8493V55.7579H83.4634V56.7932H81.8493V58.0643H84.3655V59.0996H80.5671V53.5457ZM85.2676 53.5457H87.2618C88.5908 53.5457 89.2078 54.2042 89.2078 55.3337C89.2447 55.6555 89.1827 55.9809 89.0301 56.2667C88.8774 56.5525 88.6414 56.7852 88.3532 56.9341L89.6348 58.958V59.0996H88.2582L87.1661 57.1225H86.5491V59.0996H85.2676V53.5457ZM87.0236 56.1339C87.5937 56.1339 87.9256 55.993 87.9256 55.3337C87.9256 54.6751 87.5937 54.581 87.0236 54.581H86.5491V56.1339H87.0242H87.0236ZM92.1509 57.7817C92.5665 58.0289 93.043 58.1598 93.5281 58.1584C93.9551 58.1584 94.2402 58.0168 94.2402 57.6401C94.2402 57.2641 94.0976 57.1699 93.7182 57.0283L93.1005 56.7932C92.7383 56.6988 92.4189 56.4844 92.1948 56.1851C91.9706 55.8859 91.8548 55.5195 91.8665 55.146C91.8665 54.0633 92.6736 53.4515 93.7175 53.4515C94.2946 53.4314 94.8671 53.561 95.3791 53.8275L95.0472 54.8161C94.6457 54.6232 94.21 54.5113 93.765 54.4868C93.3856 54.4868 93.148 54.6277 93.148 55.0044C93.148 55.3812 93.3381 55.4753 93.7175 55.6637L94.4777 55.9456C94.811 56.0298 95.1054 56.2249 95.3125 56.4988C95.5196 56.7726 95.6269 57.1088 95.6167 57.4518C95.6167 58.5819 94.7621 59.1937 93.5281 59.1937C92.9096 59.2071 92.3001 59.0437 91.7715 58.7228L92.1509 57.7811V57.7817ZM98.7506 53.4515C99.2669 53.4348 99.7773 53.5652 100.222 53.8275L99.8895 54.7693C99.5498 54.5987 99.1774 54.5023 98.7974 54.4868C97.9903 54.4868 97.6109 54.8635 97.6109 56.3223C97.6109 57.7817 97.9903 58.1584 98.7974 58.1584C99.2314 58.1626 99.6582 58.0485 100.032 57.8285L100.365 58.7235C99.8833 59.0329 99.3224 59.1963 98.7499 59.1937C97.3258 59.1937 96.2812 58.5819 96.2812 56.3223C96.2812 54.0633 97.5159 53.4515 98.7506 53.4515ZM101.172 53.5457H102.406V55.7104H104.21V53.5457H105.491V59.0996H104.21V56.7932H102.406V59.0996H101.172V53.5457ZM106.299 53.6866V53.5457H107.581L108.578 57.3582L109.622 53.5457H110.761L111.853 57.3582L112.803 53.5457H114.037V53.6866L112.565 59.0996H111.189L110.144 55.5221L109.147 59.0996H107.818L106.299 53.6866ZM114.892 53.5457H118.547V54.581H116.174V55.7579H117.788V56.7932H116.174V58.0643H118.69V59.0996H114.892V53.5457ZM119.592 53.5457H120.874V59.0996H119.592V53.5457ZM121.823 58.2994L124.102 54.581H121.823V53.5457H125.668V54.4394L123.39 58.0643H125.763V59.0996H121.823V58.2994ZM24.2141 63.9481H25.4963V68.4193H27.6799V69.5013H24.2141V63.9481ZM28.4394 63.9481H32.0952V64.9834H29.7216V66.1597H31.3357V67.195H29.7216V68.466H32.2378V69.5013H28.4394V63.9481ZM33.2349 68.1835C33.6357 68.4253 34.0948 68.5555 34.5639 68.5602C35.039 68.5602 35.3234 68.4193 35.3234 68.0426C35.3234 67.6659 35.1809 67.5717 34.8015 67.4307L34.1838 67.195C33.8216 67.1006 33.5022 66.8862 33.278 66.5869C33.0538 66.2877 32.9381 65.9213 32.9498 65.5478C32.9498 64.4658 33.7568 63.8533 34.8015 63.8533C35.3786 63.8334 35.9511 63.9632 36.4631 64.23L36.1305 65.2185C35.7438 65.0317 35.325 64.9199 34.8965 64.8892C34.4689 64.8892 34.2313 65.0295 34.2313 65.4069C34.2313 65.7829 34.4214 65.8771 34.8015 66.0655L35.561 66.348C35.8942 66.4322 36.1887 66.6274 36.3958 66.9012C36.6029 67.1751 36.7102 67.5113 36.7 67.8542C36.7 68.9837 35.8454 69.5955 34.6114 69.5955C33.9929 69.6091 33.3834 69.446 32.8548 69.1253L33.2349 68.1835ZM39.4537 63.9481H40.7359V66.1122H42.5394V63.9481H43.8216V69.5013H42.5394V67.195H40.7359V69.5013H39.453L39.4537 63.9481ZM44.8187 66.7247C44.8187 64.6067 45.9101 63.8533 47.1448 63.8533C48.3788 63.8533 49.5184 64.5125 49.5184 66.7247C49.5184 68.9369 48.3788 69.5955 47.1448 69.5955C45.9101 69.5955 44.8187 68.9369 44.8187 66.7247ZM45.8158 62.7705L46.9547 62.0645H47.3824L48.4738 62.7705V63.5707H48.3788L47.1448 62.8647L45.9576 63.5707H45.8158V62.7705ZM48.1894 66.7247C48.1894 65.1711 47.8568 64.8892 47.1448 64.8892C46.4328 64.8892 46.1477 65.1711 46.1477 66.7247C46.1477 68.2777 46.4803 68.5602 47.1448 68.5602C47.8093 68.5602 48.1887 68.2777 48.1887 66.7247H48.1894ZM50.5149 63.9481H52.5572C53.8388 63.9481 54.4558 64.6067 54.4558 65.7362C54.4558 66.8657 53.8388 67.5717 52.5572 67.5717H51.797V69.502H50.5155V63.9474L50.5149 63.9481ZM52.2722 66.5364C52.8417 66.5364 53.1743 66.3954 53.1743 65.7362C53.1743 65.0769 52.8417 64.9828 52.2722 64.9828H51.797V66.5364H52.2722ZM55.2628 63.9481H56.545V69.5013H55.2628V63.9481ZM58.7286 64.9834H57.3045V63.9481H61.4348V64.9834H59.9626V69.5013H58.7286V64.9834ZM61.1972 69.3604L62.9539 63.9474H64.473L66.1821 69.3604V69.5013H64.9006L64.568 68.3251H62.7638L62.3844 69.5013H61.1972V69.3604ZM64.2836 67.3366L63.6659 65.266L63.0489 67.3366H64.2836ZM66.7047 63.9481H67.9862V67.3366C67.9862 68.3251 68.2713 68.5602 68.8883 68.5602C69.5053 68.5602 69.7904 68.3251 69.7904 67.2891V63.9481H71.0719V67.4314C71.0719 69.126 70.0748 69.5962 68.8883 69.5962C67.7012 69.5962 66.7047 69.2669 66.7047 67.4788V63.9481ZM71.6896 69.3604L73.3987 66.6773L71.8321 64.089V63.9474H73.1611L74.2533 65.642L75.2972 63.9474H76.6269V64.089L74.9178 66.6305L76.6269 69.3604V69.5013H75.2029L74.1107 67.6659L73.0186 69.5013H71.6896V69.3604ZM79.1899 63.9481H81.0423C82.3238 63.9481 83.5109 64.5125 83.5109 66.7247C83.5109 68.9369 82.3238 69.5013 81.0416 69.5013H79.1906V63.9481H79.1899ZM80.8047 68.466C81.6593 68.466 82.2288 68.2309 82.2288 66.7247C82.2288 65.2185 81.6593 64.9828 80.8047 64.9828H80.4246V68.466H80.8047ZM84.5074 63.9481H88.1632V64.9834H85.7896V66.1597H87.4037V67.195H85.7896V68.466H88.3057V69.5013H84.5074V63.9481ZM90.9644 68.1835C91.3833 68.425 91.8573 68.5548 92.341 68.5602C92.7686 68.5602 93.053 68.4193 93.1005 68.0426C93.148 67.6659 92.9105 67.5717 92.531 67.4307L91.9616 67.195C91.741 67.1588 91.5297 67.0796 91.3398 66.9618C91.15 66.844 90.9853 66.69 90.8552 66.5086C90.725 66.3271 90.6321 66.1219 90.5816 65.9045C90.5311 65.6871 90.5241 65.462 90.5609 65.2419C90.6383 64.7973 90.8891 64.4014 91.2584 64.1411C91.6277 63.8808 92.0854 63.7773 92.531 63.8533C93.1088 63.8266 93.6831 63.9568 94.1927 64.23L93.8601 65.2185C93.4756 65.0258 93.0556 64.9137 92.6261 64.8892C92.246 64.8892 92.0084 65.0295 92.0084 65.4069C92.0084 65.7829 92.1984 65.8771 92.5786 66.0655L93.2906 66.348C93.6239 66.4321 93.9186 66.6272 94.1258 66.9011C94.333 67.1749 94.4404 67.5112 94.4302 67.8542C94.4302 68.9837 93.6232 69.5955 92.3885 69.5955C91.7694 69.6146 91.1583 69.4511 90.6319 69.1253L90.9644 68.1835ZM95.2841 63.9481H96.5188V67.3366C96.5188 68.3251 96.8039 68.5602 97.4684 68.5602C98.1329 68.5602 98.3229 68.3251 98.3229 67.2891V63.9481H99.6045V67.4314C99.6045 69.126 98.6073 69.5962 97.4684 69.5962C96.3287 69.5962 95.2848 69.2669 95.2848 67.4788V63.9481H95.2841ZM100.838 63.9481H102.121V69.5013H100.839L100.838 63.9481ZM103.308 68.1835C103.729 68.4193 104.202 68.5487 104.684 68.5602C105.159 68.5602 105.444 68.4193 105.444 68.0426C105.444 67.6659 105.254 67.5717 104.922 67.4307L104.305 67.195C103.943 67.1007 103.623 66.8864 103.399 66.5871C103.174 66.2878 103.059 65.9214 103.07 65.5478C103.07 64.4658 103.877 63.8533 104.922 63.8533C105.499 63.8334 106.072 63.9632 106.583 64.23L106.251 65.2185C105.85 65.0258 105.414 64.9139 104.969 64.8892C104.589 64.8892 104.352 65.0295 104.352 65.4069C104.352 65.7829 104.542 65.8771 104.922 66.0655L105.681 66.348C106.015 66.4321 106.309 66.6272 106.517 66.9011C106.724 67.1749 106.831 67.5112 106.821 67.8542C106.821 68.9837 105.966 69.5955 104.732 69.5955C104.113 69.6091 103.504 69.446 102.975 69.1253L103.308 68.1835ZM107.628 68.1835C108.049 68.4193 108.522 68.5487 109.005 68.5602C109.48 68.5602 109.764 68.4193 109.764 68.0426C109.764 67.6659 109.575 67.5717 109.242 67.4307L108.625 67.195C108.263 67.1007 107.943 66.8864 107.719 66.5871C107.495 66.2878 107.379 65.9214 107.391 65.5478C107.391 64.4658 108.198 63.8533 109.242 63.8533C109.819 63.8334 110.392 63.9632 110.904 64.23L110.571 65.2185C110.17 65.0258 109.734 64.9139 109.29 64.8892C108.91 64.8892 108.673 65.0295 108.673 65.4069C108.673 65.7829 108.862 65.8771 109.242 66.0655L110.002 66.348C110.335 66.4321 110.63 66.6272 110.837 66.9011C111.044 67.1749 111.152 67.5112 111.141 67.8542C111.141 68.9837 110.287 69.5955 109.052 69.5955C108.434 69.6091 107.824 69.446 107.296 69.1253L107.628 68.1835ZM112.043 63.9481H115.699V64.9834H113.325V66.1597H114.939V67.195H113.325V68.466H115.841V69.5013H112.043V63.9481ZM23.9297 77.1265C23.9297 74.9143 25.1637 74.2557 26.4459 74.2557C27.0068 74.246 27.5615 74.3755 28.06 74.6324L27.6799 75.621C27.321 75.4071 26.9113 75.2932 26.4934 75.291C25.6863 75.291 25.2587 75.6203 25.2587 77.1265C25.2587 78.6327 25.6863 78.9627 26.3984 78.9627C26.6593 78.9754 26.919 78.9266 27.1579 78.8211V77.8325H26.4459V76.9382H28.3919V79.9506H27.4423L27.3479 79.5745C27.0496 79.8467 26.66 79.9978 26.2558 79.998C24.8318 79.998 23.9297 79.2446 23.9297 77.1265ZM29.484 74.3499H30.7655V78.8211H32.9498V79.9038H29.484V74.3499ZM33.7093 74.3499H34.9908V79.9038H33.7093V74.3499ZM37.8871 77.1265C37.8871 75.0092 38.9792 74.2557 40.2132 74.2557C41.4479 74.2557 42.5869 74.9143 42.5869 77.1265C42.5869 79.3387 41.4479 79.998 40.2132 79.998C38.9792 79.998 37.8871 79.3387 37.8871 77.1265ZM41.2579 77.1265C41.2579 75.5736 40.9253 75.291 40.2139 75.291C39.5012 75.291 39.1686 75.5736 39.1686 77.1265C39.1686 78.6801 39.5012 78.9627 40.2132 78.9627C40.9253 78.9627 41.2579 78.6801 41.2579 77.1265ZM43.5365 78.586C43.9555 78.8276 44.4298 78.9573 44.9137 78.9627C45.3406 78.9627 45.6257 78.8211 45.6732 78.4444C45.7201 78.0683 45.4832 77.9741 45.1031 77.8325L44.5343 77.5974C44.1673 77.5046 43.8419 77.2921 43.6096 76.9938C43.3773 76.6954 43.2515 76.3281 43.2521 75.9503C43.2521 74.8676 44.0591 74.2557 45.1031 74.2557C45.6802 74.2359 46.2527 74.3657 46.7647 74.6324L46.4328 75.621C46.0481 75.4279 45.6279 75.3156 45.1981 75.291C44.8187 75.291 44.5336 75.432 44.5336 75.8087C44.5336 76.1854 44.7236 76.2796 45.1506 76.4679L45.8626 76.7505C46.196 76.8346 46.4906 77.0297 46.6978 77.3035C46.905 77.5774 47.0124 77.9136 47.0023 78.2567C47.0023 79.3855 46.1952 79.998 44.9137 79.998C44.3091 80.0191 43.7126 79.8548 43.2046 79.5271L43.5365 78.5853V78.586ZM47.905 74.3499H49.946C51.2276 74.3499 51.8446 75.0085 51.8446 76.1854C51.8446 77.3623 51.2276 77.9741 49.946 77.9741H49.1865V79.9038H47.9043V74.3499H47.905ZM49.661 76.9382C50.2305 76.9382 50.563 76.7979 50.563 76.1854C50.563 75.5736 50.2305 75.3852 49.661 75.3852H49.1858V76.9382H49.661ZM52.6516 74.3499H56.3549V75.3852H53.9338V76.5621H55.5479V77.5974H53.9338V78.8685H56.45V79.9038H52.6516V74.3499ZM57.3996 74.3499H59.2512C60.5327 74.3499 61.7199 74.9143 61.7199 77.1265C61.7199 79.3387 60.5327 79.9038 59.2506 79.9038H57.3996V74.3499ZM59.0137 78.8685C59.8682 78.8685 60.4377 78.6327 60.4377 77.1265C60.4377 75.6203 59.8682 75.3852 59.0137 75.3852H58.6336V78.8685H59.0137ZM62.0518 79.7629L63.8085 74.3499H65.2807L67.0367 79.7629V79.9038H65.7551L65.4226 78.7269H63.5709L63.239 79.9038H62.0518V79.7629ZM65.09 77.739L64.473 75.6677L63.9035 77.7384H65.0906L65.09 77.739ZM67.7962 74.3499H69.0784V78.8211H71.262V79.9038H67.7962V74.3499ZM72.0215 74.3499H73.3037V79.9038H72.0215V74.3499ZM76.3418 78.586C76.7632 78.8219 77.236 78.9512 77.719 78.9627C78.1935 78.9627 78.4786 78.8211 78.4786 78.4444C78.4786 78.0683 78.2885 77.9741 77.9566 77.8325L77.3389 77.5974C76.9766 77.5031 76.6571 77.2888 76.4328 76.9895C76.2084 76.6903 76.0926 76.3238 76.1043 75.9503C76.1043 74.8676 76.9113 74.2557 77.9559 74.2557C78.5331 74.2359 79.1056 74.3657 79.6176 74.6324L79.2856 75.621C78.8841 75.4279 78.4484 75.3158 78.0035 75.291C77.624 75.291 77.3865 75.432 77.3865 75.8087C77.3865 76.1854 77.5765 76.2796 77.9559 76.4679L78.7155 76.7505C79.0488 76.8346 79.3435 77.0297 79.5507 77.3035C79.7579 77.5774 79.8653 77.9136 79.8551 78.2567C79.8551 79.3855 79.0006 79.998 77.7659 79.998C77.1476 80.0112 76.5383 79.8479 76.0099 79.5271L76.3418 78.5853V78.586ZM80.3296 74.4908V74.3499H81.6593L82.7982 78.3509L83.9379 74.3499H85.2201V74.4908L83.5109 79.9038H82.0387L80.3296 74.4908ZM86.0271 74.3499H87.2611V79.9038H86.0271V74.3499ZM88.2107 79.1036L90.4893 75.3852H88.2582V74.3499H92.1034V75.2443L89.7773 78.8685H92.1985V79.9038H88.2107V79.1036ZM92.8161 79.1036L95.0947 75.3852H92.863V74.3499H96.7088V75.2443L94.3827 78.8685H96.8039V79.9038H92.8155L92.8161 79.1036ZM97.6584 74.3499H101.361V75.3852H98.9399V76.5621H100.554V77.5974H98.9399V78.8685H101.456V79.9038H97.6584V74.3499ZM102.406 74.3499H104.4C105.681 74.3499 106.298 75.0085 106.298 76.1386C106.335 76.4603 106.273 76.7855 106.12 77.0712C105.968 77.3569 105.732 77.5895 105.444 77.7384L106.726 79.7622V79.9038H105.35L104.257 77.9267H103.64V79.9038H102.406V74.3499ZM104.115 76.9382C104.684 76.9382 105.017 76.7979 105.017 76.1386C105.017 75.4794 104.684 75.3852 104.115 75.3852H103.64V76.9382H104.115ZM107.533 74.3499H108.767V79.9038H107.533V74.3499Z" fill="#B1BED3"/>
<path d="M0.144531 0V40.6106H10.8028V25.405H24.5956V40.6106H35.2539V0H24.5956V14.7374H10.8028V0H0.144531ZM80.1303 14.738H65.0292V0H54.3173V14.738H39.1687V25.4057H54.3173V40.6119H65.0292V25.4057H80.1303V14.738Z" fill="#B1BED3"/>
</svg>
