<svg width="126" height="80" viewBox="0 0 126 80" fill="none" xmlns="http://www.w3.org/2000/svg">
<path d="M24.2151 53.5457H26.0667C27.3964 53.5457 28.5829 54.1101 28.5829 56.3223C28.5829 58.5345 27.3964 59.0996 26.0667 59.0996H24.2151V53.5457ZM25.8767 58.0643C26.7313 58.0643 27.2539 57.8285 27.2539 56.3223C27.2539 54.8161 26.7319 54.581 25.8767 54.581H25.4973V58.0643H25.8767ZM29.58 53.5457H30.8615V59.0996H29.58V53.5457ZM32.0962 53.5457H35.752V54.581H33.3777V55.7579H34.9918V56.7932H33.3777V58.0643H35.8939V59.0996H32.0962V53.5457ZM38.5526 57.7817C38.9716 58.0233 39.4459 58.1531 39.9298 58.1584C40.3568 58.1584 40.6418 58.0168 40.6894 57.6401C40.7362 57.2641 40.4993 57.1699 40.1192 57.0283L39.5497 56.7932C39.3291 56.757 39.1177 56.6778 38.9278 56.5599C38.7379 56.4421 38.5732 56.288 38.443 56.1065C38.3129 55.925 38.22 55.7197 38.1695 55.5022C38.1191 55.2848 38.1121 55.0596 38.1491 54.8395C38.2266 54.395 38.4775 53.9993 38.8468 53.7391C39.2161 53.4789 39.6736 53.3755 40.1192 53.4515C40.6969 53.4246 41.2712 53.5545 41.7808 53.8275L41.4489 54.8161C41.0642 54.6233 40.644 54.5112 40.2142 54.4868C39.8348 54.4868 39.5972 54.6277 39.5972 55.0044C39.5972 55.3812 39.7873 55.4753 40.1667 55.6637L40.8787 55.9456C41.2121 56.0296 41.5067 56.2247 41.7139 56.4986C41.9212 56.7725 42.0286 57.1087 42.0184 57.4518C42.0184 58.5819 41.2113 59.1937 39.9773 59.1937C39.3581 59.2126 38.7471 59.0488 38.2207 58.7228L38.5526 57.7811V57.7817ZM42.9205 53.5457H44.9615C46.2437 53.5457 46.8607 54.2042 46.8607 55.3337C46.8607 56.4639 46.2437 57.1699 44.9622 57.1699H44.202V59.0996H42.9205V53.5457ZM44.6771 56.1339C45.2466 56.1339 45.5792 55.993 45.5792 55.3337C45.5792 54.6751 45.2466 54.581 44.6771 54.581H44.202V56.1339H44.6771ZM47.7153 53.5457H48.9499V59.0996H47.7153V53.5457ZM51.1335 54.581H49.7095V53.5457H53.8397V54.581H52.4157V59.0996H51.1335V54.581ZM53.6022 59.0054L55.3588 53.5457H56.8779L58.6345 59.0054V59.0989H57.3055L56.9729 57.9233H55.1688L54.8368 59.0989H53.6022V59.0054ZM54.7418 52.4155C54.7345 52.3395 54.7442 52.2627 54.7703 52.1909C54.7963 52.119 54.838 52.0538 54.8924 52.0001C54.947 51.9461 55.0128 51.9048 55.0852 51.879C55.1576 51.8533 55.2348 51.8437 55.3113 51.8511C55.3879 51.8436 55.4652 51.8531 55.5377 51.8789C55.6103 51.9046 55.6762 51.946 55.7309 52.0001C55.7853 52.0538 55.827 52.119 55.853 52.1909C55.879 52.2627 55.8888 52.3395 55.8815 52.4155C55.8888 52.4916 55.879 52.5683 55.853 52.6401C55.827 52.712 55.7853 52.7772 55.7309 52.831C55.6763 52.8851 55.6103 52.9266 55.5378 52.9525C55.4653 52.9784 55.388 52.988 55.3113 52.9806C54.9794 52.9806 54.7418 52.8864 54.7418 52.4155ZM56.6885 56.9341L56.0708 54.8635L55.4538 56.9341H56.6885ZM56.4034 52.4155C56.4034 52.1036 56.6584 51.8511 56.9729 51.8511C57.2874 51.8511 57.5431 52.1036 57.5431 52.4155C57.5431 52.8864 57.3055 52.9806 56.9729 52.9806C56.641 52.9806 56.4034 52.8864 56.4034 52.4155ZM59.3941 53.5457H60.6287V58.0168H62.8123V59.0989H59.3941V53.5457ZM63.6194 53.5457H67.2752V54.581H64.854V55.7579H66.4681V56.7932H64.854V58.0643H67.3702V59.0996H63.6187L63.6194 53.5457ZM68.3198 53.5457H70.314C71.5955 53.5457 72.2125 54.2042 72.2125 55.3337C72.2494 55.6555 72.1874 55.9809 72.0348 56.2667C71.8822 56.5525 71.6461 56.7852 71.358 56.9341L72.6401 58.958V59.0996H71.2629L70.1715 57.1225H69.5538V59.0996H68.3198V53.5457ZM70.0289 56.1339C70.5984 56.1339 70.931 55.993 70.931 55.3337C70.931 54.6751 70.5984 54.581 70.0289 54.581H69.5538V56.1339H70.0289ZM75.2507 53.5457H77.103C78.3852 53.5457 79.5724 54.1101 79.5724 56.3223C79.5724 58.5345 78.3852 59.0996 77.103 59.0996H75.2514V53.5457H75.2507ZM76.8655 58.0643C77.72 58.0643 78.2895 57.8285 78.2895 56.3223C78.2895 54.8161 77.72 54.581 76.8655 54.581H76.4854V58.0643H76.8655ZM80.5681 53.5457H84.2239V54.581H81.8503V55.7579H83.4644V56.7932H81.8503V58.0643H84.3665V59.0996H80.5681V53.5457ZM85.2686 53.5457H87.2628C88.5918 53.5457 89.2088 54.2042 89.2088 55.3337C89.2456 55.6555 89.1837 55.9809 89.031 56.2667C88.8784 56.5525 88.6424 56.7852 88.3542 56.9341L89.6357 58.958V59.0996H88.2592L87.1671 57.1225H86.5501V59.0996H85.2686V53.5457ZM87.0245 56.1339C87.5947 56.1339 87.9266 55.993 87.9266 55.3337C87.9266 54.6751 87.5947 54.581 87.0245 54.581H86.5501V56.1339H87.0252H87.0245ZM92.1519 57.7817C92.5675 58.0289 93.044 58.1598 93.5291 58.1584C93.9561 58.1584 94.2411 58.0168 94.2411 57.6401C94.2411 57.2641 94.0986 57.1699 93.7192 57.0283L93.1015 56.7932C92.7393 56.6988 92.4199 56.4844 92.1957 56.1851C91.9715 55.8859 91.8558 55.5195 91.8675 55.146C91.8675 54.0633 92.6746 53.4515 93.7185 53.4515C94.2956 53.4314 94.8681 53.561 95.3801 53.8275L95.0482 54.8161C94.6466 54.6232 94.2109 54.5113 93.766 54.4868C93.3866 54.4868 93.149 54.6277 93.149 55.0044C93.149 55.3812 93.3391 55.4753 93.7185 55.6637L94.4787 55.9456C94.8119 56.0298 95.1064 56.2249 95.3135 56.4988C95.5206 56.7726 95.6279 57.1088 95.6177 57.4518C95.6177 58.5819 94.7631 59.1937 93.5291 59.1937C92.9106 59.2071 92.3011 59.0437 91.7725 58.7228L92.1519 57.7811V57.7817ZM98.7515 53.4515C99.2679 53.4348 99.7783 53.5652 100.223 53.8275L99.8905 54.7693C99.5508 54.5987 99.1784 54.5023 98.7984 54.4868C97.9913 54.4868 97.6119 54.8635 97.6119 56.3223C97.6119 57.7817 97.9913 58.1584 98.7984 58.1584C99.2323 58.1626 99.6592 58.0485 100.033 57.8285L100.366 58.7235C99.8843 59.0329 99.3234 59.1963 98.7509 59.1937C97.3268 59.1937 96.2822 58.5819 96.2822 56.3223C96.2822 54.0633 97.5169 53.4515 98.7515 53.4515ZM101.173 53.5457H102.407V55.7104H104.211V53.5457H105.492V59.0996H104.211V56.7932H102.407V59.0996H101.173V53.5457ZM106.3 53.6866V53.5457H107.582L108.579 57.3582L109.623 53.5457H110.762L111.854 57.3582L112.804 53.5457H114.038V53.6866L112.566 59.0996H111.19L110.145 55.5221L109.148 59.0996H107.819L106.3 53.6866ZM114.893 53.5457H118.548V54.581H116.175V55.7579H117.789V56.7932H116.175V58.0643H118.691V59.0996H114.893V53.5457ZM119.593 53.5457H120.874V59.0996H119.593V53.5457ZM121.824 58.2994L124.103 54.581H121.824V53.5457H125.669V54.4394L123.391 58.0643H125.764V59.0996H121.824V58.2994ZM24.2151 63.9481H25.4973V68.4193H27.6808V69.5013H24.2151V63.9481ZM28.4404 63.9481H32.0962V64.9834H29.7226V66.1597H31.3367V67.195H29.7226V68.466H32.2387V69.5013H28.4404V63.9481ZM33.2358 68.1835C33.6367 68.4253 34.0958 68.5555 34.5649 68.5602C35.04 68.5602 35.3244 68.4193 35.3244 68.0426C35.3244 67.6659 35.1819 67.5717 34.8024 67.4307L34.1848 67.195C33.8225 67.1006 33.5032 66.8862 33.279 66.5869C33.0548 66.2877 32.9391 65.9213 32.9508 65.5478C32.9508 64.4658 33.7578 63.8533 34.8024 63.8533C35.3796 63.8334 35.9521 63.9632 36.464 64.23L36.1315 65.2185C35.7448 65.0317 35.326 64.9199 34.8975 64.8892C34.4698 64.8892 34.2323 65.0295 34.2323 65.4069C34.2323 65.7829 34.4223 65.8771 34.8024 66.0655L35.562 66.348C35.8952 66.4322 36.1897 66.6274 36.3968 66.9012C36.6039 67.1751 36.7112 67.5113 36.7009 67.8542C36.7009 68.9837 35.8464 69.5955 34.6124 69.5955C33.9939 69.6091 33.3844 69.446 32.8557 69.1253L33.2358 68.1835ZM39.4547 63.9481H40.7369V66.1122H42.5404V63.9481H43.8225V69.5013H42.5404V67.195H40.7369V69.5013H39.454L39.4547 63.9481ZM44.8196 66.7247C44.8196 64.6067 45.9111 63.8533 47.1458 63.8533C48.3798 63.8533 49.5194 64.5125 49.5194 66.7247C49.5194 68.9369 48.3798 69.5955 47.1458 69.5955C45.9111 69.5955 44.8196 68.9369 44.8196 66.7247ZM45.8167 62.7705L46.9557 62.0645H47.3833L48.4748 62.7705V63.5707H48.3798L47.1458 62.8647L45.9586 63.5707H45.8167V62.7705ZM48.1904 66.7247C48.1904 65.1711 47.8578 64.8892 47.1458 64.8892C46.4337 64.8892 46.1487 65.1711 46.1487 66.7247C46.1487 68.2777 46.4813 68.5602 47.1458 68.5602C47.8103 68.5602 48.1897 68.2777 48.1897 66.7247H48.1904ZM50.5158 63.9481H52.5582C53.8397 63.9481 54.4567 64.6067 54.4567 65.7362C54.4567 66.8657 53.8397 67.5717 52.5582 67.5717H51.798V69.502H50.5165V63.9474L50.5158 63.9481ZM52.2732 66.5364C52.8426 66.5364 53.1752 66.3954 53.1752 65.7362C53.1752 65.0769 52.8426 64.9828 52.2732 64.9828H51.798V66.5364H52.2732ZM55.2638 63.9481H56.546V69.5013H55.2638V63.9481ZM58.7296 64.9834H57.3055V63.9481H61.4358V64.9834H59.9636V69.5013H58.7296V64.9834ZM61.1982 69.3604L62.9549 63.9474H64.4739L66.1831 69.3604V69.5013H64.9016L64.569 68.3251H62.7648L62.3854 69.5013H61.1982V69.3604ZM64.2846 67.3366L63.6669 65.266L63.0499 67.3366H64.2846ZM66.7057 63.9481H67.9872V67.3366C67.9872 68.3251 68.2723 68.5602 68.8893 68.5602C69.5063 68.5602 69.7914 68.3251 69.7914 67.2891V63.9481H71.0729V67.4314C71.0729 69.126 70.0758 69.5962 68.8893 69.5962C67.7021 69.5962 66.7057 69.2669 66.7057 67.4788V63.9481ZM71.6906 69.3604L73.3997 66.6773L71.8331 64.089V63.9474H73.1621L74.2542 65.642L75.2982 63.9474H76.6279V64.089L74.9188 66.6305L76.6279 69.3604V69.5013H75.2038L74.1117 67.6659L73.0196 69.5013H71.6906V69.3604ZM79.1909 63.9481H81.0433C82.3248 63.9481 83.5119 64.5125 83.5119 66.7247C83.5119 68.9369 82.3248 69.5013 81.0426 69.5013H79.1916V63.9481H79.1909ZM80.8057 68.466C81.6602 68.466 82.2297 68.2309 82.2297 66.7247C82.2297 65.2185 81.6602 64.9828 80.8057 64.9828H80.4256V68.466H80.8057ZM84.5084 63.9481H88.1642V64.9834H85.7905V66.1597H87.4046V67.195H85.7905V68.466H88.3067V69.5013H84.5084V63.9481ZM90.9654 68.1835C91.3842 68.425 91.8583 68.5548 92.342 68.5602C92.7696 68.5602 93.054 68.4193 93.1015 68.0426C93.149 67.6659 92.9115 67.5717 92.532 67.4307L91.9625 67.195C91.7419 67.1588 91.5307 67.0796 91.3408 66.9618C91.1509 66.844 90.9863 66.69 90.8561 66.5086C90.726 66.3271 90.6331 66.1219 90.5826 65.9045C90.5321 65.6871 90.5251 65.462 90.5619 65.2419C90.6392 64.7973 90.8901 64.4014 91.2594 64.1411C91.6287 63.8808 92.0863 63.7773 92.532 63.8533C93.1098 63.8266 93.6841 63.9568 94.1936 64.23L93.861 65.2185C93.4766 65.0258 93.0566 64.9137 92.627 64.8892C92.2469 64.8892 92.0094 65.0295 92.0094 65.4069C92.0094 65.7829 92.1994 65.8771 92.5795 66.0655L93.2915 66.348C93.6249 66.4321 93.9195 66.6272 94.1268 66.9011C94.334 67.1749 94.4414 67.5112 94.4312 67.8542C94.4312 68.9837 93.6241 69.5955 92.3895 69.5955C91.7703 69.6146 91.1593 69.4511 90.6328 69.1253L90.9654 68.1835ZM95.2851 63.9481H96.5198V67.3366C96.5198 68.3251 96.8048 68.5602 97.4694 68.5602C98.1339 68.5602 98.3239 68.3251 98.3239 67.2891V63.9481H99.6054V67.4314C99.6054 69.126 98.6083 69.5962 97.4694 69.5962C96.3297 69.5962 95.2858 69.2669 95.2858 67.4788V63.9481H95.2851ZM100.839 63.9481H102.122V69.5013H100.84L100.839 63.9481ZM103.309 68.1835C103.73 68.4193 104.203 68.5487 104.685 68.5602C105.16 68.5602 105.445 68.4193 105.445 68.0426C105.445 67.6659 105.255 67.5717 104.923 67.4307L104.306 67.195C103.944 67.1007 103.624 66.8864 103.4 66.5871C103.175 66.2878 103.06 65.9214 103.071 65.5478C103.071 64.4658 103.878 63.8533 104.923 63.8533C105.5 63.8334 106.073 63.9632 106.584 64.23L106.252 65.2185C105.851 65.0258 105.415 64.9139 104.97 64.8892C104.59 64.8892 104.353 65.0295 104.353 65.4069C104.353 65.7829 104.543 65.8771 104.923 66.0655L105.682 66.348C106.016 66.4321 106.31 66.6272 106.518 66.9011C106.725 67.1749 106.832 67.5112 106.822 67.8542C106.822 68.9837 105.967 69.5955 104.733 69.5955C104.114 69.6091 103.505 69.446 102.976 69.1253L103.309 68.1835ZM107.629 68.1835C108.05 68.4193 108.523 68.5487 109.006 68.5602C109.481 68.5602 109.765 68.4193 109.765 68.0426C109.765 67.6659 109.576 67.5717 109.243 67.4307L108.626 67.195C108.264 67.1007 107.944 66.8864 107.72 66.5871C107.496 66.2878 107.38 65.9214 107.392 65.5478C107.392 64.4658 108.199 63.8533 109.243 63.8533C109.82 63.8334 110.393 63.9632 110.905 64.23L110.572 65.2185C110.171 65.0258 109.735 64.9139 109.291 64.8892C108.911 64.8892 108.674 65.0295 108.674 65.4069C108.674 65.7829 108.863 65.8771 109.243 66.0655L110.003 66.348C110.336 66.4321 110.631 66.6272 110.838 66.9011C111.045 67.1749 111.153 67.5112 111.142 67.8542C111.142 68.9837 110.288 69.5955 109.053 69.5955C108.435 69.6091 107.825 69.446 107.297 69.1253L107.629 68.1835ZM112.044 63.9481H115.7V64.9834H113.326V66.1597H114.94V67.195H113.326V68.466H115.842V69.5013H112.044V63.9481ZM23.9307 77.1265C23.9307 74.9143 25.1647 74.2557 26.4468 74.2557C27.0078 74.246 27.5624 74.3755 28.0609 74.6324L27.6808 75.621C27.322 75.4071 26.9123 75.2932 26.4944 75.291C25.6873 75.291 25.2597 75.6203 25.2597 77.1265C25.2597 78.6327 25.6873 78.9627 26.3993 78.9627C26.6603 78.9754 26.92 78.9266 27.1589 78.8211V77.8325H26.4468V76.9382H28.3929V79.9506H27.4433L27.3489 79.5745C27.0506 79.8467 26.661 79.9978 26.2568 79.998C24.8327 79.998 23.9307 79.2446 23.9307 77.1265ZM29.485 74.3499H30.7665V78.8211H32.9508V79.9038H29.485V74.3499ZM33.7103 74.3499H34.9918V79.9038H33.7103V74.3499ZM37.8881 77.1265C37.8881 75.0092 38.9802 74.2557 40.2142 74.2557C41.4489 74.2557 42.5879 74.9143 42.5879 77.1265C42.5879 79.3387 41.4489 79.998 40.2142 79.998C38.9802 79.998 37.8881 79.3387 37.8881 77.1265ZM41.2588 77.1265C41.2588 75.5736 40.9263 75.291 40.2149 75.291C39.5022 75.291 39.1696 75.5736 39.1696 77.1265C39.1696 78.6801 39.5022 78.9627 40.2142 78.9627C40.9263 78.9627 41.2588 78.6801 41.2588 77.1265ZM43.5375 78.586C43.9565 78.8276 44.4308 78.9573 44.9147 78.9627C45.3416 78.9627 45.6267 78.8211 45.6742 78.4444C45.721 78.0683 45.4841 77.9741 45.104 77.8325L44.5352 77.5974C44.1683 77.5046 43.8428 77.2921 43.6106 76.9938C43.3783 76.6954 43.2525 76.3281 43.253 75.9503C43.253 74.8676 44.0601 74.2557 45.104 74.2557C45.6812 74.2359 46.2537 74.3657 46.7657 74.6324L46.4337 75.621C46.0491 75.4279 45.6289 75.3156 45.1991 75.291C44.8196 75.291 44.5346 75.432 44.5346 75.8087C44.5346 76.1854 44.7246 76.2796 45.1516 76.4679L45.8636 76.7505C46.1969 76.8346 46.4916 77.0297 46.6988 77.3035C46.906 77.5774 47.0134 77.9136 47.0032 78.2567C47.0032 79.3855 46.1962 79.998 44.9147 79.998C44.3101 80.0191 43.7136 79.8548 43.2055 79.5271L43.5375 78.5853V78.586ZM47.906 74.3499H49.947C51.2285 74.3499 51.8455 75.0085 51.8455 76.1854C51.8455 77.3623 51.2285 77.9741 49.947 77.9741H49.1875V79.9038H47.9053V74.3499H47.906ZM49.6619 76.9382C50.2314 76.9382 50.564 76.7979 50.564 76.1854C50.564 75.5736 50.2314 75.3852 49.6619 75.3852H49.1868V76.9382H49.6619ZM52.6526 74.3499H56.3559V75.3852H53.9348V76.5621H55.5489V77.5974H53.9348V78.8685H56.4509V79.9038H52.6526V74.3499ZM57.4005 74.3499H59.2522C60.5337 74.3499 61.7209 74.9143 61.7209 77.1265C61.7209 79.3387 60.5337 79.9038 59.2515 79.9038H57.4005V74.3499ZM59.0146 78.8685C59.8692 78.8685 60.4387 78.6327 60.4387 77.1265C60.4387 75.6203 59.8692 75.3852 59.0146 75.3852H58.6345V78.8685H59.0146ZM62.0528 79.7629L63.8094 74.3499H65.2817L67.0376 79.7629V79.9038H65.7561L65.4235 78.7269H63.5719L63.2399 79.9038H62.0528V79.7629ZM65.0909 77.739L64.4739 75.6677L63.9045 77.7384H65.0916L65.0909 77.739ZM67.7972 74.3499H69.0794V78.8211H71.2629V79.9038H67.7972V74.3499ZM72.0225 74.3499H73.3047V79.9038H72.0225V74.3499ZM76.3428 78.586C76.7642 78.8219 77.237 78.9512 77.72 78.9627C78.1945 78.9627 78.4796 78.8211 78.4796 78.4444C78.4796 78.0683 78.2895 77.9741 77.9576 77.8325L77.3399 77.5974C76.9776 77.5031 76.6581 77.2888 76.4337 76.9895C76.2094 76.6903 76.0936 76.3238 76.1052 75.9503C76.1052 74.8676 76.9123 74.2557 77.9569 74.2557C78.5341 74.2359 79.1066 74.3657 79.6185 74.6324L79.2866 75.621C78.8851 75.4279 78.4494 75.3158 78.0044 75.291C77.625 75.291 77.3874 75.432 77.3874 75.8087C77.3874 76.1854 77.5775 76.2796 77.9569 76.4679L78.7165 76.7505C79.0498 76.8346 79.3444 77.0297 79.5517 77.3035C79.7589 77.5774 79.8663 77.9136 79.8561 78.2567C79.8561 79.3855 79.0015 79.998 77.7669 79.998C77.1485 80.0112 76.5393 79.8479 76.0109 79.5271L76.3428 78.5853V78.586ZM80.3306 74.4908V74.3499H81.6602L82.7992 78.3509L83.9389 74.3499H85.221V74.4908L83.5119 79.9038H82.0397L80.3306 74.4908ZM86.0281 74.3499H87.2621V79.9038H86.0281V74.3499ZM88.2117 79.1036L90.4903 75.3852H88.2592V74.3499H92.1044V75.2443L89.7783 78.8685H92.1994V79.9038H88.2117V79.1036ZM92.8171 79.1036L95.0957 75.3852H92.8639V74.3499H96.7098V75.2443L94.3837 78.8685H96.8048V79.9038H92.8164L92.8171 79.1036ZM97.6594 74.3499H101.362V75.3852H98.9409V76.5621H100.555V77.5974H98.9409V78.8685H101.457V79.9038H97.6594V74.3499ZM102.407 74.3499H104.401C105.682 74.3499 106.299 75.0085 106.299 76.1386C106.336 76.4603 106.274 76.7855 106.121 77.0712C105.969 77.3569 105.733 77.5895 105.445 77.7384L106.727 79.7622V79.9038H105.35L104.258 77.9267H103.641V79.9038H102.407V74.3499ZM104.116 76.9382C104.685 76.9382 105.018 76.7979 105.018 76.1386C105.018 75.4794 104.685 75.3852 104.116 75.3852H103.641V76.9382H104.116ZM107.534 74.3499H108.768V79.9038H107.534V74.3499Z" fill="#5D6589"/>
<path d="M0.145508 0V40.6106H10.8038V25.405H24.5966V40.6106H35.2549V0H24.5966V14.7374H10.8038V0H0.145508ZM80.1312 14.738H65.0301V0H54.3183V14.738H39.1697V25.4057H54.3183V40.6119H65.0301V25.4057H80.1312V14.738Z" fill="#005693"/>
</svg>
