<svg width="170" height="60" viewBox="0 0 170 60" fill="none" xmlns="http://www.w3.org/2000/svg">
<path d="M128.788 22.6096V45.2256H141.26C148.122 45.2256 153.732 45.2 153.732 45.1744C153.732 45.1424 154.397 45.0977 155.216 45.0785C156.028 45.0529 156.712 45.0081 156.731 44.9761C156.751 44.9506 157.077 44.8994 157.46 44.8738C157.838 44.8482 158.145 44.8035 158.145 44.7715C158.145 44.7395 158.273 44.7139 158.433 44.7139C158.593 44.7139 158.72 44.6883 158.72 44.6563C158.72 44.6308 158.925 44.5796 159.168 44.5604C159.418 44.5348 159.616 44.4901 159.616 44.4645C159.616 44.4325 159.776 44.3877 159.968 44.3621C160.16 44.3429 160.319 44.2982 160.319 44.2662C160.319 44.2406 160.479 44.1958 160.671 44.1703C160.863 44.1511 161.023 44.1063 161.023 44.0743C161.023 44.0487 161.125 44.004 161.247 43.9848C161.368 43.9592 161.471 43.9144 161.471 43.8824C161.471 43.8569 161.618 43.8121 161.791 43.7865C161.97 43.7609 162.11 43.7161 162.11 43.6842C162.11 43.6522 162.155 43.6266 162.206 43.6266C162.257 43.6266 162.302 43.601 162.302 43.569C162.302 43.5371 162.392 43.4923 162.494 43.4667C162.603 43.4411 162.686 43.4027 162.686 43.3708C162.686 43.3388 162.775 43.3004 162.878 43.2748C162.987 43.2492 163.07 43.2109 163.07 43.1789C163.07 43.1469 163.159 43.1085 163.262 43.083C163.37 43.0574 163.453 43.0126 163.453 42.9806C163.453 42.9486 163.511 42.9231 163.581 42.9231C163.652 42.9231 163.728 42.8783 163.748 42.8271C163.773 42.7759 163.824 42.7312 163.876 42.7312C163.927 42.7312 163.965 42.7056 163.965 42.6672C163.965 42.6352 164.035 42.5905 164.119 42.5649C164.208 42.5457 164.291 42.4881 164.311 42.437C164.33 42.3858 164.387 42.3474 164.445 42.3474C164.502 42.3474 164.611 42.2771 164.694 42.1875C164.777 42.098 164.861 42.0276 164.886 42.0276C164.95 42.0276 166.587 40.3775 166.587 40.3199C166.587 40.2879 166.645 40.2176 166.715 40.1536C166.786 40.0961 166.843 40.0001 166.843 39.949C166.843 39.8978 166.869 39.853 166.907 39.853C166.939 39.853 166.984 39.7827 167.01 39.6995C167.029 39.61 167.086 39.5268 167.138 39.5076C167.189 39.4884 167.227 39.4373 167.227 39.3925C167.227 39.3413 167.285 39.2646 167.355 39.2134C167.419 39.1623 167.496 39.0407 167.515 38.9448C167.54 38.8489 167.579 38.7657 167.611 38.7657C167.643 38.7657 167.681 38.6762 167.707 38.5738C167.732 38.4651 167.771 38.382 167.803 38.382C167.828 38.382 167.873 38.2796 167.892 38.1581C167.918 38.0366 167.963 37.9342 167.988 37.9342C168.02 37.9342 168.065 37.8319 168.084 37.7104C168.11 37.5889 168.154 37.4865 168.186 37.4865C168.225 37.4865 168.25 37.4162 168.25 37.3266C168.25 37.2371 168.276 37.1667 168.314 37.1667C168.346 37.1667 168.398 37.0516 168.417 36.9109C168.442 36.7702 168.481 36.6551 168.506 36.6551C168.532 36.6551 168.577 36.4952 168.602 36.3033C168.621 36.1114 168.666 35.9515 168.698 35.9515C168.724 35.9515 168.768 35.7788 168.794 35.5678C168.82 35.3567 168.864 35.184 168.89 35.184C168.922 35.184 168.96 34.941 168.986 34.6403C169.012 34.3397 169.056 34.0967 169.088 34.0967C169.12 34.0967 169.146 33.9432 169.146 33.7513C169.146 33.5275 169.178 33.3931 169.229 33.3803C169.287 33.3548 169.306 31.1482 169.306 22.616C169.306 14.0839 169.287 11.8773 169.229 11.8581C169.178 11.8389 169.146 11.7046 169.146 11.4807C169.146 11.2888 169.12 11.1353 169.088 11.1353C169.063 11.1353 169.018 10.8987 168.992 10.6109C168.967 10.3231 168.922 10.0672 168.896 10.048C168.864 10.0289 168.82 9.83698 168.794 9.61312C168.768 9.39566 168.724 9.21657 168.698 9.21657C168.666 9.21657 168.621 9.08865 168.596 8.92875C168.577 8.76886 168.532 8.64094 168.506 8.64094C168.481 8.64094 168.436 8.51302 168.417 8.35312C168.391 8.19323 168.346 8.06531 168.308 8.06531C168.276 8.06531 168.25 7.99495 168.25 7.90541C168.25 7.81586 168.225 7.74551 168.186 7.74551C168.154 7.74551 168.103 7.63038 168.084 7.48967C168.059 7.34896 168.02 7.23384 167.995 7.23384C167.963 7.23384 167.924 7.14429 167.899 7.04196C167.873 6.93323 167.835 6.85008 167.803 6.85008C167.771 6.85008 167.732 6.76054 167.707 6.6582C167.681 6.54947 167.643 6.46633 167.611 6.46633C167.585 6.46633 167.54 6.39597 167.521 6.30643C167.496 6.21688 167.451 6.14653 167.419 6.14653C167.381 6.14653 167.355 6.10176 167.355 6.05059C167.355 5.99942 167.329 5.95465 167.297 5.95465C167.265 5.95465 167.221 5.8843 167.201 5.79475C167.176 5.70521 167.131 5.63486 167.099 5.63486C167.061 5.63486 167.035 5.59008 167.035 5.53892C167.035 5.48135 166.99 5.42379 166.939 5.40461C166.888 5.37902 166.843 5.32785 166.843 5.28308C166.843 5.24471 166.786 5.14237 166.715 5.05922C166.645 4.97608 166.587 4.88014 166.587 4.84176C166.581 4.80339 166.511 4.71384 166.421 4.64349C166.332 4.57314 166.178 4.43882 166.089 4.33649C165.807 4.04867 165.385 3.63293 165.18 3.44106C165.078 3.33872 164.988 3.23639 164.988 3.19801C164.988 3.16603 164.944 3.14045 164.893 3.14045C164.841 3.14045 164.745 3.08289 164.688 3.01253C164.624 2.94218 164.528 2.88461 164.47 2.88461C164.413 2.88461 164.349 2.83984 164.323 2.78867C164.304 2.73751 164.247 2.69273 164.189 2.69273C164.138 2.69273 164.093 2.66715 164.093 2.62878C164.093 2.5968 164.023 2.55202 163.933 2.52644C163.85 2.50726 163.76 2.4369 163.741 2.37294C163.722 2.30259 163.613 2.23862 163.485 2.21944C163.364 2.19386 163.262 2.14908 163.262 2.1171C163.262 2.09152 163.178 2.04675 163.07 2.02116C162.967 1.99558 162.878 1.95721 162.878 1.92522C162.878 1.89325 162.795 1.85487 162.686 1.82928C162.584 1.8037 162.494 1.75893 162.494 1.72695C162.494 1.69497 162.379 1.6502 162.238 1.63101C162.098 1.60543 161.982 1.56705 161.982 1.53508C161.982 1.50309 161.938 1.47751 161.886 1.47751C161.835 1.47751 161.791 1.45193 161.791 1.41995C161.791 1.38797 161.675 1.34959 161.535 1.32401C161.394 1.30482 161.279 1.26005 161.279 1.22168C161.279 1.18969 161.151 1.14492 160.991 1.11934C160.831 1.10015 160.703 1.05538 160.703 1.0298C160.703 1.00421 160.543 0.959442 160.351 0.933857C160.16 0.914669 160 0.8699 160 0.837921C160 0.805939 159.808 0.761169 159.571 0.735584C159.328 0.716396 159.123 0.671627 159.104 0.639645C159.085 0.607666 158.861 0.56929 158.605 0.543709C158.35 0.518124 158.145 0.473351 158.145 0.447769C158.145 0.415791 158.004 0.390205 157.831 0.390205C157.659 0.390205 157.505 0.36462 157.492 0.332642C157.486 0.294266 157.07 0.249496 156.578 0.223911C156.041 0.198326 155.663 0.153557 155.638 0.108784C155.606 0.0576172 151.883 0.032032 142.187 0.0192413L128.788 5.34058e-05V22.6096ZM149.063 9.66428C149.063 9.69627 149.223 9.72824 149.414 9.72824C149.606 9.72824 149.766 9.75383 149.766 9.78581C149.766 9.81779 149.926 9.86256 150.118 9.88814C150.31 9.90733 150.47 9.9521 150.47 9.98408C150.47 10.0161 150.559 10.0544 150.662 10.08C150.77 10.1056 150.854 10.1504 150.854 10.1824C150.854 10.2143 150.892 10.2399 150.943 10.2399C151.045 10.2399 151.429 10.5981 151.429 10.6876C151.429 10.7196 151.487 10.758 151.551 10.7836C151.615 10.8028 151.691 10.8923 151.711 10.9754C151.736 11.065 151.775 11.1353 151.806 11.1353C151.838 11.1353 151.883 11.2185 151.909 11.3272C151.934 11.4296 151.973 11.5191 152.005 11.5191C152.03 11.5191 152.069 11.6406 152.094 11.7877C152.12 11.9348 152.165 12.0755 152.197 12.0947C152.229 12.1139 152.28 12.5105 152.299 12.9774C152.325 13.4443 152.369 13.8216 152.401 13.8216C152.427 13.8216 152.452 17.7807 152.452 22.616C152.452 27.4513 152.427 31.4104 152.401 31.4104C152.369 31.4104 152.325 31.775 152.305 32.2227C152.28 32.6704 152.235 33.0478 152.203 33.0669C152.171 33.0861 152.126 33.2396 152.101 33.4059C152.075 33.5786 152.03 33.7129 152.005 33.7129C151.973 33.7129 151.934 33.7961 151.909 33.9048C151.883 34.0071 151.838 34.0967 151.806 34.0967C151.775 34.0967 151.749 34.1287 151.749 34.167C151.749 34.2886 151.007 34.9857 150.828 35.0305C150.738 35.0497 150.662 35.0945 150.662 35.1264C150.662 35.1584 150.547 35.2032 150.406 35.2224C150.265 35.248 150.15 35.2863 150.15 35.3183C150.15 35.3503 150.067 35.3759 149.964 35.3759C149.862 35.3759 149.766 35.4142 149.753 35.4526C149.728 35.5166 149.229 35.5422 147.604 35.5614L145.481 35.5805V22.5904V9.60033H147.272C148.423 9.60033 149.063 9.62591 149.063 9.66428Z" fill="#B1BED3"/>
<path d="M0.165527 22.584V45.0977H8.6721H17.1787V36.5591V28.0206H20.5685H23.9583V36.5591V45.0977H32.4329H40.9075V22.584V0.0704002H32.4329H23.9583V7.52164V14.9729H20.5685H17.1787V7.52164V0.0704002H8.6721H0.165527V22.584Z" fill="#B1BED3"/>
<path d="M43.2104 22.584V45.0977H60.7033H78.1961V39.789V34.4804H69.2099H60.2236V30.8028V27.1251H68.4743H76.7251V22.3602V17.5952H68.4743H60.2236V14.1734V10.7516H69.2099H78.1961V5.41099V0.0704002H60.7033H43.2104V22.584Z" fill="#B1BED3"/>
<path d="M91.6662 0.211113C91.6471 0.294258 91.6279 0.434967 91.6279 0.530907C91.6279 0.633244 91.6023 0.709991 91.5703 0.709991C91.5383 0.709991 91.4936 0.882683 91.468 1.09375C91.4424 1.30481 91.3976 1.4775 91.372 1.4775C91.3401 1.4775 91.2953 1.6374 91.2761 1.82928C91.2505 2.02116 91.2057 2.18105 91.1802 2.18105C91.1546 2.18105 91.1098 2.35374 91.0842 2.56481C91.0586 2.77588 91.0139 2.94856 90.9819 2.94856C90.9499 2.94856 90.9243 3.0509 90.9243 3.17242C90.9243 3.29394 90.8987 3.39628 90.8604 3.39628C90.8284 3.39628 90.7836 3.53699 90.758 3.71607C90.7324 3.88876 90.6941 4.03587 90.6685 4.03587C90.6429 4.03587 90.5981 4.22135 90.5725 4.4516C90.5534 4.68186 90.5086 4.86734 90.4766 4.86734C90.451 4.86734 90.4062 5.02724 90.3807 5.21911C90.3615 5.41099 90.3167 5.57089 90.2847 5.57089C90.2591 5.57089 90.2144 5.74358 90.1888 5.95464C90.1632 6.16571 90.1184 6.3384 90.0865 6.3384C90.0545 6.3384 90.0289 6.42155 90.0289 6.53028C90.0289 6.63261 90.0033 6.72216 89.9713 6.72216C89.9457 6.72216 89.901 6.86926 89.8818 7.05474C89.8562 7.23383 89.8114 7.40012 89.7794 7.41931C89.7475 7.4385 89.7027 7.63677 89.6771 7.85423C89.6515 8.07809 89.6068 8.25718 89.5812 8.25718C89.5556 8.25718 89.5108 8.42986 89.4852 8.64093C89.4597 8.85199 89.4149 9.02468 89.3893 9.02468C89.3573 9.02468 89.3125 9.18458 89.2934 9.37646C89.2678 9.56834 89.223 9.72824 89.191 9.72824C89.159 9.72824 89.1335 9.81138 89.1335 9.92011C89.1335 10.0224 89.1079 10.112 89.0759 10.112C89.0439 10.112 88.9991 10.2911 88.9736 10.5085C88.948 10.7324 88.9032 10.9307 88.8712 10.9499C88.8392 10.969 88.7945 11.1353 88.7689 11.3144C88.7497 11.4999 88.7113 11.647 88.6857 11.647C88.6538 11.647 88.6154 11.8197 88.5898 12.0308C88.5642 12.2418 88.5195 12.4145 88.4939 12.4145C88.4683 12.4145 88.4235 12.5744 88.3979 12.7663C88.3787 12.9582 88.3276 13.1181 88.2956 13.1181C88.2636 13.1181 88.238 13.2012 88.238 13.3099C88.238 13.4123 88.2124 13.5018 88.1805 13.5018C88.1485 13.5018 88.0973 13.6873 88.0781 13.9176C88.0526 14.1478 88.0078 14.3333 87.9822 14.3333C87.9502 14.3333 87.9118 14.506 87.8863 14.7171C87.8607 14.9281 87.8159 15.1008 87.7903 15.1008C87.7583 15.1008 87.7136 15.2607 87.6944 15.4526C87.6688 15.6445 87.624 15.8044 87.5984 15.8044C87.5729 15.8044 87.5281 15.977 87.5025 16.1881C87.4769 16.3992 87.4321 16.5719 87.4066 16.5719C87.381 16.5719 87.3362 16.7318 87.3106 16.9236C87.2914 17.1155 87.2403 17.2754 87.2083 17.2754C87.1763 17.2754 87.1507 17.3586 87.1507 17.4673C87.1507 17.5696 87.1251 17.6592 87.0932 17.6592C87.0612 17.6592 87.0164 17.8447 86.9908 18.0749C86.9716 18.3052 86.9269 18.4906 86.8949 18.4906C86.8693 18.4906 86.8245 18.6505 86.799 18.8424C86.7798 19.0343 86.735 19.1942 86.703 19.1942C86.6774 19.1942 86.6327 19.3669 86.6071 19.5779C86.5815 19.789 86.5367 19.9617 86.5111 19.9617C86.4792 19.9617 86.4344 20.1472 86.4152 20.3774C86.3896 20.6077 86.3448 20.7932 86.3129 20.7932C86.2809 20.7932 86.2553 20.8507 86.2553 20.9211C86.2553 20.9914 86.2297 21.049 86.1977 21.049C86.1658 21.049 86.1146 21.2345 86.0954 21.4647C86.0698 21.695 86.025 21.8805 85.9995 21.8805C85.9675 21.8805 85.9291 22.0532 85.9035 22.2642C85.8779 22.4753 85.8332 22.648 85.8076 22.648C85.7756 22.648 85.7308 22.8079 85.7116 22.9998C85.6861 23.1916 85.6413 23.3515 85.6157 23.3515C85.5901 23.3515 85.5454 23.5242 85.5198 23.7353C85.4942 23.9464 85.4494 24.119 85.4174 24.119C85.3855 24.119 85.3599 24.2214 85.3599 24.3429C85.3599 24.4644 85.3343 24.5668 85.2959 24.5668C85.2639 24.5668 85.2192 24.7075 85.1936 24.8866C85.168 25.0592 85.1296 25.2064 85.104 25.2064C85.0784 25.2064 85.0337 25.3918 85.0081 25.6221C84.9889 25.8523 84.9441 26.0378 84.9122 26.0378C84.8866 26.0378 84.8418 26.1977 84.8162 26.3896C84.797 26.5815 84.7523 26.7414 84.7203 26.7414C84.6947 26.7414 84.6499 26.9141 84.6243 27.1251C84.5988 27.3362 84.554 27.5089 84.522 27.5089C84.49 27.5089 84.4644 27.592 84.4644 27.7008C84.4644 27.8031 84.4389 27.8926 84.4069 27.8926C84.3813 27.8926 84.3365 28.0397 84.3173 28.2252C84.2918 28.4043 84.247 28.5706 84.215 28.5898C84.183 28.609 84.1382 28.8073 84.1127 29.0247C84.0871 29.2486 84.0423 29.4277 84.0167 29.4277C83.9911 29.4277 83.9464 29.6003 83.9208 29.8114C83.8952 30.0225 83.8504 30.1952 83.8248 30.1952C83.7929 30.1952 83.7481 30.3551 83.7289 30.5469C83.7033 30.7388 83.6586 30.8987 83.6266 30.8987C83.5946 30.8987 83.569 30.9819 83.569 31.0906C83.569 31.1929 83.5434 31.2825 83.5114 31.2825C83.4795 31.2825 83.4283 31.468 83.4091 31.6982C83.3835 31.9285 83.3388 32.1139 83.3132 32.1139C83.2876 32.1139 83.2428 32.2738 83.2172 32.4657C83.198 32.6576 83.1533 32.8175 83.1213 32.8175C83.0957 32.8175 83.0509 32.9902 83.0254 33.2013C82.9998 33.4123 82.955 33.585 82.9294 33.585C82.9038 33.585 82.8591 33.7577 82.8335 33.9688C82.8079 34.1798 82.7631 34.3525 82.7311 34.3525C82.6992 34.3525 82.6736 34.4229 82.6736 34.5124C82.6736 34.602 82.648 34.6723 82.616 34.6723C82.584 34.6723 82.5329 34.8578 82.5137 35.088C82.4881 35.3183 82.4433 35.5038 82.4177 35.5038C82.3858 35.5038 82.3474 35.6765 82.3218 35.8875C82.2962 36.0986 82.2515 36.2713 82.2259 36.2713C82.1939 36.2713 82.1491 36.4312 82.1299 36.6231C82.1043 36.8149 82.0596 36.9748 82.034 36.9748C82.0084 36.9748 81.9636 37.1475 81.9381 37.3586C81.9125 37.5697 81.8677 37.7424 81.8357 37.7424C81.8037 37.7424 81.7782 37.8255 81.7782 37.9342C81.7782 38.0366 81.7526 38.1261 81.7206 38.1261C81.6886 38.1261 81.6374 38.286 81.6183 38.4779C81.5927 38.6698 81.5479 38.8297 81.5223 38.8297C81.4967 38.8297 81.452 39.0151 81.4264 39.2454C81.4072 39.4756 81.3624 39.6611 81.3304 39.6611C81.3049 39.6611 81.2601 39.821 81.2345 40.0129C81.2153 40.2048 81.1705 40.3647 81.1386 40.3647C81.113 40.3647 81.0682 40.5374 81.0426 40.7484C81.017 40.9595 80.9723 41.1322 80.9403 41.1322C80.9083 41.1322 80.8827 41.2153 80.8827 41.3241C80.8827 41.4264 80.8571 41.5159 80.8252 41.5159C80.7996 41.5159 80.7548 41.663 80.7356 41.8485C80.71 42.0276 80.6653 42.1939 80.6333 42.2131C80.6013 42.2387 80.5501 42.4306 80.5246 42.6544C80.5054 42.8719 80.4606 43.051 80.435 43.051C80.403 43.051 80.3647 43.2237 80.3391 43.4347C80.3135 43.6458 80.2687 43.8185 80.2431 43.8185C80.2176 43.8185 80.1728 43.972 80.1472 44.1511C80.1216 44.3365 80.0768 44.5028 80.0513 44.522C80.0257 44.5412 79.9873 44.6755 79.9617 44.8226L79.9233 45.0977H88.6346C93.4315 45.0977 97.3842 45.0721 97.429 45.0465C97.4673 45.0209 97.5185 44.7651 97.5441 44.4709C97.5697 44.183 97.6144 43.9464 97.64 43.9464C97.6656 43.9464 97.704 43.7097 97.7296 43.4219C97.7552 43.1341 97.7999 42.8783 97.8255 42.8591C97.8575 42.8399 97.9023 42.5777 97.9278 42.2643C97.9534 41.9573 97.9918 41.7078 98.0238 41.7078C98.0494 41.7078 98.0941 41.452 98.1197 41.1322C98.1453 40.8188 98.1901 40.5566 98.2221 40.5566C98.254 40.5566 98.2796 40.4414 98.2796 40.3007C98.2796 40.16 98.3052 40.0449 98.3372 40.0449C98.3692 40.0449 98.4139 39.8018 98.4395 39.5012C98.4651 39.2006 98.5099 38.9576 98.5419 38.9576C98.5738 38.9576 98.5994 38.8616 98.5994 38.7465C98.5994 38.6378 98.6186 38.4331 98.6378 38.3052L98.6826 38.0621H103.339H108.001V38.254C108.001 38.3564 108.027 38.4459 108.059 38.4459C108.091 38.4459 108.136 38.6889 108.161 38.9896C108.187 39.2902 108.232 39.5332 108.264 39.5332C108.296 39.5332 108.321 39.6739 108.321 39.8466C108.321 40.0193 108.347 40.1728 108.379 40.1856C108.417 40.192 108.462 40.435 108.488 40.7165C108.513 40.9979 108.558 41.2409 108.583 41.2601C108.615 41.2793 108.654 41.5351 108.679 41.8229C108.705 42.1108 108.743 42.3474 108.769 42.3474C108.795 42.3474 108.839 42.5905 108.865 42.8911C108.89 43.1917 108.929 43.4347 108.961 43.4347C108.986 43.4347 109.031 43.6778 109.057 43.9784C109.082 44.279 109.127 44.522 109.159 44.522C109.191 44.522 109.217 44.6499 109.217 44.8098V45.0977H117.915H126.614V44.9058C126.614 44.797 126.588 44.7139 126.556 44.7139C126.524 44.7139 126.479 44.5412 126.454 44.3301C126.428 44.1191 126.39 43.9464 126.358 43.9464C126.332 43.9464 126.287 43.7609 126.262 43.5307C126.243 43.3004 126.198 43.1149 126.166 43.1149C126.14 43.1149 126.095 42.9422 126.07 42.7312C126.044 42.5201 126 42.3474 125.968 42.3474C125.936 42.3474 125.91 42.2579 125.91 42.1555C125.91 42.0468 125.884 41.9637 125.852 41.9637C125.82 41.9637 125.769 41.8038 125.75 41.6119C125.725 41.42 125.68 41.2601 125.654 41.2601C125.629 41.2601 125.584 41.0746 125.558 40.8444C125.539 40.6141 125.494 40.4286 125.462 40.4286C125.437 40.4286 125.392 40.2559 125.366 40.0449C125.341 39.8338 125.296 39.6611 125.27 39.6611C125.238 39.6611 125.194 39.4756 125.174 39.2454C125.149 39.0151 125.104 38.8297 125.072 38.8297C125.04 38.8297 125.015 38.7401 125.015 38.6378C125.015 38.529 124.989 38.4459 124.957 38.4459C124.925 38.4459 124.874 38.286 124.855 38.0941C124.829 37.9022 124.784 37.7424 124.759 37.7424C124.733 37.7424 124.688 37.5697 124.663 37.3586C124.637 37.1475 124.592 36.9748 124.567 36.9748C124.535 36.9748 124.49 36.7894 124.471 36.5591C124.445 36.3289 124.401 36.1434 124.375 36.1434C124.343 36.1434 124.305 35.9707 124.279 35.7596C124.253 35.5486 124.209 35.3759 124.177 35.3759C124.145 35.3759 124.119 35.2863 124.119 35.184C124.119 35.0753 124.094 34.9921 124.062 34.9921C124.03 34.9921 123.978 34.8322 123.959 34.6403C123.934 34.4485 123.889 34.2886 123.863 34.2886C123.831 34.2886 123.787 34.1031 123.767 33.8728C123.742 33.6426 123.697 33.4571 123.671 33.4571C123.639 33.4571 123.601 33.2844 123.575 33.0733C123.55 32.8623 123.505 32.6896 123.48 32.6896C123.454 32.6896 123.409 32.5169 123.384 32.3058C123.358 32.0948 123.32 31.9221 123.288 31.9221C123.262 31.9221 123.224 31.7686 123.205 31.5895C123.179 31.404 123.134 31.2441 123.096 31.2313C123.064 31.2185 123.032 31.1098 123.032 30.9883C123.032 30.8667 123.006 30.7708 122.974 30.7708C122.942 30.7708 122.898 30.5981 122.872 30.387C122.846 30.176 122.802 30.0033 122.776 30.0033C122.75 30.0033 122.706 29.8306 122.68 29.6195C122.654 29.4085 122.616 29.2358 122.584 29.2358C122.559 29.2358 122.514 29.0567 122.495 28.8392C122.469 28.6154 122.418 28.4235 122.386 28.3979C122.354 28.3787 122.309 28.2124 122.283 28.0333C122.264 27.8479 122.22 27.7008 122.194 27.7008C122.162 27.7008 122.136 27.6112 122.136 27.5089C122.136 27.4002 122.111 27.317 122.079 27.317C122.047 27.317 122.002 27.1443 121.976 26.9333C121.951 26.7222 121.913 26.5495 121.881 26.5495C121.855 26.5495 121.81 26.364 121.785 26.1338C121.765 25.9035 121.721 25.718 121.689 25.718C121.663 25.718 121.618 25.5453 121.593 25.3343C121.567 25.1232 121.522 24.9505 121.497 24.9505C121.465 24.9505 121.42 24.7906 121.401 24.5987C121.375 24.4069 121.331 24.247 121.299 24.247C121.267 24.247 121.241 24.1574 121.241 24.0551C121.241 23.9464 121.215 23.8632 121.183 23.8632C121.151 23.8632 121.107 23.6777 121.081 23.4475C121.062 23.2172 121.017 23.0317 120.985 23.0317C120.96 23.0317 120.915 22.8591 120.889 22.648C120.864 22.4369 120.819 22.2642 120.793 22.2642C120.761 22.2642 120.716 22.0788 120.697 21.8485C120.672 21.6182 120.627 21.4328 120.595 21.4328C120.569 21.4328 120.525 21.2857 120.499 21.113C120.473 20.9339 120.435 20.7932 120.403 20.7932C120.371 20.7932 120.346 20.6908 120.346 20.5693C120.346 20.4478 120.32 20.3455 120.288 20.3455C120.256 20.3455 120.211 20.1728 120.186 19.9617C120.16 19.7506 120.115 19.5779 120.09 19.5779C120.058 19.5779 120.013 19.3925 119.994 19.1622C119.968 18.932 119.923 18.7465 119.898 18.7465C119.866 18.7465 119.827 18.5738 119.802 18.3627C119.776 18.1517 119.732 17.979 119.706 17.979C119.674 17.979 119.629 17.8191 119.61 17.6272C119.584 17.4353 119.54 17.2754 119.508 17.2754C119.476 17.2754 119.45 17.1859 119.45 17.0835C119.45 16.9748 119.425 16.8917 119.393 16.8917C119.361 16.8917 119.309 16.7062 119.29 16.4759C119.265 16.2457 119.22 16.0602 119.194 16.0602C119.162 16.0602 119.124 15.8875 119.098 15.6764C119.073 15.4654 119.028 15.2927 119.002 15.2927C118.977 15.2927 118.932 15.12 118.906 14.9089C118.881 14.6979 118.836 14.5252 118.811 14.5252C118.779 14.5252 118.734 14.3653 118.715 14.1734C118.689 13.9815 118.644 13.8216 118.612 13.8216C118.58 13.8216 118.555 13.7321 118.555 13.6297C118.555 13.521 118.529 13.4379 118.497 13.4379C118.465 13.4379 118.42 13.2524 118.395 13.0221C118.376 12.7919 118.331 12.6064 118.299 12.6064C118.273 12.6064 118.228 12.4337 118.203 12.2226C118.177 12.0116 118.139 11.8389 118.107 11.8389C118.081 11.8389 118.037 11.6598 118.017 11.4423C117.992 11.2185 117.941 11.0266 117.909 11.001C117.877 10.9818 117.832 10.8155 117.806 10.6365C117.787 10.451 117.742 10.3039 117.717 10.3039C117.685 10.3039 117.659 10.2143 117.659 10.112C117.659 10.0033 117.634 9.92011 117.602 9.92011C117.57 9.92011 117.525 9.74743 117.499 9.53636C117.474 9.32529 117.435 9.1526 117.403 9.1526C117.378 9.1526 117.333 8.96712 117.307 8.73687C117.288 8.50661 117.244 8.32113 117.212 8.32113C117.186 8.32113 117.141 8.14845 117.116 7.93738C117.09 7.72631 117.045 7.55362 117.02 7.55362C116.988 7.55362 116.943 7.39373 116.924 7.20185C116.898 7.00997 116.853 6.85007 116.821 6.85007C116.789 6.85007 116.764 6.76053 116.764 6.6582C116.764 6.54947 116.738 6.46632 116.706 6.46632C116.674 6.46632 116.623 6.28084 116.604 6.05058C116.578 5.82033 116.534 5.63485 116.508 5.63485C116.476 5.63485 116.438 5.46216 116.412 5.25109C116.386 5.04003 116.342 4.86734 116.316 4.86734C116.291 4.86734 116.246 4.70744 116.22 4.51556C116.201 4.32368 116.156 4.16379 116.124 4.16379C116.099 4.16379 116.054 3.9911 116.028 3.78003C116.003 3.56897 115.964 3.39628 115.932 3.39628C115.907 3.39628 115.862 3.2108 115.836 2.98055C115.817 2.75029 115.766 2.56481 115.734 2.56481C115.702 2.56481 115.677 2.47527 115.677 2.37293C115.677 2.2642 115.651 2.18105 115.619 2.18105C115.587 2.18105 115.536 1.99557 115.517 1.76532C115.491 1.53506 115.446 1.34958 115.421 1.34958C115.395 1.34958 115.357 1.20248 115.331 1.02979C115.306 0.850704 115.261 0.709991 115.229 0.709991C115.19 0.709991 115.165 0.633244 115.165 0.530907C115.165 0.434967 115.146 0.294258 115.126 0.211113L115.088 0.0704002H103.396H91.7046L91.6662 0.211113ZM103.678 8.39788C103.697 8.48103 103.716 8.67931 103.716 8.8456C103.716 9.01829 103.748 9.1526 103.78 9.1526C103.818 9.1526 103.844 9.3125 103.844 9.50438C103.844 9.69625 103.87 9.85616 103.902 9.85616C103.934 9.85616 103.985 10.144 104.004 10.4957C104.03 10.8475 104.074 11.1353 104.1 11.1353C104.125 11.1353 104.17 11.4232 104.196 11.7749C104.215 12.1267 104.26 12.4145 104.292 12.4145C104.317 12.4145 104.362 12.7279 104.388 13.1181C104.413 13.5018 104.458 13.8216 104.484 13.8216C104.516 13.8216 104.56 14.1094 104.58 14.4612C104.605 14.813 104.65 15.1008 104.682 15.1008C104.714 15.1008 104.739 15.2607 104.739 15.4526C104.739 15.6445 104.765 15.8044 104.797 15.8044C104.829 15.8044 104.88 16.0922 104.899 16.4439C104.925 16.7957 104.97 17.0835 104.995 17.0835C105.021 17.0835 105.066 17.3969 105.091 17.7871C105.117 18.1708 105.162 18.4906 105.187 18.4906C105.219 18.4906 105.264 18.7785 105.283 19.1302C105.309 19.482 105.354 19.7698 105.379 19.7698C105.405 19.7698 105.449 20.0576 105.475 20.4094C105.494 20.7612 105.545 21.049 105.577 21.049C105.609 21.049 105.635 21.2089 105.635 21.4008C105.635 21.5927 105.661 21.7526 105.692 21.7526C105.724 21.7526 105.769 22.0404 105.795 22.3922C105.814 22.7439 105.859 23.0317 105.891 23.0317C105.916 23.0317 105.961 23.3451 105.987 23.7353C106.012 24.119 106.057 24.4388 106.083 24.4388C106.115 24.4388 106.159 24.7267 106.179 25.0784C106.204 25.4302 106.249 25.718 106.275 25.718C106.3 25.718 106.345 26.0314 106.37 26.4216C106.396 26.8053 106.441 27.1251 106.473 27.1251C106.505 27.1251 106.53 27.253 106.53 27.4129C106.53 27.5728 106.556 27.7008 106.588 27.7008C106.62 27.7008 106.665 28.0142 106.69 28.4043C106.716 28.7881 106.761 29.1079 106.793 29.1079C106.825 29.1079 106.85 29.1782 106.85 29.2678V29.4277H103.46H100.07V29.2678C100.07 29.1782 100.096 29.1079 100.128 29.1079C100.16 29.1079 100.211 28.82 100.23 28.4683C100.256 28.1165 100.301 27.8287 100.326 27.8287C100.358 27.8287 100.397 27.5537 100.422 27.2211C100.448 26.8885 100.493 26.6135 100.518 26.6135C100.544 26.6135 100.589 26.3512 100.614 26.0378C100.64 25.718 100.684 25.4622 100.71 25.4622C100.736 25.4622 100.78 25.1872 100.806 24.8546C100.832 24.522 100.876 24.247 100.908 24.247C100.94 24.247 100.966 24.119 100.966 23.9592C100.966 23.7993 100.991 23.6713 101.023 23.6713C101.055 23.6713 101.1 23.3963 101.126 23.0637C101.151 22.7311 101.196 22.4561 101.222 22.4561C101.247 22.4561 101.292 22.1811 101.318 21.8485C101.343 21.5159 101.388 21.2409 101.414 21.2409C101.439 21.2409 101.484 20.9531 101.51 20.6013C101.529 20.2495 101.574 19.9617 101.605 19.9617C101.631 19.9617 101.676 19.6867 101.701 19.3541C101.727 19.0215 101.772 18.7465 101.804 18.7465C101.836 18.7465 101.861 18.6186 101.861 18.4587C101.861 18.2988 101.887 18.1708 101.919 18.1708C101.951 18.1708 101.996 17.8958 102.021 17.5632C102.047 17.2306 102.092 16.9556 102.117 16.9556C102.143 16.9556 102.188 16.6934 102.213 16.38C102.239 16.0602 102.283 15.8044 102.309 15.8044C102.341 15.8044 102.379 15.5293 102.405 15.1967C102.431 14.8642 102.475 14.5891 102.501 14.5891C102.533 14.5891 102.578 14.3013 102.597 13.9495C102.622 13.5978 102.667 13.3099 102.693 13.3099C102.725 13.3099 102.763 13.0349 102.789 12.7023C102.814 12.3698 102.859 12.0947 102.891 12.0947C102.923 12.0947 102.949 11.9668 102.949 11.8069C102.949 11.647 102.974 11.5191 103.006 11.5191C103.038 11.5191 103.083 11.2441 103.109 10.9115C103.134 10.5789 103.179 10.3039 103.204 10.3039C103.23 10.3039 103.275 10.0416 103.3 9.72824C103.326 9.40844 103.371 9.1526 103.403 9.1526C103.435 9.1526 103.46 9.04387 103.46 8.90316C103.46 8.38509 103.588 8.07809 103.678 8.39788Z" fill="#B1BED3"/>
<path d="M142.091 52.7726V59.5523H142.859H143.626V54.5635C143.626 49.5811 143.626 49.5747 143.754 49.6834C143.824 49.7473 143.882 49.8177 143.882 49.8497C143.882 49.9008 143.984 50.0352 144.125 50.1695C144.17 50.2142 144.374 50.4125 144.579 50.6236C145.046 51.0905 145.18 51.2248 145.647 51.6917C146.063 52.101 146.184 52.2418 146.184 52.2865C146.184 52.3057 146.715 52.8558 147.368 53.5017C148.02 54.1541 148.551 54.7234 148.551 54.7681C148.557 54.8129 148.628 54.9089 148.717 54.9792C148.807 55.0496 148.999 55.2286 149.146 55.3821C149.293 55.5293 149.491 55.7339 149.593 55.8299C150.016 56.252 150.323 56.559 150.489 56.7381C150.591 56.8404 150.694 56.93 150.726 56.93C150.758 56.93 150.802 56.9939 150.821 57.0643C150.847 57.141 151.384 57.7167 152.011 58.3435C152.644 58.9703 153.156 59.5139 153.156 59.5459C153.156 59.6418 153.54 60 153.642 60C153.719 60 153.732 59.0534 153.732 53.3163V46.6325H152.996H152.261V51.5894C152.261 54.314 152.248 56.5462 152.235 56.5462C152.177 56.5462 151.365 55.7147 151.365 55.6572C151.365 55.6188 151.199 55.4333 151.001 55.235C150.796 55.0432 150.604 54.8577 150.572 54.8257C150.546 54.7937 150.348 54.5955 150.137 54.3844C149.318 53.5721 149.191 53.4378 149.191 53.3866C149.191 53.361 148.685 52.8366 148.071 52.2226C147.457 51.6086 146.952 51.0777 146.952 51.0457C146.952 51.0201 146.773 50.8155 146.555 50.6044C146.332 50.3869 146.127 50.1823 146.089 50.1503C146.057 50.1119 145.852 49.9136 145.641 49.7026C145.43 49.4915 145.231 49.2868 145.193 49.2549C144.944 49.0054 144.777 48.8071 144.777 48.7688C144.777 48.7176 144.649 48.5833 143.831 47.771C143.62 47.5599 143.421 47.3617 143.396 47.3297C143.364 47.2977 143.172 47.1122 142.974 46.9204C142.769 46.7221 142.603 46.5366 142.603 46.4918C142.603 46.4279 142.181 45.9929 142.117 45.9929C142.104 45.9929 142.091 49.0438 142.091 52.7726Z" fill="#B1BED3"/>
<path d="M35.2017 46.3575C35.029 46.3703 34.8947 46.4087 34.8947 46.447C34.8947 46.479 34.7924 46.5046 34.6709 46.5046C34.5493 46.5046 34.447 46.5302 34.447 46.5622C34.447 46.5941 34.3639 46.6389 34.2551 46.6645C34.1528 46.6901 34.0633 46.7284 34.0633 46.7604C34.0633 46.7924 33.9801 46.8308 33.8714 46.8564C33.769 46.882 33.6795 46.9267 33.6795 46.9587C33.6795 46.9907 33.6411 47.0163 33.59 47.0163C33.4876 47.0163 33.1039 47.3744 33.1039 47.464C33.1039 47.496 33.0463 47.5407 32.9759 47.5599C32.9056 47.5791 32.8288 47.6686 32.8097 47.7518C32.7905 47.8349 32.7329 47.9181 32.6817 47.9373C32.6306 47.9565 32.5922 48.014 32.5922 48.0716C32.5922 48.1228 32.5666 48.1675 32.5346 48.1675C32.5027 48.1675 32.4643 48.2827 32.4387 48.417C32.4195 48.5577 32.3619 48.6792 32.3236 48.692C32.2148 48.7304 32.2084 50.5212 32.3172 50.5852C32.3555 50.6108 32.4067 50.7387 32.4323 50.873C32.4579 51.0009 32.5027 51.1097 32.5346 51.1097C32.5666 51.1097 32.5922 51.1416 32.5922 51.18C32.5922 51.2632 33.5324 52.197 33.6219 52.197C33.6539 52.197 33.6987 52.2353 33.7179 52.2865C33.7371 52.3377 33.8458 52.3952 33.9673 52.4144C34.0824 52.44 34.1976 52.4976 34.2168 52.5487C34.2359 52.5999 34.2935 52.6447 34.3511 52.6447C34.4022 52.6447 34.447 52.6703 34.447 52.7022C34.447 52.7342 34.5621 52.7726 34.7028 52.7982C34.8436 52.8174 34.9587 52.8685 34.9587 52.9005C34.9587 52.9389 35.0035 52.9645 35.0546 52.9645C35.1058 52.9645 35.1506 52.9901 35.1506 53.0284C35.1506 53.0604 35.2657 53.1116 35.4064 53.1308C35.5471 53.1563 35.6622 53.1947 35.6622 53.2203C35.6622 53.2523 35.7518 53.2907 35.8541 53.3162C35.9628 53.3418 36.046 53.3802 36.046 53.4122C36.046 53.4442 36.1355 53.4825 36.2379 53.5081C36.3466 53.5337 36.4297 53.5721 36.4297 53.6041C36.4297 53.6296 36.5321 53.6744 36.6536 53.6936C36.7751 53.7192 36.8775 53.764 36.8775 53.7959C36.8775 53.8343 36.9158 53.8599 36.967 53.8599C37.0182 53.8599 37.0693 53.9047 37.0949 53.9558C37.1141 54.007 37.1589 54.0518 37.1973 54.0518C37.242 54.0518 37.3572 54.1349 37.4659 54.2437C37.5682 54.346 37.6769 54.4355 37.7089 54.4355C37.7409 54.4355 37.7857 54.4995 37.8113 54.5762C37.8305 54.653 37.8944 54.7553 37.9392 54.8065C37.9903 54.8513 38.0287 54.9472 38.0287 55.0112C38.0287 55.0751 38.0671 55.1391 38.1119 55.1583C38.2142 55.1902 38.2206 56.5973 38.1183 56.6613C38.0799 56.6869 38.0287 56.7828 38.0031 56.8788C37.984 56.9811 37.9328 57.0579 37.9008 57.0579C37.8624 57.0579 37.8368 57.1026 37.8368 57.1538C37.8368 57.2114 37.7921 57.2689 37.7409 57.2881C37.6897 57.3137 37.645 57.3649 37.645 57.416C37.645 57.5312 37.4403 57.7358 37.274 57.787C37.2037 57.8126 37.1269 57.8701 37.1077 57.9213C37.0885 57.9725 37.031 58.0172 36.9734 58.0172C36.9222 58.0172 36.8775 58.0428 36.8775 58.0812C36.8775 58.1132 36.7623 58.1643 36.6216 58.1835C36.4809 58.2091 36.3658 58.2475 36.3658 58.2795C36.3658 58.3115 36.2826 58.337 36.1739 58.337C36.0716 58.337 35.982 58.3626 35.982 58.401C35.982 58.4394 35.8029 58.465 35.5663 58.465C35.3296 58.465 35.1506 58.4394 35.1506 58.401C35.1506 58.3626 35.0674 58.337 34.9587 58.337C34.8563 58.337 34.7668 58.3115 34.7668 58.2795C34.7668 58.2475 34.6517 58.2091 34.511 58.1835C34.3703 58.1643 34.2551 58.1132 34.2551 58.0812C34.2551 58.0428 34.204 57.9917 34.1464 57.9725C33.9289 57.8893 33.4876 57.4672 33.4876 57.3393C33.4876 57.2881 33.462 57.2497 33.4237 57.2497C33.3917 57.2497 33.3469 57.1794 33.3213 57.0898C33.3021 57.0003 33.2574 56.9299 33.2254 56.9299C33.1934 56.9299 33.1486 56.8148 33.1295 56.6741C33.1039 56.5334 33.0655 56.4183 33.0335 56.4183C33.0015 56.4183 32.9759 56.3287 32.9759 56.2264C32.9759 56.0537 32.9568 56.0345 32.7841 56.0345C32.6817 56.0345 32.5922 56.0601 32.5922 56.0921C32.5922 56.1241 32.4323 56.1752 32.2404 56.1944C32.0485 56.22 31.8886 56.2648 31.8886 56.2967C31.8886 56.3287 31.8183 56.3543 31.7287 56.3543C31.588 56.3543 31.5688 56.3799 31.5688 56.6101C31.5688 56.7509 31.5944 56.866 31.6264 56.866C31.6584 56.866 31.7032 56.9683 31.7223 57.0898C31.7479 57.2114 31.7927 57.3137 31.8183 57.3137C31.8503 57.3137 31.895 57.416 31.9142 57.5375C31.9398 57.6591 31.9846 57.7614 32.0166 57.7614C32.0549 57.7614 32.0805 57.7998 32.0805 57.8509C32.0805 57.9021 32.1253 57.9533 32.1765 57.9789C32.2276 57.9981 32.2724 58.0428 32.2724 58.0812C32.2724 58.2283 33.0079 58.9702 33.251 59.0598C33.3085 59.079 33.3597 59.1301 33.3597 59.1621C33.3597 59.1941 33.4492 59.2389 33.5516 59.2644C33.6603 59.29 33.7435 59.3348 33.7435 59.3668C33.7435 59.3988 33.8138 59.4243 33.9034 59.4243C33.9929 59.4243 34.0633 59.4499 34.0633 59.4819C34.0633 59.5139 34.2232 59.5651 34.415 59.5842C34.6069 59.6098 34.7668 59.6546 34.7668 59.6866C34.7668 59.7186 35.125 59.7441 35.5663 59.7441C36.0076 59.7441 36.3658 59.7186 36.3658 59.6866C36.3658 59.6546 36.5129 59.6162 36.6984 59.6034C36.8839 59.5842 37.0438 59.5331 37.0565 59.4947C37.0693 59.4563 37.1333 59.4243 37.2037 59.4243C37.2676 59.4243 37.3252 59.3988 37.3252 59.3604C37.3252 59.3284 37.4275 59.2836 37.549 59.2581C37.6706 59.2389 37.7729 59.1941 37.7729 59.1621C37.7729 59.1301 37.8241 59.079 37.888 59.0598C37.9456 59.0342 38.1183 58.8999 38.2654 58.7592C38.8922 58.158 39.0393 57.9853 39.0904 57.7998C39.1096 57.7102 39.1544 57.6335 39.18 57.6335C39.212 57.6335 39.2503 57.5503 39.2759 57.4416C39.3015 57.3329 39.3463 57.2497 39.3783 57.2497C39.4102 57.2497 39.4358 57.1794 39.4358 57.0962C39.4358 57.0131 39.4742 56.9299 39.519 56.9171C39.5765 56.8916 39.5957 56.6101 39.5957 55.7787C39.5957 54.9472 39.5765 54.6658 39.519 54.6466C39.4742 54.6274 39.4358 54.5634 39.4358 54.4931C39.4358 54.4291 39.4102 54.3716 39.3783 54.3716C39.3463 54.3716 39.3015 54.282 39.2759 54.1797C39.2503 54.071 39.212 53.9878 39.18 53.9878C39.148 53.9878 39.1032 53.9239 39.0777 53.8471C39.0201 53.6616 38.5468 53.1883 38.3677 53.1308C38.291 53.1052 38.2078 53.0348 38.1886 52.9645C38.1694 52.9005 38.0799 52.8302 37.9967 52.811C37.9072 52.7854 37.8368 52.747 37.8368 52.715C37.8368 52.683 37.7537 52.6383 37.645 52.6127C37.5426 52.5871 37.4531 52.5487 37.4531 52.5168C37.4531 52.4848 37.3699 52.4464 37.2612 52.4208C37.1589 52.3952 37.0693 52.3505 37.0693 52.3185C37.0693 52.2865 36.9542 52.2417 36.8135 52.2225C36.6728 52.197 36.5577 52.1586 36.5577 52.1266C36.5577 52.0946 36.5129 52.069 36.4617 52.069C36.4106 52.069 36.3658 52.0435 36.3658 52.0115C36.3658 51.9795 36.2826 51.9347 36.1739 51.9091C36.0716 51.8836 35.982 51.8452 35.982 51.8132C35.982 51.7876 35.8669 51.7492 35.7262 51.7237C35.5855 51.7045 35.4704 51.6597 35.4704 51.6277C35.4704 51.5957 35.3872 51.551 35.2785 51.5254C35.1761 51.4998 35.0866 51.455 35.0866 51.4294C35.0866 51.3975 34.9843 51.3527 34.8627 51.3271C34.7412 51.3079 34.6389 51.2632 34.6389 51.2312C34.6389 51.1992 34.5877 51.148 34.5302 51.1288C34.4022 51.0777 33.8714 50.5468 33.8714 50.4701C33.8714 50.4445 33.833 50.4061 33.7946 50.3869C33.7307 50.3677 33.7115 50.1631 33.7115 49.6386C33.7115 49.1141 33.7307 48.9095 33.7946 48.8839C33.833 48.8711 33.8714 48.8199 33.8714 48.7751C33.8714 48.7304 33.9161 48.6792 33.9673 48.6536C34.0185 48.6344 34.0633 48.5769 34.0633 48.5193C34.0633 48.4681 34.0888 48.4234 34.1208 48.4234C34.1528 48.4234 34.204 48.3658 34.2232 48.2954C34.2423 48.2251 34.3319 48.1483 34.415 48.1292C34.4982 48.11 34.5813 48.0524 34.6005 48.0012C34.6197 47.9501 34.7028 47.9117 34.7924 47.9117C34.8755 47.9117 34.9587 47.8733 34.9779 47.8285C35.0099 47.7262 36.6664 47.7198 36.7367 47.8222C36.7623 47.8605 36.8519 47.9181 36.9414 47.9437C37.031 47.9693 37.1653 48.0588 37.242 48.1419C37.3188 48.2251 37.4147 48.2954 37.4531 48.2954C37.4851 48.2954 37.5171 48.3338 37.5171 48.3786C37.5171 48.4234 37.5874 48.5129 37.6769 48.5769C37.7665 48.6408 37.8368 48.724 37.8368 48.756C37.8368 48.7879 37.8944 48.8775 37.9712 48.9542C38.0927 49.0885 38.1055 49.0885 38.1822 48.9862C38.227 48.9222 38.3549 48.8519 38.4636 48.8327C38.5724 48.8135 38.6747 48.756 38.6939 48.7048C38.7131 48.6536 38.7579 48.6152 38.7962 48.6152C38.8346 48.6152 38.9242 48.5577 38.9945 48.4937C39.0968 48.3978 39.116 48.3274 39.0841 48.1739C39.0585 48.0652 39.0137 47.9757 38.9817 47.9757C38.9497 47.9757 38.8986 47.9245 38.8794 47.8605C38.8218 47.7198 38.2206 47.1186 38.0799 47.061C38.0159 47.0419 37.9648 46.9907 37.9648 46.9523C37.9648 46.9203 37.9264 46.8883 37.8752 46.8883C37.8241 46.8883 37.7409 46.85 37.6961 46.8052C37.6514 46.754 37.5043 46.6965 37.3699 46.6709C37.242 46.6453 37.1333 46.6005 37.1333 46.5686C37.1333 46.5302 37.0757 46.5046 37.0118 46.5046C36.9414 46.5046 36.8775 46.479 36.8647 46.447C36.8455 46.3767 35.6558 46.3127 35.2017 46.3575Z" fill="#B1BED3"/>
<path d="M52.7583 46.3575C52.5344 46.3703 52.3553 46.4087 52.3553 46.4406C52.3553 46.479 52.2722 46.5046 52.1635 46.5046C52.0611 46.5046 51.9716 46.5302 51.9716 46.5622C51.9716 46.5941 51.8117 46.6389 51.6198 46.6645C51.4279 46.6837 51.268 46.7348 51.268 46.7668C51.268 46.7988 51.1529 46.8436 51.0122 46.8628C50.8715 46.8883 50.7564 46.9267 50.7564 46.9523C50.7564 46.9843 50.6732 47.0227 50.5645 47.0482C50.4622 47.0738 50.3726 47.1122 50.3726 47.1442C50.3726 47.1698 50.3023 47.2145 50.2127 47.2337C50.1232 47.2593 50.0528 47.3041 50.0528 47.3361C50.0528 47.3744 50.0144 47.4 49.9633 47.4C49.9121 47.4 49.8609 47.4448 49.8354 47.496C49.8162 47.5471 49.7714 47.5919 49.733 47.5919C49.6563 47.5919 49.5283 47.6878 49.3621 47.8605C49.3045 47.9245 49.2341 47.9757 49.2022 47.9757C49.1382 47.9757 48.4538 48.6664 48.4538 48.7304C48.4538 48.756 48.3707 48.8519 48.262 48.935C48.1596 49.0246 48.0765 49.1461 48.0701 49.2101C48.0701 49.274 48.0317 49.338 47.9805 49.3572C47.9294 49.3764 47.8718 49.4595 47.8526 49.549C47.827 49.6322 47.7823 49.7026 47.7503 49.7026C47.7119 49.7026 47.6863 49.7473 47.6863 49.7985C47.6863 49.8497 47.6607 49.8944 47.6288 49.8944C47.5968 49.8944 47.552 49.9776 47.5264 50.0863C47.5008 50.1886 47.4625 50.2782 47.4305 50.2782C47.4049 50.2782 47.3665 50.3933 47.3409 50.534C47.3218 50.6747 47.277 50.7899 47.245 50.7899C47.213 50.7899 47.1683 50.9434 47.1427 51.1224C47.1171 51.3079 47.0595 51.4806 47.0211 51.5062C46.9252 51.5702 46.9188 54.5507 47.0211 54.6146C47.0595 54.6402 47.1107 54.8001 47.1363 54.9792C47.1555 55.1519 47.2066 55.3118 47.2386 55.3182C47.277 55.331 47.3218 55.4525 47.3409 55.5932C47.3665 55.7275 47.4049 55.8426 47.4305 55.8426C47.4625 55.8426 47.5008 55.9258 47.5264 56.0345C47.552 56.1432 47.5968 56.2264 47.6288 56.2264C47.6607 56.2264 47.6863 56.2712 47.6863 56.3223C47.6863 56.3735 47.7119 56.4183 47.7503 56.4183C47.7823 56.4183 47.827 56.4886 47.8526 56.5782C47.8718 56.6677 47.9166 56.7381 47.9422 56.7381C47.9741 56.7381 48.0189 56.802 48.0445 56.8788C48.0701 56.9555 48.1724 57.0898 48.2684 57.1794C48.3707 57.2689 48.4538 57.3904 48.4538 57.4544C48.4538 57.5184 48.4794 57.5695 48.5178 57.5695C48.5498 57.5695 48.6713 57.6719 48.7928 57.7934C48.9143 57.9149 49.0359 58.0172 49.0614 58.0172C49.087 58.0172 49.2022 58.1132 49.3109 58.2347C49.426 58.3498 49.5795 58.4714 49.6563 58.4905C49.733 58.5161 49.797 58.5673 49.797 58.5993C49.797 58.6313 49.8417 58.6568 49.8929 58.6568C49.9505 58.6568 50.008 58.7016 50.0272 58.7528C50.0464 58.8039 50.1615 58.8615 50.2831 58.8871C50.4046 58.9063 50.5005 58.951 50.5005 58.9766C50.5005 59.0086 50.5901 59.047 50.6924 59.0726C50.8011 59.0982 50.8843 59.1429 50.8843 59.1749C50.8843 59.2069 50.9994 59.2517 51.1401 59.2708C51.2808 59.2964 51.396 59.3348 51.396 59.3668C51.396 59.3988 51.4535 59.4243 51.5239 59.4243C51.5942 59.4243 51.6518 59.4499 51.6518 59.4819C51.6518 59.5203 51.8565 59.5651 52.0995 59.5906C52.3489 59.6098 52.5472 59.661 52.5472 59.6866C52.5472 59.7186 53.0205 59.7441 53.6025 59.7441C54.1846 59.7441 54.6579 59.7186 54.6579 59.6866C54.6579 59.661 54.8625 59.6098 55.1056 59.5906C55.355 59.5651 55.5533 59.5203 55.5533 59.4819C55.5533 59.4499 55.6109 59.4243 55.6812 59.4243C55.7516 59.4243 55.8091 59.3988 55.8091 59.3668C55.8091 59.3348 55.9243 59.2964 56.065 59.2708C56.2057 59.2517 56.3208 59.2069 56.3208 59.1685C56.3208 59.1365 56.4295 59.0918 56.5575 59.0662C56.6918 59.0406 56.8389 58.983 56.8837 58.9319C56.9284 58.8871 57.0116 58.8487 57.0627 58.8487C57.1139 58.8487 57.1523 58.8167 57.1523 58.7848C57.1523 58.7464 57.1971 58.7208 57.2482 58.7208C57.3058 58.7208 57.3633 58.676 57.3825 58.6249C57.4081 58.5737 57.4593 58.5289 57.5105 58.5289C57.5552 58.5289 57.664 58.4586 57.7535 58.369C57.843 58.2795 57.9326 58.2091 57.9582 58.2091C57.9838 58.2091 58.1373 58.0748 58.3099 57.9021C58.4762 57.7358 58.6553 57.5695 58.7001 57.5248C58.8408 57.3968 58.9431 57.2561 58.9431 57.205C58.9431 57.173 59.0007 57.1026 59.0711 57.0387C59.1414 56.9811 59.199 56.8916 59.199 56.8404C59.199 56.7892 59.2437 56.7381 59.2949 56.7125C59.3461 56.6933 59.3909 56.6165 59.3909 56.5462C59.3909 56.4758 59.4164 56.4183 59.4484 56.4183C59.4804 56.4183 59.5252 56.3287 59.5508 56.2264C59.5763 56.1177 59.6211 56.0345 59.6531 56.0345C59.6851 56.0345 59.7106 55.9897 59.7106 55.9386C59.7106 55.8874 59.7362 55.8426 59.7682 55.8426C59.8002 55.8426 59.845 55.7595 59.8705 55.6508C59.8961 55.5484 59.9345 55.4589 59.9665 55.4589C59.9921 55.4589 60.0368 55.3054 60.0624 55.1199C60.088 54.9408 60.1328 54.7681 60.1648 54.7489C60.1967 54.7297 60.2415 54.4803 60.2671 54.1925C60.2863 53.9047 60.3311 53.668 60.3566 53.668C60.3886 53.668 60.4142 53.393 60.4142 53.0604C60.4142 52.7278 60.3886 52.4528 60.3566 52.4528C60.3311 52.4528 60.2863 52.2161 60.2671 51.9283C60.2415 51.6405 60.1967 51.3911 60.1648 51.3719C60.1328 51.3527 60.088 51.18 60.0624 50.9945C60.0368 50.8154 59.9921 50.6619 59.9665 50.6619C59.9345 50.6619 59.8961 50.5724 59.8705 50.4701C59.845 50.3613 59.8002 50.2782 59.7682 50.2782C59.7362 50.2782 59.7106 50.2334 59.7106 50.1822C59.7106 50.1311 59.6851 50.0863 59.6531 50.0863C59.6211 50.0863 59.5763 49.9968 59.5508 49.8944C59.5252 49.7857 59.4868 49.7026 59.4548 49.7026C59.4292 49.7026 59.3845 49.6322 59.3653 49.5427C59.3397 49.4531 59.2949 49.3828 59.2629 49.3828C59.2246 49.3828 59.199 49.338 59.199 49.2868C59.199 49.2357 59.1414 49.1397 59.0711 49.0821C59.0007 49.0182 58.9431 48.9478 58.9431 48.9222C58.9431 48.8263 57.8878 47.803 57.7471 47.7582C57.6704 47.7326 57.5936 47.675 57.5744 47.6239C57.5552 47.5727 57.5041 47.5279 57.4593 47.5279C57.4081 47.5279 57.3314 47.4704 57.2802 47.4C57.229 47.3361 57.1075 47.2593 57.0116 47.2401C56.9156 47.2145 56.8325 47.1762 56.8325 47.1442C56.8325 47.1122 56.7493 47.0738 56.6406 47.0482C56.5383 47.0227 56.4487 46.9779 56.4487 46.9459C56.4487 46.9139 56.3336 46.8692 56.1929 46.85C56.0522 46.8244 55.9371 46.786 55.9371 46.7604C55.9371 46.7348 55.8091 46.6901 55.6492 46.6709C55.4893 46.6453 55.3614 46.6005 55.3614 46.5622C55.3614 46.5302 55.2463 46.5046 55.112 46.5046C54.9713 46.5046 54.8498 46.479 54.837 46.447C54.8178 46.3831 53.3531 46.3191 52.7583 46.3575ZM54.9009 47.8285C54.9265 47.8605 55.0736 47.9117 55.2271 47.9309C55.3806 47.9501 55.5277 47.9948 55.5469 48.0268C55.5661 48.0652 55.694 48.11 55.8283 48.1356C55.9562 48.1611 56.065 48.2059 56.065 48.2379C56.065 48.2699 56.1034 48.2955 56.1545 48.2955C56.2057 48.2955 56.2569 48.3402 56.2824 48.3914C56.3016 48.4426 56.3592 48.4873 56.4168 48.4873C56.4679 48.4873 56.5127 48.5129 56.5127 48.5449C56.5127 48.5769 56.5766 48.628 56.6598 48.6536C56.7365 48.6792 56.9092 48.8071 57.0372 48.9414C57.1715 49.0821 57.3058 49.1909 57.3442 49.1909C57.3761 49.1909 57.4081 49.2293 57.4081 49.2676C57.4081 49.3124 57.5232 49.4531 57.664 49.5746C57.8047 49.6962 57.9198 49.8369 57.9198 49.8752C57.9198 49.92 57.9454 49.9584 57.9838 49.9584C58.0157 49.9584 58.0605 50.0287 58.0861 50.1183C58.1053 50.2078 58.15 50.2782 58.1756 50.2782C58.2012 50.2782 58.246 50.3485 58.2652 50.4381C58.2908 50.5276 58.3355 50.598 58.3675 50.598C58.3995 50.598 58.4507 50.7131 58.4698 50.8538C58.4954 50.9945 58.5338 51.1097 58.5658 51.1097C58.5978 51.1097 58.6233 51.1672 58.6233 51.2312C58.6233 51.3015 58.6489 51.3655 58.6873 51.3783C58.7193 51.3847 58.7704 51.5766 58.7896 51.794C58.8152 52.0179 58.86 52.197 58.8856 52.197C58.9176 52.197 58.9431 52.5999 58.9431 53.0924C58.9431 53.5849 58.9176 53.9878 58.8856 53.9878C58.86 53.9878 58.8152 54.1605 58.7896 54.3716C58.7641 54.5826 58.7193 54.7553 58.6873 54.7553C58.6489 54.7553 58.6233 54.8257 58.6233 54.9152C58.6233 55.0048 58.5978 55.0751 58.5658 55.0751C58.5338 55.0751 58.489 55.1583 58.4634 55.267C58.4379 55.3693 58.3995 55.4589 58.3675 55.4589C58.3355 55.4589 58.2972 55.542 58.2716 55.6508C58.246 55.7531 58.2076 55.8426 58.1756 55.8426C58.1436 55.8426 58.0989 55.9066 58.0797 55.9833C58.0541 56.0537 57.9646 56.1816 57.8814 56.2584C57.7983 56.3351 57.7279 56.4247 57.7279 56.4438C57.7279 56.5334 56.986 57.2305 56.8517 57.2753C56.7749 57.3009 56.6918 57.3713 56.6726 57.4416C56.6534 57.5056 56.5511 57.5823 56.4487 57.6015C56.34 57.6271 56.2569 57.6719 56.2569 57.7038C56.2569 57.7358 56.1865 57.7742 56.097 57.7998C56.0074 57.819 55.9371 57.8637 55.9371 57.8957C55.9371 57.9213 55.8283 57.9661 55.7004 57.9917C55.5661 58.0172 55.4382 58.062 55.419 58.094C55.3998 58.126 55.2335 58.1643 55.0544 58.1899C54.8689 58.2091 54.7218 58.2539 54.7218 58.2795C54.7218 58.3115 54.5939 58.337 54.434 58.337C54.2741 58.337 54.1462 58.3626 54.1462 58.401C54.1462 58.4394 53.9223 58.465 53.6025 58.465C53.2828 58.465 53.0589 58.4394 53.0589 58.401C53.0589 58.3626 52.931 58.337 52.7711 58.337C52.6112 58.337 52.4833 58.3115 52.4833 58.2795C52.4833 58.2539 52.3362 58.2091 52.1507 58.1899C51.9716 58.1643 51.8053 58.1196 51.7861 58.0876C51.7605 58.0556 51.6646 58.0045 51.5686 57.9853C51.4727 57.9597 51.396 57.9149 51.396 57.8893C51.396 57.8637 51.2936 57.819 51.1721 57.7998C51.0506 57.7742 50.9482 57.7294 50.9482 57.6974C50.9482 57.6591 50.9035 57.6335 50.8523 57.6335C50.7947 57.6335 50.7372 57.5887 50.718 57.5375C50.6924 57.4864 50.654 57.4416 50.6221 57.4416C50.5517 57.4416 50.4174 57.3393 50.2575 57.1666C50.1999 57.109 50.1296 57.0579 50.0976 57.0579C50.008 57.0579 49.6882 56.7125 49.6435 56.5654C49.6179 56.4886 49.5411 56.4055 49.4772 56.3863C49.4068 56.3607 49.3301 56.2776 49.3109 56.1944C49.2917 56.1113 49.2341 56.0281 49.183 56.0089C49.1318 55.9897 49.0934 55.9322 49.0934 55.8746C49.0934 55.8234 49.0678 55.7787 49.0295 55.7787C48.9975 55.7787 48.9655 55.7211 48.9655 55.6508C48.9655 55.5804 48.9271 55.5036 48.876 55.4845C48.8312 55.4653 48.7736 55.3374 48.748 55.1966C48.7289 55.0623 48.6777 54.9472 48.6457 54.9472C48.6073 54.9472 48.5818 54.8768 48.5818 54.7873C48.5818 54.6978 48.5562 54.6274 48.5242 54.6274C48.4858 54.6274 48.441 54.4227 48.4155 54.1797C48.3963 53.9303 48.3451 53.732 48.3195 53.732C48.2875 53.732 48.262 53.3994 48.262 52.9964C48.262 52.5935 48.2875 52.2609 48.3195 52.2609C48.3451 52.2609 48.3963 52.0562 48.4155 51.8132C48.441 51.5638 48.4858 51.3655 48.5242 51.3655C48.5562 51.3655 48.5818 51.3207 48.5818 51.2696C48.5818 51.2184 48.6073 51.1736 48.6393 51.1736C48.6713 51.1736 48.7097 51.0585 48.7353 50.9178C48.7544 50.7771 48.7992 50.6619 48.8312 50.6619C48.8632 50.6619 48.9079 50.5788 48.9335 50.4765C48.9527 50.3741 49.0167 50.2718 49.0678 50.2526C49.119 50.2334 49.1574 50.1567 49.1574 50.0863C49.1574 50.016 49.1894 49.9584 49.2213 49.9584C49.2597 49.9584 49.3045 49.9136 49.3301 49.8561C49.3812 49.7153 50.2831 48.8071 50.3662 48.8071C50.411 48.8071 50.5069 48.7368 50.5837 48.6536C50.6668 48.5641 50.8075 48.4745 50.9035 48.4553C50.9994 48.4298 51.0762 48.385 51.0762 48.353C51.0762 48.321 51.1209 48.2955 51.1721 48.2955C51.2233 48.2955 51.268 48.2699 51.268 48.2379C51.268 48.2059 51.3576 48.1611 51.4599 48.1356C51.5686 48.11 51.6518 48.0716 51.6518 48.0396C51.6518 48.014 51.7797 47.9693 51.9396 47.9501C52.0995 47.9245 52.2274 47.8797 52.2274 47.8477C52.2274 47.7582 52.6751 47.7326 53.8136 47.7454C54.4468 47.7582 54.8753 47.7902 54.9009 47.8285Z" fill="#B1BED3"/>
<path d="M126.727 46.3575C126.484 46.3703 126.292 46.4087 126.292 46.4406C126.292 46.479 126.209 46.5046 126.1 46.5046C125.998 46.5046 125.909 46.5302 125.909 46.5622C125.909 46.5941 125.749 46.6389 125.557 46.6645C125.365 46.6837 125.205 46.7348 125.205 46.7668C125.205 46.7988 125.09 46.8436 124.949 46.8628C124.808 46.8883 124.693 46.9267 124.693 46.9523C124.693 46.9843 124.61 47.0227 124.508 47.0482C124.405 47.0674 124.303 47.1314 124.284 47.1826C124.265 47.2337 124.188 47.2721 124.118 47.2721C124.047 47.2721 123.99 47.2977 123.99 47.3361C123.99 47.368 123.951 47.4 123.9 47.4C123.849 47.4 123.798 47.4448 123.772 47.496C123.753 47.5471 123.702 47.5919 123.664 47.5919C123.625 47.5919 123.478 47.707 123.344 47.8477C123.203 47.9884 123.062 48.1036 123.024 48.1036C122.941 48.1036 122.519 48.5321 122.519 48.6152C122.519 48.6472 122.436 48.756 122.327 48.8583C122.224 48.967 122.135 49.0758 122.135 49.1013C122.135 49.1269 122.065 49.2101 121.975 49.2932C121.892 49.37 121.802 49.5107 121.777 49.6002C121.758 49.6898 121.713 49.7665 121.681 49.7665C121.655 49.7665 121.61 49.8688 121.585 49.9904C121.566 50.1119 121.521 50.2142 121.495 50.2142C121.463 50.2142 121.425 50.2974 121.399 50.4061C121.374 50.5084 121.329 50.598 121.297 50.598C121.265 50.598 121.24 50.6555 121.24 50.7259C121.24 50.7963 121.214 50.8538 121.182 50.8538C121.15 50.8538 121.105 51.0073 121.08 51.1864C121.054 51.3719 120.996 51.5446 120.958 51.5702C120.856 51.6341 120.856 54.4867 120.958 54.5507C120.996 54.5762 121.054 54.7489 121.08 54.928C121.105 55.1135 121.15 55.267 121.182 55.267C121.214 55.267 121.24 55.3246 121.24 55.3949C121.24 55.4653 121.265 55.5228 121.297 55.5228C121.329 55.5228 121.374 55.6252 121.393 55.7467C121.419 55.8682 121.463 55.9705 121.495 55.9705C121.521 55.9705 121.566 56.0537 121.591 56.1624C121.617 56.2648 121.655 56.3543 121.687 56.3543C121.713 56.3543 121.758 56.4311 121.783 56.527C121.802 56.6229 121.892 56.7636 121.981 56.8468C122.065 56.9235 122.135 57.0067 122.135 57.0259C122.135 57.0834 122.717 57.6911 123.222 58.1643C123.325 58.2667 123.414 58.369 123.414 58.401C123.414 58.4266 123.484 58.4714 123.574 58.4905C123.664 58.5161 123.734 58.5609 123.734 58.5929C123.734 58.6313 123.779 58.6568 123.83 58.6568C123.887 58.6568 123.945 58.6952 123.964 58.7464C123.983 58.7975 124.098 58.8551 124.22 58.8743C124.342 58.8999 124.437 58.9447 124.437 58.9766C124.437 59.0022 124.527 59.047 124.629 59.0726C124.738 59.0982 124.821 59.1365 124.821 59.1685C124.821 59.1941 124.936 59.2325 125.077 59.2581C125.218 59.2772 125.333 59.3284 125.333 59.3604C125.333 59.3988 125.39 59.4243 125.461 59.4243C125.531 59.4243 125.589 59.4499 125.589 59.4819C125.589 59.5139 125.793 59.5587 126.036 59.5842C126.286 59.6098 126.484 59.6546 126.484 59.6866C126.484 59.7186 126.957 59.7441 127.539 59.7441C128.122 59.7441 128.595 59.7186 128.595 59.6866C128.595 59.661 128.799 59.6098 129.043 59.5906C129.292 59.5651 129.49 59.5203 129.49 59.4819C129.49 59.4499 129.561 59.4243 129.65 59.4243C129.74 59.4243 129.81 59.3988 129.81 59.3668C129.81 59.3348 129.912 59.29 130.034 59.2708C130.155 59.2453 130.258 59.2005 130.258 59.1749C130.258 59.1429 130.373 59.1045 130.514 59.079C130.654 59.0598 130.769 59.015 130.769 58.983C130.769 58.951 130.84 58.9063 130.929 58.8871C131.019 58.8615 131.089 58.8167 131.089 58.7848C131.089 58.7464 131.134 58.7208 131.185 58.7208C131.243 58.7208 131.3 58.676 131.319 58.6249C131.345 58.5737 131.415 58.5289 131.479 58.5289C131.55 58.5289 131.62 58.4841 131.639 58.433C131.665 58.3818 131.71 58.337 131.742 58.337C131.799 58.337 132.017 58.1388 132.56 57.6015C132.893 57.2753 132.944 57.2114 132.944 57.1346C132.944 57.0898 132.97 57.0579 133.008 57.0579C133.04 57.0579 133.085 56.9875 133.11 56.898C133.13 56.8148 133.206 56.7253 133.27 56.7061C133.334 56.6805 133.392 56.6101 133.392 56.5398C133.392 56.4694 133.43 56.3991 133.481 56.3799C133.532 56.3607 133.596 56.2584 133.616 56.156C133.641 56.0537 133.68 55.9705 133.712 55.9705C133.737 55.9705 133.776 55.8554 133.801 55.7147C133.82 55.574 133.865 55.4589 133.897 55.4589C133.929 55.4589 133.974 55.331 133.993 55.1711C134.019 55.0112 134.063 54.8832 134.102 54.8832C134.134 54.8832 134.159 54.7873 134.159 54.6658C134.159 54.5443 134.198 54.4355 134.242 54.4163C134.3 54.3972 134.319 54.071 134.319 53.0604C134.319 52.0499 134.3 51.7237 134.242 51.6981C134.198 51.6853 134.159 51.5893 134.159 51.487C134.159 51.3847 134.134 51.3015 134.102 51.3015C134.07 51.3015 134.025 51.1544 133.999 50.9817C133.974 50.8026 133.929 50.6619 133.903 50.6619C133.871 50.6619 133.827 50.5596 133.801 50.4381C133.782 50.3166 133.737 50.2142 133.712 50.2142C133.686 50.2142 133.641 50.1183 133.622 49.9968C133.596 49.8752 133.539 49.7601 133.488 49.7409C133.437 49.7217 133.392 49.6642 133.392 49.6066C133.392 49.5554 133.366 49.5107 133.328 49.5107C133.296 49.5107 133.264 49.4787 133.264 49.4467C133.264 49.3828 133.213 49.306 133.027 49.0949C132.982 49.0502 132.944 48.9862 132.944 48.967C132.944 48.8903 131.806 47.7838 131.729 47.7838C131.69 47.7838 131.646 47.739 131.626 47.6878C131.607 47.6367 131.524 47.5791 131.454 47.5535C131.377 47.5279 131.268 47.4576 131.211 47.3936C131.16 47.3297 131.038 47.2593 130.942 47.2401C130.846 47.2145 130.769 47.1698 130.769 47.1442C130.769 47.1122 130.686 47.0738 130.578 47.0482C130.475 47.0227 130.386 46.9779 130.386 46.9459C130.386 46.9139 130.271 46.8692 130.13 46.85C129.989 46.8244 129.874 46.786 129.874 46.754C129.874 46.7284 129.746 46.6837 129.586 46.6581C129.426 46.6389 129.298 46.5941 129.298 46.5622C129.298 46.5302 129.183 46.5046 129.049 46.5046C128.908 46.5046 128.787 46.479 128.774 46.447C128.755 46.3767 127.373 46.3191 126.727 46.3575ZM128.902 47.8285C128.927 47.8605 129.062 47.9117 129.196 47.9309C129.337 47.9565 129.465 47.9948 129.484 48.0268C129.503 48.0588 129.631 48.1036 129.765 48.1292C129.893 48.1547 130.002 48.1995 130.002 48.2315C130.002 48.2699 130.04 48.2954 130.091 48.2954C130.143 48.2954 130.194 48.3402 130.219 48.3914C130.239 48.4426 130.309 48.4873 130.379 48.4873C130.443 48.4873 130.514 48.5321 130.539 48.5833C130.558 48.6344 130.61 48.6792 130.648 48.6792C130.686 48.6792 130.789 48.7496 130.865 48.8327C130.942 48.9159 131.064 49.0054 131.14 49.0246C131.217 49.0502 131.294 49.1269 131.313 49.1909C131.332 49.2548 131.409 49.3316 131.479 49.3508C131.543 49.3764 131.601 49.4275 131.601 49.4787C131.601 49.5235 131.684 49.645 131.786 49.7473C131.882 49.8497 131.991 50.0032 132.017 50.0863C132.042 50.1695 132.106 50.2782 132.151 50.3294C132.202 50.3741 132.24 50.4573 132.24 50.5084C132.24 50.5596 132.272 50.598 132.304 50.598C132.343 50.598 132.368 50.6428 132.368 50.6939C132.368 50.7451 132.394 50.7899 132.432 50.7899C132.464 50.7899 132.509 50.8986 132.535 51.0265C132.56 51.1608 132.605 51.2887 132.637 51.3079C132.669 51.3271 132.714 51.5062 132.733 51.7045C132.752 51.9091 132.797 52.069 132.823 52.069C132.855 52.069 132.88 52.5168 132.88 53.0604C132.88 53.6041 132.855 54.0518 132.823 54.0518C132.791 54.0518 132.746 54.2117 132.72 54.4036C132.701 54.5954 132.656 54.7553 132.631 54.7553C132.599 54.7553 132.56 54.8705 132.535 55.0112C132.516 55.1519 132.464 55.267 132.432 55.267C132.394 55.267 132.368 55.3118 132.368 55.3629C132.368 55.4141 132.343 55.4589 132.311 55.4589C132.279 55.4589 132.234 55.542 132.209 55.6508C132.183 55.7531 132.138 55.8426 132.106 55.8426C132.074 55.8426 132.036 55.913 132.01 56.0025C131.991 56.0921 131.946 56.1624 131.914 56.1624C131.882 56.1624 131.831 56.2136 131.812 56.2712C131.767 56.3927 131.684 56.5078 131.55 56.6293C131.505 56.6741 131.345 56.8276 131.185 56.9747C131.032 57.1282 130.878 57.2497 130.846 57.2497C130.814 57.2497 130.737 57.3201 130.667 57.4032C130.603 57.4928 130.488 57.5759 130.405 57.6015C130.322 57.6207 130.258 57.6591 130.258 57.6911C130.258 57.723 130.175 57.7678 130.066 57.7934C129.964 57.819 129.874 57.8637 129.874 57.8957C129.874 57.9277 129.759 57.9725 129.618 57.9917C129.477 58.0172 129.362 58.0556 129.362 58.0876C129.362 58.1132 129.234 58.158 129.075 58.1835C128.915 58.2027 128.787 58.2475 128.787 58.2795C128.787 58.3115 128.659 58.337 128.499 58.337C128.339 58.337 128.211 58.3626 128.211 58.401C128.211 58.4394 127.968 58.465 127.603 58.465C127.239 58.465 126.996 58.4394 126.996 58.401C126.996 58.3626 126.868 58.337 126.708 58.337C126.548 58.337 126.42 58.3115 126.42 58.2795C126.42 58.2475 126.26 58.2027 126.068 58.1771C125.877 58.158 125.717 58.1132 125.717 58.0812C125.717 58.0492 125.634 58.0108 125.525 57.9853C125.422 57.9597 125.333 57.9149 125.333 57.8893C125.333 57.8573 125.231 57.8126 125.109 57.787C124.988 57.7678 124.885 57.723 124.885 57.6911C124.885 57.6591 124.847 57.6335 124.796 57.6335C124.751 57.6335 124.655 57.5631 124.591 57.4736C124.527 57.384 124.444 57.3137 124.412 57.3137C124.348 57.3137 124.297 57.2689 123.843 56.8212C123.382 56.3543 123.35 56.3159 123.35 56.2392C123.35 56.1944 123.325 56.1624 123.286 56.1624C123.254 56.1624 123.209 56.0921 123.184 56.0025C123.165 55.9194 123.094 55.8298 123.03 55.8107C122.96 55.7915 122.896 55.6827 122.877 55.5548C122.851 55.4333 122.807 55.331 122.775 55.331C122.743 55.331 122.698 55.2286 122.672 55.1071C122.653 54.9856 122.608 54.8832 122.583 54.8832C122.557 54.8832 122.512 54.7489 122.487 54.5762C122.461 54.4099 122.41 54.2564 122.372 54.2309C122.269 54.1669 122.263 51.9539 122.365 51.89C122.404 51.8644 122.461 51.6917 122.487 51.5062C122.512 51.3271 122.551 51.1736 122.583 51.1736C122.608 51.1736 122.647 51.0585 122.672 50.9178C122.691 50.7771 122.743 50.6619 122.775 50.6619C122.813 50.6619 122.838 50.6172 122.838 50.566C122.838 50.5084 122.883 50.4509 122.934 50.4317C122.986 50.4061 123.03 50.3549 123.03 50.3038C123.03 50.2526 123.062 50.2142 123.094 50.2142C123.133 50.2142 123.158 50.1567 123.158 50.0863C123.158 50.016 123.203 49.9392 123.254 49.92C123.305 49.9008 123.363 49.8241 123.382 49.7601C123.44 49.5938 124.22 48.8071 124.335 48.8071C124.386 48.8071 124.437 48.7624 124.463 48.7112C124.482 48.66 124.54 48.6152 124.597 48.6152C124.649 48.6152 124.693 48.5897 124.693 48.5513C124.693 48.5193 124.764 48.4745 124.853 48.449C124.943 48.4298 125.013 48.385 125.013 48.353C125.013 48.321 125.058 48.2954 125.109 48.2954C125.16 48.2954 125.205 48.2699 125.205 48.2379C125.205 48.2059 125.295 48.1611 125.397 48.1356C125.506 48.11 125.589 48.0716 125.589 48.0396C125.589 48.014 125.736 47.9693 125.909 47.9437C126.088 47.9181 126.228 47.8733 126.228 47.8477C126.228 47.7582 126.638 47.7326 127.783 47.7454C128.435 47.7582 128.876 47.7838 128.902 47.8285Z" fill="#B1BED3"/>
<path d="M165.199 46.3575C165.013 46.3703 164.86 46.4087 164.86 46.447C164.86 46.479 164.776 46.5046 164.668 46.5046C164.565 46.5046 164.476 46.5302 164.476 46.5686C164.476 46.6005 164.361 46.6517 164.22 46.6709C164.079 46.6965 163.964 46.7348 163.964 46.7668C163.964 46.7988 163.919 46.8244 163.868 46.8244C163.811 46.8244 163.753 46.8692 163.734 46.9203C163.708 46.9715 163.651 47.0163 163.6 47.0163C163.497 47.0163 162.685 47.8158 162.685 47.9181C162.685 47.9501 162.659 47.9757 162.621 47.9757C162.589 47.9757 162.544 48.078 162.519 48.1995C162.499 48.321 162.455 48.4234 162.423 48.4234C162.397 48.4234 162.352 48.5641 162.327 48.7432C162.301 48.9159 162.263 49.063 162.231 49.063C162.199 49.063 162.173 49.3188 162.173 49.6386C162.173 49.952 162.199 50.2142 162.231 50.2142C162.263 50.2142 162.301 50.3549 162.327 50.534C162.352 50.7067 162.397 50.8538 162.423 50.8538C162.455 50.8538 162.499 50.9498 162.519 51.0713C162.544 51.212 162.608 51.3079 162.685 51.3335C162.749 51.3527 162.826 51.4294 162.845 51.4998C162.902 51.6725 163.082 51.8516 163.254 51.9091C163.325 51.9283 163.401 52.0051 163.42 52.069C163.446 52.1394 163.529 52.2161 163.619 52.2353C163.702 52.2545 163.772 52.2993 163.772 52.3249C163.772 52.3505 163.843 52.3952 163.932 52.4144C164.022 52.44 164.092 52.4784 164.092 52.5104C164.092 52.5423 164.182 52.5871 164.284 52.6127C164.393 52.6383 164.476 52.683 164.476 52.715C164.476 52.747 164.591 52.7918 164.732 52.811C164.872 52.8366 164.987 52.8749 164.987 52.9069C164.987 52.9389 165.032 52.9645 165.083 52.9645C165.135 52.9645 165.179 52.9901 165.179 53.022C165.179 53.054 165.269 53.0988 165.371 53.1244C165.48 53.15 165.563 53.1883 165.563 53.2203C165.563 53.2459 165.678 53.2843 165.819 53.3098C165.96 53.329 166.075 53.3738 166.075 53.4058C166.075 53.4378 166.164 53.4825 166.267 53.5081C166.375 53.5337 166.459 53.5721 166.459 53.6041C166.459 53.636 166.548 53.6744 166.65 53.7C166.759 53.7256 166.842 53.7704 166.842 53.8023C166.842 53.8343 166.874 53.8599 166.913 53.8599C166.957 53.8599 167.053 53.9303 167.137 54.0198C167.22 54.1093 167.316 54.1797 167.36 54.1797C167.469 54.1797 167.84 54.5762 167.898 54.7617C167.923 54.8449 167.974 54.9344 168.013 54.9536C168.045 54.9792 168.09 55.1455 168.109 55.3246C168.121 55.5036 168.16 55.6508 168.192 55.6508C168.224 55.6508 168.249 55.7659 168.249 55.9066C168.249 56.0473 168.224 56.1624 168.192 56.1624C168.16 56.1624 168.121 56.3095 168.109 56.4886C168.09 56.6677 168.045 56.834 168.013 56.8596C167.974 56.8788 167.923 56.9683 167.898 57.0515C167.872 57.1346 167.789 57.2689 167.706 57.3393C167.629 57.416 167.546 57.5375 167.52 57.6143C167.495 57.6974 167.424 57.7614 167.367 57.7614C167.303 57.7614 167.207 57.819 167.143 57.8893C167.085 57.9597 166.989 58.0172 166.938 58.0172C166.887 58.0172 166.842 58.0428 166.842 58.0812C166.842 58.1132 166.74 58.158 166.618 58.1835C166.497 58.2027 166.395 58.2475 166.395 58.2795C166.395 58.3115 166.292 58.337 166.171 58.337C166.049 58.337 165.947 58.3626 165.947 58.401C165.947 58.4394 165.774 58.465 165.563 58.465C165.352 58.465 165.179 58.4394 165.179 58.401C165.179 58.3626 165.096 58.337 164.987 58.337C164.885 58.337 164.796 58.3115 164.796 58.2795C164.796 58.2475 164.68 58.2091 164.54 58.1835C164.399 58.1643 164.284 58.1196 164.284 58.0876C164.284 58.0492 164.226 58.0045 164.156 57.9853C163.983 57.9277 163.478 57.4288 163.42 57.2561C163.401 57.1794 163.357 57.1218 163.325 57.1218C163.293 57.1218 163.254 57.0387 163.229 56.9299C163.203 56.8212 163.165 56.7381 163.133 56.7381C163.101 56.7381 163.056 56.5782 163.037 56.3863C162.992 56.0409 162.986 56.0345 162.775 56.0345C162.653 56.0345 162.557 56.0601 162.557 56.0985C162.557 56.1304 162.416 56.1752 162.237 56.2008C162.065 56.2264 161.917 56.2648 161.917 56.2967C161.917 56.3287 161.841 56.3543 161.751 56.3543C161.578 56.3543 161.578 56.3607 161.617 56.7189C161.636 56.9235 161.687 57.0962 161.726 57.109C161.758 57.1218 161.79 57.173 161.79 57.2241C161.79 57.2753 161.822 57.3137 161.853 57.3137C161.892 57.3137 161.917 57.384 161.917 57.4672C161.917 57.5567 161.956 57.6655 162.007 57.7102C162.052 57.7614 162.116 57.8637 162.141 57.9469C162.199 58.126 163.075 59.015 163.261 59.0726C163.331 59.0918 163.389 59.1365 163.389 59.1685C163.389 59.2005 163.478 59.2389 163.58 59.2644C163.689 59.29 163.772 59.3348 163.772 59.3668C163.772 59.3988 163.817 59.4243 163.868 59.4243C163.919 59.4243 163.964 59.4499 163.964 59.4819C163.964 59.5139 164.124 59.5651 164.316 59.5842C164.508 59.6098 164.668 59.6546 164.668 59.6866C164.668 59.7186 165.058 59.7441 165.531 59.7441C166.004 59.7441 166.395 59.7186 166.395 59.6866C166.395 59.6546 166.542 59.6162 166.714 59.5906C166.893 59.5651 167.034 59.5203 167.034 59.4883C167.034 59.4499 167.105 59.4243 167.194 59.4243C167.284 59.4243 167.354 59.3988 167.354 59.3668C167.354 59.3348 167.444 59.29 167.546 59.2644C167.655 59.2389 167.738 59.2005 167.738 59.1685C167.738 59.1365 167.802 59.0918 167.872 59.0726C168.051 59.015 168.927 58.1388 168.985 57.9597C169.004 57.8893 169.055 57.8254 169.087 57.8254C169.119 57.8254 169.145 57.7806 169.145 57.7294C169.145 57.6783 169.17 57.6335 169.209 57.6335C169.241 57.6335 169.286 57.5248 169.311 57.3904C169.337 57.2625 169.381 57.1346 169.413 57.1154C169.445 57.0962 169.484 56.9299 169.509 56.7509C169.529 56.5654 169.573 56.4183 169.599 56.4183C169.631 56.4183 169.657 56.1177 169.657 55.7467C169.657 55.3757 169.631 55.0751 169.599 55.0751C169.573 55.0751 169.529 54.928 169.509 54.7425C169.484 54.5634 169.445 54.3972 169.413 54.378C169.381 54.3588 169.33 54.2692 169.305 54.1861C169.279 54.1029 169.19 53.9622 169.106 53.8791C169.023 53.7959 168.953 53.7 168.953 53.668C168.953 53.5913 168.518 53.1563 168.441 53.1563C168.409 53.1563 168.313 53.086 168.224 52.9964C168.141 52.9133 167.994 52.8238 167.91 52.8046C167.821 52.779 167.731 52.7214 167.712 52.6703C167.693 52.6191 167.635 52.5807 167.578 52.5807C167.527 52.5807 167.482 52.5551 167.482 52.5232C167.482 52.4912 167.38 52.4464 167.258 52.4272C167.137 52.4016 167.034 52.3569 167.034 52.3313C167.034 52.2993 166.932 52.2545 166.81 52.2353C166.689 52.2098 166.586 52.165 166.586 52.133C166.586 52.0946 166.542 52.069 166.491 52.069C166.439 52.069 166.395 52.0435 166.395 52.0115C166.395 51.9795 166.279 51.9347 166.139 51.9091C165.998 51.8836 165.883 51.8388 165.883 51.8132C165.883 51.7812 165.8 51.7428 165.691 51.7173C165.589 51.6917 165.499 51.6533 165.499 51.6213C165.499 51.5957 165.397 51.551 165.275 51.5318C165.154 51.5062 165.051 51.4614 165.051 51.4294C165.051 51.4039 164.968 51.3591 164.866 51.3335C164.764 51.3143 164.661 51.2504 164.642 51.1992C164.623 51.148 164.546 51.1097 164.476 51.1097C164.405 51.1097 164.348 51.0841 164.348 51.0457C164.348 51.0137 164.246 50.8922 164.124 50.7707C164.003 50.6491 163.9 50.5212 163.9 50.4829C163.9 50.4445 163.862 50.4061 163.823 50.3869C163.715 50.3549 163.708 48.9542 163.811 48.8839C163.849 48.8583 163.9 48.7751 163.926 48.692C163.99 48.5065 164.367 48.1036 164.495 48.1036C164.546 48.1036 164.604 48.0588 164.629 48.0076C164.649 47.9565 164.706 47.9117 164.757 47.9117C164.808 47.9117 164.86 47.8733 164.872 47.8285C164.911 47.7262 166.695 47.7198 166.766 47.8222C166.791 47.8605 166.874 47.9181 166.957 47.9373C167.137 47.9948 167.84 48.692 167.898 48.8647C167.949 49.0246 168.096 49.0821 168.205 48.9734C168.249 48.9286 168.352 48.8647 168.428 48.8455C168.505 48.8199 168.569 48.7751 168.569 48.7432C168.569 48.7176 168.64 48.6728 168.729 48.6536C168.819 48.628 168.947 48.5577 169.017 48.4873C169.151 48.353 169.19 48.1675 169.081 48.1675C169.049 48.1675 169.017 48.1228 169.017 48.0716C169.017 48.014 168.972 47.9565 168.921 47.9373C168.87 47.9117 168.825 47.8605 168.825 47.8158C168.825 47.7006 168.243 47.1058 168.077 47.0546C167.994 47.0291 167.93 46.9843 167.93 46.9523C167.93 46.9203 167.846 46.882 167.738 46.8564C167.635 46.8308 167.546 46.7924 167.546 46.7604C167.546 46.7284 167.463 46.6901 167.354 46.6645C167.252 46.6389 167.162 46.5941 167.162 46.5622C167.162 46.5302 167.079 46.5046 166.977 46.5046C166.874 46.5046 166.778 46.479 166.766 46.447C166.74 46.3767 165.678 46.3191 165.199 46.3575Z" fill="#B1BED3"/>
<path d="M0.165527 53.0929V59.5527H0.869078H1.57263V53.0929V46.633H0.869078H0.165527V53.0929Z" fill="#B1BED3"/>
<path d="M8.80029 47.2726V47.9122H10.3673H11.9343V53.7325V59.5527H12.6698H13.4054V53.7325V47.9122H15.0043H16.6033V47.2726V46.633H12.7018H8.80029V47.2726Z" fill="#B1BED3"/>
<path d="M68.0894 53.0929V59.5527H70.6157H73.1421V58.8812V58.2096H71.3513H69.5604V52.4213V46.633H68.8249H68.0894V53.0929Z" fill="#B1BED3"/>
<path d="M80.1782 50.8858C80.1782 53.2267 80.2038 55.1391 80.2358 55.1391C80.2614 55.1391 80.3061 55.4717 80.3253 55.881C80.3445 56.2903 80.3893 56.6485 80.4213 56.6677C80.4532 56.6869 80.498 56.8212 80.5172 56.9555C80.5428 57.0962 80.5812 57.2241 80.6131 57.2433C80.6451 57.2625 80.6963 57.3521 80.7219 57.4416C80.7475 57.5312 80.8242 57.6463 80.8882 57.7038C80.9585 57.7614 81.0097 57.8318 81.0097 57.8573C81.0097 57.8829 81.1056 58.0045 81.2208 58.1196C81.3295 58.2347 81.5022 58.4138 81.5981 58.5097C81.8284 58.7464 81.9179 58.8167 82.0522 58.8679C82.1098 58.8871 82.161 58.9383 82.161 58.9702C82.161 59.0022 82.2505 59.047 82.3528 59.0726C82.4616 59.0982 82.5447 59.1365 82.5447 59.1685C82.5447 59.1941 82.647 59.2389 82.7686 59.2581C82.8901 59.2836 82.9924 59.3284 82.9924 59.3604C82.9924 59.3988 83.05 59.4243 83.1203 59.4243C83.1907 59.4243 83.2483 59.4499 83.2483 59.4819C83.2483 59.5139 83.4082 59.5651 83.6 59.5842C83.7919 59.6098 83.9518 59.6546 83.9518 59.6866C83.9518 59.7186 84.3548 59.7441 84.8472 59.7441C85.3525 59.7441 85.7427 59.7186 85.7427 59.6866C85.7427 59.6546 85.9282 59.6034 86.1584 59.5842C86.3887 59.5587 86.5741 59.5139 86.5741 59.4819C86.5741 59.4499 86.6189 59.4243 86.6701 59.4243C86.7212 59.4243 86.766 59.3988 86.766 59.3668C86.766 59.3348 86.8556 59.29 86.9579 59.2644C87.0666 59.2389 87.1498 59.2005 87.1498 59.1685C87.1498 59.1365 87.2393 59.0982 87.3416 59.0726C87.4504 59.047 87.5335 59.0086 87.5335 58.9766C87.5335 58.9447 87.5911 58.8999 87.6614 58.8807C87.8341 58.8295 88.7296 57.9341 88.7807 57.7614C88.7999 57.6911 88.8447 57.6335 88.8767 57.6335C88.9086 57.6335 88.947 57.5503 88.9726 57.4416C88.9982 57.3329 89.043 57.2497 89.0749 57.2497C89.1069 57.2497 89.1325 57.205 89.1325 57.1538C89.1325 57.1026 89.1581 57.0579 89.1901 57.0579C89.222 57.0579 89.2668 56.9044 89.2924 56.7189C89.318 56.5398 89.3756 56.3671 89.4139 56.3415C89.4651 56.3095 89.4907 54.96 89.5035 51.4614L89.5291 46.6325H88.7871H88.0452V51.2376C88.0452 53.7704 88.0196 55.8426 87.9876 55.8426C87.9621 55.8426 87.9173 56.0217 87.8917 56.2392C87.8725 56.4566 87.8277 56.6485 87.7958 56.6677C87.7702 56.6869 87.719 56.7764 87.6934 56.8596C87.6678 56.9427 87.5847 57.077 87.5015 57.1474C87.4248 57.2241 87.3416 57.3457 87.3161 57.4224C87.2905 57.5056 87.2201 57.5695 87.1626 57.5695C87.0986 57.5695 87.0027 57.6271 86.9387 57.6974C86.8811 57.7678 86.7916 57.8254 86.7404 57.8254C86.6893 57.8254 86.6381 57.8701 86.6125 57.9213C86.5933 57.9725 86.5358 58.0172 86.4782 58.0172C86.427 58.0172 86.3823 58.0428 86.3823 58.0748C86.3823 58.1068 86.2416 58.1516 86.0625 58.1771C85.8898 58.2027 85.7427 58.2475 85.7427 58.2795C85.7427 58.3115 85.6595 58.337 85.5508 58.337C85.4485 58.337 85.3589 58.3626 85.3589 58.401C85.3589 58.4394 85.167 58.465 84.9112 58.465C84.6554 58.465 84.4635 58.4394 84.4635 58.401C84.4635 58.3626 84.3484 58.337 84.2077 58.337C84.0669 58.337 83.9518 58.3115 83.9518 58.2795C83.9518 58.2411 83.8239 58.1963 83.664 58.1707C83.5041 58.1516 83.3762 58.1068 83.3762 58.0812C83.3762 58.0556 83.3058 58.0108 83.2163 57.9917C83.1267 57.9661 83.0564 57.9213 83.0564 57.8893C83.0564 57.8509 83.0116 57.8254 82.9604 57.8254C82.9029 57.8254 82.8453 57.7806 82.8261 57.7294C82.8005 57.6783 82.7366 57.6335 82.679 57.6335C82.5575 57.6335 82.3848 57.4544 82.3273 57.2625C82.3017 57.1922 82.2441 57.1154 82.1929 57.0962C82.1418 57.077 82.097 57.0195 82.097 56.9683C82.097 56.9171 82.065 56.866 82.0266 56.8532C81.9883 56.8404 81.9435 56.6933 81.9243 56.527C81.9051 56.3607 81.8603 56.2264 81.8348 56.2264C81.8028 56.2264 81.7772 56.1241 81.7772 56.0025C81.7772 55.881 81.7516 55.7787 81.7132 55.7787C81.6685 55.7787 81.6493 54.2117 81.6493 51.2056V46.6325H80.9138H80.1782V50.8858Z" fill="#B1BED3"/>
<path d="M96.6792 47.2726V47.9122H98.2142H99.7492V53.7325V59.5527H100.517H101.284V53.7325V47.9122H102.851H104.418V47.2726V46.633H100.549H96.6792V47.2726Z" fill="#B1BED3"/>
<path d="M111.71 53.0929V59.5527H112.414H113.118V53.0929V46.633H112.414H111.71V53.0929Z" fill="#B1BED3"/>
</svg>
