<svg width="289" height="40" viewBox="0 0 289 40" fill="none" xmlns="http://www.w3.org/2000/svg">
<path fill-rule="evenodd" clip-rule="evenodd" d="M28.5769 27.3427V39.5745H31.9805H35.3841V34.5707V29.5672L39.4791 29.6249L43.5741 29.6827L43.6311 34.6286L43.6883 39.5745H47.0879H50.4877V27.3427V15.111H47.0841H43.6805V19.8848C43.6805 22.5104 43.5996 24.7085 43.5007 24.7696C43.4018 24.8309 41.5351 24.8215 39.3526 24.7487L35.3841 24.6169V19.8639V15.111H31.9805H28.5769V27.3427ZM76.0149 27.3427V39.5745H79.1783H82.3418L82.4881 38.4715L82.6345 37.3687L82.9989 37.9242C83.9338 39.3494 85.4089 39.9999 87.7057 39.9999C91.9494 39.9999 94.5897 37.4247 95.1941 32.6964C95.7763 28.1417 94.2879 24.4328 91.2248 22.8055C90.269 22.2975 89.9348 22.2401 87.9276 22.2388C85.5025 22.2371 84.4795 22.5715 83.1944 23.7853L82.6094 24.3378V19.7244V15.111H79.3121H76.0149V27.3427ZM156.213 27.3427V39.5745H159.191H162.169V29.5408C162.169 24.0225 162.213 19.5512 162.266 19.6046C162.361 19.699 167.487 39.1788 167.487 39.443C167.487 39.5154 168.899 39.5736 170.625 39.5726L173.763 39.5707L174.592 36.5412C175.048 34.8749 176.017 31.4058 176.745 28.8318C177.474 26.2578 178.345 23.1467 178.682 21.9182L179.294 19.6846L179.349 29.6295L179.404 39.5745H182.38H185.356V27.3391V15.1035L180.098 15.1605L174.84 15.2173L174.586 16.1746C174.303 17.2414 172.516 24.8347 171.583 28.9382L170.979 31.5973L170.064 27.7682C169.56 25.6622 168.766 22.3117 168.298 20.3228C167.831 18.3338 167.357 16.3475 167.247 15.9087L167.045 15.111H161.629H156.213V27.3427ZM270.807 15.2473C270.726 15.3284 270.66 20.835 270.66 27.4846V39.5745H273.957H277.254V33.8624C277.254 28.2696 277.264 28.1351 277.739 27.4274C278.769 25.8917 281.014 25.9232 281.867 27.4855C282.207 28.1096 282.261 28.869 282.322 33.8841L282.39 39.5745H285.566H288.741V33.2306C288.741 26.0228 288.658 25.5192 287.215 24.0325C286.093 22.8765 284.739 22.2979 282.874 22.1771C280.931 22.0514 279.344 22.5028 278.157 23.5188L277.263 24.2839L277.205 19.7507L277.148 15.2173L274.051 15.1586C272.348 15.1265 270.888 15.1663 270.807 15.2473ZM103.723 22.447C101.241 23.1433 99.1961 24.7411 98.2114 26.7537C97.7366 27.7244 97.6247 28.2887 97.5428 30.1297C97.386 33.6586 97.9902 35.9373 99.5369 37.6493C101.187 39.4762 103.298 40.0965 107.411 39.9636C109.813 39.8859 110.309 39.8049 111.365 39.3184C113.472 38.3466 115.073 36.558 115.466 34.735L115.616 34.0436H112.558H109.501L109.297 34.7177C109 35.7016 108.148 36.2341 106.703 36.3374C105.671 36.4113 105.381 36.3491 104.867 35.9433C104.138 35.3683 103.669 34.337 103.669 33.3093V32.5611L109.678 32.5047L115.686 32.4482L115.613 30.871C115.423 26.7501 114.022 24.2614 111.133 22.9093C109.87 22.3183 109.508 22.2511 107.289 22.1954C105.609 22.1533 104.488 22.2324 103.723 22.447ZM128.346 22.4807C127.165 22.8872 126.287 23.6738 125.771 24.79L125.377 25.6409L125.372 24.0986L125.367 22.5564H122.037H118.705L118.846 26.7388C118.923 29.039 118.986 32.8681 118.986 35.2479V39.5745H122.158H125.33L125.402 35.1604C125.47 30.9512 125.498 30.697 126.006 29.6827C126.706 28.2815 127.861 27.6618 129.773 27.6618H131.111V24.8964V22.1309L130.207 22.1411C129.71 22.1467 128.872 22.2994 128.346 22.4807ZM194.881 22.4617C193.332 22.8372 191.734 23.6458 190.707 24.5732C189.017 26.1004 187.978 29.0994 188.2 31.81C188.413 34.4086 189.242 36.2547 190.847 37.7051C192.681 39.3618 194.679 39.9999 198.03 39.9999C202.667 39.9999 205.53 38.4615 207.137 35.1072C207.765 33.7951 207.799 33.5941 207.796 31.1718C207.793 29.0062 207.718 28.4338 207.302 27.3965C206.698 25.8924 205.114 24.1182 203.676 23.3354C201.595 22.2026 197.59 21.8048 194.881 22.4617ZM219.768 22.4809C219.214 22.6723 218.376 23.158 217.907 23.5602L217.052 24.2914V23.4239V22.5564H213.724H210.395L210.532 24.3114C210.607 25.2765 210.669 29.1056 210.669 32.8204L210.671 39.5745H213.862H217.052L217.054 34.3095C217.054 31.4137 217.149 28.704 217.265 28.2879C217.507 27.4155 218.403 26.4978 219.193 26.3125C219.492 26.2423 220.083 26.2804 220.506 26.3969C221.112 26.5641 221.368 26.8024 221.716 27.5218C222.129 28.3742 222.158 28.8005 222.158 34.0045V39.5745H225.455H228.752V33.4299C228.752 26.4729 228.637 25.7632 227.255 24.1923C226.052 22.8261 224.754 22.2711 222.583 22.1956C221.32 22.1516 220.472 22.2375 219.768 22.4809ZM236.198 22.41C234.324 22.8382 232.798 23.7808 232.073 24.9593C231.222 26.3408 231.207 28.2647 232.037 29.68C232.894 31.1422 234.097 31.7277 239.048 33.0904C240.492 33.4878 241.599 34.4131 241.377 35.0375C240.68 36.9954 237.474 36.5402 237.474 34.4831C237.474 34.0591 237.365 34.0436 234.39 34.0436H231.305V34.9592C231.305 36.2117 232.213 37.9703 233.247 38.7191C234.657 39.7404 236.325 40.0538 239.828 39.9553C243.344 39.8564 244.682 39.4779 246.038 38.1992C247.13 37.1688 247.52 36.1524 247.521 34.3289C247.521 33.1451 247.417 32.6241 247.051 31.9889C246.148 30.4194 244.929 29.8004 241.02 28.9248C238.244 28.303 237.687 28.0283 237.687 27.2802C237.687 26.9413 237.862 26.5056 238.076 26.3121C238.98 25.4937 241.091 26.2259 241.091 27.3583V27.8745H244.204H247.317L247.186 26.9166C246.913 24.9219 245.774 23.5379 243.715 22.697C242.422 22.1692 237.992 22.0001 236.198 22.41ZM255.981 22.4598C254.739 22.8051 252.817 23.8683 252.155 24.5762C251.936 24.8109 251.426 25.5537 251.021 26.227C250.083 27.7875 249.714 29.6768 249.872 32.1116C250.118 35.9113 251.639 38.2237 254.705 39.463C255.959 39.9699 260.024 40.161 261.699 39.7917C265.143 39.0318 267.301 36.9386 267.787 33.8841L267.932 32.98H264.644H261.355L261.237 33.8656C261.086 34.9907 260.502 35.7731 259.542 36.1387C258.595 36.4991 257.784 36.1715 257.219 35.1996C256.714 34.3329 256.339 31.5198 256.514 29.9112C256.829 27.0175 257.516 25.96 259.083 25.96C260.325 25.96 261.072 26.608 261.235 27.8271L261.357 28.7363L264.572 28.6776L267.788 28.6191L267.737 27.7682C267.617 25.729 265.837 23.599 263.488 22.6819C262.078 22.132 257.634 22.0005 255.981 22.4598ZM140.258 25.4282V28.5127H137.174H134.089V30.8527V33.1927H137.174H140.258V36.3836V39.5745H142.598H144.938V36.3836V33.1927H148.023H151.107V30.8527V28.5127H148.023H144.938V25.4282V22.3437H142.598H140.258V25.4282ZM54.3181 28.885C54.3187 32.5881 54.4104 35.5423 54.5393 36.006C54.8516 37.1305 55.9663 38.5009 57.1786 39.2509C58.0925 39.8162 58.4465 39.9027 60.1168 39.9687C62.3908 40.0587 63.6151 39.7591 64.861 38.808C65.8074 38.0856 66.0167 38.1505 66.0167 39.1665C66.0167 39.5513 66.2059 39.5745 69.3419 39.5745H72.667L72.5351 38.7768C72.4626 38.3381 72.4021 34.5091 72.4009 30.2677L72.3985 22.5564H69.1013H65.804V28.3106C65.804 34.6352 65.7385 35.0128 64.5347 35.6354C63.5883 36.1247 62.5348 36.0437 61.7994 35.4251C60.763 34.5529 60.6267 33.4861 60.8054 27.6478L60.9613 22.5564H57.6389H54.3168L54.3181 28.885ZM108.069 25.8596C108.738 26.2976 109.14 26.9651 109.378 28.0341L109.58 28.9382H106.608H103.635L103.783 28.2468C104.101 26.7545 104.482 26.1693 105.416 25.7366C106.4 25.2812 107.246 25.3203 108.069 25.8596ZM86.9873 26.3612C88.0426 27.0047 88.4432 28.0934 88.5283 30.5494C88.6442 33.9015 87.9703 35.5727 86.2626 36.1675C85.4206 36.4608 85.3 36.4534 84.5678 36.0611C84.0274 35.772 83.612 35.3042 83.2476 34.5754C82.7683 33.6169 82.716 33.2597 82.7187 30.9591C82.7213 28.7267 82.7815 28.2936 83.1984 27.5084C83.9902 26.0177 85.6165 25.5252 86.9873 26.3612ZM199.57 26.3918C200.731 27.0998 201.188 28.4119 201.195 31.0654C201.201 33.0317 201.139 33.425 200.671 34.3516C199.985 35.7137 199.207 36.2772 198.013 36.2772C196.883 36.2772 196.055 35.7193 195.461 34.5567C195.102 33.8558 195.035 33.3052 195.035 31.0654C195.035 28.6695 195.084 28.3208 195.531 27.541C195.804 27.0649 196.283 26.5171 196.595 26.3236C197.375 25.8394 198.715 25.8702 199.57 26.3918Z" fill="#B1BED3"/>
<path d="M242.134 1.49355C242.416 1.00214 242.942 0.449082 243.304 0.264816C244.304 -0.244201 245.321 -0.0134009 246.126 0.905332C247.228 2.16279 247.304 3.15833 247.197 14.9381C247.144 20.671 247.087 25.4574 247.069 25.5744C247.054 25.6764 247.088 26.1459 247.148 26.6737C246.817 24.8091 245.689 23.5034 243.714 22.6971C242.421 22.1693 237.992 22.0001 236.198 22.4101C234.324 22.8383 232.799 23.7809 232.073 24.9594C231.222 26.3408 231.207 28.2647 232.037 29.68C232.169 29.906 232.31 30.1111 232.471 30.3012C232.35 30.1815 232.247 30.0635 232.166 29.9497C231.941 29.6328 231.64 28.9014 231.497 28.3247C231.351 27.7306 230.904 26.8614 230.467 26.3189C230.042 25.7924 229.363 24.9037 228.958 24.3438C228.552 23.7841 227.981 23.0051 227.689 22.613C227.396 22.2208 227.013 21.6843 226.838 21.4207C225.275 19.0739 223.243 17.0464 222.117 16.7088C221.344 16.4774 221.166 16.4967 220.493 16.8869C220.005 17.17 219.646 17.5925 219.476 18.0813C219.207 18.8595 218.827 22.7026 219.02 22.7026C219.079 22.7026 219.496 22.5486 219.947 22.3603C221.141 21.8615 224.284 22.0321 225.496 22.6615C226.779 23.3273 227.827 24.4993 228.322 25.8226C228.718 26.882 228.752 27.4695 228.752 33.2406V33.4299C228.752 26.473 228.637 25.7633 227.255 24.1923C226.052 22.8262 224.754 22.2712 222.583 22.1957C221.32 22.1516 220.472 22.2375 219.768 22.4809C219.214 22.6724 218.376 23.158 217.907 23.5603L217.052 24.2914V22.5564H210.395L210.531 24.3114C210.607 25.2766 210.669 29.1056 210.669 32.8205L210.671 39.5079H210.467L210.352 22.4896L214.287 22.4898V14.926C214.287 10.2583 214.374 7.02038 214.514 6.47008C215.064 4.31238 216.895 3.55615 218.671 4.75315C219.126 5.05988 219.528 5.38578 219.563 5.47729C219.598 5.56874 219.866 5.91614 220.159 6.24904C220.596 6.74705 222.304 9.18 223.86 11.5208C224.035 11.7848 224.868 12.7646 225.71 13.6981C227.447 15.6237 228.508 16.241 229.698 16.0178C230.959 15.7813 231.125 15.2967 231.417 11.002C231.621 8.00061 231.764 7.02719 232.094 6.38818C232.906 4.81184 234.513 4.65785 235.392 6.07184C235.872 6.84427 235.88 6.95572 235.944 14.5915L236.01 22.3288L236.795 22.1988C237.227 22.1276 238.462 22.068 239.538 22.0667L241.496 22.0644L241.622 2.3872L242.134 1.49355Z" fill="#D9E1EE"/>
<path d="M217.052 39.5079H217.295L217.264 34.243C217.246 31.3471 217.24 28.7229 217.248 28.4113C217.249 28.3814 217.252 28.3501 217.258 28.3177C217.145 28.8204 217.054 31.476 217.054 34.3095L217.052 39.5079Z" fill="#D9E1EE"/>
<path d="M217.567 27.6226C217.686 27.4424 217.835 27.2577 218.006 27.0817C218.133 26.9506 218.244 26.8416 218.347 26.7511C218.047 26.9876 217.772 27.2934 217.567 27.6226Z" fill="#D9E1EE"/>
<path d="M218.911 26.4068C219.134 26.336 219.394 26.3189 219.777 26.3189C220.061 26.3189 220.311 26.3461 220.533 26.4047C220.524 26.4021 220.515 26.3996 220.506 26.397C220.083 26.2804 219.492 26.2424 219.193 26.3125C219.1 26.3343 219.006 26.3661 218.911 26.4068Z" fill="#D9E1EE"/>
<path d="M222.022 28.4741C222.107 29.4381 222.158 31.4136 222.158 33.9851C222.158 30.6032 222.145 29.2456 222.022 28.4741Z" fill="#D9E1EE"/>
<path d="M234.4 31.6024C234.853 31.8261 235.325 32.0148 235.772 32.1425L236.377 32.3145C235.574 32.0614 234.928 31.8306 234.4 31.6024Z" fill="#D9E1EE"/>
<path d="M241.224 34.3865C241.278 34.5238 241.303 34.6711 241.303 34.8314C241.303 35.6264 240.617 36.1043 239.477 36.1043C238.451 36.1043 237.474 35.3122 237.474 34.4799V33.9771H231.103L231.217 34.6684C231.248 34.8563 231.281 35.0373 231.316 35.2115C231.309 35.1255 231.305 35.0413 231.305 34.9593V34.0436H234.39C237.365 34.0436 237.474 34.0592 237.474 34.4832C237.474 36.5402 240.68 36.9954 241.377 35.0375C241.447 34.8415 241.385 34.6162 241.224 34.3865Z" fill="#D9E1EE"/>
<path d="M231.917 37.0832C232.124 37.5047 232.37 37.8659 232.665 38.1805C232.386 37.8634 232.13 37.4849 231.917 37.0832Z" fill="#D9E1EE"/>
<path d="M241.329 39.8858C242.111 39.8494 242.734 39.7709 243.282 39.6338C242.732 39.7521 242.095 39.8323 241.329 39.8858Z" fill="#D9E1EE"/>
<path d="M247.288 36.2672C247.877 34.7138 247.749 32.865 246.781 31.4033C246.103 30.3797 244.508 29.6494 241.268 28.8791C237.997 28.1016 237.7 27.9802 237.687 27.2505C237.687 27.2605 237.687 27.2704 237.687 27.2802C237.687 28.0284 238.244 28.303 241.02 28.9248C244.929 29.8004 246.148 30.4195 247.051 31.9889C247.417 32.6241 247.521 33.1451 247.52 34.3289C247.52 35.0981 247.451 35.7236 247.288 36.2672Z" fill="#D9E1EE"/>
<path d="M240.783 26.6404C240.9 26.8114 240.989 27.0095 241.047 27.2326L241.09 27.401V27.3583C241.09 27.0918 240.974 26.8476 240.783 26.6404Z" fill="#D9E1EE"/>
<path d="M241.213 27.8746L241.223 27.9144L247.315 28.0327L247.295 27.8746H241.213Z" fill="#D9E1EE"/>
<path d="M15.8394 4.36535C16.1456 2.92031 16.7159 1.80028 17.4315 1.23741C18.5315 0.372062 20.0426 0.790711 20.7741 2.1632C21.2135 2.98772 21.2394 3.37407 21.3689 11.0026C21.4432 15.3901 21.5999 19.2726 21.7166 19.6304C22.3116 21.4513 22.9899 22.1488 25.2796 23.2939C25.9815 23.6452 26.7331 24.1285 26.9494 24.3682C27.4359 24.9071 27.4673 26.2077 27.0057 26.7176C26.0927 27.7265 21.5068 28.2722 19.5428 27.6055C19.0785 27.4479 18.1923 26.8401 17.5739 26.2549C16.6552 25.3863 16.3708 24.9387 16.0245 23.8179C15.6311 22.5439 15.6005 21.8349 15.6005 13.9689C15.6005 8.50905 15.6857 5.09162 15.8394 4.36535Z" fill="#D9E1EE"/>
<path d="M68.9998 6.13863C66.7724 4.35086 66.7159 2.38678 68.8635 1.41165C69.6168 1.06934 70.2897 1.01341 73.6748 1.01045C75.8393 1.00853 77.9613 1.10445 78.3905 1.22359C78.8349 1.34699 79.4608 1.77052 79.8447 2.20786C80.4274 2.8716 80.4997 3.07986 80.3782 3.74504C80.1954 4.7476 79.8445 5.27069 78.939 5.89126C78.5322 6.16989 77.8753 6.87252 77.4794 7.45243L76.7593 8.50692L76.615 15.0444H82.6093V15.111H76.0148V26.4991L75.4836 27.1302C74.8037 27.9382 74.0454 28.1307 73.2012 27.7095C72.8407 27.5298 72.5021 27.3825 72.4483 27.3825C72.3947 27.3825 72.3866 30.1131 72.43 33.4504L72.4897 38.0364C72.4388 36.6477 72.4018 33.5837 72.4007 30.2677L72.3985 22.5564H65.8039V22.4898H70.9094V15.6756C70.9094 8.91004 70.9058 8.85411 70.4006 7.85789C70.1206 7.30608 69.4903 6.5324 68.9998 6.13863Z" fill="#D9E1EE"/>
<path d="M65.8039 28.1482C65.8039 34.4789 65.7175 34.9431 64.4258 35.5561C63.1436 36.1645 62.0077 35.879 61.3375 34.7801C60.9621 34.1643 60.9127 33.7065 60.9121 30.8319C60.9112 27.6829 60.9241 27.5872 61.3226 27.8006C62.1109 28.2224 63.1845 28.0663 63.6611 27.4602C64.5972 26.2704 64.0396 24.8998 60.9559 20.8106C58.908 18.0949 58.0982 16.3487 57.9802 14.3952C57.8951 12.9835 57.9491 12.6589 58.424 11.7212C58.7214 11.1343 59.5453 9.94366 60.2548 9.07556C61.7644 7.2276 62.7541 5.46472 62.9413 4.28875C63.0557 3.57101 62.9972 3.37786 62.5333 2.94306C62.0999 2.53656 61.8421 2.45954 61.2428 2.55677C60.2608 2.7161 59.3648 3.42211 57.4046 5.58131C55.5393 7.63602 54.7933 8.0166 53.6046 7.5199C52.8686 7.21228 52.45 6.68639 51.2453 4.55424C50.6393 3.48168 49.6386 2.70842 48.8554 2.70717C48.0423 2.70566 47.1162 3.70505 46.7194 5.01164C46.422 5.99124 46.3565 7.03103 46.3684 10.5772L46.3833 14.9381L44.0994 15.111H50.4876V38.272L50.5988 26.8507L51.4196 25.0426C51.871 24.048 52.4456 23.0197 52.6965 22.7575C53.1816 22.2505 54.3072 22.0053 54.7781 22.3037C54.979 22.4312 54.9169 22.4843 54.5639 22.4867L54.0666 22.4898L54.1408 28.9248C54.2056 34.5469 54.2307 35.302 54.5874 36.1627C54.5697 36.11 54.5535 36.0578 54.5392 36.0061C54.4104 35.5423 54.3186 32.5882 54.318 28.885L54.3167 22.5564H60.9613L60.8053 27.6478C60.6266 33.4861 60.7629 34.5529 61.7993 35.4251C62.5347 36.0437 63.5882 36.1248 64.5346 35.6355C65.7385 35.0129 65.8039 34.6352 65.8039 28.3107V28.1482Z" fill="#D9E1EE"/>
<path d="M55.365 37.5695C55.6193 37.9208 55.9047 38.2357 56.2217 38.5154C55.9074 38.2245 55.6163 37.9025 55.365 37.5695Z" fill="#D9E1EE"/>
<path d="M65.8081 38.3405L65.9103 39.4016L66.1114 39.4051C66.0304 39.3474 66.0167 39.27 66.0167 39.1665C66.0167 38.6732 65.9672 38.4041 65.8081 38.3405Z" fill="#D9E1EE"/>
<path d="M43.6875 39.5079L43.574 29.6828L35.3841 29.5672V29.7225H43.4677V39.5079H43.6875Z" fill="#D9E1EE"/>
<path d="M28.5768 15.111H35.3841V24.6169L39.3525 24.7488C41.5351 24.8216 43.4018 24.8309 43.5007 24.7696C43.5996 24.7086 43.6804 22.5105 43.6804 19.8848V15.1427L43.574 15.1508L43.4596 24.6171H41.9935C38.4279 24.6171 35.8922 22.3922 36.5358 19.8282C36.757 18.9467 38.0793 17.6731 39.5304 16.9438C41.8728 15.7668 41.9231 14.4958 39.672 13.3594C37.9019 12.466 36.8732 11.4498 36.8732 10.5946C36.8732 9.09935 38.1533 7.78279 40.1054 7.27076C41.1865 6.98699 41.9786 6.36351 41.9786 5.79596C41.9786 5.22732 41.1104 4.45448 40.2292 4.23858C37.686 3.61593 33.8634 3.78036 32.9965 4.54978C32.7547 4.76442 32.359 5.37072 32.1169 5.89718C31.7328 6.73365 31.6668 7.37136 31.5936 10.9494L31.5099 15.0444H28.5768V15.111Z" fill="#D9E1EE"/>
<path d="M82.3856 39.2444C82.4199 39.2166 82.4489 39.1859 82.4735 39.152C82.6139 38.9586 82.6093 38.6599 82.6093 38.199V37.5632L83.126 38.1086C83.0826 38.0486 83.0402 37.9872 82.9988 37.9242L82.6345 37.3688L82.6093 37.5632L82.488 38.4716L82.3856 39.2444Z" fill="#D9E1EE"/>
<path d="M89.148 39.8919C89.703 39.8421 90.0865 39.7365 90.588 39.5211C90.1374 39.6881 89.6571 39.812 89.148 39.8919Z" fill="#D9E1EE"/>
<path d="M93.3792 37.4934C93.7369 37.0755 94.0452 36.6216 94.2864 36.149C94.7011 35.3363 94.9996 34.1682 95.1654 32.9088C94.8951 34.8026 94.29 36.3402 93.3792 37.4934Z" fill="#D9E1EE"/>
<path fill-rule="evenodd" clip-rule="evenodd" d="M95.3164 30.5732C95.3145 29.2857 95.1664 28.0689 94.8546 27.1962C94.6718 26.6844 94.522 26.2215 94.522 26.1679C94.522 26.1143 94.881 26.3485 95.3197 26.6882C95.7585 27.0279 96.4621 27.5136 96.8832 27.7674L97.6493 28.2288L97.4657 29.3988C97.2473 30.791 97.5313 33.6405 98.037 35.1294C98.4645 36.3889 99.0518 37.304 99.9309 38.0539C99.7963 37.9262 99.6652 37.7914 99.5369 37.6494C97.99 35.9374 97.3859 33.6586 97.5428 30.1297C97.6246 28.2888 97.7366 27.7244 98.2113 26.7538C99.196 24.7411 101.241 23.1433 103.723 22.4471C104.488 22.2324 105.609 22.1533 107.289 22.1954C109.508 22.2512 109.87 22.3184 111.133 22.9094C114.022 24.2614 115.423 26.7501 115.613 30.8711L115.686 32.4482L111.464 32.488H115.839L115.685 30.7494C115.6 29.7932 115.451 28.7317 115.353 28.3902C115.206 27.8765 115.231 27.7912 115.502 27.8952C115.682 27.9642 116.492 28.0207 117.301 28.0207H118.773V39.5079H118.986V35.2479C118.986 32.8681 118.923 29.0391 118.846 26.7389L118.719 22.9576C118.597 23.0868 118.253 23.128 117.499 23.128C114.04 23.128 111.17 20.6532 110.175 16.8124C109.206 13.0735 110.63 8.86943 113.561 6.81893C115.133 5.71894 117.362 5.4147 119.405 6.02141C124.338 7.48624 126.784 13.6492 124.381 18.5567C123.233 20.9014 121.34 22.4898 119.694 22.4898C119.367 22.4898 119.141 22.5096 118.995 22.5564H125.367L125.377 25.6409L125.771 24.79C126.287 23.6739 127.164 22.8872 128.345 22.4807C128.872 22.2994 129.71 22.1467 130.207 22.1412L131.111 22.131V22.0133L129.888 22.1257C129.644 22.1481 129.387 22.1781 129.146 22.2113C128.723 22.2694 128.349 22.3373 128.178 22.3907C127.709 22.5381 127.718 22.4924 128.424 21.0807C129.655 18.6225 129.939 17.3812 129.927 14.5126C129.919 12.6802 129.807 11.5998 129.529 10.6835C128.033 5.74979 124.232 2.17873 119.42 1.1849C117.698 0.829195 114.917 1.17638 113.029 1.98241C110.355 3.1241 107.975 5.40556 106.678 8.0689C105.632 10.2185 105.277 11.868 105.271 14.619C105.266 17.251 105.727 19.2968 106.74 21.1323L107.224 22.0082L105.5 22.1199C103.509 22.2491 101.93 22.8066 100.423 23.9128C99.439 24.6356 99.3802 24.6514 99.1018 24.2708C98.9417 24.0517 98.495 23.1091 98.1097 22.1756C97.0363 19.5761 97.1067 18.8475 98.7458 15.6037C99.9384 13.2435 100.096 12.7836 100.205 11.3396C100.522 7.14762 98.4385 4.48808 94.0218 3.44636C92.3212 3.04537 89.5643 3.04771 88.2056 3.45104C86.9145 3.83458 85.5247 5.21626 85.1793 6.45985C85.0374 6.97125 84.9512 10.1249 84.9506 14.8398L84.9493 22.3997L82.6093 23.9755V24.3378L83.1943 23.7854C84.4794 22.5715 85.5023 22.2371 87.9275 22.2388C89.9347 22.2401 90.2689 22.2976 91.2247 22.8055C93.7962 24.1716 95.2578 27.0045 95.3164 30.5732ZM94.754 10.3453C94.6209 9.90029 94.2619 9.33975 93.9563 9.09955C93.1964 8.50183 91.9448 8.52115 91.2235 9.14167C90.1626 10.0541 90.3605 12.2839 91.5594 12.9255C93.3173 13.8664 95.3235 12.246 94.754 10.3453Z" fill="#D9E1EE"/>
<path d="M125.758 30.2273C125.486 30.9487 125.457 31.7775 125.402 35.1605L125.331 39.5079H125.59L125.566 35.0403C125.55 31.8661 125.562 30.8988 125.758 30.2273Z" fill="#D9E1EE"/>
<path d="M103.669 33.2393V33.3093C103.669 33.5208 103.689 33.7323 103.727 33.94C103.689 33.7191 103.669 33.4851 103.669 33.2393Z" fill="#D9E1EE"/>
<path d="M103.985 34.7756C104.194 35.2423 104.497 35.6515 104.867 35.9433C105.381 36.3492 105.671 36.4113 106.703 36.3375C108.147 36.2341 109 35.7017 109.297 34.7178L109.501 34.0436H115.006C114.54 33.9716 113.756 33.9771 112.54 33.9771H109.498L109.236 34.7014C108.896 35.6436 108.146 36.1148 106.788 36.2411C105.48 36.3629 104.47 35.8019 103.985 34.7756Z" fill="#D9E1EE"/>
<path d="M115.555 34.3248L115.466 34.735C115.429 34.9061 115.382 35.0768 115.324 35.2466C115.53 34.8017 115.632 34.5127 115.555 34.3248Z" fill="#D9E1EE"/>
<path d="M113.401 37.9964C113.815 37.6325 114.181 37.2352 114.489 36.8165C114.188 37.2612 113.848 37.629 113.401 37.9964Z" fill="#D9E1EE"/>
<path d="M134.407 1.9177C134.815 1.59098 135.366 1.2587 135.63 1.17913C135.894 1.09978 138.025 1.05194 140.365 1.07277C145.155 1.11572 145.84 1.28378 146.543 2.58995C146.909 3.26874 146.909 3.34748 146.56 4.26325C146.295 4.95632 145.872 5.47152 145.042 6.11225C144.131 6.81425 143.799 7.24313 143.457 8.1587C143.056 9.23064 143.024 9.79839 143.024 15.7971V22.2771H144.938V22.3437H140.258V28.2454C140.258 28.1412 139.899 27.8803 139.46 27.6659C138.853 27.3691 138.511 26.9718 138.025 25.9998L137.386 24.7235L137.28 16.6399C137.195 10.1478 137.232 8.49441 136.49 7.34456C136.169 6.84832 135.704 6.44588 135.02 5.78869C133.736 4.55404 133.664 4.43214 133.664 3.4983C133.664 2.62631 133.75 2.44272 134.407 1.9177Z" fill="#D9E1EE"/>
<path d="M136.102 28.5128L137.12 28.4936C138.846 28.4613 140.258 28.3496 140.258 28.2454V28.5128H136.102Z" fill="#D9E1EE"/>
<path d="M134.089 28.5506L133.983 28.5525V33.2325L140.258 33.3502V33.1927H134.089V28.5506Z" fill="#D9E1EE"/>
<path d="M144.938 33.3502L151.214 33.2325V28.5525L151.107 28.5506V33.1927H144.938V33.3502Z" fill="#D9E1EE"/>
<path d="M149.094 28.5128L144.938 28.4349V28.5128H149.094Z" fill="#D9E1EE"/>
<path fill-rule="evenodd" clip-rule="evenodd" d="M169.579 4.96863C171.015 3.48277 172.557 2.43846 173.991 1.98174C174.768 1.73416 175.726 1.66416 177.698 1.71074C181.678 1.80495 183.074 2.58102 182.714 4.49981C182.501 5.63512 181.95 5.87828 179.109 6.09012C177.129 6.23798 176.404 6.38542 175.513 6.82106C170.916 9.07063 169.466 15.8 172.636 20.1764C172.932 20.5849 173.099 20.8699 173.24 20.8577C173.474 20.8375 173.637 19.9981 174.203 17.5439L174.78 15.0444H185.356V15.1036L174.84 15.2174L174.586 16.1746C174.303 17.2415 172.516 24.8348 171.583 28.9382L170.979 31.5973L170.064 27.7682C169.56 25.6622 168.766 22.3118 168.298 20.3228C168.116 19.5459 167.932 18.7694 167.77 18.0854C167.516 17.0182 167.314 16.1761 167.247 15.9087L167.045 15.111H156.213V27.8984L155.336 27.8635C154.157 27.8165 152.595 27.0079 152.027 26.1515C151.214 24.9232 151.107 23.6854 151.107 15.498C151.107 8.95746 151.163 7.48692 151.447 6.52092C152.108 4.27301 152.847 3.8848 156.425 3.90417C159.23 3.91908 160.354 4.19049 161.15 5.04524C161.959 5.9138 161.39 6.743 159.615 7.28032C158.812 7.52327 157.978 7.96913 157.453 8.43525C156.739 9.0687 156.579 9.36209 156.484 10.2066C156.376 11.1626 156.414 11.2607 157.167 11.9705C157.605 12.3839 158.407 12.9491 158.949 13.2263C160.001 13.7638 160.893 14.5043 160.893 14.84C160.893 14.9583 161.87 15.0444 163.212 15.0444H165.531L165.676 13.7149C166.068 10.1189 167.326 7.30057 169.579 4.96863ZM156.064 20.788C156.064 21.4316 156.104 21.6949 156.152 21.373C156.201 21.0512 156.201 20.5249 156.152 20.203C156.104 19.8812 156.064 20.1445 156.064 20.788ZM171.025 31.1053C171.061 30.9882 171.316 29.9232 171.592 28.7383L172.094 26.584L170.598 25.2283C169.776 24.4827 169.157 24.0162 169.224 24.1916C169.29 24.3671 169.708 26.0424 170.152 27.9144C170.596 29.7864 170.989 31.2223 171.025 31.1053Z" fill="#D9E1EE"/>
<path d="M162.169 39.5079H162.382L162.42 20.1203C162.329 19.7964 162.275 19.6136 162.266 19.6046C162.213 19.5512 162.169 24.0225 162.169 29.5409V39.5079Z" fill="#D9E1EE"/>
<path d="M163.161 22.853C163.6 24.5276 164.554 28.1951 165.447 31.6371C166.463 35.5566 167.345 38.9308 167.405 39.1357C167.414 39.1652 167.425 39.1925 167.439 39.2176C167.06 37.618 164.539 28.0015 163.161 22.853Z" fill="#D9E1EE"/>
<path d="M173.78 39.5079H173.784L175.349 33.8175C175.411 33.5907 175.472 33.3667 175.533 33.1464C175.156 34.4972 174.814 35.7319 174.592 36.5413L173.78 39.5079Z" fill="#D9E1EE"/>
<path d="M176.957 28.0816C177.07 28.0525 177.579 27.9807 178.178 27.9108L179.338 27.7754L179.314 23.3635C179.242 23.5505 179.11 23.5535 178.868 23.5535C178.576 23.5535 178.334 23.4816 178.331 23.3939C178.326 23.1908 179.086 20.4078 179.294 19.8293L179.293 19.6846L178.681 21.9182C178.377 23.0294 177.635 25.6807 176.957 28.0816Z" fill="#D9E1EE"/>
<path d="M179.4 38.8268V39.5079H179.404L179.4 38.8268Z" fill="#D9E1EE"/>
<path d="M263.215 5.64021C264.336 4.29602 265.507 3.1979 266.299 2.7482C267.548 2.03814 268.745 2.728 268.745 4.15839C268.745 5.13457 267.517 7.39499 266.066 9.08808C262.772 12.9331 262.88 15.4595 266.549 20.4049C268.989 23.6943 269.809 25.1734 269.809 26.2887C269.809 27.4255 269.359 28.0207 268.499 28.0207C268.103 28.0207 267.894 28.1309 267.894 28.3398C267.894 28.405 267.865 28.4574 267.781 28.4993L267.737 27.7682C267.617 25.729 265.837 23.599 263.488 22.6819C262.078 22.1321 257.634 22.0006 255.981 22.4599C254.739 22.8051 252.817 23.8683 252.155 24.5763C251.936 24.8109 251.426 25.5537 251.021 26.227C250.083 27.7876 249.714 29.6768 249.872 32.1117C250.035 34.6229 250.754 36.4845 252.108 37.816C250.58 36.3362 249.811 34.1126 249.815 31.1678C249.818 28.6342 250.369 26.8161 251.65 25.1036L252.162 24.4201L252.215 14.9991C252.273 4.79782 252.312 4.42877 253.432 3.30811C254.61 2.13001 256.125 2.71564 257.15 4.74526C257.956 6.34284 259.023 7.53262 259.805 7.70411C260.725 7.9064 261.936 7.17375 263.215 5.64021Z" fill="#D9E1EE"/>
<path d="M265.626 37.9085C266.688 37.0018 267.399 35.8537 267.696 34.5255C267.823 33.959 267.916 33.5684 267.88 33.299L267.787 33.8841C267.527 35.5206 266.787 36.8811 265.626 37.9085Z" fill="#D9E1EE"/>
<path d="M267.721 32.98C267.388 32.6916 266.5 32.7007 264.524 32.7007H261.354L261.21 33.7916C261.017 35.2402 260.201 36.1043 259.023 36.1043C258.572 36.1043 257.993 35.9571 257.736 35.7774C257.018 35.274 256.619 33.5722 256.621 31.0134C256.622 28.3394 256.869 27.3132 257.713 26.4687C257.814 26.3683 257.901 26.2841 257.983 26.2141C257.168 26.6771 256.743 27.8101 256.514 29.9112C256.339 31.5199 256.714 34.333 257.219 35.1996C257.784 36.1716 258.595 36.4991 259.542 36.1388C260.502 35.7731 261.086 34.9907 261.237 33.8656L261.355 32.98H267.721Z" fill="#D9E1EE"/>
<path d="M260.958 26.9314C261.079 27.1773 261.164 27.4755 261.222 27.8335L261.308 28.374L261.235 27.8272C261.189 27.4823 261.096 27.1831 260.958 26.9314Z" fill="#D9E1EE"/>
<path d="M187.377 16.0017C187.377 5.95249 187.424 5.44239 188.465 4.20498C189.082 3.47191 189.72 3.38253 190.703 3.89139C191.487 4.29664 192.054 5.48814 192.356 7.36523C193.022 11.4966 194.812 13.2243 197.907 12.7225C200.375 12.3226 201.166 11.32 201.949 7.59899C202.643 4.30049 203.163 3.55719 204.778 3.55719C205.905 3.55719 206.709 4.38192 207.027 5.86441C207.347 7.35609 207.355 24.1838 207.037 25.3315C206.842 26.0341 206.878 26.3091 207.291 27.246C207.657 28.0764 207.794 28.8625 207.863 30.5103C207.897 31.3501 207.868 32.1258 207.773 32.843C207.794 32.426 207.796 31.899 207.796 31.1718C207.793 29.0063 207.718 28.4339 207.302 27.3966C206.698 25.8924 205.114 24.1183 203.676 23.3354C202.582 22.7399 200.956 22.3476 199.266 22.2048C200.144 22.232 200.884 22.2831 201.171 22.3437L201.988 22.5166L201.847 21.8119C201.284 18.9948 200.377 17.618 198.796 17.1785C197.687 16.8707 196.224 16.9213 195.356 17.2978C193.607 18.0564 192.816 19.4702 192.317 22.7334L192.231 23.2963L193.633 22.747C194.63 22.3567 195.143 22.2373 196.54 22.1997C195.955 22.2506 195.395 22.3372 194.881 22.4618C193.332 22.8372 191.733 23.6458 190.707 24.5733C189.017 26.1005 187.978 29.0995 188.2 31.81C188.344 33.5758 188.774 34.9941 189.538 36.1769C189.056 35.4465 188.699 34.6161 188.452 33.6665C188.066 32.1842 188.028 30.392 188.351 28.8848C188.564 27.8942 188.536 27.7214 187.979 26.5876L187.377 25.3616V16.0017Z" fill="#D9E1EE"/>
<path d="M194.108 39.5462C194.458 39.6748 194.783 39.7494 195.227 39.7978C194.833 39.7315 194.461 39.6481 194.108 39.5462Z" fill="#D9E1EE"/>
<path d="M200.912 39.7603C201.616 39.6511 202.226 39.4791 202.815 39.2286C202.231 39.4574 201.597 39.6341 200.912 39.7603Z" fill="#D9E1EE"/>
<path d="M205.473 37.5108C206.335 36.7104 206.955 35.7688 207.349 34.6519C207.287 34.7902 207.217 34.9397 207.137 35.1073C206.685 36.0498 206.135 36.8489 205.473 37.5108Z" fill="#D9E1EE"/>
<path d="M1.72345 5.01776C2.02426 4.6604 2.46986 4.28283 2.71313 4.17901C2.9566 4.07499 4.54415 4.01225 6.24056 4.03946C9.66288 4.09436 10.6108 4.39044 11.0113 5.52979C11.2903 6.32305 10.7957 6.80257 9.1992 7.28588C7.36839 7.84023 6.23433 8.88943 6.0912 10.1615C5.94931 11.4204 6.49484 12.0928 8.58762 13.2401C9.43333 13.7036 10.2219 14.295 10.3399 14.5541C10.7093 15.3644 10.1976 16.1693 8.91294 16.7994C6.08289 18.1875 5.0257 20.0594 5.89571 22.1418C6.28543 23.0748 7.02001 23.6205 8.80429 24.3023C10.9413 25.1189 11.5278 26.1685 10.2736 26.9314C9.2636 27.5455 6.4215 28.085 5.11772 27.9099C2.96075 27.6204 1.98728 27.0022 1.27162 25.468C0.848448 24.5599 0.821442 24.1015 0.748109 16.5335C0.66252 7.67539 0.79402 6.12248 1.72345 5.01776Z" fill="#D9E1EE"/>
<path d="M270.659 27.4846V15.0444H277.245L277.36 24.0415L277.999 23.5084C279.229 22.4803 279.836 22.2226 281.636 22.1784C280.247 22.2791 279.081 22.7279 278.157 23.5188L277.262 24.284L277.148 15.2174L274.051 15.1587C272.348 15.1265 270.888 15.1663 270.807 15.2474C270.726 15.3284 270.659 20.8351 270.659 27.4846Z" fill="#D9E1EE"/>
<path d="M282.787 22.1719C282.816 22.1735 282.845 22.1753 282.874 22.1771C284.739 22.298 286.093 22.8766 287.215 24.0326C288.42 25.274 288.677 25.83 288.729 30.1764C288.706 26.8121 288.627 26.1953 288.344 25.5744C287.767 24.3082 286.901 23.3886 285.682 22.7454C284.773 22.2657 284.428 22.1818 282.787 22.1719Z" fill="#D9E1EE"/>
<path d="M282.342 35.538L282.322 33.8841C282.263 29.0307 282.211 28.1634 281.899 27.5468C282.184 28.4635 282.262 30.213 282.318 33.9239L282.342 35.538Z" fill="#D9E1EE"/>
<path d="M279.185 26.3812C279.568 26.2776 279.967 26.2668 280.346 26.3486C279.974 26.3098 279.557 26.322 279.185 26.3812Z" fill="#D9E1EE"/>
<path d="M277.565 27.7083C277.261 28.2806 277.254 29.0534 277.254 33.8624V33.9703C277.254 30.2478 277.293 28.5944 277.565 27.7083Z" fill="#D9E1EE"/>
<path d="M108.512 26.2237C108.842 26.6448 109.153 27.2409 109.309 27.7503C109.129 27.088 108.874 26.5959 108.512 26.2237Z" fill="#D9E1EE"/>
<path d="M109.39 28.0878L109.58 28.9382H103.635L103.783 28.2468C104.057 26.9639 104.377 26.3515 105.054 25.9299C104.381 26.4674 104.062 27.0471 103.873 28.0739L103.726 28.8716H109.413V28.3313C109.413 28.2568 109.405 28.175 109.39 28.0878Z" fill="#D9E1EE"/>
<path d="M105.824 25.5737C106.311 25.4502 106.887 25.4318 107.373 25.525C106.882 25.3737 106.374 25.3903 105.824 25.5737Z" fill="#D9E1EE"/>
<path d="M87.7349 27.9846C86.8998 28.1045 86.0167 27.5859 85.5719 26.7139C85.4105 26.3974 85.2586 26.1242 85.1733 25.9918C85.7678 25.8891 86.4008 26.0036 86.9872 26.3612C87.6317 26.7542 88.032 27.3132 88.2653 28.248C88.1564 27.9851 88.0197 27.9437 87.7349 27.9846Z" fill="#D9E1EE"/>
<path d="M88.5351 30.7845C88.5347 31.0355 88.5299 31.2882 88.5202 31.5307C88.3947 34.6644 87.4225 36.1043 85.4325 36.1043C84.9848 36.1043 84.4177 35.9637 84.1722 35.7916C84.1391 35.7685 84.1063 35.7433 84.0739 35.7163C84.2268 35.8524 84.3905 35.9664 84.5677 36.0612C85.3 36.4534 85.4205 36.4609 86.2624 36.1675C87.93 35.5868 88.6118 33.98 88.5351 30.7845Z" fill="#D9E1EE"/>
<path d="M83.8354 35.4762C83.3073 34.8492 82.8995 33.6993 82.7323 32.3482C82.7678 33.4733 82.8869 33.854 83.2475 34.5755C83.428 34.9364 83.6208 35.2333 83.8354 35.4762Z" fill="#D9E1EE"/>
<path d="M82.7535 29.2149C82.8042 28.3896 82.9238 28.0253 83.1983 27.5085C83.39 27.1474 83.6308 26.8449 83.905 26.6056C83.3217 27.1876 82.9324 28.0708 82.7535 29.2149Z" fill="#D9E1EE"/>
<path d="M196.303 26.5585C196.032 26.8167 195.728 27.1975 195.531 27.541C195.255 28.0225 195.131 28.3396 195.076 29.0756C195.121 28.7971 195.176 28.5407 195.243 28.3166C195.436 27.6665 195.846 27.0093 196.303 26.5585Z" fill="#D9E1EE"/>
<path d="M199.851 26.5859C200.133 26.8412 200.403 27.1756 200.532 27.4477C201.095 28.6332 201.338 30.7958 201.098 32.4844C200.981 33.3142 200.819 33.9792 200.594 34.5013C200.62 34.4526 200.646 34.4027 200.671 34.3517C201.139 33.425 201.201 33.0317 201.195 31.0655C201.188 28.6373 200.805 27.3325 199.851 26.5859Z" fill="#D9E1EE"/>
<path d="M199.835 35.5671C199.376 35.9416 198.781 36.1043 198.007 36.1043C196.566 36.1043 195.757 35.4136 195.268 33.7654C195.185 33.4846 195.117 33.1577 195.066 32.8031C195.112 33.6868 195.221 34.0882 195.461 34.5568C196.055 35.7193 196.883 36.2773 198.013 36.2773C198.755 36.2773 199.337 36.0593 199.835 35.5671Z" fill="#D9E1EE"/>
</svg>
