<svg width="172" height="45" viewBox="0 0 172 45" fill="none" xmlns="http://www.w3.org/2000/svg">
<path fill-rule="evenodd" clip-rule="evenodd" d="M74.6253 0.177166C74.9656 0.116616 75.3586 0.0548292 75.4986 0.0398374C75.6387 0.0248455 76.3431 0.00730646 77.0638 0.000902171C81.0093 -0.0341759 83.9406 0.951721 86.8717 3.29962C87.5801 3.86706 87.5825 3.87019 87.4462 4.02171C87.3709 4.1054 86.7089 4.89436 85.9751 5.77495C85.2412 6.65554 84.535 7.49611 84.4056 7.64282L84.1703 7.90969L83.5279 7.39349C81.453 5.72634 79.7849 5.07768 77.2852 4.96575C74.3397 4.83388 71.5757 6.15135 69.756 8.55441C69.2879 9.17257 68.6403 10.4443 68.4387 11.1417C68.3547 11.4321 68.2702 11.7165 68.2509 11.7734C68.2307 11.833 68.017 11.5425 67.7466 11.0881C66.9454 9.74125 65.7841 8.34496 64.6975 7.42195L64.3397 7.11803L64.8211 6.41007C67.0008 3.20494 70.651 0.88433 74.6253 0.177166ZM33.6815 3.86655C34.3579 1.88333 35.7729 0.646134 37.8716 0.20322C38.3233 0.107883 38.8283 0.0712766 39.7292 0.0685839C41.1109 0.0645084 41.5992 0.116616 42.8404 0.400515L43.6955 0.596137V2.88473C43.6955 5.0298 43.6875 5.17106 43.5682 5.13671C43.4982 5.11662 43.1552 5.0159 42.8063 4.91292C40.9559 4.36703 39.4653 4.52248 38.8863 5.32178C38.5875 5.7342 38.4621 6.21925 38.4076 7.17269L38.3607 7.99462H41.0281H43.6955V10.2143V12.434H41.1123H38.5291L38.5105 20.4211L38.492 28.4083H35.8721H33.2522L33.2337 20.4211L33.2151 12.434H31.9783H30.7414V10.2143V7.99462H31.9672H33.1929L33.2397 6.80954C33.2922 5.47715 33.418 4.63892 33.6815 3.86655ZM166.76 10.3481V5.27687V0.205767L169.362 0.224834L171.963 0.243974L171.982 14.3443L172 28.4447H169.38H166.76V27.1231V25.8015L166.232 26.3424C165.018 27.5871 163.752 28.3123 162.152 28.6792C161.254 28.8853 159.509 28.9005 158.626 28.71C156.684 28.2909 155.138 27.4554 153.765 26.0835C151.742 24.0614 150.747 21.4349 150.75 18.1262C150.754 14.8543 151.689 12.3266 153.637 10.3179C155.065 8.84457 156.762 7.94164 158.754 7.59348C159.546 7.4552 161.107 7.45455 161.896 7.5921C163.554 7.88131 164.962 8.61038 166.232 9.83818L166.76 10.3481ZM15.3586 9.81657C16.4452 8.64291 18.0527 7.78612 19.6431 7.533C19.7631 7.51386 20.4181 7.50811 21.0986 7.52012C22.0972 7.53781 22.4547 7.57339 22.9525 7.70483C25.4694 8.36942 27.1432 10.0021 27.8753 12.5067C28.2602 13.8234 28.2661 13.9592 28.2666 21.4764L28.267 28.4447H25.6501H23.0331L23.0081 22.0222C22.9857 16.2199 22.9711 15.5547 22.8577 15.1331C22.3569 13.2712 21.0725 12.291 19.1336 12.291C17.5098 12.291 16.1692 13.0719 15.5153 14.3989C15.4149 14.6026 15.3339 14.7571 15.2683 14.918C14.9792 15.6272 14.9908 16.459 14.968 22.1678L14.943 28.4447H12.3258H9.70861L9.7271 18.1651L9.74551 7.88546L12.3473 7.86632L14.949 7.84725V9.05308V10.259L15.3586 9.81657ZM44.9385 14.8115C46.2176 10.9046 49.7169 8.09622 53.9737 7.56051C54.8429 7.45113 56.7956 7.5282 57.6321 7.7049C59.8827 8.18027 61.6139 9.10729 63.2015 10.6873C64.6654 12.1443 65.578 13.8254 66.0506 15.9359C66.1968 16.5888 66.2197 16.8889 66.2197 18.1469C66.2197 19.7369 66.1509 20.2163 65.7337 21.5292C65.2578 23.0269 64.4775 24.3081 63.2908 25.5399C61.7499 27.1393 59.8434 28.1885 57.6073 28.6679C56.5912 28.8857 54.6959 28.9383 53.6132 28.7789C50.1248 28.265 47.1785 26.2144 45.5913 23.1955C44.2363 20.6181 44.006 17.6602 44.9385 14.8115ZM142.782 10.6675C143.891 9.01451 145.611 7.87003 147.449 7.56146C147.643 7.52893 148.17 7.49843 148.62 7.49378L149.439 7.48519V10.2507V13.0162L148.657 13.0171C145.835 13.0206 143.766 14.5114 142.898 17.1665C142.507 18.3627 142.505 18.3926 142.459 23.5687L142.416 28.4083H139.796H137.176L137.158 18.1287L137.139 7.84907H139.796H142.453V9.50392V11.1589L142.782 10.6675ZM118.148 8.50202C119.394 8.0933 120.914 7.79332 122.33 7.67688C123.144 7.60993 125.547 7.69551 126.224 7.81559C128.156 8.15829 129.417 8.74633 130.576 9.84546C131.814 11.0192 132.591 12.6955 132.839 14.7264C132.891 15.1574 132.919 17.6152 132.919 21.913L132.919 28.4447H130.372H127.825V27.4603V26.476L127.37 26.8617C125.73 28.2523 123.461 28.9865 121.201 28.8576C117.626 28.6537 115.036 26.7181 114.38 23.7605C114.194 22.9181 114.229 21.4441 114.458 20.5686C115.225 17.632 117.73 15.9366 121.761 15.6261C123.678 15.4784 125.605 15.6865 127.667 16.2638C127.836 16.3109 127.837 16.3061 127.791 15.8828C127.664 14.7266 127.363 14.023 126.739 13.4278C126.253 12.9641 125.765 12.7012 124.998 12.4882C124.521 12.3561 124.241 12.3336 123.058 12.3326C121.222 12.3309 120.076 12.5513 118.189 13.2689C117.712 13.4501 117.314 13.5984 117.303 13.5984C117.293 13.5984 116.982 12.6895 116.612 11.5788C116.243 10.4681 115.927 9.52226 115.911 9.47707C115.876 9.38217 117.124 8.83817 118.148 8.50202ZM92.5491 15.1001C92.5326 11.2229 92.5367 8.00488 92.5582 7.94892C92.5908 7.86399 93.0257 7.85038 95.2008 7.86632L97.8045 7.88546L97.8425 14.3625C97.8771 20.2565 97.8714 20.9738 98.1078 21.5996C98.1513 21.7148 98.2029 21.8269 98.2646 21.9676C98.8842 23.3816 100.217 24.09 102.062 23.9853C103.873 23.8824 105.133 22.8755 105.683 21.091C105.792 20.7365 105.809 20.0099 105.844 14.2897L105.883 7.88546L108.521 7.86639L111.159 7.84725V18.1469V28.4465L108.521 28.4274L105.883 28.4083L105.863 27.2639L105.843 26.1196L105.276 26.6861C104.274 27.6877 103.173 28.3155 101.793 28.6713C101.267 28.807 100.951 28.8372 100.024 28.8404C98.7453 28.845 98.0679 28.7323 97.0275 28.342C95.0794 27.611 93.6723 26.0717 93.0072 23.9438C92.9281 23.691 92.8638 23.4913 92.8112 23.2885C92.5726 22.3692 92.5758 21.3872 92.5491 15.1001ZM58.9075 13.4325C58.4214 13.0164 57.3689 12.4869 56.7224 12.3333C56.1154 12.189 55.0674 12.1344 54.4804 12.2164C51.4738 12.6363 49.5525 15.1719 49.6833 18.5471C49.7263 19.6536 49.8409 20.1035 50.3324 21.0943C50.6628 21.7603 50.8008 21.9481 51.4064 22.5562C52.0021 23.1546 52.1997 23.3023 52.7925 23.5929C53.6688 24.0224 54.1659 24.1519 55.1214 24.1999C57.8125 24.3353 60.0554 22.7191 60.8155 20.0966C60.9582 19.6041 60.9798 19.3623 60.9798 18.256C60.9798 17.1437 60.9587 16.9094 60.8127 16.4052C60.4778 15.2486 59.8078 14.2032 58.9075 13.4325ZM166.107 15.0813C165.481 13.8104 164.405 12.8414 163.104 12.3768C162.645 12.2129 162.437 12.1852 161.52 12.166C160.671 12.1482 160.372 12.1698 159.992 12.2764C158.494 12.696 157.416 13.5966 156.722 15.0075C156.299 15.8679 156.164 16.3543 156.052 17.4195C155.907 18.7931 156.117 19.9986 156.713 21.2035C157.628 23.0555 159.154 24.0952 161.11 24.1992C162.057 24.2497 162.722 24.1125 163.594 23.6865C164.768 23.1128 165.558 22.3224 166.146 21.1307C166.666 20.0793 166.785 19.5201 166.783 18.1469C166.781 16.749 166.661 16.2049 166.107 15.0813ZM76.2992 17.7466V15.381V13.0153L82.2486 13.0339L88.1981 13.0526L88.2167 18.8146L88.2353 24.5766L87.6345 25.0591C85.0624 27.1244 81.8756 28.4581 78.6854 28.8046C77.7934 28.9015 75.8825 28.9027 75.0256 28.807C72.3496 28.5079 69.7673 27.4869 67.8743 25.9792L67.4912 25.6741L67.7875 25.149C68.2536 24.3233 68.575 23.6005 68.8786 22.6954C69.1474 21.8937 69.457 20.5688 69.4593 20.2096C69.462 19.8135 69.5767 19.8685 69.9612 20.4499C70.9754 21.9832 72.744 23.2314 74.5776 23.7078C76.4057 24.1828 78.7048 24.0706 80.5711 23.415C81.2477 23.1774 82.4969 22.5669 82.8091 22.3213L82.9946 22.1754V19.961V17.7466H79.6469H76.2992ZM127.376 19.6526C126.605 19.4261 125.923 19.2943 125.067 19.2064C122.754 18.9691 121.031 19.3488 120.105 20.2997C119.627 20.7901 119.435 21.3078 119.429 22.12C119.425 22.6829 119.448 22.7932 119.66 23.2236C120.185 24.2903 121.273 24.8059 123 24.8059C124.86 24.8059 126.376 24.1669 127.221 23.0262C127.728 22.3415 127.848 21.9389 127.881 20.7976L127.911 19.8095L127.376 19.6526ZM50.8002 38.9265C51.2768 37.959 52.2153 37.1788 53.2656 36.877C53.8198 36.7177 54.9276 36.7062 55.5513 36.8532C56.0992 36.9824 56.7085 37.2921 57.1786 37.6807L57.515 37.9587L57.0747 38.478C56.8325 38.7635 56.6217 38.9972 56.6063 38.9972C56.5908 38.9972 56.4223 38.8776 56.2318 38.7313C55.5922 38.2402 55.1695 38.0898 54.43 38.0901C53.8569 38.0903 53.7249 38.1157 53.3747 38.294C52.8478 38.5621 52.4634 38.9404 52.2078 39.4425C51.4858 40.8605 52.0088 42.6396 53.3402 43.2948C53.6546 43.4495 53.8027 43.4729 54.4664 43.4729C55.3312 43.4729 55.6223 43.372 56.299 42.8371L56.6673 42.5459L57.1133 42.9955L57.5594 43.4451L57.1258 43.852C56.2076 44.7137 54.8327 45.0674 53.4994 44.7849C50.9317 44.2408 49.603 41.3568 50.8002 38.9265ZM121.302 39.5537C121.725 38.1958 122.798 37.1691 124.133 36.8457C124.66 36.718 125.731 36.7216 126.289 36.853C126.831 36.9808 127.597 37.3706 127.993 37.72L128.27 37.9647L127.825 38.4809C127.581 38.7649 127.367 38.9972 127.349 38.9972C127.331 38.9972 127.161 38.8776 126.97 38.7313C126.346 38.2523 125.905 38.092 125.203 38.0896C124.648 38.0877 124.533 38.1124 124.101 38.3248C123.54 38.6008 123.156 38.9952 122.886 39.5707C122.713 39.9383 122.694 40.0645 122.694 40.8166C122.694 41.5941 122.709 41.6843 122.906 42.0863C123.165 42.6136 123.595 43.057 124.079 43.2948C124.393 43.4495 124.541 43.4729 125.205 43.4729C125.889 43.4729 126.011 43.4522 126.371 43.2753C126.593 43.1665 126.915 42.9572 127.087 42.8099L127.399 42.5422L127.871 43.0076L128.342 43.4729L127.992 43.7848C125.794 45.7455 122.363 44.9683 121.362 42.2828C121.224 41.9113 121.174 41.6096 121.146 40.982C121.115 40.2465 121.13 40.1039 121.302 39.5537ZM0.321015 39.1306C0.321015 38.118 0.898056 37.3373 1.92718 36.9576C2.51412 36.741 3.86237 36.7839 4.5822 37.0419C5.10255 37.2285 5.85199 37.6677 5.85199 37.786C5.85199 37.8361 5.55892 38.2794 5.1572 38.8369C5.14869 38.8487 4.99506 38.7595 4.81588 38.6386C4.24947 38.2564 3.8214 38.1065 3.18832 38.069C2.72008 38.0412 2.54236 38.0608 2.32461 38.1641C1.99173 38.3221 1.77719 38.6517 1.77683 39.0056C1.77624 39.5416 2.16691 39.7942 3.57112 40.1659C4.59828 40.4379 5.2171 40.7165 5.58272 41.0715C6.03612 41.5119 6.10671 41.7079 6.10671 42.5268C6.10671 43.206 6.09164 43.2813 5.88118 43.6549C5.61984 44.1187 5.1441 44.5109 4.59581 44.7142C3.98936 44.9392 2.65552 44.9092 1.88417 44.6533C1.34395 44.474 0.704763 44.1316 0.205665 43.7541L0 43.5985L0.418389 43.0871L0.836779 42.5756L1.35887 42.9353C2.44942 43.6865 3.86171 43.8144 4.43701 43.2139C4.61364 43.0295 4.65119 42.9287 4.65119 42.6389C4.65119 42.0364 4.38104 41.8561 2.90456 41.473C0.974034 40.9721 0.321015 40.38 0.321015 39.1306ZM11.1888 44.7283C11.0775 44.5513 8.42281 36.9222 8.45301 36.866C8.46982 36.8347 8.81456 36.8183 9.21912 36.8296L9.9546 36.8503L10.8649 39.6684C11.3655 41.2183 11.7934 42.4694 11.8156 42.4486C11.8378 42.4278 12.267 41.1597 12.7694 39.6305L13.6826 36.8503H14.295H14.9072L15.8196 39.6301C16.3214 41.1589 16.7504 42.4273 16.7729 42.4486C16.7954 42.4699 17.2238 41.2191 17.7248 39.6689L18.6358 36.8503L19.376 36.8296C19.8644 36.8159 20.1161 36.8353 20.1161 36.8864C20.1161 37.0082 17.4793 44.6265 17.4019 44.7283C17.3571 44.7873 17.1344 44.8193 16.7678 44.8193H16.2029L15.6971 43.3456C15.4188 42.535 14.9987 41.3069 14.7634 40.6165C14.5281 39.9261 14.3181 39.3611 14.2966 39.3611C14.2752 39.3611 14.0312 40.0243 13.7545 40.8348C13.4778 41.6454 13.0565 42.8735 12.8184 43.5639L12.3855 44.8193H11.8158C11.4389 44.8193 11.2266 44.7885 11.1888 44.7283ZM23.1902 40.853C23.1797 38.7316 23.1874 36.9537 23.2071 36.9021C23.2337 36.8328 23.4188 36.8139 23.9174 36.8294L24.5918 36.8503L24.6107 40.801L24.6294 44.7518L23.9193 44.7309L23.2091 44.7101L23.1902 40.853ZM28.2737 38.1623C28.5033 37.6738 29.1259 37.1389 29.6725 36.9606C30.0492 36.8376 30.2657 36.8181 30.9961 36.8413C32.0051 36.8734 32.5075 37.0168 33.2172 37.4755L33.6593 37.7613L33.2792 38.3055L32.8992 38.8498L32.6754 38.7C32.5524 38.6175 32.2412 38.4485 31.9842 38.3242C31.0343 37.8653 29.8591 37.9977 29.6109 38.5916C29.2863 39.3684 29.6797 39.7354 31.2872 40.1554C33.2686 40.6731 33.9004 41.258 33.8978 42.5724C33.8964 43.2628 33.661 43.7979 33.1678 44.2321C32.6155 44.7182 32.1712 44.8513 31.1053 44.8496C30.3027 44.8485 30.127 44.8246 29.6134 44.6471C28.9583 44.4208 28.5203 44.187 28.0677 43.8223L27.7593 43.5737L28.1763 43.0752L28.5933 42.5766L28.9307 42.8243C29.1162 42.9605 29.4926 43.177 29.7669 43.3054C30.1777 43.4976 30.3778 43.5443 30.8993 43.5691C31.4439 43.5952 31.5798 43.5768 31.8669 43.4378C32.2297 43.2621 32.4152 42.9933 32.4152 42.6431C32.4152 42.0735 32.0548 41.8354 30.6322 41.465C29.4841 41.1661 28.9601 40.9213 28.5799 40.5064C28.0284 39.9044 27.9036 38.9496 28.2737 38.1623ZM36.75 39.1064C36.7595 38.0502 37.3815 37.2681 38.492 36.916C38.9008 36.7863 40.0827 36.7912 40.6055 36.9247C41.1016 37.0513 41.8189 37.3872 42.1129 37.6306L42.3132 37.7964L41.9434 38.3249L41.5736 38.8534L41.3656 38.7053C41.2512 38.6239 40.937 38.454 40.6673 38.3278C39.7345 37.8912 38.5958 37.9903 38.3053 38.5332C38.1862 38.7558 38.1835 39.1973 38.3 39.415C38.4188 39.6369 39.0266 39.906 39.984 40.1605C41.5595 40.5794 42.2633 41.065 42.5064 41.901C42.8362 43.0357 42.2209 44.2436 41.0903 44.6809C40.471 44.9204 39.5409 44.9488 38.7203 44.7534C38.0137 44.5851 37.0876 44.1415 36.6833 43.7777L36.4256 43.5457L36.8507 43.0618L37.2759 42.5779L37.6293 42.8338C38.2947 43.3158 38.8572 43.5336 39.5276 43.5688C40.56 43.6229 41.0772 43.3138 41.074 42.6444C41.0712 42.0548 40.7676 41.8446 39.4017 41.4862C38.1889 41.168 37.7808 40.9956 37.3727 40.6287C36.914 40.2163 36.7437 39.8001 36.75 39.1064ZM70.1132 44.7558V40.7848V36.8139L71.9508 36.8145C74.4097 36.8152 74.966 36.9152 75.5976 37.4697C76.0416 37.8595 76.1875 38.2104 76.1875 38.888C76.1875 39.5895 76.0321 39.9399 75.5374 40.3533L75.211 40.6262L75.5914 40.8304C77.1809 41.6842 76.9513 43.8921 75.2066 44.5303C74.7538 44.696 74.6401 44.7041 72.4239 44.7294L70.1132 44.7558ZM79.7924 44.7465V40.7794V36.8123L82.6853 36.8313L85.5781 36.8503L85.5992 37.4871L85.6202 38.1239H83.3977H81.1752V39.1064V40.0889H83.1401H85.1051V40.7438V41.3988H83.1765H81.248V42.4177V43.4365H83.4676H85.6873V44.0915V44.7465H82.7399H79.7924ZM88.8894 40.8288C88.8894 38.6739 88.9113 36.8891 88.938 36.8625C89.0164 36.784 92.5205 36.808 93.0377 36.8905C94.4801 37.1205 95.3052 38.0195 95.3052 39.3611C95.3052 40.3913 94.8699 41.1314 94.0171 41.5513C93.7586 41.6786 93.5471 41.7965 93.5471 41.8134C93.5471 41.8304 94.008 42.4891 94.5713 43.2772L95.5955 44.7101L94.7765 44.7308C94.1828 44.7459 93.9323 44.7258 93.8656 44.658C93.8151 44.6066 93.3842 44.0078 92.9082 43.3274L92.0428 42.0902L91.1939 42.0697L90.345 42.0492V43.3978V44.7465H89.6172H88.8894V40.8288ZM103.342 39.1081C103.346 38.0536 103.969 37.2689 105.082 36.916C105.489 36.7869 106.672 36.7913 107.196 36.9237C107.682 37.0468 108.617 37.4917 108.789 37.6819C108.892 37.7959 108.87 37.8508 108.533 38.33L108.164 38.8535L107.956 38.7054C107.121 38.1112 105.95 37.882 105.317 38.1887C104.951 38.3657 104.827 38.5771 104.827 39.0233C104.827 39.5708 105.14 39.7739 106.574 40.1586C107.648 40.4466 108.379 40.801 108.72 41.1988C109.431 42.0296 109.306 43.4317 108.453 44.199C107.499 45.0563 105.799 45.1185 104.209 44.3545C103.636 44.0792 103.081 43.6948 103.081 43.5734C103.081 43.4713 103.8 42.636 103.888 42.636C103.924 42.636 104.113 42.7502 104.307 42.8899C104.933 43.3393 105.451 43.5335 106.121 43.5688C107.14 43.6226 107.666 43.3128 107.666 42.6578C107.666 42.4804 107.632 42.2719 107.59 42.1945C107.474 41.9771 106.91 41.7274 105.992 41.4864C104.779 41.1679 104.371 40.9955 103.963 40.6287C103.508 40.2193 103.339 39.8062 103.342 39.1081ZM112.323 40.8288C112.323 38.6739 112.346 36.8887 112.373 36.8616C112.4 36.8344 113.718 36.8208 115.302 36.8313L118.182 36.8503L118.203 37.4871L118.224 38.1239H116.001H113.779V39.1052V40.0864L115.726 40.1059L117.672 40.1252L117.693 40.762L117.714 41.3988H115.747H113.779V42.4167V43.4344L116.017 43.4537L118.255 43.4729L118.276 44.1097L118.297 44.7465H115.31H112.323V40.8288ZM131.189 39.6302C131.173 38.1972 131.178 36.976 131.201 36.9165C131.235 36.8295 131.374 36.8125 131.917 36.8294L132.591 36.8503L132.628 39.4703L132.664 42.0902L132.858 42.5036C133.193 43.2184 133.836 43.556 134.738 43.4919C135.296 43.4523 135.715 43.2598 136.034 42.896C136.452 42.4199 136.485 42.1601 136.485 39.3478V36.8139H137.213H137.94L137.939 39.3065C137.938 42.0205 137.893 42.4487 137.54 43.1465C136.989 44.2342 135.935 44.8171 134.52 44.8171C132.87 44.8171 131.848 44.1262 131.369 42.688C131.23 42.2723 131.216 42.0254 131.189 39.6302ZM141.378 40.853C141.368 38.7316 141.375 36.955 141.394 36.9049C141.438 36.7899 144.802 36.777 145.494 36.8893C146.603 37.0693 147.388 37.622 147.661 38.4154C147.841 38.9391 147.844 39.7765 147.666 40.291C147.495 40.7891 146.981 41.3358 146.435 41.6017L146.014 41.8067L147.035 43.2358C147.597 44.0219 148.056 44.6833 148.056 44.7058C148.056 44.7282 147.682 44.7465 147.225 44.7465H146.394L145.461 43.4024L144.527 42.0582L143.672 42.0561L142.816 42.0538V43.4028V44.7518L142.107 44.7309L141.397 44.7101L141.378 40.853ZM151.186 40.8314C151.186 38.6752 151.209 36.888 151.237 36.8599C151.265 36.8318 151.584 36.8181 151.946 36.8296L152.605 36.8503V40.7802V44.7101L151.895 44.7309L151.186 44.7518V40.8314ZM155.698 37.5538C155.698 37.2002 155.72 36.8888 155.747 36.8617C155.774 36.8346 157.207 36.8209 158.931 36.8314L162.066 36.8503L162.087 37.5235L162.108 38.1967H160.868H159.628V41.4716V44.7465H158.9H158.172V41.4716V38.1967H156.935H155.698V37.5538ZM61.2617 39.3611C60.4366 38.1002 59.7456 37.0277 59.726 36.9777C59.699 36.9082 59.8869 36.8867 60.5234 36.8867H61.3562L62.434 38.5985L63.5119 40.3103L63.8725 39.7448C64.0709 39.4336 64.5641 38.6634 64.9686 38.0329L65.704 36.8867H66.5228H67.3414L65.7799 39.2475L64.2184 41.6083V43.1774V44.7465H63.4906H62.7628L62.7624 43.2L62.762 41.6535L61.2617 39.3611ZM167.39 41.5501C167.305 41.4491 164.538 37.2167 164.4 36.9753C164.358 36.9012 164.523 36.8862 165.204 36.9026L166.062 36.9231L167.13 38.6134L168.198 40.3037L169.281 38.6134L170.364 36.9231L171.182 36.9025C171.632 36.8912 172 36.8971 172 36.9156C172 36.9341 171.312 37.9914 170.472 39.265L168.944 41.5808L168.944 43.1636L168.943 44.7465H168.215H167.488V43.2058C167.488 42.0247 167.465 41.6382 167.39 41.5501ZM74.2053 39.9987C74.9017 39.6921 74.9687 38.6461 74.3148 38.289C74.1207 38.1829 73.8535 38.1562 72.7877 38.1363L71.496 38.1121V39.1442V40.1763L72.715 40.1472C73.6364 40.1252 74.0002 40.089 74.2053 39.9987ZM93.8382 39.4402C93.8382 38.8848 93.661 38.5729 93.215 38.3432C92.8886 38.1752 92.7739 38.1604 91.6043 38.1349L90.345 38.1074V39.4339V40.7604L91.6003 40.7322C92.7725 40.7059 92.8773 40.6921 93.1804 40.5238C93.6442 40.2663 93.8382 39.9467 93.8382 39.4402ZM146.346 39.421C146.346 38.8458 146.216 38.6211 145.722 38.3455C145.423 38.1787 145.316 38.1649 144.109 38.1363L142.816 38.1059V39.432V40.7582L144.072 40.7309C145.155 40.7072 145.373 40.6825 145.661 40.5509C146.161 40.3226 146.346 40.0178 146.346 39.421ZM75.2076 42.4544C75.2076 42.0296 75.0382 41.7316 74.7013 41.5637C74.4857 41.4563 74.2017 41.4316 72.9697 41.4129L71.496 41.3905V42.4135V43.4365L72.8241 43.4361C74.3218 43.4357 74.6245 43.3792 74.9676 43.0361C75.1709 42.8328 75.2076 42.7439 75.2076 42.4544ZM5.37895 7.85988H0.0663011V28.4555H5.37895V7.85988Z" fill="#57575A"/>
<rect width="5.31265" height="7.85981" transform="matrix(1 0 0 -1 0.0664062 7.85986)" fill="#FFDC00"/>
</svg>
