<svg width="268" height="40" viewBox="0 0 268 40" fill="none" xmlns="http://www.w3.org/2000/svg">
<path fill-rule="evenodd" clip-rule="evenodd" d="M16.385 0.849791C15.0411 2.00594 15.0321 4.11078 16.3661 5.4444C17.6997 6.77837 19.8045 6.76941 20.9607 5.42545C22.102 4.09872 22.0924 2.02317 20.9397 0.870811C19.7873 -0.281891 17.7117 -0.29154 16.385 0.849791ZM2.25656 15.3373C0.956716 15.9121 0.420166 16.7957 0.420166 18.3619C0.420166 19.862 1.17554 20.9003 2.61151 21.3741C4.77666 22.0888 6.77985 20.5925 6.77985 18.2613C6.77985 15.8639 4.45893 14.3635 2.25656 15.3373ZM164.811 17.9921C160.857 18.6476 157.706 20.8648 156.134 24.0979C155.509 25.3836 155.353 26.3071 155.338 28.7993C155.322 31.5224 155.438 32.1413 156.289 33.8733C157.449 36.2362 159.402 37.9971 162.013 39.0341C163.612 39.6695 164.631 39.8005 168.07 39.8122C172.598 39.828 174.376 39.3825 177.052 37.5609C182.167 34.0804 182.668 25.3264 177.999 21.0229C174.896 18.1624 170.239 17.092 164.811 17.9921ZM56.529 25.6117C56.4246 32.5196 56.3743 33.0055 55.6376 34.1903C54.6168 35.832 53.032 36.5529 50.4444 36.5529C48.0449 36.5529 46.776 36.1511 45.5634 35.0073L44.7019 34.1948L43.3831 35.3099L42.0646 36.4251L43.4489 37.6756C46.8894 40.784 53.8925 40.7729 57.3558 37.6536C59.921 35.3426 60.1736 34.3323 60.32 25.784L60.4489 18.2889H58.5443H56.6397L56.529 25.6117ZM83.0302 23.0272C76.625 34.8798 74.5102 38.8642 74.5102 39.0785C74.5102 39.2057 75.361 39.3097 76.401 39.3097H78.2922L79.5069 36.8975L80.7217 34.4853H87.5428H94.3642L95.5311 36.8975L96.6979 39.3097H98.699C99.7997 39.3097 100.7 39.2267 100.7 39.1254C100.7 39.0241 98.2007 34.2944 95.1458 28.6149L89.5915 18.2889H87.591H85.5909L83.0302 23.0272ZM116.782 18.5187C116.655 18.6448 116.552 23.3745 116.552 29.0291V39.3097H118.447H120.343V35.5191V31.7284L124.736 31.7529L129.13 31.7777L132.334 35.5436L135.538 39.3097H137.786H140.034L137.435 36.271C136.006 34.5993 134.521 32.9473 134.137 32.5993C133.186 31.7384 133.253 31.5069 134.529 31.2518C135.902 30.9772 137.776 29.564 138.635 28.1563C139.442 26.8326 139.527 23.5268 138.791 22.1033C138.037 20.6453 136.376 19.4033 134.392 18.8144C133.034 18.4108 130.809 18.2889 124.817 18.2889C120.524 18.2889 116.908 18.3922 116.782 18.5187ZM195.13 18.5301C195.134 18.6817 196.822 23.3804 198.88 28.9716L202.622 39.1374H204.606H206.589L209.554 30.9731C211.185 26.4829 212.622 22.9937 212.748 23.2195C212.873 23.4455 214.25 27.1579 215.806 31.47L218.636 39.3097H220.584H222.531L226.229 29.1629C228.263 23.582 229.927 18.8523 229.927 18.6524C229.927 18.4432 229.158 18.2895 228.118 18.2909L226.309 18.2926L224.447 23.7184C223.422 26.7024 222.122 30.441 221.557 32.0262L220.529 34.9088L217.52 26.6848L214.511 18.4612L212.656 18.3654L210.801 18.2696L207.734 26.5993L204.667 34.9291L201.841 26.6951L199.016 18.4612L197.069 18.3578C195.998 18.3009 195.126 18.3785 195.13 18.5301ZM246.985 28.5091C243.952 34.1383 241.419 38.8711 241.356 39.0268C241.293 39.1822 242.155 39.3097 243.271 39.3097H245.301L246.468 36.8975L247.635 34.4853H254.456H261.277L262.492 36.8975L263.707 39.3097H265.772H267.837L266.203 36.2944C265.304 34.6362 262.781 29.9451 260.595 25.8702L256.621 18.4612L254.56 18.3678L252.499 18.2747L246.985 28.5091ZM171.991 21.5819C176.975 23.062 179.017 28.7324 176.178 33.2085C174.633 35.6445 172.751 36.3806 168.07 36.3803C163.768 36.3796 162.096 35.7862 160.557 33.713C157.121 29.0853 159.394 22.7253 164.969 21.3679C166.782 20.9265 170.127 21.0285 171.991 21.5819ZM90.179 26.6455L92.4889 31.0392H87.6062C84.8311 31.0392 82.7728 30.9045 82.8382 30.7267C83.3765 29.2621 87.4818 21.8314 87.651 22.0151C87.7709 22.1453 88.9088 24.2288 90.179 26.6455ZM134.617 22.7425C135.66 23.7233 135.84 25.928 134.978 27.1586C134.161 28.3248 132.36 28.6229 126.115 28.6249L120.343 28.627V25.1606V21.6939L127.036 21.8007C133.575 21.9048 133.749 21.9265 134.617 22.7425ZM259.124 30.9038C259.038 30.9893 256.871 31.0161 254.308 30.9631L249.648 30.8669L252.066 26.2723L254.484 21.6777L256.882 26.213C258.201 28.7073 259.21 30.818 259.124 30.9038ZM17.6504 30.236C15.754 30.9762 14.8615 33.102 15.7368 34.7944C16.4043 36.0856 17.2317 36.5529 18.8496 36.5529C21.4834 36.5529 22.8126 33.2785 21.0103 31.2305C20.2291 30.3428 18.607 29.8627 17.6504 30.236Z" fill="#33231C"/>
<path fill-rule="evenodd" clip-rule="evenodd" d="M17.4778 15.1686C15.3933 16.0219 14.7176 18.8745 16.2207 20.4745C17.4568 21.7902 18.5492 21.816 21.2685 20.5934C23.2848 19.6871 24.1053 19.5093 26.2653 19.5106C28.4783 19.512 29.1868 19.675 31.1959 20.6437C33.2852 21.6513 33.6688 21.7333 34.6998 21.3932C37.6999 20.4032 37.7034 16.1762 34.705 15.1865C33.6825 14.8492 33.2859 14.9326 31.201 15.9223C29.2168 16.8641 28.4463 17.0405 26.2653 17.0536C24.0722 17.0667 23.3065 16.9006 21.2106 15.956C18.5472 14.7558 18.5075 14.7472 17.4778 15.1686Z" fill="#00B136"/>
</svg>
