<svg width="132" height="29" viewBox="0 0 132 29" fill="none" xmlns="http://www.w3.org/2000/svg">
<path fill-rule="evenodd" clip-rule="evenodd" d="M0.87793 13.976V27.7712H3.4665H6.05533L6.12991 23.1581L6.20476 18.5451L10.4034 23.1581L14.6018 27.7712H17.8514H21.1008L16.1965 22.3998L11.2923 17.0282L14.7397 13.1803C16.6355 11.0638 18.6198 8.87129 19.1487 8.30774L20.1108 7.28335H16.8139H13.517L9.86088 11.417L6.20476 15.5506L6.1321 7.86575L6.05971 0.180908H3.46868H0.87793V13.976ZM29.9706 7.10224C26.8204 8.1523 24.5323 10.129 23.1922 12.9585C22.3833 14.6655 22.3224 14.9985 22.3292 17.6638C22.3358 20.2661 22.4101 20.684 23.1318 22.1712C24.1439 24.2565 26.2334 26.3488 28.3316 27.3772C29.8294 28.1115 30.2178 28.1809 32.8389 28.1806C35.3786 28.1804 35.8861 28.0965 37.2692 27.4485C41.7 25.3724 44.2476 20.5706 43.4721 15.7563C42.6629 10.7316 38.5058 7.08694 33.306 6.84327C31.8913 6.77689 30.6598 6.8725 29.9706 7.10224ZM55.3872 7.14594C54.7928 7.35765 53.7785 7.9029 53.1336 8.35773L51.9609 9.18434V8.23371V7.28335H49.3657H46.7706V17.5273V27.7712H49.3657H51.9609V21.8614C51.9609 15.3441 52.1207 14.3776 53.454 12.8353C54.2058 11.9655 54.4956 11.8292 55.8281 11.7188C57.7239 11.5615 58.4134 11.9144 59.0805 13.3835C59.5416 14.3992 59.5982 15.2384 59.6036 21.1468L59.6096 27.7712H62.2048H64.7999V20.1721C64.7999 11.4459 64.6464 10.5008 62.9642 8.86419C60.9372 6.89217 57.9815 6.22208 55.3872 7.14594ZM75.4208 7.0965C71.5303 8.19902 68.3189 11.9357 67.8395 15.9177C67.2355 20.9345 69.6238 25.3845 74.0281 27.4488C75.3975 28.0908 75.9286 28.1809 78.336 28.1809C80.962 28.1809 81.1729 28.1358 83.1701 27.1489C85.5983 25.9488 86.8721 24.6332 88.1216 22.0346C88.9028 20.4103 88.9755 20.0259 88.9755 17.5273C88.9755 15.0422 88.8996 14.6352 88.1336 13.0191C87.0753 10.7862 85.2292 8.92374 82.9739 7.8133C81.539 7.10688 80.8151 6.9326 78.9534 6.84518C77.5788 6.78071 76.1848 6.87987 75.4208 7.0965ZM91.6326 11.176C92.5417 13.3171 94.4807 17.896 95.9413 21.3516L98.5971 27.6346L100.342 27.7132L102.088 27.7916L106.39 17.7417C108.757 12.2141 110.693 7.59968 110.693 7.48741C110.693 7.37513 109.539 7.28335 108.13 7.28335H105.567L103.037 13.1721C101.646 16.4111 100.421 18.9617 100.315 18.8404C100.209 18.7191 99.047 16.0693 97.7325 12.9516L95.3426 7.28335H92.6608H89.9794L91.6326 11.176ZM119.024 7.66551C115.785 8.6899 113.505 10.8452 112.228 14.0916C111.55 15.8117 111.598 19.0554 112.329 21.0094C114.385 26.5031 120.753 29.2165 125.946 26.8107L127.356 26.1573V26.9642V27.7712H129.678H132V23.4004V19.0297H129.547H127.094L126.571 20.0541C125.927 21.3167 125.309 21.8906 124.009 22.4339C121.656 23.4171 118.747 22.6331 117.369 20.6449C115.46 17.8908 116.645 13.5859 119.624 12.4534C120.217 12.2277 120.254 12.0718 120.254 9.74871C120.254 8.39269 120.223 7.29154 120.185 7.30165C120.148 7.31176 119.625 7.47539 119.024 7.66551ZM34.9609 12.0769C37.1547 12.9934 38.2903 14.8526 38.2903 17.5273C38.2903 20.2019 37.1547 22.0611 34.9609 22.9776C32.6359 23.9492 29.8185 23.1215 28.3748 21.0427C27.771 20.1737 27.5577 19.5012 27.4465 18.1157C27.3206 16.5449 27.3954 16.1259 28.0387 14.8114C28.7886 13.2789 29.8146 12.3244 31.1428 11.924C32.342 11.5626 33.8772 11.624 34.9609 12.0769ZM81.3223 12.4709C81.8531 12.7989 82.6245 13.6406 83.0365 14.3413C83.6623 15.4058 83.7852 15.9328 83.7852 17.5486C83.7852 19.2209 83.6746 19.661 82.9657 20.8056C81.5969 23.0158 78.7461 24.0104 76.3591 23.1106C75.3036 22.7126 73.8298 21.2664 73.3578 20.165C72.5022 18.1692 73.0256 14.8701 74.4423 13.3292C76.0349 11.5967 79.2572 11.1946 81.3223 12.4709Z" fill="#434963"/>
<path fill-rule="evenodd" clip-rule="evenodd" d="M121.893 9.60528V11.9272H124.624H127.356V14.6589V17.3906H129.678H132V12.337V7.28333H126.946H121.893V9.60528Z" fill="#03B180"/>
</svg>
