<svg width="236" height="40" viewBox="0 0 236 40" fill="none" xmlns="http://www.w3.org/2000/svg">
<path fill-rule="evenodd" clip-rule="evenodd" d="M78.9938 0.279494C74.5669 0.924138 71.2972 2.58743 67.941 5.90117C65.963 7.85406 65.2058 8.87423 64.1963 10.9482C62.3649 14.7109 61.9214 16.7864 62.078 20.8638C62.2844 26.2417 64.1746 30.5713 67.9498 34.3138C71.4902 37.823 75.5785 39.6205 80.6647 39.9034C85.2613 40.159 88.8995 39.0566 91.9964 36.4691L93.3518 35.3367L93.5741 36.6376C93.6961 37.3532 94.0099 38.2649 94.271 38.6636C94.7184 39.3462 94.9239 39.3884 97.8111 39.3884C100.665 39.3884 100.928 39.3364 101.634 38.6306L102.391 37.8728L102.308 19.8341C102.23 2.99385 102.188 1.7593 101.678 1.24952C101.257 0.827503 100.517 0.679797 98.4202 0.597841C95.0386 0.466037 94.5661 0.804567 94.2515 3.58528L94.0426 5.43053L92.4882 4.03298C90.4515 2.2018 88.05 1.0171 85.1681 0.421695C82.6256 -0.103378 81.7583 -0.123255 78.9938 0.279494ZM14.56 0.81313C12.2983 1.56083 10.8839 2.45593 9.60623 3.94858L8.56709 5.16264L8.35394 3.69751C7.96557 1.03087 7.71144 0.856554 4.21269 0.856554C1.35124 0.856554 1.14024 0.899979 0.695896 1.57826C0.279997 2.21281 0.232903 4.4917 0.306603 20.4102C0.387336 37.9334 0.409354 38.5346 0.983662 38.9544C1.40965 39.2658 2.51117 39.3884 4.88272 39.3884C9.83405 39.3884 9.41082 40.5951 9.41449 26.468C9.41724 14.8289 9.42091 14.7632 10.1374 13.2247C11.3912 10.532 14.5041 8.50176 17.3783 8.50176C20.2808 8.50176 23.0275 10.4721 24.0921 13.3173C24.6618 14.8393 24.7018 15.7078 24.7018 26.4879C24.7018 36.4386 24.7676 38.1226 25.178 38.7086C25.6223 39.3434 25.8844 39.3884 29.1361 39.3884C32.3877 39.3884 32.6498 39.3434 33.0941 38.7086C33.5039 38.1236 33.5703 36.4719 33.5703 26.8377C33.5703 13.8559 33.6449 13.3522 35.9296 10.9097C38.1192 8.56873 41.4525 7.86109 44.2736 9.13815C45.9702 9.90603 47.1836 11.029 48.0478 12.6302C48.6876 13.8161 48.7105 14.2274 48.8007 26.0799C48.8821 36.7762 48.9549 38.374 49.3833 38.8474C49.7965 39.304 50.4114 39.3884 53.3249 39.3884C56.5456 39.3884 56.8089 39.3428 57.253 38.7086C57.9527 37.7101 57.9576 15.7372 57.2591 12.2351C56.5518 8.68769 55.0536 5.8715 52.705 3.67458C50.0628 1.20304 48.2105 0.491419 43.9678 0.317109C38.7782 0.104266 34.4889 1.61526 31.9648 4.54552L30.7379 5.96967L28.7137 3.91769C26.0156 1.18224 24.3 0.507016 19.656 0.352583C16.9689 0.263287 15.9438 0.355947 14.56 0.81313ZM122.866 0.802427C120.798 1.34585 118.766 2.56725 117.228 4.18986C116.075 5.40637 115.833 5.38343 115.833 4.05775C115.833 3.46357 115.633 2.50027 115.39 1.9171L114.946 0.856554H111.92C109.377 0.856554 108.813 0.94585 108.388 1.41588C107.929 1.92291 107.882 3.67091 107.882 20.2057V38.4364L108.561 38.9122C109.572 39.6199 115.584 39.597 116.178 38.8835C116.511 38.482 116.629 35.9566 116.75 26.5747L116.903 14.7708L117.814 13.1259C119.294 10.4534 122.526 8.50176 125.473 8.50176C128.398 8.50176 131.224 10.3054 132.559 13.0253L133.417 14.7708L133.507 26.5356C133.586 36.8373 133.659 38.3682 134.089 38.8444C134.504 39.3021 135.108 39.3884 137.898 39.3884C142.867 39.3884 142.439 40.6217 142.433 26.3151C142.427 13.3164 142.3 12.0418 140.647 8.39687C138.921 4.59108 135.047 1.39202 131.185 0.58408C128.865 0.0987622 125.176 0.195704 122.866 0.802427ZM159.883 1.04157C151.367 3.55806 145.715 11.1898 145.752 20.1225C145.785 27.8854 150.003 34.6667 156.854 37.97C160.091 39.5306 162.193 40 165.945 40C173.142 40 179.699 36.0777 183.33 29.601C183.66 29.0132 184.261 27.5689 184.667 26.3915C185.312 24.5182 185.402 23.7163 185.393 19.9696C185.384 16.2727 185.284 15.417 184.668 13.7005C183.499 10.4473 182.231 8.488 179.619 5.90239C175.574 1.89814 171.436 0.243103 165.526 0.265733C163.185 0.274602 161.863 0.456251 159.883 1.04157ZM188.273 1.23056C188.187 2.15777 188.579 2.82137 192.558 8.49228C194.864 11.7773 197.517 15.5717 198.455 16.9246L200.161 19.3846L195.981 25.3344C186.44 38.9153 186.845 38.2704 187.424 38.9691C187.689 39.2878 188.799 39.3884 192.047 39.3884H196.321L197.297 38.3945C197.833 37.848 199.827 34.8169 201.728 31.6585L205.184 25.9166L208.702 31.6585C210.637 34.8169 212.56 37.8514 212.977 38.4025L213.734 39.404L218.376 39.3199L223.018 39.2355L223.105 38.471C223.17 37.8994 221.91 35.8915 218.116 30.5199C215.325 26.5674 212.414 22.4163 211.648 21.2952L210.255 19.257L215.703 11.5094C222.851 1.34493 222.552 1.80395 222.355 1.28927C222.212 0.917411 221.393 0.855331 217.555 0.925361L212.927 1.00946L211.398 3.36174C210.557 4.6553 208.86 7.30452 207.626 9.24854C206.393 11.1926 205.292 12.78 205.18 12.776C205.068 12.7724 203.749 10.7843 202.251 8.35864C200.752 5.93297 199.027 3.28681 198.416 2.47887L197.306 1.00946L192.808 0.92475C189.333 0.859612 188.301 0.929031 188.273 1.23056ZM86.6488 9.26322C95.8255 13.7528 95.6426 26.5236 86.3399 30.8652C84.5301 31.7095 83.8733 31.8557 81.888 31.8557C79.9345 31.8557 79.2397 31.7065 77.5779 30.9288C72.7214 28.6561 69.8217 23.138 70.8342 18.0956C71.7559 13.5069 74.0727 10.629 78.3712 8.73356C80.3293 7.86996 84.324 8.12562 86.6488 9.26322ZM170.065 9.0987C172.239 10.1556 174.412 12.428 175.554 14.8396C176.465 16.7626 176.536 17.1424 176.536 20.1225C176.536 22.9662 176.442 23.5335 175.716 25.0821C174.58 27.5065 172.422 29.712 170.04 30.8848C168.341 31.7212 167.741 31.8557 165.709 31.8557C163.715 31.8557 163.04 31.7105 161.343 30.9163C157.791 29.2542 155.842 26.8888 154.833 23.0169C154.242 20.7485 154.243 19.4974 154.836 17.2051C155.47 14.7537 156.305 13.1965 157.831 11.6176C160.342 9.01858 162.476 8.16476 166.138 8.2935C167.955 8.35711 168.966 8.56445 170.065 9.0987ZM227.027 31.9212C226.675 32.8374 226.823 38.6364 227.208 39.0214C227.45 39.263 228.742 39.3884 230.993 39.3884C233.798 39.3884 234.487 39.2979 234.831 38.8832C235.361 38.2453 235.579 33.4456 235.13 32.2783L234.807 31.4374H231.01C227.829 31.4374 227.182 31.516 227.027 31.9212Z" fill="#B1BED3"/>
</svg>
