<svg width="81" height="80" viewBox="0 0 81 80" fill="none" xmlns="http://www.w3.org/2000/svg">
<path d="M68.6348 0.77264C72.7537 -0.265074 77.2565 3.07664 77.3617 7.34178C77.764 11.3144 74.2211 15.0584 70.2577 14.9715C66.5685 15.1224 63.0988 11.9635 63.012 8.24693C62.6645 4.79093 65.2748 1.46293 68.6348 0.77264Z" fill="#B1BED3"/>
<path fill-rule="evenodd" clip-rule="evenodd" d="M49.3297 50.6374C44.6806 47.8031 38.6326 48.114 33.86 50.482C31.1454 51.8568 29.0309 54.0308 26.9321 56.1885C26.2953 56.8432 25.6599 57.4965 25.0097 58.1254C24.6104 57.7517 24.2404 57.3487 23.8716 56.9469C23.7802 56.8473 23.6888 56.7478 23.5971 56.6488C23.4417 56.9277 23.2875 57.2065 23.1332 57.4853C22.9789 57.7642 22.8246 58.0431 22.6691 58.322C22.7834 59.1723 22.8931 60.0271 22.9937 60.882C22.8383 60.7837 22.6063 60.6351 22.3743 60.4866C22.1423 60.338 21.9103 60.1894 21.7549 60.0911C21.4056 60.4022 21.4012 60.9111 21.3968 61.4122C21.3943 61.6917 21.3919 61.9687 21.3297 62.2077C20.5343 62.6877 19.7297 63.1494 18.8977 63.5608C17.5855 64.0142 16.2141 64.1471 14.8436 64.2799C13.865 64.3747 12.8868 64.4695 11.9309 64.6808C10.7011 65.3711 9.30685 66.3631 9.42114 67.954C9.84611 68.3515 10.2757 68.7491 10.7052 69.1466L10.7057 69.1471C11.4189 69.1151 11.9309 69.4397 12.2417 70.1117L12.2617 70.0707C12.7868 68.9977 13.3721 67.8015 14.5457 67.3185C15.4879 66.9346 16.5053 66.9173 17.5143 66.9001C17.9347 66.893 18.3537 66.8859 18.7651 66.8523C19.3509 66.8304 19.9367 66.8183 20.5215 66.8063C20.9134 66.7982 21.3048 66.7901 21.6954 66.7791C21.3187 67.7115 21.9918 68.3153 22.6224 68.8809C22.7647 69.0086 22.9049 69.1343 23.0303 69.2614C23.3731 69.0923 24.0634 68.7494 24.4063 68.5757C24.3354 68.4568 24.2279 68.2773 24.1204 68.0978C24.0131 67.9184 23.9057 67.7391 23.8349 67.6203C24.5571 67.346 25.5811 67.0945 26.1114 67.8625C26.6691 68.4385 26.3446 69.3711 25.5263 69.4397C25.5532 69.4842 25.5867 69.5397 25.6234 69.6006C25.7301 69.7775 25.864 69.9996 25.9423 70.1254C26.1734 70.0008 26.409 69.8818 26.645 69.7626C27.361 69.4009 28.08 69.0378 28.6851 68.5117C29.1132 68.1388 28.8874 67.7053 28.6595 67.2676C28.4151 66.7983 28.1683 66.3243 28.7217 65.9151C29.5491 64.9551 30.9526 65.6591 31.2406 66.7471C30.4726 68.1505 29.412 69.362 28.2646 70.4637C25.892 72.7586 22.9891 74.9483 19.5331 74.9528C19.421 75.0423 19.3083 75.131 19.1956 75.2196C18.6054 75.6841 18.0161 76.1478 17.5171 76.7083C17.2829 77.3905 17.6133 77.9871 17.9355 78.569C18.0473 78.7709 18.1581 78.971 18.244 79.1723C18.4011 79.2012 18.5584 79.2364 18.716 79.2718C19.2558 79.3927 19.7995 79.5145 20.3514 79.3871C21.5522 79.7922 22.3386 78.9394 23.1347 78.0761C23.5873 77.5852 24.0431 77.091 24.58 76.8226C29.0874 74.2397 33.5811 71.538 37.5034 68.1048C36.2783 66.8843 34.8794 65.1288 35.8166 63.3231C37.9743 59.9723 42.9983 58.4774 46.3766 60.9231C51.1446 64.3151 57.1331 66.1346 62.98 65.3071C67.4508 64.8408 72.1457 63.3186 75.0211 59.6568C77.3023 56.6625 78.9663 52.9597 78.852 49.1334C78.3034 52.1048 77.1606 55.154 74.6326 56.9963C71.3548 59.538 66.8063 60.1643 62.852 59.122C59.6205 57.88 56.8286 55.865 54.0371 53.8502C52.4926 52.7355 50.9483 51.6209 49.3297 50.6374ZM23.4574 62.9916C23.4827 62.8903 23.5079 62.7891 23.5331 62.6877C23.5332 62.6877 23.5334 62.6877 23.5335 62.6878C23.5335 62.6878 23.5335 62.6878 23.5335 62.6877C23.7392 62.738 24.1598 62.834 24.37 62.8797C24.3175 63.0007 24.2669 63.124 24.216 63.2477C23.9305 63.9425 23.6386 64.6529 22.9712 65.0603C22.9712 65.0602 22.9712 65.0601 22.9713 65.06C22.9711 65.0601 22.971 65.0602 22.9709 65.0603C23.1143 64.3668 23.2856 63.6802 23.4574 62.9916Z" fill="#B1BED3"/>
<path fill-rule="evenodd" clip-rule="evenodd" d="M70.1 19.1216C67.1098 20.1634 64.12 21.2051 61.1512 22.3043C61.1923 24.6997 61.1832 27.0906 61.1557 29.486C62.8289 28.8871 64.5066 28.3111 66.2209 27.8448C66.2399 32.4944 66.2392 37.1461 66.2384 41.7984C66.2381 43.8656 66.2378 45.933 66.2392 48.0003C66.2346 50.0528 64.6849 52.1054 62.5272 52.1603C59.6429 52.2631 57.3996 50.5899 55.1772 48.9323C54.2364 48.2307 53.2994 47.5318 52.3192 46.9717C55.9672 45.2346 59.5695 42.542 60.7763 38.5054C62.0975 34.3957 59.958 29.7786 56.3969 27.5477C53.7272 25.8106 50.2117 25.71 47.286 26.8254C44.3854 27.8591 41.4786 28.8761 38.5722 29.8929C34.846 31.1965 31.1205 32.4999 27.4095 33.838C27.4489 34.7175 27.4362 35.5996 27.4236 36.4813C27.4025 37.9507 27.3815 39.4192 27.6015 40.8734C28.1271 40.684 28.6559 40.5007 29.1851 40.3174C29.5625 40.1866 29.9401 40.0558 30.3169 39.9226C30.4083 43.278 30.3763 46.638 30.3306 49.9934C27.6923 47.5965 25.1116 45.1337 22.5312 42.6713C20.8104 41.0291 19.0898 39.3871 17.3523 37.7648C17.0211 37.3639 16.5383 37.532 16.0987 37.685C15.9619 37.7327 15.8292 37.7789 15.7066 37.806C14.4047 38.2849 13.1032 38.766 11.8016 39.2471C8.86654 40.332 5.93101 41.417 2.98889 42.478C2.99313 43.1811 2.98821 43.8842 2.98329 44.5872C2.97228 46.1604 2.96127 47.7328 3.05289 49.3031C4.47461 48.7957 5.89632 48.2791 7.31347 47.7534C7.32566 50.801 7.3234 53.8495 7.32114 56.8981C7.31832 60.7089 7.3155 64.5199 7.34089 68.3294C6.45236 68.6977 5.54701 69.023 4.64157 69.3483C4.13085 69.5318 3.6201 69.7153 3.11232 69.9066C3.14711 71.3515 3.1443 72.7979 3.1415 74.246C3.13951 75.2718 3.13752 76.2985 3.14889 77.326C8.37404 75.5111 13.5992 73.6917 18.806 71.8357C18.8124 70.6765 18.8188 69.515 18.8018 68.3545C18.4308 68.3819 18.0657 68.391 17.7312 68.3971L17.5319 68.4006C17.2388 68.4056 16.9718 68.4102 16.7036 68.4231C16.0545 68.4543 15.5485 68.5307 15.1142 68.7072C14.5495 68.941 14.185 69.5542 13.5891 70.7717C13.3347 71.2914 12.804 71.6185 12.2254 71.6121C11.6468 71.6058 11.1234 71.2672 10.8804 70.742C10.8586 70.6948 10.8401 70.6644 10.8276 70.6463C10.8145 70.6455 10.7965 70.6451 10.7731 70.6462C10.3724 70.6641 9.98128 70.5209 9.68695 70.2485L9.68536 70.247L9.6853 70.247C9.25663 69.8502 8.82453 69.4503 8.39653 69.0499C8.12055 68.7918 7.9522 68.4389 7.92512 68.062C7.83065 66.747 8.38246 65.7138 9.06565 64.9675C9.72062 64.2519 10.5491 63.7369 11.1967 63.3734C11.3251 63.3013 11.4634 63.2485 11.6071 63.2168C12.6605 62.9838 13.746 62.8791 14.7242 62.7848H14.7242C14.9138 62.7665 15.0992 62.7486 15.2797 62.7302C16.405 62.6157 17.3969 62.4799 18.3204 62.1733C18.5137 62.0766 18.7061 61.9767 18.8982 61.8739C18.8983 61.705 18.8985 61.5361 18.8986 61.3671C18.9003 59.1728 18.902 56.9786 18.8883 54.7843C19.749 55.6385 20.6344 56.4679 21.5289 57.2868C21.6258 57.1122 21.7226 56.9372 21.8199 56.7613L21.8208 56.7598L21.821 56.7594C21.975 56.481 22.1303 56.2002 22.287 55.9191C22.5209 55.4995 22.9416 55.2173 23.4186 55.1601C23.8955 55.1028 24.371 55.2775 24.6975 55.6299C24.8006 55.7411 24.8994 55.8487 24.9953 55.9531L25.0297 55.9905C25.3046 55.7111 25.5806 55.4274 25.8604 55.1396L25.8605 55.1396L25.9984 54.9978C26.6816 54.2957 27.388 53.5729 28.1228 52.8752C29.5926 51.4799 31.2282 50.1341 33.1824 49.1444L33.1934 49.1388L33.1934 49.1388C38.3186 46.5959 44.9268 46.1974 50.1097 49.3566C51.7819 50.3728 53.4023 51.5423 54.9649 52.67L54.9651 52.6701L54.9652 52.6702C55.5774 53.112 56.1807 53.5475 56.7749 53.9648C58.9096 55.4642 61.0098 56.7958 63.3131 57.6925C66.8722 58.6066 70.8834 58.0061 73.7135 55.8114C73.7186 55.8075 73.7237 55.8036 73.7288 55.7997C73.7356 55.7946 73.7424 55.7896 73.7493 55.7846C75.8087 54.2838 76.8518 51.7069 77.377 48.8616C77.5095 48.144 78.1368 47.6315 78.8561 47.6339C78.8864 37.0977 78.912 26.554 78.8335 16.0186C75.9348 17.0886 73.0173 18.1051 70.1 19.1216ZM67.4527 59.5782C65.9012 59.6696 64.3349 59.5134 62.8521 59.1225C59.6206 57.8805 56.8287 55.8655 54.0372 53.8508L54.0372 53.8508C52.4927 52.7361 50.9484 51.6215 49.3298 50.638C46.9789 49.2047 44.2702 48.5758 41.5497 48.6103C44.2701 48.5758 46.9786 49.2048 49.3295 50.638C50.948 51.6215 52.4924 52.7361 54.0369 53.8508C56.8283 55.8655 59.6203 57.8806 62.8517 59.1226C64.3346 59.5134 65.901 59.6696 67.4527 59.5782ZM25.0097 58.1258C24.8957 58.0191 24.7841 57.9101 24.6743 57.7994C24.3994 57.5223 24.1354 57.2347 23.872 56.9477L23.8714 56.9475L23.8717 56.9475C23.7803 56.8479 23.689 56.7484 23.5973 56.6494C23.5972 56.6495 23.5972 56.6496 23.5971 56.6496C23.6888 56.7486 23.7801 56.848 23.8714 56.9475C24.2402 57.3493 24.6102 57.7523 25.0095 58.126C25.0095 58.1259 25.0096 58.1259 25.0097 58.1258ZM17.514 66.9007C16.8719 66.9116 16.2263 66.9226 15.5989 67.0281C15.2405 67.0884 14.888 67.1795 14.5455 67.3191C13.3718 67.8021 12.7866 68.9982 12.2615 70.0713L12.2417 70.1119C11.9812 69.549 11.5796 69.23 11.0368 69.1602C10.9519 69.1493 10.8635 69.1445 10.7717 69.1457C10.75 69.146 10.728 69.1467 10.7058 69.1477C10.2761 68.75 9.8464 68.3522 9.42126 67.9545C9.30698 66.3637 10.7013 65.3717 11.931 64.6814C12.2893 64.6021 12.6508 64.5393 13.0143 64.4867C13.6203 64.399 14.2317 64.3397 14.8433 64.2805M41.7267 40.9107C41.7216 39.3244 41.7165 37.7388 41.7317 36.1511C42.3869 35.972 43.0294 35.7381 43.6714 35.5043C44.7496 35.1117 45.8268 34.7195 46.9615 34.5877C49.9557 35.0448 50.2072 40.2974 47.3729 41.1706C46.7259 41.4124 46.0848 41.6688 45.4438 41.9252C44.2192 42.415 42.9951 42.9046 41.7317 43.2917C41.7317 42.4976 41.7292 41.7041 41.7267 40.9107Z" fill="#B1BED3"/>
</svg>
