<svg width="100" height="100" viewBox="0 0 100 100" fill="none" xmlns="http://www.w3.org/2000/svg">
<path d="M28.4516 78.36C28.7088 78.4228 29.2345 78.5428 29.4973 78.6C29.0631 79.6 28.7316 80.7257 27.7488 81.3257C27.9545 80.3314 28.2059 79.3486 28.4516 78.36Z" fill="white"/>
<path d="M84.8286 0.9658C89.9772 -0.331343 95.6058 3.8458 95.7372 9.17723C96.24 14.1429 91.8115 18.8229 86.8572 18.7144C82.2458 18.9029 77.9086 14.9544 77.8001 10.3087C77.3658 5.98866 80.6286 1.82866 84.8286 0.9658Z" fill="#EC1B24"/>
<path d="M75.474 27.8802C82.8054 25.1659 90.2397 22.7316 97.5769 20.0231C97.6797 33.8174 97.6397 47.6231 97.5997 61.4174C96.914 65.1316 95.4854 68.9431 92.3254 71.2459C88.2283 74.4231 82.5426 75.2059 77.5997 73.9031C71.3254 71.4916 66.3769 66.7488 60.6969 63.2974C54.8854 59.7545 47.3254 60.1431 41.3597 63.1031C36.9369 65.3431 33.7883 69.2802 30.2969 72.6574C29.674 72.0745 29.1083 71.4345 28.5312 70.8116C28.1426 71.5088 27.7597 72.2059 27.3712 72.9031C25.7712 71.4574 24.1769 70.0002 22.6454 68.4802C22.6683 72.1374 22.6569 75.7945 22.6569 79.4516C19.8454 80.4231 16.8169 80.2174 13.9483 80.8517C12.4112 81.7145 10.6683 82.9545 10.8112 84.9431C11.3426 85.4402 11.8797 85.9374 12.4169 86.4345C13.3083 86.3945 13.9483 86.8002 14.3369 87.6402C14.9997 86.2859 15.7312 84.7602 17.2169 84.1488C18.8854 83.4688 20.7426 83.7088 22.4912 83.5659C22.5654 85.6402 22.554 87.7202 22.5426 89.7945C16.034 92.1145 9.50258 94.3888 2.97115 96.6574C2.93687 93.5602 2.99972 90.4688 2.92544 87.3831C4.68544 86.7202 6.47401 86.1317 8.21115 85.4117C8.15401 76.8402 8.21115 68.2631 8.17687 59.6916C6.40544 60.3488 4.62829 60.9945 2.85115 61.6288C2.68544 58.7888 2.78829 55.9431 2.77115 53.0974C8.07972 51.1831 13.3712 49.2059 18.6683 47.2574C19.314 47.1145 20.1826 46.5488 20.7254 47.2059C26.154 52.2745 31.4512 57.4974 36.9483 62.4916C37.0054 58.2974 37.0454 54.0974 36.9311 49.9031C35.7997 50.3031 34.6626 50.6859 33.5369 51.0916C33.0969 48.1831 33.4283 45.2288 33.2969 42.2974C41.554 39.3202 49.8683 36.4802 58.1426 33.5316C61.7997 32.1374 66.194 32.2631 69.5311 34.4345C73.9826 37.2231 76.6569 42.9945 75.0054 48.1316C73.4969 53.1774 68.994 56.5431 64.434 58.7145C68.554 61.0688 72.0626 65.3831 77.194 65.2002C79.8911 65.1316 81.8283 62.5659 81.834 60.0002C81.8283 51.6002 81.8454 43.2002 81.8111 34.8059C79.6683 35.3888 77.5711 36.1088 75.4797 36.8574C75.514 33.8631 75.5254 30.8745 75.474 27.8802ZM51.1997 45.1888C51.1711 48.1659 51.1997 51.1374 51.1997 54.1145C53.6054 53.3774 55.8969 52.3431 58.2511 51.4631C61.794 50.3716 61.4797 43.8059 57.7369 43.2345C55.474 43.4974 53.394 44.5888 51.1997 45.1888Z" fill="#EC1B24"/>
<path d="M41.3603 63.103C47.326 60.143 54.886 59.7544 60.6974 63.2972C66.3774 66.7487 71.326 71.4915 77.6003 73.903C82.5431 75.2058 88.2288 74.423 92.326 71.2458C95.486 68.943 96.9146 65.1315 97.6003 61.4172C97.7431 66.2001 95.6631 70.8287 92.8117 74.5715C89.2174 79.1487 83.3488 81.0515 77.7603 81.6344C70.4517 82.6687 62.966 80.3944 57.006 76.1544C52.7831 73.0972 46.5031 74.9658 43.806 79.1544C42.6346 81.4115 44.3831 83.6058 45.9146 85.1315C41.0117 89.423 35.3946 92.8001 29.7603 96.0287C27.9088 96.9544 26.8288 100.029 24.4746 99.2344C23.5831 99.4401 22.7088 99.1258 21.8403 98.9658C21.4231 97.9887 20.5374 97.0344 20.9317 95.8858C21.6746 95.0515 22.5774 94.3887 23.4517 93.6915C27.7717 93.6858 31.4003 90.9487 34.366 88.0801C35.8003 86.703 37.126 85.1887 38.086 83.4344C37.726 82.0744 35.9717 81.1944 34.9374 82.3944C33.6003 83.383 36.0003 84.6744 34.8917 85.6401C33.886 86.5144 32.6288 87.0287 31.4631 87.6572C31.3317 87.4458 31.0746 87.0172 30.9431 86.8001C31.966 86.7144 32.3717 85.5487 31.6746 84.8287C31.0117 83.8687 29.7317 84.183 28.8288 84.5258C29.006 84.823 29.366 85.423 29.5431 85.7201C29.1146 85.9372 28.2517 86.3658 27.8231 86.5772C26.9717 85.7144 25.5774 84.903 26.1546 83.4744C24.9374 83.5087 23.7146 83.5201 22.4917 83.5658C20.7431 83.7087 18.886 83.4687 17.2174 84.1487C15.7317 84.7601 15.0003 86.2858 14.3374 87.6401C13.9488 86.8001 13.3088 86.3944 12.4174 86.4344C11.8803 85.9372 11.3431 85.4401 10.8117 84.943C10.6688 82.9544 12.4117 81.7144 13.9488 80.8515C16.8174 80.2172 19.846 80.423 22.6574 79.4515C23.6974 78.9372 24.7031 78.3601 25.6974 77.7601C25.9146 76.9258 25.5488 75.7201 26.2288 75.1144C26.6174 75.3601 27.3888 75.8572 27.7774 76.103C27.6517 75.0344 27.5146 73.9658 27.3717 72.903C27.7603 72.2058 28.1431 71.5087 28.5317 70.8115C29.1088 71.4344 29.6746 72.0744 30.2974 72.6572C33.7888 69.2801 36.9374 65.343 41.3603 63.103ZM28.4517 78.3601C28.206 79.3487 27.9546 80.3315 27.7488 81.3258C28.7317 80.7258 29.0631 79.6001 29.4974 78.6001C29.2346 78.543 28.7088 78.423 28.4517 78.3601Z" fill="black"/>
</svg>
