<svg width="81" height="80" viewBox="0 0 81 80" fill="none" xmlns="http://www.w3.org/2000/svg">
<path d="M23.5334 62.688C23.7391 62.7383 24.1596 62.8343 24.3699 62.88C24.0225 63.68 23.7574 64.5806 22.9711 65.0606C23.1356 64.2651 23.3368 63.4788 23.5334 62.688Z" fill="white"/>
<path d="M68.6348 0.77264C72.7537 -0.265074 77.2565 3.07664 77.3617 7.34178C77.764 11.3144 74.2211 15.0584 70.2577 14.9715C66.5685 15.1224 63.0988 11.9635 63.012 8.24693C62.6645 4.79093 65.2748 1.46293 68.6348 0.77264Z" fill="#EC1B24"/>
<path d="M61.1512 22.3043C67.0164 20.1328 72.9638 18.1854 78.8335 16.0186C78.9158 27.054 78.8838 38.0986 78.8518 49.134C78.3032 52.1054 77.1604 55.1546 74.6324 56.9968C71.3547 59.5386 66.8061 60.1648 62.8518 59.1226C57.8324 57.1934 53.8735 53.3991 49.3295 50.638C44.6804 47.8037 38.6324 48.1146 33.8598 50.4826C30.3215 52.2746 27.8027 55.4243 25.0095 58.126C24.5112 57.6597 24.0587 57.1477 23.597 56.6494C23.2861 57.2071 22.9798 57.7648 22.669 58.3226C21.389 57.166 20.1135 56.0003 18.8884 54.7843C18.9067 57.71 18.8975 60.6357 18.8975 63.5614C16.6484 64.3386 14.2255 64.174 11.9307 64.6814C10.701 65.3717 9.30667 66.3637 9.42095 67.9546C9.8461 68.3523 10.2758 68.75 10.7055 69.1477C11.4187 69.1157 11.9307 69.4403 12.2415 70.1123C12.7718 69.0288 13.357 67.8083 14.5455 67.3191C15.8804 66.7751 17.3661 66.9671 18.765 66.8528C18.8244 68.5123 18.8152 70.1763 18.8061 71.8357C13.5992 73.6917 8.3741 75.5111 3.14895 77.326C3.12153 74.8483 3.17181 72.3751 3.11238 69.9066C4.52038 69.3763 5.95124 68.9054 7.34095 68.3294C7.29524 61.4723 7.34095 54.6106 7.31353 47.7534C5.89638 48.2791 4.47467 48.7957 3.05295 49.3031C2.92038 47.0311 3.00267 44.7546 2.98895 42.478C7.23581 40.9466 11.469 39.3648 15.7067 37.806C16.2232 37.6917 16.9181 37.2391 17.3524 37.7648C21.6952 41.8197 25.933 45.998 30.3307 49.9934C30.3764 46.638 30.4084 43.278 30.317 39.9226C29.4118 40.2426 28.5021 40.5488 27.6015 40.8734C27.2495 38.5466 27.5147 36.1831 27.4095 33.838C34.0152 31.4563 40.6667 29.1843 47.2861 26.8254C50.2118 25.71 53.7272 25.8106 56.3969 27.5477C59.9581 29.7786 62.0975 34.3957 60.7764 38.5054C59.5695 42.542 55.9672 45.2346 52.3192 46.9717C55.6152 48.8551 58.4221 52.3066 62.5272 52.1603C64.6849 52.1054 66.2347 50.0528 66.2392 48.0003C66.2347 41.2803 66.2484 34.5603 66.2209 27.8448C64.5067 28.3111 62.8289 28.8871 61.1558 29.486C61.1832 27.0906 61.1924 24.6997 61.1512 22.3043ZM41.7318 36.1511C41.709 38.5328 41.7318 40.91 41.7318 43.2917C43.6564 42.702 45.4895 41.8746 47.373 41.1706C50.2072 40.2974 49.9558 35.0448 46.9615 34.5877C45.1512 34.798 43.4872 35.6711 41.7318 36.1511Z" fill="#EC1B24"/>
<path d="M33.8601 50.4825C38.6327 48.1145 44.6807 47.8036 49.3298 50.6379C53.8738 53.399 57.8327 57.1933 62.8521 59.1225C66.8064 60.1648 71.355 59.5385 74.6327 56.9968C77.1607 55.1545 78.3035 52.1053 78.8521 49.1339C78.9664 52.9602 77.3024 56.663 75.0213 59.6573C72.1458 63.319 67.451 64.8413 62.9801 65.3076C57.1333 66.135 51.1447 64.3156 46.3767 60.9236C42.9984 58.4779 37.9744 59.9728 35.8167 63.3236C34.8795 65.1293 36.2784 66.8848 37.5035 68.1053C33.5813 71.5385 29.0875 74.2402 24.5801 76.823C23.099 77.5636 22.235 80.023 20.3515 79.3876C19.6384 79.5522 18.939 79.3008 18.2441 79.1728C17.9104 78.391 17.2018 77.6276 17.5173 76.7088C18.1115 76.0413 18.8338 75.511 19.5333 74.9533C22.9893 74.9488 25.8921 72.759 28.2647 70.4642C29.4121 69.3625 30.4727 68.151 31.2407 66.7476C30.9527 65.6596 29.5493 64.9556 28.7218 65.9156C27.6521 66.7065 29.5721 67.7396 28.6853 68.5122C27.8807 69.2116 26.875 69.623 25.9424 70.1259C25.8373 69.9568 25.6315 69.6139 25.5264 69.4402C26.3447 69.3716 26.6693 68.439 26.1115 67.863C25.5813 67.095 24.5573 67.3465 23.835 67.6208C23.9767 67.8585 24.2647 68.3385 24.4064 68.5762C24.0635 68.7499 23.3733 69.0928 23.0304 69.2619C22.3493 68.5716 21.2338 67.9225 21.6955 66.7796C20.7218 66.807 19.7435 66.8162 18.7653 66.8528C17.3664 66.967 15.8807 66.775 14.5458 67.319C13.3573 67.8082 12.7721 69.0288 12.2418 70.1122C11.931 69.4402 11.419 69.1156 10.7058 69.1476C10.2761 68.7499 9.8464 68.3522 9.42126 67.9545C9.30697 66.3636 10.7013 65.3716 11.931 64.6813C14.2258 64.1739 16.6487 64.3385 18.8978 63.5613C19.7298 63.1499 20.5344 62.6882 21.3298 62.2082C21.5035 61.5408 21.211 60.5762 21.755 60.0916C22.0658 60.2882 22.683 60.6859 22.9938 60.8825C22.8933 60.0276 22.7835 59.1728 22.6693 58.3225C22.9801 57.7648 23.2864 57.207 23.5973 56.6493C24.059 57.1476 24.5115 57.6596 25.0098 58.1259C27.803 55.4242 30.3218 52.2745 33.8601 50.4825ZM23.5333 62.6882C23.3367 63.479 23.1355 64.2653 22.971 65.0608C23.7573 64.5808 24.0224 63.6802 24.3698 62.8802C24.1595 62.8345 23.739 62.7385 23.5333 62.6882Z" fill="black"/>
</svg>
