<svg width="197" height="60" viewBox="0 0 197 60" fill="none" xmlns="http://www.w3.org/2000/svg">
<path d="M98.7731 0.0526867C98.0692 0.185242 97.3333 0.49149 96.7254 0.898297C96.3094 1.17712 95.6421 1.86275 95.3633 2.29241C94.7873 3.17459 94.5085 4.03849 94.4582 5.12635C94.3302 7.84145 96.0855 10.0995 98.7274 10.616C99.2713 10.7257 100.314 10.7257 100.862 10.616C101.666 10.4606 102.503 10.0857 103.129 9.6058C103.467 9.34526 104.025 8.75105 104.249 8.41738C104.862 7.48949 105.14 6.54789 105.14 5.37775C105.14 4.39958 104.967 3.64996 104.555 2.84549C104.171 2.09129 103.527 1.35538 102.855 0.898297C102.43 0.610332 101.703 0.276659 101.187 0.139533C100.793 0.0344028 100.62 0.01612 99.9296 0.00240707C99.3582 -0.00673485 99.0291 0.00697803 98.7731 0.0526867Z" fill="#B1BED3"/>
<path d="M15.5053 13.5188C9.69571 13.9256 4.77745 16.9607 2.14463 21.7647C1.19389 23.497 0.613391 25.3345 0.298001 27.6154C0.224867 28.1182 0.220296 29.4894 0.206584 44.0797L0.192871 60H4.05526H7.91764V51.2422V42.4844L8.27417 42.8135C10.1528 44.555 12.6805 45.6018 15.5693 45.8349C16.424 45.9034 18.225 45.8669 19.0706 45.7617C23.806 45.1858 27.7415 42.9781 30.3835 39.4128C31.9924 37.2371 32.9751 34.7459 33.3637 31.8663C33.4642 31.103 33.4779 28.429 33.3865 27.684C32.7375 22.5372 30.1184 18.4234 25.872 15.8637C25.223 15.4706 23.9431 14.8535 23.2301 14.5884C20.8761 13.7108 18.1381 13.3314 15.5053 13.5188ZM17.9918 21.3076C21.4886 21.7647 24.0985 24.2329 24.807 27.7479C25.3144 30.2756 24.8024 32.9039 23.422 34.8602C23.0289 35.4133 22.1833 36.2635 21.644 36.6429C20.3824 37.5296 18.9929 38.0095 17.4251 38.101C13.1924 38.3569 9.72771 35.715 8.90038 31.6058C8.44786 29.3386 8.81353 26.9572 9.90597 25.1014C10.2579 24.5026 10.715 23.9313 11.2635 23.4056C12.5434 22.1852 14.0883 21.495 16.0309 21.2664C16.4103 21.2253 17.5256 21.2482 17.9918 21.3076Z" fill="#B1BED3"/>
<path d="M139.49 13.5007C135.879 13.6973 132.496 14.9497 129.831 17.0751C128.104 18.4555 126.687 20.2062 125.69 22.1991C124.442 24.7039 123.921 27.1082 123.985 30.0975C124.008 31.3591 124.077 31.9853 124.296 33.1006C125.498 39.1799 129.996 43.8513 136.107 45.3505C137.492 45.6888 138.539 45.8259 140.088 45.8625C142.269 45.9128 143.85 45.6751 145.569 45.0306C146.867 44.5415 148.188 43.7279 149.171 42.8137L149.523 42.4846V44.5004V46.5161H153.385H157.252L157.234 37.2921C157.22 29.0965 157.211 28.0178 157.147 27.5699C156.95 26.2443 156.767 25.4215 156.448 24.4388C154.624 18.8669 150.062 14.936 144.083 13.7933C142.703 13.5327 140.966 13.4184 139.49 13.5007ZM141.546 21.2849C142.881 21.4403 144.088 21.8746 145.18 22.5968C145.578 22.8619 145.861 23.0995 146.323 23.5658C146.981 24.2285 147.333 24.6994 147.731 25.4444C149.029 27.899 149.075 31.1169 147.854 33.6628C146.611 36.2545 144.12 37.9092 141.172 38.1011C139.252 38.2246 137.492 37.7675 135.97 36.7573C133.255 34.9564 131.92 31.3545 132.638 27.7755C133.342 24.256 135.933 21.7831 139.407 21.3078C139.956 21.2346 140.993 21.2255 141.546 21.2849Z" fill="#B1BED3"/>
<path d="M178.25 13.5146C173.428 13.8848 169.337 15.9326 166.531 19.3653C163.747 22.7752 162.504 27.3872 163.125 32.0038C163.459 34.4995 164.3 36.7666 165.635 38.7687C166.224 39.66 166.686 40.2268 167.417 40.981C169.991 43.6275 173.25 45.209 177.245 45.7438C178.296 45.8855 180.654 45.8992 181.587 45.7712C183.95 45.4421 185.929 44.6422 187.529 43.3715C187.707 43.2344 187.876 43.0973 187.913 43.0699C188 43.0013 187.954 45.2593 187.854 45.8855C187.57 47.6453 186.917 49.012 185.815 50.1318C184.599 51.366 183.086 52.0882 180.947 52.4447C180.321 52.5453 177.994 52.5635 177.222 52.4676C174.342 52.111 171.828 51.2197 169.369 49.6839C169.108 49.5193 168.889 49.3959 168.875 49.4051C168.853 49.4325 165.927 56.1105 165.904 56.2065C165.868 56.3254 167.193 57.1298 168.313 57.6646C170.987 58.9399 174.232 59.7307 177.725 59.9592C178.785 60.0278 181.107 59.9912 182.021 59.8861C186.089 59.4381 189.385 58.0212 191.794 55.6855C193.074 54.4422 193.896 53.304 194.66 51.7134C195.569 49.821 196.081 47.7367 196.237 45.2822C196.296 44.2994 196.296 29.4715 196.237 28.5528C195.967 24.5487 194.436 21.0474 191.775 18.3323C189.156 15.6675 185.682 14.0403 181.656 13.5832C180.92 13.5009 178.954 13.4598 178.25 13.5146ZM180.714 21.3079C184.457 21.797 187.154 24.5533 187.666 28.4111C187.744 28.9824 187.753 30.2897 187.684 30.8382C187.442 32.7945 186.679 34.44 185.408 35.7427C184.037 37.1551 182.209 37.9779 180.179 38.1013C175.069 38.4121 171.28 34.5863 171.476 29.307C171.554 27.2409 172.198 25.4903 173.41 24.023C174.699 22.4689 176.522 21.5273 178.753 21.2668C179.132 21.2257 180.248 21.2485 180.714 21.3079Z" fill="#B1BED3"/>
<path d="M55.3718 14.7028C52.9812 14.8764 51.1026 15.5438 49.3976 16.8236C48.9086 17.1893 48.0081 18.0989 47.615 18.62L47.295 19.0451L47.2813 17.2853L47.2722 15.5255H43.1813H39.0903V31.0665V46.6074H43.2955H47.5007V37.8359C47.5007 32.0309 47.519 28.9044 47.551 28.5936C47.7293 26.8293 48.3921 25.3437 49.4708 24.297C50.321 23.4697 51.4545 22.912 52.7801 22.6698C53.3652 22.5601 54.7776 22.5601 55.3398 22.6698C55.9888 22.7978 56.4734 22.9623 57.0081 23.232C58.6079 24.0456 59.5724 25.5449 59.9655 27.8257C60.0386 28.2691 60.0478 28.9182 60.0569 37.452L60.0706 46.6074H64.2758H68.481V37.7948C68.4856 30.5362 68.4947 28.8953 68.5496 28.4611C68.7964 26.4133 69.6237 24.8592 71.0179 23.8079C71.4338 23.4971 72.4165 23.008 72.9285 22.8618C73.701 22.6424 74.1078 22.5921 75.0631 22.5921C75.8036 22.5921 76.0321 22.6104 76.4161 22.6926C77.6685 22.9623 78.5141 23.4057 79.2774 24.201C79.7254 24.6672 79.9539 24.9872 80.2464 25.5723C80.6304 26.3402 80.8589 27.1492 80.9824 28.2234C81.0418 28.717 81.0509 30.1112 81.0509 37.7034V46.6074H85.2333H89.4156L89.4019 35.9436L89.3928 25.2843L89.2922 24.6901C89.0454 23.1909 88.7254 22.1578 88.1586 20.9877C86.6274 17.8384 83.7797 15.6992 80.1367 14.9633C77.7919 14.4879 75.0037 14.6068 72.7914 15.2787C70.2911 16.0374 68.3348 17.4544 66.8995 19.5479L66.6253 19.9501L66.4927 19.7444C66.0402 19.0222 65.0346 17.9252 64.2713 17.3081C62.4978 15.882 60.3677 15.0227 57.9086 14.753C57.3144 14.6845 55.9614 14.657 55.3718 14.7028Z" fill="#B1BED3"/>
<path d="M95.6333 31.0665V46.6074H99.8385H104.044V31.0665V15.5255H99.8385H95.6333V31.0665Z" fill="#B1BED3"/>
<path d="M114.853 36.1858C112.956 36.3595 111.361 37.4657 110.556 39.1706C109.82 40.7247 109.848 42.5759 110.629 44.0934C111.374 45.547 112.682 46.4977 114.354 46.8177C114.871 46.9136 115.849 46.9136 116.389 46.8177C118.295 46.4748 119.844 45.1401 120.452 43.3255C120.987 41.7303 120.74 39.8699 119.812 38.4987C118.729 36.8897 116.832 36.0075 114.853 36.1858Z" fill="#B1BED3"/>
</svg>
