<svg width="215" height="60" viewBox="0 0 215 60" fill="none" xmlns="http://www.w3.org/2000/svg">
<path fill-rule="evenodd" clip-rule="evenodd" d="M40.7274 14.4185C40.7274 6.65581 34.0952 0.334597 26.0345 0.334597C18.076 0.334597 11.6469 6.65581 11.6469 14.4185C11.6469 22.1825 18.076 28.6134 26.0345 28.6134C34.0939 28.6134 40.7274 22.1825 40.7274 14.4185ZM0.0151367 57.449H11.6469V0.334597H0.0151367V57.449ZM40.8284 57.449H52.4601V0.334597H40.8284V57.449ZM11.6469 28.8356V43.2514L26.2389 57.449L40.8284 43.2514V28.8356L26.2389 43.2514L11.6469 28.8356ZM81.5407 3.32857C81.1331 2.55097 80.5211 1.88579 79.9079 1.3317C79.1937 0.887356 78.5817 0.555432 77.7653 0.33326C76.9489 0.111087 76.0302 0 75.0106 0H67.7664V20.1843H72.4604V13.5298H74.9097C75.5217 13.5298 76.1337 13.5298 76.6447 13.4187C77.1771 13.3182 77.6927 13.1314 78.1741 12.8646C78.6851 12.7535 79.0927 12.4203 79.3993 12.1994C79.8081 11.8662 80.1135 11.5329 80.5224 11.201C81.0322 10.6456 81.3388 9.87062 81.6441 9.09302C81.9508 8.20566 82.0517 7.31965 82.0517 6.32121C82.0487 5.29834 81.8756 4.28449 81.5407 3.32857ZM77.0511 7.98617C76.9489 8.31943 76.7444 8.65136 76.4378 8.98461C76.3356 9.20679 76.1312 9.31787 75.8258 9.42896C75.5192 9.54005 75.316 9.65112 75.0094 9.65112C74.7028 9.76221 74.3974 9.76221 73.9886 9.76221H72.4567V3.77426H73.07C73.7842 3.77426 74.294 3.77426 74.7016 3.88534C75.1104 3.88534 75.518 3.99643 76.0278 4.2186C76.3344 4.32969 76.641 4.66295 76.8442 4.99487C77.1508 5.43922 77.253 5.88223 77.253 6.54741C77.2555 7.09883 77.2555 7.54317 77.0511 7.98617ZM103.478 0.00133765H98.1719L94.0911 9.98305L90.0102 0.00133765H84.602V20.1856H88.9894V6.7669L92.356 15.4169H95.5195L98.8861 6.7669V20.1856H103.478V0.00133765ZM116.639 16.6375H113.987V3.55075H116.639V0.00133765H106.64V3.55075H109.294V16.6375H106.64V20.1856H116.639V16.6375ZM73.0724 31.8309C72.868 31.3866 72.5614 31.0533 72.1538 30.7214C71.8484 30.4992 71.4396 30.3881 71.0308 30.277C70.622 30.166 70.1122 30.0549 69.5002 30.0549H66.9499V41.2572H68.2762V37.0426H69.3979C70.1122 37.0426 70.7242 36.9315 71.2352 36.8204C72.0892 36.4433 72.7812 35.7303 73.1734 34.8236C73.2756 34.3792 73.3778 33.9362 73.3778 33.4919C73.3778 32.828 73.2756 32.2739 73.0724 31.8309ZM71.8484 34.3806C71.7462 34.7138 71.5418 34.936 71.3374 35.1568C71.133 35.379 70.8264 35.4901 70.521 35.6012C70.0915 35.7459 69.6445 35.8204 69.1948 35.822H68.2762V31.3866H69.3979C69.8068 31.3866 70.2144 31.3866 70.4188 31.4977C70.7254 31.4977 71.0308 31.6087 71.2352 31.8309C71.4798 31.9705 71.6635 32.2096 71.7462 32.4961C71.8484 32.7183 71.9506 33.0515 71.9506 33.4945C71.9494 33.8265 71.9494 34.1597 71.8484 34.3806ZM78.9893 36.3774C79.7035 36.1553 80.2133 35.7109 80.5199 35.1568C80.9275 34.6027 81.1319 33.9375 81.1319 33.0502C81.1319 32.4948 81.0297 32.0518 80.8253 31.6087C80.6066 31.26 80.3297 30.959 80.0089 30.7214C79.6 30.3881 79.1924 30.277 78.8858 30.166C78.4782 30.0549 77.9672 30.0549 77.3552 30.0549H74.7016V41.2572H76.13V36.8204H77.6606L80.925 41.2572H82.6601L78.9893 36.3774ZM79.6013 34.2695C79.4991 34.4916 79.2947 34.8249 79.0915 34.9346C78.8871 35.2679 78.6826 35.379 78.3773 35.4901C78.0706 35.4901 77.6631 35.6012 77.2542 35.6012H76.1312V31.3866H77.4586C77.8675 31.3866 78.1729 31.3866 78.3773 31.4977C78.6839 31.4977 78.8871 31.6087 79.0915 31.7198C79.2959 31.942 79.4991 32.1628 79.6013 32.385C79.7035 32.6072 79.7035 32.9391 79.7035 33.2724C79.7035 33.6056 79.7035 33.9375 79.6013 34.2695ZM89.3982 30.277C88.8872 29.9438 88.173 29.8327 87.561 29.8327C86.8468 29.8327 86.2348 29.9438 85.6228 30.277C85.113 30.4992 84.6032 30.8311 84.1944 31.3852C83.7855 31.8296 83.4802 32.4948 83.2757 33.1599C83.0713 33.9362 82.9691 34.7125 82.9691 35.7109C82.9691 36.5983 83.0713 37.3745 83.2757 38.1508C83.4802 38.816 83.7855 39.4825 84.1944 39.9268C84.6032 40.4809 85.113 40.8129 85.6228 41.035C86.236 41.3669 86.8468 41.4794 87.561 41.4794C88.186 41.4766 88.8065 41.3636 89.3982 41.1448C89.908 40.8129 90.4178 40.4809 90.8266 39.9268C91.2355 39.4825 91.5409 38.816 91.7453 38.1508C91.9497 37.3745 92.0519 36.5983 92.0519 35.7109C92.0519 34.7125 91.9497 33.9362 91.7453 33.1599C91.5409 32.4934 91.2355 31.8296 90.8266 31.3852C90.4178 30.8325 90.0102 30.4992 89.3982 30.277ZM89.8058 39.0381C89.1938 39.8144 88.4796 40.149 87.561 40.149C86.5414 40.149 85.8272 39.8144 85.2152 39.0381C84.7042 38.2619 84.3988 37.1524 84.3988 35.7109C84.3988 34.9346 84.501 34.2695 84.6032 33.7154C84.8076 33.1599 85.0108 32.7169 85.2152 32.2726C85.5206 31.9393 85.8272 31.6074 86.236 31.3852C86.6656 31.2405 87.1125 31.166 87.5622 31.1644C87.971 31.1644 88.4808 31.2755 88.7875 31.3852C89.1951 31.6074 89.5017 31.9407 89.8071 32.2726C90.0115 32.6058 90.3169 33.1599 90.4191 33.7154C90.5213 34.2695 90.6235 34.9346 90.6235 35.7109C90.6222 37.1537 90.3156 38.2619 89.8058 39.0381ZM97.4577 30.0549H93.8867V31.2755H96.1315V37.7078C96.1315 38.1521 96.1315 38.4841 96.0293 38.8173C96.0293 39.0395 95.9271 39.2617 95.8249 39.4838C95.7227 39.706 95.5183 39.8157 95.2116 39.9282C94.9254 40.0786 94.6109 40.1547 94.293 40.1503C93.9876 40.1503 93.681 40.0379 93.3744 39.9282C93.0678 39.9282 92.8646 39.8157 92.6602 39.706V41.1461C92.8646 41.2585 93.17 41.2585 93.5788 41.3683H94.3952C95.3138 41.3683 96.1303 41.1461 96.6401 40.592C97.2521 40.0379 97.4565 39.2617 97.4565 38.3743V30.0549H97.4577ZM106.028 41.2572V39.9268H100.927V35.822H105.621V34.4916H100.927V31.3866H106.028V30.0549H99.6003V41.2572H106.028ZM110.518 35.0457L114.804 30.0549H113.172L108.988 35.2679V30.0549H107.56V41.2572H108.988V36.8204L109.498 36.0442L113.272 41.2572H115.009L110.518 35.0457ZM119.7 41.2572V31.3866H123.068V30.0549H114.905V31.3866H118.272V41.2572H119.7ZM132.864 30.0549H131.027L128.476 36.2663L125.925 30.0549H124.09V41.2572H125.415V31.6087L128.068 38.1508H128.883L131.539 31.6087V41.2572H132.864V30.0549ZM135.211 41.2572L136.13 38.1508H140.107L141.026 41.2572H142.454L138.984 30.0549H137.25L133.783 41.2572H135.211ZM136.536 36.8204L138.068 31.6074L139.698 36.8204H136.536ZM150.719 30.0549H149.495V38.9271L145.413 30.0549H143.475V41.2572H144.699V31.6087L149.291 41.2572H150.719V30.0549ZM153.066 41.2572L153.985 38.1508H157.965L158.881 41.2572H160.309L156.842 30.0549H155.108L151.638 41.2572H153.066ZM154.394 36.8204L155.923 31.6074L157.556 36.8204H154.394ZM166.535 41.3669C166.841 41.3669 167.148 41.2572 167.454 41.1448C167.759 41.035 167.964 40.9253 168.271 40.8129C168.577 40.7031 168.781 40.5907 168.983 40.4809V35.6012H165.311V36.9315H167.658V39.8144C167.353 39.9268 167.045 40.0366 166.639 40.0366C166.331 40.149 165.924 40.149 165.516 40.149C165.006 40.149 164.496 40.0366 164.087 39.8144C163.678 39.7047 163.373 39.3714 163.068 39.0381C162.762 38.5938 162.558 38.1508 162.353 37.5967C162.223 36.9409 162.154 36.2722 162.149 35.6012C162.149 34.2695 162.454 33.1613 163.068 32.385C163.678 31.6087 164.496 31.1657 165.415 31.1657C165.821 31.1657 166.23 31.1657 166.639 31.2768C166.944 31.3879 167.249 31.499 167.557 31.7212C167.863 31.8323 168.168 32.0544 168.271 32.1642C168.473 32.2753 168.678 32.4974 168.882 32.6085H168.983V30.8338C168.754 30.7023 168.516 30.5909 168.271 30.5006C167.964 30.3895 167.759 30.2784 167.454 30.1673C167.249 30.0562 166.944 30.0562 166.639 29.9451C166.23 29.9451 165.924 29.834 165.617 29.834C164.905 29.834 164.188 30.0562 163.577 30.2784C162.964 30.5006 162.454 30.9436 162.048 31.3866C161.627 31.9595 161.283 32.5944 161.026 33.2724C160.821 33.9389 160.721 34.7152 160.721 35.6025C160.721 36.5996 160.821 37.487 161.026 38.1521C161.334 38.9284 161.639 39.4838 162.048 40.0379C162.454 40.4823 162.964 40.8142 163.577 41.1461C164.237 41.3737 164.925 41.4867 165.617 41.4807C165.924 41.4794 166.331 41.4794 166.535 41.3669ZM177.045 41.2572V39.9268H172.044V35.822H176.74V34.4916H172.044V31.3866H177.045V30.0549H170.616V41.2572H177.045ZM187.452 30.0549H185.513L183.064 36.2663L180.513 30.0549H178.678V41.2572H179.902V31.6087L182.554 38.1508H183.371L186.023 31.6087V41.2572H187.452V30.0549ZM195.922 41.2572V39.9268H190.922V35.822H195.614V34.4916H190.922V31.3866H195.922V30.0549H189.493V41.2572H195.922ZM205.001 30.0549H203.777V38.9271L199.594 30.0549H197.656V41.2572H198.981V31.6087L203.472 41.2572H205.001V30.0549ZM210.82 41.2572V31.3866H214.287V30.0549H206.023V31.3866H209.491V41.2572H210.82ZM70.521 58.5572H69.1948V49.685H70.521V48.5769H66.5424V49.685H67.7664V58.5572H66.5424V59.6654H70.521V58.5572ZM79.4991 48.5769H78.1729V57.449L74.092 48.5769H72.1538V59.6654H73.3778V50.1294L77.9697 59.6654H79.4991V48.5769ZM87.662 48.5769H81.5407V59.6654H82.8669V54.3426H87.4588V53.0123H82.8669V49.9072H87.662V48.5769ZM94.7031 48.6866C94.192 48.4644 93.4778 48.3547 92.8658 48.3547C92.1516 48.3547 91.5396 48.4644 90.9276 48.6866C90.4166 49.0212 89.9068 49.3531 89.4992 49.7975C89.0742 50.3482 88.7612 50.9904 88.5806 51.6819C88.3762 52.3458 88.274 53.2344 88.274 54.1205C88.274 55.0091 88.3762 55.8952 88.5806 56.559C88.7862 57.3353 89.0916 57.892 89.4992 58.4461C89.908 58.8878 90.4178 59.3321 90.9276 59.5543C91.5396 59.7765 92.1516 59.9987 92.8658 59.9987C93.4778 59.8862 94.0898 59.7765 94.7031 59.5543C95.2129 59.3321 95.7227 59.0002 96.1315 58.4461C96.5391 57.892 96.8457 57.3353 97.0501 56.559C97.2545 55.8952 97.3567 55.0091 97.3567 54.1205C97.3567 53.2344 97.2545 52.3458 97.0501 51.6819C96.8457 50.9057 96.5391 50.3515 96.1315 49.7975C95.7173 49.3412 95.2341 48.9654 94.7031 48.6866ZM95.1107 57.449C94.4987 58.2253 93.7845 58.6696 92.8658 58.6696C91.845 58.6696 91.1308 58.2253 90.5188 57.449C90.009 56.6728 89.7024 55.5646 89.7024 54.1218C89.7024 53.458 89.8046 52.7914 89.9068 52.2373C90.1112 51.6832 90.3144 51.1292 90.5188 50.7946C90.8254 50.3529 91.1308 50.1307 91.5396 49.9085C91.8462 49.6864 92.356 49.5766 92.8658 49.5766C93.2747 49.5766 93.7844 49.6864 94.0898 49.9085C94.4987 50.1307 94.8053 50.3529 95.1107 50.7946C95.3151 51.1292 95.6217 51.5708 95.7227 52.2373C95.8249 52.7914 95.9271 53.458 95.9271 54.1218C95.9271 55.5646 95.6217 56.6728 95.1107 57.449ZM103.173 54.8967C103.887 54.5648 104.397 54.2329 104.703 53.6761C105.112 53.122 105.315 52.4582 105.315 51.5695C105.315 51.0154 105.213 50.4613 105.009 50.1294C104.821 49.7254 104.539 49.3813 104.192 49.1309C103.783 48.9088 103.376 48.6866 103.069 48.6866C102.66 48.5768 102.151 48.5769 101.539 48.5769H98.8849V59.6654H100.315V55.23H101.845L105.11 59.6654H106.846L103.173 54.8967ZM103.785 52.6803C103.682 53.0123 103.478 53.2344 103.376 53.4566C103.069 53.6761 102.866 53.8983 102.559 53.8983C102.254 54.0107 101.845 54.0107 101.438 54.0107H100.316V49.7975H101.642C102.051 49.7975 102.357 49.9072 102.561 49.9072C102.867 50.017 103.072 50.1294 103.275 50.2391C103.479 50.3516 103.684 50.5711 103.786 50.7932C103.888 51.1278 103.888 51.3473 103.888 51.6819C103.886 52.1236 103.886 52.4582 103.785 52.6803ZM116.538 48.5769H114.703L112.152 54.787L109.599 48.5769H107.764V59.6654H108.988V50.1294L111.642 56.6728H112.561L115.213 50.1294V59.6654H116.538V48.5769ZM118.885 59.6654L119.804 56.5603H123.781L124.7 59.6654H126.128L122.661 48.5769H121.028L117.558 59.6654H118.885ZM120.211 55.3424L121.844 50.1294L123.376 55.3424H120.211ZM131.13 59.6654V49.9072H134.497V48.5769H126.334V49.9072H129.702V59.6654H131.13ZM139.089 58.5572H137.762V49.685H139.089V48.5769H135.108V49.685H136.435V58.5572H135.108V59.6654H139.089V58.5572ZM143.679 53.5664L147.966 48.5769H146.332L142.15 53.6761V48.5769H140.721V59.6654H142.15V55.23L142.66 54.5648L146.435 59.6654H148.17L143.679 53.5664ZM198.062 59.6654L198.981 56.5603H202.858L203.88 59.6654H205.308L201.838 48.5769H200.104L196.637 59.6654H198.062ZM199.39 55.3424L200.919 50.1294L202.552 55.3424H199.39ZM211.736 59.8876C212.044 59.7778 212.349 59.7778 212.654 59.6654C212.859 59.5557 213.164 59.4459 213.472 59.3335C213.777 59.2237 213.982 59.1113 214.186 59.0016V54.1218H210.411V55.4521H212.758V58.335C212.472 58.4867 212.157 58.5628 211.839 58.5572C211.43 58.6696 211.125 58.6696 210.716 58.6696C210.206 58.6696 209.697 58.5572 209.288 58.335C208.881 58.1129 208.574 57.8934 208.268 57.449C207.913 57.0483 207.666 56.5492 207.554 56.0062C207.35 55.4522 207.35 54.7883 207.35 54.1218C207.35 52.7914 207.655 51.6833 208.268 50.907C208.778 50.0183 209.593 49.6864 210.615 49.6864C211.022 49.6864 211.43 49.6864 211.736 49.7988C212.145 49.9085 212.45 50.0183 212.758 50.1307C213.063 50.3529 213.268 50.4626 213.472 50.6848C213.677 50.7946 213.878 50.907 213.982 51.1292H214.083V49.3544C213.982 49.242 213.677 49.1323 213.472 49.0225C213.164 48.8004 212.859 48.8004 212.654 48.6879C212.349 48.5782 212.044 48.4658 211.736 48.4658C211.43 48.356 211.125 48.356 210.716 48.356C210.002 48.356 209.391 48.4658 208.778 48.8004C208.167 49.0225 207.655 49.3545 207.249 49.9085C206.793 50.4111 206.444 51.0172 206.229 51.6833C206.02 52.4759 205.916 53.2971 205.921 54.1218C205.921 55.1202 206.025 55.8965 206.229 56.6728C206.431 57.3366 206.739 58.0031 207.249 58.4475C207.655 59.0016 208.167 59.3335 208.778 59.5557C209.391 59.7778 210.002 60 210.716 60C211.125 59.8876 211.43 59.8876 211.736 59.8876Z" fill="#000074"/>
</svg>
