<svg width="250" height="60" viewBox="0 0 250 60" fill="none" xmlns="http://www.w3.org/2000/svg">
<path fill-rule="evenodd" clip-rule="evenodd" d="M80.2529 0.200339C71.5525 1.51501 64.7076 7.71246 63.166 15.6711C62.8669 17.2155 62.775 19.7914 62.9577 21.5036C63.6306 27.8076 66.6522 32.9659 71.6109 36.2757C75.3606 38.7784 80.1842 39.9457 85.3447 39.5992C88.3662 39.3962 90.5589 38.8736 92.5716 37.8768C93.1424 37.5941 93.6558 37.3628 93.7124 37.3628C93.769 37.3628 94.4598 38.1312 95.2474 39.0702C96.3524 40.3876 96.7397 40.7659 96.9433 40.7261C97.0885 40.6979 99.0478 40.3947 101.297 40.0527C103.547 39.7105 105.429 39.3948 105.48 39.3509C105.53 39.3071 104.187 37.8498 102.494 36.1125L99.4157 32.9538L99.7788 32.4932C101.631 30.1442 103.12 26.9839 103.764 24.0379C104.019 22.8694 104.059 22.2994 104.059 19.7927C104.059 17.3009 104.018 16.7126 103.769 15.5726C102.456 9.57187 99.0537 5.04338 93.8503 2.37232C90.6301 0.719283 87.3981 -0.0202421 83.4854 0.000420854C82.3969 0.00621176 80.9423 0.096234 80.2529 0.200339ZM191.598 0.452901C190.497 0.651766 189.004 1.15215 187.982 1.66478C184.618 3.35243 182.285 6.68681 181.708 10.6319C181.504 12.0288 181.616 14.8811 181.921 16.0418C182.453 18.0657 183.695 19.7461 185.469 20.8431C186.763 21.6426 188.229 22.2175 191.358 23.1518C194.63 24.129 195.99 24.7471 196.742 25.5991C197.386 26.3293 197.603 27.025 197.484 27.9773C197.167 30.506 193.975 31.7909 190.357 30.8459C189.123 30.5238 186.782 29.2988 185.475 28.2923C184.822 27.7893 184.247 27.4181 184.197 27.4677C184.061 27.6038 180.131 35.0147 180.131 35.1358C180.131 35.3034 182.465 36.7004 183.694 37.2682C187.239 38.9066 191.351 39.6747 194.83 39.3484C196.741 39.1693 198.661 38.7303 200.054 38.1546C205.065 36.0832 207.373 32.6282 207.661 26.7681C207.865 22.6156 206.535 19.8645 203.32 17.7876C201.986 16.9255 200.532 16.3289 197.476 15.3892C194.38 14.437 193.425 14.0223 192.616 13.2786C191.919 12.6381 191.687 12.0514 191.774 11.1502C191.865 10.2027 192.416 9.50659 193.525 8.93474C194.333 8.51845 194.541 8.46988 195.686 8.43027C196.527 8.40118 197.26 8.45738 197.863 8.59728C198.936 8.8459 200.646 9.63083 201.568 10.2977C201.928 10.5587 202.265 10.7289 202.316 10.6761C202.367 10.6232 202.761 9.89879 203.192 9.06635C203.622 8.2339 204.46 6.61745 205.053 5.47427C205.647 4.33123 206.092 3.33151 206.044 3.25294C205.921 3.05525 204.034 2.19886 202.637 1.70703C201.107 1.16821 199.148 0.67901 197.572 0.441977C195.995 0.205077 192.94 0.210604 191.598 0.452901ZM43.5978 1.28837C40.7816 2.25848 40.7932 6.16063 43.6152 7.21642C44.0931 7.39528 44.9486 7.39264 45.6187 7.21036C46.4156 6.9936 47.449 5.87937 47.6576 5.01192C48.0765 3.27005 47.0074 1.54962 45.2756 1.17913C44.4378 0.999878 44.4343 1.00014 43.5978 1.28837ZM108.092 19.7912V38.4306L117.163 38.3811C125.935 38.3332 126.276 38.322 127.52 38.0421C132.385 36.9464 135.209 34.6467 136.22 30.9552C136.601 29.5654 136.631 26.6062 136.28 25.0571C135.521 21.7063 133.448 19.604 130.093 18.7822L128.938 18.4995L129.565 18.1404C131.269 17.1651 132.507 15.2439 132.905 12.9585C133.109 11.789 132.994 8.75298 132.705 7.68443C132.231 5.93294 131.313 4.45323 130.092 3.47207C128.919 2.52907 127.791 2.02237 125.772 1.53159C124.712 1.27389 124.195 1.25599 116.371 1.20546L108.092 1.15202V19.7912ZM139.89 19.7927V38.4157H144.772H149.653V19.7927V1.16966H144.772H139.89V19.7927ZM153.084 5.31542V9.46118H157.108H161.132V23.9384V38.4157H166.014H170.896V23.9384V9.46118H174.854H178.812V5.31542V1.16966H165.948H153.084V5.31542ZM121.202 8.86748C123.081 9.26455 123.917 10.1552 124.026 11.877C124.111 13.2143 123.899 13.8754 123.153 14.5967C122.323 15.3984 121.52 15.6486 119.472 15.7426L117.856 15.8168V12.2441V8.67151L119.076 8.67375C119.747 8.67507 120.704 8.76219 121.202 8.86748ZM49.4449 8.93013C47.7801 9.36313 46.6892 10.8736 46.9431 12.3944C47.1431 13.5923 48.1043 14.7173 49.173 15.0044C52.2237 15.8238 54.4579 12.2645 52.3769 9.90024C51.6768 9.10504 50.3989 8.68204 49.4449 8.93013ZM86.3173 9.81574C89.1878 10.6348 91.5796 12.6716 92.9211 15.4392C93.7266 17.1012 93.9087 17.94 93.9087 19.9901C93.9086 21.987 93.7079 22.8186 92.8162 24.5153L92.3402 25.4212L91.0265 24.0623L89.7127 22.7033L85.5436 23.2042C83.2506 23.4796 81.1757 23.7366 80.9329 23.7751L80.4916 23.8454L83.4843 26.8327L86.4771 29.8202L85.6409 30.0051C84.5243 30.252 82.2651 30.2221 81.1248 29.9452C76.6341 28.8549 73.3854 24.8535 73.0424 19.9901C72.8152 16.7686 74.2913 13.6587 77.0085 11.6342C79.8058 9.55015 83.1184 8.90302 86.3173 9.81574ZM54.8832 16.7122C52.9927 17.1549 52.0158 18.8846 52.5573 20.8299C52.7615 21.5639 53.7653 22.5235 54.5614 22.7458C55.951 23.1339 57.3087 22.6488 58.1418 21.4664C58.9058 20.3819 58.7347 18.5507 57.7802 17.5986C57.0439 16.8641 55.8258 16.4915 54.8832 16.7122ZM122.585 23.154C125.521 23.5212 126.843 24.886 126.665 27.3673C126.55 28.963 125.682 29.9763 123.952 30.5339C123.206 30.7746 122.66 30.8291 120.462 30.8819L117.856 30.9446V26.9809V23.0172H119.673C120.673 23.0172 121.983 23.0788 122.585 23.154ZM49.5109 24.4563C47.418 24.8733 46.3168 27.08 47.271 28.9456C48.3691 31.0928 51.4566 31.2146 52.7296 29.1607C54.1313 26.899 52.1062 23.9392 49.5109 24.4563ZM43.9694 32.2481C41.2535 32.7537 40.5928 36.4837 42.9606 37.9439C45.4373 39.4714 48.5102 37.0758 47.5959 34.3304C47.0886 32.8066 45.5905 31.9463 43.9694 32.2481Z" fill="#00479A"/>
<path fill-rule="evenodd" clip-rule="evenodd" d="M204.692 46.7468C203.5 47.0472 203.211 47.3655 204.131 47.3655C204.594 47.3655 204.659 47.4028 204.659 47.6684C204.659 47.835 204.332 49.594 203.933 51.5771C203.534 53.5602 203.207 55.368 203.207 55.5944C203.207 56.2601 203.706 56.6215 204.713 56.6855C205.414 56.7299 205.682 56.6798 206.356 56.3782C208.034 55.6269 209.27 53.5764 209.275 51.5341C209.276 51.0025 209.212 50.8343 208.88 50.5037C208.543 50.1669 208.421 50.1221 208.056 50.2008C207.425 50.3365 206.654 50.754 205.945 51.3439C205.6 51.6304 205.318 51.8085 205.318 51.7398C205.318 51.6709 205.556 50.5613 205.846 49.2739C206.136 47.9865 206.374 46.8232 206.374 46.6888C206.374 46.3795 206.114 46.3884 204.692 46.7468ZM153.722 47.0818C153.338 47.3921 153.312 48.1111 153.675 48.3795C154.004 48.6228 154.649 48.5019 154.95 48.1402C155.638 47.3137 154.572 46.3952 153.722 47.0818ZM224.679 47.0036C224.372 47.2358 224.2 47.7752 224.326 48.1107C224.625 48.9105 226.033 48.4515 226.033 47.554C226.033 46.9692 225.181 46.6231 224.679 47.0036ZM149.468 49.0199C149.12 49.2747 148.813 49.5545 148.787 49.6418C148.76 49.729 148.702 49.9633 148.659 50.1623C148.592 50.4677 148.511 50.5242 148.145 50.5242C147.645 50.5242 147.181 50.8085 147.318 51.0306C147.37 51.1141 147.638 51.1823 147.913 51.1823H148.414L148.033 52.9261C147.552 55.1268 147.45 56.0543 147.649 56.4249C147.954 56.9937 148.955 56.663 150.112 55.6109C150.615 55.1538 150.726 54.9848 150.605 54.8611C150.484 54.7367 150.339 54.7924 149.949 55.1135C149.435 55.5358 148.976 55.6536 148.985 55.3609C148.988 55.2705 149.186 54.3088 149.425 53.2241L149.861 51.2518L150.606 51.1183C151.015 51.0449 151.453 50.8811 151.579 50.7545C151.796 50.5354 151.764 50.5242 150.921 50.5242C150.434 50.5242 150.036 50.5093 150.037 50.4913C150.038 50.4733 150.126 50.1327 150.233 49.7345C150.595 48.3914 150.477 48.2815 149.468 49.0199ZM111.047 50.3059C109.272 50.8849 108.101 52.449 107.975 54.4117C107.874 55.9804 108.422 56.7099 109.7 56.7099C110.335 56.7099 111.566 56.1593 112.214 55.5857C112.524 55.3117 112.561 55.2189 112.426 55.057C112.282 54.8842 112.237 54.884 112.049 55.0543C111.764 55.3114 110.712 55.7821 110.415 55.7858C110.284 55.7873 110.032 55.6432 109.854 55.4656C109.584 55.1964 109.53 55.0153 109.531 54.3798C109.535 52.7109 110.364 50.919 111.133 50.919C111.262 50.919 111.571 51.0967 111.819 51.3139C112.34 51.7702 112.569 51.8037 112.874 51.468C113.617 50.6491 112.389 49.8682 111.047 50.3059ZM116.457 50.3069C115.636 50.5759 115.178 50.8545 114.657 51.4018C113.883 52.2133 113.583 52.9397 113.515 54.1633C113.464 55.1018 113.494 55.3028 113.758 55.7708C114.31 56.751 115.544 56.9929 116.849 56.3768C117.701 55.9748 118.412 55.2209 118.878 54.2251C119.344 53.2311 119.382 51.5422 118.952 50.9621C118.433 50.2618 117.412 49.9937 116.457 50.3069ZM121.932 50.4523C121.104 50.8855 120.28 51.6229 120.403 51.8206C120.476 51.9396 120.619 51.9081 120.96 51.698C121.212 51.5426 121.457 51.4542 121.505 51.5016C121.552 51.5489 121.338 52.717 121.028 54.0973C120.719 55.4777 120.492 56.633 120.524 56.6648C120.555 56.6965 120.899 56.6423 121.287 56.5442L121.993 56.3659L122.259 55.0547C122.569 53.5315 122.833 53.0548 123.924 52.0476C124.744 51.2899 125.231 51.1109 125.231 51.5668C125.231 51.7061 124.993 52.8058 124.703 54.0109C124.145 56.3277 124.148 56.7099 124.722 56.7099C125.083 56.7099 126.45 55.9782 126.816 55.5887C127.248 55.1309 127.024 54.9292 126.467 55.2729C126.215 55.4283 125.971 55.5179 125.925 55.472C125.879 55.4262 126.066 54.4178 126.34 53.2313C126.824 51.1382 126.85 50.7085 126.518 50.2939C126.445 50.2035 126.289 50.1299 126.171 50.1307C125.68 50.1336 124.495 50.838 123.684 51.6086C122.92 52.3354 122.828 52.3899 122.905 52.0705C123.119 51.1898 123.151 50.5226 122.989 50.3286C122.771 50.0667 122.64 50.0823 121.932 50.4523ZM129.519 50.5118C128.48 51.1188 127.905 51.6561 128.091 51.8464C128.212 51.9707 128.325 51.9442 128.604 51.7257C129.291 51.1865 129.317 51.3206 128.904 53.2551C128.692 54.2505 128.428 55.4119 128.319 55.8362C128.209 56.2604 128.145 56.6333 128.176 56.6649C128.208 56.6966 128.552 56.6423 128.94 56.5442C129.725 56.3456 129.653 56.4748 130.052 54.5628C130.228 53.7178 130.365 53.4132 130.823 52.8537C131.43 52.1099 132.399 51.3139 132.696 51.3139C132.982 51.3139 132.93 51.7986 132.412 53.9494C131.881 56.1535 131.868 56.6219 132.333 56.6876C132.957 56.7756 134.837 55.5969 134.688 55.2109C134.617 55.0269 134.552 55.0352 134.136 55.2801C133.876 55.433 133.63 55.5245 133.589 55.4835C133.548 55.4424 133.729 54.5022 133.992 53.3943C134.254 52.2862 134.469 51.23 134.468 51.0471C134.466 50.6204 134.122 50.1294 133.825 50.1294C133.365 50.1294 132.171 50.8457 131.341 51.62C130.564 52.3456 130.501 52.3799 130.599 52.0276C130.658 51.816 130.706 51.3172 130.706 50.919C130.706 50.2944 130.67 50.1904 130.442 50.1608C130.297 50.1419 129.882 50.2998 129.519 50.5118ZM138.584 50.3727C136.8 51.0023 135.654 52.6726 135.654 54.641C135.654 56.1581 136.281 56.7972 137.648 56.6735C138.524 56.5944 139.505 56.1132 140.154 55.4449C140.473 55.1169 140.549 54.9596 140.441 54.852C140.333 54.7443 140.169 54.8008 139.822 55.0651C139.334 55.4363 138.537 55.7727 138.122 55.7829C137.672 55.7938 137.237 55.1963 137.237 54.5669V53.9914L138.339 53.5739C140.082 52.9136 140.976 52.1412 140.976 51.2956C140.976 50.3721 139.834 49.9314 138.584 50.3727ZM144.392 50.3715C142.775 50.9427 141.607 52.5554 141.49 54.379C141.387 55.978 141.926 56.7115 143.201 56.7086C144.234 56.7063 146.283 55.4712 145.94 55.0582C145.825 54.9199 145.705 54.9487 145.324 55.2063C144.275 55.9166 143.445 55.9065 143.168 55.1798C142.78 54.161 143.311 51.9418 144.124 51.1861C144.518 50.8203 144.802 50.8505 145.331 51.3139C145.852 51.7702 146.082 51.8037 146.387 51.468C147.182 50.5916 145.847 49.8579 144.392 50.3715ZM153.379 50.4604C152.519 50.8882 151.676 51.6126 151.802 51.816C151.871 51.9284 152.038 51.8903 152.409 51.6775C152.69 51.516 152.952 51.4159 152.992 51.4548C153.031 51.4939 152.824 52.4996 152.533 53.6897C152.241 54.8799 152.02 56.0315 152.042 56.2489C152.1 56.8426 152.616 56.8464 153.566 56.2602C154.717 55.5502 154.941 55.3463 154.846 55.0982C154.771 54.9044 154.702 54.9184 154.243 55.2215C153.958 55.4099 153.688 55.5277 153.644 55.4833C153.599 55.439 153.808 54.4248 154.108 53.2295C154.705 50.8486 154.763 50.3311 154.445 50.2093C154.138 50.0919 154.106 50.0995 153.379 50.4604ZM157.438 50.4255C156.641 50.833 155.77 51.6197 155.895 51.8204C155.968 51.9397 156.111 51.9084 156.452 51.698C156.704 51.5426 156.944 51.449 156.985 51.49C157.058 51.5628 156.212 55.6294 155.974 56.348C155.835 56.7702 155.879 56.7802 156.822 56.5365L157.472 56.3682L157.722 55.0585C157.859 54.338 158.087 53.5615 158.229 53.3329C158.609 52.7188 160.164 51.3139 160.464 51.3139C160.816 51.3139 160.803 51.4377 160.188 53.9461C159.473 56.8573 159.616 57.1733 161.253 56.3029C162.172 55.8145 162.603 55.397 162.447 55.146C162.359 55.0032 162.258 55.0261 161.939 55.2619C161.719 55.4237 161.484 55.5343 161.415 55.5078C161.344 55.4806 161.502 54.5399 161.778 53.3469C162.315 51.0302 162.325 50.4555 161.831 50.231C161.404 50.0372 160.109 50.686 159.15 51.5731C158.757 51.937 158.416 52.2159 158.393 52.193C158.37 52.1701 158.423 51.8122 158.51 51.3976C158.762 50.2015 158.443 49.9123 157.438 50.4255ZM165.759 50.3801C164.964 50.6541 164.099 51.413 163.813 52.0867C163.367 53.14 163.713 54.3903 164.545 54.7341L164.968 54.9087L164.56 55.2267C164.086 55.5972 164.05 55.8593 164.42 56.2525L164.687 56.5357L164.123 56.7864C163.813 56.9243 163.307 57.2672 162.999 57.5483C162.56 57.9483 162.438 58.1523 162.438 58.4858C162.438 59.7517 164.478 60.3835 166.52 59.7495C168.097 59.26 168.764 58.3732 168.287 57.402C168.037 56.8953 167.511 56.4616 166.275 55.7434C165.881 55.5149 165.555 55.2688 165.549 55.1964C165.543 55.124 165.739 54.976 165.985 54.8674C168.033 53.9618 168.526 53.4307 168.615 52.035C168.662 51.3095 168.707 51.1823 168.916 51.1823C169.182 51.1823 170.071 50.4613 169.952 50.3426C169.913 50.3031 169.486 50.3359 169.005 50.4154C168.266 50.5376 168.046 50.5266 167.59 50.3447C166.91 50.0736 166.634 50.0788 165.759 50.3801ZM174.861 50.3519C174.119 50.717 173.197 51.627 173.3 51.894C173.381 52.105 173.428 52.0945 173.802 51.7806C174.028 51.5903 174.28 51.4565 174.362 51.4833C174.539 51.5413 174.799 53.197 174.943 55.1876L175.047 56.6265L174.522 57.2934C174.234 57.6602 173.594 58.346 173.1 58.8174C172.304 59.5766 172.015 60.0002 172.292 60.0002C172.341 60.0002 172.728 59.9035 173.15 59.7853C173.857 59.5874 173.968 59.5019 174.557 58.6995C175.501 57.412 178.947 52.3178 179.314 51.6657C179.693 50.9921 179.622 50.4613 179.121 50.2336C178.846 50.1086 178.732 50.1275 178.436 50.348C178.115 50.5869 178.08 50.695 178.077 51.465C178.073 52.2471 178.02 52.4035 177.439 53.3621C177.091 53.9366 176.696 54.5512 176.562 54.7277L176.319 55.0487L176.238 54.0039C176.053 51.5958 175.904 50.6195 175.682 50.3753C175.414 50.0796 175.415 50.0796 174.861 50.3519ZM182.731 50.3135C181.376 50.6774 180.307 51.789 179.909 53.2475C179.362 55.2552 180.138 56.7118 181.754 56.7086C183.545 56.7052 185.135 55.1377 185.534 52.9815C185.781 51.6522 185.244 50.546 184.215 50.2608C183.637 50.1004 183.507 50.105 182.731 50.3135ZM188.224 50.4423C187.46 50.7972 186.583 51.5164 186.583 51.7882C186.583 52.0343 186.67 52.021 187.201 51.6937C187.449 51.5406 187.688 51.4506 187.731 51.4937C187.774 51.5367 187.622 52.4298 187.394 53.4784C186.81 56.1599 186.853 56.7099 187.65 56.7099C188.403 56.7099 189.446 56.0079 190.378 54.8736C190.831 54.3221 190.958 54.2246 190.896 54.4748C190.574 55.7889 190.529 56.1788 190.668 56.4383C190.879 56.8302 191.305 56.7754 192.198 56.2413C193.173 55.6585 193.369 55.4694 193.269 55.2083C193.199 55.0281 193.13 55.037 192.717 55.2801C192.457 55.433 192.217 55.5296 192.182 55.495C192.147 55.4603 192.357 54.3129 192.649 52.9452C192.94 51.5775 193.179 50.3876 193.179 50.301C193.18 50.1848 192.999 50.1969 192.487 50.3473C192.106 50.4595 191.775 50.5696 191.751 50.5921C191.727 50.6146 191.595 51.1469 191.457 51.7749C191.178 53.0517 190.559 54.069 189.432 55.1053C188.424 56.0315 188.349 55.7 188.958 53.0248C189.409 51.0434 189.456 50.3285 189.145 50.2093C188.886 50.11 189.002 50.0805 188.224 50.4423ZM195.855 50.4048C195.089 50.7832 194.164 51.6189 194.289 51.8204C194.363 51.9401 194.498 51.913 194.822 51.713C195.061 51.5659 195.302 51.4455 195.357 51.4455C195.491 51.4455 195.381 52.1404 194.85 54.6371C194.607 55.7772 194.432 56.7099 194.461 56.7099C194.679 56.7099 195.785 56.3833 195.918 56.28C196.008 56.2092 196.083 56.0079 196.083 55.8328C196.083 55.1276 196.513 53.4372 196.892 52.6545C197.348 51.7137 197.728 51.4434 198.258 51.6841C198.439 51.7661 198.672 51.8003 198.778 51.7599C199.109 51.6333 199.41 51.0503 199.323 50.7045C199.234 50.3517 198.693 50.0787 198.318 50.1974C198.08 50.2731 197.438 50.9427 196.924 51.6515L196.645 52.0377L196.787 51.3393C196.927 50.6534 196.845 50.273 196.535 50.1702C196.468 50.1479 196.162 50.2535 195.855 50.4048ZM211.717 50.4546C210.751 50.9408 209.961 51.6463 210.158 51.847C210.279 51.9706 210.392 51.9436 210.67 51.7257C211.063 51.4172 211.45 51.352 211.356 51.61C211.323 51.7005 211.097 52.7122 210.853 53.8584C210.446 55.7675 210.426 55.972 210.606 56.2933C211.049 57.0841 212.214 56.6705 213.564 55.2438L214.438 54.319L214.333 54.8236C214.274 55.101 214.226 55.6241 214.226 55.9861C214.224 56.5673 214.259 56.649 214.519 56.6859C214.86 56.7342 216.251 56.0307 216.648 55.6099C216.825 55.4216 216.878 55.2617 216.804 55.1418C216.712 54.9928 216.625 55.0112 216.33 55.2425C215.629 55.793 215.61 55.6602 216.077 53.4526C216.318 52.3124 216.573 51.1276 216.642 50.8195C216.712 50.5114 216.731 50.2382 216.684 50.2123C216.637 50.1864 216.293 50.252 215.919 50.3581L215.239 50.5511L215.079 51.426C214.863 52.6129 214.55 53.2882 213.755 54.2842C212.756 55.5364 212.049 55.9517 212.046 55.2874C212.046 55.165 212.266 54.0685 212.535 52.8508C213.151 50.0616 213.055 49.7811 211.717 50.4546ZM219.832 50.4036C218.772 50.8827 218.248 51.5655 218.248 52.4672C218.248 53.0123 218.451 53.2616 219.502 54.0061C220.2 54.5014 220.359 54.7139 220.359 55.1527C220.359 55.3979 220.251 55.5903 220.032 55.7335C219.628 55.9974 219.042 55.8339 218.486 55.3025C218.169 54.9998 218.079 54.974 217.793 55.1039C217.29 55.3324 217.215 55.8705 217.629 56.2831C217.886 56.5402 218.14 56.6353 218.689 56.6807C220.6 56.8388 222.263 54.6835 221.201 53.425C221.011 53.1997 220.67 52.9219 220.443 52.8077C219.868 52.5186 219.304 51.9668 219.304 51.6934C219.304 51.0293 220.23 50.8484 220.872 51.387C221.2 51.6626 221.321 51.6977 221.54 51.5806C221.833 51.4246 222.023 50.8919 221.873 50.6499C221.756 50.4606 220.977 50.1283 220.661 50.1323C220.531 50.1338 220.158 50.256 219.832 50.4036ZM224.7 50.2556C224.271 50.3855 222.995 51.1949 222.747 51.4951C222.422 51.8884 222.776 52.0538 223.239 51.7249C223.601 51.4681 223.922 51.3635 223.922 51.5025C223.922 51.5338 223.68 52.5396 223.385 53.7375C222.759 56.2789 222.753 56.6266 223.334 56.6834C223.867 56.7353 225.835 55.4925 225.715 55.1805C225.672 55.0687 225.637 54.9519 225.637 54.9206C225.637 54.8892 225.398 55.0212 225.107 55.2138C224.815 55.4063 224.545 55.5331 224.507 55.4952C224.469 55.4574 224.678 54.4743 224.972 53.3103C225.554 50.9983 225.624 50.3347 225.296 50.2093C225.182 50.1653 225.078 50.1345 225.065 50.1407C225.053 50.1469 224.889 50.1986 224.7 50.2556ZM228.276 50.4523C227.374 50.9242 226.592 51.6507 226.779 51.8427C226.895 51.9626 227.025 51.9293 227.338 51.6986C227.562 51.5335 227.786 51.4393 227.836 51.4893C227.886 51.5393 227.676 52.7116 227.369 54.0946C227.062 55.4774 226.837 56.6344 226.868 56.6657C226.899 56.6969 227.242 56.6424 227.629 56.5446L228.333 56.3667L228.612 54.9725C228.921 53.4316 229.151 53.0393 230.406 51.9139C231.115 51.2782 231.574 51.1396 231.574 51.5617C231.574 51.6979 231.336 52.7962 231.045 54.0022C230.485 56.3238 230.488 56.7099 231.066 56.7099C231.426 56.7099 232.793 55.9782 233.16 55.5887C233.591 55.1309 233.368 54.9292 232.81 55.2729C232.558 55.4283 232.316 55.5191 232.271 55.4748C232.227 55.4304 232.412 54.4294 232.683 53.2501C233.213 50.9498 233.214 50.4725 232.691 50.2351C232.233 50.0267 231.131 50.5949 230.06 51.5914C229.263 52.3332 229.167 52.3898 229.247 52.0705C229.461 51.2065 229.495 50.5234 229.333 50.3286C229.115 50.0667 228.983 50.0823 228.276 50.4523ZM237.362 50.3296C235.994 50.7632 234.858 51.9422 234.449 53.3538C234.225 54.1285 234.261 55.3847 234.523 55.8851C235.153 57.0896 237.168 56.9279 238.693 55.5506C239.06 55.2192 239.195 55.0107 239.118 54.8946C239.033 54.7642 238.848 54.8309 238.328 55.1796C237.156 55.9665 236.348 55.9286 235.988 55.0698C235.65 54.262 235.723 54.0095 236.354 53.8212C237.347 53.5243 238.572 52.8777 239.112 52.3656C239.588 51.9143 239.635 51.811 239.598 51.3068C239.527 50.3506 238.589 49.9406 237.362 50.3296ZM242.422 50.2935C241.756 50.5083 240.839 51.3838 240.662 51.974C240.45 52.6788 240.685 53.1922 241.456 53.7088C242.426 54.3596 242.789 54.7491 242.789 55.1392C242.789 55.9175 241.901 56.0479 241 55.4021C240.343 54.9315 240.264 54.919 239.973 55.2397C239.359 55.917 240.043 56.7085 241.244 56.7094C242.046 56.7101 242.755 56.353 243.367 55.6402C244.327 54.5214 244.126 53.6196 242.722 52.7411C241.836 52.187 241.56 51.7513 241.827 51.3264C242.052 50.9668 242.752 50.9912 243.258 51.3761C243.618 51.6503 243.762 51.692 243.966 51.5828C244.453 51.3231 244.456 50.6483 243.972 50.3898C243.59 50.1861 242.89 50.1425 242.422 50.2935ZM247.149 50.3309C246.043 50.8243 245.428 51.5666 245.428 52.4082C245.428 52.9691 245.76 53.3985 246.619 53.9481C247.399 54.4475 247.751 54.9991 247.54 55.392C247.207 56.0125 246.602 56.0023 245.779 55.3618C245.346 55.0252 245.226 54.9885 244.958 55.1105C244.785 55.189 244.604 55.409 244.557 55.5993C244.322 56.5316 246.066 57.0595 247.265 56.4191C248.576 55.7185 249.122 54.3041 248.409 53.4577C248.218 53.2318 247.799 52.8931 247.477 52.705C246.564 52.1713 246.287 51.6607 246.691 51.2574C247.002 50.9467 247.597 51.0058 248.059 51.3934C248.448 51.72 248.483 51.7259 248.795 51.5219C249.182 51.269 249.225 50.7891 248.888 50.4851C248.536 50.1677 247.684 50.0921 247.149 50.3309ZM117.095 50.9109C117.558 51.0863 117.761 51.8035 117.673 52.9478C117.539 54.6925 116.806 56.0519 115.999 56.0519C114.538 56.0519 114.874 51.7234 116.395 50.9558C116.788 50.7574 116.704 50.7628 117.095 50.9109ZM166.924 51.0507C167.293 51.4193 167.286 52.6066 166.91 53.3818C166.101 55.0483 164.774 54.1883 165.203 52.2756C165.481 51.0355 166.314 50.4425 166.924 51.0507ZM183.62 51.1105C183.91 51.3993 183.944 51.5443 183.944 52.4806C183.944 53.7062 183.612 54.9158 183.087 55.6027C182.39 56.5137 181.451 55.9555 181.335 54.5619C181.22 53.1838 181.801 51.4898 182.544 51.0383C183.08 50.7121 183.231 50.7223 183.62 51.1105ZM139.456 51.4948C139.49 51.9069 139.427 52.0796 139.126 52.3952C138.762 52.7779 138.111 53.1679 137.547 53.3417C137.275 53.4257 137.268 53.4064 137.39 52.865C137.538 52.205 138.068 51.2511 138.394 51.0564C138.52 50.9817 138.801 50.935 139.018 50.9526C139.376 50.9817 139.418 51.0338 139.456 51.4948ZM238.091 51.1272C238.37 51.8507 237.889 52.5643 236.768 53.0937C236.365 53.2836 236.007 53.4102 235.972 53.375C235.82 53.2237 236.422 51.7553 236.8 51.3555C237.257 50.8723 237.946 50.7504 238.091 51.1272ZM207.618 51.6139C207.804 52.1424 207.505 53.6841 207.02 54.6991C206.589 55.5987 206.059 56.0506 205.433 56.0514C204.865 56.0521 204.745 55.7731 204.823 54.6318C204.911 53.3498 205.124 52.846 205.887 52.1114C206.932 51.1043 207.392 50.9723 207.618 51.6139ZM166.285 57.4009C167.047 57.91 167.122 58.0017 167.122 58.4209C167.122 58.8157 167.056 58.9144 166.66 59.1116C165.797 59.5414 164.357 59.3098 164.023 58.6875C163.94 58.5324 163.91 58.2318 163.957 58.0195C164.049 57.6004 164.867 56.8416 165.227 56.8416C165.349 56.8416 165.825 57.0933 166.285 57.4009Z" fill="#525152"/>
<path fill-rule="evenodd" clip-rule="evenodd" d="M35.0563 1.2885C32.2401 2.25861 32.2517 6.16076 35.0737 7.21655C35.5516 7.39541 36.4071 7.39278 37.0772 7.21049C37.8741 6.99373 38.9075 5.87951 39.1161 5.01206C39.535 3.27018 38.4658 1.54975 36.7341 1.17927C35.8963 1.00001 35.8928 1.00028 35.0563 1.2885ZM40.9034 8.93026C39.2386 9.36326 38.1477 10.8738 38.4016 12.3945C38.6016 13.5925 39.5628 14.7175 40.6315 15.0045C43.6822 15.8239 45.9164 12.2646 43.8354 9.90037C43.1353 9.10517 41.8574 8.68217 40.9034 8.93026ZM46.3417 16.7123C44.4512 17.1551 43.4743 18.8847 44.0158 20.83C44.22 21.564 45.2238 22.5236 46.0199 22.7459C47.4095 23.134 48.7672 22.6489 49.6003 21.4665C50.3643 20.382 50.1932 18.5508 49.2387 17.5987C48.5024 16.8642 47.2843 16.4916 46.3417 16.7123ZM40.9694 24.4565C38.8764 24.8734 37.7753 27.0801 38.7295 28.9457C39.8276 31.093 42.9151 31.2147 44.1881 29.1608C45.5898 26.8992 43.5647 23.9394 40.9694 24.4565ZM35.4279 32.2483C32.712 32.7538 32.0513 36.4838 34.4191 37.944C36.8958 39.4715 39.9686 37.0759 39.0544 34.3305C38.5471 32.8067 37.0489 31.9465 35.4279 32.2483Z" fill="#445FA8"/>
<path fill-rule="evenodd" clip-rule="evenodd" d="M26.819 1.2885C24.0028 2.25861 24.0144 6.16076 26.8364 7.21655C27.3143 7.39541 28.1698 7.39278 28.8399 7.21049C29.6368 6.99373 30.6702 5.87951 30.8787 5.01206C31.2977 3.27018 30.2285 1.54975 28.4968 1.17927C27.659 1.00001 27.6555 1.00028 26.819 1.2885ZM32.6661 8.93026C31.0013 9.36326 29.9104 10.8738 30.1643 12.3945C30.3643 13.5925 31.3255 14.7175 32.3942 15.0045C35.4449 15.8239 37.6791 12.2646 35.5981 9.90037C34.898 9.10517 33.6201 8.68217 32.6661 8.93026ZM38.1044 16.7123C36.2139 17.1551 35.237 18.8847 35.7785 20.83C35.9827 21.564 36.9865 22.5236 37.7826 22.7459C39.1722 23.134 40.5299 22.6489 41.363 21.4665C42.127 20.382 41.9559 18.5508 41.0014 17.5987C40.2651 16.8642 39.047 16.4916 38.1044 16.7123ZM32.7321 24.4565C30.6391 24.8734 29.538 27.0801 30.4922 28.9457C31.5903 31.093 34.6778 31.2147 35.9508 29.1608C37.3525 26.8992 35.3274 23.9394 32.7321 24.4565ZM27.1906 32.2483C24.4746 32.7538 23.814 36.4838 26.1818 37.944C28.6585 39.4715 31.7313 37.0759 30.8171 34.3305C30.3098 32.8067 28.8116 31.9465 27.1906 32.2483Z" fill="#6C7BB8"/>
<path fill-rule="evenodd" clip-rule="evenodd" d="M18.5812 1.2885C15.765 2.25861 15.7766 6.16076 18.5986 7.21655C19.0765 7.39541 19.932 7.39278 20.6021 7.21049C21.399 6.99373 22.4324 5.87951 22.641 5.01206C23.0599 3.27018 21.9908 1.54975 20.259 1.17927C19.4212 1.00001 19.4177 1.00028 18.5812 1.2885ZM24.4283 8.93026C22.7635 9.36326 21.6726 10.8738 21.9265 12.3945C22.1265 13.5925 23.0877 14.7175 24.1564 15.0045C27.2071 15.8239 29.4413 12.2646 27.3603 9.90037C26.6602 9.10517 25.3823 8.68217 24.4283 8.93026ZM29.8666 16.7123C27.9761 17.1551 26.9992 18.8847 27.5407 20.83C27.7449 21.564 28.7487 22.5236 29.5448 22.7459C30.9344 23.134 32.2921 22.6489 33.1252 21.4665C33.8892 20.382 33.7181 18.5508 32.7636 17.5987C32.0273 16.8642 30.8092 16.4916 29.8666 16.7123ZM24.4943 24.4565C22.4014 24.8734 21.3002 27.0801 22.2544 28.9457C23.3525 31.093 26.44 31.2147 27.713 29.1608C29.1147 26.8992 27.0896 23.9394 24.4943 24.4565ZM18.9528 32.2483C16.2369 32.7538 15.5762 36.4838 17.944 37.944C20.4207 39.4715 23.4935 37.0759 22.5793 34.3305C22.072 32.8067 20.5739 31.9465 18.9528 32.2483Z" fill="#939ECA"/>
<path fill-rule="evenodd" clip-rule="evenodd" d="M10.3434 1.2885C7.52725 2.25861 7.53885 6.16076 10.3608 7.21655C10.8387 7.39541 11.6942 7.39278 12.3643 7.21049C13.1612 6.99373 14.1946 5.87951 14.4032 5.01206C14.8221 3.27018 13.753 1.54975 12.0212 1.17927C11.1834 1.00001 11.1799 1.00028 10.3434 1.2885ZM16.1905 8.93026C14.5257 9.36326 13.4349 10.8738 13.6887 12.3945C13.8887 13.5925 14.8499 14.7175 15.9186 15.0045C18.9693 15.8239 21.2035 12.2646 19.1225 9.90037C18.4224 9.10517 17.1445 8.68217 16.1905 8.93026ZM21.6288 16.7123C19.7383 17.1551 18.7614 18.8847 19.3029 20.83C19.5071 21.564 20.5109 22.5236 21.307 22.7459C22.6966 23.134 24.0543 22.6489 24.8874 21.4665C25.6514 20.382 25.4803 18.5508 24.5259 17.5987C23.7895 16.8642 22.5714 16.4916 21.6288 16.7123ZM16.2565 24.4565C14.1636 24.8734 13.0624 27.0801 14.0166 28.9457C15.1147 31.093 18.2022 31.2147 19.4752 29.1608C20.8769 26.8992 18.8518 23.9394 16.2565 24.4565ZM10.715 32.2483C7.99906 32.7538 7.33844 36.4838 9.70623 37.944C12.1829 39.4715 15.2558 37.0759 14.3415 34.3305C13.8342 32.8067 12.3361 31.9465 10.715 32.2483Z" fill="#BEC3E1"/>
<path fill-rule="evenodd" clip-rule="evenodd" d="M2.10558 1.2885C-0.710547 2.25861 -0.698939 6.16076 2.12299 7.21655C2.60088 7.39541 3.45638 7.39278 4.1265 7.21049C4.92342 6.99373 5.95677 5.87951 6.16537 5.01206C6.58428 3.27018 5.51517 1.54975 3.78346 1.17927C2.94564 1.00001 2.94208 1.00028 2.10558 1.2885ZM7.95276 8.93026C6.28794 9.36326 5.19706 10.8738 5.45091 12.3945C5.65093 13.5925 6.61212 14.7175 7.68083 15.0045C10.7315 15.8239 12.9657 12.2646 10.8847 9.90037C10.1847 9.10517 8.90668 8.68217 7.95276 8.93026ZM13.3911 16.7123C11.5005 17.1551 10.5236 18.8847 11.0651 20.83C11.2693 21.564 12.2731 22.5236 13.0693 22.7459C14.4588 23.134 15.8165 22.6489 16.6496 21.4665C17.4136 20.382 17.2425 18.5508 16.2881 17.5987C15.5517 16.8642 14.3336 16.4916 13.3911 16.7123ZM8.01873 24.4565C5.92577 24.8734 4.8246 27.0801 5.77879 28.9457C6.87692 31.093 9.96445 31.2147 11.2374 29.1608C12.6391 26.8992 10.614 23.9394 8.01873 24.4565ZM2.47725 32.2483C-0.238732 32.7538 -0.899355 36.4838 1.46844 37.944C3.94508 39.4715 7.01796 37.0759 6.10375 34.3305C5.59644 32.8067 4.09827 31.9465 2.47725 32.2483Z" fill="#E4E5F4"/>
</svg>
