<svg width="252" height="60" viewBox="0 0 252 60" fill="none" xmlns="http://www.w3.org/2000/svg">
<path d="M250.91 7.73877H0.148438V45.7085H245.74L250.91 24.2192V7.73877Z" fill="#F2F7FC"/>
<path fill-rule="evenodd" clip-rule="evenodd" d="M14.9924 0.704642C12.973 1.8024 12.4918 3.68586 12.7476 9.4877C12.997 15.152 13.808 17.7957 15.6063 18.8122C16.3725 19.2454 19.6259 19.5306 25.8621 19.7109C31.7877 19.8825 35.3752 20.1859 36.0771 20.575C37.0726 21.1265 37.1586 21.514 37.1586 25.4478V29.721L35.356 30.3182C33.7942 30.8352 23.9946 30.9756 16.0856 30.5942C14.5805 30.5216 14.4233 30.6664 13.5619 32.921C13.0567 34.2434 12.6432 35.3791 12.6432 35.4455C12.6428 35.5118 18.9905 35.5657 26.749 35.5657C39.8967 35.5657 40.9105 35.5046 41.6652 34.6703C42.9252 33.2778 43.415 30.978 43.7323 24.9727C44.0149 19.6085 43.9875 19.3863 42.8752 18.1193C41.4081 16.4479 39.2165 16.0478 29.0852 15.603C23.3019 15.3487 21.0729 15.0789 20.5657 14.5716C19.6346 13.6402 18.8068 10.3946 19.1188 8.89674C19.2582 8.22597 19.4779 7.16331 19.6067 6.53581C20.0379 4.43501 22.0343 4.06573 32.678 4.11814L42.3786 4.16622L42.6757 2.91603C42.8391 2.22891 43.0852 1.28742 43.2227 0.824853C43.4568 0.0372338 42.6041 -0.0151779 29.8601 0.0026132C19.0414 0.0180001 15.9904 0.161772 14.9924 0.704642ZM203.055 1.94569C201.895 2.17361 200.864 2.44192 200.764 2.54242C200.664 2.64243 200.568 4.56484 200.552 6.81422L200.521 10.9043L192.748 11.2317C181.502 11.7058 181.129 12.0852 181.129 23.0638C181.129 29.0743 181.262 30.3014 182.091 31.9594C183.774 35.3277 184.873 35.5936 196.512 35.4498L206.607 35.3253L206.758 24.7467C206.944 11.6347 206.486 1.40523 205.716 1.4788C205.413 1.50765 204.215 1.71778 203.055 1.94569ZM111.067 2.75832L108.783 3.51805L108.786 15.5752C108.788 22.2064 108.928 29.4167 109.098 31.5987L109.406 35.5657H111.739H114.071V25.5281V15.4905L115.393 15.2265C119.787 14.35 122.8 14.3072 124.854 15.0919C128.696 16.5594 128.841 17.1542 129.099 32.3931L129.22 39.5581L130.899 40.1317C131.823 40.4472 133.173 40.8516 133.9 41.03L135.222 41.354L135.201 36.6567C135.19 34.0731 134.997 28.4771 134.772 24.2212C134.139 12.2429 133.795 11.9001 122.123 11.6106L114.552 11.4226V6.66468C114.552 1.37926 114.703 1.54852 111.067 2.75832ZM171.996 2.82708L169.592 3.67288L169.606 7.11715C169.615 9.01167 169.668 16.1877 169.727 23.0638L169.833 35.5657H172.777H175.721L175.421 34.063C175.256 33.2365 175.121 25.6632 175.121 17.2336C175.121 8.80394 174.959 1.92358 174.76 1.94425C174.561 1.96445 173.318 2.36162 171.996 2.82708ZM53.6718 11.087C51.4427 11.7332 49.306 14.4168 48.908 17.0706C48.7248 18.2924 48.6705 21.6092 48.7873 24.4414C49.044 30.6746 49.916 32.8648 52.7815 34.4718C54.575 35.4772 55.2903 35.5503 63.4209 35.558C72.0572 35.5657 72.1404 35.5556 72.4278 34.4838C72.587 33.889 72.7206 32.8297 72.724 32.1301C72.7302 30.9063 72.6629 30.8741 70.9281 31.277C69.9368 31.5074 66.5873 31.7011 63.4848 31.7074C57.987 31.7185 57.8082 31.6853 56.432 30.3966C55.6552 29.6691 54.898 28.6416 54.749 28.1126C54.4885 27.187 54.7312 27.1471 61.2645 27.0514C69.3951 26.9326 72.9879 26.3037 73.758 24.8645C74.117 24.1928 74.1944 22.4584 73.9853 19.7392C73.6017 14.7457 72.9196 11.9636 71.8832 11.163C70.9564 10.4475 56.0931 10.3854 53.6718 11.087ZM83.7931 10.9163C81.9934 11.2524 80.1528 12.7517 79.2793 14.5918C78.69 15.8348 78.4996 17.688 78.502 22.1747C78.5049 28.693 79.0149 31.3655 80.5883 33.1033C82.5428 35.2623 84.1114 35.5657 93.3226 35.5657H101.928L102.226 33.7625C102.713 30.8159 102.714 30.8169 100.732 31.277C99.7405 31.5074 96.4847 31.7011 93.4971 31.7074C87.4965 31.7199 85.8082 31.2092 84.842 29.0878C83.9196 27.0625 84.0969 26.8273 86.3106 27.1432C89.1083 27.5428 100.547 26.6581 102.174 25.9166C103.46 25.33 103.496 25.2055 103.496 21.3693C103.496 16.5604 102.795 12.6088 101.735 11.437C101.025 10.6523 100.119 10.5686 92.9659 10.6273C88.5785 10.6634 84.4507 10.7932 83.7931 10.9163ZM215.98 11.0548C213.961 11.5284 211.783 13.9552 211.362 16.1998C211.197 17.0768 211.147 20.7033 211.251 24.2587C211.456 31.265 211.747 32.1094 214.722 34.3338C215.935 35.2411 216.835 35.3378 225.32 35.4734L234.593 35.6214L234.896 33.7904C235.387 30.8121 235.39 30.8164 233.406 31.277C230.966 31.844 221.144 31.831 219.64 31.2588C218.506 30.8275 216.942 28.5819 216.942 27.3856C216.942 27.0322 217.632 26.9504 218.985 27.1432C221.782 27.5428 233.221 26.6581 234.848 25.9166C236.135 25.3295 236.17 25.2093 236.17 21.3275C236.17 16.7123 235.421 12.6088 234.359 11.4034C233.705 10.6614 232.673 10.5677 225.64 10.6109C221.253 10.6384 216.906 10.8379 215.98 11.0548ZM141.471 12.4458C141.471 15.3193 141.36 15.2818 149.092 15.0078C155.341 14.7866 156.268 14.8534 156.994 15.579C157.946 16.5315 158.108 19.2089 157.214 19.2339C156.884 19.2435 153.723 19.4503 150.192 19.694C141.631 20.2845 140.312 21.177 139.727 26.772C139.323 30.6414 139.822 33.0148 141.333 34.416C142.562 35.5556 142.666 35.5657 153.078 35.5657H163.584V25.2646C163.584 15.0448 163.574 14.9525 162.41 13.5686C160.654 11.4808 158.409 11.0427 149.467 11.0427H141.471V12.4458ZM66.9978 16.1238C67.6636 16.7263 67.9237 17.6014 67.9237 19.2382C67.9237 23.3561 65.9062 24.4731 58.4298 24.4948L54.464 24.5063L54.4755 22.9436C54.5072 18.5915 55.9551 16.0772 58.8523 15.3424C61.3438 14.7106 65.922 15.1496 66.9978 16.1238ZM94.9575 15.3939C95.9458 15.6684 96.9735 16.3022 97.2408 16.8023C98.3642 18.9021 97.3196 23.0056 95.4617 23.7913C94.9892 23.9913 92.2059 24.2596 89.276 24.388L83.9498 24.6212L84.3046 21.6126C84.5094 19.8739 85.0521 18.0741 85.59 17.348C87.1999 15.1751 91.1806 14.3447 94.9575 15.3939ZM200.598 23.0638V31.2381H194.6C188.798 31.2381 188.578 31.2006 187.846 30.0831C186.837 28.543 186.007 22.9859 186.397 20.3841C187.004 16.333 189.539 14.9448 196.392 14.9106L200.598 14.8895V23.0638ZM227.632 15.3939C228.62 15.6684 229.648 16.3022 229.915 16.8023C231.038 18.9021 229.994 23.0056 228.136 23.7913C227.663 23.9913 224.832 24.2616 221.844 24.3919L216.412 24.6294L216.65 23.486C216.782 22.857 217.018 21.3443 217.175 20.1239C217.725 15.868 222.143 13.8691 227.632 15.3939ZM157.815 27.1832V32.2642L152.648 31.9387C146.324 31.5401 145.339 31.0448 145.26 28.2218C145.181 25.4074 145.293 24.8703 146.162 23.898C147.259 22.6709 149.349 22.1949 153.849 22.1454L157.815 22.1021V27.1832ZM144.216 49.5101C144.055 50.1265 144.202 50.4718 144.624 50.4718C144.987 50.4718 145.514 50.039 145.798 49.5101C146.229 48.7037 146.163 48.5484 145.39 48.5484C144.872 48.5484 144.357 48.9701 144.216 49.5101ZM218.384 49.5101C218.384 50.039 218.592 50.4718 218.848 50.4718C219.102 50.4718 219.543 50.039 219.826 49.5101C220.262 48.6951 220.191 48.5484 219.362 48.5484C218.704 48.5484 218.384 48.8634 218.384 49.5101ZM220.648 49.5101C220.487 50.1265 220.634 50.4718 221.056 50.4718C221.419 50.4718 221.946 50.039 222.229 49.5101C222.661 48.7037 222.595 48.5484 221.822 48.5484C221.304 48.5484 220.789 48.9701 220.648 49.5101ZM48.7974 53.477L48.9359 57.9248L51.4019 58.0681C54.4332 58.2446 55.4254 57.4396 55.4254 54.8042C55.4254 51.8431 55.098 51.4335 52.7301 51.4335C50.7981 51.4335 50.6183 51.331 50.6183 50.2313C50.6183 49.3423 50.3631 49.0292 49.6387 49.0292C48.7143 49.0292 48.6672 49.2774 48.7974 53.477ZM65.3601 49.35C65.1837 49.526 65.0394 50.0491 65.0394 50.5117C65.0394 50.9747 64.7693 51.4527 64.4386 51.5739C63.9579 51.7498 63.9579 51.9215 64.4386 52.4312C64.7693 52.7817 65.0394 54.2151 65.0394 55.6168C65.0394 57.5613 65.2101 58.1652 65.7605 58.1652C66.3123 58.1652 66.4816 57.5565 66.4816 55.5721C66.4816 53.7107 66.6849 52.901 67.2026 52.7019C67.5992 52.55 67.9237 52.2023 67.9237 51.9292C67.9237 51.6566 67.5992 51.4335 67.2026 51.4335C66.7541 51.4335 66.4816 50.9795 66.4816 50.2313C66.4816 49.0639 66.0134 48.696 65.3601 49.35ZM109.366 53.477L109.505 57.9248L111.971 58.0681C115.068 58.2479 115.994 57.4546 115.994 54.621C115.994 52.111 115.36 51.4335 113.014 51.4335C111.386 51.4335 111.187 51.3027 111.187 50.2313C111.187 49.3423 110.932 49.0292 110.207 49.0292C109.283 49.0292 109.236 49.2774 109.366 53.477ZM133.022 49.6726C132.886 50.027 132.839 52.0283 132.917 54.1204C133.025 57.0103 133.222 57.9248 133.738 57.9248C134.259 57.9248 134.466 56.8896 134.626 53.477C134.808 49.6019 134.734 49.0292 134.052 49.0292C133.621 49.0292 133.158 49.3187 133.022 49.6726ZM148.041 49.35C147.865 49.526 147.72 50.0491 147.72 50.5117C147.72 50.9747 147.45 51.4445 147.12 51.5556C146.654 51.7123 146.647 51.9133 147.089 52.4495C147.402 52.8298 147.727 54.2002 147.81 55.4951C148.031 58.9466 149.163 59.0014 149.163 55.5605C149.163 53.4948 149.329 52.876 149.884 52.876C150.28 52.876 150.605 52.5514 150.605 52.1547C150.605 51.758 150.28 51.4335 149.884 51.4335C149.435 51.4335 149.163 50.9795 149.163 50.2313C149.163 49.0639 148.694 48.696 148.041 49.35ZM188.901 49.35C188.724 49.526 188.58 50.0491 188.58 50.5117C188.58 50.9747 188.31 51.4512 187.979 51.571C187.499 51.745 187.499 51.9922 187.979 52.8067C188.31 53.3664 188.58 54.8013 188.58 55.9947C188.58 57.6036 188.767 58.1652 189.301 58.1652C189.853 58.1652 190.022 57.5565 190.022 55.5721C190.022 53.7107 190.226 52.901 190.743 52.7019C191.14 52.55 191.464 52.2023 191.464 51.9292C191.464 51.6566 191.14 51.4335 190.743 51.4335C190.295 51.4335 190.022 50.9795 190.022 50.2313C190.022 49.0639 189.554 48.696 188.901 49.35ZM213.417 49.35C213.24 49.526 213.096 50.0669 213.096 50.5521C213.096 51.0368 212.88 51.4335 212.615 51.4335C212.351 51.4335 212.135 51.758 212.135 52.1547C212.135 52.5514 212.351 52.876 212.615 52.876C212.88 52.876 213.096 54.0661 213.096 55.5206C213.096 57.5507 213.263 58.1652 213.817 58.1652C214.369 58.1652 214.538 57.5565 214.538 55.5721C214.538 53.7107 214.742 52.901 215.259 52.7019C215.656 52.55 215.98 52.2023 215.98 51.9292C215.98 51.6566 215.656 51.4335 215.259 51.4335C214.811 51.4335 214.538 50.9795 214.538 50.2313C214.538 49.0639 214.07 48.696 213.417 49.35ZM225.915 49.35C225.739 49.526 225.594 50.0491 225.594 50.5117C225.594 50.9747 225.324 51.4527 224.993 51.5739C224.513 51.7498 224.513 51.9215 224.993 52.4312C225.324 52.7817 225.594 54.2151 225.594 55.6168C225.594 57.5613 225.765 58.1652 226.315 58.1652C226.867 58.1652 227.036 57.5565 227.036 55.5721C227.036 53.7107 227.24 52.901 227.758 52.7019C228.154 52.55 228.479 52.2023 228.479 51.9292C228.479 51.6566 228.154 51.4335 227.758 51.4335C227.309 51.4335 227.036 50.9795 227.036 50.2313C227.036 49.0639 226.568 48.696 225.915 49.35ZM56.8843 52.3634C56.1609 53.716 56.2748 55.8678 57.1352 57.0963C57.7366 57.9556 58.349 58.1652 60.2598 58.1652C62.1225 58.1652 62.6359 57.9984 62.6359 57.392C62.6359 56.8001 62.3437 56.6919 61.3933 56.9304C60.017 57.2757 58.3096 56.891 58.3096 56.2356C58.3096 56.0039 59.3373 55.7476 60.5929 55.6673C62.697 55.5321 62.8883 55.4143 63.0311 54.1694C63.2613 52.1605 62.3787 51.4335 59.7099 51.4335C57.9005 51.4335 57.2713 51.6407 56.8843 52.3634ZM68.9841 54.6705C69.0735 56.678 69.3465 57.9215 69.7263 58.047C70.0979 58.1696 70.3272 57.7945 70.3272 57.0631C70.3272 54.5041 70.9112 52.876 71.8294 52.876C72.325 52.876 72.7307 52.5769 72.7307 52.2115C72.7307 51.7599 72.1077 51.5383 70.7867 51.52L68.8423 51.4931L68.9841 54.6705ZM74.0127 51.7542C73.8363 51.9302 73.6921 53.2212 73.6921 54.6219C73.6921 56.6934 73.8753 57.268 74.6718 57.694C75.9947 58.4023 79.5682 58.1013 79.8456 57.2589C80.0158 56.7405 79.6985 56.6612 78.4174 56.9016C77.3017 57.1112 76.4672 56.9819 75.8317 56.501C74.9655 55.8457 75.0842 55.7904 77.3854 55.7764C80.184 55.7591 80.8339 54.984 79.9653 52.699C79.5283 51.5493 79.2481 51.4335 76.9085 51.4335C75.4919 51.4335 74.1887 51.5777 74.0127 51.7542ZM81.4896 54.1502C81.7434 57.2122 82.5726 58.17 84.9603 58.158C87.2965 58.146 87.806 57.5296 88.1103 54.3488C88.3574 51.7657 88.2911 51.4335 87.5301 51.4335C86.8514 51.4335 86.6711 51.8287 86.6711 53.3174C86.6711 56.025 86.2788 56.7227 84.7569 56.7227C83.6513 56.7227 83.3754 56.4688 83.1259 55.2201C82.9605 54.3935 82.8255 53.2034 82.8255 52.5755C82.8255 51.8422 82.5462 51.4335 82.0448 51.4335C81.3901 51.4335 81.3007 51.8715 81.4896 54.1502ZM89.8966 51.733C89.7091 51.921 89.5553 53.2212 89.5553 54.6219C89.5553 56.6934 89.7385 57.268 90.535 57.694C91.8579 58.4023 95.4314 58.1013 95.7088 57.2589C95.879 56.7405 95.5617 56.6612 94.2806 56.9016C93.1649 57.1112 92.3304 56.9819 91.6949 56.501C90.8282 55.8457 90.9445 55.7904 93.2245 55.7764C95.9088 55.7596 96.389 55.2225 95.8174 52.876C95.555 51.7989 95.2497 51.659 92.8813 51.5325C91.4277 51.4551 90.0846 51.545 89.8966 51.733ZM97.2466 54.7772C97.2466 57.468 97.3951 58.1652 97.9676 58.1652C98.5065 58.1652 98.6906 57.5877 98.6959 55.8812C98.7055 52.9794 99.1602 52.2778 100.904 52.4769C102.211 52.6259 102.308 52.7909 102.534 55.2427C102.667 56.677 103.021 57.9311 103.323 58.0301C103.956 58.2383 104.349 55.2725 103.976 53.1034C103.735 51.7013 103.667 51.671 100.488 51.5315L97.2466 51.3897V54.7772ZM117.399 52.4644C116.727 53.7203 117.122 57.1891 118 57.7464C118.351 57.9686 119.665 58.1537 120.921 58.158C122.702 58.1638 123.205 57.995 123.205 57.392C123.205 56.8001 122.912 56.6919 121.962 56.9304C120.586 57.2757 118.878 56.891 118.878 56.2356C118.878 56.0039 119.905 55.7476 121.162 55.6673C123.266 55.5321 123.457 55.4143 123.6 54.1694C123.83 52.1605 122.947 51.4335 120.279 51.4335C118.39 51.4335 117.847 51.6282 117.399 52.4644ZM125.057 52.5985C124.35 54.1497 124.937 57.0675 126.078 57.6786C126.578 57.9465 127.663 58.1652 128.489 58.1652C129.471 58.1652 129.877 58.3508 129.66 58.7014C129.458 59.0283 128.499 59.1442 127.207 58.9985C125.752 58.8346 125.141 58.9307 125.264 59.3039C125.511 60.0569 129.852 60.2752 130.693 59.577C131.178 59.174 131.377 57.9099 131.377 55.2215V51.4335H128.482C125.885 51.4335 125.533 51.5532 125.057 52.5985ZM136.14 52.751C135.547 54.3098 135.934 56.879 136.88 57.6637C137.799 58.4268 142.056 58.1109 142.337 57.2589C142.508 56.7391 142.187 56.6616 140.877 56.9078C139.133 57.2348 137.626 56.9146 137.626 56.2169C137.626 55.9952 138.651 55.7476 139.905 55.6673C142.357 55.5095 142.807 54.9147 142.226 52.5976C141.961 51.5421 141.686 51.4335 139.287 51.4335C136.845 51.4335 136.602 51.5349 136.14 52.751ZM143.875 54.7642C143.875 57.4666 144.023 58.1652 144.596 58.1652C145.157 58.1652 145.317 57.5243 145.317 55.2802C145.317 53.6934 145.328 52.2326 145.342 52.0345C145.356 51.8364 145.032 51.6042 144.621 51.5186C144.002 51.3897 143.875 51.9431 143.875 54.7642ZM152.143 52.0105C151.826 52.3278 151.566 53.6184 151.566 54.8787C151.566 56.6919 151.77 57.279 152.546 57.694C153.877 58.4066 157.442 58.1013 157.722 57.2507C157.895 56.727 157.599 56.6458 156.398 56.8862C155.481 57.0694 154.428 56.9521 153.81 56.5982C152.866 56.0577 153.017 55.9789 155.412 55.761C157.68 55.5547 158.077 55.3706 158.206 54.4637C158.503 52.3783 157.506 51.4335 155.01 51.4335C153.75 51.4335 152.46 51.6931 152.143 52.0105ZM159.257 54.5306C159.257 56.2342 159.488 57.7705 159.77 57.9445C160.552 58.4278 160.735 58.0152 161.036 55.0903C161.303 52.5043 161.371 52.3951 162.702 52.3951C164.285 52.3951 165.026 53.7199 165.026 56.5535C165.026 59.3159 166.205 58.2402 166.374 55.3235C166.572 51.9124 166.073 51.4335 162.323 51.4335H159.257V54.5306ZM171.488 54.1512C171.864 57.2959 172.599 58.1652 174.88 58.1652C177.193 58.1652 177.944 57.294 178.3 54.1983C178.597 51.6147 178.552 51.4335 177.615 51.4335C176.745 51.4335 176.594 51.7662 176.467 53.9579C176.327 56.4097 176.281 56.4823 174.88 56.4823C173.502 56.4823 173.427 56.3751 173.198 54.0824C173.012 52.2268 172.753 51.6431 172.055 51.5109C171.225 51.3532 171.18 51.5671 171.488 54.1512ZM179.447 54.5306C179.447 56.2342 179.678 57.7705 179.96 57.9445C180.741 58.4278 180.925 58.0152 181.226 55.0903C181.493 52.5043 181.561 52.3951 182.891 52.3951C184.475 52.3951 185.215 53.7199 185.215 56.5535C185.215 59.3159 186.394 58.2402 186.564 55.3235C186.762 51.9124 186.263 51.4335 182.513 51.4335H179.447V54.5306ZM192.669 51.9104C192.491 52.198 192.346 53.4419 192.346 54.6753C192.346 56.2943 192.591 57.0968 193.227 57.5623C194.359 58.3912 198.279 58.1691 198.579 57.2589C198.749 56.7405 198.432 56.6612 197.151 56.9016C196.035 57.1112 195.201 56.9819 194.565 56.501C193.699 55.8457 193.815 55.7904 196.095 55.7764C198.779 55.7596 199.26 55.2225 198.688 52.876C198.425 51.7946 198.124 51.6595 195.693 51.5311C194.113 51.4474 192.858 51.6051 192.669 51.9104ZM200.117 54.8647C200.117 57.4781 200.267 58.1652 200.838 58.1652C201.33 58.1652 201.561 57.668 201.566 56.6025C201.576 54.104 202.068 52.876 203.058 52.876C203.555 52.876 203.963 52.5807 203.963 52.2201C203.963 51.7758 203.343 51.5647 202.04 51.5647H200.117V54.8647ZM205.112 52.1196C204.966 52.4971 204.919 53.3087 205.006 53.9228C205.143 54.8873 205.476 55.06 207.448 55.1864C208.952 55.2831 209.731 55.5509 209.731 55.9716C209.731 56.7766 208.066 57.231 206.364 56.8905C205.433 56.7044 204.976 56.8549 204.76 57.4194C204.494 58.1114 204.857 58.1912 207.695 58.0667L210.933 57.9248V56.2419C210.933 54.6041 210.875 54.5527 208.774 54.3185C207.219 54.1454 206.571 53.8429 206.456 53.2366C206.321 52.525 206.671 52.3951 208.735 52.3951C210.076 52.3951 211.173 52.1788 211.173 51.9143C211.173 51.119 205.421 51.3142 205.112 52.1196ZM216.948 54.1406C217.279 57.143 218.155 58.1652 220.398 58.1652C222.527 58.1652 223.672 56.652 223.672 53.8377C223.672 52.021 223.495 51.4335 222.951 51.4335C222.512 51.4335 222.229 51.8811 222.229 52.5755C222.229 53.2034 222.094 54.3935 221.929 55.2201C221.68 56.4688 221.404 56.7227 220.298 56.7227C218.776 56.7227 218.384 56.025 218.384 53.3174C218.384 51.8229 218.205 51.4335 217.517 51.4335C216.749 51.4335 216.685 51.7426 216.948 54.1406ZM229.44 51.8854C229.44 52.1336 230.211 52.4043 231.152 52.4865L232.864 52.6356L231.152 55.0383C230.211 56.3597 229.44 57.6041 229.44 57.8032C229.44 58.0022 230.738 58.1652 232.324 58.1652C234.568 58.1652 235.208 58.0051 235.208 57.444C235.208 56.9401 234.701 56.7227 233.526 56.7227C232.601 56.7227 231.844 56.5967 231.844 56.4429C231.844 56.289 232.601 55.2393 233.526 54.1093C234.451 52.9798 235.208 51.9157 235.208 51.7446C235.208 51.5734 233.911 51.4335 232.324 51.4335C230.738 51.4335 229.44 51.6368 229.44 51.8854ZM236.667 52.3634C235.944 53.716 236.058 55.8678 236.918 57.0963C237.516 57.9503 238.134 58.1652 239.991 58.1652C241.687 58.1652 242.397 57.9551 242.614 57.3892C242.864 56.7371 242.653 56.6621 241.287 56.9184C239.592 57.2363 238.093 56.9069 238.093 56.2169C238.093 55.9952 239.12 55.7476 240.376 55.6673C242.48 55.5321 242.671 55.4143 242.814 54.1694C243.044 52.1605 242.162 51.4335 239.493 51.4335C237.684 51.4335 237.054 51.6407 236.667 52.3634ZM244.342 54.8176C244.342 57.3444 244.499 58.1936 244.943 58.0479C245.282 57.9364 245.648 56.7136 245.784 55.2427C245.994 52.9717 246.167 52.6154 247.132 52.4783C248.892 52.2288 249.63 53.2159 249.63 55.8197C249.63 57.6147 249.804 58.1652 250.373 58.1652C250.983 58.1652 251.09 57.5882 250.974 54.9196L250.831 51.6739L247.587 51.5315L244.342 51.3897V54.8176ZM53.8044 53.6718C54.2183 55.3206 53.4934 56.4429 51.8917 56.6342C50.6779 56.7795 50.6183 56.6838 50.6183 54.5907C50.6183 52.475 50.6703 52.3951 52.0513 52.3951C53.2012 52.3951 53.5477 52.6471 53.8044 53.6718ZM61.4342 53.5972C61.4342 54.3305 61.0635 54.5945 59.8719 54.7094C58.6057 54.8316 58.3096 54.6873 58.3096 53.9483C58.3096 52.6913 58.7869 52.3269 60.2146 52.4932C61.0664 52.5928 61.4342 52.9255 61.4342 53.5972ZM78.4126 53.477C78.2948 54.3065 77.8939 54.594 76.6965 54.7094C75.4303 54.8316 75.1342 54.6873 75.1342 53.9483C75.1342 52.7029 75.5375 52.3951 77.1705 52.3951C78.3429 52.3951 78.5414 52.5682 78.4126 53.477ZM94.122 53.5972C94.122 54.3305 93.7514 54.5945 92.5597 54.7094C91.2935 54.8316 90.9974 54.6873 90.9974 53.9483C90.9974 52.6913 91.4748 52.3269 92.9025 52.4932C93.7543 52.5928 94.122 52.9255 94.122 53.5972ZM114.237 53.4395C115.028 54.7041 113.898 56.7227 112.399 56.7227C111.28 56.7227 111.187 56.5535 111.187 54.5272C111.187 52.4341 111.247 52.3384 112.46 52.4836C113.161 52.5673 113.96 52.9976 114.237 53.4395ZM122.003 53.5972C122.003 54.3305 121.632 54.5945 120.441 54.7094C119.174 54.8316 118.878 54.6873 118.878 53.9483C118.878 52.6913 119.356 52.3269 120.783 52.4932C121.635 52.5928 122.003 52.9255 122.003 53.5972ZM129.934 54.5892C129.934 56.7751 129.929 56.7833 128.372 56.6328C127.057 56.5063 126.785 56.2659 126.654 55.1196C126.419 53.063 126.866 52.3951 128.477 52.3951C129.887 52.3951 129.934 52.4668 129.934 54.5892ZM140.75 53.5972C140.75 54.3305 140.38 54.5945 139.188 54.7094C137.922 54.8316 137.626 54.6873 137.626 53.9483C137.626 52.6913 138.103 52.3269 139.531 52.4932C140.382 52.5928 140.75 52.9255 140.75 53.5972ZM156.287 53.477C156.169 54.3065 155.768 54.594 154.57 54.7094C153.498 54.8128 153.008 54.6546 153.008 54.2045C153.008 53.2044 154.033 52.3951 155.301 52.3951C156.207 52.3951 156.409 52.6163 156.287 53.477ZM196.993 53.5972C196.993 54.3305 196.622 54.5945 195.43 54.7094C194.164 54.8316 193.868 54.6873 193.868 53.9483C193.868 52.6913 194.345 52.3269 195.773 52.4932C196.625 52.5928 196.993 52.9255 196.993 53.5972ZM241.217 53.5972C241.217 54.3305 240.847 54.5945 239.655 54.7094C238.389 54.8316 238.093 54.6873 238.093 53.9483C238.093 52.6913 238.57 52.3269 239.998 52.4932C240.85 52.5928 241.217 52.9255 241.217 53.5972Z" fill="#B1BED3"/>
</svg>
