<svg width="158" height="40" viewBox="0 0 158 40" fill="none" xmlns="http://www.w3.org/2000/svg">
<path fill-rule="evenodd" clip-rule="evenodd" d="M113.954 4.93922V9.87844L113.446 9.57261C112.574 9.0481 111.966 8.90556 110.382 8.85363C109.458 8.82334 108.762 8.84506 108.348 8.91704C105.991 9.32709 103.967 11.1032 102.891 13.7055C101.693 16.6021 101.274 21.6565 101.668 28.4376C101.845 31.4861 102.098 33.2662 102.535 34.5352C102.918 35.6498 103.047 35.92 103.572 36.711C104.694 38.4023 106.119 39.3883 108.028 39.7935C108.798 39.9569 110.9 39.9536 111.854 39.7875C112.756 39.6304 113.182 39.4563 113.987 38.9155C114.32 38.6912 114.62 38.524 114.652 38.5439C114.685 38.5639 114.827 38.8217 114.968 39.1169L115.225 39.6537H118.349H121.472V19.8268V0H117.713H113.954V4.93922ZM125.806 3.48846V6.97693H129.565H133.324V3.48846V0H129.565H125.806V3.48846ZM55.2691 8.92437C54.0543 9.11072 52.3167 9.75003 51.4544 10.3279L51.1777 10.5133L50.9564 9.91527L50.735 9.31729L47.5846 9.29406L44.4342 9.27092V24.4622V39.6537H48.2375H52.0407V26.9019V14.1501L52.597 13.9998C53.0116 13.8877 53.4119 13.8571 54.1698 13.8796C55.0516 13.9057 55.2448 13.9396 55.6251 14.1353C56.2235 14.4433 56.5241 14.9406 56.6371 15.8097C56.6888 16.2072 56.7241 21.0921 56.7257 28.0623L56.7285 39.6537H60.4875H64.2465L64.245 27.7973C64.2436 16.5573 64.2349 15.8996 64.078 15.1461C63.9869 14.7089 63.9394 14.322 63.9722 14.2863C64.005 14.2505 64.3452 14.1412 64.7282 14.0434C65.6634 13.8046 67.0589 13.7997 67.5633 14.0333C68.0238 14.2466 68.4329 14.684 68.6865 15.2344L68.8901 15.676L68.9134 27.6648L68.9368 39.6537H72.742H76.5472L76.5172 27.1791C76.4894 15.6001 76.4761 14.657 76.3302 14.0422C75.7971 11.7937 74.6021 10.3484 72.5676 9.49162C71.5065 9.04483 70.7314 8.89858 69.1996 8.85637C67.952 8.82201 67.7515 8.83853 66.9702 9.0398C65.5463 9.40666 64.2063 10.1057 63.3497 10.9286L62.9393 11.3228L62.1556 10.534C61.3164 9.68927 60.7083 9.32144 59.6915 9.04368C59.066 8.87279 56.123 8.7934 55.2691 8.92437ZM88.0788 8.96058C84.791 9.55697 82.587 11.5019 81.1918 15.0379C80.7029 16.2773 80.2518 18.3276 79.9732 20.5775C79.821 21.8065 79.8204 26.9019 79.9723 28.2168C80.4196 32.0888 81.2179 34.583 82.6537 36.5942C84.304 38.9057 86.413 39.9147 89.6002 39.9175C94.8775 39.9221 97.457 37.7383 97.8144 32.9638L97.8755 32.1468H95.1242H92.373V32.7116C92.373 33.5807 92.0947 34.3647 91.652 34.7431C90.9612 35.3335 89.9081 35.3812 89.1269 34.8575C88.0944 34.1652 87.8124 32.7145 87.712 27.5765L87.6581 24.8167H93.1112H98.5643L98.5642 22.3217C98.5642 19.7653 98.4941 18.5833 98.2462 16.9566C97.5393 12.318 95.4132 9.62436 91.9431 8.97083C91.0484 8.80232 88.9816 8.79684 88.0788 8.96058ZM146.105 8.88321C145.959 8.90256 145.482 8.9619 145.044 9.01516C143.526 9.19947 141.991 9.59981 140.599 10.1739L140.135 10.3654V12.6463V14.9273L140.865 14.5608C142.524 13.727 143.966 13.3966 145.972 13.39C147.551 13.3847 148.044 13.5377 148.764 14.2572C149.495 14.9864 149.628 15.4362 149.669 17.3011L149.702 18.8378L149.322 18.5129C148.795 18.0627 148.033 17.7005 147.241 17.5248C146.303 17.3163 143.932 17.3861 142.936 17.6515C141.464 18.0437 140.346 18.6865 139.429 19.6668C138.139 21.0461 137.417 22.889 137.081 25.664C136.87 27.3998 136.935 30.7925 137.205 32.2104C137.885 35.7764 139.613 38.322 142.096 39.4167C142.882 39.7631 143.819 39.9186 145.12 39.9183C147.296 39.9178 149.079 39.4292 150.008 38.5787L150.197 38.406L150.543 39.0078L150.889 39.6095L153.961 39.6327L157.033 39.656L157.005 27.4894C156.978 15.4043 156.977 15.3186 156.791 14.7045C156.333 13.1853 155.858 12.2963 155.026 11.3985C154.307 10.6242 153.566 10.0864 152.583 9.62621C151.286 9.01949 150.64 8.9045 148.361 8.8743C147.266 8.85981 146.251 8.86379 146.105 8.88321ZM125.806 24.4634V39.6537H129.565H133.324V24.4634V9.27313H129.565H125.806V24.4634ZM90.5182 13.6094C91.0632 13.7261 91.54 14.1129 91.7652 14.6212C92.0191 15.1944 92.1913 16.4171 92.2801 18.2782C92.3256 19.2311 92.3513 20.0886 92.3373 20.1837C92.313 20.3497 92.2186 20.3577 89.9849 20.3803L87.6579 20.4039L87.7114 18.6547C87.7716 16.6878 87.9647 15.1696 88.225 14.6167C88.4685 14.0994 88.8417 13.7717 89.3396 13.6381C89.8779 13.4936 89.967 13.4913 90.5182 13.6094ZM113.247 13.8357C113.514 13.9099 113.783 14.0114 113.844 14.0613C113.931 14.133 113.954 16.3319 113.954 24.5146V34.8772L113.561 35.1071C113.248 35.2906 113.011 35.347 112.389 35.3863C111.413 35.4481 110.948 35.3291 110.494 34.9006C109.896 34.3376 109.689 33.4754 109.533 30.9104C109.227 25.8743 109.403 17.2951 109.848 15.5052C110.257 13.8633 111.371 13.3159 113.247 13.8357ZM148.257 22.0385C148.794 22.1978 149.274 22.5871 149.516 23.0605C149.68 23.3829 149.687 23.6281 149.687 29.0743L149.687 34.7522L149.267 35.0324C148.709 35.4048 148.096 35.6034 147.343 35.6559C146.452 35.7181 146.015 35.5755 145.513 35.0589C144.726 34.2468 144.513 32.9335 144.521 28.9233C144.527 26.123 144.621 25.1188 144.989 23.9433C145.497 22.3201 146.748 21.5909 148.257 22.0385Z" fill="#7B7B7B"/>
<path fill-rule="evenodd" clip-rule="evenodd" d="M22.1869 8.74219H16.2858V18.9052V35.4063C16.2858 37.7012 17.8157 39.8868 19.5642 39.8868H24.2632V36.6084C24.1175 36.6448 23.6512 36.6958 22.9519 36.6084C22.2525 36.521 22.1505 35.0421 22.1869 34.3135V8.74219ZM13.5537 21.965H8.96392C8.89113 21.6371 8.72368 20.9159 8.63617 20.6536C8.52678 20.3258 8.30844 19.7794 7.4342 19.5608C6.55997 19.3423 6.12285 19.6701 5.79501 20.3258C5.46718 20.9815 4.59294 22.7299 9.40123 26.4454C13.2479 29.4178 13.9181 32.4922 13.7724 33.6579C13.8452 35.7706 12.5921 39.9961 6.99698 39.9961C1.40188 39.9961 0.221664 35.9163 0.330943 33.8764H5.02995V34.4228C5.02995 36.1713 6.45058 36.2806 6.99698 36.2806C7.54338 36.2806 8.63617 35.9527 8.63617 34.3135C8.63617 33.2671 7.21114 32.0426 5.61191 30.6684C4.70593 29.8899 3.74404 29.0633 2.95365 28.1939C1.20518 26.2706 0.695151 23.2399 0.658697 21.965C0.476565 19.9251 1.53293 15.8453 7.21545 15.8453C12.898 15.8453 13.8086 19.9251 13.5537 21.965ZM26.2302 8.74219H32.1313V17.0474C32.5684 16.6467 34.0328 15.8453 36.3932 15.8453C38.7536 15.8453 40.218 17.5938 40.6551 18.468C41.0558 19.1966 41.8572 21.3312 41.8572 24.0413C41.8572 24.906 41.8643 25.7707 41.8713 26.6172C41.8916 29.0872 41.9107 31.4024 41.7479 33.1115C41.5293 35.4063 40.7644 37.2641 39.3438 38.6847C38.2072 39.8212 35.9561 40.0325 34.9726 39.9961C34.2805 39.9961 32.6777 39.8431 31.8035 39.2311C30.9292 38.6191 31.2207 38.8304 31.4756 39.0125L31.1478 39.8868H26.2302V8.74219ZM32.1313 19.998V36.1713C32.4227 36.3534 33.1148 36.7177 33.552 36.7177C34.0984 36.7177 35.1911 36.6084 35.6283 34.2043C35.978 32.2809 35.9197 28.886 35.8468 27.4289C35.8468 25.6076 35.7813 21.7683 35.519 20.9815C35.1911 19.998 34.2076 19.6701 33.8798 19.6701C33.6175 19.6701 32.6049 19.8887 32.1313 19.998Z" fill="#FDD851"/>
</svg>
