<svg width="224" height="60" viewBox="0 0 224 60" fill="none" xmlns="http://www.w3.org/2000/svg">
<path fill-rule="evenodd" clip-rule="evenodd" d="M117.308 0.20821C117.229 0.287629 117.163 2.24055 117.163 4.54804V8.74313H123.247H129.33L129.323 26.6992L129.315 44.6552L133.773 44.7138L138.23 44.7726V26.7578V8.74313H144.203H150.175V4.4033V0.0634766H133.814C124.815 0.0634766 117.388 0.128574 117.308 0.20821ZM166.138 0.279383C161.501 0.836617 157.403 3.67096 155.446 7.67402C154.955 8.67977 154.441 10.0397 154.304 10.6961C154.13 11.5313 154.076 15.3102 154.124 23.2816C154.192 34.4651 154.202 34.6973 154.679 35.9608C155.886 39.1558 158.297 41.9144 161.2 43.4197C164.285 45.0195 164.422 45.0375 174.337 45.1402L183.187 45.2318V40.8822V36.5324L174.662 36.4709C165.062 36.4017 165.124 36.4117 163.763 34.7085L163.098 33.8753L163.028 30.423L162.959 26.9704H170.032H177.106V22.6306V18.2908H170.032H162.959L163.028 14.8382L163.098 11.3859L163.762 10.5526C164.127 10.0946 164.856 9.5 165.382 9.23136C166.326 8.74986 166.455 8.74313 174.763 8.74313H183.187V4.4033V0.0634766L175.314 0.0932044C170.984 0.109479 166.855 0.193237 166.138 0.279383ZM200.561 0.192152C200.263 0.243579 199.432 0.388964 198.715 0.515253C196.983 0.82056 194.147 2.20431 192.576 3.51104C190.979 4.83881 189.434 7.07946 188.666 9.18211L188.073 10.8046L188.01 22.015C187.94 34.3867 187.976 34.8175 189.283 37.4513C190.657 40.2188 192.666 42.2182 195.517 43.6549C198.14 44.9764 198.939 45.0892 205.665 45.0892C211.44 45.0892 211.828 45.0636 213.37 44.5799C217.349 43.3316 220.198 41.046 221.879 37.7538C222.473 36.5912 223.148 33.8358 223.148 32.5775V31.5272H218.696H214.244L214.239 32.2325C214.228 33.8781 212.69 35.8321 211.046 36.288C209.985 36.5827 200.922 36.5855 199.862 36.2915C198.817 36.0016 197.829 35.1608 197.288 34.1012C196.873 33.2883 196.86 32.8617 196.918 22.3222L196.978 11.387L197.642 10.5533C198.007 10.0948 198.737 9.5 199.263 9.23136C200.177 8.76462 200.449 8.74335 205.44 8.74791C210.019 8.75203 210.767 8.80129 211.531 9.14782C213.018 9.82267 213.872 11.0363 214.337 13.1372L214.469 13.7339H218.809H223.148V12.6837C223.148 11.2756 222.427 8.53612 221.692 7.15367C221.364 6.53611 220.311 5.23916 219.353 4.27181C218.018 2.92407 217.229 2.33017 215.978 1.73149C213.229 0.41522 212.158 0.241844 206.317 0.166114C203.45 0.129008 200.86 0.140726 200.561 0.192152ZM43.1211 53.7882C41.7172 54.9684 42.4898 56.5587 44.6307 56.8968C45.6821 57.063 46.3621 57.5126 46.3621 58.0416C46.3621 58.5331 45.4391 59.0851 44.6173 59.0851C43.8463 59.0851 43.6875 58.994 43.2927 58.3257C43.0462 57.908 42.7074 57.5662 42.5399 57.5662C42.03 57.5662 42.1994 58.3869 42.8625 59.1283C43.4263 59.7587 43.6104 59.8292 44.6944 59.8292C46.5617 59.8292 47.5308 58.7032 46.9201 57.2431C46.669 56.6425 46.439 56.4639 45.6728 56.2734C43.3244 55.6899 43.4302 55.7465 43.4302 55.071C43.4302 53.7999 45.4317 53.4625 45.9701 54.6429C46.2401 55.2348 47.0137 55.3789 47.0137 54.8371C47.0137 54.649 46.7281 54.2096 46.3788 53.8606C45.5153 52.9979 44.0984 52.9664 43.1211 53.7882ZM49.1431 53.852C48.5025 54.4237 48.4351 54.6082 48.3563 56.0021C48.2464 57.9431 48.5698 58.9378 49.4965 59.51C51.722 60.8842 53.8651 58.7607 53.3977 55.6447C53.1762 54.1685 52.1796 53.2264 50.8395 53.2264C50.049 53.2264 49.6996 53.3553 49.1431 53.852ZM54.8322 56.4812C54.8322 59.5914 54.8516 59.7361 55.2666 59.7361C55.6564 59.7361 55.701 59.5914 55.701 58.3257V56.9152H57.0894C58.0802 56.9152 58.5113 56.828 58.5947 56.611C58.7784 56.1328 58.548 56.0473 57.0764 56.0473H55.701V55.0708V54.0943H57.3298C58.8138 54.0943 58.9587 54.0557 58.9587 53.6604C58.9587 53.2568 58.8138 53.2264 56.8955 53.2264H54.8322V56.4812ZM60.0446 53.6604C60.0446 54.0301 60.1895 54.0943 61.0219 54.0943H61.9992V56.9152C61.9992 59.5914 62.0216 59.7361 62.4336 59.7361C62.8456 59.7361 62.868 59.5914 62.868 56.9152V54.0943H63.8453C64.6777 54.0943 64.8226 54.0301 64.8226 53.6604C64.8226 53.2526 64.6777 53.2264 62.4336 53.2264C60.1895 53.2264 60.0446 53.2526 60.0446 53.6604ZM65.9085 53.4692C65.9085 53.6202 66.1737 55.0921 66.498 56.7399C67.0431 59.5113 67.1234 59.7361 67.5684 59.7361C68.0727 59.7361 68.0595 59.768 69.1606 55.9388L69.5348 54.6368L69.8806 55.8303C70.0708 56.4867 70.3949 57.6341 70.6007 58.3799C70.9146 59.5174 71.0518 59.7361 71.451 59.7361C71.8908 59.7361 71.9766 59.4887 72.5777 56.4812C73.1828 53.4553 73.2013 53.2264 72.841 53.2264C72.3918 53.2264 72.3695 53.2921 71.858 56.1093C71.646 57.2772 71.4045 58.1072 71.3211 57.9537C71.2377 57.8003 70.8926 56.7113 70.5545 55.5339C70.015 53.6558 69.6034 52.9343 69.2644 53.2728C69.2093 53.3279 68.8298 54.4873 68.4209 55.8494C68.0119 57.2114 67.661 58.2768 67.6405 58.2172C67.6203 58.1575 67.3906 57.0354 67.1299 55.7235C66.7627 53.8734 66.5724 53.3223 66.2825 53.2665C66.0768 53.227 65.9085 53.3182 65.9085 53.4692ZM74.9765 56.1288C74.4097 57.7333 73.886 59.2012 73.8131 59.3911C73.7188 59.6367 73.8077 59.7361 74.1213 59.7361C74.4336 59.7361 74.6362 59.5117 74.816 58.9671L75.0701 58.1983L76.5087 58.2619C77.9263 58.3248 77.9504 58.3361 78.1491 59.0309C78.2996 59.5577 78.4742 59.7361 78.8391 59.7361C79.3232 59.7361 79.3197 59.7138 78.4595 57.295C77.9819 55.9524 77.47 54.512 77.3219 54.0943C77.1279 53.548 76.906 53.3177 76.53 53.2735C76.0433 53.2162 75.9367 53.4123 74.9765 56.1288ZM80.6769 56.475C80.6769 59.494 80.7086 59.7619 81.057 59.6958C81.3567 59.6387 81.4507 59.3603 81.5022 58.3777L81.5673 57.1322H82.4313C83.28 57.1322 83.3057 57.1557 83.8606 58.4342C84.2624 59.3596 84.5432 59.7361 84.8318 59.7361C85.3678 59.7361 85.3448 59.4989 84.6822 58.1922L84.1266 57.0968L84.6822 56.5824C85.3769 55.939 85.4449 54.6151 84.8225 53.8472C84.4557 53.3943 84.1909 53.326 82.5421 53.2583L80.6769 53.1819V56.475ZM86.9752 56.4812V59.7361H89.147C90.9327 59.7361 91.3188 59.6782 91.3188 59.4106C91.3188 59.1485 90.9809 59.0851 89.5814 59.0851H87.8439V57.8917V56.6982H89.3642C90.5709 56.6982 90.8845 56.631 90.8845 56.3727C90.8845 56.1145 90.5709 56.0473 89.3642 56.0473H87.8439V55.0708V54.0943H89.5814C91.174 54.0943 91.3188 54.0581 91.3188 53.6604C91.3188 53.2552 91.174 53.2264 89.147 53.2264H86.9752V56.4812ZM99.5718 55.6241C99.5718 58.4296 99.8371 59.163 101.033 59.6623C102.09 60.1037 103.101 59.8837 103.794 59.0611C104.322 58.4335 104.35 58.2729 104.35 55.8136C104.35 53.3711 104.325 53.2264 103.915 53.2264C103.506 53.2264 103.481 53.3711 103.481 55.7218C103.481 57.9279 103.431 58.2675 103.047 58.6512C102.54 59.1574 101.572 59.2164 100.971 58.7777C100.601 58.5082 100.54 58.1443 100.477 55.8483C100.41 53.4345 100.371 53.2264 99.9879 53.2264C99.603 53.2264 99.5718 53.406 99.5718 55.6241ZM106.087 56.4812C106.087 59.574 106.108 59.7361 106.515 59.7361C106.912 59.7361 106.947 59.5573 107.003 57.227L107.065 54.718L108.585 57.2181C109.789 59.1984 110.207 59.7201 110.594 59.7272C111.079 59.7361 111.082 59.7146 111.082 56.4812C111.082 53.3885 111.061 53.2264 110.655 53.2264C110.258 53.2264 110.223 53.4052 110.166 55.7196L110.105 58.2126L108.597 55.7196C107.373 53.6968 106.994 53.2264 106.588 53.2264C106.087 53.2264 106.087 53.2275 106.087 56.4812ZM113.037 56.4812V59.7361H114.617C117.022 59.7361 117.815 58.9287 117.815 56.4812C117.815 54.0887 116.896 53.2264 114.347 53.2264H113.037V56.4812ZM121.941 56.4812C121.941 59.5914 121.961 59.7361 122.376 59.7361C122.791 59.7361 122.81 59.5914 122.81 56.4812C122.81 53.3711 122.791 53.2264 122.376 53.2264C121.961 53.2264 121.941 53.3711 121.941 56.4812ZM123.896 53.6604C123.896 54.0301 124.041 54.0943 124.873 54.0943H125.851V56.9152C125.851 59.5914 125.873 59.7361 126.285 59.7361C126.697 59.7361 126.72 59.5914 126.72 56.9152V54.0943H127.697C128.529 54.0943 128.674 54.0301 128.674 53.6604C128.674 53.2526 128.529 53.2264 126.285 53.2264C124.041 53.2264 123.896 53.2526 123.896 53.6604ZM133.398 53.3509C133.308 53.4416 133.235 54.9152 133.235 56.626V59.7361H134.86C136.327 59.7361 136.551 59.678 137.152 59.1394C138.395 58.0269 138.501 55.298 137.352 54.0127C136.806 53.4019 136.62 53.3388 135.158 53.2659C134.279 53.2223 133.488 53.2604 133.398 53.3509ZM139.75 56.4812C139.75 59.5914 139.77 59.7361 140.185 59.7361C140.6 59.7361 140.619 59.5914 140.619 56.4812C140.619 53.3711 140.6 53.2264 140.185 53.2264C139.77 53.2264 139.75 53.3711 139.75 56.4812ZM142.501 53.3711C142.422 53.4505 142.357 54.9152 142.357 56.626V59.7361H144.637C146.491 59.7361 146.917 59.6769 146.917 59.4193C146.917 59.1724 146.523 59.0888 145.126 59.0396L143.334 58.9766V57.8917V56.8067L144.909 56.7429C146.09 56.6952 146.483 56.6028 146.483 56.3727C146.483 56.1427 146.09 56.0503 144.909 56.0026L143.334 55.9388L143.267 55.0166L143.2 54.0943H145.059C146.773 54.0943 146.917 54.0605 146.917 53.6604C146.917 53.2559 146.773 53.2264 144.782 53.2264C143.607 53.2264 142.581 53.2915 142.501 53.3711ZM148.655 56.4812C148.655 59.1986 148.708 59.7361 148.974 59.7361C149.233 59.7361 149.304 59.2559 149.354 57.1873L149.415 54.6383L150.935 57.1802C152.148 59.2075 152.554 59.7235 152.944 59.729C153.43 59.7361 153.433 59.7142 153.433 56.4812C153.433 53.7326 153.382 53.2264 153.107 53.2264C152.836 53.2264 152.781 53.6497 152.781 55.7346C152.781 57.114 152.698 58.1909 152.595 58.1278C152.493 58.0644 151.752 56.9358 150.949 55.6196C149.906 53.9105 149.37 53.2264 149.072 53.2264C148.679 53.2264 148.655 53.4162 148.655 56.4812ZM155.805 53.8606C155.426 54.2393 155.17 54.7243 155.17 55.0641C155.17 55.8422 156.035 56.6425 157.046 56.8007C158.814 57.0769 159.498 57.8303 158.739 58.6672C157.961 59.5267 155.822 58.958 155.822 57.8917C155.822 57.4679 155.194 57.4692 155.031 57.8934C154.839 58.3923 155.548 59.3006 156.409 59.6602C158.236 60.4227 160.2 59.2049 159.833 57.5378C159.663 56.7616 158.624 56.0492 157.662 56.0481C156.158 56.0462 155.545 54.7711 156.73 54.1087C157.459 53.7016 158.438 53.9852 158.751 54.6941C159.006 55.2715 159.734 55.3503 159.724 54.7996C159.708 53.9034 158.682 53.2264 157.34 53.2264C156.635 53.2264 156.303 53.3637 155.805 53.8606ZM160.817 53.6604C160.817 54.0301 160.962 54.0943 161.794 54.0943H162.772V56.9152C162.772 59.5914 162.794 59.7361 163.206 59.7361C163.618 59.7361 163.64 59.5914 163.64 56.9152V54.0943H164.618C165.45 54.0943 165.595 54.0301 165.595 53.6604C165.595 53.2526 165.45 53.2264 163.206 53.2264C160.962 53.2264 160.817 53.2526 160.817 53.6604ZM166.898 56.4812V59.7361H168.853C170.663 59.7361 170.807 59.704 170.807 59.3021C170.807 58.9094 170.663 58.8681 169.287 58.8681H167.767V56.0473C167.767 53.3711 167.745 53.2264 167.333 53.2264C166.918 53.2264 166.898 53.3711 166.898 56.4812ZM172.111 56.4812V59.7361H174.282C176.068 59.7361 176.454 59.6782 176.454 59.4106C176.454 59.1485 176.116 59.0851 174.717 59.0851H172.979V57.8917V56.6982H174.608C175.911 56.6982 176.237 56.6331 176.237 56.3727C176.237 56.1208 175.93 56.0414 174.88 56.0217C174.133 56.0073 173.4 56.0117 173.251 56.031C173.068 56.0546 172.979 55.7433 172.979 55.0803V54.0943H174.717C176.309 54.0943 176.454 54.0581 176.454 53.6604C176.454 53.2552 176.309 53.2264 174.282 53.2264H172.111V56.4812ZM178.192 56.4812C178.192 59.5914 178.211 59.7361 178.626 59.7361C179.041 59.7361 179.06 59.5914 179.06 56.4812C179.06 53.3711 179.041 53.2264 178.626 53.2264C178.211 53.2264 178.192 53.3711 178.192 56.4812ZM181.683 53.7882C180.279 54.9684 181.052 56.5587 183.193 56.8968C184.244 57.063 184.924 57.5126 184.924 58.0416C184.924 58.4489 184.008 59.0851 183.422 59.0851C182.489 59.0851 182.122 58.8877 181.761 58.1909C181.398 57.4894 180.798 57.3522 180.798 57.9709C180.798 59.0936 182.497 60.102 183.935 59.8327C184.718 59.6858 185.793 58.6867 185.793 58.1061C185.793 56.9575 184.659 56.0473 183.227 56.0473C182.509 56.0473 181.811 55.393 181.92 54.8232C182.125 53.7613 184.069 53.6269 184.532 54.6429C184.802 55.2348 185.576 55.3789 185.576 54.8371C185.576 54.649 185.29 54.2096 184.941 53.8606C184.078 52.9979 182.661 52.9664 181.683 53.7882ZM186.445 53.653C186.445 54.0314 186.584 54.0943 187.422 54.0943H188.399V56.9152C188.399 59.5914 188.422 59.7361 188.834 59.7361C189.246 59.7361 189.268 59.5914 189.268 56.9276V54.1193L190.191 54.0525C190.837 54.0058 191.114 53.8882 191.114 53.6604C191.114 53.395 190.682 53.3236 188.779 53.2732C186.556 53.2147 186.445 53.2329 186.445 53.653ZM192.309 55.801C192.309 58.0538 192.363 58.4452 192.746 58.9317C193.654 60.085 195.488 60.2005 196.462 59.1656C196.938 58.6598 196.984 58.4094 197.05 55.9218C197.12 53.3127 197.107 53.2264 196.67 53.2264C196.238 53.2264 196.218 53.3383 196.218 55.7218C196.218 57.9279 196.167 58.2675 195.783 58.6512C195.542 58.8922 195.06 59.0851 194.698 59.0851C194.335 59.0851 193.853 58.8922 193.612 58.6512C193.228 58.2675 193.177 57.9279 193.177 55.7218C193.177 53.3711 193.152 53.2264 192.743 53.2264C192.333 53.2264 192.309 53.3711 192.309 55.801ZM198.824 56.4661C198.824 59.5738 198.845 59.7361 199.251 59.7361C199.648 59.7361 199.683 59.5573 199.74 57.2242L199.801 54.7121L201.28 57.2242C202.525 59.3395 202.842 59.7361 203.289 59.7361H203.819V56.4812C203.819 53.3885 203.798 53.2264 203.392 53.2264C202.995 53.2264 202.96 53.4052 202.903 55.7207L202.842 58.2148L201.312 55.7749C200.213 54.0214 199.648 53.3153 199.304 53.2654C198.827 53.1966 198.824 53.2175 198.824 56.4661ZM206.362 53.6638C205.603 54.2601 205.274 55.3896 205.38 57.0415C205.454 58.2061 205.568 58.5305 206.093 59.0786C206.89 59.9091 207.965 60.128 208.947 59.6597C209.352 59.467 209.683 59.4052 209.683 59.5226C209.683 59.64 209.83 59.7361 210.009 59.7361C210.271 59.7361 210.335 59.3985 210.335 58.0002V56.2643H209.14C208.09 56.2643 207.946 56.3168 207.946 56.6982C207.946 57.0602 208.09 57.1322 208.818 57.1322C209.659 57.1322 209.686 57.1546 209.556 57.7289C209.199 59.2961 207.25 59.6003 206.526 58.2016C206.147 57.469 206.109 55.6343 206.457 54.8703C206.959 53.7693 209.027 53.704 209.368 54.7783C209.523 55.2683 210.335 55.3177 210.335 54.8371C210.335 54.649 210.049 54.2096 209.7 53.8606C209.169 53.3307 208.888 53.2264 207.992 53.2264C207.244 53.2264 206.749 53.3592 206.362 53.6638ZM212.072 56.4812V59.7361H214.244C216.03 59.7361 216.416 59.6782 216.416 59.4106C216.416 59.1485 216.078 59.0851 214.678 59.0851H212.941V57.8917V56.6982H214.461C215.668 56.6982 215.981 56.631 215.981 56.3727C215.981 56.1145 215.668 56.0473 214.461 56.0473H212.941V55.0708V54.0943H214.678C216.271 54.0943 216.416 54.0581 216.416 53.6604C216.416 53.2552 216.271 53.2264 214.244 53.2264H212.072V56.4812ZM218.153 56.4812C218.153 59.574 218.174 59.7361 218.581 59.7361C218.978 59.7361 219.013 59.5573 219.069 57.2305L219.131 54.7249L220.622 57.2305C221.859 59.3084 222.202 59.7361 222.631 59.7361H223.148V56.4812C223.148 53.3885 223.127 53.2264 222.721 53.2264C222.324 53.2264 222.289 53.4054 222.232 55.776L222.171 58.3257L220.654 55.776C219.429 53.7185 219.041 53.2264 218.645 53.2264C218.156 53.2264 218.153 53.2446 218.153 56.4812ZM52.0632 54.5615C52.3455 54.8948 52.4432 55.3976 52.4432 56.5151C52.4432 57.8236 52.3737 58.0894 51.91 58.5524C51.6168 58.8454 51.1238 59.0851 50.8144 59.0851C50.5049 59.0851 50.0119 58.8454 49.7187 58.5524C49.2602 58.0944 49.1855 57.8192 49.1855 56.5854C49.1855 55.7964 49.2895 54.9564 49.4168 54.7188C49.907 53.8038 51.3488 53.7181 52.0632 54.5615ZM84.1084 54.3547C84.2517 54.4979 84.369 54.869 84.369 55.1793C84.369 56.0121 83.9802 56.2643 82.6967 56.2643H81.5456V55.1793V54.0943H82.6967C83.3298 54.0943 83.965 54.2115 84.1084 54.3547ZM116.503 54.5693C116.858 54.9493 116.946 55.3349 116.946 56.4982C116.946 58.4051 116.585 58.8831 115.032 59.0322L113.906 59.1403V56.6173V54.0943H114.983C115.812 54.0943 116.163 54.2039 116.503 54.5693ZM136.5 54.315C137.434 54.8143 137.575 57.7606 136.702 58.5494C136.468 58.7616 135.796 58.9779 135.192 59.0359L134.104 59.1403V56.6173V54.0943H135.095C135.641 54.0943 136.273 54.1937 136.5 54.315ZM77.0854 55.8965L77.6327 57.3492H76.5252C75.7288 57.3492 75.4472 57.273 75.5219 57.078C75.579 56.9289 75.8025 56.2465 76.0183 55.5616C76.2342 54.8768 76.4395 54.3452 76.4744 54.3801C76.5094 54.4151 76.7844 55.0973 77.0854 55.8965ZM92.8391 57.0237C92.8391 57.2769 93.1286 57.3492 94.1422 57.3492C95.1558 57.3492 95.4453 57.2769 95.4453 57.0237C95.4453 56.7705 95.1558 56.6982 94.1422 56.6982C93.1286 56.6982 92.8391 56.7705 92.8391 57.0237ZM128.674 57.0237C128.674 57.2796 128.976 57.3492 130.086 57.3492C131.196 57.3492 131.498 57.2796 131.498 57.0237C131.498 56.7679 131.196 56.6982 130.086 56.6982C128.976 56.6982 128.674 56.7679 128.674 57.0237Z" fill="#B1BED3"/>
<path fill-rule="evenodd" clip-rule="evenodd" d="M14.267 0.213022C5.28502 1.4234 -0.446198 9.57881 2.13588 17.4756C3.47524 21.5711 6.39743 24.3238 10.7458 25.5865C12.151 25.9944 13.144 26.0788 18.0199 26.2049C24.1979 26.3646 24.6829 26.4614 26.4766 27.8914C29.2065 30.0678 28.3369 34.9776 24.9213 36.6728C23.9242 37.1677 23.6979 37.1877 19.1058 37.1877H14.3278L13.0986 36.5845C12.4223 36.2527 11.5553 35.6668 11.1717 35.2825C10.3927 34.5022 9.67036 33.1026 9.6632 32.3596L9.65842 31.8714H5.24767H0.836914L0.995023 33.3361C1.48933 37.9188 4.49556 41.8302 9.18149 43.9882C11.6645 45.1318 13.0352 45.3173 18.9972 45.3173C25.1372 45.3173 26.383 45.1331 29.0684 43.827C36.1214 40.3968 39.1832 32.38 35.9086 25.917C34.4739 23.0852 32.2514 21.054 29.0439 19.6427C26.8097 18.6597 24.9854 18.3971 19.2144 18.2281C13.9567 18.074 13.8807 18.0651 12.8076 17.4766C10.7426 16.3439 9.80132 13.9967 10.5289 11.7943C10.9118 10.6351 12.0893 9.43299 13.3892 8.87445C15.5955 7.9262 22.8301 8.04598 24.8062 9.06367C26.3584 9.86285 27.6845 11.786 27.6845 13.2375C27.6845 13.6211 27.9241 13.6441 31.9196 13.6441H36.1546V12.7132C36.1546 10.1078 34.6444 6.93672 32.2375 4.48819C30.886 3.11333 30.2336 2.64376 28.5431 1.82852C27.4139 1.28409 25.8059 0.6878 24.9698 0.503574C23.1042 0.0923752 16.4942 -0.0870767 14.267 0.213022ZM52.7691 0.740963C47.7685 1.9483 43.9004 5.69119 42.6647 10.5186C42.2664 12.0749 42.236 12.9409 42.2394 22.6298C42.2438 34.2876 42.3002 34.8835 43.6641 37.641C45.4411 41.2344 49.2349 44.1165 53.2034 44.8881C54.0693 45.0565 56.5105 45.1159 60.479 45.0656C66.3466 44.9909 66.4798 44.9792 68.0574 44.4001C71.6802 43.0701 74.3344 40.7616 75.8786 37.5974C77.1977 34.8943 77.2273 34.5333 77.1523 22.0341C77.0763 9.32644 77.1586 10.0193 75.3753 7.08189C73.6418 4.22606 71.223 2.25318 68.0446 1.10204C66.4754 0.533736 66.3586 0.524405 60.2619 0.475799C55.4623 0.437609 53.7794 0.497064 52.7691 0.740963ZM94.6852 0.727292C90.2369 1.70072 86.3767 5.063 84.7691 9.36442L84.2644 10.7148L84.2018 27.8028L84.1393 44.8909H88.4892H92.8392V35.8858V26.8806H100.332H107.825V22.7606V18.6406L100.386 18.5835L92.9478 18.5264L92.8813 15.5971C92.8433 13.921 92.9154 12.3237 93.0501 11.8637C93.358 10.8104 94.1992 9.8342 95.3098 9.24052C96.182 8.77442 96.4251 8.7601 104.621 8.6937L113.037 8.62578V4.51661V0.407664L104.513 0.424806C98.3341 0.437392 95.6298 0.520716 94.6852 0.727292ZM65.6914 9.13267C66.5695 9.51132 67.5294 10.4199 68.0463 11.3612C68.3643 11.9403 68.4136 13.2102 68.4705 22.2639C68.5117 28.8702 68.4544 32.8084 68.3091 33.3476C67.9733 34.5931 67.026 35.6935 65.8441 36.2104C64.8613 36.6402 64.4919 36.6624 59.3095 36.6014L53.8168 36.5367L52.9511 35.937C52.475 35.6071 51.8484 34.9236 51.5585 34.418L51.0316 33.4989V22.7578V12.0167L51.5585 11.0975C52.207 9.96657 53.378 9.12746 54.599 8.91915C55.1064 8.83257 57.6387 8.7716 60.2265 8.78331C63.9066 8.80002 65.0968 8.87619 65.6914 9.13267Z" fill="#B1BED3"/>
</svg>
