<svg width="300" height="60" viewBox="0 0 300 60" fill="none" xmlns="http://www.w3.org/2000/svg">
<path d="M111.335 16.3887C111.335 19.4789 113.727 20.6751 116.419 20.6751C118.213 20.6751 120.905 20.1767 120.905 17.7843C120.905 15.2922 117.466 14.8935 114.076 13.9963C110.637 13.0992 107.198 11.7535 107.198 7.41725C107.198 2.68232 111.634 0.439453 115.821 0.439453C120.655 0.439453 125.041 2.53281 125.041 7.86584H120.157C120.007 5.07472 118.014 4.37694 115.621 4.37694C114.026 4.37694 112.133 5.07471 112.133 6.96868C112.133 8.76298 113.229 8.96234 119.011 10.4576C120.705 10.8563 125.839 11.9528 125.839 17.1862C125.839 21.4227 122.5 24.5627 116.269 24.5627C111.186 24.5627 106.401 22.0208 106.451 16.3389L111.335 16.3887Z" fill="#0072BD"/>
<path d="M134.512 7.367H137.852V10.4572H134.512V18.7308C134.512 20.2759 134.911 20.6747 136.456 20.6747C136.954 20.6747 137.403 20.6248 137.901 20.5251V24.1137C137.104 24.2632 136.107 24.2632 135.21 24.2632C132.419 24.2632 129.927 23.6153 129.927 20.2759V10.4073H127.136V7.31715H129.927V2.33301H134.512V7.367Z" fill="#0072BD"/>
<path d="M140.992 12.5012C141.241 8.21483 145.079 6.91895 148.817 6.91895C152.156 6.91895 156.143 7.66657 156.143 11.6539V20.3263C156.143 21.8215 156.293 23.3666 156.742 24.0146H152.106C151.957 23.5162 151.807 22.9679 151.757 22.4196C150.312 23.9149 148.169 24.4631 146.125 24.4631C142.935 24.4631 140.443 22.8682 140.443 19.479C140.443 15.691 143.284 14.7939 146.125 14.3952C148.916 13.9964 151.558 14.0961 151.558 12.2021C151.558 10.2085 150.212 9.95928 148.568 9.95928C146.823 9.95928 145.677 10.6571 145.527 12.5012H140.992ZM151.608 15.8904C150.81 16.5882 149.215 16.5882 147.82 16.8374C146.424 17.1365 145.128 17.6349 145.128 19.2796C145.128 20.9742 146.474 21.4228 147.92 21.4228C151.508 21.4228 151.608 18.5819 151.608 17.585V15.8904Z" fill="#0072BD"/>
<path d="M171.793 21.9207H171.743C170.696 23.715 168.802 24.5124 166.659 24.5124C161.625 24.5124 159.183 20.1762 159.183 15.5908C159.183 11.1051 161.675 6.91839 166.559 6.91839C168.553 6.91839 170.447 7.7657 171.493 9.41047H171.543V1.03711H176.129V24.1137H171.743L171.793 21.9207ZM167.805 10.3575C164.815 10.3575 163.768 12.9492 163.768 15.6905C163.768 18.2822 164.964 21.0734 167.805 21.0734C170.846 21.0734 171.743 18.4318 171.743 15.6905C171.743 12.9492 170.746 10.3575 167.805 10.3575Z" fill="#0072BD"/>
<path d="M186.047 7.367H189.387V10.4572H186.047V18.7308C186.047 20.2759 186.446 20.6747 187.991 20.6747C188.49 20.6747 188.938 20.6248 189.437 20.5251V24.1137C188.639 24.2632 187.642 24.2632 186.745 24.2632C183.954 24.2632 181.462 23.6153 181.462 20.2759V10.4073H178.671V7.31715H181.462V2.33301H186.047V7.367Z" fill="#0072BD"/>
<path d="M200.9 20.0268L213.261 5.22387H201.847V0.9375H219.99V4.92482L207.629 19.7277H220.339V24.0141H200.9V20.0268Z" fill="#0072BD"/>
<path d="M238.78 24.0644H234.444V21.7218H234.344C233.198 23.6158 231.154 24.513 229.26 24.513C224.376 24.513 223.18 21.7717 223.18 17.6348V7.36751H227.765V16.7875C227.765 19.5288 228.563 20.8745 230.706 20.8745C233.198 20.8745 234.244 19.479 234.244 16.0898V7.31766H238.83L238.78 24.0644ZM225.472 0.987793H229.809V4.77575H225.472V0.987793ZM232.101 0.987793H236.438V4.77575H232.101V0.987793Z" fill="#0072BD"/>
<path d="M242.917 7.36753H247.253V10.4577H247.303C248.15 8.36435 250.393 6.91895 252.636 6.91895C252.935 6.91895 253.334 6.9688 253.633 7.06848V11.3548C253.234 11.2552 252.536 11.2053 251.988 11.2053C248.649 11.2053 247.453 13.6476 247.453 16.5882V24.1142H242.867L242.917 7.36753Z" fill="#0072BD"/>
<path d="M261.009 4.77575H256.424V0.987793H261.009V4.77575ZM256.424 7.36751H261.009V24.0644H256.424V7.36751Z" fill="#0072BD"/>
<path d="M276.16 13.2488C275.861 11.3548 274.665 10.358 272.771 10.358C269.83 10.358 268.883 13.3485 268.883 15.7907C268.883 18.1831 269.83 21.0739 272.671 21.0739C274.814 21.0739 276.011 19.7282 276.31 17.6847H280.746C280.147 22.1206 277.107 24.513 272.721 24.513C267.687 24.513 264.298 20.9742 264.298 15.9402C264.298 10.7567 267.388 6.91895 272.821 6.91895C276.758 6.91895 280.397 8.96245 280.646 13.2488H276.16Z" fill="#0072BD"/>
<path d="M283.638 0.987793H288.223V9.6602H288.323C289.469 7.76623 291.463 6.86909 293.207 6.86909C298.092 6.86909 299.288 9.61037 299.288 13.7472V24.0145H294.703V14.5945C294.703 11.8532 293.905 10.5075 291.762 10.5075C289.27 10.5075 288.223 11.9031 288.223 15.2923V24.0644H283.638V0.987793Z" fill="#0072BD"/>
<path d="M84.3213 39.266C84.1219 39.266 83.8727 39.3158 83.7232 39.3656L82.6765 35.5777L83.2248 34.8799C84.8197 32.7866 85.7667 31.5904 86.5143 30.1948C87.6108 28.1015 87.4613 26.0081 87.1124 24.6624C86.3149 21.6719 83.9724 20.9742 82.5768 21.024C80.4835 21.1237 79.1876 22.27 78.6394 23.6157C78.0911 25.0611 78.1908 26.5564 78.44 27.6031L80.2841 34.9298C79.7359 35.6774 79.2374 36.425 78.8886 36.8736L75.3997 23.3167L83.1749 17.5849C87.6108 14.2954 87.6108 9.06205 86.1654 6.22109C84.7698 3.47981 82.826 2.13409 81.0816 1.48615C80.5832 1.28678 80.2343 1.18711 79.9352 1.13727C79.9352 0.888062 79.9352 0.738538 79.9352 0.638855C79.8854 0.289965 79.4867 0.140434 79.1378 0.0407514C78.3403 -0.108773 78.1409 0.190279 78.1409 0.339803L78.0911 0.788373C76.1971 0.589007 72.1101 0.58901 72.1101 0.58901V1.68551V4.47664L73.705 4.676C73.8546 4.676 74.0539 4.82554 74.0539 5.12458C74.0539 5.42363 73.8047 5.57315 73.6054 5.67283C73.406 5.72267 73.3063 5.72267 73.2565 5.72267L68.2723 5.17441L68.8704 7.0684C70.8142 7.26776 72.3095 7.41728 73.4558 7.46712C73.5057 7.46712 73.5555 7.46712 73.6054 7.46712C74.9012 7.46712 75.9479 6.42046 75.9479 5.12458C75.9479 3.87855 74.9511 2.83187 73.705 2.78203V2.33346C74.353 2.33346 75.2003 2.3833 76.0974 2.48298C76.1971 2.83187 76.3466 3.23061 76.6955 3.5795C77.0943 3.97823 77.493 4.32712 77.8419 4.52648V5.12458C77.8419 5.12458 77.8917 6.07157 77.7921 6.86903C77.6924 7.6665 77.2438 8.26459 75.4993 8.31443C73.8546 8.36427 71.8111 8.06523 71.8111 8.06523L71.9108 9.31126C71.213 9.66015 70.565 10.2582 69.7177 11.0059C69.1695 11.5043 68.5714 12.2021 68.1228 13.0494L66.0295 9.01221C66.478 8.41411 66.7272 7.6665 66.7272 6.86903C66.7272 4.87538 64.8831 3.28045 62.9891 3.28045C61.6933 3.28045 60.5967 3.8287 59.9488 4.72584L60.2977 0.937891H44.1989H43.6008H27.4023L27.7014 4.72584C27.0535 3.8287 25.9569 3.28045 24.6611 3.28045C22.7671 3.28045 20.923 4.87538 20.923 6.86903C20.923 7.6665 21.1722 8.36427 21.6207 9.01221L19.5274 13.0494C19.029 12.2519 18.4807 11.5541 17.8826 11.0059C17.0353 10.2582 16.3375 9.70999 15.6896 9.31126L15.7893 8.06523C15.7893 8.06523 13.7458 8.41412 12.101 8.31443C10.3566 8.26459 9.85816 7.6665 9.80832 6.86903C9.70864 6.07157 9.75848 5.12458 9.75848 5.12458V4.52648C10.1074 4.27727 10.5559 3.97823 10.9048 3.5795C11.2537 3.23061 11.4531 2.78203 11.5029 2.48298C12.4001 2.3833 13.1975 2.3833 13.8953 2.33346V2.78203C12.6493 2.83187 11.6525 3.87855 11.6525 5.12458C11.6525 6.42046 12.6991 7.46712 13.995 7.46712C14.0448 7.46712 14.0947 7.46712 14.1445 7.46712C15.241 7.41728 16.7861 7.26776 18.7299 7.0684L19.328 5.17441L14.3439 5.72267C14.2442 5.72267 14.1944 5.72267 13.995 5.67283C13.7458 5.62299 13.5464 5.42363 13.5464 5.12458C13.5464 4.82554 13.7458 4.676 13.8953 4.676L15.4902 4.47664V1.68551V0.58901C15.4902 0.58901 11.4531 0.589007 9.50927 0.788373V0.339803C9.50927 0.24012 9.26006 -0.108773 8.51244 0.0407514C8.16355 0.0905929 7.76482 0.289965 7.71498 0.638855C7.71498 0.688696 7.71498 0.888062 7.71498 1.13727C7.41593 1.18711 7.06704 1.28678 6.56863 1.48615C4.87402 2.13409 2.88036 3.47981 1.53464 6.22109C0.0892408 9.06205 0.0393994 14.3453 4.47529 17.5849L12.2506 23.3167L8.76165 36.8736C8.41276 36.425 7.96419 35.6774 7.36609 34.9298L9.21022 27.6031C9.45943 26.5564 9.55911 25.0611 9.01086 23.6157C8.4626 22.27 7.21657 21.1237 5.07339 21.024C3.67782 20.9742 1.33528 21.6719 0.537814 24.6624C0.188924 26.0081 0.0393988 28.1015 1.13591 30.1948C1.83369 31.5904 2.83052 32.7866 4.42545 34.8799L4.9737 35.5777L3.92703 39.3656C3.72767 39.3158 3.5283 39.266 3.27909 39.266C1.98322 39.2161 1.08607 40.2628 1.08607 41.3593C1.08607 42.6053 2.0829 43.5523 3.27909 43.5523C4.07656 43.5523 4.77434 43.1536 5.17307 42.5057C5.52196 42.0073 5.82101 40.7114 6.1699 39.4653L6.66831 37.7707L8.11371 39.6149C7.21657 42.9542 3.97687 55.2651 3.92703 55.4644C3.37878 57.8568 5.52196 59.9003 7.71498 59.9003C9.70864 59.9003 11.6026 58.3054 11.5029 56.0625C11.4531 55.0159 11.0544 54.2682 10.4064 53.72L14.0448 47.9882L20.8233 57.6076C21.3715 58.3552 21.7703 58.7041 21.8201 58.754C22.5179 59.4517 23.4649 59.9003 24.5115 59.9003C26.4055 59.9003 28.3493 58.2057 28.3493 56.1124C28.3493 54.019 26.7046 52.2247 24.5115 52.6235C24.4617 52.6235 24.4119 52.6733 24.362 52.6733L19.5274 38.9171C19.1287 37.8704 18.6303 37.0729 18.1318 36.6244C17.4341 35.9764 16.4372 35.9764 16.0385 35.9764C15.8391 35.9764 15.5899 36.0263 15.3906 36.0761L18.9791 28.3009L23.5147 31.6901C24.1627 32.2383 25.01 32.5374 25.9071 32.5374C26.0566 32.5374 26.2062 32.5374 26.3557 32.4875L27.6017 45.2968C28.0004 49.5831 30.0938 53.3711 33.184 56.0127V56.0625H33.2338C36.0748 58.5048 39.8129 60 43.8999 60C52.4227 60 59.4006 53.5705 60.1482 45.2968L61.3942 32.4875C61.5437 32.4875 61.6933 32.5374 61.8428 32.5374C62.7399 32.5374 63.5872 32.2383 64.2352 31.6901L68.7707 28.3009L72.3593 36.0761C72.1101 36.0263 71.8609 35.9764 71.7114 35.9764C71.3127 35.9266 70.3158 35.9266 69.618 36.6244C69.1196 37.0729 68.6212 37.8704 68.2225 38.9171L63.3879 52.6733C63.338 52.6733 63.2882 52.6733 63.2383 52.6235C61.0453 52.2247 59.4006 54.019 59.4006 56.1124C59.4006 58.2057 61.3444 59.9003 63.2383 59.9003C64.285 59.9003 65.232 59.4517 65.9298 58.754C65.9796 58.7041 66.4282 58.3552 66.9266 57.6076L73.7549 47.9882L77.3435 53.72C76.6955 54.2184 76.2968 55.0159 76.247 56.0625C76.1473 58.3054 78.0911 59.8505 80.0349 59.9003C82.2279 59.9003 84.421 57.8568 83.8229 55.4644C83.773 55.2651 80.4835 43.0041 79.5863 39.6149L81.0317 37.7707L81.5302 39.4653C81.8791 40.7114 82.2279 42.0073 82.527 42.5057C82.9257 43.1536 83.6235 43.5523 84.3711 43.5523C85.6172 43.5523 86.614 42.5555 86.614 41.3593C86.5641 40.2628 85.6171 39.2161 84.3213 39.266ZM7.06704 27.5034L5.72132 32.7367C5.27275 32.1386 4.92386 31.6901 4.77434 31.4907C4.17624 30.6434 2.73084 28.5501 2.73084 25.9583C2.73084 24.6624 3.82735 23.217 5.22291 23.3665C6.91752 23.4662 7.6153 25.4599 7.06704 27.5034ZM62.8396 5.623C63.6869 5.623 64.4345 6.42046 64.4345 7.26776C64.4345 7.86586 64.1355 8.41411 63.6371 8.66331L66.9765 15.1427C66.6774 15.8405 66.478 16.5383 66.3784 17.1364C66.2787 17.7345 66.2288 18.183 66.179 18.4322L61.3942 8.01538C61.2945 7.76617 61.1948 7.51696 61.1948 7.21792C61.2447 6.37061 61.9425 5.623 62.8396 5.623ZM53.4694 2.63251H55.0145L54.9148 5.2741H56.4101L56.5596 2.63251H58.1047L57.8555 6.66966H53.3199L53.4694 2.63251ZM53.2202 8.1649H57.7059L57.5564 10.2582H53.1205L53.2202 8.1649ZM43.551 11.7535H44.0992H57.5066L57.3571 14.3453H44.5478H43.2519H30.2932L30.1436 11.7535H43.551ZM41.657 8.1649H43.551H44.0992H45.9932L45.9434 10.2582H44.0992H43.551H41.7068L41.657 8.1649ZM47.638 2.63251H49.0834L48.9837 5.2741H50.4789L50.5786 2.63251H51.9243L51.7748 6.66966H47.5383L47.638 2.63251ZM47.4884 8.1649H51.6751L51.6253 10.2582H47.4386L47.4884 8.1649ZM43.0027 2.63251V5.2741H44.5976V2.63251H45.9932L45.9434 6.66966H44.0494H43.5011H41.6072L41.5573 2.63251H43.0027ZM40.1119 10.3081H35.9252L35.8754 8.21474H40.0621L40.1119 10.3081ZM37.0217 2.63251L37.1214 5.2741H38.6167L38.517 2.63251H39.9624L40.0621 6.66966H35.8256L35.676 2.63251H37.0217ZM34.4798 10.3081H30.0439L29.8944 8.21474H34.3801L34.4798 10.3081ZM31.1405 2.63251L31.2401 5.2741H32.7354L32.6357 2.63251H34.1808L34.3801 6.66966H29.8446L29.5954 2.63251H31.1405ZM23.9135 8.66331C23.415 8.36427 23.116 7.86586 23.116 7.26776C23.116 6.42046 23.9134 5.623 24.7109 5.623C25.6081 5.623 26.3557 6.37061 26.3557 7.26776C26.3557 7.56681 26.256 7.81602 26.1563 8.06523L21.4214 18.4322C21.3715 18.1332 21.3217 17.7345 21.222 17.1364C21.1223 16.5383 20.923 15.8405 20.6239 15.1427L23.9135 8.66331ZM15.6896 37.7707C16.7363 37.9701 17.1849 38.8174 17.3842 39.3158C17.5337 39.7145 20.9728 49.5333 22.4182 53.5206L22.468 53.6701L23.0163 55.1654L23.116 55.0159C23.415 54.667 23.8636 54.4676 24.4119 54.4676C25.309 54.4676 26.0068 55.1654 26.0068 56.0625C26.0068 56.9597 25.309 57.6575 24.4119 57.6575C24.0131 57.6575 23.6144 57.5079 23.3154 57.2089C23.0163 56.9597 22.3684 56.0625 22.3684 56.0625L21.4214 54.7666L21.1722 54.3679L15.241 45.9946C15.8391 44.9977 16.3375 44.0508 16.3375 43.2533C16.3375 41.3095 15.0417 40.0634 13.4966 40.0634L14.5433 37.8206C14.6928 37.7707 15.0417 37.671 15.6896 37.7707ZM10.9547 41.0104L10.7055 41.6085C11.0544 41.4091 11.4032 41.3095 11.802 41.3095C12.9982 41.3095 13.995 42.3063 13.995 43.5025C13.995 43.652 13.995 43.7517 13.9452 43.9012C13.9452 43.9511 13.9452 43.9511 13.8953 44.0009C13.8953 44.0508 13.8455 44.1504 13.8455 44.2003V44.2501C13.696 44.6987 13.3969 45.1473 13.3969 45.1473L11.7521 47.7888L11.2039 48.6362L8.66197 52.6733L8.41276 53.072L7.51561 54.4676H7.6153C8.56229 54.4178 9.26006 55.2152 9.26006 56.1124C9.26006 56.7603 8.71181 57.6575 7.71498 57.6575C6.71815 57.6575 6.07021 56.9597 6.07021 56.1124C6.07021 56.0127 6.07021 55.8133 6.12005 55.614L14.1944 24.812L17.3842 27.1545L10.9547 41.0104ZM26.1065 30.444C25.9569 30.4939 25.8573 30.4939 25.7077 30.4939C25.309 30.4939 24.9601 30.3942 24.6611 30.1948L22.0195 28.2012L20.3747 27.005L5.67148 16.0897C4.27592 15.043 2.33211 12.9497 2.63115 9.41094C2.88036 6.52013 5.12323 3.97822 7.66514 3.18076C7.66514 3.82869 7.66514 4.52648 7.66514 5.0249C7.71498 6.52014 7.91435 7.61666 8.01403 8.11507C8.21339 8.86269 8.86133 10.009 10.7553 10.0589C11.4032 10.0589 12.2007 10.0589 12.8985 10.009C13.2972 10.1586 13.7458 10.3081 14.1445 10.5573C16.5868 11.8033 17.8826 13.8468 18.4309 14.7938C19.6769 17.1364 19.7268 19.4789 19.328 21.2732L15.7893 18.5818L15.2909 20.7748L22.169 25.8586L22.8668 26.357L24.5115 27.5532C24.8106 27.2542 25.2592 27.0548 25.7576 27.0548C26.9538 27.0548 27.5519 27.952 27.502 28.8491C27.502 29.4472 26.8541 30.1948 26.1065 30.444ZM27.9506 25.5097C27.7014 23.7653 27.5519 22.0208 27.5519 22.0208L30.9411 25.6592H28.15C28.1001 25.6094 28.0503 25.5596 27.9506 25.5097ZM29.6452 27.8523H33.184L35.1776 29.7463H29.5954C29.6951 29.3974 29.7947 29.0485 29.7947 28.6996C29.7947 28.3507 29.7449 28.1015 29.6452 27.8523ZM28.3992 31.8894H37.3706L39.3643 33.7834H28.5487C28.4989 33.1355 28.449 32.4875 28.3992 31.8894ZM28.6982 35.9266H41.6072L43.6008 37.8206H28.8478C28.7979 37.1726 28.7481 36.5247 28.6982 35.9266ZM28.9973 39.9637H45.7938L47.7875 41.8577H29.1966C29.1468 41.2098 29.0471 40.6117 28.9973 39.9637ZM29.4957 44.0009H49.9805L51.9742 45.8949H29.8446C29.6951 45.2968 29.5954 44.6488 29.4957 44.0009ZM43.8999 58.2555C41.5075 58.2555 38.8659 57.7571 36.2243 56.1124H51.2266C49.3824 57.4082 46.3421 58.2555 43.8999 58.2555ZM53.5193 54.019H33.6824C33.1341 53.4708 32.6357 52.8228 32.1373 52.1251H55.2139C54.7653 52.6733 54.217 53.3212 53.5193 54.019ZM31.0408 49.932C30.7916 49.3339 30.5922 48.7358 30.343 48.0381H54.1672L56.1609 49.932H31.0408ZM59.6498 25.41C58.6529 26.1078 57.9552 27.2542 57.9552 28.5999C57.9552 29.6964 58.4037 30.6932 59.1513 31.391L59.0018 33.0856L58.7028 36.9234L58.0548 44.5492C57.9552 45.6955 57.7558 46.8419 57.4069 47.8885L29.1468 20.7249H59.9986L59.6498 25.41ZM24.9601 18.5818L25.5582 24.9116C25.2093 24.9116 24.8604 25.0113 24.5614 25.111L21.5211 22.8183L28.0503 8.763L28.6484 15.99H43.1522H44.4481H58.9021L59.5002 8.763L66.0793 22.8183L63.039 25.111C62.7399 25.0113 62.391 24.9116 62.0421 24.9116L62.6402 18.5818H24.9601ZM67.2257 27.005L65.5809 28.2012L62.9393 30.1948C62.6901 30.3942 62.3412 30.4939 61.8926 30.4939C61.7431 30.4939 61.6434 30.4939 61.4939 30.444C60.7463 30.2447 60.0983 29.497 60.0983 28.7993C60.0485 27.9021 60.6466 27.005 61.8428 27.005C62.3412 27.005 62.7399 27.2043 63.0888 27.5034L64.7336 26.3072L65.4314 25.8088L72.3095 20.7249L71.8111 18.5319L68.2225 21.2234C67.8238 19.4789 67.8736 17.1364 69.1196 14.744C69.618 13.8468 70.9638 11.8033 73.406 10.5075C73.8546 10.2582 74.3031 10.1087 74.652 9.9592C75.3997 10.009 76.1473 10.009 76.7952 10.009C78.6892 9.9592 79.387 8.81285 79.5365 8.06523C79.6362 7.61665 79.8355 6.47029 79.8854 4.97505C79.8854 4.47664 79.8854 3.77887 79.8854 3.13093C82.3775 3.92839 84.6702 6.4703 84.9194 9.36111C85.1686 12.8998 83.2746 14.9932 81.879 16.0399L67.2257 27.005ZM66.478 54.4676L66.2288 54.8663L65.2818 56.1622C65.2818 56.1622 64.5841 57.0594 64.3349 57.3086C64.0358 57.6076 63.6371 57.7571 63.2383 57.7571C62.3412 57.7571 61.6434 57.0594 61.6434 56.1622C61.6434 55.2651 62.3412 54.5673 63.2383 54.5673C63.8364 54.5673 64.285 54.7667 64.5342 55.1155L64.6339 55.2651L65.1822 53.7698L65.232 53.6203C66.6276 49.633 70.1165 39.8142 70.266 39.4155C70.4654 38.9171 70.9139 38.0698 71.9606 37.8704C72.6085 37.7209 72.9574 37.8704 73.1568 37.9701L74.2035 40.213C72.6584 40.213 71.3625 41.5088 71.3625 43.4028C71.3625 44.2003 71.8111 45.1473 72.4092 46.1441L66.478 54.4676ZM81.5302 55.614C81.58 55.8133 81.58 56.0127 81.58 56.1124C81.58 57.0095 80.9321 57.6575 79.8854 57.6575C78.8886 57.6575 78.3403 56.7603 78.3403 56.1124C78.3403 55.2152 79.0381 54.4676 79.9851 54.4676H80.0848L79.1876 53.072L78.9384 52.6733L76.3965 48.6362L75.8482 47.7888L74.1536 45.1473C74.1536 45.1473 73.8546 44.6987 73.705 44.2501V44.2003C73.705 44.1504 73.6552 44.0508 73.6552 44.0009C73.6552 43.9511 73.6552 43.9012 73.6054 43.9012C73.6054 43.7517 73.5555 43.652 73.5555 43.5025C73.5555 42.2565 74.5524 41.3095 75.7486 41.3095C76.1473 41.3095 76.546 41.4091 76.8451 41.6085L76.5958 41.0104L70.266 27.1545L73.4558 24.812L81.5302 55.614ZM81.879 32.7367L80.5333 27.5034C80.0349 25.4599 80.6828 23.5161 82.4273 23.3665C83.8229 23.217 84.9194 24.7123 84.9194 25.9583C84.9194 28.5501 83.4241 30.6434 82.826 31.4907C82.6765 31.6901 82.3276 32.1386 81.879 32.7367Z" fill="#0072BD"/>
</svg>
