<svg width="76" height="100" viewBox="0 0 76 100" fill="none" xmlns="http://www.w3.org/2000/svg">
<path d="M1.67261 6.36373C1.67261 3.686 3.84339 1.51538 6.52115 1.51538H69.5512C72.2291 1.51538 74.3999 3.686 74.3999 6.36373V93.6365C74.3999 96.3144 72.2291 98.4848 69.5512 98.4848H6.52115C3.84339 98.4848 1.67261 96.3144 1.67261 93.6365V6.36373Z" fill="#BE0027"/>
<path d="M65.9913 26.001L65.9629 25.9342C65.9629 25.9342 60.6759 14.3888 59.96 13.2456C58.886 16.5425 47.9318 24.6824 34.8185 30.0242C26.8938 33.2523 19.4462 34.1331 17.846 32.6482C14.6939 29.723 24.3793 22.0521 35.4505 16.0851C42.5125 12.2789 49.0072 10.2126 50.7978 9.6535L50.7344 9.46191C21.9439 16.1637 7.64489 30.7024 10.0514 35.4695C12.3684 40.0546 26.9644 38.4301 41.1151 31.9538C46.8164 29.3402 51.1916 26.9132 54.1121 25.0065C54.5938 24.6893 55.0792 24.5351 55.554 25.3641C56.2301 26.5425 57.5624 29.6766 57.5994 29.7616C58.8616 32.5519 54.0687 38.6462 43.2786 43.7718C33.3156 48.5012 23.0532 50.2559 18.5727 48.6055C17.892 48.3569 17.2295 48.0616 16.3872 47.2129C15.6677 46.492 14.5996 44.5858 14.2575 43.9942L14.1048 44.0778C15.2779 46.577 16.4045 48.6075 16.8751 49.0972C20.4014 52.7591 33.72 50.9979 45.7971 45.3709C57.5667 39.8854 68.1898 30.7209 65.9913 26.001Z" fill="white"/>
<path d="M43.1413 89.3518L66.3171 89.6454L66.3178 89.8783L43.1413 90.225H32.9315L9.75513 89.8783L9.75563 89.6454L32.9315 89.3518H43.1413Z" fill="white"/>
<path d="M40.3263 81.0254C40.3263 81.8359 40.1771 83.126 39.0359 83.126C37.7564 83.126 37.6284 81.2706 37.6284 80.3643C37.6284 79.4365 37.895 78.2957 38.9083 78.2957C40.2198 78.2957 40.3263 80.1194 40.3263 81.0254ZM41.6162 80.7054C41.6162 78.9996 40.8057 77.4429 38.9827 77.4429C37.458 77.4429 36.3596 78.8079 36.3596 80.7054C36.3596 82.4008 37.1487 83.9686 38.9827 83.9686C40.5074 83.9686 41.6162 82.6035 41.6162 80.7054Z" fill="white"/>
<path d="M44.3915 72.1414V71.916L42.8167 71.2228V60.4604L44.3915 59.7722V59.5464H38.7461V59.7722L40.3239 60.4604V71.2228L38.7461 71.916V72.1414H44.3915Z" fill="white"/>
<path d="M37.7993 59.7722V59.5464H32.4408V59.7722L33.8218 60.4604L32.3332 68.7083L29.8846 59.5464H27.9604L25.2713 68.6648L24.1963 60.4604L25.5546 59.7722V59.5464H19.8484V59.7722L21.4764 60.4604L23.8504 72.1414H26.2107L28.7909 63.8756L30.9996 72.1414H33.3615L36.1837 60.4604L37.7993 59.7722Z" fill="white"/>
<path d="M59.8756 82.3464L59.7623 82.3073L59.2425 82.9875H57.3136V81.0225H58.4658L58.7708 81.6098H58.884V79.6241H58.7708L58.4658 80.2324H57.3136V78.4278H59.1697L59.4817 79.1754H59.5982V77.6377H55.3265V77.7483L56.0966 78.0847V83.3393L55.3252 83.678V83.7879H59.5762L59.8756 82.3464Z" fill="white"/>
<path d="M24.5157 82.3464L24.4028 82.3073L23.883 82.9875H21.9541V81.0225H23.1061L23.4113 81.6098H23.5246V79.6241H23.4113L23.1061 80.2324H21.9541V78.4278H23.8099L24.1222 79.1754H24.2386V77.6377H19.9669V77.7483L20.737 78.0847V83.3393L19.9656 83.678V83.7879H24.2167L24.5157 82.3464Z" fill="white"/>
<path d="M35.6102 83.7879V83.678L34.841 83.3393V78.0847L35.6105 77.7483V77.6377H32.9296V77.7483L33.6241 78.0847V80.2749H31.4243V78.0847L32.1181 77.7483V77.6377H29.3853V77.7483L30.2069 78.0847V83.3393L29.4349 83.678V83.7879H32.1076V83.678L31.4243 83.3393V81.076H33.6241V83.3393L32.9296 83.678V83.7879H35.6102Z" fill="white"/>
<path d="M13.081 83.7879V83.678L12.3127 83.3393V78.0847L13.081 77.7483V77.6377H10.3245V77.7483L11.095 78.0847V83.3393L10.3245 83.678V83.7879H13.081Z" fill="white"/>
<path d="M54.6941 83.7879V83.678L53.8442 83.3393L51.5853 80.4135L53.7461 78.0847L54.5214 77.7483V77.6377H51.8174V77.7483L52.4111 78.0222L50.4785 80.2542V78.0847L51.1156 77.7483V77.6377H48.4697V77.7459L49.2598 78.0847V83.3393L48.4911 83.678V83.7879H51.1594V83.678L50.4785 83.3393V80.8304L52.6068 83.7879H54.6941Z" fill="white"/>
<path d="M66.3405 77.7483V77.6377H63.6662V77.7483L64.3528 78.0847L63.4167 80.4249L62.4175 78.0847L63.1056 77.7483V77.6377H60.2554V77.7483L61.029 78.0847L62.7321 81.3004V83.3393L61.9605 83.678V83.7879H64.7165V83.678L63.9502 83.3393V81.2794L65.5761 78.0847L66.3405 77.7483Z" fill="white"/>
<path d="M18.6636 68.6428C18.6636 65.9753 16.3893 65.1441 14.4216 64.1168C13.7221 63.7451 12.6941 63.1768 12.6941 62.367C12.6941 61.6023 13.4411 60.9128 14.2245 60.8366C15.4716 60.7157 16.2947 61.146 16.8009 61.64L17.6013 63.4216H17.8328V59.8966C16.5206 59.5248 15.7118 59.197 14.2907 59.197C12.1907 59.197 10.354 60.7277 10.354 62.6296C10.354 64.5104 11.6445 65.4942 13.1535 66.2599C14.2245 66.8064 16.1487 67.3971 16.1487 68.9926C16.1487 69.8455 15.2742 70.8921 14.0936 70.8734C12.6872 70.8517 11.882 70.2229 11.3108 69.77L10.5461 67.9914H10.3105V71.8138C11.5787 72.0981 12.7159 72.4913 14.0281 72.4913C16.696 72.4913 18.6636 71.0047 18.6636 68.6428Z" fill="white"/>
<path d="M55.1527 68.6428C55.1527 65.9753 52.8783 65.1441 50.9107 64.1168C50.2111 63.7451 49.1835 63.1768 49.1835 62.367C49.1835 61.6023 49.9305 60.9128 50.7135 60.8366C51.9609 60.7157 52.7841 61.146 53.2899 61.64L54.0903 63.4216H54.3222V59.8966C53.01 59.5248 52.2008 59.197 50.7797 59.197C48.6797 59.197 46.843 60.7277 46.843 62.6296C46.843 64.5104 48.1339 65.4942 49.6426 66.2599C50.7136 66.8064 52.6378 67.3971 52.6378 68.9926C52.6378 69.8455 51.7632 70.8921 50.5826 70.8734C49.1762 70.8517 48.3711 70.2229 47.7998 69.77L47.0355 67.9914H46.7996V71.8138C48.0677 72.0981 49.2049 72.4913 50.5171 72.4913C53.185 72.4913 55.1527 71.0047 55.1527 68.6428Z" fill="white"/>
<path d="M66.242 68.6428C66.242 65.9753 63.9677 65.1441 61.9999 64.1168C61.3004 63.7451 60.2728 63.1768 60.2728 62.367C60.2728 61.6023 61.0198 60.9128 61.8029 60.8366C63.0503 60.7157 63.8734 61.146 64.3792 61.64L65.1797 63.4216H65.4115V59.8966C64.0993 59.5248 63.2902 59.197 61.869 59.197C59.769 59.197 57.9323 60.7277 57.9323 62.6296C57.9323 64.5104 59.2232 65.4942 60.7319 66.2599C61.8029 66.8064 63.7271 67.3971 63.7271 68.9926C63.7271 69.8455 62.8525 70.8921 61.6719 70.8734C60.2655 70.8517 59.4604 70.2229 58.8891 69.77L58.1247 67.9914H57.8889V71.8138C59.1571 72.0981 60.2942 72.4913 61.6064 72.4913C64.2743 72.4913 66.242 71.0047 66.242 68.6428Z" fill="white"/>
<path d="M47.5029 81.9778H47.3953L46.9938 82.8644C46.4857 83.0982 46.2428 83.1577 45.7347 83.1577C44.8912 83.1577 44.1225 82.4207 44.1225 80.5951C44.1225 78.8335 45.0405 78.2833 45.8733 78.2783C46.2578 78.2756 46.6811 78.453 46.8401 78.5405L47.1966 79.372H47.3041V77.7445C46.8254 77.5848 46.3324 77.4458 45.8947 77.4458C44.2505 77.4458 42.7842 78.6842 42.7842 80.6378C42.7842 82.9443 44.0049 83.9688 45.713 83.9688C46.2615 83.9688 46.782 83.8519 47.401 83.6385C47.4348 83.6274 47.4615 83.6164 47.5029 83.6004V81.9778Z" fill="white"/>
<path d="M18.7773 81.9902H18.6697L18.2682 82.8768C17.7601 83.1107 17.5172 83.1702 17.0091 83.1702C16.1656 83.1702 15.3969 82.4332 15.3969 80.6075C15.3969 78.846 16.3149 78.2957 17.1477 78.2907C17.5323 78.2881 17.9555 78.4655 18.1145 78.553L18.471 79.3845H18.5785V77.7569C18.0998 77.5973 17.6067 77.4583 17.1691 77.4583C15.5248 77.4583 14.0586 78.6967 14.0586 80.6503C14.0586 82.9567 15.2793 83.9813 16.9874 83.9813C17.5359 83.9813 18.0564 83.8644 18.6754 83.6509C18.7092 83.6399 18.7359 83.6288 18.7773 83.6128V81.9902Z" fill="white"/>
</svg>
