<svg width="204" height="60" viewBox="0 0 204 60" fill="none" xmlns="http://www.w3.org/2000/svg">
<path d="M0.65625 30V60H30.195H59.7338V30V0H30.195H0.65625V30ZM52.7953 30V52.9532H30.195H7.59472V30V7.04681H30.195H52.7953V30Z" fill="#B1BED3"/>
<path d="M12.4218 11.923L9.68164 14.706L14.1213 19.2149L18.5558 23.7188V20.8949V18.0762H21.3061H24.0614L19.662 13.6081C17.2436 11.1519 15.2425 9.14003 15.2123 9.14003C15.1821 9.14003 13.9302 10.3911 12.4218 11.923Z" fill="#B1BED3"/>
<path d="M40.8281 13.6082L36.4287 18.0763H39.2343H42.0348V20.8439V23.6167L46.409 19.1741L50.7833 14.7316L48.0331 11.9384C46.5146 10.3963 45.2677 9.1401 45.2526 9.1401C45.2376 9.1401 43.2465 11.152 40.8281 13.6082Z" fill="#B1BED3"/>
<path d="M14.0805 40.7746L9.63086 45.2938L12.3861 48.087L15.1364 50.8853L19.5458 46.4019L23.9603 41.9236H21.2603H18.5553L18.5453 39.0895L18.5302 36.2555L14.0805 40.7746Z" fill="#B1BED3"/>
<path d="M42.0348 39.1304V41.9236H39.2846H36.5293L40.9438 46.4018L45.3532 50.8853L48.1035 48.087L50.8587 45.2938L46.4443 40.8155L42.0348 36.3321V39.1304Z" fill="#B1BED3"/>
<path d="M73.6511 6.84229C72.1327 7.0874 70.8657 7.884 70.3227 8.93591C70.0512 9.46187 69.9707 9.804 69.9707 10.4168C69.9758 11.0346 70.0612 11.4431 70.3126 11.9742C70.6797 12.7708 71.3886 13.4653 73.2841 14.9104C74.5511 15.8755 75.1143 16.4372 75.4059 17.0397C75.5919 17.4176 75.5969 17.4483 75.5969 17.9691C75.5969 18.4593 75.5819 18.541 75.4511 18.827C75.1042 19.5878 74.3651 19.9861 73.3093 19.9759C72.4294 19.9708 71.7406 19.7308 70.8506 19.1231C70.6193 18.9648 70.4132 18.8576 70.3931 18.878C70.2523 19.0363 69.3875 20.4866 69.4126 20.5274C69.4277 20.5529 69.5836 20.6806 69.7545 20.8031C71.5294 22.0848 74.4053 22.3248 76.326 21.3444C77.3165 20.844 78.131 19.9351 78.4377 18.9955C78.7595 18.0253 78.6036 16.8508 78.0355 15.8806C77.5427 15.038 76.8992 14.3946 75.1193 12.9444C73.9277 11.9742 73.2992 11.3512 73.0931 10.9274C72.912 10.5546 72.902 10.0491 73.078 9.67634C73.3897 8.99208 74.2595 8.62953 75.2198 8.77761C75.7377 8.85932 76.0796 8.97676 76.6679 9.29336C76.9293 9.43123 77.1505 9.54868 77.1606 9.54868C77.1707 9.54868 77.4019 9.21166 77.6785 8.80315L78.1813 8.05761L77.945 7.85846C77.4975 7.48059 76.7031 7.11804 75.9237 6.93932C75.436 6.82187 74.1187 6.7657 73.6511 6.84229Z" fill="#B1BED3"/>
<path d="M111.883 6.87332C110.149 7.16949 108.781 8.25715 108.429 9.62566C108.324 10.0546 108.329 10.8206 108.449 11.2955C108.741 12.4546 109.465 13.2563 111.788 15.0027C113.487 16.2844 114.01 16.9891 114 18.0001C113.99 19.0878 113.326 19.7976 112.155 19.961C111.22 20.0938 110.274 19.8231 109.218 19.1133C108.987 18.9601 108.791 18.8427 108.786 18.8478C108.726 18.9193 107.801 20.4308 107.791 20.4716C107.77 20.5482 108.324 20.9567 108.756 21.1865C109.274 21.4572 109.902 21.6767 110.576 21.8146C111.396 21.978 112.637 21.978 113.382 21.8095C114.407 21.5797 115.227 21.1508 115.865 20.5074C117.198 19.1695 117.359 17.3261 116.283 15.6665C115.85 14.9976 115.041 14.1959 113.658 13.0725C112.376 12.0308 111.722 11.4027 111.496 10.9789C111.365 10.7338 111.345 10.6469 111.345 10.2895C111.345 9.92694 111.36 9.85035 111.501 9.60013C111.687 9.26822 111.959 9.03843 112.361 8.88013C112.597 8.78822 112.753 8.76779 113.206 8.76779C113.698 8.76779 113.809 8.78311 114.246 8.9363C114.518 9.02822 114.91 9.20183 115.126 9.32439C115.337 9.44694 115.523 9.54907 115.539 9.54907C115.554 9.54907 115.795 9.21205 116.066 8.79843L116.564 8.0529L116.368 7.88439C115.835 7.42992 114.815 7.00609 113.899 6.86822C113.296 6.7763 112.441 6.7763 111.883 6.87332Z" fill="#B1BED3"/>
<path d="M123.522 6.8421C121.747 7.12805 120.395 8.11869 119.962 9.45146C119.862 9.76805 119.842 9.92635 119.847 10.4166C119.852 11.3051 120.058 11.9281 120.591 12.6481C120.993 13.1842 121.969 14.037 123.386 15.0889C124.96 16.2532 125.553 17.111 125.483 18.1323C125.408 19.2864 124.568 19.9757 123.236 19.9757C122.346 19.9757 121.652 19.7459 120.792 19.1689C120.521 18.9902 120.294 18.8421 120.289 18.8421C120.284 18.8421 120.048 19.2098 119.766 19.6591C119.334 20.3485 119.264 20.4915 119.314 20.5527C119.455 20.7264 120.234 21.2064 120.686 21.3953C122.356 22.1051 124.412 22.1357 125.91 21.477C126.559 21.191 126.851 20.9868 127.363 20.4761C127.776 20.0574 127.876 19.9246 128.077 19.5059C128.414 18.8166 128.48 18.4898 128.449 17.7698C128.414 16.9119 128.238 16.3757 127.736 15.5995C127.399 15.0736 126.262 13.9757 125.031 12.9749C123.658 11.8617 123.2 11.4123 122.979 10.9476C122.683 10.3349 122.793 9.68635 123.271 9.23699C123.547 8.98167 123.809 8.85912 124.261 8.77742C124.915 8.66508 125.599 8.81316 126.448 9.25231C126.765 9.41571 127.032 9.54848 127.037 9.54848C127.062 9.54848 128.012 8.11359 128.012 8.07274C128.012 7.99614 127.615 7.68465 127.258 7.49061C126.83 7.25061 126.328 7.06167 125.8 6.93912C125.307 6.82167 123.995 6.7655 123.522 6.8421Z" fill="#B1BED3"/>
<path d="M81.1127 7.04683C80.4088 7.15406 79.8306 7.25108 79.8155 7.2613C79.8055 7.27151 80.6351 10.2894 81.6608 13.9711C82.6814 17.6477 83.5864 20.8851 83.6618 21.166L83.8026 21.6766H85.306H86.8093L87.4277 19.6085C88.1015 17.3515 89.1674 13.5932 89.6299 11.8315C89.7908 11.2239 89.9366 10.7387 89.9517 10.7592C89.9718 10.7847 90.183 11.5251 90.4243 12.4085C91.1031 14.8902 92.0584 18.1379 92.9232 20.8953L93.1746 21.7021H94.6528H96.131L96.2165 21.4111C96.2617 21.2528 97.1768 18.0102 98.2477 14.2009C99.9371 8.19577 100.183 7.27151 100.113 7.24087C99.9471 7.16938 97.8807 6.83747 97.8455 6.87832C97.765 6.97023 95.9198 14.3387 95.2863 17.1064C95.0902 17.9643 94.9092 18.7098 94.8841 18.766C94.8489 18.8477 94.8288 18.817 94.7634 18.5873C94.7232 18.4341 94.512 17.6732 94.3008 16.9021C93.8383 15.2221 92.893 12.0256 92.0886 9.39577C91.7618 8.34385 91.4701 7.38896 91.44 7.27662L91.3796 7.07236L90.1981 7.05704L89.0115 7.04683L88.3931 9.07406C87.2417 12.863 86.5076 15.3702 85.8791 17.6936C85.7132 18.3064 85.5674 18.817 85.5523 18.8324C85.5171 18.8681 85.5121 18.8375 85.2255 17.5404C84.773 15.4979 84.1395 12.8375 83.3903 9.80938C82.9881 8.19577 82.6613 6.87321 82.6613 6.863C82.6613 6.82215 82.3345 6.85789 81.1127 7.04683Z" fill="#B1BED3"/>
<path d="M102.22 14.3745V21.7021H103.678H105.136V14.3745V7.04683H103.678H102.22V14.3745Z" fill="#B1BED3"/>
<path d="M133.266 29.2646C128.006 29.811 123.969 33.7633 123.16 39.1659C123.044 39.9319 123.009 41.4076 123.079 42.2859C123.421 46.3659 125.211 49.6391 128.162 51.5897C129.6 52.5344 131.38 53.137 133.261 53.3157C134.065 53.3923 135.679 53.3463 136.403 53.234C138.399 52.9174 140.239 52.1106 141.687 50.9259C142.507 50.2519 143.447 49.1642 144.05 48.1787C144.679 47.1523 145.312 45.5233 145.574 44.2467C145.951 42.4238 146.011 40.514 145.735 38.8799C145.423 37.0519 144.714 35.3361 143.673 33.8808C142.567 32.3489 141.235 31.2153 139.55 30.3829C138.495 29.857 137.444 29.5301 136.232 29.3361C135.629 29.2391 133.894 29.1982 133.266 29.2646ZM135.453 34.1872C136.966 34.5599 137.997 35.9438 138.439 38.1957C138.615 39.0995 138.671 39.7838 138.671 41.0757C138.671 44.2876 138.123 46.3301 136.941 47.5199C136.242 48.2246 135.578 48.485 134.472 48.485C134.01 48.485 133.723 48.4595 133.492 48.3931C131.978 47.9846 130.998 46.6519 130.551 44.405C130.349 43.3838 130.319 43.0365 130.289 41.4638C130.259 39.8604 130.314 39.0587 130.52 38.068C131.084 35.3719 132.511 33.988 134.623 34.085C134.9 34.1004 135.272 34.1463 135.453 34.1872Z" fill="#B1BED3"/>
<path d="M155.541 29.2393C155.46 29.2495 155.179 29.2853 154.917 29.3159C154.656 29.3466 154.178 29.4385 153.846 29.5202C151.468 30.1074 149.658 31.4606 148.828 33.2581C148.16 34.7083 148.19 36.6538 148.909 38.1244C149.472 39.2734 150.623 40.4632 153.429 42.7917C155.415 44.441 156.084 45.304 156.194 46.3661C156.235 46.7798 156.129 47.3415 155.933 47.6989C155.435 48.6283 154.103 49.1593 152.725 48.9755C151.82 48.853 150.91 48.4649 149.904 47.7704L149.356 47.3976L149.276 47.5304C149.231 47.607 148.758 48.47 148.225 49.4504L147.26 51.2376L147.426 51.3755C147.954 51.8198 149.1 52.3968 150.06 52.7134C151.302 53.1168 152.433 53.3006 153.987 53.3466C157.079 53.4334 159.327 52.7083 160.996 51.0844C162.032 50.0734 162.746 48.7253 162.987 47.3364C163.088 46.7491 163.062 45.5542 162.932 44.8955C162.655 43.4504 161.971 42.2402 160.518 40.6317C159.94 39.9883 159.03 39.1457 157.678 37.9968C155.722 36.3423 155.284 35.8266 155.224 35.1015C155.204 34.8206 155.219 34.7389 155.335 34.4989C155.641 33.8606 156.295 33.5747 157.401 33.5849C158.583 33.5951 159.498 33.83 160.609 34.407C160.629 34.4172 161.041 33.6053 161.524 32.5993C162.198 31.2104 162.394 30.761 162.343 30.7253C162.188 30.6129 161.227 30.1738 160.775 30.0002C160.126 29.7551 158.909 29.4487 158.18 29.3364C157.637 29.2547 155.878 29.1883 155.541 29.2393Z" fill="#B1BED3"/>
<path d="M196.015 29.2444C191.088 29.5763 187.045 31.8946 185.054 35.5406C184.149 37.2103 183.717 38.9874 183.717 41.081C183.717 43.0623 184.074 44.681 184.873 46.3406C185.994 48.6589 187.85 50.492 190.333 51.7278C192.41 52.7644 194.572 53.2801 197.096 53.3465C198.609 53.3874 199.716 53.275 201.259 52.9227C201.842 52.7899 203.074 52.412 203.145 52.3457C203.175 52.315 201.908 48.0716 201.847 48.0103C201.837 48.0001 201.561 48.0512 201.234 48.1176C199.293 48.5414 197.569 48.6129 196.201 48.3269C194.165 47.9031 192.566 46.698 191.696 44.9465C190.66 42.8529 190.665 39.7023 191.716 37.5831C192.626 35.7499 194.18 34.5959 196.317 34.1772C197.337 33.978 200.153 34.1465 201.36 34.4784C201.4 34.4886 201.717 33.784 202.27 32.4512C202.999 30.6997 203.109 30.3984 203.044 30.3474C202.898 30.2299 201.581 29.8265 200.766 29.6478C199.022 29.275 197.513 29.1423 196.015 29.2444Z" fill="#B1BED3"/>
<path d="M70.1924 41.285V52.9531H73.6616H77.1309V41.285V29.617H73.6616H70.1924V41.285Z" fill="#B1BED3"/>
<path d="M81.4551 41.285V52.9531H84.1953H86.9355L86.9455 46.0953L86.9606 39.2425L87.1114 39.4876C88.9516 42.5004 90.9578 45.1761 96.1616 51.5387L97.313 52.9531H99.6409H101.969V41.285V29.617H99.2286H96.4884V36.3165C96.4884 40.4221 96.4683 42.9957 96.4432 42.965C96.418 42.9395 96.3024 42.7455 96.1817 42.5361C95.9153 42.0459 95.0404 40.6978 94.4873 39.9063C93.0695 37.8893 91.0935 35.3208 87.7852 31.205L86.5131 29.617H83.9841H81.4551V41.285Z" fill="#B1BED3"/>
<path d="M106.292 41.285V52.9531H109.761H113.23V48.5616V44.1701L116.69 44.1599L120.144 44.1446V41.9744V39.8042L116.69 39.7889L113.23 39.7787V36.868V33.9574H116.75H120.269V31.7872V29.617H113.281H106.292V41.285Z" fill="#B1BED3"/>
<path d="M166.425 41.285V52.9531H174.117H181.81V50.7829V48.6127H177.587H173.363V45.7787V42.9446H176.807H180.251V40.7744V38.6042L176.822 38.594L173.388 38.5787L173.373 36.2655L173.363 33.9574H176.883H180.402V31.7872V29.617H173.414H166.425V41.285Z" fill="#B1BED3"/>
</svg>
