<svg width="204" height="60" viewBox="0 0 204 60" fill="none" xmlns="http://www.w3.org/2000/svg">
<path d="M0.656738 30V60H30.1955H59.7343V30V0H30.1955H0.656738V30ZM52.7958 30V52.9532H30.1955H7.59521V30V7.04681H30.1955H52.7958V30Z" fill="#CC0033"/>
<path d="M12.4223 11.923L9.68213 14.706L14.1217 19.2149L18.5563 23.7188V20.8949V18.0762H21.3066H24.0619L19.6625 13.6081C17.2441 11.1519 15.243 9.14003 15.2128 9.14003C15.1826 9.14003 13.9307 10.3911 12.4223 11.923Z" fill="#CC0033"/>
<path d="M40.8286 13.6082L36.4292 18.0763H39.2348H42.0353V20.8439V23.6167L46.4095 19.1741L50.7838 14.7316L48.0335 11.9384C46.5151 10.3963 45.2682 9.1401 45.2531 9.1401C45.238 9.1401 43.247 11.152 40.8286 13.6082Z" fill="#CC0033"/>
<path d="M14.081 40.7746L9.63135 45.2938L12.3866 48.087L15.1369 50.8853L19.5463 46.4019L23.9608 41.9236H21.2608H18.5558L18.5458 39.0895L18.5307 36.2555L14.081 40.7746Z" fill="#CC0033"/>
<path d="M42.0353 39.1304V41.9236H39.2851H36.5298L40.9443 46.4018L45.3537 50.8853L48.104 48.087L50.8592 45.2938L46.4448 40.8155L42.0353 36.3321V39.1304Z" fill="#CC0033"/>
<path d="M73.6516 6.84229C72.1332 7.0874 70.8662 7.884 70.3232 8.93591C70.0517 9.46187 69.9712 9.804 69.9712 10.4168C69.9763 11.0346 70.0617 11.4431 70.3131 11.9742C70.6802 12.7708 71.3891 13.4653 73.2846 14.9104C74.5516 15.8755 75.1147 16.4372 75.4064 17.0397C75.5924 17.4176 75.5974 17.4483 75.5974 17.9691C75.5974 18.4593 75.5823 18.541 75.4516 18.827C75.1047 19.5878 74.3656 19.9861 73.3097 19.9759C72.4299 19.9708 71.741 19.7308 70.8511 19.1231C70.6198 18.9648 70.4137 18.8576 70.3936 18.878C70.2528 19.0363 69.388 20.4866 69.4131 20.5274C69.4282 20.5529 69.5841 20.6806 69.755 20.8031C71.5299 22.0848 74.4058 22.3248 76.3265 21.3444C77.317 20.844 78.1315 19.9351 78.4382 18.9955C78.76 18.0253 78.6041 16.8508 78.0359 15.8806C77.5432 15.038 76.8996 14.3946 75.1198 12.9444C73.9282 11.9742 73.2997 11.3512 73.0935 10.9274C72.9125 10.5546 72.9025 10.0491 73.0785 9.67634C73.3902 8.99208 74.26 8.62953 75.2203 8.77761C75.7382 8.85932 76.0801 8.97676 76.6684 9.29336C76.9298 9.43123 77.151 9.54868 77.1611 9.54868C77.1711 9.54868 77.4024 9.21166 77.679 8.80315L78.1818 8.05761L77.9454 7.85846C77.498 7.48059 76.7036 7.11804 75.9242 6.93932C75.4365 6.82187 74.1192 6.7657 73.6516 6.84229Z" fill="#CC0033"/>
<path d="M111.884 6.87332C110.149 7.16949 108.782 8.25715 108.43 9.62566C108.324 10.0546 108.329 10.8206 108.45 11.2955C108.741 12.4546 109.465 13.2563 111.788 15.0027C113.488 16.2844 114.011 16.9891 114 18.0001C113.99 19.0878 113.327 19.7976 112.155 19.961C111.22 20.0938 110.275 19.8231 109.219 19.1133C108.988 18.9601 108.792 18.8427 108.787 18.8478C108.726 18.9193 107.801 20.4308 107.791 20.4716C107.771 20.5482 108.324 20.9567 108.756 21.1865C109.274 21.4572 109.903 21.6767 110.577 21.8146C111.396 21.978 112.638 21.978 113.382 21.8095C114.408 21.5797 115.227 21.1508 115.866 20.5074C117.198 19.1695 117.359 17.3261 116.283 15.6665C115.851 14.9976 115.041 14.1959 113.659 13.0725C112.376 12.0308 111.723 11.4027 111.497 10.9789C111.366 10.7338 111.346 10.6469 111.346 10.2895C111.346 9.92694 111.361 9.85035 111.502 9.60013C111.688 9.26822 111.959 9.03843 112.361 8.88013C112.598 8.78822 112.754 8.76779 113.206 8.76779C113.699 8.76779 113.809 8.78311 114.247 8.9363C114.518 9.02822 114.911 9.20183 115.127 9.32439C115.338 9.44694 115.524 9.54907 115.539 9.54907C115.554 9.54907 115.795 9.21205 116.067 8.79843L116.565 8.0529L116.369 7.88439C115.836 7.42992 114.815 7.00609 113.9 6.86822C113.297 6.7763 112.442 6.7763 111.884 6.87332Z" fill="#CC0033"/>
<path d="M123.523 6.8421C121.748 7.12805 120.395 8.11869 119.963 9.45146C119.862 9.76805 119.842 9.92635 119.847 10.4166C119.852 11.3051 120.058 11.9281 120.591 12.6481C120.994 13.1842 121.969 14.037 123.387 15.0889C124.961 16.2532 125.554 17.111 125.484 18.1323C125.408 19.2864 124.568 19.9757 123.236 19.9757C122.346 19.9757 121.652 19.7459 120.793 19.1689C120.521 18.9902 120.295 18.8421 120.29 18.8421C120.285 18.8421 120.048 19.2098 119.767 19.6591C119.334 20.3485 119.264 20.4915 119.314 20.5527C119.455 20.7264 120.234 21.2064 120.687 21.3953C122.356 22.1051 124.413 22.1357 125.911 21.477C126.559 21.191 126.851 20.9868 127.364 20.4761C127.776 20.0574 127.877 19.9246 128.078 19.5059C128.415 18.8166 128.48 18.4898 128.45 17.7698C128.415 16.9119 128.239 16.3757 127.736 15.5995C127.399 15.0736 126.263 13.9757 125.031 12.9749C123.658 11.8617 123.201 11.4123 122.98 10.9476C122.683 10.3349 122.794 9.68635 123.271 9.23699C123.548 8.98167 123.809 8.85912 124.262 8.77742C124.915 8.66508 125.599 8.81316 126.449 9.25231C126.766 9.41571 127.032 9.54848 127.037 9.54848C127.062 9.54848 128.013 8.11359 128.013 8.07274C128.013 7.99614 127.615 7.68465 127.258 7.49061C126.831 7.25061 126.328 7.06167 125.8 6.93912C125.308 6.82167 123.995 6.7655 123.523 6.8421Z" fill="#CC0033"/>
<path d="M81.1132 7.04683C80.4093 7.15406 79.8311 7.25108 79.816 7.2613C79.806 7.27151 80.6356 10.2894 81.6612 13.9711C82.6819 17.6477 83.5869 20.8851 83.6623 21.166L83.8031 21.6766H85.3065H86.8098L87.4282 19.6085C88.102 17.3515 89.1679 13.5932 89.6304 11.8315C89.7913 11.2239 89.9371 10.7387 89.9522 10.7592C89.9723 10.7847 90.1835 11.5251 90.4248 12.4085C91.1036 14.8902 92.0589 18.1379 92.9237 20.8953L93.1751 21.7021H94.6533H96.1315L96.2169 21.4111C96.2622 21.2528 97.1773 18.0102 98.2482 14.2009C99.9376 8.19577 100.184 7.27151 100.114 7.24087C99.9476 7.16938 97.8812 6.83747 97.846 6.87832C97.7655 6.97023 95.9203 14.3387 95.2868 17.1064C95.0907 17.9643 94.9097 18.7098 94.8846 18.766C94.8494 18.8477 94.8293 18.817 94.7639 18.5873C94.7237 18.4341 94.5125 17.6732 94.3013 16.9021C93.8388 15.2221 92.8935 12.0256 92.0891 9.39577C91.7622 8.34385 91.4706 7.38896 91.4405 7.27662L91.3801 7.07236L90.1986 7.05704L89.012 7.04683L88.3936 9.07406C87.2422 12.863 86.5081 15.3702 85.8796 17.6936C85.7137 18.3064 85.5679 18.817 85.5528 18.8324C85.5176 18.8681 85.5126 18.8375 85.226 17.5404C84.7735 15.4979 84.14 12.8375 83.3908 9.80938C82.9886 8.19577 82.6618 6.87321 82.6618 6.863C82.6618 6.82215 82.335 6.85789 81.1132 7.04683Z" fill="#CC0033"/>
<path d="M102.22 14.3745V21.7021H103.678H105.136V14.3745V7.04683H103.678H102.22V14.3745Z" fill="#CC0033"/>
<path d="M133.266 29.2646C128.007 29.811 123.97 33.7633 123.16 39.1659C123.044 39.9319 123.009 41.4076 123.08 42.2859C123.422 46.3659 125.211 49.6391 128.163 51.5897C129.601 52.5344 131.381 53.137 133.261 53.3157C134.066 53.3923 135.68 53.3463 136.404 53.234C138.4 52.9174 140.24 52.1106 141.688 50.9259C142.507 50.2519 143.448 49.1642 144.051 48.1787C144.679 47.1523 145.313 45.5233 145.574 44.2467C145.951 42.4238 146.012 40.514 145.735 38.8799C145.424 37.0519 144.715 35.3361 143.674 33.8808C142.568 32.3489 141.235 31.2153 139.551 30.3829C138.495 29.857 137.444 29.5301 136.233 29.3361C135.629 29.2391 133.895 29.1982 133.266 29.2646ZM135.453 34.1872C136.967 34.5599 137.997 35.9438 138.44 38.1957C138.616 39.0995 138.671 39.7838 138.671 41.0757C138.671 44.2876 138.123 46.3301 136.942 47.5199C136.243 48.2246 135.579 48.485 134.473 48.485C134.01 48.485 133.724 48.4595 133.492 48.3931C131.979 47.9846 130.999 46.6519 130.551 44.405C130.35 43.3838 130.32 43.0365 130.29 41.4638C130.259 39.8604 130.315 39.0587 130.521 38.068C131.084 35.3719 132.512 33.988 134.624 34.085C134.9 34.1004 135.272 34.1463 135.453 34.1872Z" fill="#CC0033"/>
<path d="M155.541 29.2393C155.461 29.2495 155.179 29.2853 154.918 29.3159C154.656 29.3466 154.179 29.4385 153.847 29.5202C151.469 30.1074 149.659 31.4606 148.829 33.2581C148.16 34.7083 148.19 36.6538 148.909 38.1244C149.473 39.2734 150.624 40.4632 153.429 42.7917C155.415 44.441 156.084 45.304 156.195 46.3661C156.235 46.7798 156.129 47.3415 155.933 47.6989C155.436 48.6283 154.103 49.1593 152.726 48.9755C151.821 48.853 150.91 48.4649 149.905 47.7704L149.357 47.3976L149.276 47.5304C149.231 47.607 148.759 48.47 148.226 49.4504L147.26 51.2376L147.426 51.3755C147.954 51.8198 149.1 52.3968 150.061 52.7134C151.303 53.1168 152.434 53.3006 153.988 53.3466C157.08 53.4334 159.327 52.7083 160.996 51.0844C162.032 50.0734 162.746 48.7253 162.987 47.3364C163.088 46.7491 163.063 45.5542 162.932 44.8955C162.656 43.4504 161.972 42.2402 160.519 40.6317C159.941 39.9883 159.031 39.1457 157.678 37.9968C155.722 36.3423 155.285 35.8266 155.224 35.1015C155.204 34.8206 155.219 34.7389 155.335 34.4989C155.642 33.8606 156.295 33.5747 157.401 33.5849C158.583 33.5951 159.498 33.83 160.609 34.407C160.629 34.4172 161.042 33.6053 161.524 32.5993C162.198 31.2104 162.394 30.761 162.344 30.7253C162.188 30.6129 161.228 30.1738 160.775 30.0002C160.127 29.7551 158.91 29.4487 158.181 29.3364C157.638 29.2547 155.878 29.1883 155.541 29.2393Z" fill="#CC0033"/>
<path d="M196.015 29.2444C191.088 29.5763 187.046 31.8946 185.055 35.5406C184.15 37.2103 183.717 38.9874 183.717 41.081C183.717 43.0623 184.074 44.681 184.874 46.3406C185.995 48.6589 187.85 50.492 190.334 51.7278C192.41 52.7644 194.572 53.2801 197.096 53.3465C198.61 53.3874 199.716 53.275 201.26 52.9227C201.843 52.7899 203.075 52.412 203.145 52.3457C203.175 52.315 201.908 48.0716 201.848 48.0103C201.838 48.0001 201.561 48.0512 201.234 48.1176C199.294 48.5414 197.569 48.6129 196.202 48.3269C194.165 47.9031 192.566 46.698 191.697 44.9465C190.661 42.8529 190.666 39.7023 191.717 37.5831C192.627 35.7499 194.18 34.5959 196.317 34.1772C197.338 33.978 200.153 34.1465 201.36 34.4784C201.4 34.4886 201.717 33.784 202.27 32.4512C202.999 30.6997 203.11 30.3984 203.044 30.3474C202.899 30.2299 201.581 29.8265 200.767 29.6478C199.022 29.275 197.514 29.1423 196.015 29.2444Z" fill="#CC0033"/>
<path d="M70.1929 41.285V52.9531H73.6621H77.1313V41.285V29.617H73.6621H70.1929V41.285Z" fill="#CC0033"/>
<path d="M81.4556 41.285V52.9531H84.1958H86.936L86.946 46.0953L86.9611 39.2425L87.1119 39.4876C88.9521 42.5004 90.9583 45.1761 96.1621 51.5387L97.3135 52.9531H99.6414H101.969V41.285V29.617H99.2291H96.4889V36.3165C96.4889 40.4221 96.4688 42.9957 96.4437 42.965C96.4185 42.9395 96.3029 42.7455 96.1822 42.5361C95.9157 42.0459 95.0409 40.6978 94.4878 39.9063C93.07 37.8893 91.094 35.3208 87.7857 31.205L86.5136 29.617H83.9846H81.4556V41.285Z" fill="#CC0033"/>
<path d="M106.292 41.285V52.9531H109.762H113.231V48.5616V44.1701L116.69 44.1599L120.144 44.1446V41.9744V39.8042L116.69 39.7889L113.231 39.7787V36.868V33.9574H116.75H120.27V31.7872V29.617H113.281H106.292V41.285Z" fill="#CC0033"/>
<path d="M166.425 41.285V52.9531H174.118H181.811V50.7829V48.6127H177.587H173.364V45.7787V42.9446H176.808H180.252V40.7744V38.6042L176.823 38.594L173.389 38.5787L173.374 36.2655L173.364 33.9574H176.883H180.403V31.7872V29.617H173.414H166.425V41.285Z" fill="#CC0033"/>
</svg>
