<svg width="282" height="60" viewBox="0 0 282 60" fill="none" xmlns="http://www.w3.org/2000/svg">
<path fill-rule="evenodd" clip-rule="evenodd" d="M151.765 48.5217C150.152 49.057 149.097 50.0502 148.431 51.6606C147.932 52.8694 147.938 55.5405 148.443 56.765C148.909 57.8945 150.082 59.1175 151.135 59.5715C152.348 60.0948 154.403 60.0808 155.601 59.5411C156.771 59.0144 157.471 58.389 158.036 57.366C159.227 55.2115 159.07 52.0961 157.674 50.1616C156.523 48.5672 153.858 47.8275 151.765 48.5217ZM195.013 48.5217C193.399 49.057 192.344 50.0502 191.679 51.6606C191.18 52.8694 191.186 55.5405 191.691 56.765C192.156 57.8945 193.329 59.1175 194.382 59.5715C195.596 60.0948 197.651 60.0808 198.849 59.5411C200.018 59.0144 200.719 58.389 201.284 57.366C202.474 55.2115 202.318 52.0961 200.922 50.1616C199.771 48.5672 197.105 47.8275 195.013 48.5217ZM228.952 48.3449L228.294 48.4105V54.1321V59.8538H229.069H229.844V57.398V54.9422H230.779C232.542 54.9422 233.159 55.453 233.633 57.3028C233.772 57.8463 233.99 58.6427 234.117 59.0724L234.348 59.8538H235.201C235.966 59.8538 236.04 59.8266 235.911 59.5934C235.832 59.4502 235.579 58.5962 235.348 57.6957C234.884 55.887 234.417 54.9633 233.808 54.6505L233.406 54.444L233.982 54.1337C235.732 53.1916 236.11 50.5561 234.685 49.2452C233.94 48.5598 233.178 48.3489 231.316 48.3126C230.378 48.2942 229.315 48.3088 228.952 48.3449ZM255.304 48.3447L254.645 48.4105V54.1135V59.8166L255.13 59.9096C255.89 60.0556 257.908 60.0187 258.913 59.8403C260.49 59.5605 261.373 58.9715 261.846 57.8844C262.469 56.4535 261.751 54.5941 260.362 54.0419C260.117 53.9442 259.916 53.8221 259.917 53.7707C259.918 53.7192 260.154 53.5312 260.441 53.3529C261.642 52.6061 261.986 50.6399 261.109 49.5357C260.417 48.6649 259.498 48.3437 257.599 48.309C256.699 48.2925 255.666 48.3085 255.304 48.3447ZM121.337 54.1236V59.8538H122.112H122.887V54.1236V48.3934H122.112H121.337V54.1236ZM125.522 54.1236V59.8538H126.23H126.937L126.889 55.1653C126.862 52.5867 126.875 50.478 126.917 50.4795C126.96 50.4808 127.204 50.8897 127.46 51.3878C127.716 51.8861 129.01 53.978 130.336 56.0366L132.747 59.7794L133.552 59.8244L134.358 59.8695V54.1313V48.3934H133.65H132.943L132.992 53.0521L133.04 57.7107L132.239 56.3176C131.798 55.5515 130.477 53.4552 129.304 51.659L127.17 48.3934H126.346H125.522V54.1236ZM137.148 54.1236V59.8538H137.855H138.563L138.514 55.1653C138.487 52.5867 138.5 50.478 138.543 50.4795C138.586 50.4808 138.83 50.8897 139.086 51.3878C139.341 51.8861 140.636 53.978 141.962 56.0366L144.372 59.7794L145.178 59.8244L145.984 59.8695V54.1313V48.3934H145.276H144.568L144.617 53.0521L144.666 57.7107L143.865 56.3176C143.424 55.5515 142.103 53.4552 140.929 51.659L138.796 48.3934H137.972H137.148V54.1236ZM159.652 48.604C159.679 48.7199 160.539 51.2984 161.562 54.3339L163.422 59.8532L164.299 59.8535L165.176 59.8538L165.405 59.2213C165.703 58.397 169.248 48.8324 169.347 48.5839C169.403 48.4434 169.2 48.3934 168.572 48.3934H167.722L166.554 51.705C165.912 53.5265 165.156 55.7425 164.873 56.6297L164.359 58.2428L164.11 57.2995C163.973 56.7806 163.279 54.5645 162.568 52.3748L161.275 48.3934H160.438C159.797 48.3934 159.613 48.4425 159.652 48.604ZM172.723 48.5723C172.471 49.2416 168.77 59.7467 168.77 59.7947C168.77 59.8272 169.141 59.8538 169.595 59.8538H170.421L171.012 58.0638L171.604 56.2736L173.701 56.3149L175.797 56.3562L176.404 58.105L177.011 59.8538H177.861C178.601 59.8538 178.7 59.8199 178.624 59.5934C178.576 59.4502 177.673 56.8882 176.617 53.9003L174.696 48.4678L173.746 48.4234C173.074 48.392 172.775 48.4356 172.723 48.5723ZM177.761 48.9887V49.5841H179.543H181.326V54.7189V59.8538H182.101H182.876V54.7189V49.5841H184.658H186.441V48.9887V48.3934H182.101H177.761V48.9887ZM187.836 54.1236V59.8538H188.611H189.386V54.1236V48.3934H188.611H187.836V54.1236ZM204.267 54.1236V59.8538H204.975H205.682L205.633 55.1653C205.607 52.5867 205.62 50.478 205.662 50.4795C205.705 50.4808 205.949 50.8897 206.205 51.3878C206.461 51.8861 207.755 53.978 209.081 56.0366L211.491 59.7794L212.297 59.8244L213.103 59.8695V54.1313V48.3934H212.395H211.688L211.736 53.0521L211.785 57.7107L210.984 56.3176C210.543 55.5515 209.222 53.4552 208.049 51.659L205.915 48.3934H205.091H204.267V54.1236ZM219.613 54.1236V59.8538H222.946H226.278V59.2585V58.6631H223.721H221.163V56.5794V54.4957H223.488H225.813V53.9003V53.305H223.488H221.163V51.4445V49.5841H223.566H225.968V48.9887V48.3934H222.791H219.613V54.1236ZM237.749 54.1236V59.8538H241.082H244.415V59.2585V58.6631H241.857H239.299V53.5283V48.3934H238.524H237.749V54.1236ZM245.965 54.1236V59.8538H249.297H252.63V59.2585V58.6631H250.072H247.515V56.5794V54.4957H249.84H252.165V53.9003V53.305H249.84H247.515V51.4445V49.5841H249.917H252.32V48.9887V48.3934H249.142H245.965V54.1236ZM264.256 54.1236V59.8538H267.588H270.921V59.2585V58.6631H268.364H265.806V56.5794V54.4957H268.131H270.456V53.9003V53.305H268.131H265.806V51.4445V49.5841H268.209H270.611V48.9887V48.3934H267.433H264.256V54.1236ZM272.936 54.1236V59.8538H273.644H274.351L274.303 55.1653C274.276 52.5867 274.289 50.478 274.331 50.4795C274.374 50.4808 274.618 50.8897 274.874 51.3878C275.13 51.8861 276.424 53.978 277.75 56.0366L280.161 59.7794L280.966 59.8244L281.772 59.8695V54.1313V48.3934H281.064H280.357L280.406 53.0521L280.454 57.7107L279.653 56.3176C279.212 55.5515 277.891 53.4552 276.718 51.659L274.584 48.3934H273.76H272.936V54.1236ZM154.432 49.6016C155.326 49.8393 156.395 50.9291 156.825 52.0399C157.592 54.0236 157.143 56.4589 155.766 57.7905C154.317 59.1912 152.482 59.1634 151.021 57.7186C150.054 56.7619 149.668 55.7066 149.679 54.0468C149.701 50.8871 151.818 48.907 154.432 49.6016ZM197.679 49.6016C198.573 49.8393 199.643 50.9291 200.072 52.0399C200.839 54.0236 200.391 56.4589 199.013 57.7905C197.564 59.1912 195.729 59.1634 194.269 57.7186C193.301 56.7619 192.916 55.7066 192.927 54.0468C192.949 50.8871 195.066 48.907 197.679 49.6016ZM232.678 49.6393C232.952 49.7515 233.351 50.0248 233.564 50.2467C233.885 50.581 233.951 50.7987 233.951 51.52C233.951 53.0255 233.135 53.6769 231.034 53.8475L229.844 53.944V51.6897V49.4352H231.011C231.654 49.4352 232.403 49.5269 232.678 49.6393ZM259.154 49.7746C259.855 50.2281 260.097 50.7111 260.017 51.4931C259.894 52.6946 258.91 53.3025 257.087 53.3041L256.195 53.305V51.3701V49.4352H257.412C258.423 49.4352 258.719 49.4928 259.154 49.7746ZM174.586 52.6352C174.99 53.8631 175.353 54.9516 175.394 55.0538C175.451 55.1958 175.061 55.2399 173.747 55.2399C172.44 55.2399 172.025 55.1934 172.025 55.0468C172.025 54.9407 172.293 54.0867 172.621 53.1492C172.949 52.2116 173.308 51.0772 173.42 50.6283C173.656 49.6811 173.56 49.5153 174.586 52.6352ZM259.05 54.7082C260.887 55.4603 260.874 57.8532 259.029 58.6079C258.754 58.7203 258.006 58.812 257.363 58.812H256.195V56.5589V54.3058L257.384 54.4092C258.038 54.4661 258.788 54.6006 259.05 54.7082Z" fill="#696665"/>
<path d="M71.6869 24.0784V21.4515H69.1942V16.4341H64.2359V21.4515H61.7342V24.0784H64.2359V34.6858C64.5623 38.049 68.324 38.6398 68.324 38.6398H71.6415V36.2401C71.0957 36.2343 70.5657 36.0553 70.1277 35.7287C69.6896 35.4021 69.366 34.9447 69.2032 34.4222V24.0784H71.6869Z" fill="#696665"/>
<path d="M251.117 24.0784V21.4515H248.624V16.4341H243.657V21.4515H241.146V24.0784H243.647V34.6858C243.974 38.049 247.735 38.6398 247.735 38.6398H251.035V36.2401C250.491 36.2324 249.963 36.0525 249.526 35.726C249.09 35.3996 248.768 34.9433 248.606 34.4222V24.0784H251.117Z" fill="#696665"/>
<path d="M89.3625 31.3498V25.6689C89.182 24.5992 88.674 23.6124 87.909 22.8452C87.144 22.0781 86.1599 21.5687 85.0931 21.3877H78.5487C78.5487 21.3877 74.6057 22.4421 74.5603 26.0143V34.5402C74.7135 35.5846 75.1953 36.5526 75.9356 37.3031C76.6759 38.0535 77.6358 38.5473 78.6756 38.7123H85.5917C85.5917 38.7123 89.1449 38.4578 89.3625 33.7222H86.9151C86.9513 34.3155 86.7649 34.9009 86.3925 35.3634C86.0202 35.826 85.4888 36.1321 84.9028 36.2218H81.558C81.0483 36.1544 80.5733 35.9261 80.2017 35.5698C79.8301 35.2135 79.5813 34.7478 79.4914 34.2403V31.3589L89.3625 31.3498ZM79.4823 28.9138V25.7325C79.6595 25.3212 79.9215 24.9523 80.2512 24.6499C80.5808 24.3475 80.9706 24.1186 81.3949 23.9782H82.5189C82.9536 24.0817 83.3548 24.2945 83.6847 24.5967C84.0146 24.8989 84.2623 25.2804 84.4043 25.7052V28.9047L79.4823 28.9138Z" fill="#696665"/>
<path d="M117.035 31.3498V25.6689C116.855 24.5992 116.347 23.6124 115.582 22.8452C114.817 22.0781 113.833 21.5687 112.766 21.3877H106.231C106.231 21.3877 102.279 22.4421 102.233 26.0143V34.5402C102.387 35.5859 102.87 36.5548 103.612 37.3055C104.354 38.0561 105.316 38.5491 106.358 38.7123H113.265C113.265 38.7123 116.827 38.4578 117.035 33.7222H114.588C114.624 34.3155 114.438 34.9009 114.066 35.3634C113.693 35.826 113.162 36.1321 112.576 36.2218H109.231C108.722 36.1554 108.247 35.9271 107.877 35.5705C107.507 35.2139 107.26 34.7477 107.173 34.2403V31.3498H117.035ZM107.155 28.9138V25.7325C107.333 25.3203 107.597 24.9508 107.928 24.6483C108.259 24.3459 108.651 24.1175 109.077 23.9782H110.219C110.672 24.0552 111.093 24.2643 111.428 24.5796C111.763 24.8948 111.999 25.3021 112.104 25.7507V28.9047L107.155 28.9138Z" fill="#696665"/>
<path d="M171.177 34.1857C171.102 34.6892 170.871 35.1561 170.516 35.52C170.161 35.884 169.701 36.1264 169.201 36.2127H168.44C167.93 36.1453 167.455 35.917 167.083 35.5607C166.712 35.2044 166.463 34.7388 166.373 34.2312V31.3498V28.9138V25.7325C166.551 25.3203 166.815 24.9508 167.146 24.6483C167.477 24.3459 167.869 24.1175 168.295 23.9782H169.428C169.886 24.0508 170.314 24.2578 170.656 24.5732C170.997 24.8886 171.239 25.2982 171.349 25.7507V28.9047L171.177 34.1857ZM176.244 31.3498V25.6689C176.063 24.5992 175.556 23.6124 174.791 22.8452C174.026 22.0781 173.041 21.5687 171.975 21.3877H165.43C165.43 21.3877 161.487 22.4421 161.442 26.0143V34.5402C161.596 35.5859 162.079 36.5548 162.821 37.3055C163.563 38.0561 164.525 38.5491 165.566 38.7123H172.473C172.473 38.7123 176.153 37.8034 176.153 34.2403L176.244 31.3498Z" fill="#696665"/>
<path d="M98.273 16.5796H93.351V38.7217H98.273V16.5796Z" fill="#696665"/>
<path d="M126.354 21.4512H121.377V38.7213H126.354V21.4512Z" fill="#696665"/>
<path d="M126.345 16.5156H121.377V19.0425H126.345V16.5156Z" fill="#696665"/>
<path d="M259.818 21.4512H254.842V38.7213H259.818V21.4512Z" fill="#696665"/>
<path d="M259.809 16.5156H254.842V19.0425H259.809V16.5156Z" fill="#696665"/>
<path d="M141.319 21.4058H137.367C136.971 21.5705 136.616 21.8178 136.324 22.1313C136.031 22.4448 135.809 22.8172 135.672 23.2237V21.4512H130.695V38.7213H135.672V25.7324C135.826 25.3209 136.076 24.9521 136.401 24.6566C136.725 24.361 137.116 24.1472 137.539 24.0326C138.17 23.876 138.838 23.9676 139.404 24.2888C139.971 24.6099 140.393 25.1362 140.585 25.7596L140.63 38.7031H145.561V25.6687C145.408 24.5941 144.912 23.5981 144.147 22.8297C143.382 22.0612 142.39 21.5617 141.319 21.4058Z" fill="#696665"/>
<path d="M157.834 19.0883H160.88V16.5068H155.178C154.013 16.6857 152.95 17.2791 152.184 18.1785C151.419 19.078 151.002 20.2236 151.009 21.4061V21.4515H148.57V24.0784H151.009V38.7034H155.94V24.0784H158.514V21.4515H155.94C155.94 21.4515 155.94 19.261 157.825 19.0428" fill="#696665"/>
<path d="M188.01 21.5146C187.137 21.7552 186.34 22.2155 185.694 22.8518C185.048 23.4881 184.575 24.2794 184.32 25.1505V21.5146H179.317V38.7847H184.32V28.4318C184.439 27.9758 184.659 27.5526 184.963 27.1937C185.268 26.8348 185.649 26.5496 186.079 26.3594H191.69V21.5146H188.01Z" fill="#696665"/>
<path d="M215.456 21.5147H211.513C210.936 21.5583 210.374 21.7185 209.86 21.9856C209.345 22.2527 208.891 22.6212 208.522 23.069C207.786 22.1776 206.746 21.5914 205.603 21.4238H201.66C201.234 21.5697 200.844 21.8082 200.52 22.1225C200.195 22.4367 199.944 22.8189 199.784 23.2417V21.4693H194.771V38.7394H199.784V25.705C199.943 25.2989 200.194 24.936 200.519 24.6455C200.843 24.3549 201.231 24.145 201.651 24.0325C202.283 23.8759 202.95 23.9675 203.517 24.2887C204.083 24.6098 204.505 25.1361 204.697 25.7595V38.703H209.637V25.8504C210.643 23.678 211.822 23.9144 211.822 23.9144L212.465 23.9598C212.94 24.0349 213.385 24.2378 213.754 24.5467C214.123 24.8556 214.401 25.2591 214.559 25.7141V38.7303H219.526V25.6777C219.345 24.6475 218.855 23.6971 218.121 22.9533C217.388 22.2095 216.445 21.7077 215.42 21.5147" fill="#696665"/>
<path d="M233.721 21.4238H227.44C227.44 21.4238 223.415 21.7329 223.415 26.3958H225.908C225.938 25.8583 226.127 25.342 226.449 24.9117C226.772 24.4814 227.214 24.1566 227.721 23.978H231.02C231.569 24.0254 232.086 24.2549 232.49 24.6303C232.894 25.0057 233.161 25.5054 233.25 26.0504V28.7772H227.503C226.466 28.9489 225.51 29.4448 224.771 30.1941C224.032 30.9434 223.548 31.9077 223.388 32.9493V34.4037C223.388 34.4037 223.696 38.194 227.395 38.7212H231.174C231.663 38.6468 232.119 38.4295 232.485 38.0964C232.851 37.7633 233.111 37.3293 233.232 36.8487V38.6666H238.154V25.6323C237.983 24.5319 237.45 23.5203 236.641 22.7579C235.831 21.9955 234.791 21.526 233.685 21.4238H233.721ZM231.174 36.1488C230.56 36.2316 229.936 36.0833 229.424 35.7326C228.912 35.3818 228.547 34.8534 228.401 34.2491C228.401 33.5947 228.401 31.4041 230.73 31.4041H233.277V34.031C233.114 34.5945 232.588 36.0216 231.165 36.1488" fill="#696665"/>
<path d="M281.455 21.4874H276.397L269.173 27.6138V16.4609H264.197V38.7212H269.173V32.8584L276.433 38.7575H281.419L271.276 30.0861L281.455 21.4874Z" fill="#696665"/>
<path d="M44.2123 16.752H58.8604L46.5056 38.7759H31.631L44.2123 16.752Z" fill="#696665"/>
<path d="M34.6765 0H50.231L28.7212 38.7759H13.1577L34.6765 0Z" fill="#696665"/>
<path d="M0.0327148 25.1961C0.0327148 25.1961 23.5185 8.96218 52.443 3.38121C52.443 3.38121 59.35 2.99036 61.5074 5.76267C63.6647 8.53497 59.8305 12.4889 58.8424 12.8888C56.1091 14.5987 52.8458 15.2454 49.6693 14.7068C46.9037 13.5125 43.847 13.1677 40.8859 13.716C26.7581 15.4013 12.9765 19.274 0.0327148 25.1961" fill="#7B0819"/>
</svg>
