<svg width="85" height="80" viewBox="0 0 85 80" fill="none" xmlns="http://www.w3.org/2000/svg">
<path d="M47.6621 0.0165901C40.4261 0.253834 32.8343 2.13696 26.2359 5.33976C15.5154 10.5295 8.01257 18.5513 5.7884 27.1959C4.37976 32.6822 5.12115 37.8571 7.99774 42.4834C8.69465 43.6103 10.474 45.8641 11.0523 46.3386C11.245 46.5017 12.9799 44.8261 23.7893 34.0167L36.304 21.502L34.2726 20.6569C33.1605 20.1972 31.0698 19.3372 29.6463 18.7441C28.2228 18.1658 27.007 17.632 26.9476 17.5727C26.8883 17.5282 29.6166 14.6961 33.027 11.2857L39.2102 5.10252L47.5879 9.01705C52.1994 11.1671 60.0581 14.8295 65.0699 17.1723C70.0817 19.5003 74.2186 21.4576 74.2631 21.4872C74.3669 21.591 62.0895 33.8684 61.8967 33.8684C61.8226 33.8684 59.8505 32.8601 57.5225 31.6442C55.1946 30.4135 53.2225 29.4201 53.1483 29.4201C53.0594 29.4201 47.3952 35.025 40.5595 41.8606C29.4239 52.9962 28.1487 54.3159 28.4749 54.3901C30.4322 54.8497 37.1343 55.0721 40.352 54.7756C53.8897 53.5597 66.6713 47.2282 74.0703 38.0943C81.6918 28.6787 82.1663 17.7654 75.301 9.87706C70.7934 4.68734 63.3054 1.21764 54.6311 0.298317C52.4218 0.0610733 49.6193 -0.0427208 47.6621 0.0165901Z" fill="#E01A4B"/>
<path d="M21.8026 68.1797C20.9425 68.4614 20.216 69.188 19.8601 70.1518C19.0891 72.2277 19.1484 76.4388 19.9787 78.1292C20.9722 80.1754 24.086 80.6499 25.7319 79.0188C26.755 77.9957 26.9033 77.3136 26.8885 73.9032C26.8885 70.7746 26.7847 70.226 25.9988 69.2028C25.2129 68.1797 23.2853 67.7052 21.8026 68.1797ZM23.9971 70.3594C24.4271 70.8191 24.605 71.8867 24.605 73.9774C24.605 76.9726 24.264 77.9067 23.1964 77.9067C22.0843 77.9067 21.7877 77.106 21.7877 73.9774C21.7877 71.6198 21.9212 70.8042 22.3957 70.3297C22.7812 69.9442 23.6115 69.9591 23.9971 70.3594Z" fill="#434963"/>
<path d="M0.287109 69.1731V70.1963H1.32505H2.363V74.9411V79.686H3.54922H4.73544V74.9411V70.1963H5.77339H6.82616L6.78168 69.188L6.73719 68.1945L3.51956 68.1649L0.287109 68.1352V69.1731Z" fill="#434963"/>
<path d="M40.4261 68.2242C40.3667 68.2686 40.3223 70.8783 40.3223 74.007V79.686H41.5085H42.6947V77.9215C42.6947 76.6463 42.7392 76.1422 42.8875 76.0829C42.9764 76.0532 43.5992 76.0087 44.2368 75.9939C46.6686 75.9346 47.4396 75.0153 47.4396 72.2425C47.4396 70.9525 47.3803 70.5966 47.0837 69.959C46.6982 69.1138 46.1792 68.6542 45.3785 68.4021C44.7854 68.2242 40.5743 68.0611 40.4261 68.2242ZM44.6668 70.6263C44.9337 70.8932 45.0078 71.1452 45.0375 72.1832C45.0968 73.3101 45.0672 73.4435 44.7409 73.8291C44.4444 74.1701 44.222 74.2591 43.5399 74.3184L42.6947 74.3777V72.2721V70.1666L43.5251 70.2259C44.1033 70.2704 44.4296 70.389 44.6668 70.6263Z" fill="#434963"/>
<path d="M60.5634 68.2538C60.5189 68.2835 60.4893 70.8783 60.4893 74.007V79.686H61.72H62.9358L62.9062 74.1701C62.8765 71.1304 62.8617 68.5207 62.8617 68.3724C62.8617 68.1352 62.7431 68.1055 61.7496 68.1352C61.1269 68.1649 60.5931 68.2093 60.5634 68.2538Z" fill="#434963"/>
<path d="M76.1168 68.2242C75.9981 68.2538 76.3392 69.2769 77.0509 71.0563L78.163 73.8291L77.0361 76.6463C76.4133 78.2033 75.9092 79.5229 75.9092 79.5822C75.9092 79.6416 76.4726 79.686 77.1547 79.686H78.4002L79.0972 77.9067C79.4678 76.9281 79.8534 75.8901 79.9423 75.5787L80.0906 75.0301L80.4317 76.0532C80.6244 76.6315 80.9951 77.6546 81.2768 78.3515L81.781 79.6119L83.0858 79.6564C84.1089 79.686 84.3758 79.6564 84.3165 79.5081C84.2869 79.4043 83.7679 78.1291 83.1896 76.676C82.6113 75.2377 82.1368 73.9477 82.1368 73.8291C82.1368 73.7104 82.6113 72.4353 83.1748 71.0118C83.7531 69.5883 84.2127 68.3576 84.2127 68.2686C84.2127 68.1945 83.6789 68.15 82.9969 68.1649L81.781 68.1945L81.2768 69.3807C81.0099 70.0332 80.6244 71.0266 80.4317 71.5901L80.0906 72.6132L79.9275 72.0349C79.8385 71.7235 79.4827 70.7152 79.112 69.8256L78.4596 68.1945L77.3623 68.1797C76.7692 68.1649 76.2057 68.1797 76.1168 68.2242Z" fill="#434963"/>
</svg>
