<svg width="242" height="40" viewBox="0 0 242 40" fill="none" xmlns="http://www.w3.org/2000/svg">
<path fill-rule="evenodd" clip-rule="evenodd" d="M3.45197 0.549757C2.20373 0.867771 1.25344 1.15855 1.1468 1.25517C1.04696 1.34563 0.966485 1.52851 0.967789 1.66159C0.969186 1.79467 1.21833 2.88963 1.5215 4.09482C2.09858 6.38862 2.20308 6.61655 2.67548 6.61077C2.78501 6.60937 3.85945 6.3599 5.06307 6.05634C7.3539 5.47851 7.58153 5.37387 7.57575 4.90086C7.57044 4.4659 6.47272 0.346358 6.31587 0.172896C6.21622 0.0625705 6.03953 -0.00485598 5.86397 0.00027328C5.70545 0.00493624 4.62001 0.252166 3.45197 0.549757ZM12.091 2.19466C11.1201 3.04724 10.2949 3.7921 10.2573 3.85001C10.0266 4.20505 10.1864 4.45965 11.7844 6.28231C13.3074 8.01954 13.3984 8.10525 13.717 8.1031C14.0162 8.10114 14.2398 7.93393 15.8442 6.51322C17.5193 5.02984 17.6371 4.9045 17.6371 4.60411C17.6371 4.32433 17.4662 4.0854 16.323 2.76672C15.6003 1.93298 14.8674 1.11444 14.6945 0.947694C14.148 0.420966 14.0666 0.459948 12.091 2.19466ZM20.9283 3.93199C20.804 4.07123 20.5458 4.89685 20.161 6.38573C19.5276 8.83612 19.5207 9.00613 20.0475 9.21559C20.4948 9.39353 24.2282 10.3436 24.48 10.3436C25.078 10.3436 25.0461 10.4133 25.8305 7.38258C26.343 5.40185 26.3621 5.11815 25.9962 4.92203C25.7172 4.77253 21.6584 3.72365 21.3555 3.72281C21.2237 3.72244 21.0313 3.81663 20.9283 3.93199ZM30.6838 7.16165C28.8177 7.63634 28.5752 7.72009 28.4046 7.94894L28.2136 8.20513L28.805 10.5857C29.3229 12.6702 29.4247 12.9848 29.6245 13.1159C29.8403 13.2574 29.9763 13.2357 32.1419 12.7138C33.4842 12.3903 34.5215 12.0918 34.6494 11.9921C34.7987 11.8759 34.8667 11.7286 34.8646 11.5258C34.8629 11.3629 34.6158 10.246 34.3155 9.0439C33.9305 7.50223 33.7203 6.82209 33.6023 6.73574C33.3306 6.53681 32.8848 6.60182 30.6838 7.16165ZM36.6666 7.54411C36.2929 7.6991 36.2647 7.9012 36.2647 10.424V12.848L36.5101 13.0413C36.7436 13.2253 36.8691 13.2346 39.1054 13.2346C41.3418 13.2346 41.4672 13.2253 41.7007 13.0413L41.9461 12.848V10.3512C41.9461 7.93216 41.9401 7.84897 41.7503 7.67681C41.5699 7.51324 41.369 7.49757 39.2123 7.47948C37.9241 7.46857 36.7786 7.49766 36.6666 7.54411ZM94.1035 20.9341V33.8561L97.992 33.8223C102.393 33.7841 102.363 33.7882 103.883 33.0328C104.625 32.6642 104.903 32.4569 105.606 31.7502C106.917 30.4322 107.511 29.1923 107.702 27.376C107.816 26.2886 107.817 20.6748 107.702 19.7938C107.48 18.0802 106.565 16.7334 105.085 15.9425C104.133 15.4333 103.693 15.3825 100.227 15.381L97.0839 15.3796V11.6958V8.01208H95.5937H94.1035V20.9341ZM137.413 20.9285V33.8449H138.95H140.486V20.9285V8.01208H138.95H137.413V20.9285ZM219.188 18.8106C219.188 30.606 219.167 30.1305 219.725 31.18C220.101 31.8876 221.167 32.9174 221.889 33.2703C222.768 33.7001 223.578 33.8413 225.172 33.8433L226.546 33.8449V32.5478V31.2507L225.172 31.217C223.987 31.1879 223.747 31.1559 223.426 30.9839C222.939 30.7233 222.597 30.3533 222.362 29.8347C222.178 29.4274 222.172 29.2479 222.17 23.7029L222.168 17.9908H224.357H226.546V16.6852V15.3796H224.357H222.168V11.6958V8.01208H220.678H219.188V18.8106ZM4.23005 8.64223C4.0678 8.77373 3.9199 9.2626 3.47991 11.1214C2.92686 13.4578 2.90422 13.699 3.21428 13.9509C3.34738 14.059 7.62363 15.0998 7.9348 15.0998C8.3827 15.0998 8.48879 14.8567 9.02126 12.6099C9.30337 11.4199 9.53408 10.3262 9.53408 10.1796C9.53408 9.65596 9.42287 9.60523 7.01134 9.02683C5.76068 8.72691 4.66873 8.4808 4.58481 8.47996C4.5008 8.47903 4.34116 8.55215 4.23005 8.64223ZM13.5115 10.3225C13.3345 10.5183 11.8625 14.6491 11.8625 14.95C11.8625 15.0641 11.9165 15.2313 11.9824 15.3216C12.1091 15.495 16.3299 17.0604 16.6571 17.0552C16.7607 17.0537 16.9237 16.9929 17.0192 16.9205C17.201 16.7826 18.7491 12.6051 18.7527 12.2424C18.7538 12.1326 18.6815 11.9571 18.5918 11.8524C18.4046 11.6335 14.3382 10.157 13.9227 10.157C13.7788 10.157 13.5938 10.2315 13.5115 10.3225ZM24.3991 12.3489C22.0872 12.9639 21.805 13.0924 21.805 13.5309C21.805 13.6525 22.0637 14.7372 22.3799 15.9414C22.9764 18.2133 23.0888 18.4573 23.5384 18.4569C23.6479 18.4568 24.7406 18.189 25.9663 17.8617C28.2767 17.2446 28.4411 17.1678 28.4411 16.705C28.4411 16.2853 27.3107 12.1648 27.1527 12.0087C27.0673 11.9242 26.9137 11.8331 26.8112 11.8061C26.7087 11.779 25.6233 12.0233 24.3991 12.3489ZM29.9527 14.2296C29.6125 14.3666 29.5588 14.7569 29.5588 17.0876C29.5588 19.2499 29.5685 19.3769 29.7519 19.6103L29.9448 19.856L32.4296 19.8546C33.7961 19.8538 34.9603 19.8223 35.0167 19.7847C35.2962 19.5978 35.3333 19.2671 35.3333 16.9668V14.625L35.1047 14.3961L34.8761 14.1672L32.4735 14.1746C31.1522 14.1786 30.0178 14.2034 29.9527 14.2296ZM36.5101 14.3605L36.2647 14.5538V17.0184C36.2647 19.3587 36.2741 19.4924 36.451 19.6695C36.6281 19.8468 36.7614 19.856 39.1376 19.856C41.4415 19.856 41.65 19.8426 41.792 19.6854C41.9273 19.5358 41.9461 19.2115 41.9461 17.0312C41.9461 14.5963 41.9421 14.5438 41.7423 14.3573C41.5482 14.1762 41.4249 14.1672 39.147 14.1672C36.8686 14.1672 36.7439 14.1763 36.5101 14.3605ZM51.2171 15.5894C51.3326 15.9751 56.4804 32.1072 56.7679 32.9845L57.0514 33.8495L58.5493 33.8238L60.0473 33.7983L62.1035 27.2948C63.2344 23.718 64.1805 20.7915 64.2062 20.7916C64.2318 20.7918 65.172 23.6553 66.2955 27.1551C67.4192 30.655 68.3741 33.592 68.4178 33.6817C68.4884 33.827 68.66 33.8449 69.9796 33.8449H71.4622L71.548 33.5418C71.6388 33.2208 77.2391 15.6951 77.3144 15.4961C77.3487 15.4057 77.0026 15.3796 75.7715 15.3796C74.3408 15.3796 74.1797 15.3956 74.1356 15.5428C73.8264 16.5748 69.9686 29.0385 69.954 29.0528C69.9431 29.0633 68.9865 26.0017 67.8282 22.2491L65.7223 15.4262H64.244H62.7657L60.6702 22.2078C59.5177 25.9378 58.5468 28.9594 58.5126 28.9225C58.4784 28.8856 57.5161 25.8235 56.3743 22.1175L54.298 15.3796H52.7261H51.1543L51.2171 15.5894ZM82.1818 15.5272C80.4006 15.9977 78.9536 17.41 78.4985 19.1221C78.3932 19.5182 78.3651 20.4469 78.3643 23.567C78.363 28.1694 78.3915 28.4083 79.1214 29.9177C79.5275 30.7575 79.6976 30.9938 80.3969 31.6897C81.2359 32.5244 81.8742 32.9585 82.8348 33.3469C83.9164 33.7844 84.5513 33.8449 88.0577 33.8449H91.3094V32.5393V31.2336H88.2404C86.3597 31.2336 84.9803 31.1937 84.6778 31.1306C82.9947 30.7791 81.7007 29.4388 81.4113 27.7472C81.3562 27.4257 81.3343 27.1025 81.3624 27.0291C81.3965 26.9402 82.5989 26.6055 84.9694 26.0249C89.0856 25.017 89.4843 24.8607 90.4784 23.8653C92.156 22.1855 92.4687 19.8096 91.2795 17.7777C90.6878 16.7667 89.3544 15.8112 88.1331 15.5229C87.3017 15.3267 82.9289 15.3299 82.1818 15.5272ZM125.186 15.5225C123.533 15.9331 122.153 17.1712 121.565 18.7699C121.361 19.325 121.354 19.4662 121.322 23.2332C121.296 26.3168 121.317 27.2835 121.423 27.8962C121.817 30.1678 123.242 32.1053 125.241 33.0865C126.629 33.7679 126.7 33.7774 130.684 33.8203L134.246 33.8586V32.5461V31.2336H131.232C129.574 31.2336 127.992 31.1918 127.716 31.1405C126.429 30.9016 125.28 30.0169 124.726 28.8395C124.432 28.2141 124.197 27.0779 124.336 26.9517C124.382 26.9095 126.009 26.4907 127.952 26.0211C132.078 25.0239 132.359 24.9131 133.417 23.8668C134.644 22.6536 135.149 21.2391 134.919 19.6605C134.655 17.8456 133.472 16.4016 131.659 15.6797C131.037 15.432 131.015 15.4301 128.378 15.4095C126.329 15.3935 125.601 15.4192 125.186 15.5225ZM147.031 15.5136C145.358 15.9195 143.853 17.321 143.366 18.9274C143.188 19.5148 143.18 19.7591 143.206 23.874L143.234 28.2027L143.526 29.0197C143.945 30.1916 144.332 30.7935 145.286 31.756C145.999 32.4744 146.263 32.6712 147.009 33.0377C148.517 33.7786 148.547 33.7829 152.524 33.8222L156.04 33.857V32.5453V31.2336H153.026C151.368 31.2336 149.786 31.1915 149.51 31.1399C147.801 30.8206 146.337 29.2259 146.2 27.5353L146.148 26.8971L149.394 26.1157C153.485 25.1308 153.649 25.0795 154.5 24.5092C155.972 23.5233 156.785 22.0511 156.785 20.3716C156.785 18.9279 156.384 17.9628 155.343 16.909C154.629 16.1851 153.713 15.6712 152.799 15.4819C152.1 15.3368 147.659 15.3613 147.031 15.5136ZM159.3 24.6122V33.8449H160.787H162.274L162.301 27.5266L162.327 21.2083L162.538 20.6855C162.853 19.9067 163.277 19.3218 163.857 18.8641C164.699 18.2004 165.179 18.059 166.752 18.012C167.604 17.9865 168.25 18.0111 168.5 18.0784C168.983 18.2087 169.487 18.6364 169.76 19.1477L169.965 19.5296L169.991 26.6872L170.018 33.8449H171.502H172.987L173.012 27.4799L173.038 21.115L173.374 20.4156C173.755 19.6213 174.414 18.905 175.114 18.5234C175.843 18.1263 176.536 17.9907 177.831 17.9918C178.865 17.9925 179.054 18.0181 179.475 18.2148C179.981 18.4506 180.349 18.8596 180.523 19.3803C180.598 19.6062 180.629 21.7309 180.629 26.7711V33.8449H182.119H183.609V26.7301C183.609 20.6424 183.589 19.5363 183.467 19.0672C183.025 17.3683 181.619 15.9668 179.917 15.5273C179.118 15.3211 176.585 15.3232 175.664 15.5307C174.517 15.7896 173.447 16.3557 172.559 17.1742L172.173 17.5299L171.879 17.1574C171.522 16.7061 170.406 15.943 169.667 15.6449C169.159 15.4398 169.006 15.4268 167.124 15.4265C165.278 15.4262 165.073 15.4429 164.504 15.6398C163.816 15.878 162.928 16.3822 162.532 16.7598C162.365 16.9195 162.248 16.9722 162.206 16.9072C162.17 16.8516 161.931 16.4857 161.675 16.094L161.21 15.382L160.255 15.3808L159.3 15.3796V24.6122ZM190.201 15.5246C188.848 15.8529 187.522 16.8856 186.916 18.0824C186.366 19.1696 186.356 19.2696 186.362 23.6796C186.367 27.5626 186.376 27.768 186.571 28.4741C187.256 30.9432 188.854 32.6575 191.247 33.4884L192.131 33.7956L195.694 33.8271L199.256 33.8586V32.5461V31.2336H196.242C194.584 31.2336 193.002 31.1915 192.726 31.1399C191.668 30.9422 190.572 30.1997 190.001 29.2945C189.667 28.7638 189.384 27.869 189.384 27.343L189.384 26.8971L192.938 26.0345C194.893 25.5601 196.705 25.0726 196.966 24.9514C198.791 24.1024 199.997 22.2799 200 20.3652C200.004 18.0767 198.435 16.1082 196.14 15.5215C195.387 15.3289 190.998 15.3312 190.201 15.5246ZM202.516 24.6122V33.8449H204.007H205.497V27.6981C205.497 21.9394 205.508 21.5156 205.672 20.9868C205.914 20.2092 206.229 19.7037 206.822 19.1422C207.748 18.2656 208.573 17.9908 210.279 17.9908C211.543 17.9908 211.956 18.0854 212.442 18.4871C213.166 19.0842 213.13 18.6543 213.132 26.6872L213.134 33.8449H214.675H216.216L216.182 26.6872C216.157 21.3594 216.119 19.4223 216.033 19.1099C215.557 17.387 214.127 15.9674 212.422 15.5273C211.675 15.3344 209.07 15.3261 208.186 15.5137C207.432 15.6738 206.532 16.1127 205.932 16.6132C205.685 16.8194 205.449 16.9514 205.409 16.9066C205.369 16.8617 205.119 16.4998 204.855 16.1023L204.373 15.3796H203.445H202.516V24.6122ZM232.134 15.5272C231.189 15.7768 230.454 16.2049 229.759 16.9099C227.504 19.1992 227.915 22.7455 230.641 24.5096C231.35 24.9688 231.759 25.1028 234.789 25.871C236.121 26.2087 237.377 26.5567 237.58 26.6444C238.464 27.0254 238.932 27.7766 238.93 28.8089C238.929 29.787 238.492 30.5449 237.676 30.9857C237.312 31.1824 237.206 31.1877 232.996 31.2139L228.688 31.2407V32.5428V33.8449L232.996 33.8433C237.742 33.8415 238.117 33.8075 239.187 33.2813C240.331 32.719 241.358 31.5222 241.729 30.3213C241.982 29.5016 241.981 28.2062 241.727 27.3825C241.493 26.6268 240.93 25.7713 240.3 25.2149C239.453 24.467 238.599 24.1268 235.627 23.3529C232.566 22.5559 232.493 22.5311 232.064 22.1541C230.837 21.0758 231.155 18.9054 232.64 18.2129L233.112 17.9927L237.001 17.9918L240.889 17.9908V16.6852V15.3796L236.768 15.3857C233.479 15.3906 232.543 15.4192 232.134 15.5272ZM87.4108 18.0991C88.7053 18.4874 89.381 20.2278 88.7385 21.519C88.3105 22.3789 88.216 22.42 84.6136 23.3124L81.3902 24.1109L81.365 22.0596C81.337 19.769 81.3945 19.4299 81.9198 18.7918C82.0823 18.5945 82.4277 18.3339 82.6875 18.2129C83.1361 18.0037 83.257 17.9926 85.1049 17.9918C86.3144 17.9912 87.1864 18.0318 87.4108 18.0991ZM103.337 18.0991C103.536 18.1586 103.862 18.3479 104.063 18.5197C104.733 19.094 104.732 19.0888 104.702 23.8662L104.675 28.1094L104.375 28.7425C103.797 29.9658 102.676 30.8614 101.387 31.1306C101.116 31.1873 100.036 31.2336 98.9887 31.2336H97.0839V24.6122V17.9908H100.03C101.997 17.9908 103.097 18.0268 103.337 18.0991ZM130.569 18.1653C131.062 18.3895 131.53 18.8677 131.766 19.3887C131.989 19.8806 132.02 20.7433 131.834 21.2862C131.69 21.7082 131.25 22.2358 130.885 22.4246C130.605 22.5698 124.751 24.0527 124.458 24.0527C124.289 24.0527 124.28 23.9586 124.28 22.1112C124.28 19.9631 124.356 19.5122 124.83 18.858C124.994 18.6307 125.296 18.3853 125.594 18.2366C126.082 17.9932 126.106 17.9908 128.14 17.9929C129.928 17.9946 130.243 18.017 130.569 18.1653ZM152.458 18.2116C153.25 18.5809 153.708 19.2648 153.782 20.1888C153.862 21.1826 153.414 22.0446 152.594 22.4739C152.466 22.5409 150.968 22.9382 149.265 23.3567L146.168 24.1175L146.169 21.9635C146.169 19.8934 146.178 19.7908 146.391 19.3343C146.631 18.8161 147.178 18.297 147.671 18.1185C147.878 18.0434 148.662 18.0029 149.986 17.9988C151.899 17.993 152.01 18.0025 152.458 18.2116ZM195.677 18.2129C197.358 18.9965 197.468 21.5942 195.857 22.4449C195.703 22.526 194.184 22.9352 192.481 23.3543L189.384 24.1162L189.385 21.9628C189.386 19.8923 189.394 19.7914 189.606 19.3431C189.727 19.0866 189.973 18.7373 190.152 18.5667C190.693 18.0519 190.974 17.9994 193.202 17.9959C195.115 17.9928 195.226 18.0025 195.677 18.2129ZM7.20385 19.5606C6.05034 20.0052 5.05227 20.4045 4.98605 20.4479C4.91983 20.4914 4.8265 20.6301 4.77863 20.7561C4.70747 20.9435 4.84411 21.3886 5.52718 23.1952C6.35574 25.3866 6.5463 25.7313 6.929 25.7313C7.17572 25.7313 11.3216 24.1472 11.5133 23.9797C11.603 23.9013 11.6763 23.7103 11.6763 23.5552C11.6763 23.141 10.1277 19.0971 9.89368 18.9001C9.78695 18.8103 9.61008 18.7403 9.50045 18.7445C9.39092 18.7488 8.35737 19.116 7.20385 19.5606ZM16.6126 19.256C15.5112 19.5302 14.5166 19.7779 14.4022 19.8066C14.2879 19.8352 14.1307 19.982 14.0529 20.1328C13.919 20.3918 13.942 20.5331 14.4717 22.7137C14.7879 24.0152 15.0987 25.0941 15.1849 25.1894C15.2688 25.2823 15.454 25.3583 15.5965 25.3583C15.9149 25.3583 19.9916 24.375 20.2522 24.2353C20.6442 24.0253 20.6315 23.8039 20.1017 21.6138C19.8244 20.4675 19.5751 19.4363 19.5476 19.3224C19.4751 19.0218 19.1294 18.7353 18.8536 18.7472C18.7224 18.7528 17.7139 18.9818 16.6126 19.256ZM22.9112 20.0658C22.7013 20.2562 22.6437 20.4949 22.292 22.6336C21.9292 24.84 21.9138 25.0064 22.0537 25.2202C22.1359 25.3458 22.297 25.47 22.4116 25.4961C23.0126 25.6332 26.6078 26.1976 26.8803 26.1976C27.4615 26.1976 27.5356 26.0163 27.9283 23.633C28.1228 22.4533 28.2827 21.3703 28.2838 21.2264C28.2879 20.7102 28.1029 20.6397 25.6772 20.2332C24.4387 20.0257 23.3618 19.856 23.2841 19.856C23.2063 19.856 23.0385 19.9504 22.9112 20.0658ZM29.7828 21.0782C29.6177 21.2608 29.6053 21.4464 29.6053 23.7443V26.2141L29.8252 26.3924C30.0293 26.5578 30.2216 26.5707 32.4962 26.5707H34.9473L35.1403 26.3249C35.324 26.0911 35.3333 25.9655 35.3333 23.7263C35.3333 21.487 35.324 21.3614 35.1403 21.1276L34.9473 20.8819H32.4537C30.037 20.8819 29.9547 20.8879 29.7828 21.0782ZM36.451 21.0684C36.2741 21.2455 36.2647 21.3792 36.2647 23.71C36.2647 26.1558 36.2656 26.1659 36.4802 26.3679C36.6903 26.5654 36.7588 26.5707 39.1347 26.5707C41.4494 26.5707 41.5831 26.5612 41.7599 26.3842C41.9367 26.2071 41.9461 26.0733 41.9461 23.7263C41.9461 21.3792 41.9367 21.2455 41.7599 21.0684C41.583 20.8913 41.4494 20.8819 39.1054 20.8819C36.7614 20.8819 36.6279 20.8913 36.451 21.0684ZM109.751 24.4257V25.7313H114.361H118.971V24.4257V23.1201H114.361H109.751V24.4257ZM11.3036 27.2187C10.0997 27.358 9.02098 27.5221 8.90642 27.5836C8.79177 27.6449 8.67115 27.8024 8.63827 27.9337C8.56544 28.2242 9.0411 32.5938 9.17233 32.8393C9.22383 32.9356 9.35935 33.05 9.47335 33.0934C9.73078 33.1914 14.1533 32.7092 14.4486 32.5509C14.5619 32.4903 14.6801 32.3386 14.7113 32.2138C14.764 32.0039 14.3378 27.755 14.227 27.3857C14.1801 27.2292 13.7243 26.9315 13.567 26.9547C13.526 26.9607 12.5074 27.0796 11.3036 27.2187ZM16.4331 27.8423C16.2492 28.0762 16.24 28.2015 16.24 30.4577V32.8275L16.4687 33.0564L16.6972 33.2853H19.1128C21.3516 33.2853 21.5443 33.2723 21.7481 33.1072C21.9676 32.9294 21.9681 32.9243 21.9956 30.5139C22.0223 28.1735 22.0171 28.0912 21.8259 27.8478L21.6285 27.5965H19.1273H16.6261L16.4331 27.8423ZM23.1322 27.783C22.9554 27.9601 22.946 28.0939 22.946 30.4247C22.946 32.8704 22.9468 32.8806 23.1615 33.0826C23.3714 33.28 23.4405 33.2853 25.7984 33.2853C28.1064 33.2853 28.2292 33.2765 28.4235 33.0952C28.6235 32.9087 28.6274 32.8567 28.6274 30.4051C28.6274 28.1017 28.614 27.8931 28.457 27.7509C28.3076 27.6154 27.9834 27.5965 25.8026 27.5965C23.4427 27.5965 23.3092 27.6058 23.1322 27.783ZM29.7475 27.8478C29.5563 28.0912 29.551 28.1735 29.5778 30.5139C29.6053 32.9243 29.6058 32.9294 29.8252 33.1072C30.029 33.2723 30.2217 33.2853 32.4606 33.2853H34.8761L35.1047 33.0564L35.3333 32.8275V30.4857C35.3333 28.1855 35.2962 27.8548 35.0167 27.6679C34.9603 27.6302 33.7961 27.5988 32.4296 27.5979L29.9448 27.5965L29.7475 27.8478ZM36.451 27.783C36.2741 27.9601 36.2647 28.0939 36.2647 30.4247C36.2647 32.8704 36.2656 32.8806 36.4802 33.0826C36.6902 33.28 36.7593 33.2853 39.1172 33.2853C41.4251 33.2853 41.548 33.2765 41.7423 33.0952C41.9422 32.9087 41.9461 32.8567 41.9461 30.4051C41.9461 28.1017 41.9327 27.8931 41.7758 27.7509C41.6263 27.6154 41.3022 27.5965 39.1214 27.5965C36.7614 27.5965 36.628 27.6058 36.451 27.783ZM10.0929 34.2818C9.62582 34.4614 9.62721 34.4527 9.62721 37.1166V39.6134L9.87263 39.8067C10.1061 39.9907 10.2316 40 12.4679 40C14.7043 40 14.8297 39.9907 15.0632 39.8067L15.3086 39.6134V37.1591C15.3086 34.8823 15.2958 34.689 15.1307 34.4847C14.9529 34.2647 14.9506 34.2646 12.5927 34.2463C11.2947 34.2363 10.1697 34.2522 10.0929 34.2818ZM16.6425 34.3288C16.2668 34.5107 16.2291 34.8002 16.2586 37.2877C16.2865 39.6357 16.2873 39.6443 16.5065 39.8219C16.71 39.9868 16.9021 40 19.0834 40C20.3798 40 21.5084 39.9739 21.5913 39.9421C21.9627 39.7994 22.0146 39.4531 22.0146 37.118C22.0146 34.7431 21.9772 34.5024 21.5808 34.3214C21.2813 34.1848 16.9265 34.1913 16.6425 34.3288ZM23.3479 34.3095C22.9742 34.4645 22.946 34.6666 22.946 37.1894V39.6134L23.1914 39.8067C23.4249 39.9907 23.5503 40 25.7867 40C28.023 40 28.1485 39.9907 28.382 39.8067L28.6274 39.6134V37.1166C28.6274 34.6976 28.6213 34.6144 28.4315 34.4422C28.2511 34.2786 28.0502 34.263 25.8935 34.2449C24.6053 34.234 23.4598 34.2631 23.3479 34.3095ZM29.9652 34.327C29.5985 34.5048 29.5588 34.7775 29.5588 37.118C29.5588 39.4531 29.6107 39.7994 29.9821 39.9421C30.065 39.9739 31.2001 40 32.5045 40H34.8761L35.1047 39.771L35.3333 39.5422L35.3304 37.1365C35.3273 34.6126 35.3177 34.5508 34.8971 34.3264C34.6342 34.1862 30.2545 34.1868 29.9652 34.327ZM36.6666 34.3095C36.2929 34.4645 36.2647 34.6666 36.2647 37.1894V39.6134L36.5101 39.8067C36.7436 39.9907 36.8691 40 39.1054 40C41.3418 40 41.4672 39.9907 41.7007 39.8067L41.9461 39.6134V37.1166C41.9461 34.6976 41.9401 34.6144 41.7503 34.4422C41.5699 34.2786 41.369 34.263 39.2123 34.2449C37.9241 34.234 36.7786 34.2631 36.6666 34.3095Z" fill="#0F70B7"/>
<path fill-rule="evenodd" clip-rule="evenodd" d="M3.45197 0.549757C2.20373 0.867771 1.25344 1.15855 1.1468 1.25517C1.04696 1.34563 0.966485 1.52851 0.967789 1.66159C0.969186 1.79467 1.21833 2.88963 1.5215 4.09482C2.09858 6.38862 2.20308 6.61655 2.67548 6.61077C2.78501 6.60937 3.85945 6.3599 5.06307 6.05634C7.3539 5.47851 7.58153 5.37387 7.57575 4.90086C7.57044 4.4659 6.47272 0.346358 6.31587 0.172896C6.21622 0.0625705 6.03953 -0.00485598 5.86397 0.00027328C5.70545 0.00493624 4.62001 0.252166 3.45197 0.549757ZM12.091 2.19466C11.1201 3.04724 10.2949 3.7921 10.2573 3.85001C10.0266 4.20505 10.1864 4.45965 11.7844 6.28231C13.3074 8.01954 13.3984 8.10525 13.717 8.1031C14.0162 8.10114 14.2398 7.93393 15.8442 6.51322C17.5193 5.02984 17.6371 4.9045 17.6371 4.60411C17.6371 4.32433 17.4662 4.0854 16.323 2.76672C15.6003 1.93298 14.8674 1.11444 14.6945 0.947694C14.148 0.420966 14.0666 0.459948 12.091 2.19466ZM20.9283 3.93199C20.804 4.07123 20.5458 4.89685 20.161 6.38573C19.5276 8.83612 19.5207 9.00613 20.0475 9.21559C20.4948 9.39353 24.2282 10.3436 24.48 10.3436C25.078 10.3436 25.0461 10.4133 25.8305 7.38258C26.343 5.40185 26.3621 5.11815 25.9962 4.92203C25.7172 4.77254 21.6584 3.72365 21.3555 3.72281C21.2237 3.72244 21.0313 3.81663 20.9283 3.93199ZM30.6838 7.16165C28.8177 7.63634 28.5752 7.72009 28.4046 7.94895L28.2136 8.20513L28.805 10.5857C29.3229 12.6702 29.4247 12.9849 29.6245 13.1159C29.8403 13.2574 29.9763 13.2357 32.1419 12.7138C33.4842 12.3903 34.5215 12.0918 34.6494 11.9921C34.7987 11.8759 34.8667 11.7286 34.8646 11.5258C34.8629 11.3629 34.6158 10.246 34.3155 9.0439C33.9305 7.50223 33.7203 6.82209 33.6023 6.73574C33.3306 6.53681 32.8848 6.60181 30.6838 7.16165ZM4.23005 8.64223C4.0678 8.77373 3.9199 9.2626 3.47991 11.1214C2.92686 13.4578 2.90422 13.699 3.21428 13.9509C3.34738 14.059 7.62363 15.0998 7.9348 15.0998C8.3827 15.0998 8.48879 14.8567 9.02126 12.6099C9.30337 11.4199 9.53408 10.3262 9.53408 10.1796C9.53408 9.65596 9.42287 9.60523 7.01134 9.02683C5.76068 8.72691 4.66873 8.4808 4.58481 8.47996C4.5008 8.47903 4.34116 8.55215 4.23005 8.64223ZM13.5115 10.3225C13.3345 10.5183 11.8625 14.6491 11.8625 14.95C11.8625 15.0641 11.9165 15.2313 11.9824 15.3216C12.1091 15.495 16.3299 17.0604 16.6571 17.0552C16.7607 17.0537 16.9237 16.9929 17.0192 16.9205C17.201 16.7826 18.7491 12.6051 18.7527 12.2424C18.7538 12.1326 18.6815 11.9571 18.5918 11.8524C18.4046 11.6335 14.3382 10.157 13.9227 10.157C13.7788 10.157 13.5938 10.2315 13.5115 10.3225ZM24.3991 12.3489C22.0872 12.9639 21.805 13.0924 21.805 13.5309C21.805 13.6525 22.0637 14.7372 22.3799 15.9414C22.9764 18.2133 23.0888 18.4573 23.5384 18.4569C23.6479 18.4568 24.7406 18.189 25.9663 17.8617C28.2767 17.2446 28.4411 17.1678 28.4411 16.705C28.4411 16.2853 27.3107 12.1648 27.1527 12.0087C27.0673 11.9242 26.9137 11.8331 26.8112 11.8061C26.7087 11.779 25.6233 12.0233 24.3991 12.3489ZM7.20385 19.5606C6.05034 20.0052 5.05227 20.4045 4.98605 20.4479C4.91983 20.4914 4.8265 20.6301 4.77863 20.7561C4.70747 20.9435 4.84411 21.3886 5.52718 23.1952C6.35574 25.3866 6.5463 25.7313 6.929 25.7313C7.17572 25.7313 11.3216 24.1472 11.5133 23.9797C11.603 23.9013 11.6763 23.7103 11.6763 23.5552C11.6763 23.141 10.1277 19.0971 9.89368 18.9001C9.78695 18.8103 9.61008 18.7403 9.50045 18.7445C9.39092 18.7488 8.35737 19.116 7.20385 19.5606ZM16.6126 19.256C15.5112 19.5302 14.5166 19.7779 14.4022 19.8066C14.2879 19.8352 14.1307 19.982 14.0529 20.1328C13.919 20.3918 13.942 20.5331 14.4717 22.7137C14.7879 24.0152 15.0987 25.0941 15.1849 25.1894C15.2688 25.2823 15.454 25.3583 15.5965 25.3583C15.9149 25.3583 19.9916 24.375 20.2522 24.2353C20.6442 24.0253 20.6315 23.8039 20.1017 21.6138C19.8244 20.4675 19.5751 19.4363 19.5476 19.3224C19.4751 19.0218 19.1294 18.7353 18.8536 18.7472C18.7224 18.7528 17.7139 18.9818 16.6126 19.256ZM22.9112 20.0658C22.7013 20.2562 22.6437 20.4949 22.292 22.6336C21.9292 24.84 21.9138 25.0064 22.0537 25.2202C22.1359 25.3458 22.297 25.47 22.4116 25.4961C23.0126 25.6332 26.6078 26.1976 26.8803 26.1976C27.4615 26.1976 27.5356 26.0163 27.9283 23.633C28.1228 22.4533 28.2827 21.3703 28.2838 21.2264C28.2879 20.7102 28.1029 20.6397 25.6772 20.2332C24.4387 20.0257 23.3618 19.856 23.2841 19.856C23.2063 19.856 23.0385 19.9504 22.9112 20.0658ZM11.3036 27.2187C10.0997 27.358 9.02098 27.5221 8.90642 27.5836C8.79177 27.6449 8.67115 27.8024 8.63827 27.9337C8.56544 28.2242 9.0411 32.5938 9.17233 32.8393C9.22383 32.9356 9.35935 33.05 9.47335 33.0934C9.73078 33.1914 14.1533 32.7092 14.4486 32.5509C14.5619 32.4903 14.6801 32.3386 14.7113 32.2138C14.764 32.0039 14.3378 27.755 14.227 27.3857C14.1801 27.2292 13.7243 26.9315 13.567 26.9547C13.526 26.9607 12.5074 27.0796 11.3036 27.2187Z" fill="#6AC6D9"/>
<path fill-rule="evenodd" clip-rule="evenodd" d="M3.45197 0.549757C2.20373 0.867771 1.25344 1.15855 1.1468 1.25517C1.04696 1.34563 0.966485 1.52851 0.967789 1.66159C0.969186 1.79467 1.21833 2.88963 1.5215 4.09482C2.09858 6.38862 2.20308 6.61655 2.67548 6.61077C2.78501 6.60937 3.85945 6.3599 5.06307 6.05634C7.3539 5.47851 7.58153 5.37387 7.57575 4.90086C7.57044 4.4659 6.47272 0.346358 6.31587 0.172896C6.21622 0.0625705 6.03953 -0.00485598 5.86397 0.00027328C5.70545 0.00493624 4.62001 0.252166 3.45197 0.549757ZM20.9283 3.93199C20.804 4.07123 20.5458 4.89685 20.1609 6.38573C19.5276 8.83612 19.5207 9.00613 20.0475 9.21559C20.4948 9.39353 24.2282 10.3436 24.4799 10.3436C25.078 10.3436 25.0461 10.4133 25.8305 7.38258C26.343 5.40185 26.3621 5.11815 25.9962 4.92203C25.7172 4.77254 21.6584 3.72365 21.3555 3.72281C21.2237 3.72244 21.0313 3.81663 20.9283 3.93199ZM4.23004 8.64223C4.0678 8.77373 3.9199 9.2626 3.47991 11.1214C2.92686 13.4578 2.90422 13.699 3.21428 13.9509C3.34738 14.059 7.62363 15.0998 7.9348 15.0998C8.3827 15.0998 8.48879 14.8567 9.02126 12.6099C9.30337 11.4199 9.53408 10.3262 9.53408 10.1796C9.53408 9.65596 9.42287 9.60523 7.01134 9.02683C5.76068 8.72691 4.66873 8.4808 4.58481 8.47996C4.5008 8.47903 4.34116 8.55215 4.23004 8.64223ZM13.5115 10.3225C13.3345 10.5183 11.8625 14.6491 11.8625 14.95C11.8625 15.0641 11.9165 15.2313 11.9824 15.3216C12.1091 15.495 16.3299 17.0604 16.6571 17.0552C16.7607 17.0537 16.9237 16.9929 17.0192 16.9205C17.201 16.7826 18.7491 12.6051 18.7527 12.2424C18.7538 12.1326 18.6814 11.9571 18.5918 11.8524C18.4046 11.6335 14.3382 10.157 13.9227 10.157C13.7788 10.157 13.5938 10.2315 13.5115 10.3225ZM24.3991 12.3489C22.0872 12.9639 21.805 13.0924 21.805 13.5309C21.805 13.6525 22.0637 14.7372 22.3799 15.9414C22.9764 18.2133 23.0888 18.4573 23.5384 18.4569C23.6479 18.4568 24.7406 18.189 25.9663 17.8617C28.2767 17.2446 28.4411 17.1678 28.4411 16.705C28.4411 16.2853 27.3107 12.1648 27.1527 12.0087C27.0673 11.9242 26.9137 11.8331 26.8112 11.8061C26.7087 11.779 25.6233 12.0233 24.3991 12.3489ZM16.6126 19.256C15.5112 19.5302 14.5166 19.7779 14.4022 19.8066C14.2879 19.8352 14.1307 19.982 14.0529 20.1328C13.919 20.3918 13.942 20.5331 14.4717 22.7137C14.7879 24.0152 15.0987 25.0941 15.1849 25.1894C15.2688 25.2823 15.454 25.3583 15.5965 25.3583C15.9149 25.3583 19.9916 24.375 20.2522 24.2353C20.6441 24.0253 20.6315 23.8039 20.1017 21.6138C19.8244 20.4675 19.5751 19.4363 19.5476 19.3224C19.4751 19.0218 19.1294 18.7353 18.8536 18.7472C18.7224 18.7528 17.7139 18.9818 16.6126 19.256ZM22.9112 20.0658C22.7013 20.2562 22.6437 20.4949 22.292 22.6336C21.9292 24.84 21.9138 25.0064 22.0537 25.2202C22.1359 25.3458 22.297 25.47 22.4116 25.4961C23.0126 25.6332 26.6078 26.1976 26.8803 26.1976C27.4615 26.1976 27.5356 26.0163 27.9283 23.633C28.1228 22.4533 28.2827 21.3703 28.2838 21.2264C28.2879 20.7102 28.1029 20.6397 25.6772 20.2332C24.4387 20.0257 23.3618 19.856 23.2841 19.856C23.2063 19.856 23.0385 19.9504 22.9112 20.0658ZM11.3036 27.2187C10.0997 27.358 9.02098 27.5221 8.90642 27.5836C8.79176 27.6449 8.67115 27.8024 8.63827 27.9337C8.56544 28.2242 9.0411 32.5938 9.17233 32.8393C9.22383 32.9356 9.35935 33.05 9.47335 33.0934C9.73078 33.1914 14.1533 32.7092 14.4486 32.5509C14.5619 32.4903 14.6801 32.3386 14.7113 32.2138C14.764 32.0039 14.3378 27.755 14.227 27.3857C14.1801 27.2292 13.7243 26.9315 13.567 26.9547C13.526 26.9607 12.5074 27.0796 11.3036 27.2187Z" fill="#F9AF17"/>
<path fill-rule="evenodd" clip-rule="evenodd" d="M20.9284 3.93184C20.8041 4.07107 20.5459 4.8967 20.1611 6.38558C19.5277 8.83597 19.5208 9.00598 20.0476 9.21544C20.4949 9.39338 24.2283 10.3434 24.4801 10.3434C25.0781 10.3434 25.0463 10.4132 25.8306 7.38243C26.3431 5.4017 26.3622 5.118 25.9964 4.92188C25.7173 4.77238 21.6585 3.7235 21.3557 3.72266C21.2238 3.72228 21.0314 3.81648 20.9284 3.93184ZM4.23016 8.64208C4.06792 8.77358 3.92001 9.26244 3.48003 11.1213C2.92698 13.4576 2.90434 13.6989 3.2144 13.9508C3.34749 14.0589 7.62375 15.0996 7.93492 15.0996C8.38282 15.0996 8.48891 14.8565 9.02138 12.6097C9.30349 11.4197 9.5342 10.3261 9.5342 10.1795C9.5342 9.65581 9.42299 9.60508 7.01146 9.02668C5.7608 8.72676 4.66885 8.48065 4.58493 8.47981C4.50092 8.47888 4.34128 8.55199 4.23016 8.64208ZM16.6127 19.2558C15.5113 19.53 14.5167 19.7778 14.4023 19.8064C14.2881 19.8351 14.1308 19.9818 14.053 20.1326C13.9191 20.3916 13.9421 20.5329 14.4718 22.7135C14.788 24.015 15.0988 25.0939 15.185 25.1893C15.2689 25.2821 15.4541 25.3581 15.5966 25.3581C15.915 25.3581 19.9917 24.3748 20.2523 24.2351C20.6443 24.0251 20.6316 23.8038 20.1018 21.6137C19.8246 20.4674 19.5752 19.4362 19.5478 19.3222C19.4752 19.0216 19.1295 18.7352 18.8537 18.747C18.7226 18.7527 17.7141 18.9816 16.6127 19.2558ZM22.9113 20.0657C22.7014 20.256 22.6439 20.4948 22.2922 22.6335C21.9293 24.8398 21.9139 25.0063 22.0538 25.22C22.1361 25.3457 22.2971 25.4699 22.4118 25.496C23.0127 25.6331 26.6079 26.1975 26.8804 26.1975C27.4616 26.1975 27.5357 26.0162 27.9284 23.6329C28.1229 22.4531 28.2828 21.3702 28.2839 21.2262C28.288 20.71 28.1031 20.6395 25.6773 20.2331C24.4388 20.0256 23.3619 19.8559 23.2842 19.8559C23.2064 19.8559 23.0386 19.9502 22.9113 20.0657ZM11.3037 27.2186C10.0998 27.3578 9.0211 27.5219 8.90654 27.5834C8.79188 27.6448 8.67127 27.8023 8.63839 27.9335C8.56556 28.2241 9.04121 32.5937 9.17245 32.8391C9.22395 32.9355 9.35947 33.0499 9.47347 33.0933C9.7309 33.1913 14.1534 32.709 14.4487 32.5508C14.562 32.4901 14.6802 32.3384 14.7115 32.2136C14.7641 32.0037 14.3379 27.7548 14.2271 27.3855C14.1802 27.229 13.7244 26.9313 13.5671 26.9546C13.5261 26.9605 12.5075 27.0794 11.3037 27.2186Z" fill="#A96BAA"/>
<path fill-rule="evenodd" clip-rule="evenodd" d="M13.5117 10.3227C13.3346 10.5185 11.8627 14.6492 11.8627 14.9502C11.8627 15.0642 11.9166 15.2315 11.9825 15.3217C12.1092 15.4952 16.33 17.0606 16.6572 17.0554C16.7608 17.0538 16.9238 16.9931 17.0193 16.9207C17.2011 16.7828 18.7492 12.6053 18.7528 12.2426C18.7539 12.1328 18.6816 11.9573 18.5919 11.8526C18.4047 11.6337 14.3384 10.1572 13.9229 10.1572C13.779 10.1572 13.5939 10.2316 13.5117 10.3227ZM22.9114 20.066C22.7014 20.2564 22.6439 20.4951 22.2922 22.6338C21.9293 24.8401 21.9139 25.0066 22.0538 25.2204C22.1361 25.346 22.2971 25.4702 22.4118 25.4963C23.0127 25.6334 26.6079 26.1978 26.8804 26.1978C27.4616 26.1978 27.5358 26.0165 27.9284 23.6332C28.1229 22.4535 28.2828 21.3705 28.2839 21.2265C28.288 20.7103 28.1031 20.6398 25.6773 20.2334C24.4388 20.0259 23.362 19.8562 23.2842 19.8562C23.2064 19.8562 23.0386 19.9506 22.9114 20.066ZM11.3037 27.2189C10.0998 27.3581 9.0211 27.5223 8.90654 27.5837C8.79189 27.6451 8.67128 27.8026 8.6384 27.9338C8.56556 28.2244 9.04122 32.594 9.17245 32.8395C9.22396 32.9358 9.35947 33.0502 9.47347 33.0936C9.73091 33.1916 14.1534 32.7094 14.4487 32.5511C14.562 32.4905 14.6802 32.3387 14.7115 32.214C14.7641 32.004 14.3379 27.7552 14.2272 27.3858C14.1802 27.2294 13.7244 26.9317 13.5671 26.9549C13.5261 26.9609 12.5075 27.0798 11.3037 27.2189Z" fill="#94C11F"/>
</svg>
