<svg width="175" height="60" viewBox="0 0 175 60" fill="none" xmlns="http://www.w3.org/2000/svg">
<path fill-rule="evenodd" clip-rule="evenodd" d="M52.773 0.211265C50.7486 1.20173 49.8277 2.53606 49.8277 4.47962C49.8277 6.11639 50.505 7.35425 51.9086 8.28301C52.8802 8.92613 53.2919 9.0226 54.6004 8.91426C56.4814 8.75811 57.4832 8.08312 58.3085 6.41506C59.33 4.3507 58.7552 2.25303 56.7601 0.763422C55.9695 0.173315 53.539 -0.163309 52.773 0.211265ZM102.818 0.302229C101.631 0.99315 101.442 2.02185 101.442 7.76301C101.442 13.2061 101.437 13.2489 100.79 13.4225C100.431 13.5184 99.7084 13.5989 99.1835 13.6009C97.8109 13.6067 96.8065 14.6945 96.8065 16.1754C96.8065 16.807 96.8876 17.5347 96.9864 17.7925C97.2654 18.5191 98.6713 19.1092 100.124 19.1092H101.442V31.2372C101.442 42.8641 101.465 43.3954 102.012 44.0907C102.699 44.9638 103.91 45.2532 105.287 44.8731C107.143 44.3604 107.077 44.8198 107.236 31.4493L107.38 19.254L111.436 19.1813C113.825 19.1381 115.761 18.969 116.146 18.7688C117.073 18.2876 117.482 16.5862 117.014 15.1572C116.518 13.6426 115.549 13.3521 110.929 13.3315L107.236 13.3153V9.56839V5.82148L112.153 5.72994C116.664 5.64593 117.12 5.58915 117.667 5.04163C118.94 3.76668 118.631 0.811801 117.166 0.254719C116.2 -0.112613 103.458 -0.0703175 102.818 0.302229ZM48.6513 13.5019C46.8711 13.8182 46.0064 16.7519 47.2428 18.2804C47.7074 18.8551 48.1356 18.9875 49.9224 19.1092L52.0488 19.254L52.1936 31.5188L52.3385 43.7839L53.1514 44.4826C53.5984 44.867 54.3154 45.1814 54.7447 45.1811C55.9376 45.1805 57.5095 44.2665 57.7332 43.4435C58.0637 42.2262 58.0185 16.4802 57.6836 15.2742C57.5182 14.6786 57.1239 14.0526 56.8076 13.8834C56.1963 13.5563 49.9818 13.2655 48.6513 13.5019ZM64.3556 13.605C64.3527 13.6846 64.3553 20.3644 64.3608 28.4492C64.3677 38.6658 64.4697 43.3658 64.6954 43.8609C65.3284 45.2503 68.0747 45.4902 69.1943 44.2538C69.6796 43.7175 69.7311 42.7337 69.865 31.4635L70.0098 19.254L76.8176 19.1671C81.0112 19.1135 84.0302 19.1978 84.6796 19.3864C86.6316 19.9533 86.6672 20.1918 86.6672 32.6457V43.6321L87.319 44.2407C87.6777 44.5753 88.3225 44.9363 88.7522 45.0429C89.7507 45.2906 91.5112 44.7149 91.884 44.0188C92.0608 43.6886 92.1714 38.9043 92.1714 31.5959C92.1714 20.1193 92.15 19.6526 91.5445 18.0338C91.1998 17.1114 90.5152 15.9793 90.0236 15.5178C88.1577 13.7658 88.1374 13.7632 75.731 13.605C69.4771 13.5253 64.3582 13.5253 64.3556 13.605ZM129.54 13.8756C127.185 14.592 125.746 15.9266 124.902 18.1787C124.363 19.6147 124.327 20.4525 124.327 31.5959C124.327 39.0578 124.437 43.6854 124.621 44.0292C124.977 44.6958 126.703 45.2135 127.823 44.9896C128.274 44.8992 128.878 44.5663 129.165 44.2494C129.643 43.7213 129.699 42.7294 129.832 32.3328C129.987 20.1726 129.996 20.1025 131.495 19.4194C131.871 19.2482 133.915 19.1092 136.057 19.1092C139.743 19.1092 139.98 19.0738 140.751 18.4101C141.447 17.8113 141.564 17.495 141.564 16.2117C141.564 14.9857 141.44 14.6117 140.88 14.1589C140.264 13.6592 139.71 13.6073 135.231 13.6299C132.501 13.6435 129.939 13.7542 129.54 13.8756ZM148.517 13.9396C147.557 14.4645 147.213 15.1033 147.223 16.34C147.233 17.7013 147.664 18.3849 148.777 18.8082C149.266 18.9942 153.209 19.1092 159.11 19.1092H168.651L168.696 20.3404C168.747 21.7364 168.659 22.963 168.497 23.1252C168.437 23.1855 167.828 23.3457 167.143 23.4812C157.429 25.4048 150.528 26.9576 149.63 27.4214C149.018 27.7377 148.126 28.5497 147.648 29.2259L146.779 30.4553L146.696 36.5873C146.618 42.3319 146.65 42.7792 147.203 43.668C147.528 44.1897 148.134 44.7462 148.55 44.9044C149.012 45.08 154.21 45.1857 161.876 45.1756L174.445 45.1588V31.2227V17.287L173.683 16.0836C173.265 15.4219 172.484 14.5934 171.949 14.2426C170.989 13.6137 170.829 13.605 160.036 13.6137C152.679 13.6198 148.907 13.7264 148.517 13.9396ZM168.651 34.0284V39.3878H160.539H152.428V35.7576C152.428 32.9887 152.52 32.0918 152.816 31.9783C153.03 31.896 156.647 31.1295 160.855 30.2743C165.063 29.4191 168.538 28.7082 168.578 28.6943C168.618 28.6804 168.651 31.0808 168.651 34.0284Z" fill="#B1BED3"/>
<path fill-rule="evenodd" clip-rule="evenodd" d="M8.73546 14.2566C8.73344 14.456 8.6529 14.9122 8.55701 15.2706L8.38233 15.9224H15.0789H21.7758V14.9085V13.8945H15.2576C10.2384 13.8945 8.73865 13.9777 8.73546 14.2566ZM32.6651 14.6188C32.792 15.1243 32.7279 15.3445 32.4533 15.3473C32.1494 15.3508 32.1587 15.4154 32.4944 15.6304C33.0996 16.0183 41.5607 15.9096 41.8327 15.5104C41.9498 15.3387 42.0474 14.9047 42.05 14.5463C42.0543 13.8966 42.0399 13.8945 37.2689 13.8945H32.4834L32.6651 14.6188ZM10.188 17.7941V18.8193H16.689C20.9438 18.8193 23.2555 18.7136 23.3792 18.5131C23.4832 18.3448 23.4916 17.9013 23.3978 17.5273L23.2274 16.8477L16.7076 16.8083L10.188 16.7686V17.7941ZM29.8872 17.9575V18.8338L34.5742 18.7542L39.2611 18.6745L39.474 17.8778L39.6867 17.0812H34.7871H29.8872V17.9575ZM12.5055 20.5482V21.4266H18.9898H25.4743L25.6113 20.7093C25.6869 20.3144 25.6892 19.9323 25.6168 19.8602C25.5444 19.7878 22.5649 19.7154 18.9953 19.6991L12.5055 19.6702V20.5482ZM27.4294 20.0505C26.9025 21.6149 26.7779 21.5688 31.6254 21.6036C34.095 21.6213 36.2787 21.5749 36.4777 21.5002C36.677 21.4257 36.8398 20.9874 36.8398 20.5265V19.6884H32.1958C28.7386 19.6884 27.5204 19.7808 27.4294 20.0505ZM14.1084 23.4359L13.6643 24.2946L23.4415 24.3815C28.8191 24.4293 33.2413 24.4675 33.2691 24.4663C33.2969 24.4649 33.3621 24.0738 33.4139 23.5973L33.5084 22.7302L24.0304 22.6537L14.5522 22.5775L14.1084 23.4359ZM15.9123 26.1996C15.8367 26.5944 15.8434 26.9855 15.9268 27.0687C16.0103 27.1521 19.446 27.2205 23.5623 27.2205H31.046V26.3514V25.4823H23.5478H16.0494L15.9123 26.1996ZM15.5957 28.5725C15.2927 28.8755 15.3697 30.1165 15.6922 30.1255C15.8515 30.1299 19.2082 30.1371 23.1515 30.1414L30.3212 30.1496L30.5019 29.2645L30.683 28.3792H23.2358C19.1398 28.3792 15.7017 28.4661 15.5957 28.5725ZM12.2158 32.149V33.0219L22.2827 32.9457L32.3496 32.8695L32.4411 32.0728L32.533 31.2762H22.3743H12.2158V32.149ZM10.0095 34.5909C9.62772 35.5862 10.0171 36.0567 11.2057 36.0359C11.841 36.0246 14.0227 35.9921 16.0543 35.9634L19.7479 35.9113V35.0422V34.1731H14.959C11.0553 34.1731 10.1402 34.2505 10.0095 34.5909ZM21.4861 35.0422V35.9113H28.0042H34.5223V35.0422V34.1731H28.0042H21.4861V35.0422ZM7.35449 37.9391L7.32987 38.8082H12.2353H17.1406V37.9391V37.0701H12.2599H7.37912L7.35449 37.9391ZM23.2242 37.4808C23.2242 37.7068 23.1451 38.0979 23.0484 38.3499C22.8911 38.7596 23.5814 38.8082 29.5665 38.8082H36.2605V37.9391V37.0701H29.7423C24.3085 37.0701 23.2242 37.1384 23.2242 37.4808ZM9.10164 39.9018L4.39411 39.9815V40.8433V41.7052H9.14133H13.8883L14.0177 40.8233C14.0887 40.3384 14.0711 39.9146 13.9781 39.8818C13.8851 39.8491 11.6909 39.8581 9.10164 39.9018ZM31.0054 39.8972L25.3161 39.9792L25.1895 40.8422L25.0626 41.7052H31.6274H38.1919V40.8361C38.1919 40.3335 38.0389 39.967 37.8292 39.967C37.6298 39.967 37.2929 39.9328 37.0809 39.8911C36.8685 39.8494 34.1347 39.852 31.0054 39.8972ZM3.16291 42.7759C2.00355 42.8573 1.49717 43.0134 1.49717 43.2892C1.49717 43.5074 1.41808 43.8918 1.32132 44.1438C1.16518 44.5508 1.71096 44.6021 6.21223 44.6021C11.1133 44.6021 11.2845 44.5821 11.438 43.9949C11.7436 42.826 11.4725 42.7203 8.08336 42.689C6.29334 42.6725 4.07892 42.7116 3.16291 42.7759ZM26.9902 43.733V44.6021H33.5084H40.0265V43.733V42.8639H33.5084H26.9902V43.733Z" fill="#B1BED3"/>
<path fill-rule="evenodd" clip-rule="evenodd" d="M36.3013 51.3716C35.8091 51.9649 36.2129 52.7726 36.949 52.6674C37.3876 52.6048 37.564 52.3728 37.564 51.8595C37.564 51.033 36.8207 50.7459 36.3013 51.3716ZM45.7369 51.1665C45.6233 51.2798 45.5306 51.8253 45.5306 52.3786C45.5306 52.9936 45.3336 53.538 45.0237 53.779C44.5465 54.1498 44.5457 54.1956 45.0112 54.558C45.3933 54.8555 45.5248 55.496 45.5906 57.3793C45.6619 59.4292 45.756 59.831 46.1824 59.9124C46.6352 59.999 46.6894 59.7278 46.6894 57.3807V54.7524H47.7245C48.5539 54.7524 48.7407 54.6515 48.6637 54.2454C48.6005 53.9114 48.2471 53.7074 47.6286 53.6477C46.8583 53.5733 46.6894 53.4331 46.6894 52.8685C46.6894 52.2821 46.8505 52.1668 47.7757 52.0901C48.5084 52.0295 48.8621 51.8586 48.8621 51.5657C48.8621 51.2482 48.4687 51.1083 47.4026 51.0457C46.5996 50.9988 45.8502 51.053 45.7369 51.1665ZM67.7467 51.1735C67.6369 51.283 67.5474 51.8583 67.5474 52.4522C67.5474 53.1443 67.3915 53.5913 67.1128 53.6984C66.8738 53.79 66.6783 54.0646 66.6783 54.3088C66.6783 54.5528 66.8738 54.7524 67.1128 54.7524C67.4671 54.7524 67.5474 55.237 67.5474 57.3761V60.0002L68.7786 59.9109C70.1213 59.8139 70.5535 59.0303 69.358 58.8602C68.7537 58.7745 68.7062 58.6215 68.7062 56.7599V54.7524H69.5752C70.2511 54.7524 70.4443 54.6237 70.4443 54.173C70.4443 53.7248 70.2511 53.5936 69.5918 53.5936C68.7989 53.5936 68.7334 53.5093 68.6502 52.385C68.5659 51.241 68.187 50.7328 67.7467 51.1735ZM88.8709 51.4446C88.7741 51.6967 88.695 52.2364 88.695 52.644C88.695 53.0513 88.4668 53.5623 88.1881 53.779C87.7069 54.153 87.7086 54.1944 88.2214 54.5913C88.6649 54.9349 88.7686 55.4401 88.8008 57.4158L88.8399 59.822L90.0711 59.9109C91.1496 59.9892 91.3023 59.9263 91.3023 59.404C91.3023 58.9616 91.116 58.8081 90.5781 58.8081C89.8744 58.8081 89.8538 58.7501 89.8538 56.7802V54.7524H90.7058C91.1745 54.7524 91.6473 54.6075 91.7568 54.4302C92.0054 54.0281 91.3675 53.604 90.5056 53.5979C89.9268 53.5942 89.8538 53.4473 89.8538 52.29C89.8538 51.3687 89.7353 50.9863 89.4503 50.9863C89.2284 50.9863 88.9676 51.1926 88.8709 51.4446ZM139.971 55.4766V59.9668H140.985C141.806 59.9668 141.999 59.8565 141.999 59.3875C141.999 59.0013 141.806 58.8081 141.419 58.8081C140.869 58.8081 140.84 58.6148 140.84 54.8972C140.84 51.6141 140.77 50.9863 140.405 50.9863C140.038 50.9863 139.971 51.6784 139.971 55.4766ZM149.73 51.1735C149.62 51.283 149.531 51.8658 149.531 52.4687C149.531 53.2036 149.364 53.6648 149.024 53.8688C148.541 54.1582 148.541 54.1912 149.024 54.5669C149.437 54.8882 149.531 55.4236 149.531 57.4639V59.9668H150.856C151.961 59.9668 152.164 59.8828 152.084 59.4599C152.031 59.1809 151.695 58.9112 151.339 58.8602C150.738 58.7748 150.69 58.6186 150.69 56.7599V54.7524H151.58C152.271 54.7524 152.449 54.6391 152.374 54.2454C152.317 53.9427 151.964 53.7022 151.5 53.6483C150.813 53.5687 150.711 53.4177 150.633 52.3673C150.549 51.2384 150.168 50.7349 149.73 51.1735ZM153.7 51.3994C153.436 52.0863 153.809 52.7798 154.382 52.6695C154.703 52.6077 154.89 52.3076 154.89 51.8554C154.89 51.0295 153.976 50.6795 153.7 51.3994ZM114.188 55.6214C114.188 59.291 114.256 59.9668 114.623 59.9668C114.862 59.9668 115.057 59.7531 115.057 59.4915C115.057 59.2302 115.117 57.4679 115.191 55.576C115.333 51.9354 115.241 51.276 114.592 51.276C114.265 51.276 114.188 52.1002 114.188 55.6214ZM115.98 51.783C116.047 52.1373 116.402 52.3169 117.16 52.3798L118.244 52.4699V56.2182C118.244 59.7736 118.274 59.9668 118.823 59.9668C119.373 59.9668 119.403 59.7736 119.403 56.2182V52.4699L120.487 52.3798C121.244 52.3169 121.599 52.1373 121.667 51.783C121.753 51.3273 121.466 51.276 118.823 51.276C116.18 51.276 115.894 51.3273 115.98 51.783ZM2.16775 53.8853C1.29491 54.237 0.917725 55.0597 0.917725 56.6116C0.917725 57.6574 1.09154 58.1244 1.75958 58.8721C2.54088 59.7464 2.73324 59.8145 4.43925 59.8179C5.88134 59.8211 6.27707 59.7284 6.27707 59.3875C6.27707 59.0679 5.82891 58.9129 4.5838 58.8023C2.6275 58.6285 2.0765 58.1209 2.0765 56.4931C2.0765 55.0629 2.49714 54.7524 4.4349 54.7524C6.08963 54.7524 6.85819 54.3375 6.09688 53.8555C5.58644 53.5322 2.99541 53.5519 2.16775 53.8853ZM8.16558 54.1675C7.62675 54.7063 7.56794 55.0588 7.6421 57.2982C7.70873 59.3113 7.8136 59.822 8.16008 59.822C8.50076 59.822 8.62591 59.291 8.73947 57.3596L8.88431 54.8972L9.98834 54.8062C10.8409 54.7358 11.0712 54.604 10.9999 54.2268C10.8531 53.4513 8.92197 53.4111 8.16558 54.1675ZM12.8864 53.8853C11.9907 54.2463 11.6364 55.0667 11.6364 56.7802C11.6364 58.2446 11.9962 59.3278 12.6214 59.7452C12.7966 59.8623 13.6895 59.9599 14.6058 59.9625C16.9364 59.9686 17.4303 59.435 17.4303 56.912C17.4303 55.2848 17.3295 54.9149 16.7191 54.3048C16.1762 53.7616 15.7141 53.5979 14.7637 53.6118C14.0794 53.622 13.2346 53.7451 12.8864 53.8853ZM18.8912 54.1605C18.2217 54.83 18.1241 55.8564 18.6615 56.5734C18.9237 56.9233 19.5256 57.0702 20.844 57.1067C22.7853 57.1606 23.0761 57.3263 22.7928 58.2188C22.6407 58.698 22.2986 58.7962 20.5289 58.868C18.9066 58.9341 18.4442 59.0494 18.4442 59.3875C18.4442 60.0454 22.1645 60.1583 23.1242 59.5297C23.7369 59.1279 23.8221 58.8788 23.7462 57.7052L23.6587 56.3457L21.5584 56.2605C19.5552 56.1794 19.4581 56.1432 19.4581 55.4766C19.4581 54.81 19.5552 54.7738 21.5584 54.6927C23.1943 54.6263 23.6587 54.5113 23.6587 54.173C23.6587 53.8349 23.1958 53.7196 21.5709 53.6535C19.7864 53.5811 19.397 53.6547 18.8912 54.1605ZM25.8314 53.8048C25.201 54.0446 24.9719 54.4916 24.9667 55.4911C24.9603 56.7733 25.4285 57.0699 27.4586 57.0699C29.3025 57.0699 29.636 57.282 29.375 58.2889C29.2715 58.687 28.8411 58.8005 27.1768 58.8683C25.5678 58.9341 25.1072 59.0497 25.1072 59.3875C25.1072 59.7255 25.5701 59.8408 27.195 59.9069C29.731 60.01 30.4665 59.5094 30.4665 57.6803C30.4665 56.341 30.2171 56.2008 27.8355 56.2008C26.1999 56.2008 26.1211 56.1675 26.1211 55.4766C26.1211 54.7729 26.1791 54.7524 28.149 54.7524C29.9836 54.7524 30.1768 54.6973 30.1768 54.173C30.1768 53.6486 29.9914 53.5956 28.2214 53.6165C27.1458 53.6289 26.0704 53.7138 25.8314 53.8048ZM35.5362 53.8833C35.2937 54.2755 35.6208 54.7524 36.1327 54.7524C36.4652 54.7524 36.5501 55.2825 36.5501 57.3596C36.5501 59.395 36.6387 59.9668 36.9536 59.9668C37.5559 59.9668 37.7089 59.2991 37.7089 56.6695C37.7089 55.2043 37.5753 54.1553 37.3612 53.9412C36.9395 53.5194 35.7836 53.4829 35.5362 53.8833ZM38.578 56.7802C38.578 59.3405 38.6588 59.9668 38.9896 59.9668C39.525 59.9668 39.7987 58.6615 39.702 56.5705L39.6243 54.8972H41.2014H42.7785L42.9234 57.3567C43.0436 59.4002 43.154 59.8327 43.5752 59.9127C44.0291 59.9993 44.0821 59.7218 44.0821 57.2524C44.0821 53.8297 43.8631 53.5936 40.6861 53.5936H38.578V56.7802ZM50.3555 54.1234C49.6845 54.8645 49.6454 59.9668 50.3106 59.9668C50.7796 59.9668 50.8181 59.7444 50.7489 57.4361C50.682 55.2051 50.8963 54.7524 52.0201 54.7524C53.1064 54.7524 53.3767 54.5733 53.1565 53.9997C52.923 53.3911 50.9389 53.4786 50.3555 54.1234ZM54.1276 53.9997C53.8802 54.6446 54.1913 54.7524 56.2977 54.7524C57.8226 54.7524 58.2772 54.8477 58.2772 55.1675C58.2772 55.6145 57.9058 55.7703 56.1045 56.0786C54.1198 56.4184 53.9318 56.618 53.9318 58.3837V59.9668H56.6838H59.4359V57.1278C59.4359 55.306 59.3114 54.1643 59.0883 53.9412C58.5703 53.4232 54.3295 53.4734 54.1276 53.9997ZM60.8925 54.1649C60.2294 54.828 60.1807 56.3164 60.8053 56.8347C61.0113 57.0056 61.9525 57.1281 62.8972 57.1067C64.7113 57.0656 65.0925 57.2918 64.7944 58.2313C64.6348 58.7342 64.3541 58.8081 62.6032 58.8081C60.7879 58.8081 60.5947 58.8637 60.5947 59.3875C60.5947 59.9141 60.7879 59.9668 62.7225 59.9668C65.0922 59.9668 65.5963 59.6621 65.8999 58.047C66.165 56.6368 65.6562 56.2338 63.4917 56.1385C61.7891 56.0638 61.5997 55.9934 61.5159 55.4042C61.427 54.777 61.5073 54.7524 63.6377 54.7524C65.5899 54.7524 65.8402 54.6924 65.755 54.2454C65.6754 53.8282 65.2883 53.7234 63.5733 53.6535C61.7874 53.5808 61.4033 53.6541 60.8925 54.1649ZM72.2758 53.9377C71.7181 54.2074 71.6338 54.5157 71.5489 56.598C71.4365 59.3527 71.5298 59.9668 72.0602 59.9668C72.3502 59.9668 72.471 59.3203 72.5333 57.432L72.617 54.8972L73.7034 54.8074C74.5545 54.7367 74.7897 54.5956 74.7897 54.1556C74.7897 53.7106 74.5936 53.5976 73.8482 53.6133C73.3305 53.624 72.6228 53.77 72.2758 53.9377ZM75.8494 53.7891C75.7446 53.894 75.6588 55.122 75.6588 56.518C75.6588 59.7982 75.8135 59.9668 78.8223 59.9668H81.0752L81.07 56.9251C81.0654 54.1721 81.0144 53.8833 80.5347 53.8833C80.0622 53.8833 80.0042 54.1524 80.0042 56.3457V58.8081H78.4109C77.3411 58.8081 76.8103 58.689 76.7956 58.446C76.7834 58.2469 76.7915 57.2266 76.8135 56.1785C76.841 54.8566 76.7286 54.1701 76.4465 53.936C76.2231 53.7506 75.9543 53.6843 75.8494 53.7891ZM82.6839 54.0354C82.1239 54.4305 82.0321 54.7564 82.0321 56.346C82.0321 57.8741 82.1514 58.3353 82.7172 58.9929C83.3105 59.6827 83.6645 59.8064 85.3526 59.9138C87.1365 60.0274 87.2941 59.9918 87.1999 59.4955C87.1264 59.1082 86.8074 58.9306 86.0855 58.8747C83.615 58.6838 82.9012 58.1577 82.9012 56.5279C82.9012 55.0319 83.3015 54.7524 85.4426 54.7524C87.045 54.7524 87.2764 54.6854 87.1924 54.2454C87.0554 53.5267 83.6303 53.3673 82.6839 54.0354ZM92.6604 53.7807C92.5506 53.8902 92.4611 55.0371 92.4611 56.3294C92.4611 59.6827 92.7114 59.9668 95.6642 59.9668H97.9653V56.9561C97.9653 54.6402 97.8714 53.9093 97.5591 53.7894C96.8989 53.5359 96.8065 53.8558 96.8065 56.3941V58.8081H95.2245H93.6424L93.5587 56.2967C93.4819 53.991 93.2102 53.2306 92.6604 53.7807ZM100.283 53.788C99.3572 54.133 99.124 54.863 99.124 57.4149C99.124 59.7568 99.1707 59.9668 99.6921 59.9668C100.207 59.9668 100.268 59.7284 100.344 57.432L100.428 54.8972L101.532 54.8062C102.384 54.7361 102.615 54.604 102.543 54.2268C102.448 53.7251 101.135 53.4702 100.283 53.788ZM103.356 54.0519C103.069 54.7984 103.155 57.8367 103.488 58.711C103.918 59.8417 104.204 59.9573 106.584 59.9625C108.477 59.9663 108.684 59.9109 108.684 59.4002C108.684 58.8976 108.446 58.8237 106.584 58.7484C104.559 58.6664 104.483 58.6372 104.483 57.939C104.483 57.2507 104.558 57.2182 105.983 57.2857C108.121 57.3871 108.744 57.0867 108.88 55.8894C109.125 53.7202 108.972 53.5936 106.102 53.5936C104.025 53.5936 103.498 53.6816 103.356 54.0519ZM127.237 54.1605C126.538 54.859 126.46 56.266 127.09 56.7892C127.344 56.9995 128.186 57.1403 129.046 57.1157C130.852 57.0647 131.415 57.3486 131.151 58.18C130.984 58.7061 130.693 58.7942 128.874 58.868C127.252 58.9341 126.79 59.0494 126.79 59.3875C126.79 60.0454 130.51 60.1583 131.47 59.5297C132.083 59.1279 132.168 58.8788 132.092 57.7052L132.004 56.3457L129.976 56.2008C128.159 56.071 127.939 55.9896 127.858 55.4172C127.772 54.8149 127.888 54.7735 129.885 54.693C131.538 54.6263 132.004 54.5119 132.004 54.173C132.004 53.8349 131.541 53.7196 129.916 53.6535C128.132 53.5811 127.743 53.6547 127.237 54.1605ZM134.322 53.9398C133.418 54.4525 133.317 54.7552 133.312 56.981C133.307 59.4929 133.743 59.9668 136.06 59.9668C136.917 59.9668 137.792 59.7797 138.168 59.5158C138.741 59.1146 138.812 58.8127 138.812 56.7802C138.812 54.7477 138.741 54.4459 138.168 54.0446C137.421 53.5209 135.169 53.4594 134.322 53.9398ZM142.777 53.7807C142.668 53.8902 142.578 55.0371 142.578 56.3294C142.578 59.685 142.827 59.9668 145.791 59.9668H148.102L148.02 56.8526C147.953 54.314 147.857 53.7384 147.503 53.7384C147.156 53.7384 147.052 54.2503 146.985 56.2732L146.901 58.8081H145.33H143.76L143.676 56.2967C143.599 53.991 143.327 53.2306 142.777 53.7807ZM152.898 54.0394C152.774 54.3633 152.898 54.5641 153.285 54.6652C153.787 54.7967 153.864 55.1101 153.938 57.315C154.009 59.446 154.098 59.8301 154.538 59.9144C155.012 60.0051 155.048 59.7551 154.973 56.8758L154.89 53.7384L153.986 53.6504C153.356 53.5892 153.025 53.7074 152.898 54.0394ZM156.615 54.3048C156.006 54.914 155.904 55.2857 155.904 56.9007C155.904 59.384 156.455 59.9668 158.805 59.9668C161.085 59.9668 161.698 59.3003 161.698 56.8208C161.698 55.2906 161.59 54.9073 160.987 54.3048C160.418 53.7358 159.981 53.5936 158.801 53.5936C157.621 53.5936 157.184 53.7358 156.615 54.3048ZM162.76 53.7868C162.654 53.8928 162.567 55.3268 162.567 56.9734C162.567 59.7736 162.604 59.9668 163.146 59.9668C163.683 59.9668 163.726 59.7736 163.726 57.3596V54.7524H165.319H166.912L166.917 56.7078C166.921 59.0537 167.132 59.9668 167.671 59.9668C167.983 59.9668 168.071 59.3672 168.071 57.2313C168.071 54.7327 168.015 54.4563 167.427 54.0446C166.774 53.5872 163.159 53.3873 162.76 53.7868ZM169.882 53.8923C169.362 54.1014 169.23 54.383 169.23 55.2868C169.23 55.91 169.393 56.5514 169.592 56.7124C169.791 56.8735 170.776 57.0986 171.781 57.2127C173.432 57.4002 173.599 57.4801 173.519 58.0418C173.439 58.6027 173.226 58.6716 171.33 58.7484C169.468 58.8237 169.23 58.8976 169.23 59.4002C169.23 59.9121 169.439 59.9668 171.391 59.9668C173.242 59.9668 173.638 59.8756 174.144 59.3327C174.81 58.6175 174.935 57.0175 174.361 56.5415C174.156 56.3712 173.146 56.1921 172.116 56.1438C170.466 56.0664 170.244 55.987 170.244 55.4766C170.244 54.9583 170.466 54.8882 172.344 54.812C174.207 54.7367 174.445 54.6628 174.445 54.1602C174.445 53.6521 174.243 53.5956 172.489 53.6118C171.414 53.622 170.24 53.7483 169.882 53.8923ZM16.1267 56.7802V58.6632H14.5333H12.94L12.8511 57.1044C12.7219 54.8375 12.8215 54.7072 14.6026 54.8094L16.1267 54.8972V56.7802ZM107.815 55.4766C107.815 56.1687 107.738 56.2008 106.077 56.2008C104.416 56.2008 104.339 56.1687 104.339 55.4766C104.339 54.7845 104.416 54.7524 106.077 54.7524C107.738 54.7524 107.815 54.7845 107.815 55.4766ZM137.767 55.2106C137.864 55.4627 137.943 56.169 137.943 56.7802C137.943 58.6282 137.773 58.8081 136.029 58.8081H134.467V56.9734C134.467 55.9641 134.554 55.0516 134.66 54.9456C134.766 54.8393 135.469 54.7524 136.222 54.7524C137.203 54.7524 137.641 54.8821 137.767 55.2106ZM160.394 56.7802V58.6632H158.801H157.208L157.119 57.1044C156.99 54.8375 157.089 54.7072 158.87 54.8094L160.394 54.8972V56.7802ZM58.2772 57.7941V58.8081H56.6838C55.1806 58.8081 55.0905 58.7675 55.0905 58.0893C55.0905 57.5409 55.2794 57.3289 55.8872 57.1951C56.3252 57.0983 56.8142 56.9758 56.9735 56.9225C57.9643 56.5922 58.2772 56.8014 58.2772 57.7941Z" fill="#B1BED3"/>
</svg>
