<svg width="251" height="61" viewBox="0 0 251 61" fill="none" xmlns="http://www.w3.org/2000/svg">
<path fill-rule="evenodd" clip-rule="evenodd" d="M56.7361 5.30311C52.6615 6.45838 51.8643 6.25259 51.6923 6.43795C51.5204 6.62356 48.048 9.64703 44.1267 13.8775C40.2055 18.1079 35.6545 23.0414 35.4263 23.2848C34.7835 23.9702 28.5244 14.267 25.9693 14.2557C25.6735 14.2545 10.1226 16.0205 9.95542 16.1471C9.91204 16.1802 12.7658 20.1337 16.394 25.095C20.0222 30.056 23.376 35.0014 23.4474 35.1873C23.5258 35.3918 19.0969 39.907 12.099 47.0401L0.372314 58.6407L7.50794 58.4348L14.8958 58.5017L23.0174 51.1834C30.6423 44.3126 31.1623 43.8932 31.5174 44.3298C31.7255 44.5852 33.8249 47.8715 36.1829 51.6323L40.47 58.4704L47.9726 58.4822C52.0991 58.4888 55.4752 58.4379 55.4752 58.3693C55.4752 58.3007 53.4352 55.4479 50.9421 52.0303C48.449 48.6124 46.4569 45.7387 46.5155 45.6439C46.574 45.5493 49.464 44.6853 52.9376 43.7238C56.4113 42.7624 56.8609 41.8448 56.8622 41.7441C56.8634 41.6435 55.3082 39.9465 51.9445 36.9526C48.5809 33.9586 46.0181 31.2771 46.0181 31.1523C46.0181 31.0274 50.6016 27.1258 54.9708 23.2848C59.3399 19.4437 62.9517 16.2071 62.9971 16.0926C63.0423 15.9782 60.6462 15.8538 57.6725 15.8165L52.2656 15.7484L57.0364 10.7047C65.5952 1.65646 63.7673 2.38204 63.419 2.40298C59.4191 4.16806 60.8107 4.14759 56.7361 5.30311ZM122.184 5.09352C122.127 5.26702 120.136 14.601 117.761 25.8359C115.385 37.0708 113.385 46.4615 113.317 46.7044C113.2 47.1159 113.602 47.1457 119.262 47.1457C122.6 47.1457 125.331 47.1041 125.331 47.0529C125.331 47.0019 127.317 37.6309 129.744 26.2285C132.171 14.8262 134.157 5.33511 134.157 5.13765C134.157 4.83679 133.191 4.77828 128.223 4.77828C123.7 4.77828 122.264 4.85318 122.184 5.09352ZM194.178 4.86453C194.178 4.91194 193.837 6.55696 193.421 8.51998C193.005 10.483 192.665 12.2032 192.665 12.3426C192.665 12.5053 194.81 12.5961 198.659 12.5961H204.653L205.359 9.12851C205.747 7.22147 206.121 5.46247 206.191 5.21961C206.308 4.80804 205.908 4.77828 200.247 4.77828C196.909 4.77828 194.178 4.81712 194.178 4.86453ZM69.2481 16.568C68.9962 17.4151 60.5189 57.557 60.5189 57.9027C60.5189 58.1912 61.5049 58.2396 66.2357 58.1837L71.9523 58.1158L73.0354 52.9631C73.6308 50.1291 74.1713 47.6722 74.2358 47.5038C74.3236 47.2751 76.4599 47.1664 82.6304 47.0766C91.7215 46.9439 93.1713 46.7573 97.5601 45.1547C105.338 42.3145 109.974 35.6513 109.653 27.775C109.568 25.681 109.439 25.0884 108.756 23.6315C107.401 20.743 105.147 18.8919 101.288 17.5001C97.9069 16.2805 95.792 16.1297 82.0347 16.1282C70.1993 16.1267 69.3709 16.1552 69.2481 16.568ZM142.617 16.427C142.384 17.1201 141.471 21.6892 141.471 22.1615C141.471 22.6457 141.741 22.6588 153.639 22.7428C164.35 22.8185 165.963 22.8808 167.112 23.2646C169.151 23.9457 170.32 25.7865 169.865 27.5994L169.706 28.2317L160.821 28.2324C151.375 28.2334 147.343 28.4803 144.373 29.2402C139.28 30.5424 136.037 33.6206 135.136 38.0077C134.305 42.0523 136.321 45.0419 140.837 46.463C142.59 47.0148 142.76 47.0196 160.127 47.0196H177.649L179.752 37.3104C181.474 29.3637 181.863 27.1664 181.895 25.2054C181.931 23.0606 181.865 22.6775 181.27 21.5487C180.377 19.855 179.252 18.8322 177.259 17.9018C173.886 16.3269 173.578 16.3005 157.419 16.194C145.473 16.1153 142.707 16.1587 142.617 16.427ZM188.564 31.3217C186.793 39.6782 185.346 46.6592 185.348 46.835C185.351 47.0862 186.635 47.1404 191.327 47.0872L197.303 47.0196L200.524 31.8884C202.296 23.5662 203.749 16.6154 203.753 16.4419C203.759 16.1983 202.399 16.1269 197.772 16.1274L191.782 16.1282L188.564 31.3217ZM209.412 31.5565L206.131 47.0196L211.792 47.0874C214.906 47.1248 217.506 47.1031 217.57 47.039C217.662 46.9475 220.799 32.4293 222.415 24.6201L222.718 23.1521L229.569 23.2331C237.141 23.3226 237.678 23.4267 238.3 24.927C238.687 25.8621 238.723 25.6445 236.266 37.2574C235.171 42.4295 234.276 46.7704 234.276 46.9036C234.276 47.0514 236.563 47.1457 240.145 47.1457H246.014L248.219 36.743C250.501 25.9776 250.754 23.9982 250.119 21.8783C249.682 20.4179 248.11 18.7845 246.304 17.9124C243.114 16.3716 242.383 16.3073 226.826 16.195L212.693 16.0934L209.412 31.5565ZM92.9249 23.4989C95.709 24.3094 96.9074 25.4558 97.3367 27.719C97.7813 30.0635 96.7972 34.2816 95.297 36.4623C93.162 39.5652 90.0896 40.3962 81.1778 40.2809L75.7351 40.2105L77.5768 31.6362C78.5896 26.9203 79.4216 23.0207 79.4256 22.9703C79.4296 22.9198 82.185 22.9355 85.5484 23.0051C89.823 23.0936 92.0435 23.2421 92.9249 23.4989ZM168.376 34.8816C168.304 35.0715 167.98 36.4953 167.658 38.0455L167.071 40.8642L158.117 40.7896C150.188 40.7235 149.071 40.6647 148.364 40.2779C147.235 39.6603 147.058 38.6377 147.816 37.1248C148.483 35.7973 149.542 35.1254 151.485 34.7986C152.149 34.6871 156.252 34.5822 160.601 34.5661C167.199 34.5411 168.487 34.5936 168.376 34.8816ZM121.603 52.0003C121.395 52.8048 121.357 52.8237 119.538 53.0232C116.744 53.3298 115.772 54.0039 115.374 55.9087C115.23 56.5999 115.318 56.8425 115.939 57.4632C116.79 58.3143 118 58.567 120.649 58.4472L122.399 58.368L123.1 55.0896C123.485 53.2864 123.804 51.6694 123.809 51.4959C123.815 51.2952 123.454 51.1807 122.816 51.1807C121.898 51.1807 121.797 51.2488 121.603 52.0003ZM133.786 51.4959C133.729 51.6694 133.647 52.0381 133.602 52.3155C133.552 52.6315 133.287 52.8529 132.894 52.9084C131.777 53.0658 131.471 54.2069 132.545 54.2069C133.121 54.2069 133.184 54.2856 133.045 54.8376C132.958 55.1844 132.82 55.9548 132.739 56.5495C132.542 57.9839 132.955 58.3133 134.987 58.3443C136.428 58.366 136.56 58.3226 136.634 57.8006C136.697 57.3529 136.591 57.2324 136.13 57.2294C135.012 57.2218 134.799 56.8884 135.057 55.5506C135.291 54.3411 135.299 54.3325 136.364 54.2556C136.953 54.2127 137.436 54.0803 137.436 53.9608C137.436 53.8415 137.505 53.5643 137.589 53.3449C137.714 53.0199 137.545 52.946 136.678 52.946H135.614L135.78 52.0633L135.946 51.1807H134.918C134.318 51.1807 133.846 51.3121 133.786 51.4959ZM151.306 51.8111C151.306 52.3758 151.409 52.4416 152.288 52.4416C152.95 52.4416 153.319 52.312 153.423 52.0426C153.709 51.2969 153.577 51.1807 152.441 51.1807C151.399 51.1807 151.306 51.2321 151.306 51.8111ZM197.2 51.7481C197.194 52.6867 196.904 52.863 195.068 53.0471C194.102 53.1442 193.034 53.3596 192.695 53.526C191.842 53.9451 191.166 54.932 190.991 56.0128C190.713 57.7227 192.225 58.4903 195.875 58.4926C197.822 58.4941 197.959 58.4588 198.081 57.9267C198.35 56.7444 199.474 51.388 199.474 51.2866C199.474 51.2283 198.963 51.1807 198.339 51.1807C197.332 51.1807 197.204 51.2442 197.2 51.7481ZM204.646 51.4959C204.492 51.9471 203.257 57.9489 203.257 58.2459C203.257 58.3824 203.703 58.4941 204.248 58.4941H205.238L205.524 57.044C206.022 54.5229 206.117 54.3408 206.984 54.2548C207.418 54.212 207.995 54.2957 208.267 54.4409C208.734 54.6911 208.742 54.7837 208.413 56.1583C207.874 58.4152 207.896 58.4941 209.052 58.4941C209.887 58.4941 210.078 58.3985 210.185 57.9267C211.07 54.0271 211.058 53.7752 209.948 53.3114C209.467 53.1104 208.487 52.946 207.771 52.946H206.469L206.612 52.0633L206.756 51.1807H205.755C205.18 51.1807 204.708 51.3148 204.646 51.4959ZM233.383 52.029C233.224 52.8754 233.219 52.8779 231.464 53.0411C230.496 53.1311 229.322 53.3644 228.855 53.5598C227.167 54.2649 226.669 56.8102 228.023 57.8165C228.572 58.225 229.216 58.3463 231.33 58.4404C232.908 58.5105 234.016 58.4583 234.108 58.3095C234.192 58.1733 234.588 56.5137 234.989 54.6213L235.716 51.1807H234.629C233.595 51.1807 233.534 51.2218 233.383 52.029ZM81.3377 54.9726C80.9438 56.7959 80.9382 57.0576 81.2835 57.5847C81.6754 58.1824 82.7396 58.4858 84.464 58.4913C85.0171 58.4931 85.2463 58.5819 85.093 58.7352C84.9606 58.8676 83.888 59.0096 82.7098 59.0504C80.7067 59.1198 80.5624 59.1614 80.487 59.692C80.4081 60.2483 80.4563 60.2594 82.9585 60.2594C85.6458 60.2594 86.7448 59.9434 87.2336 59.0308C87.5122 58.5097 88.5116 54.1065 88.5116 53.3992C88.5116 53.0403 88.3064 52.946 87.5238 52.946C86.4432 52.946 86.4853 52.862 85.8554 56.2875C85.7061 57.0987 85.5868 57.2327 85.0161 57.2296C84.6499 57.2279 84.082 57.1545 83.7539 57.0665C83.1171 56.896 83.1146 56.84 83.623 53.8917L83.7862 52.946H82.7807H81.7755L81.3377 54.9726ZM90.8497 53.4413C88.4491 54.531 88.0509 57.2546 90.163 58.1373C92.1224 58.9558 95.1336 58.3178 96.2984 56.8372C97.1639 55.7369 96.9659 54.2707 95.8508 53.5217C94.7379 52.774 92.4021 52.7364 90.8497 53.4413ZM97.7195 55.1092C97.2671 57.2662 97.2671 57.2743 97.7939 57.8011C98.2488 58.256 98.7068 58.3451 101.096 58.4437C103.851 58.5571 103.87 58.5539 104.004 57.9585C105.183 52.7046 105.187 52.946 103.927 52.946H102.951L102.501 55.0896C102.076 57.1149 102.015 57.2329 101.397 57.2296C101.037 57.2279 100.475 57.1545 100.147 57.0667C99.5047 56.895 99.5133 57.1182 100.028 53.8917L100.179 52.946H99.1761H98.1737L97.7195 55.1092ZM105.7 55.5309C105.398 56.9525 105.152 58.2011 105.153 58.305C105.155 58.4089 105.608 58.4941 106.16 58.4941C106.995 58.4941 107.186 58.3985 107.293 57.9267C107.364 57.6145 107.567 56.6783 107.744 55.8461C108.039 54.4576 108.125 54.3262 108.789 54.2498C109.419 54.1774 109.494 54.2359 109.372 54.7047C109.243 55.1983 109.318 55.2363 110.283 55.1662C111.239 55.0966 111.342 55.0222 111.419 54.3454C111.547 53.2211 110.959 52.946 108.428 52.946H106.249L105.7 55.5309ZM124.765 53.5765L124.644 54.2069H126.848C128.399 54.2069 129.136 54.3085 129.337 54.5501C129.572 54.8339 129.236 54.9153 127.398 55.0202C126.175 55.0898 124.928 55.2785 124.628 55.4394C123.892 55.833 123.49 56.6463 123.673 57.3734C123.888 58.2333 125.219 58.5387 128.347 58.4462L130.985 58.368L131.299 56.8549C131.472 56.0227 131.618 54.9673 131.624 54.5093C131.64 53.3228 130.619 52.946 127.386 52.946C124.919 52.946 124.884 52.9546 124.765 53.5765ZM138.697 53.5765C138.697 54.1958 138.732 54.2069 140.694 54.2069C141.792 54.2069 142.87 54.2758 143.089 54.36C143.958 54.6931 143.389 54.8992 141.266 55.0202C140.044 55.0898 138.798 55.2785 138.498 55.4394C137.762 55.833 137.36 56.6463 137.543 57.3734C137.759 58.2338 139.09 58.5385 142.226 58.4462L144.873 58.368L145.165 57.1071C145.326 56.4136 145.468 55.3582 145.482 54.7615C145.504 53.7535 145.444 53.6511 144.631 53.3114C144.065 53.0746 142.865 52.946 141.227 52.946H138.697V53.5765ZM150.937 53.5134C149.762 58.7816 149.756 58.4941 151.049 58.4941C151.882 58.4941 152.076 58.3975 152.188 57.9267C152.263 57.6145 152.537 56.3664 152.799 55.1526L153.274 52.946H152.169C151.228 52.946 151.045 53.0305 150.937 53.5134ZM154.72 53.5134C153.548 58.767 153.544 58.4941 154.797 58.4941H155.767L156.217 56.3505L156.666 54.2069L157.58 54.2107C159.092 54.2173 159.248 54.4399 158.911 56.1167C158.449 58.4212 158.471 58.4941 159.628 58.4941C160.183 58.4941 160.637 58.4447 160.637 58.3844C160.637 58.3241 160.812 57.4447 161.026 56.4299C161.24 55.4154 161.354 54.3411 161.28 54.043C161.085 53.2625 159.908 52.946 157.2 52.946C154.965 52.946 154.84 52.9745 154.72 53.5134ZM168.077 53.325C166.412 53.9139 165.427 55.4298 165.783 56.8516C166.015 57.7723 166.911 58.2346 168.811 58.4119C171.06 58.622 170.607 58.9581 167.949 59.0504C165.946 59.1198 165.802 59.1614 165.726 59.692C165.647 60.2481 165.696 60.2594 168.169 60.2594C172.123 60.2594 172.405 60.0352 173.232 56.2363C174.004 52.6885 174.145 52.9442 171.418 52.9571C170.079 52.9634 168.656 53.1202 168.077 53.325ZM176.089 53.4413C175.011 53.9305 174.006 55.1869 174.004 56.0479C174.004 56.2973 174.17 56.8241 174.374 57.2183C175.349 59.1041 179.947 58.8593 181.538 56.8372C182.403 55.7369 182.205 54.2707 181.09 53.5217C179.977 52.774 177.641 52.7364 176.089 53.4413ZM184.555 53.4559C182.164 54.7186 181.852 57.2493 183.976 58.1373C186.045 59.0012 189.173 58.2616 190.137 56.6804C191.003 55.259 190.728 54.0178 189.391 53.3268C188.327 52.7768 185.708 52.8466 184.555 53.4559ZM212.335 53.1775C212.335 53.3048 212.267 53.5886 212.182 53.808C212.051 54.1514 212.311 54.2069 214.053 54.2069C215.166 54.2069 216.256 54.2758 216.476 54.36C217.336 54.6901 216.783 54.8982 214.7 55.028C212.182 55.1852 211.248 55.6744 211.125 56.9013C210.998 58.1552 211.518 58.3574 215.123 58.4558C218.759 58.5549 218.371 58.7929 218.897 56.1407C219.277 54.2263 219.098 53.5714 218.1 53.2234C217.139 52.8887 212.335 52.8504 212.335 53.1775ZM220.53 53.2612C220.424 53.5636 219.397 58.2497 219.397 58.4338C219.397 58.483 219.877 58.4883 220.464 58.4454L221.531 58.368L221.853 56.8549C222.029 56.0227 222.232 55.0865 222.303 54.7743C222.409 54.3093 222.602 54.2077 223.373 54.2107C224.962 54.2173 225.058 54.3915 224.594 56.432C224.371 57.413 224.188 58.2845 224.188 58.3693C224.188 58.4537 224.671 58.4883 225.26 58.4454L226.332 58.368L226.754 56.3619C227.398 53.3061 227.005 52.946 223.029 52.946C221.347 52.946 220.609 53.039 220.53 53.2612ZM237.133 53.3137C235.871 53.8622 235.419 55.0623 236.185 55.8282C236.471 56.114 237.086 56.2254 238.392 56.2282C241.977 56.236 241.446 57.1739 237.793 57.2861C235.54 57.3552 235.406 57.39 235.33 57.9267C235.251 58.485 235.292 58.4941 237.978 58.4936C241.108 58.4933 242.299 58.0934 242.712 56.9046C243.187 55.5352 242.379 55.0323 239.635 54.9887C238.127 54.9645 237.607 54.6866 238.457 54.36C238.677 54.2758 239.812 54.2069 240.979 54.2069C243.076 54.2069 243.102 54.1991 243.102 53.5765V52.946L240.517 52.9558C238.895 52.9621 237.635 53.0953 237.133 53.3137ZM94.3959 54.7277C94.8604 55.3909 94.6738 56.1016 93.8686 56.7348C92.734 57.6273 91.0335 57.2334 91.0335 56.0779C91.0335 54.5368 93.5534 53.5247 94.3959 54.7277ZM121.044 54.4399C121.044 54.568 120.909 55.2585 120.743 55.9745L120.443 57.276L119.293 57.1088C117.789 56.8904 117.381 56.4955 117.692 55.5556C117.854 55.0644 118.202 54.7423 118.793 54.5363C119.839 54.1719 121.044 54.1202 121.044 54.4399ZM171.4 54.7743C171.325 55.0865 171.186 55.7674 171.092 56.2875C170.935 57.1562 170.852 57.2332 170.082 57.2332C168.289 57.2332 167.63 56.5969 168.114 55.3344C168.325 54.7849 169.605 54.2294 170.689 54.2168C171.441 54.2079 171.521 54.2702 171.4 54.7743ZM179.635 54.7277C180.1 55.3909 179.913 56.1016 179.108 56.7348C177.973 57.6273 176.273 57.2334 176.273 56.0779C176.273 54.5368 178.793 53.5247 179.635 54.7277ZM187.89 54.4679C188.516 54.8033 188.534 56.0053 187.92 56.5606C186.742 57.6261 184.847 57.269 184.847 55.9816C184.847 54.6629 186.613 53.7845 187.89 54.4679ZM196.695 54.3961C196.692 54.5 196.54 55.1526 196.357 55.8461L196.024 57.1071L194.912 57.0392C193.39 56.9462 193.169 56.8352 193.169 56.1624C193.169 55.3728 193.807 54.5174 194.495 54.3847C195.484 54.1938 196.7 54.2004 196.695 54.3961ZM232.645 55.374C232.36 57.2745 232.334 57.3018 231.024 57.1058C229.545 56.8844 229.484 56.8405 229.484 55.9964C229.484 54.8999 230.366 54.3063 232.098 54.2362C232.816 54.2072 232.819 54.2125 232.645 55.374ZM129.114 56.7288C129.114 57.1767 128.946 57.2332 127.615 57.2332C126.13 57.2332 125.447 56.8771 126.118 56.4524C126.309 56.3311 127.062 56.2305 127.79 56.2282C128.947 56.2249 129.114 56.288 129.114 56.7288ZM143.057 56.7288C142.944 57.1603 142.713 57.2332 141.456 57.2332C139.998 57.2332 139.323 56.874 139.989 56.4524C140.18 56.3311 140.978 56.2305 141.762 56.2282C143.066 56.2247 143.178 56.268 143.057 56.7288ZM216.623 56.7288C216.623 57.1815 216.454 57.2332 214.983 57.2332C213.737 57.2332 213.344 57.1474 213.344 56.8758C213.344 56.3939 213.734 56.2678 215.299 56.2443C216.461 56.2269 216.623 56.2859 216.623 56.7288ZM243.261 57.5484C243.013 58.4744 243.06 58.5281 244.048 58.4462C244.869 58.3783 245.004 58.2767 245.073 57.6745C245.147 57.0365 245.084 56.981 244.283 56.981C243.594 56.981 243.382 57.099 243.261 57.5484Z" fill="#B1BED3"/>
<path d="M25.591 11.7267L9.95542 15.8878L26.8519 31.019L0.372314 58.3813L15.8818 53.968L33.4088 35.3062L43.2441 46.2763L59.6362 41.9891L42.1092 26.3535L66.8236 0L51.5662 4.41327L35.5524 21.1837L25.591 11.7267Z" fill="#D9E1EE"/>
</svg>
