<svg width="24" height="24" viewBox="0 0 24 24" fill="none" xmlns="http://www.w3.org/2000/svg">
<path d="M12.5917 0C12.437 0 12.2773 0.00799943 12.1137 0.0209985C7.89502 0.353975 9.0138 4.82765 8.94993 6.31855C8.87308 7.41147 8.65052 8.27241 7.90101 9.33933C7.01776 10.3903 5.77822 12.0891 5.19039 13.86C4.91294 14.6919 4.7812 15.5439 4.90396 16.3488C4.86503 16.3828 4.82811 16.4168 4.79318 16.4838C4.53369 16.7518 4.34507 17.0848 4.13249 17.3228C3.93388 17.5217 3.64845 17.5897 3.33707 17.7227C3.02469 17.8587 2.68037 17.9917 2.47478 18.4037C2.38495 18.5917 2.33905 18.7967 2.34304 19.0046C2.34304 19.2036 2.36998 19.4056 2.39793 19.5406C2.45581 19.9396 2.5137 20.2695 2.43685 20.5105C2.18934 21.1905 2.1584 21.6564 2.33206 21.9954C2.50572 22.3294 2.866 22.4644 3.2692 22.5964C4.07859 22.7964 5.17542 22.7314 6.03871 23.1953C6.96287 23.6623 7.90101 23.8663 8.64953 23.6653C9.17448 23.5503 9.61761 23.2023 9.85513 22.7204C10.441 22.7174 11.0827 22.4514 12.1107 22.3864C12.8083 22.3284 13.6815 22.6534 14.6836 22.5854C14.7085 22.7204 14.7464 22.7844 14.7973 22.9194L14.8003 22.9224C15.1905 23.7003 15.9111 24.0543 16.6806 23.9933C17.4501 23.9333 18.2694 23.4573 18.9331 22.6874C19.5629 21.9224 20.6128 21.6035 21.3064 21.1845C21.6537 20.9855 21.9342 20.7155 21.9541 20.3315C21.9771 19.9316 21.7555 19.5196 21.2415 18.9546V18.8576L21.2386 18.8546C21.0689 18.6547 20.989 18.3197 20.9012 17.9287C20.8164 17.5277 20.7196 17.1428 20.4102 16.8828H20.4072C20.3483 16.8288 20.2844 16.8158 20.2196 16.7478C20.1637 16.7098 20.0988 16.6858 20.0299 16.6838C20.4601 15.4059 20.2934 14.134 19.8573 12.9901C19.3253 11.5802 18.3952 10.3523 17.6866 9.50732C16.8922 8.50239 16.1137 7.55046 16.1287 6.13856C16.1556 3.98671 16.3652 0.00599957 12.5917 0ZM13.1197 3.40476H13.1326C13.3452 3.40476 13.5278 3.46675 13.7155 3.60274C13.9061 3.73773 14.0448 3.93472 14.1536 4.1357C14.2584 4.39468 14.3113 4.59467 14.3193 4.85965C14.3193 4.83965 14.3253 4.81965 14.3253 4.80066V4.90465C14.3233 4.89765 14.3213 4.88965 14.3213 4.88365L14.3173 4.85965C14.3153 5.10263 14.2644 5.34262 14.1676 5.5656C14.1207 5.69059 14.0488 5.80558 13.955 5.90058C13.9261 5.88458 13.8981 5.87058 13.8672 5.85858C13.7624 5.81358 13.6686 5.79458 13.5827 5.72559C13.5119 5.69759 13.438 5.67459 13.3642 5.65959C13.4131 5.6006 13.5089 5.5266 13.5458 5.46161C13.5987 5.33362 13.6276 5.19763 13.6336 5.05964V5.04064C13.6356 4.90565 13.6157 4.76966 13.5728 4.64067C13.5278 4.50568 13.472 4.43968 13.3901 4.30669C13.3063 4.2407 13.2235 4.1747 13.1236 4.1747H13.1077C13.0149 4.1747 12.932 4.2047 12.8462 4.30669C12.7514 4.40068 12.6805 4.51368 12.6416 4.64067C12.5887 4.76766 12.5578 4.90465 12.5518 5.04064V5.05964C12.5538 5.14863 12.5598 5.23862 12.5717 5.32662C12.3791 5.25962 12.1346 5.19163 11.9659 5.12463C11.956 5.05964 11.95 4.99264 11.948 4.92565V4.90565C11.94 4.64167 11.9909 4.37969 12.0977 4.1367C12.1795 3.91772 12.3292 3.73073 12.5268 3.60374C12.6975 3.47475 12.9051 3.40476 13.1197 3.40476ZM10.1635 3.46375H10.1995C10.3412 3.46375 10.4689 3.51175 10.5977 3.59874C10.7434 3.72773 10.8611 3.88672 10.941 4.06371C11.0308 4.26269 11.0817 4.46468 11.0937 4.73066V4.73466C11.1007 4.86865 11.0997 4.93565 11.0917 5.00064V5.08064C11.0617 5.08764 11.0358 5.09863 11.0088 5.10463C10.8571 5.15963 10.7354 5.23962 10.6166 5.30462C10.6286 5.21563 10.6296 5.12563 10.6196 5.03764V5.02264C10.6076 4.88965 10.5807 4.82365 10.5378 4.68966C10.5068 4.58767 10.45 4.49668 10.3721 4.42268C10.3232 4.37769 10.2573 4.35469 10.1895 4.35869H10.1685C10.0977 4.36469 10.0388 4.39968 9.98288 4.49068C9.91901 4.56767 9.87809 4.66167 9.86312 4.76066C9.83617 4.86865 9.82819 4.97964 9.84016 5.09163V5.10563C9.85214 5.24062 9.87709 5.30662 9.921 5.43961C9.96591 5.5736 10.0178 5.6396 10.0857 5.70759C10.0967 5.71659 10.1066 5.72559 10.1196 5.73159C10.0497 5.78858 10.0028 5.80158 9.94396 5.86758C9.90703 5.89558 9.86412 5.92758 9.81322 5.93557C9.70942 5.81058 9.61761 5.67559 9.53876 5.5336C9.44295 5.32362 9.39305 5.09563 9.38407 4.86665C9.3671 4.64067 9.39505 4.41468 9.46391 4.1987C9.5188 4.00171 9.61561 3.81973 9.74635 3.66374C9.8741 3.53075 10.0058 3.46375 10.1635 3.46375ZM11.5318 5.16963C11.8622 5.16963 12.2624 5.23462 12.7444 5.5686C13.0368 5.76859 13.2664 5.83758 13.7953 6.03657H13.7983C14.0528 6.17256 14.2025 6.30255 14.2754 6.43554V6.30455C14.3482 6.45154 14.3532 6.62252 14.2913 6.77451C14.1686 7.08549 13.7764 7.41847 13.2294 7.61745V7.61945C12.962 7.75444 12.7294 7.95243 12.456 8.08442C12.1805 8.21941 11.8691 8.3764 11.446 8.3514C11.2943 8.3594 11.1416 8.3364 10.9989 8.28441C10.8891 8.22441 10.7813 8.15841 10.6775 8.08642C10.4829 7.95143 10.3152 7.75444 10.0667 7.62145V7.61645H10.0617C9.66252 7.37047 9.44694 7.10449 9.37708 6.9055C9.30822 6.63752 9.37209 6.43654 9.5697 6.30555C9.79326 6.17056 9.94895 6.03457 10.0517 5.96957C10.1555 5.89558 10.1945 5.86758 10.2274 5.83858H10.2294V5.83558C10.3981 5.6336 10.6645 5.36662 11.0667 5.23462C11.2055 5.19863 11.3601 5.16963 11.5318 5.16963ZM14.3253 7.31248C14.6836 8.72937 15.5199 10.7872 16.0578 11.7852C16.3433 12.3191 16.9111 13.444 17.1576 14.8089C17.3133 14.8039 17.486 14.8269 17.6696 14.8729C18.3144 13.2021 17.1247 11.4062 16.5828 10.9072C16.3622 10.7062 16.3512 10.5722 16.46 10.5722C17.0479 11.1062 17.8223 12.1441 18.1028 13.329C18.2315 13.864 18.2615 14.433 18.1237 14.9989C18.1906 15.0269 18.2585 15.0599 18.3283 15.0659C19.3583 15.5999 19.7385 16.0039 19.5559 16.6028V16.5598C19.495 16.5568 19.4361 16.5598 19.3752 16.5598H19.3603C19.511 16.0928 19.1786 15.7349 18.2974 15.3359C17.3842 14.9359 16.6546 14.9999 16.5299 15.8009C16.5229 15.8439 16.5179 15.8669 16.5129 15.9359C16.4451 15.9589 16.3742 15.9889 16.3043 15.9999C15.8752 16.2678 15.6437 16.6688 15.5129 17.1868C15.3832 17.7197 15.3432 18.3427 15.3083 19.0556V19.0586C15.2874 19.3926 15.1377 19.8966 14.9899 20.4095C13.4929 21.4815 11.417 21.9474 9.65154 20.7435C9.54076 20.5505 9.40602 20.3695 9.25033 20.2106C9.17648 20.0856 9.08267 19.9736 8.97588 19.8766C9.15752 19.8766 9.31321 19.8476 9.43996 19.8096C9.58467 19.7426 9.69645 19.6216 9.75334 19.4756C9.86112 19.2086 9.75334 18.7787 9.40902 18.3127C9.0647 17.8457 8.47986 17.3178 7.62456 16.7918C6.99581 16.3928 6.64051 15.9219 6.47684 15.3959C6.31216 14.8619 6.33412 14.311 6.46187 13.751C6.70638 12.6811 7.33314 11.6412 7.73334 10.9882C7.84013 10.9232 7.77027 11.1232 7.32615 11.9621C6.93094 12.7131 6.18741 14.459 7.20439 15.8159C7.24232 14.8269 7.46188 13.851 7.85011 12.9401C8.413 11.6622 9.58966 9.43632 9.68248 7.67245C9.73038 7.70845 9.89905 7.80744 9.9709 7.87443C10.1885 8.00743 10.3502 8.20741 10.5597 8.3394C10.7703 8.54039 11.0358 8.67438 11.434 8.67438C11.4729 8.67738 11.5089 8.68038 11.5448 8.68038C11.955 8.68038 12.2723 8.54639 12.5388 8.4124C12.8282 8.27841 13.0588 8.07842 13.2773 8.01243H13.2823C13.7484 7.87744 14.1167 7.61045 14.3253 7.31248ZM16.5069 16.2698C16.5439 16.8708 16.8493 17.5147 17.3872 17.6467C17.974 17.7807 18.8184 17.3138 19.1746 16.8818L19.3852 16.8728C19.6996 16.8648 19.9611 16.8828 20.2305 17.1398L20.2335 17.1428C20.4411 17.3418 20.5379 17.6737 20.6238 18.0187C20.7086 18.4197 20.7775 18.7987 21.032 19.0846C21.517 19.6116 21.6757 19.9906 21.6667 20.2246L21.6697 20.2185V20.2365L21.6667 20.2246C21.6517 20.4865 21.4821 20.6205 21.1697 20.8195C20.5409 21.2205 19.4271 21.5315 18.7176 22.3894C18.1008 23.1263 17.3493 23.5283 16.6856 23.5803C16.0229 23.6333 15.451 23.3803 15.1147 22.6824L15.1097 22.6794C14.9001 22.2784 14.9899 21.6544 15.1656 20.9895C15.3413 20.3215 15.5928 19.6446 15.6277 19.0916C15.6646 18.3777 15.7035 17.7567 15.8223 17.2778C15.9421 16.8128 16.1297 16.4808 16.462 16.2938L16.5069 16.2718V16.2698ZM5.71335 16.3188H5.72333C5.77623 16.3188 5.82812 16.3238 5.88002 16.3328C6.25528 16.3878 6.58462 16.6658 6.90099 17.0848L7.80919 18.7487L7.81219 18.7517C8.05471 19.2846 8.56469 19.8156 8.99883 20.3895C9.43197 20.9875 9.76731 21.5205 9.72639 21.9594V21.9654C9.6695 22.7094 9.24834 23.1133 8.60362 23.2593C7.95989 23.3943 7.08663 23.2613 6.21336 22.7954C5.24728 22.2594 4.09955 22.3264 3.36202 22.1934C2.99375 22.1274 2.75223 21.9924 2.64045 21.7924C2.52967 21.5935 2.52767 21.1915 2.7632 20.5625V20.5595L2.7652 20.5565C2.88197 20.2225 2.79514 19.8036 2.73825 19.4376C2.68336 19.0366 2.65542 18.7287 2.78117 18.4977C2.94085 18.1637 3.17638 18.0987 3.4688 17.9647C3.76322 17.8297 4.10854 17.7627 4.38299 17.4957H4.38499V17.4927C4.64048 17.2248 4.82911 16.8918 5.05166 16.6548C5.24129 16.4538 5.43091 16.3188 5.71335 16.3188ZM12.8582 7.24548C12.424 7.44647 11.915 7.78044 11.3731 7.78044C10.8322 7.78044 10.405 7.51346 10.0967 7.31448C9.94196 7.18049 9.81721 7.04649 9.72339 6.9795C9.55972 6.84551 9.57968 6.64552 9.64954 6.64552C9.75833 6.66152 9.77829 6.78051 9.84815 6.84651C9.94396 6.9125 10.0627 7.04549 10.2084 7.17949C10.4989 7.37947 10.8871 7.64645 11.3721 7.64645C11.8562 7.64645 12.423 7.37947 12.7674 7.18048C12.962 7.04549 13.2115 6.84651 13.4141 6.71352C13.5698 6.57653 13.5628 6.44554 13.6925 6.44554C13.8213 6.46154 13.7265 6.57953 13.5458 6.77851C13.3652 6.9135 13.0857 7.11349 12.8572 7.24648V7.24548H12.8582ZM11.7783 5.66159V5.6396C11.7723 5.6206 11.7913 5.5976 11.8073 5.5896C11.8811 5.5466 11.9869 5.5626 12.0667 5.5936C12.1296 5.5936 12.2264 5.66059 12.2164 5.72859C12.2105 5.77759 12.1316 5.79458 12.0817 5.79458C12.0268 5.79458 11.9899 5.75159 11.941 5.72659C11.8891 5.70859 11.7953 5.71859 11.7783 5.66159ZM11.2284 5.66159C11.2084 5.71959 11.1156 5.71059 11.0627 5.72759C11.0158 5.75259 10.9769 5.79558 10.924 5.79558C10.8731 5.79558 10.7933 5.77659 10.7873 5.72759C10.7783 5.66159 10.8751 5.5946 10.937 5.5946C11.0178 5.5636 11.1206 5.5476 11.1955 5.5896C11.2144 5.5986 11.2314 5.6196 11.2254 5.6396V5.66059H11.2284V5.66159Z" fill="currentColor"/>
</svg>
